<svg width="32" height="32" viewBox="0 0 32 32" fill="none" xmlns="http://www.w3.org/2000/svg">
<g clip-path="url(#clip0_0_945)">
<path d="M16 32C24.8366 32 32 24.8366 32 16C32 7.16344 24.8366 0 16 0C7.16344 0 0 7.16344 0 16C0 24.8366 7.16344 32 16 32Z" fill="#F5EB16"/>
<path d="M15.935 4C9.342 4.001 4 9.347 4 15.94C4.001 22.532 9.347 27.876 15.94 27.875C22.532 27.873 27.876 22.528 27.875 15.935C27.8747 14.3673 27.5657 12.8151 26.9655 11.3668C26.3653 9.9186 25.4857 8.60278 24.377 7.4945C23.2682 6.38622 21.952 5.50719 20.5036 4.9076C19.0551 4.30801 17.5027 3.99961 15.935 4ZM11.088 9.23C11.0888 9.19755 11.1024 9.16673 11.1258 9.14425C11.1492 9.12178 11.1805 9.10946 11.213 9.11H16.186C17.2293 9.09045 18.2636 9.30505 19.213 9.738C19.393 9.826 19.57 9.924 19.741 10.03L16.504 11.883H14.815C14.7988 11.8834 14.7829 11.887 14.7682 11.8935C14.7534 11.9 14.74 11.9094 14.7289 11.9211C14.7177 11.9328 14.709 11.9466 14.7032 11.9617C14.6974 11.9768 14.6946 11.9928 14.695 12.009V12.941L11.088 15.027V9.23V9.23ZM9.749 19.708L7.587 17.524L14.707 13.416V16.078C14.7078 16.1104 14.7214 16.1413 14.7448 16.1637C14.7682 16.1862 14.7995 16.1985 14.832 16.198H15.849L9.756 19.708H9.749ZM20.411 17.678C19.367 18.55 17.934 18.986 16.112 18.986H14.815C14.7824 18.986 14.7511 18.999 14.728 19.022C14.705 19.0451 14.692 19.0764 14.692 19.109V21.797L12.882 22.839L11.192 23.816L11.085 23.876V19.421L16.688 16.197C17.1669 16.1823 17.6256 16.0009 17.985 15.684C18.1127 15.5573 18.22 15.4116 18.303 15.252L21.881 13.181C21.941 13.509 21.971 13.841 21.97 14.175C21.974 15.638 21.454 16.805 20.41 17.678H20.411ZM18.491 14.659C18.515 14.506 18.527 14.35 18.528 14.195C18.5582 13.586 18.3571 12.988 17.965 12.521C17.7452 12.2771 17.4636 12.0971 17.15 12L22.123 9.129L24.305 11.312L18.491 14.659V14.659Z" fill="white"/>
</g>
<defs>
<clipPath id="clip0_0_945">
<rect width="32" height="32" fill="white"/>
</clipPath>
</defs>
</svg>
