<svg width="32" height="32" viewBox="0 0 32 32" fill="none" xmlns="http://www.w3.org/2000/svg">
<g clip-path="url(#clip0_0_1640)">
<path d="M16 32C24.8366 32 32 24.8366 32 16C32 7.16344 24.8366 0 16 0C7.16344 0 0 7.16344 0 16C0 24.8366 7.16344 32 16 32Z" fill="#FF914D"/>
<path fill-rule="evenodd" clip-rule="evenodd" d="M16.258 27.516C10.04 27.516 5 22.476 5 16.258C5 10.04 10.04 5 16.258 5C22.476 5 27.516 10.04 27.516 16.258C27.516 22.476 22.476 27.516 16.258 27.516ZM16.258 26.854C22.11 26.854 26.854 22.11 26.854 16.258C26.854 10.406 22.11 5.662 16.258 5.662C10.406 5.662 5.662 10.406 5.662 16.258C5.662 22.11 10.406 26.854 16.258 26.854Z" fill="white"/>
<path d="M13.921 24.2623C14.169 24.1603 15.139 23.4123 16.076 22.6073C17.2374 21.6195 18.3545 20.5809 19.424 19.4943C20.45 18.4683 20.831 18.0273 20.894 17.7993C21.116 16.9983 18.689 8.19332 18.195 8.00432C17.894 7.88832 15.202 10.1273 12.818 12.4713C11.42 13.8453 11.033 14.3023 11.003 14.6013C10.983 14.8323 11.063 15.4113 11.212 16.0973C11.805 18.8193 12.884 22.5803 13.43 23.8153C13.659 24.3393 13.685 24.3623 13.92 24.2623H13.921Z" fill="white"/>
</g>
<defs>
<clipPath id="clip0_0_1640">
<rect width="32" height="32" fill="white"/>
</clipPath>
</defs>
</svg>
