<svg width="32" height="32" viewBox="0 0 32 32" fill="none" xmlns="http://www.w3.org/2000/svg">
<g clip-path="url(#clip0_0_1631)">
<path d="M16 32C24.8366 32 32 24.8366 32 16C32 7.16344 24.8366 0 16 0C7.16344 0 0 7.16344 0 16C0 24.8366 7.16344 32 16 32Z" fill="#F1CB60"/>
<path d="M14.8 24.882V26.345H15.537V24.156H14.074V24.882H14.8V24.882ZM7.463 16.852H6.737V20.504H7.463V19.041H8.2V17.578H7.463V16.852ZM16.274 21.23H17V23.419H16.274V21.23ZM15.537 23.419H16.274V24.156H15.537V23.419ZM8.2 22.693H10.4V24.882H8.2V22.693ZM6.737 15.389H7.474V16.115H6.737V15.389ZM11.137 13.926H11.874V14.663H11.137V13.926V13.926ZM15.537 13.189H16.274V14.652H15.537V13.189V13.189ZM6 11H8.2V13.189H6V11V11ZM12.6 24.882H13.337V26.345H12.6V24.882ZM13.337 13.189H12.611V14.652H13.337V13.926H14.074V12.463H13.337V13.189V13.189ZM14.074 11.737H14.8V12.463H14.074V11.737ZM14.074 13.926H14.8V14.652H14.074V13.926V13.926ZM10.4 15.389H12.6V16.115H10.4V15.389Z" fill="white"/>
<path d="M13.8 12.915V12.189H14.526V11.452H13.8V10H11.6V10.726H13.063V11.452H12.326V12.178H11.6V12.904H10.874V12.189H10.126V11.463H10.863V12.178H11.6V11.452H10.874V10H5V15.115H10.874V14.378H11.6V12.915H12.337V13.641H13.074V12.915H13.8V12.915ZM9.4 14.378H5.737V10.726H9.4V14.378ZM10.126 14.378V12.915H10.863V14.378H10.126ZM13.063 12.178V11.463H13.8V12.178H13.063ZM18.937 20.219V19.493H17.463V18.03H16.737V18.756H16.011V18.03H16.737V15.83H15.274V16.567H14.526V18.03H13.8V18.756H14.537V18.03H15.263V20.219H13.8V19.493H13.063V18.03H12.337V17.304H10.863V16.578H10.126V15.852H8.663V16.578H7.926V17.304H8.663V18.03H9.4V17.304H10.137V18.03H9.4V18.756H10.137V19.482H10.863V18.756H11.6V18.03H12.326V18.756H11.6V19.482H10.874V20.945H12.337V21.682H10.863V20.956H10.126V21.682H8.663V20.956H7.937V21.682H7.2V26.797H12.337V22.408H13.063V24.608H14.537V23.882H15.274V22.408H14.537V21.682H13.8V22.408H13.074V20.945H15.274V21.671H16.011V20.219H17.463V20.956H18.2V20.219H18.937V20.219ZM11.6 26.06H7.937V22.408H11.6V26.06ZM12.337 20.219H11.6V19.493H12.337V20.219ZM13.8 23.145H14.537V23.871H13.8V23.145ZM18.937 10H19.663V11.452H18.937V10V10ZM17.463 10H16.737V12.189H16V12.915H16.737V13.641H17.463V15.104H18.2V13.641H18.937V15.115H19.663V14.378H20.4V12.915H18.937V11.452H17.463V10V10Z" fill="white"/>
<path fill-rule="evenodd" clip-rule="evenodd" d="M23.863 17.189H22.4V17.915H21.663V18.652H20.937V16.463H21.663V15.726H20.937V16.452H20.2V17.189H19.463V15.726H18.737V17.189H18V17.926L18.737 17.915H19.463V19.378H21.663V20.115H19.463V20.841H18.737V21.567H18V22.304H18.737V23.03H18V23.767H18.737V24.493H19.463V25.219H18.737V25.956H24.6V21.567H23.863V25.219H20.2V21.567H22.4V18.652H23.137V19.378H24.6V17.926H23.874V17.189H24.6V15H23.863V17.189Z" fill="white"/>
<path d="M17.937 20.504H18.674V21.23H17.937V20.504ZM21.6 16.852H22.337V17.578H21.6V16.852ZM23.074 20.504H24.537V21.241H23.074V20.504ZM23.074 11.011H25.274V13.2H23.074V11.011ZM20.137 13.926H20.874V14.663H20.137V13.926ZM17.2 15.389H17.937V16.115H17.2V15.389ZM22.337 15.389H23.074V16.115H22.337V15.389V15.389ZM20.874 22.693H23.074V24.882H20.874V22.693ZM20.137 15.389H20.874V16.115H20.137V15.389V15.389ZM15 11H15.737V11.737H15V11V11Z" fill="white"/>
<path d="M20.4953 9.50469V10.2307H21.9583V10.9567H21.2213V11.6827H20.4953V10.9567H19.7583V11.6937H20.4953V12.4087H21.2323V13.1347H21.9693V14.5977H27.0953V9.50469H20.4953ZM26.3583 13.8827H22.6953V10.2307H26.3583V13.8827V13.8827ZM9.94628 8.21769C10.4523 8.55869 11.0243 8.62469 11.4753 8.64669C11.8603 8.66869 12.5093 8.66869 13.1913 8.66869C14.4563 8.66869 15.9413 8.69069 16.0953 8.69069C16.5023 8.70169 17.7453 8.70169 18.8453 8.70169C19.5273 8.70169 20.1653 8.69069 20.5613 8.67969C21.0123 8.65769 21.5843 8.58069 22.0903 8.25069C22.7283 7.82169 23.0473 7.11769 23.0473 6.16069C23.0473 5.39069 22.7283 4.92869 22.4643 4.66469C21.7493 3.97169 20.6493 4.01569 20.2863 4.02669H20.2423C20.0223 4.02669 19.2303 4.14769 18.2953 4.67569C17.4703 5.13769 16.7553 5.79769 16.1723 6.62269L16.1063 6.78769L16.0513 6.69969C15.4353 5.77569 14.6323 5.14869 13.7413 4.64269C12.8173 4.11469 12.0253 4.00469 11.8053 4.00469H11.7613C11.3983 3.99369 10.2983 3.94969 9.58328 4.64269C9.09928 5.10469 9.00028 5.70969 9.00028 6.13869C8.98928 7.08469 9.30828 7.78869 9.94628 8.21769V8.21769ZM18.8343 5.75369C19.6153 5.30269 20.2093 5.23669 20.2533 5.23669H20.3303C20.9573 5.21469 21.3973 5.31369 21.6283 5.53369C21.7713 5.67669 21.8483 5.87469 21.8483 6.16069C21.8483 7.20569 21.3533 7.43669 20.5063 7.48069C19.7913 7.51369 18.1303 7.50269 17.0523 7.49169C17.4958 6.77582 18.1075 6.17918 18.8343 5.75369V5.75369ZM10.4083 5.50069C10.6173 5.30269 10.9913 5.20369 11.5303 5.20369H11.7943C11.8383 5.20369 12.4323 5.26969 13.2133 5.72069C13.9173 6.12769 14.5223 6.71069 15.0063 7.45869C13.9173 7.46969 12.2563 7.48069 11.5413 7.44769C10.6943 7.40369 10.1993 7.17269 10.1993 6.12769C10.1993 5.84169 10.2653 5.64369 10.4083 5.50069V5.50069ZM17.5583 24.8387H16.8323V26.3017H17.5693V24.8387H18.2953V24.1127H17.5583V24.8387Z" fill="white"/>
</g>
<defs>
<clipPath id="clip0_0_1631">
<rect width="32" height="32" fill="white"/>
</clipPath>
</defs>
</svg>
