<svg width="32" height="32" viewBox="0 0 32 32" fill="none" xmlns="http://www.w3.org/2000/svg">
<g clip-path="url(#clip0_0_1627)">
<path d="M16 32C24.8366 32 32 24.8366 32 16C32 7.16344 24.8366 0 16 0C7.16344 0 0 7.16344 0 16C0 24.8366 7.16344 32 16 32Z" fill="#3EFFFF"/>
<path d="M7 10.487L16.5 5L26 10.487V21.513L16.5 27L7 21.513V10.487ZM7.912 20.457L11.722 18.252L13.655 14.867L7.912 11.544V20.457V20.457ZM8.369 21.248L16.071 25.697V21.44L12.033 19.127L8.369 21.247V21.248ZM25.088 11.575L19.396 14.868L21.328 18.25L25.088 20.426V11.575ZM24.658 10.767L16.983 6.334V10.643L18.943 14.074L24.658 10.767ZM18.611 15.322L17.439 16L19.764 17.345L18.611 15.322V15.322ZM18.158 14.528L16.983 12.468V15.208L18.158 14.528ZM13.294 17.343L15.614 16L14.445 15.324L13.295 17.343H13.294ZM12.948 18.599L16.071 20.387V16.792L12.948 18.599ZM8.368 10.752L14.108 14.072L16.071 10.637V6.303L8.368 10.752V10.752ZM24.658 21.233L21.022 19.129L16.983 21.47V25.666L24.658 21.233V21.233ZM20.11 18.601L16.983 16.792V20.414L20.11 18.6V18.601ZM14.898 14.53L16.071 15.208V12.473L14.898 14.53V14.53Z" fill="white"/>
</g>
<defs>
<clipPath id="clip0_0_1627">
<rect width="32" height="32" fill="white"/>
</clipPath>
</defs>
</svg>
