<svg width="32" height="32" viewBox="0 0 32 32" fill="none" xmlns="http://www.w3.org/2000/svg">
<g clip-path="url(#clip0_0_1623)">
<path d="M16 32C24.8366 32 32 24.8366 32 16C32 7.16344 24.8366 0 16 0C7.16344 0 0 7.16344 0 16C0 24.8366 7.16344 32 16 32Z" fill="#767DFF"/>
<path fill-rule="evenodd" clip-rule="evenodd" d="M13.7759 6H18.2359C18.3904 5.99992 18.5422 6.04102 18.6756 6.11905C18.809 6.19709 18.9192 6.30925 18.9949 6.444L25.9009 18.763C25.9736 18.8929 26.0117 19.0392 26.0117 19.188C26.0117 19.3368 25.9736 19.4831 25.9009 19.613L23.6909 23.555C23.6154 23.6898 23.5054 23.8021 23.3722 23.8803C23.239 23.9585 23.0873 23.9998 22.9329 24H9.07887C8.92423 24 8.77238 23.9587 8.63897 23.8805C8.50557 23.8023 8.39542 23.6899 8.31987 23.555L6.11087 19.613C6.03817 19.4831 6 19.3368 6 19.188C6 19.0392 6.03817 18.8929 6.11087 18.763L13.0169 6.444C13.0925 6.30925 13.2028 6.19709 13.3361 6.11905C13.4695 6.04102 13.6213 5.99992 13.7759 6V6ZM16.0059 10.901L11.3529 19.188H20.6589L16.0059 10.901Z" fill="white"/>
</g>
<defs>
<clipPath id="clip0_0_1623">
<rect width="32" height="32" fill="white"/>
</clipPath>
</defs>
</svg>
