<svg width="32" height="32" viewBox="0 0 32 32" fill="none" xmlns="http://www.w3.org/2000/svg">
<g clip-path="url(#clip0_0_1619)">
<path d="M16 32C24.8366 32 32 24.8366 32 16C32 7.16344 24.8366 0 16 0C7.16344 0 0 7.16344 0 16C0 24.8366 7.16344 32 16 32Z" fill="#FF0000"/>
<path d="M4.406 21.711L9.743 11.994C9.964 11.588 10.331 11.478 10.703 11.698H10.742C10.8254 11.7481 10.9183 11.7804 11.0147 11.7928C11.1112 11.8052 11.2093 11.7974 11.3026 11.77C11.3959 11.7425 11.4826 11.696 11.557 11.6334C11.6314 11.5707 11.692 11.4933 11.735 11.406L15.484 5.662C15.611 5.42 15.773 5.197 15.964 5C16.132 5.206 16.257 5.443 16.331 5.698L17.951 9.711C18.318 10.633 19.201 11.295 20.123 11.295H20.416C20.889 11.313 21.337 11.51 21.669 11.847L22.845 13.097C23.194 13.467 23.515 13.86 23.805 14.276L27.597 19.724C27.739 19.94 27.874 20.161 28 20.386V20.422C27.7957 20.2632 27.6105 20.0813 27.448 19.88L22.331 14.571C22.0149 14.2522 21.7423 13.8931 21.52 13.503C21.112 12.62 20.598 12.25 19.79 12.289H18.76C18.136 12.289 17.987 12.179 17.8 11.552L16.331 6.952C16.074 6.03 16.036 6.03 15.779 6.952L14.786 10.072C14.565 10.695 14.49 11.727 14.601 11.727C14.639 11.727 14.896 11.247 15.301 10.402C15.378 10.23 15.476 10.069 15.594 9.922C15.688 10.274 15.738 10.636 15.744 11C15.636 11.254 15.513 11.5 15.374 11.737L15.338 11.847C14.896 12.656 14.896 12.694 15.374 13.467L15.815 14.202C15.983 14.428 16.119 14.676 16.221 14.938C16.0124 15.1144 15.7907 15.2749 15.558 15.418L13.276 16.89C12.8687 17.1133 12.4151 17.2389 11.951 17.257C11.14 17.221 10.441 17.627 9.815 18.471L8.932 19.724C8.614 20.116 8.256 20.474 7.864 20.792L7.055 21.454C6.63872 21.7428 6.19489 21.9896 5.73 22.191L5.289 22.301C4.969 22.417 4.634 22.491 4.295 22.52C4.144 22.52 4 22.52 4 22.484C4.115 22.216 4.25 21.958 4.406 21.711V21.711Z" fill="white"/>
</g>
<defs>
<clipPath id="clip0_0_1619">
<rect width="32" height="32" fill="white"/>
</clipPath>
</defs>
</svg>
