<svg width="32" height="32" viewBox="0 0 32 32" fill="none" xmlns="http://www.w3.org/2000/svg">
<g clip-path="url(#clip0_0_1610)">
<path d="M16 32C24.8366 32 32 24.8366 32 16C32 7.16344 24.8366 0 16 0C7.16344 0 0 7.16344 0 16C0 24.8366 7.16344 32 16 32Z" fill="#FEC807"/>
<path fill-rule="evenodd" clip-rule="evenodd" d="M24.953 17.7488H20.025L19.145 15.1088H24.945C25.1434 15.1088 25.3336 15.03 25.4739 14.8897C25.6142 14.7495 25.693 14.5592 25.693 14.3608C25.693 14.1624 25.6142 13.9722 25.4739 13.8319C25.3336 13.6916 25.1434 13.6128 24.945 13.6128H18.669L16.152 5.93983C16.1201 5.68632 15.9988 5.45251 15.81 5.28036C15.6212 5.10821 15.3772 5.00902 15.1219 5.00059C14.8665 4.99215 14.6165 5.07504 14.4167 5.23435C14.217 5.39367 14.0806 5.61898 14.032 5.86983L8.012 24.1728C7.996 24.2728 7.996 24.3728 8.012 24.4728C8.01617 24.7167 8.10828 24.9509 8.27137 25.1322C8.43446 25.3136 8.65757 25.4299 8.89963 25.4599C9.1417 25.4898 9.38643 25.4313 9.58879 25.2952C9.79116 25.159 9.93754 24.9543 10.001 24.7188L15.052 9.31883L16.495 13.6128H15.245C15.0466 13.6128 14.8564 13.6916 14.7161 13.8319C14.5758 13.9722 14.497 14.1624 14.497 14.3608C14.497 14.5592 14.5758 14.7495 14.7161 14.8897C14.8564 15.03 15.0466 15.1088 15.245 15.1088H17.005L17.885 17.7488H15.245C15.1468 17.7488 15.0495 17.7682 14.9588 17.8058C14.868 17.8434 14.7855 17.8985 14.7161 17.9679C14.6466 18.0374 14.5915 18.1198 14.5539 18.2106C14.5163 18.3013 14.497 18.3986 14.497 18.4968C14.497 18.5951 14.5163 18.6923 14.5539 18.7831C14.5915 18.8738 14.6466 18.9563 14.7161 19.0257C14.7855 19.0952 14.868 19.1503 14.9588 19.1879C15.0495 19.2255 15.1468 19.2448 15.245 19.2448H18.405L19.83 23.4688H12.271C11.9909 23.4688 11.7223 23.5801 11.5243 23.7781C11.3263 23.9762 11.215 24.2448 11.215 24.5248C11.215 24.8049 11.3263 25.0735 11.5243 25.2715C11.7223 25.4696 11.9909 25.5808 12.271 25.5808H21.212C21.766 25.5808 22.215 25.1318 22.215 24.5778C22.2155 24.4258 22.1824 24.2755 22.118 24.1378L20.508 19.2448H24.908C25.0062 19.2448 25.1035 19.2255 25.1942 19.1879C25.285 19.1503 25.3675 19.0952 25.4369 19.0257C25.5064 18.9563 25.5615 18.8738 25.5991 18.7831C25.6367 18.6923 25.656 18.5951 25.656 18.4968C25.656 18.3986 25.6367 18.3013 25.5991 18.2106C25.5615 18.1198 25.5064 18.0374 25.4369 17.9679C25.3675 17.8985 25.285 17.8434 25.1942 17.8058C25.1035 17.7682 25.0062 17.7488 24.908 17.7488H24.952H24.953Z" fill="white"/>
</g>
<defs>
<clipPath id="clip0_0_1610">
<rect width="32" height="32" fill="white"/>
</clipPath>
</defs>
</svg>
