<svg width="32" height="32" viewBox="0 0 32 32" fill="none" xmlns="http://www.w3.org/2000/svg">
<g clip-path="url(#clip0_0_1602)">
<path d="M16 32C24.8366 32 32 24.8366 32 16C32 7.16344 24.8366 0 16 0C7.16344 0 0 7.16344 0 16C0 24.8366 7.16344 32 16 32Z" fill="#DE3F6B"/>
<path d="M9.752 11H10.656C12.069 11.134 13.376 11.821 14.343 12.81C16.352 14.849 17.456 17.726 20.013 19.243C21.861 20.34 24.446 19.443 25.354 17.589C25.816 17.581 26.281 17.581 26.743 17.583C26.107 19.466 24.254 20.819 22.228 21H21.482C20.235 20.9 19.022 20.436 18.079 19.634C16.709 18.511 15.829 16.97 14.764 15.598C13.848 14.385 12.914 13.021 11.398 12.47C9.525 11.791 7.238 12.853 6.555 14.657C5.955 16.143 6.443 17.985 7.785 18.937C8.791 19.689 10.192 19.97 11.4 19.532C12.742 19.064 13.738 18 14.502 16.872C14.803 17.289 15.096 17.712 15.386 18.138C14.198 19.585 12.55 20.828 10.59 21H9.787C7.317 20.834 5.17 18.804 5 16.406V15.621C5.16 13.228 7.28 11.174 9.752 11V11ZM21.432 11H22.182C24.675 11.157 26.795 13.228 27 15.626V16.856C24.943 16.874 22.884 16.862 20.827 16.864C20.829 16.504 20.829 16.147 20.827 15.787C22.453 15.783 24.077 15.794 25.7 15.783C25.585 15.147 25.436 14.496 25.046 13.957C24.096 12.553 22.087 11.979 20.481 12.587C19.201 13.047 18.237 14.053 17.494 15.127C17.208 14.73 16.924 14.327 16.649 13.921C17.822 12.453 19.459 11.183 21.432 11Z" fill="white"/>
</g>
<defs>
<clipPath id="clip0_0_1602">
<rect width="32" height="32" fill="white"/>
</clipPath>
</defs>
</svg>
