<svg width="32" height="32" viewBox="0 0 32 32" fill="none" xmlns="http://www.w3.org/2000/svg">
<g clip-path="url(#clip0_0_1594)">
<path d="M16 32C24.8366 32 32 24.8366 32 16C32 7.16344 24.8366 0 16 0C7.16344 0 0 7.16344 0 16C0 24.8366 7.16344 32 16 32Z" fill="#134451"/>
<path d="M13.509 16.367C13.012 16.367 12.636 16.451 12.376 16.61C12.126 16.765 12 17 12 17.308C12 17.538 12.078 17.724 12.225 17.856C12.376 17.989 12.588 18.055 12.852 18.055C13.262 18.055 13.604 17.927 13.876 17.675C14.149 17.419 14.334 17.061 14.426 16.602L14.468 16.367H13.508H13.509ZM18.773 14.198C18.622 14.066 18.41 14 18.147 14C17.736 14 17.394 14.128 17.122 14.38C16.85 14.636 16.664 14.994 16.573 15.453L16.53 15.687L17.49 15.683C17.987 15.683 18.363 15.599 18.622 15.44C18.872 15.285 18.998 15.051 18.998 14.742C18.998 14.512 18.925 14.331 18.773 14.198V14.198Z" fill="white"/>
<path d="M26.9644 14.2451C26.6364 11.2811 21.4544 9.44708 15.3944 10.1501C9.33435 10.8521 4.68835 13.8251 5.01635 16.7901C5.34535 19.7541 10.5234 21.5871 16.5864 20.8851C22.6514 20.1821 27.2934 17.2091 26.9644 14.2451ZM20.6244 15.7291C20.0104 16.1671 19.1154 16.3831 17.9404 16.3881L16.7994 16.3921L16.7644 16.5551C16.754 16.5909 16.7483 16.6278 16.7474 16.6651C16.7424 16.6881 16.7424 16.7101 16.7424 16.7281C16.7424 16.9801 16.8594 17.1651 17.0884 17.2881C17.3184 17.4171 17.6584 17.4781 18.1044 17.4781C18.5274 17.4781 18.9344 17.4301 19.3184 17.3421C19.6984 17.2531 20.0664 17.1211 20.4164 16.9441L20.1264 18.4991C19.6904 18.6051 19.2714 18.6891 18.8564 18.7421C18.4569 18.7993 18.0539 18.8291 17.6504 18.8311C17.0974 18.8311 16.6394 18.7641 16.2714 18.6231C15.8914 18.4771 15.4674 18.1591 15.2564 17.7041C14.8651 18.0772 14.4116 18.3791 13.9164 18.5961C13.4571 18.7922 12.9627 18.8929 12.4634 18.8921C11.8334 18.8971 11.3354 18.7421 10.9814 18.4371C10.6224 18.1331 10.4454 17.7081 10.4414 17.1741C10.4364 16.3521 10.7434 15.7291 11.3534 15.2961C11.9664 14.8591 12.8614 14.6431 14.0374 14.6381L15.1774 14.6341L15.2124 14.4701C15.2231 14.4343 15.2291 14.3974 15.2304 14.3601C15.2344 14.3381 15.2344 14.3161 15.2344 14.2981C15.2344 14.0461 15.1174 13.8611 14.8884 13.7371C14.6594 13.6091 14.3184 13.5471 13.8724 13.5471C13.4494 13.5471 13.0424 13.5961 12.6584 13.6841C12.2784 13.7721 11.9104 13.9041 11.5604 14.0821L11.8504 12.5271C12.2864 12.4211 12.7054 12.3371 13.1204 12.2841C13.5198 12.2268 13.9228 12.1971 14.3264 12.1951C14.8804 12.1951 15.3384 12.2621 15.7064 12.4031C16.0864 12.5491 16.5094 12.8671 16.7214 13.3221C17.1126 12.9486 17.5661 12.6464 18.0614 12.4291C18.5203 12.2331 19.0143 12.1324 19.5134 12.1331C20.1444 12.1291 20.6414 12.2831 20.9954 12.5881C21.3554 12.8931 21.5314 13.3181 21.5354 13.8521C21.5404 14.6691 21.2384 15.2961 20.6244 15.7291V15.7291Z" fill="white"/>
<path d="M16.9653 21.8993C16.0883 22.0013 15.2193 22.0493 14.3763 22.0493C12.3703 22.0493 10.4953 21.7673 8.93428 21.2143C8.28881 20.9922 7.67134 20.6959 7.09428 20.3313C6.88128 21.4493 7.02428 22.4343 7.57328 23.1673C9.15028 25.2743 13.5633 24.6033 17.9293 21.7673C17.6093 21.8153 17.2893 21.8593 16.9653 21.8993ZM15.9413 10.5023C18.9013 10.1573 21.7543 10.4003 23.9713 11.1863C24.6175 11.4085 25.2356 11.7052 25.8133 12.0703C26.0243 10.9523 25.8823 9.96728 25.3333 9.23428C23.7553 7.12728 19.3433 7.79828 14.9773 10.6343C15.2973 10.5813 15.6213 10.5373 15.9413 10.5023V10.5023Z" fill="white"/>
<path d="M12.76 24.2471C12.1827 24.3854 11.5932 24.4668 11 24.4901C11.446 25.6701 12.142 26.4961 13.062 26.8051C15.284 27.5521 18.158 25.1051 20.194 21.0531C19.714 21.1861 19.217 21.3051 18.716 21.4071C16.727 22.8121 14.653 23.8061 12.76 24.2471ZM20.358 7.69414C20.9356 7.5586 21.5251 7.48022 22.118 7.46014C21.676 6.28014 20.985 5.45014 20.064 5.13714C17.847 4.38114 14.96 6.81514 12.911 10.8531C13.391 10.7211 13.888 10.6061 14.393 10.5091C16.382 9.10914 18.461 8.12714 20.358 7.69414V7.69414Z" fill="white"/>
</g>
<defs>
<clipPath id="clip0_0_1594">
<rect width="32" height="32" fill="white"/>
</clipPath>
</defs>
</svg>
