<svg width="32" height="32" viewBox="0 0 32 32" fill="none" xmlns="http://www.w3.org/2000/svg">
<g clip-path="url(#clip0_0_1582)">
<path d="M16 32C24.8366 32 32 24.8366 32 16C32 7.16344 24.8366 0 16 0C7.16344 0 0 7.16344 0 16C0 24.8366 7.16344 32 16 32Z" fill="#6916FF"/>
<path d="M17.344 6.40872C17.2884 6.36862 17.2495 6.30952 17.2345 6.24261C17.2196 6.17571 17.2297 6.10565 17.263 6.04572C17.3096 6.01587 17.3637 6 17.419 6C17.4743 6 17.5284 6.01587 17.575 6.04572C18.2797 6.33828 18.9177 6.77104 19.45 7.31772C19.753 7.59872 20.007 7.92672 20.2 8.28772C20.404 8.65572 20.571 9.04072 20.7 9.43972C20.823 9.85272 20.887 10.2817 20.888 10.7117C20.825 11.1367 20.763 13.1967 19.575 14.1667C19.4238 14.2576 19.2443 14.2894 19.0711 14.2557C18.8979 14.2221 18.7432 14.1256 18.637 13.9847C18.5521 13.8852 18.5005 13.7615 18.4894 13.6312C18.4782 13.5008 18.5082 13.3702 18.575 13.2577C19.0801 12.4758 19.3591 11.5694 19.3811 10.6388C19.4032 9.70825 19.1675 8.78969 18.7 7.98472C18.3 7.41872 17.846 6.89172 17.344 6.40872V6.40872ZM15.5 24.9907C15.625 25.1117 15.625 25.2327 15.563 25.2937C15.501 25.3547 15.375 25.4147 15.313 25.3537C14.6083 25.0612 13.9703 24.6284 13.438 24.0817C13.1359 23.8022 12.8825 23.4744 12.688 23.1117C12.4844 22.7452 12.3169 22.3597 12.188 21.9607C12.0644 21.5476 12.0011 21.1189 12 20.6877C12.063 20.2637 12.125 18.2027 13.313 17.2327C13.4641 17.1421 13.6434 17.1105 13.8164 17.1441C13.9894 17.1777 14.1438 17.2741 14.25 17.4147C14.341 17.5141 14.3915 17.644 14.3915 17.7787C14.3915 17.9135 14.341 18.0433 14.25 18.1427C13.7451 18.9245 13.4662 19.8307 13.4442 20.7611C13.4221 21.6915 13.6577 22.6099 14.125 23.4147C14.53 23.9817 14.991 24.5097 15.5 24.9907V24.9907Z" fill="white" fill-opacity="0.5"/>
<path d="M21.0859 20.0029C20.9954 18.8394 20.5353 17.7353 19.7729 16.8519C19.0011 16.0761 18.116 15.422 17.1479 14.9119C16.3035 14.4451 15.5078 13.895 14.7729 13.2699C14.1685 12.7018 13.754 11.9611 13.5859 11.1489C13.4366 10.3102 13.5433 9.44607 13.8919 8.66886C14.3096 7.80419 14.9085 7.03955 15.6479 6.42686C15.6895 6.38977 15.718 6.3403 15.7294 6.28575C15.7407 6.2312 15.7343 6.17445 15.7109 6.12386C15.6931 6.09197 15.6682 6.06453 15.6383 6.04361C15.6083 6.02268 15.574 6.00881 15.5379 6.00304C15.5018 5.99727 15.4649 5.99974 15.4299 6.01027C15.3949 6.02081 15.3628 6.03913 15.3359 6.06386C14.3399 6.49835 13.4925 7.21434 12.8979 8.12386C12.2329 9.07937 11.9214 10.2366 12.0169 11.3969C12.0668 11.9831 12.2148 12.5567 12.4549 13.0939C12.7147 13.6255 13.0516 14.1158 13.4549 14.5489C14.2496 15.3082 15.1557 15.9415 16.1419 16.4269C16.9899 16.8669 17.7869 17.3959 18.5169 18.0029C19.1591 18.5663 19.5801 19.3397 19.7049 20.1849C19.8809 21.0639 19.7709 21.9749 19.3919 22.7909C18.9665 23.65 18.3455 24.3973 17.5789 24.9729C17.5535 24.9874 17.5316 25.0072 17.5144 25.0309C17.4972 25.0545 17.4853 25.0816 17.4793 25.1102C17.4734 25.1388 17.4736 25.1684 17.4799 25.197C17.4862 25.2255 17.4985 25.2524 17.5159 25.2759C17.5509 25.3399 17.6159 25.3859 17.6889 25.3969C17.7619 25.4079 17.8379 25.3869 17.8919 25.3369C18.8211 24.8004 19.6296 24.078 20.2669 23.2149C20.8869 22.2569 21.1729 21.1309 21.0859 20.0029V20.0029Z" fill="white"/>
</g>
<defs>
<clipPath id="clip0_0_1582">
<rect width="32" height="32" fill="white"/>
</clipPath>
</defs>
</svg>
