<svg width="32" height="32" viewBox="0 0 32 32" fill="none" xmlns="http://www.w3.org/2000/svg">
<g clip-path="url(#clip0_0_1578)">
<path d="M16 32C24.8366 32 32 24.8366 32 16C32 7.16344 24.8366 0 16 0C7.16344 0 0 7.16344 0 16C0 24.8366 7.16344 32 16 32Z" fill="#F49E00"/>
<path d="M19.754 17.334C22 13.815 23.749 8 23.749 8L20.004 8.849L18.633 13.699C18.504 10.063 16.011 8.732 16.011 8.732C14.014 7.759 12.234 8.187 10.951 8.856C9.36297 9.682 8.20797 11.122 7.65497 12.78C6.86897 15.139 6.96497 17.786 7.06897 18.984C7.11097 19.546 7.23497 20.099 7.43897 20.627C8.81697 24.2 12.634 23.997 12.634 23.997C16.131 23.873 18.256 19.755 18.256 19.755L19.258 22.783C20.156 24.302 22.145 23.733 22.554 23.648C22.626 23.632 22.69 23.624 22.763 23.608L24.999 23.267V22.294C20.131 22.426 19.754 17.335 19.754 17.335V17.334ZM15.015 20.994C14.7139 21.3026 14.3342 21.5232 13.917 21.632C13.01 21.858 12.313 21.477 11.832 21.01C11.2946 20.4673 10.9266 19.7801 10.773 19.032C9.89097 14.042 11.11 11.855 11.92 10.85C12.1406 10.5683 12.425 10.343 12.7498 10.1928C13.0746 10.0426 13.4304 9.9717 13.788 9.986C16.932 10.15 17.638 16.728 17.638 16.728C16.748 19.063 15.601 20.418 15.015 20.994Z" fill="white"/>
</g>
<defs>
<clipPath id="clip0_0_1578">
<rect width="32" height="32" fill="white"/>
</clipPath>
</defs>
</svg>
