<svg width="32" height="32" viewBox="0 0 32 32" fill="none" xmlns="http://www.w3.org/2000/svg">
<g clip-path="url(#clip0_0_1572)">
<path d="M16 32C24.8366 32 32 24.8366 32 16C32 7.16344 24.8366 0 16 0C7.16344 0 0 7.16344 0 16C0 24.8366 7.16344 32 16 32Z" fill="#00BFEC"/>
<path d="M16.176 23.083C12.219 23.083 9 19.884 9 15.953C9 12.021 12.22 8.823 16.176 8.823C20.133 8.823 23.352 12.021 23.352 15.953C23.352 19.884 20.133 23.083 16.176 23.083V23.083ZM16.176 10.219C12.995 10.219 10.406 12.791 10.406 15.953C10.406 19.114 12.995 21.686 16.176 21.686C19.358 21.686 21.946 19.114 21.946 15.953C21.946 12.791 19.358 10.219 16.176 10.219V10.219ZM21.201 7.804C19.6871 6.8822 17.9484 6.39571 16.176 6.398C14.5445 6.39732 12.9394 6.80944 11.51 7.596L10.826 6.376C12.4646 5.47313 14.3051 4.99976 16.176 5C18.216 5 20.208 5.558 21.937 6.614L21.201 7.804V7.804ZM23.296 24.314L22.387 23.247C23.4529 22.3538 24.3102 21.2378 24.8984 19.9776C25.4867 18.7175 25.7917 17.3437 25.792 15.953H27.198C27.198 19.179 25.776 22.226 23.296 24.313V24.314ZM16.176 26.904C13.619 26.904 11.127 26.014 9.16 24.399L10.056 23.323C11.7827 24.7357 13.945 25.5077 16.176 25.508C17.736 25.508 19.224 25.148 20.598 24.44L21.245 25.68C19.6765 26.4848 17.9389 26.9047 16.176 26.905V26.904Z" fill="white"/>
<path opacity="0.5" d="M25.283 13.194C24.9154 11.8754 24.2688 10.6511 23.387 9.604L24.287 8.858C25.2755 10.0319 26.0002 11.4046 26.412 12.883L25.284 13.194H25.283ZM6.79301 21.745C5.62105 19.9799 4.99723 17.9077 5.00001 15.789C5.00001 12.827 6.18001 10.061 8.32301 8L9.13701 8.837C8.19626 9.7335 7.44807 10.8123 6.93812 12.0076C6.42817 13.2028 6.16716 14.4895 6.17101 15.789C6.17101 17.688 6.72501 19.526 7.77101 21.105L6.79301 21.745V21.745Z" fill="white"/>
</g>
<defs>
<clipPath id="clip0_0_1572">
<rect width="32" height="32" fill="white"/>
</clipPath>
</defs>
</svg>
