<svg width="32" height="32" viewBox="0 0 32 32" fill="none" xmlns="http://www.w3.org/2000/svg">
<g clip-path="url(#clip0_0_1568)">
<path d="M16 32C24.8366 32 32 24.8366 32 16C32 7.16344 24.8366 0 16 0C7.16344 0 0 7.16344 0 16C0 24.8366 7.16344 32 16 32Z" fill="black"/>
<path d="M10.75 22.916L13.053 18.93L15.354 14.958L17.642 10.972L18.022 10.34L18.189 10.972L18.891 13.596L18.105 14.958L15.804 18.93L13.516 22.916H16.266L18.568 18.93L19.761 16.867L20.323 18.93L21.389 22.916H23.859L22.793 18.93L21.726 14.958L21.446 13.933L23.158 10.972H20.66L20.575 10.677L19.705 7.421L19.593 7H17.193L17.137 7.084L14.891 10.972L12.589 14.958L10.302 18.93L8 22.916H10.75Z" fill="white"/>
</g>
<defs>
<clipPath id="clip0_0_1568">
<rect width="32" height="32" fill="white"/>
</clipPath>
</defs>
</svg>
