<svg width="32" height="32" viewBox="0 0 32 32" fill="none" xmlns="http://www.w3.org/2000/svg">
<g clip-path="url(#clip0_0_1564)">
<path d="M16 32C24.8366 32 32 24.8366 32 16C32 7.16344 24.8366 0 16 0C7.16344 0 0 7.16344 0 16C0 24.8366 7.16344 32 16 32Z" fill="#3C5BE0"/>
<path d="M27 15.515V15.523C26.9967 15.6028 26.9752 15.6808 26.937 15.751C26.797 16.006 23.446 22 16.001 22C8.556 22 5.203 16.006 5.064 15.751C5.02548 15.6809 5.00358 15.6029 5 15.523V15.478L5.001 15.455C5.00682 15.3891 5.02515 15.325 5.055 15.266L5.057 15.262L5.063 15.25C5.203 14.994 8.555 9 16 9C23.445 9 26.797 14.995 26.936 15.25L26.942 15.262L26.945 15.267C26.9744 15.3258 26.9924 15.3895 26.998 15.455V15.501L27 15.515ZM25.89 15.5C25.327 14.626 23.211 11.707 19.375 10.533C20.61 11.3983 21.4788 12.6923 21.812 14.163C22.075 14.223 22.264 14.459 22.269 14.733C22.274 15.007 22.094 15.249 21.832 15.319C21.57 15.389 21.297 15.269 21.167 15.029C21.1041 14.9121 21.0817 14.7777 21.1032 14.6467C21.1247 14.5158 21.189 14.3956 21.286 14.305C20.792 12.082 18.964 10.365 16.712 10.066C16.695 10.0639 16.6783 10.0603 16.662 10.055C16.2207 10.0313 15.7783 10.0313 15.337 10.055C15.3207 10.0603 15.304 10.0639 15.287 10.066C14.4094 10.1841 13.5747 10.5173 12.857 11.036C12.822 11.0608 12.7817 11.0771 12.7393 11.0834C12.6968 11.0896 12.6535 11.0858 12.6129 11.0721C12.5722 11.0585 12.5353 11.0354 12.5053 11.0048C12.4753 10.9742 12.4529 10.9369 12.44 10.896C12.4225 10.8405 12.4228 10.781 12.441 10.7258C12.4591 10.6705 12.4941 10.6223 12.541 10.588C12.5652 10.5705 12.5895 10.5531 12.614 10.536C8.784 11.713 6.672 14.626 6.11 15.5C6.667 16.367 8.75 19.24 12.52 20.435C11.2766 19.5271 10.427 18.1785 10.145 16.665C9.891 16.57 9.735 16.312 9.765 16.039C9.795 15.766 10.005 15.549 10.273 15.514C10.541 15.479 10.799 15.634 10.897 15.891C10.9443 16.0151 10.9492 16.1514 10.9108 16.2786C10.8725 16.4058 10.7931 16.5167 10.685 16.594C11.115 18.804 12.833 20.521 15.017 20.924C15.6719 20.9779 16.3301 20.9779 16.985 20.924C17.7998 20.7709 18.5682 20.4314 19.23 19.932C19.2681 19.9024 19.3134 19.8836 19.3612 19.8774C19.4091 19.8712 19.4577 19.878 19.502 19.897C19.5465 19.9167 19.585 19.9478 19.6137 19.9872C19.6424 20.0265 19.6603 20.0726 19.6656 20.121C19.6709 20.1694 19.6633 20.2184 19.6437 20.2629C19.6242 20.3075 19.5932 20.3461 19.554 20.375L19.467 20.44C23.245 19.247 25.332 16.368 25.89 15.5ZM20.82 15.517C20.82 18.214 18.658 20.409 16 20.409C13.342 20.409 11.18 18.214 11.18 15.517C11.18 12.82 13.342 10.626 16 10.626C18.658 10.626 20.82 12.819 20.82 15.517ZM20.276 15.517C20.276 13.125 18.358 11.178 16 11.178C13.642 11.178 11.723 13.124 11.723 15.518C11.723 17.912 13.642 19.856 16 19.856C18.358 19.856 20.276 17.91 20.276 15.517V15.517ZM17.576 14.174C17.576 14.698 17.317 15.186 16.886 15.474L17.316 18.101C17.3259 18.1476 17.325 18.1958 17.3136 18.2419C17.3021 18.2881 17.2802 18.3311 17.2497 18.3676C17.2192 18.4041 17.1807 18.4332 17.1373 18.4527C17.0939 18.4721 17.0466 18.4815 16.999 18.48H15.079C15.0314 18.4815 14.9841 18.4721 14.9406 18.4526C14.8972 18.4332 14.8587 18.4041 14.8281 18.3676C14.7975 18.3311 14.7755 18.2882 14.7639 18.242C14.7523 18.1958 14.7513 18.1476 14.761 18.101L15.189 15.474C14.577 15.063 14.337 14.269 14.616 13.58C14.895 12.891 15.616 12.499 16.336 12.643C17.057 12.788 17.576 13.429 17.576 14.174V14.174ZM21.923 16.217C21.7834 17.4697 21.2554 18.6474 20.413 19.585C20.3813 19.6214 20.3403 19.6485 20.2945 19.6637C20.2487 19.6789 20.1997 19.6815 20.1525 19.6713C20.1053 19.6611 20.0617 19.6384 20.0263 19.6057C19.9909 19.5729 19.9649 19.5312 19.951 19.485C19.9364 19.4384 19.9343 19.3887 19.9448 19.341C19.9553 19.2933 19.9781 19.2492 20.011 19.213C20.7763 18.3611 21.256 17.2911 21.383 16.153C21.3911 16.0811 21.4272 16.0153 21.4836 15.9699C21.54 15.9246 21.612 15.9034 21.684 15.911C21.834 15.929 21.94 16.066 21.923 16.217V16.217ZM12.053 11.349C12.1055 11.3997 12.136 11.469 12.1379 11.542C12.1398 11.6149 12.1129 11.6857 12.063 11.739C11.2959 12.5601 10.7992 13.5967 10.64 14.709C10.6294 14.7807 10.5908 14.8452 10.5327 14.8885C10.4746 14.9318 10.4017 14.9503 10.33 14.94C10.2583 14.9284 10.1941 14.8891 10.1513 14.8305C10.1084 14.7719 10.0903 14.6988 10.101 14.627C10.2767 13.4033 10.8236 12.263 11.668 11.36C11.6925 11.3338 11.7219 11.3127 11.7546 11.298C11.7873 11.2833 11.8226 11.2752 11.8584 11.2743C11.8942 11.2734 11.9299 11.2796 11.9633 11.2926C11.9967 11.3056 12.0272 11.3251 12.053 11.35V11.349Z" fill="white"/>
</g>
<defs>
<clipPath id="clip0_0_1564">
<rect width="32" height="32" fill="white"/>
</clipPath>
</defs>
</svg>
