<svg width="32" height="32" viewBox="0 0 32 32" fill="none" xmlns="http://www.w3.org/2000/svg">
<g clip-path="url(#clip0_0_1560)">
<path d="M16 32C24.8366 32 32 24.8366 32 16C32 7.16344 24.8366 0 16 0C7.16344 0 0 7.16344 0 16C0 24.8366 7.16344 32 16 32Z" fill="#2DAEE4"/>
<path fill-rule="evenodd" clip-rule="evenodd" d="M7.80343 11.4573H7.91343C8.87643 11.4393 9.71343 11.0753 10.4234 10.3663C11.1134 9.62031 11.4594 8.76531 11.4594 7.80131C11.4594 7.31031 11.6364 6.88731 11.9914 6.53231C12.1597 6.35983 12.3615 6.22364 12.5843 6.13214C12.8072 6.04064 13.0465 5.99578 13.2874 6.00031C13.7774 6.00031 14.2014 6.17731 14.5554 6.53231C14.9104 6.88731 15.0874 7.31031 15.0874 7.80131C15.0874 8.29131 14.9194 8.71531 14.5834 9.07031C14.429 9.24022 14.2419 9.37729 14.0333 9.47333C13.8247 9.56937 13.5989 9.62242 13.3694 9.62931C12.3324 9.59231 11.4414 9.94731 10.6954 10.6933C9.94943 11.4393 9.59543 12.3123 9.63143 13.3133C9.66743 14.3493 10.0414 15.2133 10.7504 15.9043C11.5324 16.5953 12.4054 16.9323 13.3694 16.9143C13.599 16.9213 13.8248 16.9745 14.0334 17.0708C14.242 17.167 14.4291 17.3042 14.5834 17.4743C14.9194 17.8283 15.0874 18.2423 15.0874 18.7143C15.0874 19.2243 14.9104 19.6563 14.5554 20.0113C14.3916 20.1819 14.1946 20.317 13.9765 20.4085C13.7584 20.5 13.5239 20.5459 13.2874 20.5433C12.7774 20.5433 12.3464 20.3653 11.9914 20.0113C11.8189 19.8431 11.6827 19.6413 11.5913 19.4184C11.4998 19.1955 11.4549 18.9562 11.4594 18.7153C11.4671 18.2483 11.3791 17.7847 11.2007 17.353C11.0224 16.9213 10.7575 16.5307 10.4224 16.2053C10.0988 15.862 9.71036 15.5863 9.27953 15.3941C8.84871 15.2018 8.38405 15.0969 7.91243 15.0853C7.56743 15.1043 7.27243 15.0493 7.02643 14.9223C6.78476 14.7984 6.57836 14.6154 6.42643 14.3903C6.26974 14.1587 6.15844 13.8994 6.09843 13.6263C6.03553 13.3536 6.02198 13.0718 6.05843 12.7943C6.29443 11.9033 6.87643 11.4573 7.80343 11.4573V11.4573ZM7.82843 16.9143C8.30143 16.9143 8.71543 17.0873 9.06943 17.4333C9.42443 17.7783 9.61043 18.1883 9.62943 18.6613C9.61043 19.6613 9.95643 20.5343 10.6654 21.2803C11.3754 22.0073 12.2294 22.3713 13.2304 22.3713H13.3124C14.2944 22.3713 15.1394 22.0073 15.8494 21.2803C16.5764 20.5523 16.9314 19.6803 16.9134 18.6603C16.9121 18.1831 16.8119 17.7114 16.6193 17.2747C16.4268 16.8381 16.1459 16.4461 15.7944 16.1233C15.0764 15.4403 14.2414 15.0943 13.2874 15.0863H13.1754C12.9459 15.0794 12.7201 15.0264 12.5115 14.9303C12.303 14.8343 12.1159 14.6972 11.9614 14.5273C11.7978 14.3595 11.669 14.1609 11.5824 13.9432C11.4957 13.7254 11.4529 13.4927 11.4564 13.2583C11.4564 12.7683 11.6344 12.3443 11.9884 11.9893C12.2894 11.6893 12.6464 11.5153 13.0584 11.4693L13.1784 11.4573L13.2244 11.4583C13.2721 11.4571 13.3198 11.4574 13.3674 11.4593C14.3074 11.4473 15.1254 11.0923 15.8244 10.3933C16.5704 9.64731 16.9344 8.76531 16.9154 7.74631C16.9154 7.34631 17.0524 6.98231 17.3254 6.65531L17.3524 6.62831L17.3794 6.60031C17.3794 6.58231 17.3894 6.57331 17.4064 6.57331L17.4344 6.54631V6.51931H17.4614V6.49031C17.4794 6.49031 17.4884 6.48131 17.4884 6.46331L17.5154 6.43631H17.5704C17.5704 6.41731 17.5804 6.40831 17.5974 6.40831L17.6254 6.38131V6.35431H17.6794C17.6794 6.33531 17.6894 6.32631 17.7064 6.32631L17.7344 6.29931L17.7614 6.27231H17.7884C17.7884 6.25431 17.7984 6.24531 17.8164 6.24531C17.8344 6.24531 17.8434 6.23531 17.8434 6.21731H17.8704L17.8974 6.19031H17.9524V6.16331H17.9794L18.0074 6.13531H18.0614V6.11031H18.1164L18.1434 6.08331H18.1984L18.2254 6.05631H18.3074L18.3344 6.02831H18.4164C18.4344 6.02831 18.4434 6.01931 18.4434 6.00131H19.0164L19.0304 6.01531C19.0394 6.02431 19.0524 6.02831 19.0704 6.02831H19.1254L19.1394 6.04231C19.1484 6.05131 19.1614 6.05631 19.1794 6.05631H19.2344L19.2614 6.08331H19.3164L19.3434 6.11031H19.3984C19.4164 6.12831 19.4344 6.13731 19.4524 6.13731L19.4804 6.16531H19.5344V6.19231H19.5624L19.5894 6.21931L19.6024 6.23331C19.6124 6.24331 19.6254 6.24731 19.6434 6.24731L19.6714 6.27431H19.6984C19.6984 6.29231 19.7164 6.30131 19.7524 6.30131L19.7804 6.32831V6.35631H19.8074C19.8074 6.37431 19.8254 6.38331 19.8624 6.38331C19.8624 6.40131 19.8714 6.41031 19.8894 6.41031V6.43831H19.9164L19.9444 6.46531C19.9624 6.48331 19.9804 6.49231 19.9984 6.49231L20.0254 6.52031C20.0254 6.53831 20.0354 6.54731 20.0534 6.54731V6.57431H20.0804C20.0804 6.59231 20.0854 6.60631 20.0944 6.61431L20.1074 6.62931C20.1074 6.64731 20.1174 6.65631 20.1354 6.65631L20.1624 6.68331C20.1624 6.70131 20.1664 6.71531 20.1754 6.72431L20.1894 6.73831L20.2164 6.76531L20.2444 6.79231V6.84731L20.2714 6.87431V6.90031H20.2984C20.2984 6.91931 20.3034 6.93231 20.3124 6.94131L20.3254 6.95531C20.3254 6.97331 20.3354 6.98231 20.3534 6.98231V7.01031C20.3534 7.02831 20.3574 7.04131 20.3664 7.05031L20.3804 7.06431L20.4074 7.09131C20.4074 7.12831 20.4174 7.14631 20.4354 7.14631V7.17331C20.4354 7.19231 20.4394 7.20531 20.4484 7.21431L20.4624 7.22831V7.28231L20.4894 7.31031V7.39231C20.5074 7.41031 20.5164 7.42831 20.5164 7.44631V7.52831C20.5354 7.54631 20.5444 7.56431 20.5444 7.58331V7.80031C20.5444 8.76431 20.8894 9.61931 21.5804 10.3653C22.2904 11.0743 23.1364 11.4383 24.1184 11.4563C24.6084 11.4383 25.0454 11.6063 25.4284 11.9613C25.8094 12.3153 26.0004 12.7473 26.0004 13.2573C26.0004 13.7663 25.8234 14.1973 25.4684 14.5533C25.3045 14.724 25.1073 14.8592 24.889 14.9507C24.6708 15.0422 24.4361 15.088 24.1994 15.0853C23.9652 15.0887 23.7327 15.0458 23.5151 14.9592C23.2975 14.8725 23.0992 14.7438 22.9314 14.5803C22.7593 14.4216 22.621 14.2299 22.5247 14.0164C22.4285 13.803 22.3764 13.5724 22.3714 13.3383C22.3904 12.3383 22.0264 11.4563 21.2814 10.6923C20.5534 9.96431 19.6714 9.61031 18.6344 9.62831C18.1629 9.63976 17.6983 9.74455 17.2674 9.93662C16.8366 10.1287 16.4481 10.4042 16.1244 10.7473C15.7893 11.0727 15.5244 11.4632 15.346 11.8949C15.1677 12.3266 15.0797 12.7903 15.0874 13.2573L15.0864 13.3413C15.1064 14.2713 15.4514 15.0983 16.1224 15.8213C16.8314 16.5313 17.6774 16.8953 18.6594 16.9133C19.3134 16.8773 19.8144 17.1133 20.1594 17.6233C20.5054 18.1133 20.6144 18.6333 20.4874 19.1783C20.2324 20.0883 19.6504 20.5423 18.7414 20.5423H18.6594C17.6404 20.5783 16.7944 20.9523 16.1224 21.6613C15.4304 22.3523 15.0854 23.1983 15.0854 24.1983C15.0854 24.6893 14.9084 25.1123 14.5534 25.4673C14.3895 25.638 14.1923 25.7732 13.974 25.8647C13.7558 25.9562 13.5211 26.002 13.2844 25.9993H13.2304C12.7394 25.9993 12.3204 25.8223 11.9754 25.4673C11.8082 25.3014 11.676 25.1036 11.5869 24.8856C11.4977 24.6676 11.4533 24.4338 11.4564 24.1983C11.4564 23.1983 11.1114 22.3523 10.4204 21.6613C10.0967 21.3182 9.70823 21.0427 9.27741 20.8506C8.84659 20.6585 8.38198 20.5538 7.91043 20.5423C7.66271 20.5561 7.41482 20.5184 7.18245 20.4314C6.95007 20.3445 6.73826 20.2103 6.56043 20.0373C6.37889 19.8689 6.23511 19.6639 6.13858 19.4359C6.04206 19.2078 5.99497 18.9619 6.00043 18.7143C6.00043 18.2233 6.17743 17.8003 6.53243 17.4453C6.70066 17.2728 6.90245 17.1366 7.12535 17.0451C7.34824 16.9536 7.58752 16.9088 7.82843 16.9133V16.9143Z" fill="white"/>
</g>
<defs>
<clipPath id="clip0_0_1560">
<rect width="32" height="32" fill="white"/>
</clipPath>
</defs>
</svg>
