<svg width="32" height="32" viewBox="0 0 32 32" fill="none" xmlns="http://www.w3.org/2000/svg">
<g clip-path="url(#clip0_0_1556)">
<path d="M16 32C24.8366 32 32 24.8366 32 16C32 7.16344 24.8366 0 16 0C7.16344 0 0 7.16344 0 16C0 24.8366 7.16344 32 16 32Z" fill="black"/>
<path d="M7.01104 23C6.99702 22.7639 6.99635 22.5272 7.00904 22.291C7.08904 22.267 7.17104 22.251 7.25504 22.241C7.49704 22.2 7.73604 22.144 7.97204 22.074C8.03604 22.054 8.10004 22.032 8.16204 22.008C8.47204 21.889 8.74604 21.693 8.95404 21.439C9.09804 21.262 9.22404 21.071 9.33204 20.869C9.48404 20.593 9.61904 20.308 9.73804 20.016C9.97904 19.428 10.219 18.838 10.458 18.247L12.917 12.154C13.694 10.223 14.457 8.287 15.204 6.345C15.219 6.305 15.236 6.267 15.253 6.227C15.529 6.151 15.801 6.073 16.083 6C16.099 6.04 16.115 6.074 16.128 6.11L17.078 8.711C18.1539 11.6679 19.2449 14.6193 20.351 17.565C20.655 18.37 20.961 19.175 21.27 19.977C21.392 20.305 21.535 20.625 21.699 20.935C21.7712 21.0675 21.8492 21.1966 21.933 21.322C22.19 21.714 22.589 21.997 23.05 22.113C23.298 22.178 23.55 22.227 23.804 22.26L23.985 22.286C24.011 22.365 23.995 22.441 23.997 22.516C24 22.592 23.997 22.676 23.997 22.757C24 22.835 23.998 22.912 23.993 22.99C23.967 22.994 23.947 22.998 23.927 23H17.564C17.5574 22.9864 17.5526 22.9719 17.55 22.957V22.318C17.5517 22.3084 17.5544 22.299 17.558 22.29C17.6108 22.2754 17.6646 22.2654 17.719 22.26C17.981 22.227 18.239 22.177 18.495 22.112C18.597 22.084 18.698 22.048 18.798 22.012C18.848 21.992 18.896 21.969 18.942 21.942C19.193 21.804 19.294 21.588 19.272 21.312C19.2609 21.1869 19.2385 21.0631 19.205 20.942C19.155 20.752 19.085 20.569 19.019 20.385C17.7011 16.7835 16.3974 13.1768 15.108 9.565C15.094 9.525 15.09 9.482 15.049 9.447C15.036 9.455 15.019 9.461 15.009 9.472C14.9986 9.49023 14.9905 9.50972 14.985 9.53C14.355 11.306 13.684 13.068 13.015 14.83C12.522 16.136 12.028 17.44 11.568 18.757C11.3844 19.2852 11.2061 19.8152 11.033 20.347C10.9653 20.55 10.9151 20.7584 10.883 20.97C10.8586 21.111 10.8545 21.2548 10.871 21.397C10.8819 21.4897 10.9121 21.579 10.9596 21.6593C11.0072 21.7395 11.071 21.8089 11.147 21.863C11.249 21.934 11.361 21.991 11.479 22.03C11.667 22.095 11.861 22.144 12.058 22.176C12.275 22.215 12.494 22.245 12.712 22.279L12.759 22.287C12.7643 22.3025 12.7676 22.3187 12.769 22.335V22.953C12.7675 22.9652 12.7649 22.9773 12.761 22.989C12.7416 22.9934 12.7219 22.9967 12.702 22.999H7.01104V23V23Z" fill="white"/>
</g>
<defs>
<clipPath id="clip0_0_1556">
<rect width="32" height="32" fill="white"/>
</clipPath>
</defs>
</svg>
