<svg width="32" height="32" viewBox="0 0 32 32" fill="none" xmlns="http://www.w3.org/2000/svg">
<g clip-path="url(#clip0_0_1552)">
<path d="M16 32C24.8366 32 32 24.8366 32 16C32 7.16344 24.8366 0 16 0C7.16344 0 0 7.16344 0 16C0 24.8366 7.16344 32 16 32Z" fill="#2CD3E1"/>
<path d="M7.965 17.598C7.9585 17.4925 7.95516 17.3867 7.955 17.281C7.955 13.764 10.697 10.905 14.127 10.783C14.209 10.783 14.297 10.783 14.379 10.79L13.561 9.977C13.561 9.977 16.854 9.427 21.082 11.969C21.082 11.969 21.144 12.098 21.082 12.477C21.082 12.477 23.074 13.331 23.244 14.991C23.414 16.651 22.358 17.6 21.505 17.735C21.505 17.735 21.948 17.051 21.267 16.685C21.1185 16.6047 20.9506 16.5673 20.782 16.577C19.48 16.577 19.33 18.054 19.33 18.054C19.316 18.128 19.316 18.203 19.316 18.277C19.316 18.277 19.126 20.156 22.238 20.377C22.9492 19.4597 23.5723 18.4773 24.099 17.443C24.9304 15.8123 25.5529 14.0834 25.952 12.297C24.139 10.811 22.001 9.537 19.702 8.47C18.84 8.07 18.005 7.723 17.214 7.425C16.8108 7.27208 16.404 7.12871 15.994 6.995C15.672 7.099 15.264 7.241 14.774 7.425C13.984 7.722 13.148 8.07 12.287 8.47C9.99 9.536 7.851 10.81 6.038 12.298C6.136 12.77 6.285 13.359 6.499 14.043C6.88064 15.2694 7.37127 16.4591 7.965 17.598V17.598ZM27 11.902L26.95 12.182C26.924 12.399 26.747 13.177 26.529 13.922C26.1308 15.2849 25.6055 16.6074 24.96 17.872C24.054 19.638 22.954 21.178 21.692 22.446C20.135 24.007 18.333 25.16 16.325 25.878L16.213 25.918L16 26L15.789 25.926L15.671 25.885C13.6472 25.1583 11.8131 23.9849 10.305 22.452C9.037 21.172 7.938 19.635 7.037 17.878C6.19715 16.2272 5.56244 14.4799 5.147 12.675C5.097 12.451 5.042 12.171 5.052 12.211L5 11.923L5.12 11.823L5.208 11.748C7.052 10.196 9.233 8.865 11.588 7.746C12.9135 7.10963 14.2786 6.55948 15.675 6.099L15.993 6L16.21 6.065L16.318 6.1C17.398 6.447 18.833 7 20.402 7.746C22.754 8.863 24.932 10.192 26.774 11.741L27 11.901V11.902ZM19.398 12.626C19.453 12.599 19.63 12.511 19.835 12.301C20.244 12.355 20.646 12.484 20.646 12.484C19.903 12.037 18.886 11.772 17.761 11.779C17.761 11.779 18.191 12.389 19.384 12.639L19.398 12.626V12.626Z" fill="white"/>
</g>
<defs>
<clipPath id="clip0_0_1552">
<rect width="32" height="32" fill="white"/>
</clipPath>
</defs>
</svg>
