<svg width="32" height="32" viewBox="0 0 32 32" fill="none" xmlns="http://www.w3.org/2000/svg">
<g clip-path="url(#clip0_0_1548)">
<path d="M16 32C24.8366 32 32 24.8366 32 16C32 7.16344 24.8366 0 16 0C7.16344 0 0 7.16344 0 16C0 24.8366 7.16344 32 16 32Z" fill="#1F4C9F"/>
<path fill-rule="evenodd" clip-rule="evenodd" d="M6 18.75L16 6L26 18.75V23L16 10.25L6 23V18.75ZM16.5 20C15.837 20 15.2011 19.7366 14.7322 19.2678C14.2634 18.7989 14 18.163 14 17.5C14 16.837 14.2634 16.2011 14.7322 15.7322C15.2011 15.2634 15.837 15 16.5 15C17.163 15 17.7989 15.2634 18.2678 15.7322C18.7366 16.2011 19 16.837 19 17.5C19 18.163 18.7366 18.7989 18.2678 19.2678C17.7989 19.7366 17.163 20 16.5 20V20Z" fill="white"/>
</g>
<defs>
<clipPath id="clip0_0_1548">
<rect width="32" height="32" fill="white"/>
</clipPath>
</defs>
</svg>
