<svg width="32" height="32" viewBox="0 0 32 32" fill="none" xmlns="http://www.w3.org/2000/svg">
<g clip-path="url(#clip0_0_1544)">
<path d="M16 32C24.8366 32 32 24.8366 32 16C32 7.16344 24.8366 0 16 0C7.16344 0 0 7.16344 0 16C0 24.8366 7.16344 32 16 32Z" fill="#FD875E"/>
<path d="M13.66 16.887L16.046 9.77496L18.476 16.887H13.66ZM23.772 21.384L21.799 16.075H22.977C23.2001 16.0752 23.4144 15.9877 23.5734 15.8313C23.7325 15.6748 23.8236 15.462 23.827 15.239C23.827 15.029 23.741 14.826 23.59 14.678C23.439 14.53 23.232 14.445 23.017 14.445H21.177L20.882 13.619H22.977C23.1953 13.6209 23.4058 13.5378 23.5637 13.3871C23.7217 13.2364 23.8147 13.0301 23.823 12.812C23.824 12.59 23.735 12.378 23.575 12.222C23.415 12.066 23.199 11.978 22.973 11.979H20.253L18.78 8.01096C18.5583 7.44166 18.1944 6.93867 17.723 6.54996C17.2529 6.17272 16.6623 5.97809 16.06 6.00196C15.4559 5.98245 14.8642 6.17648 14.389 6.54996C13.9178 6.93903 13.553 7.4414 13.329 8.00996L11.786 12.014H9.082C8.8682 12.0121 8.66233 12.0948 8.50928 12.2441C8.35623 12.3934 8.26842 12.5972 8.265 12.811C8.265 13.269 8.644 13.64 9.112 13.64H11.165L10.849 14.444H9.009C8.90276 14.4428 8.79732 14.4625 8.69872 14.5021C8.60011 14.5416 8.51026 14.6002 8.4343 14.6745C8.35834 14.7488 8.29776 14.8373 8.25601 14.935C8.21427 15.0328 8.19218 15.1377 8.191 15.244C8.191 15.698 8.565 16.065 9.027 16.067H10.208L8.202 21.383C8.079 21.683 8.011 22.001 8 22.324C8.02 22.777 8.222 23.204 8.56 23.514C8.93413 23.8307 9.40981 24.0022 9.9 23.997C10.3095 24.0217 10.7152 23.9058 11.0498 23.6684C11.3844 23.4311 11.6279 23.0866 11.74 22.692L12.516 20.423H19.66L20.437 22.746C20.5631 23.1272 20.8121 23.4559 21.1452 23.6803C21.4782 23.9047 21.8763 24.0122 22.277 23.986C22.587 23.993 22.892 23.916 23.161 23.766C23.394 23.596 23.601 23.396 23.775 23.168C23.9268 22.9129 24.0047 22.6207 24 22.324C23.9513 22.0089 23.875 21.6987 23.772 21.397V21.384Z" fill="#FEFEFE"/>
</g>
<defs>
<clipPath id="clip0_0_1544">
<rect width="32" height="32" fill="white"/>
</clipPath>
</defs>
</svg>
