<svg width="32" height="32" viewBox="0 0 32 32" fill="none" xmlns="http://www.w3.org/2000/svg">
<g clip-path="url(#clip0_0_1534)">
<path d="M16 32C24.8366 32 32 24.8366 32 16C32 7.16344 24.8366 0 16 0C7.16344 0 0 7.16344 0 16C0 24.8366 7.16344 32 16 32Z" fill="#A71435"/>
<path d="M10.6468 5.243C13.1184 4.01714 15.9383 3.68532 18.6269 4.304C21.3156 4.92267 23.7069 6.45363 25.3941 8.63647C27.0813 10.8193 27.9603 13.5192 27.8815 16.277C27.8026 19.0348 26.7709 21.6801 24.9618 23.763C24.3668 22.467 23.9108 21.108 23.4008 19.77L20.3208 11.7C20.0238 10.882 19.5248 10.096 18.7498 9.671C17.6646 9.14784 16.4484 8.95918 15.2558 9.129C14.2998 9.236 13.3018 9.565 12.6538 10.319C12.0378 11.03 11.7618 11.944 11.4118 12.804L9.19179 18.432C8.44879 20.216 7.82179 22.064 7.01479 23.837C5.85237 22.5815 4.99816 21.0727 4.51979 19.43C3.69314 16.7199 3.85657 13.8043 4.9809 11.2036C6.10522 8.60286 8.11725 6.48639 10.6578 5.232L10.6468 5.242V5.243Z" fill="white"/>
<path d="M15.044 13.664C15.256 13.027 16.106 12.814 16.658 13.176C16.955 13.399 17.062 13.781 17.2 14.121C18.58 17.731 19.94 21.363 21.31 24.985C21.49 25.505 21.755 26.004 21.862 26.545C21.7751 26.6376 21.6746 26.7165 21.564 26.779C20.0657 27.5806 18.4139 28.0539 16.7185 28.1675C15.023 28.2812 13.3228 28.0325 11.731 27.438C11.136 27.193 10.521 26.981 10 26.609C10.053 26.121 10.297 25.685 10.478 25.239C12.007 21.385 13.504 17.519 15.044 13.664V13.664Z" fill="white"/>
</g>
<defs>
<clipPath id="clip0_0_1534">
<rect width="32" height="32" fill="white"/>
</clipPath>
</defs>
</svg>
