<svg width="32" height="32" viewBox="0 0 32 32" fill="none" xmlns="http://www.w3.org/2000/svg">
<g clip-path="url(#clip0_0_1526)">
<path d="M16 32C24.8366 32 32 24.8366 32 16C32 7.16344 24.8366 0 16 0C7.16344 0 0 7.16344 0 16C0 24.8366 7.16344 32 16 32Z" fill="#0092B5"/>
<path d="M11.7596 13.602L16.0416 6.064C16.0496 6.05 16.0656 6.041 16.1216 6.064L20.1956 13.465C20.0814 13.5582 19.9898 13.6761 19.9276 13.8099C19.8655 13.9436 19.8345 14.0896 19.8369 14.2371C19.8393 14.3845 19.8751 14.5295 19.9415 14.6611C20.008 14.7927 20.1034 14.9075 20.2206 14.997L16.4576 21.785C16.3236 21.7206 16.177 21.6867 16.0283 21.6857C15.8796 21.6846 15.7325 21.7165 15.5976 21.779L11.7246 14.88C11.8841 14.7072 11.9754 14.4824 11.9816 14.2474C11.9879 14.0124 11.9086 13.783 11.7586 13.602H11.7596ZM11.3496 15.136L15.2376 22.061C15.1537 22.166 15.0924 22.2872 15.0576 22.417C11.9186 21.665 9.96863 21.2 9.20563 21.021C8.88294 20.5672 8.60053 20.086 8.36163 19.583L10.8536 15.197C11.0214 15.2183 11.1918 15.1976 11.3496 15.137V15.136ZM10.8106 13.253L7.72363 7.753C9.82763 6.636 12.4386 6.05 15.5586 6L11.3966 13.326C11.213 13.2437 11.0089 13.2183 10.8106 13.253V13.253ZM10.3906 13.429C10.2623 13.5216 10.1584 13.6439 10.0879 13.7855C10.0173 13.9271 9.9822 14.0838 9.98554 14.2419C9.98889 14.4001 10.0306 14.5551 10.1071 14.6936C10.1836 14.8321 10.2925 14.9499 10.4246 15.037L8.13463 19.067C7.75415 18.1247 7.52792 17.1273 7.46463 16.113L7.00163 8.731C6.99301 8.58884 7.01867 8.4467 7.07644 8.31653C7.13422 8.18636 7.22242 8.07197 7.33363 7.983L10.3906 13.429ZM16.9906 22.427C16.9572 22.2979 16.8976 22.1771 16.8156 22.072L20.6336 15.185C20.7984 15.2181 20.9688 15.2098 21.1296 15.161L23.6036 19.655C23.3936 20.087 23.1516 20.503 22.8796 20.9L16.9906 22.427ZM16.2496 23.627C16.4308 23.586 16.5968 23.495 16.7289 23.3644C16.8609 23.2338 16.9537 23.0687 16.9966 22.888L22.4526 21.473C21.7931 22.2929 21.004 22.9995 20.1166 23.565L16.4936 25.879C16.4181 25.9274 16.3359 25.9645 16.2496 25.989V23.627ZM15.7956 23.627V26C15.6927 25.9767 15.5946 25.9358 15.5056 25.879L11.8826 23.565C11.0355 23.0251 10.2777 22.3564 9.63663 21.583C10.6266 21.818 12.4296 22.248 15.0456 22.874C15.1256 23.247 15.4196 23.542 15.7956 23.628V23.627ZM21.1656 13.293C20.9841 13.2303 20.7885 13.2206 20.6016 13.265L16.6046 6.003C19.6366 6.07 22.1846 6.649 24.2456 7.738L21.1656 13.293ZM21.5486 13.534L24.6386 7.962C24.7579 8.05004 24.8534 8.1665 24.9162 8.3008C24.9791 8.4351 25.0074 8.58298 24.9986 8.731L24.5356 16.114C24.4704 17.154 24.2339 18.1761 23.8356 19.139L21.5216 14.936C21.6176 14.847 21.6946 14.7395 21.7481 14.6201C21.8016 14.5006 21.8305 14.3716 21.833 14.2407C21.8355 14.1099 21.8116 13.9798 21.7628 13.8584C21.7139 13.737 21.6411 13.6267 21.5486 13.534V13.534ZM15.9996 10.734C15.8581 10.7363 15.7228 10.793 15.622 10.8925C15.5213 10.992 15.4627 11.1265 15.4586 11.268V13.222L12.5726 15L12.8816 15.667L15.4586 14.823V16.777L14.7366 17.31V17.843L15.9996 17.487L17.2626 17.842V17.309L16.5406 16.776V14.822L19.0736 15.712L19.4266 15L16.5406 13.222V11.268C16.5363 11.1268 16.4778 10.9927 16.3773 10.8935C16.2767 10.7942 16.1419 10.7375 16.0006 10.735L15.9996 10.734Z" fill="white"/>
</g>
<defs>
<clipPath id="clip0_0_1526">
<rect width="32" height="32" fill="white"/>
</clipPath>
</defs>
</svg>
