<svg width="32" height="32" viewBox="0 0 32 32" fill="none" xmlns="http://www.w3.org/2000/svg">
<g clip-path="url(#clip0_0_1520)">
<path d="M16 32C24.8366 32 32 24.8366 32 16C32 7.16344 24.8366 0 16 0C7.16344 0 0 7.16344 0 16C0 24.8366 7.16344 32 16 32Z" fill="#436697"/>
<path d="M19.039 20.689C18.9902 20.6867 18.9431 20.6708 18.903 20.643C18.8666 20.6202 18.8358 20.5894 18.813 20.553H18.804L16.586 24.448C18.84 23.953 21.086 23.448 23.339 22.952C23.2875 22.8883 23.2394 22.8218 23.195 22.753C23.132 22.663 23.078 22.555 23.015 22.438C22.9574 22.3315 22.9034 22.2231 22.853 22.113V22.104C22.853 22.095 22.843 22.086 22.843 22.086C22.7359 21.8582 22.6368 21.6268 22.546 21.392C22.519 21.329 22.501 21.275 22.474 21.221C22.3367 20.8814 22.2074 20.5386 22.086 20.193C21.707 20.265 21.392 20.328 21.176 20.373C21.166 20.373 21.157 20.373 21.148 20.382C20.815 20.454 20.499 20.517 20.193 20.572C20.021 20.607 19.859 20.625 19.706 20.652C19.67 20.662 19.625 20.662 19.571 20.671C19.571 20.671 19.462 20.689 19.318 20.698C19.2246 20.7051 19.1307 20.7017 19.038 20.688L19.039 20.689ZM21.112 17.244C21.064 17.0718 21.0249 16.8972 20.995 16.721L19.3 19.697L19.31 19.687C19.381 19.661 19.462 19.634 19.562 19.607C19.796 19.534 20.084 19.462 20.436 19.372C20.788 19.282 21.203 19.182 21.689 19.057C21.59 18.759 21.482 18.453 21.383 18.137C21.2815 17.8429 21.1914 17.545 21.113 17.244H21.112ZM23.727 11.97H23.691L21.501 15.82C21.509 15.82 21.527 15.829 21.554 15.829C21.564 15.829 21.564 15.829 21.572 15.838C21.582 15.838 21.582 15.838 21.59 15.847C21.6 15.847 21.6 15.856 21.608 15.856C21.618 15.856 21.618 15.856 21.626 15.865C21.6526 15.8792 21.6769 15.8974 21.698 15.919C21.734 15.955 21.762 15.991 21.771 16C21.78 16.01 21.78 16.018 21.789 16.027C21.809 16.0558 21.827 16.0858 21.843 16.117C21.888 16.198 21.915 16.243 21.915 16.243C22.023 16.451 22.131 16.694 22.239 16.983C22.348 17.271 22.465 17.578 22.573 17.903C22.6 17.975 22.618 18.038 22.645 18.11C22.708 18.3 22.789 18.534 22.88 18.804C23.258 18.732 23.619 18.66 23.97 18.597C24.322 18.534 24.638 18.489 24.926 18.462C25.215 18.434 25.458 18.416 25.666 18.425C25.783 18.425 25.873 18.435 25.954 18.453C25.972 18.453 25.999 18.462 26.017 18.462C25.846 17.984 25.666 17.452 25.458 16.884L23.728 11.97H23.727ZM25.792 19.264C25.5428 19.3555 25.2899 19.4366 25.034 19.507C24.98 19.525 24.926 19.534 24.881 19.553C24.836 19.562 24.791 19.58 24.746 19.589C24.6207 19.6234 24.4943 19.6534 24.367 19.679C24.2955 19.6991 24.2235 19.7171 24.151 19.733H24.141C23.925 19.787 23.637 19.85 23.303 19.923C23.375 20.175 23.466 20.454 23.573 20.77C23.673 21.085 23.773 21.392 23.853 21.68C23.88 21.77 23.898 21.852 23.925 21.942C23.971 22.077 24.007 22.212 24.034 22.375C24.043 22.402 24.043 22.429 24.052 22.455C24.088 22.6 24.097 22.708 24.088 22.789C24.088 22.789 24.466 22.717 24.656 22.672C25.4039 21.7085 25.9859 20.627 26.378 19.472C26.324 19.309 26.27 19.156 26.216 18.993C26.134 19.102 25.999 19.183 25.792 19.264V19.264ZM13.935 5.289H13.971C14.007 5.289 14.053 5.307 14.107 5.343C14.134 5.361 14.17 5.379 14.197 5.406C14.2352 5.4333 14.2713 5.46338 14.305 5.496C14.467 5.64 14.648 5.812 14.855 6.019C15.053 6.217 15.261 6.434 15.477 6.669C15.684 6.893 15.874 7.101 16.045 7.272C16.126 7.191 16.207 7.101 16.289 7.002C16.388 6.893 16.487 6.785 16.586 6.668C16.686 6.56 16.784 6.443 16.893 6.343C16.992 6.235 17.091 6.136 17.19 6.037L17.334 5.893C17.389 5.839 17.443 5.793 17.488 5.748C17.578 5.668 17.659 5.595 17.74 5.532C17.912 5.388 18.038 5.325 18.137 5.325C18.173 5.325 18.209 5.334 18.245 5.343L18.146 5.225L17.884 5.171C17.875 5.171 17.866 5.171 17.857 5.162C17.777 5.144 17.695 5.135 17.614 5.126H17.596C17.515 5.117 17.425 5.099 17.344 5.09H17.334C16.884 5.036 16.424 5 15.955 5H15.702C15.622 5 15.549 5.01 15.477 5.01H15.45C15.369 5.01 15.297 5.018 15.216 5.027H15.206C14.792 5.054 14.386 5.108 13.989 5.18C13.953 5.216 13.926 5.253 13.89 5.298C13.908 5.298 13.917 5.288 13.935 5.288V5.289ZM7.75 10.419C7.795 10.383 7.85 10.329 7.94 10.293C8.04477 10.2449 8.15783 10.2174 8.273 10.212C8.426 10.202 8.543 10.248 8.607 10.266C10.04 8.652 11.474 7.046 12.907 5.433L12.556 5.541C11.753 5.811 10.689 6.262 9.58 7.056C8.6113 7.75952 7.75952 8.6113 7.056 9.58C6.984 9.689 6.903 9.788 6.83 9.896C7.137 10.067 7.444 10.248 7.75 10.419V10.419ZM7.516 11.492C7.45024 11.37 7.41587 11.2336 7.416 11.095V11.032C7.416 11.032 7.426 10.987 7.426 10.969L6.496 10.446C5.58384 11.9975 5.06989 13.7506 5 15.549V16.307C5.027 17.154 5.144 17.975 5.352 18.759C6.154 16.433 6.966 14.116 7.768 11.789C7.66346 11.7094 7.57747 11.6081 7.516 11.492V11.492ZM18.462 5.857C18.4412 5.92118 18.4109 5.98186 18.372 6.037C18.3112 6.14861 18.2448 6.25708 18.173 6.362C18.128 6.425 18.083 6.497 18.038 6.569C17.9202 6.74135 17.7968 6.90978 17.668 7.074C17.605 7.146 17.551 7.227 17.488 7.308C17.478 7.318 17.47 7.335 17.461 7.344C17.344 7.489 17.217 7.642 17.082 7.795C16.982 7.912 16.892 8.021 16.784 8.138C16.92 8.291 17.073 8.453 17.226 8.634C17.28 8.688 17.334 8.751 17.38 8.814C17.488 8.931 17.587 9.048 17.686 9.166L17.975 9.508C18.155 9.734 18.308 9.932 18.435 10.112C18.543 10.275 18.597 10.392 18.615 10.482V10.518C18.615 10.608 18.57 10.698 18.489 10.78H22.799C22.8259 10.7091 22.8623 10.6422 22.907 10.581L18.497 5.631V5.649C18.4997 5.72 18.4878 5.79079 18.462 5.857V5.857ZM21.049 6.253C21.031 6.244 21.022 6.235 21.004 6.235C20.8834 6.1696 20.7599 6.10955 20.634 6.055C20.6103 6.04853 20.5886 6.03615 20.571 6.019C20.4518 5.96332 20.3318 5.90932 20.211 5.857C20.184 5.847 20.166 5.839 20.139 5.83C20.0088 5.77324 19.8764 5.72186 19.742 5.676C19.724 5.667 19.706 5.667 19.688 5.658C19.553 5.604 19.408 5.559 19.264 5.514C20.662 7.083 22.059 8.661 23.466 10.23C23.484 10.23 23.511 10.22 23.529 10.22H23.718C23.763 10.23 23.844 10.239 23.944 10.275C23.953 10.275 23.962 10.284 23.971 10.293C23.98 10.302 23.998 10.302 24.007 10.311C24.0746 10.3456 24.1381 10.3879 24.196 10.437C24.205 10.437 24.205 10.446 24.214 10.446C24.241 10.464 24.259 10.491 24.277 10.509C24.575 10.338 24.872 10.175 25.161 10.004C24.2139 8.5559 22.9418 7.34887 21.446 6.479H21.437C21.311 6.398 21.175 6.325 21.049 6.253V6.253ZM17.668 10.653C17.623 10.617 17.587 10.581 17.542 10.545L17.262 10.293L17.118 10.148C16.958 9.99245 16.8045 9.83031 16.658 9.662C16.55 9.544 16.451 9.427 16.352 9.319C16.252 9.202 16.144 9.093 16.045 8.985C15.712 9.328 15.432 9.625 15.198 9.878C15.144 9.932 15.089 9.995 15.035 10.049L15.017 10.067C14.909 10.175 14.819 10.275 14.729 10.365L14.603 10.491C14.4945 10.5968 14.38 10.6963 14.26 10.789H17.821C17.812 10.779 17.794 10.771 17.785 10.762C17.749 10.716 17.705 10.689 17.668 10.653V10.653ZM9.121 10.78H13.575C13.557 10.762 13.539 10.734 13.521 10.716C13.503 10.698 13.494 10.671 13.484 10.653C13.466 10.608 13.448 10.563 13.448 10.518C13.448 10.491 13.458 10.455 13.466 10.41C13.466 10.4 13.476 10.392 13.476 10.383C13.484 10.365 13.494 10.338 13.512 10.311C13.539 10.257 13.575 10.193 13.62 10.131C13.629 10.121 13.629 10.112 13.638 10.112C13.9082 9.73221 14.2 9.36827 14.512 9.022C14.5695 8.95345 14.6295 8.88707 14.692 8.823C14.756 8.76 14.81 8.688 14.873 8.625C15.008 8.471 15.143 8.318 15.261 8.174C15.27 8.164 15.279 8.156 15.279 8.147C14.9499 7.76554 14.6282 7.37781 14.314 6.984C14.224 6.866 14.143 6.749 14.062 6.641C13.9283 6.4524 13.8048 6.25679 13.692 6.055L13.638 5.947C13.62 5.911 13.611 5.875 13.593 5.847C13.575 5.784 13.557 5.73 13.557 5.685L9.084 10.698C9.094 10.725 9.112 10.753 9.121 10.78ZM16.37 26.928C19.25 26.8234 21.9721 25.5856 23.944 23.484C21.419 24.043 18.894 24.602 16.37 25.152V26.928ZM26.811 17.587C26.82 17.551 26.82 17.524 26.829 17.487C26.838 17.397 26.856 17.317 26.865 17.227V17.217L26.892 16.937C26.892 16.911 26.901 16.884 26.901 16.857C26.901 16.803 26.91 16.757 26.91 16.703C26.928 16.423 26.937 16.163 26.937 15.919C26.929 14.2786 26.5531 12.6609 25.837 11.185L25.81 11.131C25.774 11.05 25.729 10.978 25.693 10.897L25.639 10.789C25.594 10.707 25.549 10.617 25.503 10.536C25.17 10.726 24.845 10.906 24.512 11.096C24.512 11.122 24.512 11.149 24.502 11.176C24.494 11.23 24.484 11.276 24.475 11.321C24.466 11.348 24.457 11.366 24.448 11.393C24.4223 11.4596 24.3891 11.523 24.349 11.582C24.331 11.6 24.322 11.618 24.304 11.636C25.089 13.899 25.873 16.153 26.657 18.416C26.703 18.227 26.739 18.029 26.775 17.839C26.775 17.821 26.784 17.803 26.784 17.776C26.795 17.713 26.804 17.6496 26.811 17.586V17.587Z" fill="white"/>
<path d="M23.131 11C23.1855 11.1408 23.2758 11.2649 23.393 11.36L16.333 23.776L9.246 11.306C9.3306 11.2171 9.39806 11.1134 9.445 11H23.131ZM15.999 19.142C15.875 19.142 15.774 19.242 15.774 19.367V19.371C15.774 19.481 15.843 19.568 15.939 19.593L15.999 19.601C16.0291 19.6014 16.059 19.5957 16.0869 19.5843C16.1148 19.5728 16.1401 19.5558 16.1612 19.5343C16.1823 19.5128 16.1988 19.4873 16.2098 19.4592C16.2208 19.4311 16.2259 19.4011 16.225 19.371V19.367C16.225 19.3374 16.2191 19.308 16.2078 19.2807C16.1964 19.2533 16.1797 19.2285 16.1587 19.2075C16.1377 19.1866 16.1128 19.1701 16.0854 19.1588C16.058 19.1476 16.0286 19.1419 15.999 19.142ZM14.098 16.922C14.0531 16.9219 14.0091 16.9353 13.9719 16.9605C13.9346 16.9856 13.9058 17.0213 13.889 17.063L13.881 17.087L13.873 17.147C13.873 17.274 13.972 17.373 14.098 17.373C14.224 17.373 14.323 17.274 14.323 17.148C14.323 17.022 14.224 16.922 14.098 16.922V16.922ZM17.714 12.486C17.263 12.319 16.996 12.501 16.88 12.622L16.871 12.632C16.8441 12.6582 16.8212 12.6882 16.803 12.721C16.803 12.73 16.793 12.739 16.803 12.739C16.803 12.748 16.812 12.748 16.821 12.757C17.623 13.154 18.228 13.46 18.489 13.595L18.516 13.613C18.543 13.631 18.624 13.668 18.633 13.731C18.644 13.784 18.61 13.838 18.565 13.886L18.526 13.924L18.48 13.965L18.44 13.999C18.337 14.085 18.199 14.197 17.443 14.786C17.4122 14.817 17.3755 14.8415 17.335 14.858C17.2963 14.8794 17.2532 14.8917 17.209 14.894H17.182C17.137 14.894 17.1 14.894 16.947 14.831C16.8811 14.8056 16.8102 14.7964 16.74 14.804L16.65 14.831C16.632 14.84 16.623 14.849 16.605 14.858C16.5967 14.8658 16.588 14.8731 16.579 14.88L16.596 14.867C16.5728 14.8827 16.5514 14.9008 16.532 14.921C16.523 14.93 16.523 14.939 16.523 14.948C16.537 14.948 16.546 14.948 16.553 14.952L16.556 14.96L16.569 14.966C16.587 14.966 16.596 14.966 16.614 14.975C16.6362 14.9755 16.6579 14.9817 16.677 14.993C16.7513 15.0233 16.8218 15.0623 16.887 15.109L16.839 15.074C16.8772 15.1013 16.9133 15.1314 16.947 15.164C16.9796 15.1977 17.0097 15.2338 17.037 15.272L17.119 15.39L17.191 15.489C17.2114 15.5289 17.2265 15.5712 17.236 15.615C17.2539 15.6768 17.2629 15.7407 17.263 15.805V15.913C17.263 15.922 17.263 15.931 17.272 15.94L17.276 15.942L17.281 15.949H17.308C17.335 15.931 17.362 15.922 17.38 15.904C17.389 15.886 17.407 15.877 17.416 15.868C17.4416 15.8503 17.4606 15.8247 17.47 15.795C17.506 15.715 17.506 15.633 17.506 15.588C17.488 15.417 17.506 15.381 17.524 15.345C17.524 15.335 17.534 15.327 17.534 15.318C17.5501 15.2772 17.5742 15.2402 17.605 15.209C17.6391 15.1763 17.6755 15.1463 17.714 15.119C18.0506 14.8764 18.3937 14.643 18.743 14.419L18.805 14.379C18.885 14.335 19.003 14.254 19.085 14.299C19.0959 14.3054 19.1056 14.3135 19.114 14.323C19.138 14.362 19.15 14.417 19.156 14.443L19.166 14.488C19.219 14.804 19.328 15.453 19.463 16.318C19.463 16.328 19.472 16.336 19.472 16.336C19.473 16.342 19.475 16.346 19.481 16.346C19.49 16.354 19.49 16.354 19.499 16.354C19.508 16.354 20.022 16.237 19.986 15.561L19.914 13.947V13.907C19.9157 13.823 19.937 13.7405 19.976 13.666C20.0151 13.5916 20.0708 13.5272 20.139 13.478L20.626 13.091C20.626 13.091 20.923 12.883 20.869 12.559C20.86 12.549 20.86 12.541 20.851 12.541L20.858 12.545C20.851 12.534 20.847 12.531 20.842 12.531C20.545 12.378 20.265 12.604 20.265 12.604L19.742 12.955C19.6705 13.0117 19.5852 13.0483 19.4948 13.061C19.4044 13.0736 19.3123 13.0619 19.228 13.027L18.741 12.857L17.714 12.486ZM13.656 13.027C13.5962 13.0273 13.539 13.0512 13.4968 13.0935C13.4547 13.1359 13.431 13.1932 13.431 13.253V13.257C13.431 13.367 13.5 13.453 13.596 13.479L13.656 13.487C13.6861 13.4874 13.716 13.4817 13.7439 13.4703C13.7718 13.4588 13.797 13.4418 13.8182 13.4203C13.8393 13.3988 13.8558 13.3733 13.8668 13.3452C13.8778 13.3171 13.8829 13.2871 13.882 13.257V13.253C13.882 13.1931 13.8582 13.1356 13.8158 13.0932C13.7734 13.0508 13.7159 13.027 13.656 13.027V13.027ZM15.36 11.9C15.3002 11.9003 15.243 11.9242 15.2008 11.9665C15.1587 12.0089 15.135 12.0662 15.135 12.126V12.13C15.135 12.24 15.204 12.326 15.3 12.352L15.36 12.36C15.3901 12.3604 15.42 12.3547 15.4479 12.3433C15.4758 12.3318 15.5011 12.3148 15.5222 12.2933C15.5433 12.2718 15.5598 12.2463 15.5708 12.2182C15.5818 12.1901 15.5869 12.1601 15.586 12.13V12.126C15.586 12.0661 15.5622 12.0086 15.5198 11.9662C15.4774 11.9238 15.4199 11.9 15.36 11.9V11.9ZM11.24 11.9C11.2103 11.9 11.1809 11.9058 11.1535 11.9172C11.1261 11.9286 11.1012 11.9452 11.0802 11.9662C11.0592 11.9872 11.0426 12.0121 11.0312 12.0395C11.0198 12.0669 11.014 12.0963 11.014 12.126L11.015 12.13C11.015 12.24 11.083 12.326 11.179 12.352L11.239 12.36C11.2691 12.3604 11.299 12.3547 11.3269 12.3433C11.3548 12.3318 11.38 12.3148 11.4012 12.2933C11.4223 12.2718 11.4388 12.2463 11.4498 12.2182C11.4608 12.1901 11.4659 12.1601 11.465 12.13V12.126C11.465 12.001 11.365 11.9 11.24 11.9V11.9ZM8.318 22.054C8.354 21.882 8.398 21.702 8.453 21.494L8.507 21.278C8.588 20.99 8.678 20.683 8.787 20.368C8.813 20.287 8.84 20.214 8.858 20.142C8.904 19.998 8.948 19.854 8.994 19.719C9.01077 19.6543 9.03182 19.5909 9.057 19.529C8.813 19.475 8.525 19.403 8.218 19.339C7.91586 19.2714 7.61544 19.1964 7.317 19.114C7.1 19.051 6.902 18.997 6.731 18.934C6.668 18.916 6.613 18.889 6.559 18.871C6.49464 18.8473 6.43156 18.8202 6.37 18.79C6.3227 18.767 6.27752 18.7399 6.235 18.709C6.154 18.934 6.081 19.159 6 19.385C6.388 20.422 6.92 21.378 7.587 22.243C7.822 22.297 8.047 22.343 8.281 22.396C8.27813 22.2809 8.29057 22.1659 8.318 22.054V22.054ZM6.46 18.042C6.532 18.032 6.604 18.023 6.695 18.023C6.902 18.023 7.145 18.033 7.425 18.06C7.713 18.087 8.029 18.132 8.372 18.195C8.723 18.258 9.084 18.321 9.454 18.402C9.553 18.122 9.652 17.825 9.76 17.501C9.91018 17.0594 10.0756 16.6231 10.256 16.193C10.3065 16.0774 10.3605 15.9633 10.418 15.851C10.454 15.769 10.49 15.706 10.527 15.652C10.5561 15.6071 10.5892 15.5649 10.626 15.526C10.6448 15.5081 10.666 15.4929 10.689 15.481C10.7298 15.4566 10.7765 15.4441 10.824 15.445L8.688 11.631L6.461 18.041L6.46 18.042ZM12.131 20.169C12.059 20.151 11.978 20.142 11.906 20.124C11.746 20.0944 11.5866 20.0614 11.428 20.025L11.185 19.971C10.851 19.899 10.545 19.836 10.256 19.781C10.193 19.962 10.13 20.133 10.058 20.314C9.99713 20.4844 9.93076 20.6529 9.859 20.819C9.796 20.981 9.733 21.134 9.67 21.287C9.61009 21.4269 9.54674 21.5653 9.48 21.702C9.37512 21.925 9.25794 22.142 9.129 22.352C9.09278 22.4208 9.04737 22.4844 8.994 22.541L15.738 24.028L13.493 20.178L13.457 20.214C13.4413 20.2294 13.423 20.2419 13.403 20.251C13.322 20.296 13.168 20.305 12.933 20.287C12.7401 20.266 12.548 20.2387 12.357 20.205C12.276 20.196 12.204 20.178 12.131 20.169V20.169ZM11.284 16.554C11.266 16.644 11.239 16.744 11.212 16.851L11.158 17.068C11.095 17.284 11.031 17.51 10.95 17.744C10.8949 17.899 10.8439 18.0554 10.797 18.213C10.743 18.366 10.697 18.519 10.644 18.663C10.887 18.727 11.122 18.781 11.329 18.835C11.437 18.862 11.536 18.889 11.636 18.907C11.735 18.934 11.825 18.952 11.915 18.979C11.96 18.989 12.005 18.997 12.041 19.015L12.168 19.042C12.248 19.06 12.321 19.078 12.393 19.105C12.537 19.142 12.673 19.178 12.781 19.214C12.889 19.241 12.979 19.277 13.061 19.304L11.347 16.292C11.3197 16.3777 11.2986 16.4653 11.284 16.554V16.554ZM10.193 24.678C10.373 24.795 10.563 24.912 10.77 25.029C11.329 25.354 11.861 25.597 12.339 25.787C12.474 25.841 12.609 25.895 12.763 25.949C13.8214 26.3069 14.928 26.5015 16.045 26.526V24.75C13.448 24.182 10.86 23.605 8.263 23.037C8.8466 23.6503 9.49354 24.2 10.193 24.677V24.678Z" fill="white"/>
</g>
<defs>
<clipPath id="clip0_0_1520">
<rect width="32" height="32" fill="white"/>
</clipPath>
</defs>
</svg>
