<svg width="32" height="32" viewBox="0 0 32 32" fill="none" xmlns="http://www.w3.org/2000/svg">
<g clip-path="url(#clip0_0_1516)">
<path d="M16 32C24.8366 32 32 24.8366 32 16C32 7.16344 24.8366 0 16 0C7.16344 0 0 7.16344 0 16C0 24.8366 7.16344 32 16 32Z" fill="#343434"/>
<path d="M23.4171 21.1099C23.5935 21.0492 23.7449 20.932 23.8479 20.7766C23.951 20.6211 23.9999 20.436 23.9871 20.2499V21.3499C23.9884 21.537 23.9319 21.72 23.8255 21.8739C23.719 22.0278 23.5677 22.1451 23.3921 22.2099L15.8041 24.9429C15.6127 25.0191 15.3995 25.0191 15.2081 24.9429L7.6201 22.2109C7.4437 22.1474 7.29154 22.0304 7.18487 21.8762C7.0782 21.722 7.02234 21.5384 7.0251 21.3509V20.2509C7.0251 20.6299 7.2601 20.9839 7.6201 21.1109L15.2331 23.8429C15.4242 23.9188 15.637 23.9188 15.8281 23.8429L23.4171 21.1099ZM23.4171 19.1619C23.5917 19.0985 23.7413 18.9808 23.8439 18.8259C23.9466 18.6711 23.9967 18.4874 23.9871 18.3019V19.4019C23.9884 19.589 23.9319 19.772 23.8255 19.9259C23.719 20.0798 23.5677 20.1971 23.3921 20.2619L15.8041 22.9949C15.6127 23.0711 15.3995 23.0711 15.2081 22.9949L7.6201 20.2629C7.4437 20.1994 7.29154 20.0824 7.18487 19.9282C7.0782 19.774 7.02234 19.5904 7.0251 19.4029V18.2899C7.0251 18.6819 7.2601 19.0229 7.6201 19.1619L15.2331 21.8949C15.4242 21.9708 15.637 21.9708 15.8281 21.8949L23.4171 19.1619ZM23.4171 17.2019C23.591 17.1396 23.7408 17.0242 23.8455 16.872C23.9501 16.7198 24.0042 16.5386 24.0001 16.3539V17.4539C24.0013 17.6412 23.9447 17.8242 23.8381 17.9781C23.7314 18.132 23.5799 18.2493 23.4041 18.3139L15.8161 21.0469C15.625 21.1228 15.4122 21.1228 15.2211 21.0469L7.6201 18.3019C7.4437 18.2384 7.29154 18.1214 7.18487 17.9672C7.0782 17.813 7.02234 17.6294 7.0251 17.4419V16.3419C7.0251 16.7209 7.2601 17.0749 7.6201 17.2019L15.2331 19.9339C15.4242 20.0098 15.637 20.0098 15.8281 19.9339L23.4171 17.2019ZM7.0001 10.6619C6.99734 10.4745 7.0532 10.2908 7.15987 10.1366C7.26654 9.98245 7.4187 9.86543 7.5951 9.80191L15.1961 7.05691C15.3872 6.98103 15.6 6.98103 15.7911 7.05691L23.3921 9.80191C23.5685 9.86543 23.7207 9.98245 23.8273 10.1366C23.934 10.2908 23.9899 10.4745 23.9871 10.6619V15.4939C23.9884 15.681 23.9319 15.864 23.8255 16.0179C23.719 16.1718 23.5677 16.2891 23.3921 16.3539L15.7791 19.0859C15.588 19.1618 15.3752 19.1618 15.1841 19.0859L7.5951 16.3539C7.4187 16.2904 7.26654 16.1734 7.15987 16.0192C7.0532 15.865 6.99734 15.6814 7.0001 15.4939V10.6619Z" fill="white"/>
</g>
<defs>
<clipPath id="clip0_0_1516">
<rect width="32" height="32" fill="white"/>
</clipPath>
</defs>
</svg>
