<svg width="32" height="32" viewBox="0 0 32 32" fill="none" xmlns="http://www.w3.org/2000/svg">
<g clip-path="url(#clip0_0_1512)">
<path d="M16 32C24.8366 32 32 24.8366 32 16C32 7.16344 24.8366 0 16 0C7.16344 0 0 7.16344 0 16C0 24.8366 7.16344 32 16 32Z" fill="#0061FF"/>
<path d="M16.01 6L26 16.14L25.625 16.48C25.4545 16.6411 25.277 16.7945 25.093 16.94C24.767 17.201 24.423 17.461 24.077 17.692C22.6779 18.6393 21.1218 19.3307 19.481 19.734C18.345 20.014 17.179 20.154 16.01 20.154C14.53 20.154 13.06 19.934 11.65 19.484C10.2075 19.0309 8.8462 18.3514 7.617 17.471C7.19198 17.1593 6.78091 16.829 6.385 16.481L6 16.14L7.095 15.028L16.01 6ZM24.748 16.47C24.896 16.35 25.043 16.23 25.172 16.1L16 6.81L6.829 16.1L7.016 16.26C7.322 16.51 7.627 16.76 7.943 16.98C10.2931 18.6686 13.1162 19.5725 16.01 19.563C17.1368 19.5617 18.2593 19.4241 19.353 19.153C20.9295 18.7635 22.425 18.0994 23.771 17.191C24.109 16.969 24.435 16.728 24.748 16.471V16.47ZM9.718 15.99C11.6491 15.1296 13.7379 14.6798 15.852 14.669C18.338 14.669 20.783 15.329 22.923 16.591L23.062 16.671L22.923 16.761C21.509 17.6687 19.931 18.2911 18.278 18.593L18.239 18.603L18.209 18.583C15.6906 17.0139 12.7832 16.1815 9.816 16.18H9.274L9.718 15.99ZM18.357 17.992C19.609 17.752 20.803 17.322 21.907 16.701C20.0288 15.7436 17.9501 15.2459 15.842 15.249C14.572 15.249 13.309 15.419 12.085 15.759C14.305 16.059 16.439 16.819 18.357 17.992ZM21.661 19.964C21.2155 20.57 20.7417 21.1547 20.241 21.716L16.01 26L13.032 22.987L13.662 22.947C15.7687 22.8165 17.8171 22.2034 19.649 21.155C20.201 20.885 21.661 19.964 21.661 19.964V19.964ZM14.314 23.468L16.01 25.189L19.008 22.146C17.5309 22.8531 15.943 23.3003 14.314 23.468V23.468Z" fill="white"/>
</g>
<defs>
<clipPath id="clip0_0_1512">
<rect width="32" height="32" fill="white"/>
</clipPath>
</defs>
</svg>
