<svg width="32" height="32" viewBox="0 0 32 32" fill="none" xmlns="http://www.w3.org/2000/svg">
<g clip-path="url(#clip0_0_1508)">
<path d="M16 32C24.8366 32 32 24.8366 32 16C32 7.16344 24.8366 0 16 0C7.16344 0 0 7.16344 0 16C0 24.8366 7.16344 32 16 32Z" fill="#346FCE"/>
<path fill-rule="evenodd" clip-rule="evenodd" d="M20.6175 19.1662L21.5735 20.9632C22.1173 21.9862 22.2325 23.1833 21.8938 24.2912C21.5552 25.3991 20.7903 26.3271 19.7675 26.8712L19.6435 26.9372C19.1369 27.2066 18.5822 27.3736 18.0111 27.4287C17.44 27.4837 16.8637 27.4258 16.3149 27.258C15.7662 27.0903 15.2559 26.8162 14.8132 26.4513C14.3704 26.0864 14.0039 25.6378 13.7345 25.1312L10.5115 19.0692C9.98748 18.0838 9.86046 16.9352 10.1565 15.8591C10.4525 14.783 11.1492 13.861 12.1035 13.2822L11.1475 11.4852C10.6038 10.4621 10.4887 9.26496 10.8276 8.15702C11.1664 7.04908 11.9315 6.12112 12.9545 5.57722L13.0785 5.51122C14.1015 4.96742 15.2985 4.85218 16.4065 5.19086C17.5144 5.52954 18.4424 6.29439 18.9865 7.31722L22.2095 13.3792C22.7336 14.3645 22.8608 15.513 22.5649 16.5891C22.2691 17.6652 21.5726 18.5873 20.6185 19.1662H20.6175ZM20.6175 19.1662L18.3505 14.9012C17.8064 13.8784 16.8784 13.1135 15.7705 12.7749C14.6625 12.4362 13.4655 12.5514 12.4425 13.0952L12.3185 13.1602C12.2455 13.2002 12.1735 13.2402 12.1035 13.2822L14.3715 17.5472C14.9156 18.57 15.8436 19.3349 16.9515 19.6736C18.0594 20.0122 19.2565 19.897 20.2795 19.3532L20.4035 19.2882C20.4765 19.2482 20.5485 19.2082 20.6185 19.1662H20.6175Z" fill="white"/>
</g>
<defs>
<clipPath id="clip0_0_1508">
<rect width="32" height="32" fill="white"/>
</clipPath>
</defs>
</svg>
