<svg width="32" height="32" viewBox="0 0 32 32" fill="none" xmlns="http://www.w3.org/2000/svg">
<g clip-path="url(#clip0_0_1497)">
<path d="M16 32C24.8366 32 32 24.8366 32 16C32 7.16344 24.8366 0 16 0C7.16344 0 0 7.16344 0 16C0 24.8366 7.16344 32 16 32Z" fill="#2E3148"/>
<path d="M16.345 6C15.05 6 14 10.697 14 16.49C14 22.283 15.05 26.98 16.345 26.98C17.639 26.98 18.689 22.283 18.689 16.49C18.689 10.697 17.639 6 16.345 6ZM16.507 26.387C16.359 26.585 16.21 26.437 16.21 26.437C15.614 25.745 15.316 24.462 15.316 24.462C14.273 21.105 14.521 13.898 14.521 13.898C15.011 8.177 15.903 6.825 16.206 6.525C16.237 6.49423 16.278 6.47544 16.3215 6.47197C16.3651 6.46849 16.4085 6.48055 16.444 6.506C16.884 6.819 17.254 8.123 17.254 8.123C18.344 12.171 18.245 15.971 18.245 15.971C18.344 19.279 17.699 22.981 17.699 22.981C17.202 25.795 16.507 26.387 16.507 26.387Z" fill="white"/>
<path d="M25.2723 11.3841C24.6273 10.2601 20.0323 11.6871 15.0053 14.5701C9.9783 17.4531 6.4323 20.7001 7.0753 21.8241C7.7203 22.9481 12.3163 21.5211 17.3433 18.6381C22.3703 15.7551 25.9173 12.5071 25.2733 11.3841H25.2723ZM7.6693 21.6691C7.4233 21.6391 7.4793 21.4351 7.4793 21.4351C7.7813 20.5751 8.7453 19.6771 8.7453 19.6771C11.1383 17.1021 17.5143 13.7311 17.5143 13.7311C22.7203 11.3091 24.3373 11.4111 24.7473 11.5231C24.7896 11.5347 24.8265 11.561 24.8512 11.5972C24.8759 11.6335 24.8869 11.6774 24.8823 11.7211C24.8323 12.2581 23.8823 13.2281 23.8823 13.2281C20.9163 16.1891 17.5703 17.9961 17.5703 17.9961C14.7503 19.7281 11.2173 21.0091 11.2173 21.0091C8.5293 21.9771 7.6693 21.6691 7.6693 21.6691V21.6691Z" fill="white"/>
<path d="M25.228 21.8944C25.878 20.7744 22.341 17.5114 17.33 14.6064C12.32 11.7024 7.72598 10.2584 7.07698 11.3804C6.42698 12.5034 9.96498 15.7634 14.977 18.6684C19.99 21.5724 24.579 23.0164 25.228 21.8944ZM7.50798 11.8134C7.41098 11.5854 7.61398 11.5304 7.61398 11.5304C8.51098 11.3604 9.77098 11.7474 9.77098 11.7474C13.198 12.5274 19.309 16.3554 19.309 16.3554C24.014 19.6474 24.736 21.0984 24.844 21.5094C24.8549 21.5516 24.8506 21.5964 24.8317 21.6357C24.8129 21.6751 24.7807 21.7065 24.741 21.7244C24.251 21.9494 22.936 21.6144 22.936 21.6144C18.886 20.5284 15.647 18.5394 15.647 18.5394C12.737 16.9694 9.85898 14.5544 9.85898 14.5544C7.67198 12.7124 7.50898 11.8144 7.50898 11.8144L7.50698 11.8134H7.50798Z" fill="white"/>
<path d="M16.234 17.468C16.9155 17.468 17.468 16.9155 17.468 16.234C17.468 15.5525 16.9155 15 16.234 15C15.5525 15 15 15.5525 15 16.234C15 16.9155 15.5525 17.468 16.234 17.468Z" fill="white"/>
<path d="M21 13C21.5523 13 22 12.5523 22 12C22 11.4477 21.5523 11 21 11C20.4477 11 20 11.4477 20 12C20 12.5523 20.4477 13 21 13Z" fill="white"/>
<path d="M9 15C9.55228 15 10 14.5523 10 14C10 13.4477 9.55228 13 9 13C8.44772 13 8 13.4477 8 14C8 14.5523 8.44772 15 9 15Z" fill="white"/>
<path d="M15 24C15.5523 24 16 23.5523 16 23C16 22.4477 15.5523 22 15 22C14.4477 22 14 22.4477 14 23C14 23.5523 14.4477 24 15 24Z" fill="white"/>
</g>
<defs>
<clipPath id="clip0_0_1497">
<rect width="32" height="32" fill="white"/>
</clipPath>
</defs>
</svg>
