<svg width="32" height="32" viewBox="0 0 32 32" fill="none" xmlns="http://www.w3.org/2000/svg">
<g clip-path="url(#clip0_0_1493)">
<path d="M16 32C24.8366 32 32 24.8366 32 16C32 7.16344 24.8366 0 16 0C7.16344 0 0 7.16344 0 16C0 24.8366 7.16344 32 16 32Z" fill="#34318A"/>
<path d="M10.854 13.305L14.464 15.225L16.384 14.265L11.795 11.779V7.40095L20.618 11.981L22.538 11.021L11.238 5.09695C11.1091 5.02926 10.965 4.99599 10.8195 5.00038C10.674 5.00478 10.5321 5.04668 10.4076 5.12202C10.2831 5.19737 10.1801 5.3036 10.1087 5.43044C10.0373 5.55727 9.99984 5.7004 10 5.84595V11.913C10.003 12.5 10.332 13.037 10.854 13.305ZM24.611 12.287C24.4862 12.1657 24.327 12.086 24.1552 12.0586C23.9834 12.0312 23.8073 12.0575 23.651 12.134L10.854 18.777C10.329 19.047 9.999 19.588 10 20.179V26.236C9.99984 26.3815 10.0373 26.5246 10.1087 26.6515C10.1801 26.7783 10.2831 26.8845 10.4076 26.9599C10.5321 27.0352 10.674 27.0771 10.8195 27.0815C10.965 27.0859 11.1091 27.0526 11.238 26.985L24.006 20.361C24.539 20.085 24.87 19.531 24.861 18.931V12.883C24.861 12.772 24.8389 12.6621 24.796 12.5598C24.7531 12.4574 24.6902 12.3647 24.611 12.287ZM23.075 18.825L11.795 24.681V20.303L23.075 14.447V18.825Z" fill="white"/>
</g>
<defs>
<clipPath id="clip0_0_1493">
<rect width="32" height="32" fill="white"/>
</clipPath>
</defs>
</svg>
