<svg width="32" height="32" viewBox="0 0 32 32" fill="none" xmlns="http://www.w3.org/2000/svg">
<g clip-path="url(#clip0_0_1489)">
<path d="M16 32C24.8366 32 32 24.8366 32 16C32 7.16344 24.8366 0 16 0C7.16344 0 0 7.16344 0 16C0 24.8366 7.16344 32 16 32Z" fill="#FAB431"/>
<path fill-rule="evenodd" clip-rule="evenodd" d="M25 19.267L20.815 16.756L21.295 14.767L23.082 15.822V12.19L17.342 8.768V16.668L15.977 17.423L23.515 21.893L16.5 26L8 21.022V11.067L16.5 6L25 11.067V19.267ZM9.918 12.19V18.668L15.436 15.468V8.9L9.918 12.189V12.19ZM14.015 18.534L10.877 20.453L16.5 23.745L19.675 21.885L14.015 18.533V18.534Z" fill="white"/>
</g>
<defs>
<clipPath id="clip0_0_1489">
<rect width="32" height="32" fill="white"/>
</clipPath>
</defs>
</svg>
