<svg width="32" height="32" viewBox="0 0 32 32" fill="none" xmlns="http://www.w3.org/2000/svg">
<g clip-path="url(#clip0_0_1482)">
<path d="M16 32C24.8366 32 32 24.8366 32 16C32 7.16344 24.8366 0 16 0C7.16344 0 0 7.16344 0 16C0 24.8366 7.16344 32 16 32Z" fill="#3355B5"/>
<path d="M16 4C9.373 4 4 9.373 4 16C4 22.627 9.373 28 16 28C22.627 28 28 22.627 28 16C28 12.8174 26.7357 9.76516 24.4853 7.51472C22.2348 5.26428 19.1826 4 16 4V4ZM16 27.77C9.5 27.77 4.23 22.5 4.23 16C4.23 9.5 9.5 4.23 16 4.23C22.5 4.23 27.77 9.5 27.77 16C27.77 19.1216 26.53 22.1153 24.3226 24.3226C22.1153 26.53 19.1216 27.77 16 27.77V27.77Z" fill="white"/>
<path fill-rule="evenodd" clip-rule="evenodd" d="M19.18 13.28L19.15 13.17L19.12 13.06L19.09 12.94L19.05 12.84L19.02 12.73L18.98 12.63L18.93 12.52L18.89 12.42L18.84 12.33L18.79 12.23L18.74 12.14L18.68 12.05L18.63 11.97L18.57 11.88L18.51 11.81L18.44 11.73L18.38 11.66L18.32 11.59L18.25 11.53L18.18 11.47L18.11 11.41L18.04 11.36L17.96 11.31L17.89 11.27L17.81 11.22L17.74 11.19L17.66 11.15L17.58 11.12L17.5 11.09L17.41 11.07L17.33 11.05L17.25 11.03L17.16 11.02L17.07 11.01L16.99 11H16.72L16.63 11.01L16.54 11.02L16.44 11.03L16.35 11.05L16.26 11.07L16.17 11.09L16.07 11.12L15.98 11.15L15.88 11.18L15.78 11.22L15.69 11.26L15.59 11.31L15.5 11.35L15.4 11.4L15.3 11.46L15.21 11.51L15.11 11.57L15.01 11.64L14.92 11.7L14.82 11.77L14.72 11.85L14.62 11.92L14.53 12L14.43 12.08L14.34 12.17L14.24 12.26L14.14 12.35L14.05 12.45L13.95 12.55L13.86 12.65L13.77 12.75L13.67 12.86L13.58 12.97L13.49 13.08L13.4 13.2L13.31 13.32L13.22 13.45L13.1 13.62L12.98 13.8L12.86 13.99L12.75 14.17L12.64 14.37L12.53 14.56L12.43 14.75L12.33 14.95L12.24 15.15L12.15 15.35L12.07 15.55L12 15.71L19.19 13.36L19.18 13.28ZM12.69 16.79L19.06 16.74L19.09 16.6L19.12 16.46L19.15 16.32L19.18 16.17L19.2 16.03L19.23 15.89L19.25 15.75L19.26 15.61L19.28 15.47L19.29 15.33L19.3 15.2L19.31 15.06L19.32 14.92V14.63L12.69 16.79Z" fill="white"/>
<path d="M16.44 5C10.122 5 5 10.122 5 16.44C5 22.758 10.122 27.88 16.44 27.88C22.758 27.88 27.88 22.758 27.88 16.44C27.88 14.9377 27.5841 13.4501 27.0092 12.0621C26.4343 10.6741 25.5916 9.413 24.5293 8.3507C23.467 7.2884 22.2059 6.44573 20.8179 5.87082C19.4299 5.2959 17.9423 5 16.44 5V5ZM22.92 17.36L22.72 18.54H20.93L20.87 18.74L20.76 19.04L20.65 19.34L20.53 19.64L20.44 19.94L20.31 20.23L20.17 20.52L20.03 20.81L19.88 21.09L19.73 21.37L19.57 21.64L19.41 21.91L19.24 22.18L19.04 22.44L18.95 22.57L18.86 22.7L17.93 21.14L18.02 21.01L18.11 20.88L18.19 20.75L18.27 20.62L18.35 20.49L18.43 20.36L18.51 20.23L18.58 20.1L18.65 19.96L18.72 19.82L18.79 19.68L18.86 19.54L18.92 19.4L18.98 19.26L19.04 19.12L19.1 18.98L19.16 18.84L19.21 18.7V18.58L11.94 18.64V20.49L10.08 21.78V18.64H9.54L9.34 18.71L9 17.52L10.68 16.97V16.84L10.75 16.63L10.85 16.44L10.92 16.24L11 16.04L11.08 15.84L11.16 15.64L11.24 15.44L11.33 15.24L11.42 15.04L11.51 14.84L11.6 14.65L11.7 14.46L11.8 14.27L11.9 14.08L12 13.89L12.11 13.7L12.22 13.52L12.33 13.34L12.44 13.15L12.55 12.97L12.67 12.8L12.79 12.63L12.9 12.44L13.02 12.27L13.14 12.11L13.27 11.95L13.44 11.81L13.57 11.66L13.7 11.51L13.83 11.36L13.97 11.22L14.11 11.08L14.25 10.94L14.39 10.81L14.53 10.68L14.67 10.55L14.78 10.44L14.93 10.32L15.08 10.21L15.23 10.1L15.38 9.99L15.53 9.89L15.68 9.8L15.83 9.71L15.98 9.63L16.13 9.55L16.26 9.44L16.44 9.39L16.58 9.33L16.72 9.27L16.86 9.22H19.27L19.38 9.27L19.49 9.32L19.6 9.38L19.71 9.44L19.81 9.51L19.91 9.58L20.01 9.66L20.11 9.74L20.2 9.83L20.29 9.92L20.38 10.02L20.47 10.12L20.55 10.23L20.63 10.34L20.71 10.45L20.79 10.57L20.86 10.69L20.93 10.82L21 10.95L21.06 11.09L21.12 11.23L21.18 11.37L21.24 11.52L21.29 11.67V13.44L22.29 13.12L22.63 14.31L21.35 14.73V16.36L21.3 16.66L21.24 16.96L21.17 17.26V17.39L22.92 17.36V17.36Z" fill="white"/>
</g>
<defs>
<clipPath id="clip0_0_1482">
<rect width="32" height="32" fill="white"/>
</clipPath>
</defs>
</svg>
