<svg width="32" height="32" viewBox="0 0 32 32" fill="none" xmlns="http://www.w3.org/2000/svg">
<g clip-path="url(#clip0_0_1478)">
<path d="M16 32C24.8366 32 32 24.8366 32 16C32 7.16344 24.8366 0 16 0C7.16344 0 0 7.16344 0 16C0 24.8366 7.16344 32 16 32Z" fill="#F19F13"/>
<path d="M22.77 14H27.64L28 12H23.29C22.3614 12.0289 21.4614 12.3277 20.7 12.86C20.42 11.86 17.7 12 17.7 12L18.06 10H17L16.64 12H15.53L15.84 10H14.69L14.27 12H13.08L12.47 15.12L11.66 12.06H9L4 19.41H8.12L8.54 17.46H7.7L10.1 13.95L11 17.48H10.1L9.71 19.41H12.77L12.52 20.75H13.72L14 19.41H15L14.75 20.75H16L16.25 19.41H17.81C18.5273 19.3287 19.1913 18.9914 19.68 18.46C20.2626 19.0497 21.0513 19.3902 21.88 19.41H26.59L26.9 17.46H22.67C19.76 17.41 21 13.98 22.77 14ZM17.48 17.41H14.36L14.61 16.46H17.61C18.37 16.51 18.12 17.41 17.48 17.41ZM17.95 14.85H14.83L15.08 13.9H18.08C18.84 13.95 18.56 14.89 17.95 14.89V14.85V14.85Z" fill="white"/>
</g>
<defs>
<clipPath id="clip0_0_1478">
<rect width="32" height="32" fill="white"/>
</clipPath>
</defs>
</svg>
