<svg width="32" height="32" viewBox="0 0 32 32" fill="none" xmlns="http://www.w3.org/2000/svg">
<g clip-path="url(#clip0_0_1471)">
<path d="M16 32C24.8366 32 32 24.8366 32 16C32 7.16344 24.8366 0 16 0C7.16344 0 0 7.16344 0 16C0 24.8366 7.16344 32 16 32Z" fill="#1E1E1E"/>
<path d="M16.092 23.693C10.518 23.693 6 22.083 6 19.925C6 18.799 7.23 17.785 9.2 17.069C10.738 18.056 13.317 18.562 16.242 18.562C19.098 18.562 21.622 17.945 23.172 17C25.031 17.707 26.185 18.694 26.185 19.782C26.185 21.943 21.667 23.693 16.092 23.693V23.693Z" fill="white"/>
<path d="M16.652 17.219C12.426 17.219 9 15.894 9 14.259C9 13.353 10.056 12.541 11.712 12C12.894 12.617 14.665 13.011 16.652 13.011C18.639 13.011 20.41 12.617 21.592 12.001C23.251 12.544 24.304 13.353 24.304 14.259C24.307 15.894 20.88 17.219 16.652 17.219Z" fill="white"/>
<path d="M15.916 12.88C12.649 12.88 10 11.786 10 10.44C10 9.095 12.65 8 15.916 8C19.182 8 21.832 9.095 21.832 10.44C21.832 11.786 19.182 12.88 15.916 12.88Z" fill="white"/>
</g>
<defs>
<clipPath id="clip0_0_1471">
<rect width="32" height="32" fill="white"/>
</clipPath>
</defs>
</svg>
