<svg width="32" height="32" viewBox="0 0 32 32" fill="none" xmlns="http://www.w3.org/2000/svg">
<g clip-path="url(#clip0_0_1465)">
<path d="M16 32C24.8366 32 32 24.8366 32 16C32 7.16344 24.8366 0 16 0C7.16344 0 0 7.16344 0 16C0 24.8366 7.16344 32 16 32Z" fill="#516AFF"/>
<path d="M18.036 12.229L20.236 13.486V7.2L15.836 5L9 8.85V22.521L15.836 26.45L22.593 22.443V15.686L16.071 11.757L13.871 12.857L20.393 16.707L20.471 21.343L15.836 23.936L11.121 21.264V9.95L15.836 7.357L18.036 8.536V12.229V12.229Z" fill="white"/>
<path d="M15.729 15.671L17.222 14.885L18.872 15.907L14 18.657V13L15.729 14.021" fill="white"/>
</g>
<defs>
<clipPath id="clip0_0_1465">
<rect width="32" height="32" fill="white"/>
</clipPath>
</defs>
</svg>
