<svg width="32" height="32" viewBox="0 0 32 32" fill="none" xmlns="http://www.w3.org/2000/svg">
<g clip-path="url(#clip0_0_1457)">
<path d="M16 32C24.8366 32 32 24.8366 32 16C32 7.16344 24.8366 0 16 0C7.16344 0 0 7.16344 0 16C0 24.8366 7.16344 32 16 32Z" fill="#6356AB"/>
<path d="M22.784 15.974C22.842 15.909 22.907 15.844 22.972 15.778C23.182 15.552 23.412 15.311 23.629 15.078C24.4984 14.1717 24.9845 12.9649 24.986 11.709C24.986 11.622 25 11.264 25 11.213C24.899 8.341 22.481 6 19.623 6H10.623V9.631H7V26H19.767C22.604 26 25 23.477 25 20.488C25.007 18.351 23.686 16.842 22.784 15.974ZM12.427 11.454L19.594 11.461L15.091 16.026L19.544 20.546H12.427V11.454ZM19.767 24.17H8.804V11.447H10.624V22.362H19.544C20.28 22.362 20.937 21.917 21.218 21.232C21.3564 20.8986 21.3932 20.5318 21.3238 20.1776C21.2544 19.8234 21.0819 19.4975 20.828 19.241L17.646 16.018L20.879 12.744C21.399 12.219 21.55 11.439 21.269 10.754C21.134 10.4203 20.9025 10.1345 20.6041 9.93318C20.3057 9.73187 19.954 9.62421 19.594 9.624H12.434V7.816H19.63C21.536 7.816 23.138 9.369 23.203 11.257C23.203 11.337 23.188 11.651 23.188 11.658V11.694C23.1879 12.4858 22.8803 13.2466 22.33 13.816C22.106 14.05 21.875 14.297 21.666 14.516C21.312 14.888 21.009 15.209 20.864 15.355L20.214 15.996L20.857 16.646C20.944 16.733 21.052 16.835 21.182 16.959C21.932 17.659 23.196 18.825 23.196 20.473C23.203 22.442 21.601 24.17 19.767 24.17V24.17Z" fill="white"/>
</g>
<defs>
<clipPath id="clip0_0_1457">
<rect width="32" height="32" fill="white"/>
</clipPath>
</defs>
</svg>
