<svg width="32" height="32" viewBox="0 0 32 32" fill="none" xmlns="http://www.w3.org/2000/svg">
<g clip-path="url(#clip0_0_1453)">
<path d="M16 32C24.8366 32 32 24.8366 32 16C32 7.16344 24.8366 0 16 0C7.16344 0 0 7.16344 0 16C0 24.8366 7.16344 32 16 32Z" fill="#004AB5"/>
<path d="M12.9819 7.82162C11.6622 8.31888 10.4822 9.12756 9.54225 10.1789C8.60229 11.2302 7.9302 12.493 7.58316 13.8598C7.23613 15.2267 7.22442 16.6572 7.54903 18.0296C7.87364 19.4019 8.52497 20.6756 9.44759 21.7421C10.3702 22.8087 11.5368 23.6366 12.8482 24.1553C14.1595 24.6741 15.5768 24.8685 16.9794 24.7218C18.3819 24.5752 19.7284 24.0919 20.904 23.3131C22.0797 22.5342 23.0498 21.4829 23.7319 20.2486L16.0699 16.0136L19.1789 7.82862C17.1834 7.0711 14.98 7.06861 12.9829 7.82162H12.9819ZM13.5279 9.39462C15.1453 8.78475 16.9299 8.78688 18.5459 9.40062L16.0289 16.0276L22.2329 19.4576C21.6805 20.4568 20.8949 21.3079 19.9429 21.9383C18.991 22.5687 17.9009 22.9598 16.7653 23.0784C15.6297 23.1971 14.4823 23.0396 13.4206 22.6196C12.3589 22.1995 11.4144 21.5292 10.6674 20.6657C9.92047 19.8022 9.39312 18.771 9.13025 17.6599C8.86739 16.5488 8.87678 15.3907 9.15764 14.284C9.4385 13.1773 9.98251 12.1549 10.7434 11.3036C11.5043 10.4523 12.4595 9.79742 13.5279 9.39462V9.39462ZM16.4639 5.00862C17.6549 5.05562 18.8299 5.29562 19.9439 5.71862L16.0289 16.0276L25.6799 21.3626C24.7303 23.0807 23.3393 24.5142 21.6506 25.515C19.9618 26.5159 18.0366 27.0478 16.0735 27.0559C14.1105 27.064 12.1809 26.548 10.484 25.5611C8.78701 24.5743 7.38425 23.1523 6.4205 21.4421C5.45676 19.7319 4.96698 17.7955 5.00173 15.8328C5.03648 13.8701 5.5945 11.9522 6.61818 10.2772C7.64185 8.60218 9.09408 7.23079 10.8249 6.30461C12.5557 5.37843 14.5024 4.93103 16.4639 5.00862V5.00862ZM23.9929 8.82062C24.2569 8.82062 24.5029 8.85162 24.7289 8.91562C25.3949 9.09862 25.8449 9.51262 26.0789 10.1566C26.2219 10.5476 26.2529 10.9316 26.1729 11.3086C26.1009 11.6826 25.9279 12.0186 25.6539 12.3186C26.1679 12.2956 26.6169 12.4106 27.0039 12.6606C27.3869 12.9026 27.6699 13.2736 27.8509 13.7716C28.1079 14.4776 28.0309 15.1226 27.6179 15.7066C27.2099 16.2806 26.4809 16.7596 25.4299 17.1416L21.2659 18.6576L18.3349 10.6046L22.2689 9.17262C22.9129 8.93862 23.4879 8.82062 23.9929 8.82062V8.82062ZM23.3829 10.4866C23.1429 10.4866 22.8659 10.5446 22.5499 10.6596L20.6979 11.3336L21.3879 13.2326L23.2409 12.5576C23.7009 12.3906 24.0209 12.1836 24.1989 11.9356C24.3789 11.6876 24.4109 11.4066 24.2959 11.0926C24.1819 10.7786 23.9779 10.5876 23.6839 10.5206C23.5853 10.4968 23.4842 10.4854 23.3829 10.4866V10.4866ZM24.9449 13.6086C24.6929 13.6116 24.3969 13.6746 24.0569 13.7986L21.8829 14.5896L22.6069 16.5796L24.7809 15.7886C25.2709 15.6096 25.6109 15.3956 25.7969 15.1446C25.9919 14.8916 26.0269 14.5966 25.9049 14.2586C25.7449 13.8216 25.4249 13.6046 24.9449 13.6086V13.6086Z" fill="white"/>
</g>
<defs>
<clipPath id="clip0_0_1453">
<rect width="32" height="32" fill="white"/>
</clipPath>
</defs>
</svg>
