<svg width="32" height="32" viewBox="0 0 32 32" fill="none" xmlns="http://www.w3.org/2000/svg">
<g clip-path="url(#clip0_0_1449)">
<path d="M16 32C24.8366 32 32 24.8366 32 16C32 7.16344 24.8366 0 16 0C7.16344 0 0 7.16344 0 16C0 24.8366 7.16344 32 16 32Z" fill="#F7931C"/>
<path d="M7.00002 19.0161C6.99202 16.0041 9.11302 13.4761 12.147 12.9071C12.407 12.8591 12.481 12.7721 12.474 12.5181C12.4575 11.8418 12.4575 11.1653 12.474 10.4891C12.479 10.2461 12.402 10.1011 12.193 9.96507C11.464 9.49007 11.166 8.62607 11.433 7.84907C11.5614 7.45594 11.8161 7.11628 12.1576 6.88296C12.4991 6.64965 12.9081 6.53578 13.321 6.55907C14.091 6.59507 14.796 7.16807 15.004 7.92907C15.214 8.69307 14.922 9.52407 14.244 9.95507C14.004 10.1071 13.929 10.2601 13.937 10.5321C13.957 11.2081 13.95 11.8841 13.941 12.5611C13.938 12.7571 13.967 12.8621 14.2 12.8921C14.643 12.9511 15.076 13.0701 15.486 13.2461C15.64 13.3121 15.723 13.2721 15.826 13.1581C17.261 11.5771 18.701 9.99907 20.144 8.42507C20.293 8.26307 20.25 8.15207 20.182 7.98507C19.83 7.11707 20.036 6.18007 20.7 5.56007C21.306 4.99507 22.308 4.83407 23.032 5.18507C23.884 5.59807 24.352 6.39007 24.294 7.32007C24.216 8.56407 23.006 9.50107 21.778 9.24607C21.529 9.19407 21.385 9.25407 21.224 9.43207C19.8883 10.9085 18.5469 12.3798 17.2 13.8461C17.037 14.0231 17.014 14.1181 17.217 14.2941C19.421 16.2161 20.021 19.1121 18.765 21.7501C18.67 21.9501 18.691 22.0641 18.845 22.2101C19.212 22.5591 19.567 22.9201 19.919 23.2851C20.059 23.4301 20.19 23.4681 20.398 23.4151C21.208 23.2111 22.048 23.5751 22.452 24.2781C22.6522 24.626 22.7349 25.0292 22.6879 25.4278C22.6409 25.8264 22.4666 26.1993 22.191 26.4911C21.637 27.0801 20.732 27.2511 20.029 26.8991C19.261 26.5151 18.837 25.6941 19.019 24.8511C19.072 24.6091 19.016 24.4711 18.854 24.3181C18.5558 24.0361 18.2666 23.7446 17.987 23.4441C17.824 23.2681 17.723 23.2651 17.537 23.4401C15.638 25.2101 13.436 25.6681 11.006 24.8041C8.59002 23.9471 7.00702 21.5981 7.00002 19.0171" fill="#FEFDFC"/>
</g>
<defs>
<clipPath id="clip0_0_1449">
<rect width="32" height="32" fill="white"/>
</clipPath>
</defs>
</svg>
