<svg width="32" height="32" viewBox="0 0 32 32" fill="none" xmlns="http://www.w3.org/2000/svg">
<g clip-path="url(#clip0_0_1445)">
<path d="M16 32C24.8366 32 32 24.8366 32 16C32 7.16344 24.8366 0 16 0C7.16344 0 0 7.16344 0 16C0 24.8366 7.16344 32 16 32Z" fill="#FCC339"/>
<path d="M22.585 9.694L22.662 9.865L19.608 11.267L20.982 15.817L25.503 13.534L25.563 13.653L25.581 13.631L22.652 9.725L22.585 9.694ZM22.42 9.617L19.647 8.327H12.476L9.514 9.687L12.594 10.983H19.444L22.42 9.617ZM9.266 9.937L6.493 13.538L11.007 15.818L12.387 11.25L9.266 9.937ZM12.706 11.31L11.281 16.03L15.994 24.362L20.708 16.03L19.282 11.31H12.706ZM25.218 14.043L21 16.174L16.795 23.607L25.218 14.043ZM15.171 23.567L10.989 16.174L6.793 14.055L15.171 23.567ZM6.431 13.643L6.464 13.576L6.421 13.632L6.431 13.643ZM9.222 9.462L12.405 8H19.717L22.861 9.462L26 13.648L16 25L6 13.646L9.222 9.462ZM18.423 14.834C18.482 15.441 18.231 15.806 17.829 16.013C18.49 16.173 18.904 16.571 18.822 17.463C18.722 18.569 17.907 18.865 16.743 18.933V20.096H16.051V18.949C15.871 18.949 15.688 18.947 15.498 18.943V20.096H14.807V18.93C14.645 18.929 14.48 18.926 14.312 18.926H13.412L13.549 18.089C13.549 18.089 14.061 18.097 14.052 18.089C14.248 18.089 14.3 17.946 14.312 17.857V16.02H14.386C14.3615 16.0167 14.3368 16.015 14.312 16.015V14.704C14.286 14.561 14.195 14.397 13.914 14.396C13.923 14.386 13.412 14.396 13.412 14.396V13.648H14.366V13.652C14.51 13.652 14.656 13.649 14.806 13.646V12.495H15.499V13.624C15.683 13.62 15.869 13.616 16.051 13.616V12.496L16.743 12.495V13.646C17.637 13.726 18.344 14.004 18.423 14.834V14.834ZM17.455 17.324C17.455 16.416 15.984 16.553 15.515 16.553V18.096C15.984 18.096 17.455 18.194 17.455 17.324ZM17.133 15.147C17.133 14.321 15.905 14.447 15.515 14.447V15.847C15.905 15.847 17.133 15.939 17.133 15.147V15.147Z" fill="white"/>
</g>
<defs>
<clipPath id="clip0_0_1445">
<rect width="32" height="32" fill="white"/>
</clipPath>
</defs>
</svg>
