<svg width="32" height="32" viewBox="0 0 32 32" fill="none" xmlns="http://www.w3.org/2000/svg">
<g clip-path="url(#clip0_0_1441)">
<path d="M16 32C24.8366 32 32 24.8366 32 16C32 7.16344 24.8366 0 16 0C7.16344 0 0 7.16344 0 16C0 24.8366 7.16344 32 16 32Z" fill="#8DC351"/>
<path d="M21.23 10.523C20.454 8.551 18.508 8.373 16.242 8.813L15.435 6L13.723 6.491L14.509 9.231C14.059 9.359 13.601 9.501 13.146 9.641L12.356 6.883L10.645 7.373L11.45 10.186C11.082 10.3 10.72 10.412 10.365 10.514L10.362 10.504L8 11.181L8.525 13.011C8.525 13.011 9.783 12.623 9.768 12.653C10.462 12.454 10.803 12.792 10.968 13.121L11.888 16.325C11.935 16.312 11.998 16.296 12.072 16.285L11.891 16.337L13.178 20.827C13.21 21.054 13.182 21.439 12.698 21.579C12.725 21.592 11.452 21.935 11.452 21.935L11.699 24.078L13.927 23.438C14.342 23.321 14.752 23.211 15.153 23.098L15.97 25.943L17.68 25.453L16.873 22.638C17.3317 22.5163 17.7891 22.3896 18.245 22.258L19.047 25.061L20.76 24.57L19.946 21.73C22.777 20.739 24.584 19.436 24.059 16.66C23.637 14.426 22.335 13.748 20.588 13.824C21.436 13.034 21.801 11.966 21.23 10.524V10.523ZM20.58 17.293C21.19 19.42 17.48 20.222 16.32 20.556L15.239 16.786C16.399 16.453 19.943 15.076 20.579 17.294L20.58 17.293ZM18.258 12.203C18.812 14.138 15.711 14.783 14.744 15.06L13.764 11.641C14.73 11.364 17.679 10.186 18.258 12.204V12.203Z" fill="white"/>
</g>
<defs>
<clipPath id="clip0_0_1441">
<rect width="32" height="32" fill="white"/>
</clipPath>
</defs>
</svg>
