<svg width="32" height="32" viewBox="0 0 32 32" fill="none" xmlns="http://www.w3.org/2000/svg">
<g clip-path="url(#clip0_0_1437)">
<path d="M16 32C24.8366 32 32 24.8366 32 16C32 7.16344 24.8366 0 16 0C7.16344 0 0 7.16344 0 16C0 24.8366 7.16344 32 16 32Z" fill="#3F43AD"/>
<path d="M11.9255 7.43C11.7022 7.44308 11.4923 7.54102 11.3388 7.70377C11.1853 7.86652 11.0998 8.08178 11.0998 8.3055C11.0998 8.52922 11.1853 8.74448 11.3388 8.90723C11.4923 9.06998 11.7022 9.16792 11.9255 9.181C12.1488 9.16792 12.3587 9.06998 12.5122 8.90723C12.6657 8.74448 12.7512 8.52922 12.7512 8.3055C12.7512 8.08178 12.6657 7.86652 12.5122 7.70377C12.3587 7.54102 12.1488 7.44308 11.9255 7.43V7.43ZM15.9755 5C15.7504 5.01076 15.5381 5.10775 15.3826 5.27085C15.2271 5.43395 15.1404 5.65065 15.1404 5.876C15.1404 6.10135 15.2271 6.31805 15.3826 6.48115C15.5381 6.64425 15.7504 6.74124 15.9755 6.752C16.2006 6.74124 16.4129 6.64425 16.5684 6.48115C16.7239 6.31805 16.8106 6.10135 16.8106 5.876C16.8106 5.65065 16.7239 5.43395 16.5684 5.27085C16.4129 5.10775 16.2006 5.01076 15.9755 5V5ZM15.9755 14.719C15.7522 14.7321 15.5423 14.83 15.3888 14.9928C15.2353 15.1555 15.1498 15.3708 15.1498 15.5945C15.1498 15.8182 15.2353 16.0335 15.3888 16.1962C15.5423 16.359 15.7522 16.4569 15.9755 16.47C16.1988 16.4569 16.4087 16.359 16.5622 16.1962C16.7157 16.0335 16.8012 15.8182 16.8012 15.5945C16.8012 15.3708 16.7157 15.1555 16.5622 14.9928C16.4087 14.83 16.1988 14.7321 15.9755 14.719V14.719ZM20.0245 12.289C19.9094 12.2891 19.7954 12.3119 19.6892 12.3561C19.5829 12.4003 19.4863 12.4649 19.405 12.5464C19.3237 12.6279 19.2593 12.7246 19.2153 12.831C19.1714 12.9374 19.1489 13.0514 19.149 13.1665C19.1491 13.2816 19.1719 13.3956 19.2161 13.5018C19.2603 13.6081 19.3249 13.7047 19.4064 13.786C19.4879 13.8673 19.5846 13.9317 19.691 13.9757C19.7974 14.0196 19.9114 14.0421 20.0265 14.042C20.259 14.0417 20.4818 13.9491 20.646 13.7846C20.8102 13.62 20.9023 13.397 20.902 13.1645C20.9017 12.932 20.8091 12.7092 20.6446 12.545C20.48 12.3808 20.257 12.2887 20.0245 12.289V12.289ZM24.0735 9.86C23.9559 9.85616 23.8387 9.87603 23.729 9.91842C23.6192 9.9608 23.5191 10.0248 23.4346 10.1067C23.3501 10.1886 23.283 10.2866 23.2371 10.395C23.1913 10.5034 23.1678 10.6199 23.1679 10.7375C23.168 10.8552 23.1919 10.9716 23.2379 11.0799C23.284 11.1882 23.3514 11.2861 23.436 11.3677C23.5207 11.4494 23.621 11.5132 23.7308 11.5554C23.8407 11.5975 23.9579 11.6171 24.0755 11.613C24.3028 11.6051 24.5182 11.5091 24.6761 11.3454C24.834 11.1817 24.9222 10.963 24.9219 10.7355C24.9216 10.5081 24.833 10.2896 24.6747 10.1262C24.5164 9.96288 24.3008 9.86742 24.0735 9.86V9.86ZM11.9255 17.149C11.7022 17.1621 11.4923 17.26 11.3388 17.4228C11.1853 17.5855 11.0998 17.8008 11.0998 18.0245C11.0998 18.2482 11.1853 18.4635 11.3388 18.6262C11.4923 18.789 11.7022 18.8869 11.9255 18.9C12.1488 18.8869 12.3587 18.789 12.5122 18.6262C12.6657 18.4635 12.7512 18.2482 12.7512 18.0245C12.7512 17.8008 12.6657 17.5855 12.5122 17.4228C12.3587 17.26 12.1488 17.1621 11.9255 17.149V17.149ZM7.8755 9.86C7.76046 9.86013 7.64658 9.88292 7.54035 9.92706C7.43411 9.97121 7.33762 10.0358 7.25637 10.1173C7.17512 10.1987 7.1107 10.2954 7.0668 10.4017C7.0229 10.508 7.00037 10.622 7.0005 10.737C7.00063 10.852 7.02342 10.9659 7.06756 11.0722C7.11171 11.1784 7.17635 11.2749 7.25778 11.3561C7.33922 11.4374 7.43586 11.5018 7.54219 11.5457C7.64853 11.5896 7.76246 11.6121 7.8775 11.612C8.10983 11.6117 8.33254 11.5192 8.49663 11.3547C8.66073 11.1902 8.75277 10.9673 8.7525 10.735C8.75224 10.5027 8.65969 10.28 8.49522 10.1159C8.33075 9.95177 8.10783 9.85973 7.8755 9.86V9.86ZM7.8755 19.578C7.7604 19.5781 7.64645 19.6009 7.54015 19.6451C7.43386 19.6893 7.33731 19.7539 7.25601 19.8354C7.09183 20 6.99974 20.223 7 20.4555C7.00027 20.688 7.09287 20.9108 7.25743 21.075C7.42199 21.2392 7.64504 21.3313 7.8775 21.331C8.10996 21.3307 8.3328 21.2381 8.49699 21.0736C8.66117 20.909 8.75327 20.686 8.753 20.4535C8.75274 20.221 8.66014 19.9982 8.49557 19.834C8.33101 19.6698 8.10796 19.5777 7.8755 19.578ZM7.8755 14.719C7.65216 14.7321 7.44227 14.83 7.28877 14.9928C7.13527 15.1555 7.04977 15.3708 7.04977 15.5945C7.04977 15.8182 7.13527 16.0335 7.28877 16.1962C7.44227 16.359 7.65216 16.4569 7.8755 16.47C8.09884 16.4569 8.30873 16.359 8.46223 16.1962C8.61573 16.0335 8.70123 15.8182 8.70123 15.5945C8.70123 15.3708 8.61573 15.1555 8.46223 14.9928C8.30873 14.83 8.09884 14.7321 7.8755 14.719V14.719ZM15.9755 9.86C15.8579 9.85603 15.7407 9.87576 15.6309 9.91802C15.5211 9.96028 15.4209 10.0242 15.3363 10.106C15.2517 10.1878 15.1845 10.2857 15.1385 10.3941C15.0926 10.5024 15.0689 10.6188 15.0689 10.7365C15.0689 10.8542 15.0926 10.9706 15.1385 11.0789C15.1845 11.1873 15.2517 11.2852 15.3363 11.367C15.4209 11.4488 15.5211 11.5127 15.6309 11.555C15.7407 11.5972 15.8579 11.617 15.9755 11.613C16.2028 11.6053 16.4183 11.5096 16.5764 11.3461C16.7345 11.1825 16.8229 10.964 16.8229 10.7365C16.8229 10.509 16.7345 10.2905 16.5764 10.1269C16.4183 9.96339 16.2028 9.86768 15.9755 9.86V9.86ZM20.0245 7.43C19.9069 7.42616 19.7897 7.44603 19.68 7.48842C19.5702 7.5308 19.4701 7.59484 19.3856 7.67672C19.3011 7.7586 19.234 7.85664 19.1881 7.96502C19.1423 8.07339 19.1188 8.18987 19.1189 8.30753C19.119 8.42519 19.1429 8.54162 19.1889 8.64989C19.235 8.75816 19.3024 8.85605 19.387 8.93774C19.4717 9.01942 19.572 9.08323 19.6818 9.12537C19.7917 9.16751 19.9089 9.1871 20.0265 9.183C20.2538 9.17507 20.4692 9.07911 20.6271 8.91539C20.785 8.75168 20.8732 8.533 20.8729 8.30553C20.8726 8.07806 20.784 7.85959 20.6257 7.69623C20.4674 7.53288 20.2518 7.43742 20.0245 7.43V7.43ZM20.0245 17.149C19.9095 17.1491 19.7956 17.1718 19.6893 17.2159C19.5831 17.26 19.4865 17.3245 19.4052 17.4059C19.3239 17.4873 19.2595 17.5839 19.2155 17.6902C19.1715 17.7965 19.1489 17.9105 19.149 18.0255C19.1491 18.1405 19.1718 18.2544 19.2159 18.3607C19.26 18.4669 19.3245 18.5635 19.4059 18.6448C19.4873 18.7261 19.5839 18.7905 19.6902 18.8345C19.7965 18.8785 19.9105 18.9011 20.0255 18.901C20.2578 18.9009 20.4806 18.8084 20.6448 18.6441C20.809 18.4797 20.9011 18.2568 20.901 18.0245C20.9009 17.7922 20.8084 17.5694 20.6441 17.4052C20.4797 17.241 20.2568 17.1489 20.0245 17.149V17.149ZM24.0735 14.719C23.8502 14.7321 23.6403 14.83 23.4868 14.9928C23.3333 15.1555 23.2478 15.3708 23.2478 15.5945C23.2478 15.8182 23.3333 16.0335 23.4868 16.1962C23.6403 16.359 23.8502 16.4569 24.0735 16.47C24.2968 16.4569 24.5067 16.359 24.6602 16.1962C24.8137 16.0335 24.8992 15.8182 24.8992 15.5945C24.8992 15.3708 24.8137 15.1555 24.6602 14.9928C24.5067 14.83 24.2968 14.7321 24.0735 14.719V14.719ZM20.0245 22.008C19.9094 22.0081 19.7954 22.0308 19.6891 22.0749C19.5828 22.119 19.4862 22.1836 19.4049 22.2651C19.3235 22.3465 19.259 22.4432 19.215 22.5495C19.171 22.6559 19.1484 22.7699 19.1485 22.885C19.1486 23.0001 19.1713 23.1141 19.2154 23.2204C19.2595 23.3267 19.3241 23.4233 19.4056 23.5046C19.487 23.586 19.5837 23.6505 19.69 23.6945C19.7964 23.7385 19.9104 23.7611 20.0255 23.761C20.258 23.7609 20.4809 23.6684 20.6451 23.5039C20.8094 23.3395 20.9016 23.1165 20.9015 22.884C20.9014 22.6515 20.8089 22.4286 20.6444 22.2644C20.48 22.1001 20.257 22.0079 20.0245 22.008V22.008ZM24.0735 19.578C23.8484 19.5888 23.6361 19.6857 23.4806 19.8489C23.3251 20.012 23.2384 20.2287 23.2384 20.454C23.2384 20.6793 23.3251 20.896 23.4806 21.0591C23.6361 21.2223 23.8484 21.3192 24.0735 21.33C24.2986 21.3192 24.5109 21.2223 24.6664 21.0591C24.8219 20.896 24.9086 20.6793 24.9086 20.454C24.9086 20.2287 24.8219 20.012 24.6664 19.8489C24.5109 19.6857 24.2986 19.5888 24.0735 19.578V19.578ZM15.9755 24.438C15.7522 24.4511 15.5423 24.549 15.3888 24.7118C15.2353 24.8745 15.1498 25.0898 15.1498 25.3135C15.1498 25.5372 15.2353 25.7525 15.3888 25.9152C15.5423 26.078 15.7522 26.1759 15.9755 26.189C16.2076 26.1887 16.4301 26.0965 16.5943 25.9325C16.7585 25.7685 16.851 25.5461 16.8515 25.314C16.8512 25.0818 16.7589 24.8591 16.5946 24.6949C16.4304 24.5306 16.2077 24.4383 15.9755 24.438V24.438ZM15.9755 19.578C15.8603 19.5781 15.7463 19.6008 15.6399 19.6449C15.5335 19.6891 15.4369 19.7537 15.3555 19.8352C15.2741 19.9167 15.2096 20.0134 15.1656 20.1198C15.1216 20.2263 15.0989 20.3403 15.099 20.4555C15.0991 20.5707 15.1218 20.6847 15.1659 20.7911C15.2101 20.8975 15.2747 20.9941 15.3562 21.0755C15.4377 21.1569 15.5344 21.2214 15.6408 21.2654C15.7473 21.3094 15.8613 21.3321 15.9765 21.332C16.2091 21.3319 16.4321 21.2393 16.5965 21.0748C16.7609 20.9102 16.8531 20.6871 16.853 20.4545C16.8529 20.2219 16.7603 19.9989 16.5958 19.8345C16.4312 19.6701 16.2081 19.5779 15.9755 19.578V19.578ZM11.9255 12.289C11.7022 12.3021 11.4923 12.4 11.3388 12.5628C11.1853 12.7255 11.0998 12.9408 11.0998 13.1645C11.0998 13.3882 11.1853 13.6035 11.3388 13.7662C11.4923 13.929 11.7022 14.0269 11.9255 14.04C12.1473 14.025 12.3552 13.9263 12.507 13.7638C12.6588 13.6014 12.7433 13.3873 12.7433 13.165C12.7433 12.9427 12.6588 12.7286 12.507 12.5662C12.3552 12.4037 12.1473 12.305 11.9255 12.29V12.289ZM11.9255 22.008C11.7022 22.0211 11.4923 22.119 11.3388 22.2818C11.1853 22.4445 11.0998 22.6598 11.0998 22.8835C11.0998 23.1072 11.1853 23.3225 11.3388 23.4852C11.4923 23.648 11.7022 23.7459 11.9255 23.759C12.1488 23.7459 12.3587 23.648 12.5122 23.4852C12.6657 23.3225 12.7512 23.1072 12.7512 22.8835C12.7512 22.6598 12.6657 22.4445 12.5122 22.2818C12.3587 22.119 12.1488 22.0211 11.9255 22.008" fill="white"/>
</g>
<defs>
<clipPath id="clip0_0_1437">
<rect width="32" height="32" fill="white"/>
</clipPath>
</defs>
</svg>
