<svg width="32" height="32" viewBox="0 0 32 32" fill="none" xmlns="http://www.w3.org/2000/svg">
<g clip-path="url(#clip0_0_1433)">
<path d="M16 32C24.8366 32 32 24.8366 32 16C32 7.16344 24.8366 0 16 0C7.16344 0 0 7.16344 0 16C0 24.8366 7.16344 32 16 32Z" fill="#F04086"/>
<path d="M23.0911 16.2706C22.461 15.5745 21.555 15.1425 20.3709 14.9745V14.9495C21.408 14.7815 22.223 14.3565 22.777 13.6764C23.3393 13.002 23.6447 12.1503 23.6391 11.2723C23.6391 9.81118 23.1691 8.81811 22.195 8.03706C21.221 7.25702 19.7589 7 17.7777 7H10.2963V13.9634H6V16.6306H17.7277C18.6508 16.6306 19.3438 16.6956 19.8019 17.0646C20.2599 17.4337 20.4939 17.9107 20.4939 18.6157C20.4939 19.3208 20.2629 19.9228 19.8019 20.3008C19.3418 20.6779 18.6478 20.9269 17.7277 20.9269H13.7035V18.8527H10.2963V23.594H18.0238C19.9889 23.594 21.491 23.081 22.533 22.284C23.5741 21.4869 24.0631 20.3098 24.0631 18.8647C24.0761 17.9087 23.7291 16.9827 23.0911 16.2706V16.2706ZM17.2977 13.9564H13.7035V9.66017H17.2977C19.1458 9.66017 20.0679 10.3812 20.0679 11.8083C20.0679 13.2354 19.1458 13.9564 17.2977 13.9564Z" fill="white"/>
</g>
<defs>
<clipPath id="clip0_0_1433">
<rect width="32" height="32" fill="white"/>
</clipPath>
</defs>
</svg>
