<svg width="32" height="32" viewBox="0 0 32 32" fill="none" xmlns="http://www.w3.org/2000/svg">
<g clip-path="url(#clip0_0_1429)">
<path d="M16 32C24.8366 32 32 24.8366 32 16C32 7.16344 24.8366 0 16 0C7.16344 0 0 7.16344 0 16C0 24.8366 7.16344 32 16 32Z" fill="#2C76B7"/>
<path d="M14.122 20.826L12.616 19.978C12.236 20.493 11.618 20.828 10.918 20.828C10.218 20.828 9.598 20.492 9.219 19.975L8.73 20.252C8.77362 20.3565 8.79605 20.4687 8.796 20.582C8.79456 20.6985 8.7702 20.8135 8.72429 20.9206C8.67838 21.0277 8.61183 21.1247 8.52845 21.206C8.44506 21.2873 8.34646 21.3515 8.23829 21.3947C8.13012 21.4379 8.01448 21.4595 7.898 21.458C7.402 21.458 7 21.066 7 20.582C7 20.098 7.402 19.705 7.898 19.705C8.187 19.705 8.443 19.838 8.608 20.045L9.088 19.773C8.91794 19.473 8.82869 19.1339 8.829 18.789C8.829 17.689 9.721 16.793 10.837 16.751V15.197C9.75 15.155 8.883 14.282 8.883 13.211C8.883 12.871 8.971 12.549 9.126 12.269L8.616 11.985C8.53113 12.0944 8.42224 12.1829 8.29775 12.2436C8.17326 12.3043 8.03649 12.3356 7.898 12.335C7.402 12.335 7 11.942 7 11.458C7 10.974 7.402 10.582 7.898 10.582C8.394 10.582 8.796 10.974 8.796 11.458C8.796 11.57 8.774 11.678 8.735 11.776L9.255 12.066C9.623 11.556 10.231 11.224 10.918 11.224C11.62 11.224 12.238 11.57 12.604 12.097L14.137 11.248C13.997 10.976 13.917 10.668 13.917 10.343C13.917 9.271 14.775 8.395 15.857 8.333V7.745C15.6445 7.7186 15.4488 7.61595 15.3062 7.45612C15.1637 7.29629 15.084 7.09015 15.082 6.876C15.082 6.392 15.484 6 15.98 6C16.476 6 16.878 6.392 16.878 6.876C16.878 7.32 16.54 7.686 16.102 7.745V8.333C17.184 8.395 18.042 9.271 18.042 10.343C18.042 10.669 17.962 10.978 17.821 11.251L19.351 12.112C19.539 11.8313 19.7935 11.6015 20.0919 11.4431C20.3902 11.2846 20.7232 11.2025 21.061 11.204C21.77 11.204 22.393 11.557 22.758 12.093L23.263 11.772C23.2238 11.672 23.2038 11.5654 23.204 11.458C23.204 10.974 23.606 10.582 24.102 10.582C24.598 10.582 25 10.974 25 11.458C25 11.942 24.598 12.335 24.102 12.335C23.9629 12.3355 23.8256 12.3039 23.7007 12.2427C23.5758 12.1815 23.4668 12.0923 23.382 11.982L22.882 12.3C23.019 12.568 23.097 12.87 23.097 13.191C23.097 14.282 22.197 15.168 21.082 15.178V16.796C22.212 16.806 23.124 17.704 23.124 18.809C23.124 19.144 23.04 19.46 22.891 19.739L23.405 20.029C23.4903 19.9271 23.5969 19.8453 23.7174 19.7893C23.8379 19.7333 23.9692 19.7045 24.102 19.705C24.598 19.705 25 20.098 25 20.582C25 21.066 24.598 21.458 24.102 21.458C23.9855 21.4595 23.8699 21.4379 23.7617 21.3947C23.6535 21.3515 23.5549 21.2873 23.4716 21.206C23.3882 21.1247 23.3216 21.0277 23.2757 20.9206C23.2298 20.8135 23.2054 20.6985 23.204 20.582C23.2037 20.4617 23.2289 20.3428 23.278 20.233L22.765 19.943C22.394 20.473 21.769 20.822 21.061 20.822C20.36 20.822 19.741 20.48 19.368 19.958L17.834 20.821C18.001 21.116 18.096 21.456 18.096 21.817C18.096 22.904 17.236 23.795 16.143 23.877V24.261C16.3473 24.2957 16.5329 24.4012 16.6673 24.559C16.8016 24.7168 16.8762 24.9168 16.878 25.124C16.8766 25.2405 16.8522 25.3555 16.8063 25.4626C16.7604 25.5697 16.6938 25.6667 16.6104 25.748C16.5271 25.8293 16.4285 25.8935 16.3203 25.9367C16.2121 25.9799 16.0965 26.0015 15.98 26C15.8635 26.0015 15.7479 25.9799 15.6397 25.9367C15.5315 25.8935 15.4329 25.8293 15.3496 25.748C15.2662 25.6667 15.1996 25.5697 15.1537 25.4626C15.1078 25.3555 15.0834 25.2405 15.082 25.124C15.082 24.666 15.44 24.291 15.898 24.251V23.881C14.768 23.839 13.864 22.931 13.864 21.817C13.864 21.457 13.957 21.12 14.122 20.826V20.826ZM14.252 20.623C14.4507 20.3515 14.7109 20.131 15.0112 19.9794C15.3116 19.8278 15.6436 19.7496 15.98 19.751C16.69 19.751 17.32 20.094 17.704 20.619L19.24 19.754C19.0816 19.4642 18.9987 19.1392 18.999 18.809C18.999 17.771 19.803 16.917 20.837 16.807V15.167C19.818 15.057 19.026 14.215 19.026 13.191C19.026 12.879 19.099 12.583 19.231 12.321L17.697 11.457C17.327 11.999 16.697 12.356 15.98 12.356C15.262 12.356 14.63 11.998 14.26 11.456L12.73 12.303C12.873 12.575 12.954 12.883 12.954 13.211C12.954 14.255 12.13 15.111 11.082 15.191V16.756C12.159 16.836 13.008 17.716 13.008 18.789C13.008 19.147 12.913 19.483 12.747 19.776L14.252 20.623ZM10.918 19.857C11.523 19.857 12.013 19.379 12.013 18.789C12.013 18.199 11.523 17.721 10.918 17.721C10.314 17.721 9.824 18.199 9.824 18.789C9.824 19.379 10.314 19.857 10.918 19.857ZM10.918 14.252C11.508 14.252 11.985 13.786 11.985 13.212C11.985 12.638 11.507 12.17 10.918 12.17C10.329 12.17 9.852 12.636 9.852 13.211C9.852 13.786 10.329 14.252 10.918 14.252V14.252ZM15.98 11.397C16.576 11.397 17.06 10.925 17.06 10.343C17.06 9.76 16.576 9.288 15.98 9.288C15.383 9.288 14.9 9.76 14.9 10.343C14.9 10.925 15.383 11.397 15.98 11.397V11.397ZM21.061 14.232C21.651 14.232 22.128 13.766 22.128 13.192C22.128 12.616 21.65 12.15 21.061 12.15C20.472 12.15 19.995 12.616 19.995 13.191C19.995 13.766 20.472 14.232 21.061 14.232V14.232ZM21.061 19.863C21.658 19.863 22.141 19.391 22.141 18.809C22.141 18.226 21.658 17.754 21.061 17.754C20.465 17.754 19.981 18.226 19.981 18.809C19.981 19.391 20.465 19.863 21.061 19.863ZM15.98 22.9C16.592 22.9 17.088 22.415 17.088 21.818C17.088 21.221 16.592 20.736 15.98 20.736C15.367 20.736 14.871 21.22 14.871 21.818C14.871 22.416 15.367 22.9 15.98 22.9ZM15.98 18.92C14.328 18.92 12.989 17.613 12.989 16.001C12.989 14.389 14.328 13.081 15.979 13.081C17.632 13.081 18.971 14.389 18.971 16.001C18.971 17.613 17.631 18.921 15.98 18.921V18.92ZM15.98 17.145C16.627 17.145 17.152 16.633 17.152 16.001C17.152 15.369 16.627 14.857 15.98 14.857C15.332 14.857 14.807 15.369 14.807 16.001C14.807 16.633 15.332 17.145 15.98 17.145Z" fill="white"/>
</g>
<defs>
<clipPath id="clip0_0_1429">
<rect width="32" height="32" fill="white"/>
</clipPath>
</defs>
</svg>
