<svg width="32" height="32" viewBox="0 0 32 32" fill="none" xmlns="http://www.w3.org/2000/svg">
<g clip-path="url(#clip0_0_1425)">
<path d="M16 32C24.8366 32 32 24.8366 32 16C32 7.16344 24.8366 0 16 0C7.16344 0 0 7.16344 0 16C0 24.8366 7.16344 32 16 32Z" fill="#404040"/>
<path d="M16 27C9.925 27 5 22.075 5 16C5 9.925 9.925 5 16 5C22.075 5 27 9.925 27 16C27 22.075 22.075 27 16 27ZM16 25.898C21.466 25.898 25.898 21.466 25.898 16C25.898 10.534 21.466 6.102 16 6.102C10.534 6.102 6.102 10.534 6.102 16C6.102 21.466 10.534 25.898 16 25.898ZM22.043 12.12C22.208 15.058 19.493 15.834 19.493 15.834C22.596 16.277 22.43 18.938 22.43 18.938C22.43 23.26 17.608 23.429 17.608 23.429H10.845V8.572H16.943C22.043 8.794 22.043 12.12 22.043 12.12ZM14.337 11.233V14.835H16.777C16.777 14.835 18.495 14.78 18.605 13.394V12.507C18.605 12.507 18.605 11.344 16.942 11.233H14.337ZM18.937 19.383V18.495C18.937 18.495 18.937 17.33 17.275 17.219H14.336V20.824H17.109C17.109 20.824 18.827 20.769 18.938 19.382L18.937 19.383Z" fill="white"/>
</g>
<defs>
<clipPath id="clip0_0_1425">
<rect width="32" height="32" fill="white"/>
</clipPath>
</defs>
</svg>
