<svg width="32" height="32" viewBox="0 0 32 32" fill="none" xmlns="http://www.w3.org/2000/svg">
<g clip-path="url(#clip0_0_1421)">
<path d="M16 32C24.8366 32 32 24.8366 32 16C32 7.16344 24.8366 0 16 0C7.16344 0 0 7.16344 0 16C0 24.8366 7.16344 32 16 32Z" fill="#E54C40"/>
<path d="M9.01759 8.36C8.99759 8.213 9.13559 8.125 9.21459 8.025C10.2087 7.04142 11.198 6.05308 12.1826 5.06C12.1686 7.776 12.1906 10.492 12.1716 13.208C14.2206 12.078 16.8016 12.028 18.9076 13.04C18.9056 13.215 18.9056 13.389 18.9056 13.565C17.2246 12.661 15.1576 12.545 13.3646 13.175C11.3016 13.885 9.65759 15.632 9.01459 17.711C9.01759 14.593 9.01359 11.477 9.01759 8.36V8.36ZM22.4076 20.022C22.345 21.6751 21.6687 23.2456 20.5106 24.427C19.4217 25.5462 17.9759 26.2497 16.4232 26.4159C14.8706 26.582 13.3087 26.2004 12.0076 25.337C10.5276 24.363 9.45759 22.783 9.12959 21.041C8.84459 19.661 9.03759 18.196 9.63059 16.921C10.3044 15.487 11.4613 14.3358 12.8986 13.669C14.7826 12.781 17.0786 12.856 18.9026 13.861C18.8916 15.355 18.8926 16.849 18.9036 18.343C18.6056 17.726 18.1636 17.174 17.5786 16.808C16.4216 16.061 14.8136 16.096 13.6966 16.906C12.4666 17.752 11.9116 19.43 12.4006 20.841C12.8376 22.232 14.2206 23.253 15.6826 23.237C17.0886 23.272 18.4456 22.353 18.9486 21.042C19.2686 20.299 19.1886 19.478 19.1956 18.692C19.2016 14.637 19.1856 10.582 19.1876 6.528C19.1886 6.018 19.1976 5.508 19.1676 5C20.2576 6.074 21.3376 7.161 22.4176 8.246C22.3956 12.171 22.4176 16.096 22.4076 20.023V20.022Z" fill="white"/>
</g>
<defs>
<clipPath id="clip0_0_1421">
<rect width="32" height="32" fill="white"/>
</clipPath>
</defs>
</svg>
