<svg width="32" height="32" viewBox="0 0 32 32" fill="none" xmlns="http://www.w3.org/2000/svg">
<g clip-path="url(#clip0_0_1417)">
<path d="M16 32C24.8366 32 32 24.8366 32 16C32 7.16344 24.8366 0 16 0C7.16344 0 0 7.16344 0 16C0 24.8366 7.16344 32 16 32Z" fill="#0B76FF"/>
<path d="M27.16 12.65V10.45L20 14.62L15.58 7V12L17.83 15.9L16.92 16.44L15.58 14.08L14.14 16.64L13.14 16.23L15.58 12V7L10.74 15.24L4 12.45V15L10 16.48L6.2 23H15.58V20.31H10.79L12.58 17.17L13.66 17.44L12.58 19.34H18.58L17.68 17.75L18.87 17.66L20.4 20.31H15.58V23H25L21.76 17.47L27.2 17.07V14.86L21.08 16.37L27.19 14.8V12.8L20.56 15.49L27.16 12.65V12.65ZM18.46 17L17.38 17.27L18.44 17H18.46ZM18.12 16.4L17.12 16.8L18.12 16.39V16.4Z" fill="white"/>
</g>
<defs>
<clipPath id="clip0_0_1417">
<rect width="32" height="32" fill="white"/>
</clipPath>
</defs>
</svg>
