<svg width="32" height="32" viewBox="0 0 32 32" fill="none" xmlns="http://www.w3.org/2000/svg">
<g clip-path="url(#clip0_0_1413)">
<path d="M16 32C24.8366 32 32 24.8366 32 16C32 7.16344 24.8366 0 16 0C7.16344 0 0 7.16344 0 16C0 24.8366 7.16344 32 16 32Z" fill="#13A0F6"/>
<path fill-rule="evenodd" clip-rule="evenodd" d="M8.57599 11.6891C8.18456 11.4837 7.85678 11.1752 7.62816 10.797C7.39953 10.4187 7.27878 9.98505 7.27899 9.54305C7.10807 9.21897 7.0131 8.86026 7.00126 8.49407C6.98942 8.12787 7.06103 7.76378 7.21065 7.42934C7.36028 7.09489 7.58402 6.79886 7.86493 6.56364C8.14584 6.32842 8.47657 6.16017 8.83209 6.07162C9.18762 5.98307 9.55863 5.97654 9.91705 6.05253C10.2755 6.12851 10.6119 6.28502 10.9009 6.51021C11.1899 6.7354 11.424 7.02338 11.5853 7.35235C11.7466 7.68132 11.8309 8.04266 11.832 8.40905C13.1974 7.61055 14.7512 7.19078 16.333 7.19305C21.273 7.19305 25.279 11.2071 25.279 16.1571C25.279 21.107 21.274 25.1211 16.333 25.1211C11.392 25.1211 7.38699 21.1081 7.38699 16.1571C7.38469 14.5892 7.79473 13.0484 8.57599 11.6891V11.6891ZM16.333 20.567C18.763 20.567 20.733 18.5931 20.733 16.1571C20.733 13.7211 18.763 11.7471 16.333 11.7471C13.903 11.7471 11.933 13.7221 11.933 16.1571C11.933 18.5921 13.903 20.567 16.333 20.567Z" fill="white"/>
</g>
<defs>
<clipPath id="clip0_0_1413">
<rect width="32" height="32" fill="white"/>
</clipPath>
</defs>
</svg>
