<svg width="32" height="32" viewBox="0 0 32 32" fill="none" xmlns="http://www.w3.org/2000/svg">
<g clip-path="url(#clip0_0_1409)">
<path d="M16 32C24.8366 32 32 24.8366 32 16C32 7.16344 24.8366 0 16 0C7.16344 0 0 7.16344 0 16C0 24.8366 7.16344 32 16 32Z" fill="black"/>
<path d="M16.941 24.577C16.993 24.699 17.021 24.832 17.021 24.972C17.021 25.54 16.553 26 15.976 26C15.399 26 14.931 25.54 14.931 24.972C14.931 24.836 14.958 24.706 15.007 24.587L8.797 21.06C8.6989 21.1598 8.58185 21.239 8.4527 21.2929C8.32356 21.3469 8.18495 21.3744 8.045 21.374C7.468 21.374 7 20.914 7 20.346C7 19.866 7.333 19.464 7.784 19.35V12.323C7.56115 12.2678 7.36306 12.1399 7.22107 11.9595C7.07907 11.7792 7.00128 11.5566 7 11.327C7 10.759 7.468 10.299 8.045 10.299C8.391 10.299 8.698 10.465 8.889 10.721L14.961 7.271C14.9408 7.19158 14.9307 7.10994 14.931 7.028C14.931 6.46 15.4 6 15.976 6C16.132 5.99919 16.2862 6.03359 16.427 6.10064C16.5679 6.16768 16.6918 6.26565 16.7896 6.38723C16.8873 6.50882 16.9564 6.65089 16.9916 6.80287C17.0268 6.95485 17.0273 7.11281 16.993 7.265L23.101 10.735C23.291 10.471 23.602 10.299 23.955 10.299C24.532 10.299 25 10.759 25 11.327C25 11.807 24.665 12.211 24.213 12.324L24.195 19.344C24.656 19.451 25 19.859 25 20.346C25 20.914 24.532 21.374 23.955 21.374C23.8091 21.3743 23.6648 21.3443 23.5312 21.2857C23.3976 21.2272 23.2776 21.1415 23.179 21.034L16.941 24.577ZM16.662 24.197L22.949 20.625C22.8902 20.4207 22.8972 20.2031 22.969 20.003L16.904 16.103C16.7878 16.2259 16.6476 16.3238 16.4921 16.3905C16.3367 16.4572 16.1692 16.4914 16 16.491C15.8114 16.4915 15.6253 16.4489 15.4556 16.3666C15.286 16.2843 15.1373 16.1644 15.021 16.016L9.044 20.043C9.10664 20.2438 9.10525 20.4591 9.04 20.659L15.282 24.204C15.474 24.0359 15.7208 23.9434 15.976 23.944C16.239 23.944 16.479 24.039 16.662 24.196V24.197ZM16.781 7.684C16.6388 7.85184 16.4474 7.97077 16.234 8.024L16.218 14.08C16.5011 14.128 16.7582 14.2742 16.9442 14.4929C17.1302 14.7116 17.2332 14.9889 17.235 15.276C17.235 15.427 17.207 15.573 17.155 15.706L23.225 19.61C23.36 19.48 23.53 19.387 23.72 19.344L23.738 12.333C23.4796 12.2803 23.2512 12.1308 23.0995 11.9152C22.9478 11.6995 22.8843 11.434 22.922 11.173L16.781 7.684ZM15.176 7.689L9.075 11.154C9.11832 11.4181 9.05747 11.6887 8.90526 11.9088C8.75305 12.1289 8.52137 12.2813 8.259 12.334V19.339C8.471 19.383 8.659 19.489 8.803 19.639L14.808 15.594C14.7657 15.4336 14.7566 15.2662 14.7813 15.1021C14.8059 14.938 14.8637 14.7807 14.9513 14.6397C15.0388 14.4987 15.1541 14.3771 15.2903 14.2822C15.4264 14.1874 15.5804 14.1213 15.743 14.088L15.759 8.034C15.5318 7.98678 15.3267 7.86543 15.176 7.689V7.689Z" fill="white"/>
</g>
<defs>
<clipPath id="clip0_0_1409">
<rect width="32" height="32" fill="white"/>
</clipPath>
</defs>
</svg>
