<svg width="32" height="32" viewBox="0 0 32 32" fill="none" xmlns="http://www.w3.org/2000/svg">
<g clip-path="url(#clip0_0_1401)">
<path d="M16 32C24.8366 32 32 24.8366 32 16C32 7.16344 24.8366 0 16 0C7.16344 0 0 7.16344 0 16C0 24.8366 7.16344 32 16 32Z" fill="#181818"/>
<path d="M23.6 11.13C23.6382 11.9292 23.4233 12.7202 22.986 13.3902C22.5486 14.0603 21.911 14.5753 21.164 14.862C21.164 14.862 22.176 13.862 22.129 11.299C22.081 8.736 20.199 7.469 20.199 7.469C20.199 7.469 23.553 8.216 23.599 11.129L23.6 11.13ZM12.436 24.819L9 24.988V24.667C9 24.667 11.103 24.45 11.103 20.677V11.037C11.103 7.843 9 7.29 9 7.29V7L12.436 7.168V24.819ZM17.928 24.999C16.433 25.012 13.66 24.803 13.66 24.803V7.193C15.488 7.168 16.127 6.916 17.633 7.133C19.14 7.349 20.434 8.854 20.787 10.359C21.14 11.864 20.764 13.297 20.281 14.079C19.798 14.861 18.74 15.404 18.74 15.404C18.74 15.404 20.34 15.958 20.905 16.439C21.47 16.921 22.565 18.233 22.141 21.087C21.717 23.941 19.422 24.987 17.928 24.999V24.999ZM21.899 24.349C21.899 24.349 23.529 22.929 23.457 20.048C23.385 17.167 21.899 15.813 21.899 15.813C21.899 15.813 24.965 16.583 24.999 20.015C25.035 23.446 21.899 24.35 21.899 24.35V24.349ZM18.799 14.015C19.897 12.554 19.552 9.805 18.222 8.865C16.892 7.925 15.492 8.395 15.222 8.66C14.95 8.925 14.962 15.09 14.962 15.09C14.962 15.09 17.7 15.476 18.798 14.015H18.799ZM19.002 16.64C17.974 16.182 14.962 16.302 14.962 16.302C14.962 16.302 14.915 17.859 15.025 20.773C15.135 23.687 16.108 23.671 17.12 23.711C18.132 23.751 20.062 23.679 20.697 21.166C21.333 18.654 20.03 17.097 19.002 16.64V16.64Z" fill="white"/>
</g>
<defs>
<clipPath id="clip0_0_1401">
<rect width="32" height="32" fill="white"/>
</clipPath>
</defs>
</svg>
