<svg width="32" height="32" viewBox="0 0 32 32" fill="none" xmlns="http://www.w3.org/2000/svg">
<g clip-path="url(#clip0_0_1391)">
<path d="M16 32C24.8366 32 32 24.8366 32 16C32 7.16344 24.8366 0 16 0C7.16344 0 0 7.16344 0 16C0 24.8366 7.16344 32 16 32Z" fill="#18578C"/>
<path d="M12.133 20.336C12.795 21.011 12.795 22.105 12.133 22.78C11.471 23.455 10.397 23.457 9.733 22.783C9.413 22.459 9.233 22.018 9.233 21.558C9.233 21.098 9.413 20.658 9.733 20.333C9.88934 20.1731 10.0761 20.046 10.2823 19.9594C10.4885 19.8727 10.71 19.8283 10.9336 19.8285C11.1573 19.8288 11.3786 19.8739 11.5846 19.961C11.7906 20.0482 11.9771 20.1757 12.133 20.336V20.336ZM23.196 8.726C23.5085 8.86004 23.7746 9.08319 23.9609 9.36758C24.1473 9.65197 24.2458 9.98498 24.244 10.325C24.244 11.025 23.83 11.655 23.196 11.923C22.562 12.191 21.831 12.043 21.346 11.548C21.0262 11.2213 20.8474 10.7822 20.848 10.325C20.848 9.865 21.027 9.425 21.346 9.102C21.5809 8.86078 21.8831 8.69598 22.2131 8.62908C22.5432 8.56219 22.8857 8.59631 23.196 8.727V8.726ZM11.91 19.003L13.547 17.327C13.7073 17.7375 13.949 18.1113 14.2577 18.4258C14.5664 18.7403 14.9356 18.9891 15.343 19.157L13.702 20.828L11.91 19.003ZM21.607 12.866L19.966 14.538C19.8068 14.1274 19.5651 13.7537 19.256 13.44C18.9488 13.1267 18.581 12.8793 18.175 12.713L19.815 11.041L21.607 12.866ZM20.92 20.808C21.0456 20.4942 21.262 20.225 21.5416 20.0349C21.8211 19.8448 22.151 19.7425 22.489 19.741C23.176 19.741 23.795 20.162 24.058 20.808C24.32 21.455 24.175 22.198 23.69 22.693C23.5338 22.8534 23.347 22.981 23.1408 23.0683C22.9345 23.1555 22.7129 23.2006 22.489 23.201C22.2652 23.2005 22.0438 23.1553 21.8377 23.0681C21.6317 22.9809 21.4451 22.8533 21.289 22.693C21.0507 22.4488 20.8889 22.1404 20.8234 21.8055C20.7578 21.4707 20.7914 21.124 20.92 20.808V20.808ZM9.535 9.51C9.66046 9.19599 9.87681 8.92658 10.1563 8.73631C10.4359 8.54604 10.7659 8.44356 11.104 8.442C11.791 8.442 12.41 8.863 12.673 9.51C12.935 10.156 12.79 10.9 12.305 11.395C12.1487 11.5553 11.9619 11.6827 11.7557 11.7697C11.5494 11.8568 11.3279 11.9018 11.104 11.902C10.8803 11.9016 10.6589 11.8566 10.4529 11.7695C10.2468 11.6825 10.0602 11.5551 9.904 11.395C9.66573 11.1508 9.5039 10.8424 9.43835 10.5075C9.3728 10.1727 9.40639 9.82602 9.535 9.51ZM19.68 20.754L18.035 19.087C18.4424 18.9191 18.8116 18.6703 19.1203 18.3558C19.429 18.0413 19.6707 17.6675 19.831 17.257L21.471 18.929L19.68 20.754ZM13.839 10.944L15.479 12.617C15.074 12.7812 14.7073 13.0273 14.402 13.34C14.094 13.654 13.851 14.03 13.688 14.442L12.048 12.77L13.839 10.944ZM16.781 9.463C15.842 9.463 15.081 8.688 15.081 7.731C15.081 6.774 15.842 6 16.781 6C17.231 6 17.664 6.182 17.983 6.507C18.302 6.832 18.481 7.272 18.48 7.731C18.48 8.688 17.72 9.463 16.78 9.463H16.781ZM18.481 24.269C18.481 25.225 17.719 26 16.781 26C15.843 26 15.081 25.225 15.081 24.269C15.081 23.313 15.842 22.537 16.781 22.537C17.231 22.537 17.664 22.719 17.983 23.044C18.302 23.369 18.481 23.809 18.48 24.269H18.481ZM17.398 10.369V12.513C17.0441 12.4505 16.6819 12.4505 16.328 12.513V10.369H17.398ZM17.398 19.581V21.726H16.328V19.58C16.682 19.643 17.044 19.643 17.398 19.58V19.581ZM22.73 16.189C22.6012 15.8727 22.5675 15.5257 22.6331 15.1905C22.6986 14.8553 22.8606 14.5465 23.099 14.302C23.3341 14.0604 23.6366 13.8954 23.967 13.8283C24.2974 13.7612 24.6403 13.7953 24.951 13.926C25.586 14.194 26 14.826 26 15.526C26 15.986 25.821 16.426 25.503 16.751C25.3066 16.9526 25.0627 17.1017 24.7937 17.1847C24.5247 17.2677 24.2392 17.2819 23.9633 17.226C23.6874 17.17 23.4299 17.0458 23.2145 16.8647C22.999 16.6835 22.8324 16.4512 22.73 16.189ZM7 15.82C7 14.864 7.76 14.089 8.7 14.089C9.638 14.089 10.399 14.863 10.4 15.819C10.4 16.279 10.22 16.719 9.902 17.044C9.74547 17.2043 9.55853 17.3316 9.35212 17.4187C9.14572 17.5058 8.92401 17.5507 8.7 17.551C7.761 17.551 7 16.776 7 15.821V15.82ZM22.083 16.365L19.979 16.363C20.0404 16.0023 20.0404 15.6337 19.979 15.273H22.083V16.365ZM13.44 16.365H11.335V15.275H13.44C13.3786 15.6357 13.3786 16.0043 13.44 16.365ZM16.73 18.402C15.399 18.402 14.32 17.303 14.32 15.948C14.32 14.593 15.399 13.493 16.73 13.493C18.06 13.493 19.139 14.593 19.14 15.948C19.14 17.303 18.06 18.402 16.73 18.402Z" fill="white"/>
</g>
<defs>
<clipPath id="clip0_0_1391">
<rect width="32" height="32" fill="white"/>
</clipPath>
</defs>
</svg>
