<svg width="32" height="32" viewBox="0 0 32 32" fill="none" xmlns="http://www.w3.org/2000/svg">
<g clip-path="url(#clip0_0_1383)">
<path d="M16 32C24.8366 32 32 24.8366 32 16C32 7.16344 24.8366 0 16 0C7.16344 0 0 7.16344 0 16C0 24.8366 7.16344 32 16 32Z" fill="#000D2B"/>
<path d="M15.736 6L11.218 8.647L15.736 11.295L20.339 8.647L15.736 6ZM16.479 20.134V25.429L22.616 21.928V16.632L16.479 20.134V20.134ZM21.082 10.312V15.608L16.478 18.256V12.96L21.082 10.312ZM10 15.608L14.604 18.256V12.96L10 10.312V15.608ZM10 22.782L14.604 25.429V20.134L10 17.487V22.781V22.782Z" fill="white"/>
</g>
<defs>
<clipPath id="clip0_0_1383">
<rect width="32" height="32" fill="white"/>
</clipPath>
</defs>
</svg>
