<svg width="32" height="32" viewBox="0 0 32 32" fill="none" xmlns="http://www.w3.org/2000/svg">
<g clip-path="url(#clip0_0_1379)">
<path d="M16 32C24.8366 32 32 24.8366 32 16C32 7.16344 24.8366 0 16 0C7.16344 0 0 7.16344 0 16C0 24.8366 7.16344 32 16 32Z" fill="#FD7A3D"/>
<path d="M25.195 19.4C25.965 19.82 26.222 20.786 25.708 21.542C25.281 22.298 24.298 22.55 23.528 22.13C23.2961 21.9963 23.1007 21.8076 22.9589 21.5805C22.8171 21.3535 22.7334 21.0951 22.715 20.828H18.78L16.898 24.019C16.898 24.061 16.855 24.103 16.813 24.145C17.24 24.397 17.54 24.901 17.54 25.447C17.54 26.287 16.813 27 15.957 27C15.102 27 14.375 26.328 14.375 25.447C14.375 24.901 14.675 24.439 15.102 24.145C15.102 24.103 15.059 24.061 15.016 24.019L13.135 20.829H9.20002C9.15702 21.374 8.85802 21.836 8.38702 22.129C7.61702 22.549 6.63402 22.298 6.20602 21.542C5.77802 20.786 6.03502 19.821 6.80502 19.401C7.31802 19.107 7.87402 19.107 8.34502 19.359C8.38702 19.317 8.38702 19.233 8.43002 19.191L10.355 16L8.47302 12.81C8.42773 12.7638 8.39771 12.7048 8.38702 12.641C7.91702 12.851 7.31802 12.893 6.84702 12.599C6.66582 12.499 6.50635 12.364 6.37792 12.2017C6.24948 12.0395 6.15466 11.8532 6.09899 11.6539C6.04332 11.4546 6.02792 11.2462 6.05368 11.0409C6.07944 10.8355 6.14585 10.6374 6.24902 10.458C6.67602 9.702 7.66002 9.45 8.43002 9.87C8.94302 10.164 9.20002 10.668 9.24302 11.172H13.22L15.102 7.981C15.102 7.939 15.145 7.897 15.187 7.855C14.9648 7.71801 14.7814 7.52646 14.6542 7.29857C14.5269 7.07067 14.4601 6.81401 14.46 6.553C14.46 5.713 15.187 5 16.043 5C16.898 5 17.625 5.672 17.625 6.553C17.625 7.099 17.325 7.561 16.898 7.855C16.898 7.897 16.941 7.939 16.984 7.981L18.865 11.171H22.8C22.843 10.626 23.142 10.164 23.613 9.871C24.383 9.451 25.366 9.702 25.794 10.458C25.8972 10.6374 25.9635 10.8356 25.9892 11.041C26.0149 11.2464 25.9994 11.4548 25.9436 11.6541C25.8879 11.8535 25.7929 12.0397 25.6644 12.2019C25.5359 12.3641 25.3763 12.4991 25.195 12.599C24.682 12.893 24.126 12.893 23.655 12.641C23.613 12.683 23.613 12.767 23.57 12.809L21.688 16L23.57 19.19C23.6153 19.2362 23.6453 19.2952 23.656 19.359C24.126 19.149 24.725 19.107 25.196 19.401L25.195 19.4ZM18.053 14.95C18.053 14.069 17.326 13.355 16.428 13.355H14.375C14.3249 13.3543 14.2751 13.3636 14.2285 13.3823C14.182 13.401 14.1396 13.4287 14.1038 13.4638C14.068 13.499 14.0395 13.5408 14.02 13.587C14.0005 13.6332 13.9903 13.6828 13.99 13.733V18.267C13.99 18.477 14.161 18.645 14.375 18.645H16.428C17.326 18.645 18.053 17.931 18.053 17.05C18.053 16.672 17.925 16.294 17.668 16.042C17.882 15.706 18.053 15.37 18.053 14.95V14.95Z" fill="white"/>
</g>
<defs>
<clipPath id="clip0_0_1379">
<rect width="32" height="32" fill="white"/>
</clipPath>
</defs>
</svg>
