<svg width="32" height="32" viewBox="0 0 32 32" fill="none" xmlns="http://www.w3.org/2000/svg">
<g clip-path="url(#clip0_0_1375)">
<path d="M16 32C24.8366 32 32 24.8366 32 16C32 7.16344 24.8366 0 16 0C7.16344 0 0 7.16344 0 16C0 24.8366 7.16344 32 16 32Z" fill="#00B4F4"/>
<path d="M7.773 22.98V23.136H6.163V20.183L6.113 20.346L4.573 19.876L5.443 17.03L5.335 17.189L4 16.289L5.668 13.815L5.509 13.944L4.496 12.692L6.896 10.748L6.59 10.866L6.013 9.362L8.88 8.262L8.545 8.285L8.433 6.679L11.435 6.469L11.165 6.406L11.527 4.836L14.395 5.499L14.214 5.395L15.019 4L17.521 5.444L17.423 5.34L18.601 4.241L20.549 6.331L20.508 6.245L21.955 5.539L23.205 8.101L23.194 8.029L24.784 7.777L25.253 10.737L25.286 10.526L26.877 10.778L26.401 13.781L26.519 13.54L27.967 14.246L26.627 16.993L26.822 16.783L28 17.882L25.918 20.114L26.17 19.969L26.975 21.364L24.358 22.874L24.621 22.814L24.983 24.383L22.091 25.051L22.314 25.066L22.201 26.673L19.306 26.47L19.454 26.527L18.877 28.03L16.105 26.967L16.28 27.108L15.267 28.36L12.979 26.508L13.092 26.675L11.757 27.575L10.122 25.152L10.171 25.311L8.63 25.781L7.773 22.98V22.98ZM7.773 21.066L8.779 20.759L9.561 23.316L10.431 22.729L11.917 24.933L12.581 24.113L14.641 25.781L15.01 24.821L17.492 25.774L17.565 24.734L20.221 24.92L19.982 23.885L22.587 23.283L22.047 22.349L24.372 21.007L23.575 20.265L25.412 18.295L24.432 17.818L25.613 15.397L24.542 15.227L24.962 12.569L23.938 12.731L23.518 10.073L22.595 10.523L21.422 8.12L20.67 8.821L18.856 6.876L18.336 7.775L16.04 6.449L15.803 7.477L13.219 6.88L13.294 7.953L10.642 8.138L11.034 9.16L8.537 10.118L9.209 10.948L7.112 12.646L7.997 13.242L6.486 15.482L7.504 15.794L6.714 18.376H7.773V21.066V21.066ZM11.333 11.217H14.58C14.958 11.217 15.333 11.244 15.706 11.297C16.079 11.35 16.407 11.457 16.69 11.617C16.973 11.777 17.189 12 17.336 12.287C17.484 12.574 17.525 12.956 17.459 13.431C17.394 13.924 17.199 14.331 16.875 14.655C16.551 14.979 16.155 15.211 15.688 15.35V15.375C15.966 15.416 16.215 15.496 16.432 15.615C16.649 15.734 16.828 15.885 16.967 16.07C17.107 16.255 17.205 16.47 17.262 16.716C17.32 16.962 17.328 17.224 17.287 17.503C17.221 17.963 17.07 18.346 16.832 18.653C16.5985 18.9572 16.3056 19.2106 15.971 19.398C15.6251 19.5902 15.2512 19.7272 14.863 19.804C14.4748 19.8846 14.0795 19.9258 13.683 19.927H10.115L11.332 11.217H11.333ZM12.76 14.7H14.15C14.297 14.7 14.445 14.683 14.593 14.65C14.7377 14.6182 14.8767 14.5642 15.005 14.49C15.132 14.4164 15.2413 14.3156 15.325 14.195C15.411 14.072 15.466 13.925 15.491 13.752C15.5193 13.6001 15.4997 13.4433 15.435 13.303C15.3762 13.1867 15.2843 13.0903 15.171 13.026C15.0464 12.9571 14.9112 12.9094 14.771 12.885C14.623 12.8567 14.4727 12.8423 14.322 12.842H13.018L12.76 14.7ZM12.255 18.304H13.978C14.125 18.304 14.279 18.287 14.438 18.254C14.7508 18.1936 15.0295 18.018 15.219 17.762C15.3218 17.621 15.3859 17.4555 15.405 17.282C15.429 17.078 15.401 16.912 15.319 16.785C15.2355 16.6561 15.1153 16.5551 14.974 16.495C14.8191 16.4275 14.6555 16.382 14.488 16.36C14.3231 16.3362 14.1567 16.3238 13.99 16.323H12.538L12.255 18.303V18.304ZM21.515 11.356L19.478 18.796L17.796 18.678L19.064 11.008L21.514 11.356H21.515ZM19.739 19.572L19.21 22.2L16.973 21.548L17.485 19.027L19.739 19.571V19.572Z" fill="#FEFFFF"/>
</g>
<defs>
<clipPath id="clip0_0_1375">
<rect width="32" height="32" fill="white"/>
</clipPath>
</defs>
</svg>
