<svg width="32" height="32" viewBox="0 0 32 32" fill="none" xmlns="http://www.w3.org/2000/svg">
<g clip-path="url(#clip0_0_1367)">
<path d="M16 32C24.8366 32 32 24.8366 32 16C32 7.16344 24.8366 0 16 0C7.16344 0 0 7.16344 0 16C0 24.8366 7.16344 32 16 32Z" fill="#0F63D8"/>
<path d="M25.884 20.737C25.7877 20.9353 25.6819 21.1289 25.567 21.317C25.49 21.455 25.416 21.593 25.335 21.724C25.298 21.785 25.268 21.848 25.231 21.907H25.219C24.4426 23.1407 23.4266 24.206 22.2311 25.04C21.0356 25.874 19.685 26.4596 18.2591 26.7623C16.8332 27.0649 15.3611 27.0785 13.93 26.802C12.4988 26.5256 11.1376 25.9649 9.927 25.153C9.877 25.119 9.834 25.082 9.785 25.049C9.59576 24.9266 9.41255 24.7951 9.236 24.655C8.9567 24.4422 8.68961 24.2138 8.436 23.971C8.31473 23.8587 8.19636 23.7433 8.081 23.625C7.957 23.498 7.849 23.375 7.723 23.232C7.59634 23.0895 7.47297 22.9442 7.353 22.796C7.25917 22.6761 7.16815 22.5541 7.08 22.43C6.95731 22.2616 6.83926 22.0899 6.726 21.915C6.653 21.801 6.585 21.685 6.516 21.567C6.40302 21.3788 6.29662 21.1866 6.197 20.991C6.138 20.875 6.083 20.757 6.028 20.639C5.93576 20.44 5.84807 20.239 5.765 20.036C5.715 19.91 5.67 19.782 5.625 19.654C5.556 19.454 5.488 19.245 5.429 19.049C5.389 18.907 5.364 18.772 5.32 18.626C5.26997 18.4307 5.22561 18.2339 5.187 18.036C5.167 17.886 5.134 17.728 5.12 17.586C5.09082 17.39 5.06648 17.1932 5.047 16.996C5.033 16.841 5.016 16.686 5.016 16.53C5 16.334 5 16.137 5 15.94C5 15.79 5.012 15.64 5.012 15.489C5.02791 15.141 5.05995 14.794 5.108 14.449C5.20651 13.7457 5.37261 13.0535 5.604 12.382C5.689 12.136 5.784 11.892 5.889 11.649C5.912 11.594 5.939 11.527 5.953 11.482C5.96919 11.4324 5.99657 11.3873 6.033 11.35C6.136 11.128 6.25 10.908 6.37 10.69C6.427 10.568 6.496 10.448 6.567 10.33C6.617 10.244 6.651 10.163 6.717 10.069C6.781 9.974 6.856 9.876 6.923 9.778C7.00876 9.64343 7.09983 9.51233 7.196 9.385C7.322 9.215 7.453 9.05 7.589 8.889C7.82718 8.60738 8.07916 8.33771 8.344 8.081C8.442 7.989 8.539 7.896 8.639 7.808C8.90865 7.57667 9.1858 7.35421 9.47 7.141C9.658 7.011 9.85 6.879 10.044 6.748C10.1474 6.68011 10.2524 6.61476 10.359 6.552C10.556 6.438 10.752 6.328 10.949 6.225C11.3937 5.9947 11.8542 5.79621 12.327 5.631C12.82 5.4547 13.3254 5.31531 13.839 5.214C14.1753 5.14833 14.5143 5.09695 14.855 5.06C15.077 5.036 15.301 5.02 15.527 5.01C15.649 5 15.773 5 15.897 5C16.2525 4.99571 16.608 5.00972 16.962 5.042C17.538 5.09177 18.1089 5.18877 18.669 5.332C18.812 5.37 18.956 5.41 19.099 5.452C19.309 5.512 19.506 5.577 19.703 5.649C19.85 5.702 19.998 5.759 20.143 5.82C20.253 5.866 20.365 5.901 20.475 5.95V5.966C21.8113 6.55112 23.0164 7.39862 24.019 8.45826C25.0216 9.51789 25.8012 10.7681 26.3115 12.1347C26.8218 13.5012 27.0525 14.9564 26.9899 16.4138C26.9273 17.8712 26.5727 19.3012 25.947 20.619C25.927 20.661 25.903 20.696 25.884 20.737V20.737ZM11.828 25.237V25.235C14.0735 26.2411 16.6081 26.3968 18.9598 25.6733C21.3116 24.9498 23.3203 23.3963 24.612 21.302C24.684 21.182 24.752 21.058 24.82 20.936C24.914 20.756 25.02 20.582 25.111 20.386C25.7156 19.1427 26.0582 17.7884 26.1175 16.4071C26.1768 15.0259 25.9515 13.6472 25.4556 12.3567C24.9597 11.0661 24.2038 9.8913 23.2349 8.90514C22.2659 7.91898 21.1046 7.14253 19.823 6.624C19.6934 6.56879 19.5624 6.5171 19.43 6.469C19.1151 6.35726 18.7955 6.25949 18.472 6.176C17.9489 6.04234 17.4158 5.9517 16.878 5.905L16.542 5.881C16.325 5.871 16.11 5.866 15.895 5.866H15.557C15.348 5.875 15.141 5.89 14.934 5.911C14.809 5.925 14.685 5.941 14.562 5.958C14.2291 6.00306 13.8989 6.06649 13.573 6.148C13.2446 6.22701 12.9208 6.32382 12.603 6.438C12.462 6.486 12.326 6.538 12.195 6.591C11.9031 6.71031 11.6162 6.84142 11.335 6.984C11.0495 7.13183 10.7706 7.29198 10.499 7.464C10.3159 7.57785 10.138 7.69997 9.966 7.83C9.876 7.891 9.786 7.957 9.698 8.026C9.43564 8.2335 9.18336 8.45341 8.942 8.685C8.795 8.833 8.651 8.983 8.509 9.135C8.2855 9.37994 8.0736 9.63522 7.874 9.9C7.66655 10.1791 7.47233 10.4677 7.292 10.765C7.227 10.873 7.168 10.981 7.107 11.089C6.987 11.291 6.889 11.496 6.791 11.709C6.605 12.1105 6.44533 12.5237 6.313 12.946C6.20268 13.2702 6.1135 13.6012 6.046 13.937C6.003 14.147 5.967 14.36 5.938 14.572C5.922 14.694 5.904 14.818 5.893 14.94C5.873 15.137 5.851 15.333 5.851 15.53C5.839 15.664 5.839 15.8 5.839 15.935C5.839 16.122 5.855 16.308 5.855 16.495C5.87228 16.8197 5.90498 17.1434 5.953 17.465C5.979 17.6 6.001 17.728 6.026 17.873C6.062 18.058 6.105 18.243 6.15 18.428C6.182 18.553 6.213 18.679 6.25 18.807C6.305 18.997 6.368 19.184 6.435 19.371C6.476 19.485 6.515 19.601 6.561 19.715C6.636 19.904 6.718 20.087 6.795 20.281C6.846 20.389 6.895 20.498 6.95 20.604C7.048 20.783 7.143 20.96 7.245 21.134C7.312 21.243 7.375 21.349 7.442 21.455C7.544 21.616 7.656 21.773 7.768 21.931C7.851 22.045 7.911 22.139 8.02 22.269C8.128 22.399 8.25 22.54 8.356 22.662C8.462 22.784 8.58 22.916 8.686 23.026C8.792 23.136 8.875 23.214 9.012 23.344C9.24426 23.5683 9.48934 23.779 9.746 23.975C10.3867 24.4778 11.0858 24.9016 11.828 25.237V25.237ZM15.98 24.412C14.315 24.4132 12.687 23.9206 11.302 22.9965C9.91696 22.0724 8.83707 20.7584 8.19889 19.2205C7.56071 17.6827 7.39292 15.9901 7.71673 14.3569C8.04054 12.7237 8.8414 11.2232 10.018 10.0451C11.1947 8.86708 12.6942 8.06443 14.3271 7.73868C15.9599 7.41293 17.6527 7.57871 19.1913 8.21506C20.7299 8.85141 22.0452 9.92974 22.9709 11.3137C23.8967 12.6976 24.3912 14.325 24.392 15.99C24.3904 18.2214 23.504 20.3612 21.927 21.94C20.3501 23.5188 18.2114 24.4078 15.98 24.412V24.412ZM15.98 10.334C14.8601 10.3326 13.7649 10.6635 12.8332 11.2848C11.9014 11.906 11.1748 12.7897 10.7455 13.8241C10.3161 14.8584 10.2033 15.9969 10.4212 17.0954C10.6391 18.1939 11.178 19.2031 11.9697 19.9952C12.7614 20.7873 13.7703 21.3267 14.8687 21.5452C15.9671 21.7637 17.1056 21.6515 18.1401 21.2227C19.1747 20.7939 20.0588 20.0678 20.6806 19.1363C21.3023 18.2049 21.6338 17.1099 21.633 15.99C21.6314 14.4906 21.0355 13.0529 19.9759 11.992C18.9163 10.9311 17.4794 10.3334 15.98 10.33V10.334Z" fill="white"/>
</g>
<defs>
<clipPath id="clip0_0_1367">
<rect width="32" height="32" fill="white"/>
</clipPath>
</defs>
</svg>
