<svg width="32" height="32" viewBox="0 0 32 32" fill="none" xmlns="http://www.w3.org/2000/svg">
<g clip-path="url(#clip0_0_1359)">
<path d="M16 32C24.8366 32 32 24.8366 32 16C32 7.16344 24.8366 0 16 0C7.16344 0 0 7.16344 0 16C0 24.8366 7.16344 32 16 32Z" fill="#FE5D86"/>
<path d="M8 9.039C8 8.465 8.472 8 9.054 8H16.642C21.118 8 22.697 8.528 23.785 9.601C24.1215 9.94273 24.3825 10.3512 24.5513 10.8001C24.7201 11.249 24.7929 11.7282 24.765 12.207C24.765 14.058 23.768 15.313 21.078 15.864C23.676 16.318 24.995 17.374 24.995 19.498C25.0196 19.9934 24.9418 20.4885 24.7663 20.9524C24.5908 21.4163 24.3214 21.839 23.975 22.194C22.91 23.244 21.17 24 16.487 24H9.054C8.77649 24.0019 8.50959 23.8935 8.31195 23.6987C8.11432 23.5038 8.00211 23.2385 8 22.961V9.039ZM13.761 15.001C13.761 14.618 14.076 14.308 14.464 14.308H16.907C18.301 14.308 19.344 14.24 19.827 13.74C19.9395 13.6219 20.0263 13.4817 20.0819 13.3284C20.1375 13.175 20.1607 13.0118 20.15 12.849C20.18 12.529 20.072 12.211 19.85 11.974C19.36 11.492 18.318 11.407 16.907 11.407H12.36V20.639H16.86C18.392 20.639 19.527 20.525 20.057 19.997C20.301 19.747 20.427 19.407 20.403 19.06C20.425 18.707 20.3 18.36 20.057 18.1C19.521 17.573 18.387 17.533 16.86 17.533H14.48C14.3846 17.5354 14.2897 17.5184 14.2011 17.4832C14.1124 17.448 14.0318 17.3952 13.964 17.328C13.8967 17.2616 13.8439 17.182 13.8088 17.0943C13.7737 17.0065 13.7571 16.9125 13.76 16.818L13.761 15.001Z" fill="white"/>
</g>
<defs>
<clipPath id="clip0_0_1359">
<rect width="32" height="32" fill="white"/>
</clipPath>
</defs>
</svg>
