<svg width="32" height="32" viewBox="0 0 32 32" fill="none" xmlns="http://www.w3.org/2000/svg">
<g clip-path="url(#clip0_0_1351)">
<path d="M16 32C24.8366 32 32 24.8366 32 16C32 7.16344 24.8366 0 16 0C7.16344 0 0 7.16344 0 16C0 24.8366 7.16344 32 16 32Z" fill="#EAB304"/>
<path d="M22.1486 14.5721L22.2185 14.4321C22.2185 14.3621 22.2186 14.2921 22.3586 14.3421C22.3694 14.2792 22.3694 14.215 22.3586 14.1521C22.3923 14.0618 22.3923 13.9624 22.3586 13.8721C22.2167 13.5262 22.1921 13.1433 22.2886 12.7821C22.2996 12.7361 22.2996 12.6881 22.2886 12.6421L22.3586 12.5721C22.3869 12.5978 22.4106 12.6282 22.4286 12.6621C22.4396 12.7081 22.4396 12.7561 22.4286 12.8021V12.8721C22.4286 12.9421 22.5486 12.8021 22.5986 12.7521C22.6603 12.7044 22.7274 12.6641 22.7985 12.6321C22.8119 12.4492 22.788 12.2655 22.7285 12.0921C22.6172 11.7157 22.642 11.312 22.7985 10.9521C22.7985 11.0221 22.8885 11.0721 22.8885 11.1421C22.9055 11.4021 23.0156 11.6471 23.1986 11.8321C23.4016 12.0651 23.5546 12.3371 23.6486 12.6321C23.6486 12.6321 23.6485 12.7221 23.7185 12.7221C24.0065 12.8051 24.2685 12.9591 24.4785 13.1721C24.7205 13.3901 24.9506 13.6201 25.1686 13.8621C25.2063 13.9033 25.2368 13.9506 25.2586 14.0021H25.3286C25.3402 13.7822 25.3402 13.5619 25.3286 13.3421C25.3286 13.1521 25.4186 12.9621 25.6086 12.9921H25.6986C25.7028 12.9077 25.7343 12.8269 25.7885 12.762C25.8426 12.6971 25.9163 12.6515 25.9986 12.6321C26.0337 12.6929 26.0521 12.7619 26.0521 12.8321C26.0521 12.9023 26.0337 12.9713 25.9986 13.0321C26.1386 13.2021 26.1686 13.2921 25.9986 13.4821C25.8286 13.6721 25.9086 13.6921 25.9986 13.8821C26.018 13.7719 26.0588 13.6666 26.1186 13.5721C26.1686 13.4721 26.1885 13.3121 26.3085 13.2621C26.3474 13.2484 26.3897 13.2484 26.4286 13.2621C26.5441 13.285 26.663 13.285 26.7786 13.2621C26.8515 13.2561 26.9245 13.2731 26.9873 13.3108C27.0501 13.3485 27.0995 13.4049 27.1285 13.4721L26.7985 13.6321C26.8685 13.7721 26.7986 13.8221 26.6586 13.9121C26.5889 13.9761 26.5253 14.0464 26.4685 14.1221C26.5968 14.0993 26.7237 14.0693 26.8486 14.0321C26.9335 14.0105 27.0233 14.0198 27.1021 14.0582C27.1808 14.0967 27.2434 14.1618 27.2786 14.2421C27.3053 14.2986 27.3468 14.347 27.3986 14.3821C27.4955 14.4662 27.5563 14.5843 27.5686 14.7121C27.5762 14.7416 27.5762 14.7726 27.5686 14.8021L27.3785 14.6621C27.3543 14.6389 27.3221 14.6259 27.2886 14.6259C27.255 14.6259 27.2228 14.6389 27.1986 14.6621C27.165 14.6945 27.1202 14.7126 27.0736 14.7126C27.0269 14.7126 26.9821 14.6945 26.9486 14.6621C26.8805 14.6216 26.8028 14.6002 26.7236 14.6002C26.6443 14.6002 26.5666 14.6216 26.4986 14.6621C26.3924 14.7319 26.2822 14.7953 26.1686 14.8521C26.2998 14.8697 26.4251 14.9178 26.5345 14.9924C26.6439 15.0671 26.7343 15.1663 26.7985 15.2821C26.8685 15.4221 26.9686 15.5621 27.0386 15.7121C27.0659 15.7718 27.0687 15.8399 27.0462 15.9017C27.0238 15.9635 26.9779 16.0139 26.9186 16.0421H26.8686V15.9921C26.8686 15.8721 26.7986 15.8521 26.6786 15.8721C26.6457 15.8829 26.6111 15.8871 26.5766 15.8844C26.5422 15.8817 26.5086 15.8722 26.4779 15.8564C26.4471 15.8405 26.4199 15.8187 26.3977 15.7922C26.3755 15.7658 26.3588 15.7351 26.3486 15.7021C26.2325 15.4691 26.0376 15.2849 25.7985 15.1821L25.5886 15.0921C25.5729 15.1831 25.5425 15.2709 25.4986 15.3521C25.4656 15.4044 25.4252 15.4516 25.3785 15.4921C25.2385 15.6121 25.2385 15.6321 25.3785 15.8021C25.5185 15.9721 25.4486 15.8921 25.4986 15.9721C25.4233 15.9764 25.348 15.9633 25.2787 15.9339C25.2093 15.9044 25.1477 15.8593 25.0986 15.8021C24.9743 15.6623 24.8731 15.5036 24.7985 15.3321C24.7696 15.2521 24.7676 15.1648 24.7929 15.0835C24.8182 15.0023 24.8693 14.9315 24.9386 14.8821C25.0087 14.8126 25.0663 14.7314 25.1086 14.6421L24.3986 14.4521C24.4099 14.5618 24.4099 14.6724 24.3986 14.7821C24.4226 15.1851 24.4226 15.5891 24.3986 15.9921C24.3744 16.591 24.2805 17.185 24.1186 17.7621C24.0015 18.2065 23.8337 18.636 23.6186 19.0421C23.4381 19.4081 23.2343 19.7622 23.0086 20.1021C22.8156 20.3845 22.6017 20.6519 22.3686 20.9021C22.1325 21.1789 21.8714 21.4333 21.5886 21.6621C21.2786 21.9221 20.9486 22.1321 20.5886 22.3521C20.1039 22.6597 19.5789 22.8987 19.0286 23.0621C18.6573 23.171 18.28 23.2578 17.8986 23.3221C17.687 23.3637 17.4734 23.3937 17.2586 23.4121C17.1929 23.4329 17.1331 23.4692 17.0844 23.5179C17.0357 23.5667 16.9994 23.6264 16.9785 23.6921C16.9492 23.8505 16.888 24.0014 16.7986 24.1354C16.7092 24.2695 16.5935 24.3841 16.4585 24.4721C16.3385 24.5621 16.1985 24.6421 16.0585 24.7321L16.1285 24.5221C16.1407 24.4764 16.1406 24.4284 16.1283 24.3827C16.116 24.3371 16.0919 24.2955 16.0585 24.2621C15.9885 24.1921 15.8886 24.2621 15.7986 24.2621C15.7086 24.2621 15.6286 24.3821 15.6086 24.5221C15.5893 24.6504 15.538 24.7717 15.4593 24.8749C15.3806 24.978 15.2772 25.0596 15.1586 25.1121H15.0386C15.0699 25.0278 15.0933 24.9407 15.1086 24.8521C15.1086 24.7821 15.0386 24.7121 14.9886 24.6421C14.9386 24.5721 14.8986 24.6421 14.8486 24.6421L14.4186 24.8521L14.2786 24.9221L14.6586 25.0921C14.8642 25.1906 15.0301 25.3564 15.1286 25.5621C15.1692 25.6171 15.1911 25.6837 15.1911 25.7521C15.1911 25.8205 15.1692 25.8871 15.1286 25.9421C15.1169 25.9599 15.1107 25.9808 15.1107 26.0021C15.1107 26.0234 15.1169 26.0442 15.1286 26.0621C15.1612 26.1805 15.17 26.3042 15.1546 26.4261C15.1391 26.5479 15.0997 26.6655 15.0386 26.7721C15.0386 26.8421 14.9186 26.9121 14.8686 26.9821L14.7986 26.5021C14.7986 26.4782 14.7891 26.4553 14.7722 26.4384C14.7553 26.4216 14.7324 26.4121 14.7086 26.4121C14.5673 26.4183 14.4273 26.3839 14.3051 26.313C14.1828 26.2421 14.0834 26.1377 14.0186 26.0121L13.9486 25.9221C13.8247 26.0993 13.6394 26.2241 13.4286 26.2721C13.2856 26.3368 13.1587 26.4322 13.0567 26.5514C12.9548 26.6706 12.8803 26.8108 12.8386 26.9621C12.8042 27.1355 12.7471 27.3037 12.6686 27.4621C12.6259 27.571 12.5426 27.659 12.4362 27.7076C12.3298 27.7561 12.2087 27.7613 12.0986 27.7221V28.1021C12.0444 28.0882 11.9936 28.0636 11.949 28.0298C11.9045 27.996 11.8672 27.9536 11.8392 27.9052C11.8113 27.8567 11.7933 27.8032 11.7863 27.7477C11.7793 27.6922 11.7835 27.6359 11.7986 27.5821C11.8107 27.5261 11.8107 27.4681 11.7986 27.4121C11.729 27.2763 11.7119 27.1196 11.7507 26.9719C11.7894 26.8243 11.8812 26.6962 12.0086 26.6121C12.2044 26.4694 12.3736 26.2933 12.5086 26.0921C12.5155 26.0693 12.5155 26.0449 12.5086 26.0221L11.7986 25.9321C11.7116 25.9082 11.6208 25.902 11.5314 25.9141C11.4421 25.9261 11.3561 25.956 11.2786 26.0021L11.1386 26.1821C10.9286 26.4221 10.8286 26.4421 10.5486 26.3021C10.4383 26.4961 10.396 26.7213 10.4286 26.9421C10.3226 26.8389 10.2496 26.7067 10.2186 26.5621C10.2063 26.4825 10.2063 26.4016 10.2186 26.3221V26.1821C10.1957 26.114 10.1957 26.0402 10.2186 25.9721C10.3023 25.7795 10.456 25.6259 10.6486 25.5421C10.8609 25.4029 11.1053 25.3203 11.3586 25.3021C11.5486 25.2901 11.7386 25.2901 11.9286 25.3021H12.0686C12.0261 25.1983 11.9623 25.1047 11.8814 25.0271C11.8004 24.9496 11.704 24.89 11.5986 24.8521L11.0586 24.6421C10.999 24.6507 10.9384 24.6357 10.8898 24.6002C10.8411 24.5647 10.8084 24.5115 10.7986 24.4521C10.7986 24.4282 10.7891 24.4053 10.7722 24.3884C10.7553 24.3716 10.7324 24.3621 10.7086 24.3621C10.5415 24.3616 10.3781 24.4103 10.2386 24.5021C10.3086 24.2921 10.4086 24.0721 10.6386 24.0321C10.7415 24.0201 10.8456 24.0201 10.9486 24.0321H11.0386C11.1786 23.8221 11.3886 23.8621 11.5786 23.9621C11.8556 24.0941 12.0856 24.3061 12.2386 24.5721C12.2734 24.6411 12.3227 24.7018 12.3831 24.7501C12.4435 24.7984 12.5136 24.8332 12.5886 24.8521C12.6019 24.6692 12.578 24.4855 12.5186 24.3121C12.515 24.2316 12.486 24.1543 12.4356 24.0914C12.3853 24.0285 12.3163 23.9832 12.2386 23.9621C11.9986 23.8921 11.9286 23.7221 12.0486 23.4621C11.9695 23.3919 11.8733 23.3438 11.7697 23.3227C11.6661 23.3016 11.5587 23.3083 11.4586 23.3421C11.5286 23.1521 11.8086 23.0821 11.9986 23.1021C12.1703 23.2047 12.3688 23.2535 12.5686 23.2421C12.6355 23.2547 12.6986 23.283 12.7525 23.3247C12.8064 23.3664 12.8496 23.4204 12.8786 23.4821L13.0186 23.7621C13.1386 23.9721 13.2286 24.2121 13.3286 24.4221C13.4686 24.0221 13.6386 23.5921 13.7986 23.1421L13.5586 23.0521L12.8686 22.7721C12.3421 22.5444 11.8425 22.2593 11.3786 21.9221C11.2973 21.8782 11.2095 21.8478 11.1186 21.8321C11.0486 21.8321 10.9486 21.9221 10.9986 22.0021C11.0486 22.0821 11.1186 22.0921 11.1686 22.1721C11.2186 22.2521 11.1686 22.2421 11.2586 22.2921H11.1386C10.9761 22.2958 10.8163 22.2499 10.6806 22.1606C10.5448 22.0713 10.4395 21.9428 10.3786 21.7921C10.2312 21.4952 10.1429 21.1726 10.1186 20.8421C10.1232 20.831 10.1256 20.8191 10.1256 20.8071C10.1256 20.7951 10.1232 20.7832 10.1186 20.7721L9.47855 20.0621C9.43061 20.1842 9.43061 20.32 9.47855 20.4421L9.54855 20.5821V20.7521H9.35855C9.25054 20.6339 9.1627 20.4988 9.09855 20.3521C9.00855 20.0021 8.95855 19.6421 8.88855 19.2921C8.87135 19.1168 8.84127 18.943 8.79855 18.7721C8.74674 18.5719 8.6833 18.3749 8.60855 18.1821V18.7321C8.60855 18.7821 8.48855 18.7321 8.46855 18.6421C8.36002 18.4557 8.29507 18.2471 8.27855 18.0321C8.26683 17.5273 8.33777 17.024 8.48855 16.5421C8.5344 16.3654 8.59118 16.1917 8.65855 16.0221C8.6356 16.0791 8.60535 16.1329 8.56855 16.1821L8.47855 16.2721V16.1521C8.47565 15.9272 8.53444 15.7059 8.64855 15.5121C8.81855 15.1321 9.02855 14.7521 9.21855 14.3821C9.29704 14.25 9.38389 14.1231 9.47855 14.0021L9.30855 14.1821L9.18855 14.2521V14.1821C9.2529 14.075 9.32301 13.9715 9.39855 13.8721C9.62351 13.5996 9.88615 13.3605 10.1786 13.1621C10.2466 13.1385 10.3205 13.1385 10.3886 13.1621L11.3886 13.3721L11.7386 13.4621C11.6433 13.5601 11.5625 13.6712 11.4986 13.7921C11.4678 13.8525 11.4518 13.9193 11.4518 13.9871C11.4518 14.0549 11.4678 14.1217 11.4986 14.1821C11.5158 14.2071 11.525 14.2367 11.525 14.2671C11.525 14.2974 11.5158 14.3271 11.4986 14.3521C11.2709 14.5482 11.0782 14.7815 10.9286 15.0421V15.1321C10.9286 15.1321 11.2586 15.4621 11.4286 15.6521C11.4386 15.6821 11.4386 15.7121 11.4286 15.7421C11.353 15.871 11.3131 16.0177 11.3131 16.1671C11.3131 16.3165 11.353 16.4632 11.4286 16.5921C11.44 16.6367 11.4604 16.6785 11.4886 16.7149C11.5167 16.7514 11.5519 16.7818 11.5921 16.8042C11.6323 16.8267 11.6767 16.8407 11.7225 16.8455C11.7683 16.8503 11.8146 16.8457 11.8586 16.8321C11.8502 17.0264 11.9104 17.2176 12.0286 17.3721C12.0986 17.4421 12.1986 17.4921 12.2686 17.5621C12.3106 17.5914 12.3421 17.6335 12.3586 17.6821C12.4142 17.8603 12.5186 18.0194 12.66 18.1413C12.8014 18.2633 12.9741 18.3432 13.1586 18.3721C13.4466 18.4121 13.7386 18.3521 13.9886 18.2021C14.0786 18.2021 14.1086 18.1321 14.1286 18.2021C14.1846 18.5511 14.2966 18.8881 14.4586 19.2021C14.6656 19.5681 14.9216 19.9041 15.2186 20.2021C15.4856 20.4571 15.8126 20.6421 16.1686 20.7421C16.6086 20.8411 17.0686 20.7171 17.3986 20.4121C17.6058 20.2023 17.7811 19.963 17.9186 19.7021L18.3486 19.0121C18.5378 18.7514 18.7797 18.5333 19.0585 18.3721C19.1048 18.3365 19.1585 18.3117 19.2156 18.2996C19.2727 18.2874 19.3318 18.2883 19.3885 18.3021L19.3186 18.4421C19.2654 18.5276 19.2372 18.6264 19.2372 18.7271C19.2372 18.8278 19.2654 18.9265 19.3186 19.0121C19.3886 19.1021 19.4386 19.1021 19.4886 19.0121C19.5386 18.9221 19.6286 18.7521 19.8186 18.7721C20.0086 18.7921 20.0086 18.6521 20.0286 18.5321C20.0483 18.0113 20.2034 17.5047 20.4785 17.0621C20.5299 17.0093 20.5869 16.9623 20.6486 16.9221V17.3021C20.6676 17.4081 20.6986 17.5121 20.7386 17.6121L20.7985 17.4821C20.8156 17.4461 20.8425 17.4158 20.8761 17.3945C20.9098 17.3733 20.9488 17.362 20.9886 17.3621C21.0356 17.3538 21.0782 17.329 21.1086 17.2921C21.1745 17.2146 21.22 17.1219 21.241 17.0223C21.2619 16.9228 21.2577 16.8196 21.2285 16.7221C21.2048 16.573 21.2048 16.4211 21.2285 16.2721C21.228 16.083 21.2763 15.8971 21.3686 15.7321C21.3903 15.6806 21.4208 15.6333 21.4585 15.5921H21.5286V15.9221C21.5209 15.9516 21.5209 15.9826 21.5286 16.0121H21.6186L21.7985 15.8921C21.8667 15.7703 21.8979 15.6313 21.8885 15.4921C21.8747 15.4127 21.8747 15.3315 21.8885 15.2521V14.4321C21.8885 14.3221 21.8885 14.3121 21.9585 14.2421L22.0686 14.1821V14.6221C22.076 14.6072 22.0874 14.5946 22.1015 14.5858C22.1156 14.5769 22.1319 14.5722 22.1486 14.5721V14.5721ZM9.85855 10.0121L10.4486 9.42208C10.4827 9.38496 10.5234 9.35445 10.5686 9.33208C10.6386 9.26208 10.5686 9.19208 10.5686 9.12208C10.5686 9.05208 10.4786 9.12208 10.3986 9.12208H10.3086V9.00208C10.3334 8.92016 10.3758 8.84463 10.4328 8.78074C10.4898 8.71684 10.56 8.66612 10.6386 8.63208C10.8971 8.53893 11.18 8.53893 11.4385 8.63208C11.4604 8.64269 11.4843 8.64821 11.5086 8.64821C11.5328 8.64821 11.5567 8.64269 11.5786 8.63208L12.1486 8.32208C12.2386 8.32208 12.2186 8.23208 12.1486 8.18208C12.0786 8.13208 11.9786 8.06208 11.8886 8.18208C11.859 8.1897 11.8281 8.1897 11.7986 8.18208C11.7986 8.01208 11.9686 7.87208 12.1286 7.80208C12.3986 7.71908 12.6886 7.71908 12.9586 7.80208H12.9986C13.0686 7.80208 13.2786 7.89208 13.4486 7.80208L13.7986 7.68208C13.8886 7.68208 13.8886 7.61208 13.7986 7.56208C13.7086 7.51208 13.6786 7.42208 13.5886 7.49208C13.4986 7.56208 13.5886 7.49208 13.4986 7.49208C13.4796 7.47172 13.469 7.44492 13.469 7.41708C13.469 7.38925 13.4796 7.36245 13.4986 7.34208C13.6729 7.21057 13.8921 7.15308 14.1086 7.18208C14.3053 7.19726 14.4932 7.27033 14.6486 7.39208H14.7186C14.7523 7.43158 14.7963 7.46091 14.8458 7.47681C14.8952 7.4927 14.9481 7.49453 14.9986 7.48208C15.056 7.44772 15.1216 7.42957 15.1885 7.42957C15.2555 7.42957 15.3211 7.44772 15.3786 7.48208H15.4486V7.39208C15.4327 7.33048 15.3963 7.27611 15.3454 7.23794C15.2945 7.19977 15.2321 7.18007 15.1686 7.18208H15.0986C15.2173 7.08938 15.3583 7.0295 15.5075 7.00844C15.6567 6.98738 15.8088 7.00588 15.9486 7.06208C16.1546 7.14608 16.3345 7.28408 16.4685 7.46208C16.5211 7.49446 16.5785 7.5181 16.6385 7.53208C16.7753 7.52781 16.9114 7.55164 17.0386 7.60208C17.1586 7.67208 17.1085 7.60208 17.1285 7.69208C17.1437 7.65992 17.1524 7.62508 17.1541 7.58955C17.1558 7.55403 17.1504 7.51852 17.1384 7.48507C17.1263 7.45162 17.1077 7.42088 17.0837 7.39463C17.0597 7.36837 17.0308 7.34712 16.9986 7.33208H16.7985V7.18208C16.9075 7.16078 17.0196 7.16078 17.1285 7.18208C17.4445 7.21908 17.7286 7.39008 17.9086 7.65208C17.9786 7.77208 18.0366 7.89908 18.0786 8.03208C18.1636 8.02163 18.25 8.03367 18.3289 8.06701C18.4079 8.10035 18.4767 8.15382 18.5286 8.22208H18.5986C18.64 8.21368 18.6803 8.20025 18.7185 8.18208C18.7164 8.10411 18.6903 8.0287 18.6437 7.96608C18.5972 7.90347 18.5326 7.85668 18.4585 7.83208H18.3885C18.4785 7.83208 18.5586 7.76208 18.6486 7.83208C18.7986 7.84608 18.9436 7.88708 19.0786 7.95208C19.4346 8.09708 19.7005 8.40108 19.7985 8.77208C19.9685 8.86208 20.0786 8.96208 20.1986 9.03208H20.3386V8.82208C20.3238 8.75068 20.2926 8.68369 20.2475 8.62642C20.2023 8.56914 20.1445 8.52315 20.0786 8.49208L19.9886 8.42208C20.098 8.39754 20.2119 8.40217 20.319 8.43552C20.426 8.46886 20.5224 8.52975 20.5986 8.61208C20.7836 8.76808 20.9216 8.97208 20.9986 9.20208C21.0066 9.23954 21.0235 9.27451 21.0479 9.30409C21.0723 9.33366 21.1033 9.35698 21.1385 9.37208C21.2145 9.42908 21.2846 9.49208 21.3486 9.56208C21.4386 9.30208 21.2286 9.16208 21.1586 8.97208C21.2349 8.97368 21.31 8.99144 21.3789 9.02419C21.4479 9.05695 21.5091 9.10394 21.5585 9.16208C21.6985 9.30808 21.8246 9.46508 21.9386 9.63208C22.0106 9.75408 22.0906 9.87108 22.1786 9.98208C22.2506 10.1161 22.2976 10.2621 22.3186 10.4121C22.3326 10.7511 22.2852 11.0899 22.1786 11.4121C22.1664 11.6319 22.1664 11.8522 22.1786 12.0721C22.1886 12.1021 22.1886 12.1321 22.1786 12.1621C22.0902 12.2349 22.0173 12.3245 21.9641 12.4258C21.9108 12.5271 21.8784 12.6381 21.8686 12.7521C21.8211 13.0502 21.8211 13.354 21.8686 13.6521V13.7221C21.731 13.8127 21.6179 13.9358 21.5394 14.0806C21.4609 14.2254 21.4194 14.3874 21.4186 14.5521V15.0721C21.2745 15.1013 21.141 15.1687 21.0319 15.2672C20.9228 15.3657 20.8422 15.4917 20.7985 15.6321C20.7285 15.7721 20.7085 15.9421 20.6285 16.0821C20.5485 16.2221 20.5386 16.1721 20.4886 16.2221V16.0321C20.5483 15.7192 20.5718 15.4004 20.5585 15.0821C20.5683 14.6123 20.4798 14.1456 20.2985 13.7121V13.5421C20.4553 13.3823 20.5539 13.1745 20.5786 12.9521C20.6036 12.6192 20.6036 12.2849 20.5786 11.9521C20.5827 11.716 20.4969 11.4872 20.3386 11.3121C20.2573 11.2287 20.1527 11.1716 20.0386 11.1484C19.9244 11.1253 19.8059 11.137 19.6986 11.1821C19.5591 11.2411 19.4401 11.3399 19.3565 11.4662C19.2729 11.5925 19.2284 11.7406 19.2285 11.8921V12.2421C18.8751 11.8876 18.4485 11.6146 17.9785 11.4421C17.7088 11.3471 17.431 11.2768 17.1486 11.2321H16.5386C16.1443 11.2335 15.7527 11.2977 15.3786 11.4221C15.1686 11.4921 14.9786 11.5921 14.7686 11.6621C14.747 11.6735 14.7229 11.6794 14.6986 11.6794C14.6742 11.6794 14.6501 11.6735 14.6286 11.6621C14.1799 11.3914 13.6951 11.186 13.1885 11.0521C12.9499 10.9875 12.7053 10.9473 12.4586 10.9321C11.9586 10.8321 11.4586 10.7621 11.0386 10.6321C10.6626 10.5423 10.3043 10.3902 9.97855 10.1821C9.95616 10.1148 9.91441 10.0557 9.85855 10.0121V10.0121ZM19.3085 14.7121C19.3085 14.8821 18.9986 14.9221 18.6686 14.8321V15.1821C18.6736 15.2219 18.6736 15.2622 18.6686 15.3021H18.5286C18.4295 15.2218 18.3359 15.135 18.2486 15.0421C18.1899 15.0674 18.1378 15.1058 18.0962 15.1543C18.0546 15.2029 18.0246 15.2602 18.0086 15.3221C17.9386 15.5121 17.8386 15.5321 17.6986 15.3221C17.6469 15.2696 17.5899 15.2227 17.5286 15.1821C17.4644 15.2733 17.3942 15.3602 17.3186 15.4421C17.3011 15.4626 17.2797 15.4793 17.2557 15.4913C17.2316 15.5034 17.2054 15.5104 17.1786 15.5121C17.1427 15.4768 17.1123 15.4364 17.0886 15.3921C17.0783 15.3225 17.0783 15.2517 17.0886 15.1821C16.9686 15.4921 16.8285 15.7521 16.4785 15.8221C16.4658 15.6914 16.49 15.5597 16.5485 15.4421C16.6185 15.3221 16.5485 15.4421 16.5485 15.3721C16.3925 15.522 16.2995 15.7259 16.2886 15.9421C16.3046 16.3751 16.4166 16.7991 16.6186 17.1821C16.7586 17.5321 16.9286 17.8721 17.0686 18.1821C17.1966 18.4991 17.2546 18.8401 17.2386 19.1821C17.2546 19.3559 17.2198 19.5307 17.1383 19.6851C17.0568 19.8395 16.9321 19.9669 16.7795 20.0517C16.6268 20.1365 16.4528 20.1751 16.2787 20.1627C16.1045 20.1503 15.9377 20.0876 15.7986 19.9821C15.57 19.8404 15.3699 19.6572 15.2086 19.4421C15.0686 19.2521 14.9286 19.0621 14.8086 18.8721C14.7415 18.7331 14.6846 18.5894 14.6386 18.4421V18.3021C14.6944 18.2987 14.7499 18.3134 14.7967 18.344C14.8436 18.3746 14.8793 18.4195 14.8986 18.4721C14.9486 18.5521 15.1586 18.8721 15.2986 19.0621C15.4136 19.2921 15.5866 19.4881 15.7986 19.6321C15.8688 19.6617 15.9442 19.6771 16.0204 19.6776C16.0967 19.678 16.1722 19.6634 16.2428 19.6346C16.3134 19.6058 16.3776 19.5634 16.4318 19.5098C16.486 19.4562 16.529 19.3924 16.5585 19.3221V19.2521C16.6007 19.1276 16.6162 18.9956 16.6042 18.8647C16.5921 18.7337 16.5527 18.6068 16.4886 18.4921C16.3186 18.1121 16.1086 17.7321 15.9186 17.3621C15.6987 16.9633 15.5466 16.5307 15.4686 16.0821C15.4567 15.9724 15.4567 15.8618 15.4686 15.7521C15.3186 15.7641 15.1686 15.7641 15.0186 15.7521L14.5686 15.6321L14.3586 15.7721C14.368 15.7259 14.368 15.6783 14.3586 15.6321C14.3606 15.5404 14.3375 15.45 14.2916 15.3706C14.2458 15.2913 14.179 15.2261 14.0986 15.1821C14.0482 15.1821 13.9998 15.2021 13.9642 15.2377C13.9286 15.2734 13.9086 15.3217 13.9086 15.3721C13.9012 15.4741 13.9215 15.5762 13.9673 15.6677C14.013 15.7592 14.0825 15.8367 14.1686 15.8921L14.5686 16.1721C14.7086 16.2621 14.6886 16.2621 14.7586 16.1721C14.7683 16.1259 14.7683 16.0782 14.7586 16.0321C14.9486 16.0321 15.0186 16.1521 15.0386 16.3421C15.0846 16.5821 15.1485 16.8201 15.2285 17.0521C15.2329 17.1024 15.2272 17.1531 15.2117 17.2011C15.1963 17.2492 15.1714 17.2937 15.1386 17.3321C15.0151 17.4877 14.853 17.6084 14.6686 17.6821C14.5174 17.7407 14.3497 17.7407 14.1986 17.6821C14.2858 17.5953 14.3794 17.5151 14.4785 17.4421C14.5205 17.3994 14.5509 17.3466 14.5666 17.2888C14.5824 17.231 14.583 17.1702 14.5686 17.1121C14.5614 17.0933 14.5492 17.0769 14.5333 17.0645C14.5175 17.0522 14.4985 17.0444 14.4785 17.0421C14.3856 17.0306 14.2915 17.0306 14.1986 17.0421C14.1262 17.0473 14.0584 17.0794 14.0086 17.1321C13.8446 17.2622 13.6708 17.3792 13.4886 17.4821C13.3401 17.5591 13.1711 17.5871 13.0057 17.5619C12.8404 17.5368 12.6873 17.4598 12.5686 17.3421C12.4831 17.2464 12.4184 17.134 12.3786 17.0121L12.3086 16.8721C12.2733 16.9079 12.2328 16.9383 12.1885 16.9621C12.1385 16.9621 12.1185 16.8421 12.1885 16.8221C12.2175 16.6921 12.2586 16.5651 12.3086 16.4421C12.3199 16.4205 12.3259 16.3965 12.3259 16.3721C12.3259 16.3477 12.3199 16.3237 12.3086 16.3021C12.2286 16.1909 12.122 16.1015 11.9986 16.0421C11.9086 15.9721 11.8286 16.0421 11.7586 16.0421H11.6386C11.641 16.0021 11.641 15.962 11.6386 15.9221C11.6554 15.8168 11.7021 15.7185 11.7729 15.6388C11.8438 15.559 11.9359 15.5012 12.0386 15.4721H12.1586C11.8719 15.3627 11.6125 15.192 11.3986 14.9721C11.3286 14.9021 11.3086 14.8521 11.3986 14.7821C11.4886 14.7121 11.6586 14.5521 11.7986 14.4521C12.067 14.3567 12.3601 14.3567 12.6286 14.4521C12.8756 14.5341 13.1016 14.6701 13.2886 14.8521L13.3586 14.9221C13.3021 14.7508 13.2069 14.5949 13.0802 14.4666C12.9536 14.3382 12.799 14.2408 12.6286 14.1821C12.324 14.0687 12.0033 14.0046 11.6786 13.9921C11.6946 13.9315 11.7276 13.8768 11.7737 13.8343C11.8197 13.7918 11.8769 13.7633 11.9385 13.7521L12.4785 13.6521C12.6706 13.6093 12.8491 13.5201 12.9986 13.3921C12.902 13.3125 12.7982 13.2422 12.6885 13.1821C12.4085 13.0621 12.1186 12.9221 11.8386 12.8321C11.5841 12.7198 11.3146 12.6457 11.0386 12.6121C10.6532 12.5583 10.2745 12.4644 9.90855 12.3321C9.46699 12.2115 9.04574 12.0262 8.65855 11.7821C8.25855 11.5221 7.91855 11.1821 7.65855 10.7821C7.59794 10.6785 7.55088 10.5676 7.51855 10.4521V10.3321H7.63855L7.79855 10.4221C8.05855 10.6321 8.29855 10.8921 8.55855 11.0821C8.87749 11.3136 9.23705 11.4832 9.61855 11.5821C9.92855 11.6521 10.2286 11.7221 10.5386 11.7721C10.8486 11.8221 11.0586 11.7721 11.3186 11.8421L11.8886 11.9121C12.1056 11.9271 12.3206 11.9671 12.5286 12.0321C12.8586 12.1521 13.1685 12.2921 13.4785 12.4121C13.4964 12.4237 13.5172 12.4299 13.5386 12.4299C13.5599 12.4299 13.5807 12.4237 13.5986 12.4121C13.7286 12.3831 13.8555 12.3421 13.9785 12.2921V12.1821C13.748 12.0534 13.511 11.9366 13.2686 11.8321C12.8139 11.6533 12.3355 11.5421 11.8486 11.5021L11.1885 11.4321C10.8268 11.3722 10.4694 11.2887 10.1186 11.1821C9.75541 11.0499 9.41729 10.8572 9.11855 10.6121C8.8671 10.418 8.67912 10.1534 8.57855 9.85208V9.64208C8.60547 9.63081 8.63436 9.625 8.66355 9.625C8.69274 9.625 8.72163 9.63081 8.74855 9.64208L9.00855 9.92208C9.14855 10.0621 9.28855 10.2021 9.45855 10.3521C9.85455 10.6621 10.3106 10.8871 10.7986 11.0121C11.0786 11.0821 11.3686 11.1321 11.6486 11.1821C12.0986 11.2521 12.5686 11.3221 13.0186 11.4221C13.5521 11.5178 14.0497 11.7562 14.4586 12.1121C14.6286 12.2521 14.7686 12.1821 14.9286 12.1121C15.0133 12.0961 15.1009 12.1078 15.1784 12.1457C15.2559 12.1835 15.3191 12.2454 15.3586 12.3221C15.4786 12.6451 15.4786 12.9991 15.3586 13.3221C15.3478 13.3819 15.3554 13.4435 15.3804 13.4988C15.4054 13.5542 15.4466 13.6007 15.4986 13.6321H15.6186C15.7581 13.5749 15.9104 13.5558 16.0598 13.5769C16.2092 13.598 16.3503 13.6585 16.4685 13.7521C16.5056 13.7813 16.5514 13.7972 16.5986 13.7972C16.6457 13.7972 16.6915 13.7813 16.7285 13.7521C16.9247 13.6604 17.115 13.5569 17.2985 13.4421C17.4885 13.3221 17.3886 13.2721 17.4386 13.1821C17.5067 13.0436 17.617 12.9304 17.7535 12.8585C17.89 12.7866 18.0459 12.7599 18.1986 12.7821C18.4136 12.7821 18.6286 12.8051 18.8386 12.8521C19.0089 12.8979 19.1883 12.8979 19.3586 12.8521C19.4659 12.8392 19.5663 12.7925 19.6454 12.7188C19.7245 12.6451 19.7781 12.5482 19.7985 12.4421V11.8021C19.7985 11.7321 19.7986 11.6621 19.9186 11.6621C20.0386 11.6621 20.0086 11.7521 20.0086 11.8321C20.0806 12.1621 20.0806 12.5021 20.0086 12.8321C19.9886 12.9747 19.9136 13.1038 19.7995 13.1916C19.6855 13.2795 19.5415 13.3192 19.3986 13.3021H18.5485C18.4335 13.2948 18.3196 13.3292 18.2278 13.399C18.136 13.4687 18.0723 13.5692 18.0485 13.6821C18.0375 13.7281 18.0375 13.7761 18.0485 13.8221C18.1185 13.9621 18.1685 14.0821 18.3785 14.0621C18.4905 14.0721 18.5786 14.1601 18.5886 14.2721C18.6103 14.3918 18.6713 14.501 18.7617 14.5824C18.8522 14.6639 18.9672 14.713 19.0886 14.7221L19.3085 14.7121V14.7121ZM13.7386 14.0221C13.8586 14.1451 13.9856 14.2621 14.1186 14.3721C14.1862 14.4232 14.2687 14.4508 14.3535 14.4508C14.4384 14.4508 14.5209 14.4232 14.5886 14.3721C14.7206 14.2936 14.8475 14.2067 14.9686 14.1121V14.0421C14.9572 13.9968 14.9362 13.9545 14.9068 13.9183C14.8774 13.882 14.8405 13.8526 14.7986 13.8321C14.7133 13.8096 14.6238 13.8096 14.5386 13.8321L14.3686 13.9021C14.1982 13.9479 14.0189 13.9479 13.8486 13.9021L13.7386 14.0221V14.0221ZM16.9986 14.3521C17.0393 14.3857 17.0872 14.4096 17.1385 14.4221C17.3136 14.4555 17.4722 14.5471 17.5886 14.6821C17.7046 14.6931 17.8226 14.6931 17.9386 14.6821C18.0086 14.6821 18.0585 14.6121 18.1285 14.5921C18.0713 14.5229 18.0077 14.4593 17.9386 14.4021C17.6406 14.2766 17.3082 14.2589 16.9986 14.3521V14.3521ZM4.53855 17.4321C4.66362 17.5658 4.82302 17.6627 4.99936 17.7121C5.17569 17.7614 5.36221 17.7614 5.53855 17.7121C5.59739 17.6947 5.65145 17.664 5.69653 17.6224C5.74162 17.5808 5.77652 17.5293 5.79855 17.4721C5.42367 17.5587 5.03018 17.5091 4.68855 17.3321C4.52696 17.2399 4.3865 17.1148 4.27626 16.965C4.16602 16.8151 4.08845 16.6438 4.04855 16.4621C3.97367 16.1958 3.98566 15.9126 4.08277 15.6537C4.17989 15.3947 4.35706 15.1734 4.58855 15.0221C4.48527 15.3536 4.51785 15.7126 4.67911 16.0201C4.84036 16.3276 5.11712 16.5585 5.44855 16.6621H5.58855C5.88669 16.7241 6.19699 16.685 6.47044 16.551C6.74389 16.417 6.9649 16.1957 7.09855 15.9221C6.99377 16.0031 6.89361 16.0899 6.79855 16.1821C6.36155 16.4821 5.78555 16.4821 5.34855 16.1821C5.23003 16.1038 5.13195 15.9984 5.0625 15.8745C4.99306 15.7506 4.95427 15.6119 4.94938 15.47C4.94449 15.3281 4.97363 15.187 5.03437 15.0586C5.09512 14.9303 5.1857 14.8183 5.29855 14.7321C5.31199 14.8156 5.34417 14.8949 5.39266 14.9642C5.44115 15.0335 5.50471 15.0909 5.57855 15.1321C5.72534 15.213 5.88395 15.2704 6.04855 15.3021C6.22785 15.3308 6.41137 15.3178 6.58481 15.2641C6.75826 15.2103 6.91696 15.1172 7.04855 14.9921C7.19333 14.8434 7.3057 14.6664 7.37855 14.4721C7.56855 14.0221 7.70855 13.5521 7.91855 13.1021C8.05452 12.8278 8.20472 12.5607 8.36855 12.3021C8.36855 12.2321 8.45855 12.3021 8.50855 12.3021L9.02855 12.5821L9.35855 12.7221L9.21855 12.8421C8.90522 13.1761 8.63633 13.5492 8.41855 13.9521C8.24855 14.2621 8.08855 14.5421 7.94855 14.8521C7.80855 15.1621 7.66855 15.5621 7.54855 15.9121L7.26855 16.7121C7.19855 16.9221 7.09855 17.1121 7.00855 17.3221C6.87449 17.6261 6.64202 17.8762 6.34855 18.0321C6.17615 18.1159 5.98962 18.1667 5.79855 18.1821C5.6093 18.2059 5.4178 18.2059 5.22855 18.1821C5.07538 18.1703 4.92937 18.1124 4.80976 18.016C4.69015 17.9196 4.60257 17.7893 4.55855 17.6421C4.5724 17.5716 4.56545 17.4987 4.53855 17.4321V17.4321ZM18.6086 16.6321C18.6206 16.7421 18.6206 16.8521 18.6086 16.9621C18.6086 17.1021 18.5186 17.1021 18.3986 17.0321L18.1186 16.8921H17.9986C18.039 16.9728 18.0601 17.0618 18.0601 17.1521C18.0601 17.2424 18.039 17.3314 17.9986 17.4121C17.9821 17.4607 17.9506 17.5027 17.9086 17.5321H17.7985L17.7285 17.3221C17.7044 17.2667 17.6593 17.223 17.6032 17.2005C17.547 17.1781 17.4843 17.1786 17.4286 17.2021C17.3359 17.2274 17.248 17.268 17.1686 17.3221H17.0286C16.8559 16.9914 16.7441 16.6323 16.6986 16.2621L16.7985 16.3821C16.8804 16.4445 16.9806 16.4784 17.0835 16.4784C17.1865 16.4784 17.2867 16.4445 17.3686 16.3821C17.3927 16.3304 17.4052 16.2741 17.4052 16.2171C17.4052 16.1601 17.3927 16.1037 17.3686 16.0521C17.3686 15.9821 17.2986 15.9321 17.2786 15.8621C17.4186 15.8621 17.4186 15.7421 17.7786 16.1721L18.0386 16.0321C18.1286 16.0321 18.0386 15.8921 18.0386 15.8421V15.6321L18.2085 15.7021C18.2571 15.7185 18.2992 15.75 18.3286 15.7921C18.4778 15.9604 18.6455 16.1113 18.8286 16.2421C18.8842 16.2881 18.9284 16.3463 18.9579 16.4122C18.9874 16.4781 19.0013 16.5499 18.9986 16.6221V16.7121H18.9286C18.6786 16.6321 18.6786 16.6321 18.6086 16.6321V16.6321ZM6.79855 15.0421C6.60561 14.9284 6.38135 14.8793 6.15855 14.9021C6.06557 14.9136 5.97153 14.9136 5.87855 14.9021C5.82032 14.8924 5.76513 14.8693 5.71738 14.8346C5.66963 14.7999 5.63062 14.7545 5.60345 14.7021C5.57627 14.6497 5.56168 14.5917 5.56083 14.5327C5.55998 14.4737 5.5729 14.4152 5.59855 14.3621C5.68855 14.3621 5.76855 14.4821 5.85855 14.5321C5.94855 14.5821 5.97855 14.5321 5.97855 14.4621C5.97537 14.4037 5.98989 14.3457 6.02023 14.2958C6.05057 14.2458 6.0953 14.2062 6.14855 14.1821C6.22473 14.1553 6.30671 14.1496 6.38589 14.1654C6.46506 14.1812 6.53852 14.2181 6.59855 14.2721C6.80055 14.4721 6.87855 14.7681 6.79855 15.0421Z" fill="white"/>
</g>
<defs>
<clipPath id="clip0_0_1351">
<rect width="32" height="32" fill="white"/>
</clipPath>
</defs>
</svg>
