<svg width="32" height="32" viewBox="0 0 32 32" fill="none" xmlns="http://www.w3.org/2000/svg">
<g clip-path="url(#clip0_0_1343)">
<path d="M16 32C24.8366 32 32 24.8366 32 16C32 7.16344 24.8366 0 16 0C7.16344 0 0 7.16344 0 16C0 24.8366 7.16344 32 16 32Z" fill="#FF6600"/>
<path d="M17.078 19.356C22.158 17.789 20.345 12.522 17.078 12.322C17.908 12.322 18.586 9.945 18.586 7C26.562 7.567 30.309 20.711 18.346 24.823C18.423 23.756 17.986 20.778 17.079 19.356H17.078ZM6 17.8V12.333H6.01C8.895 12.322 11.222 9.933 11.212 7.011H16.772C16.773 12.977 11.955 17.8 6 17.8ZM13.287 16.81C16.587 19.522 16.773 24.089 16.773 25H11.212C11.212 21.978 9.245 19.533 6.809 19.533C10.939 18.867 11.78 18.167 13.287 16.811V16.81Z" fill="white"/>
</g>
<defs>
<clipPath id="clip0_0_1343">
<rect width="32" height="32" fill="white"/>
</clipPath>
</defs>
</svg>
