<svg width="32" height="32" viewBox="0 0 32 32" fill="none" xmlns="http://www.w3.org/2000/svg">
<g clip-path="url(#clip0_0_1336)">
<path d="M16 32C24.8366 32 32 24.8366 32 16C32 7.16344 24.8366 0 16 0C7.16344 0 0 7.16344 0 16C0 24.8366 7.16344 32 16 32Z" fill="#4700C2"/>
<path fill-rule="evenodd" clip-rule="evenodd" d="M13.253 14.6445C12.943 14.8465 12.588 15.0605 12.22 15.2845V17.3055C12.554 17.1365 12.898 16.9655 13.253 16.7965V14.6435V14.6445ZM8.08602 18.3815C8.17989 18.5635 8.34164 18.7012 8.53628 18.7648C8.73091 18.8284 8.94277 18.8129 9.12602 18.7215L10.092 18.2345C10.098 17.4225 10.102 16.8055 10.102 16.5605V16.4955C9.28202 16.9035 8.66002 17.2165 8.42102 17.3355C8.23795 17.4298 8.09984 17.593 8.03702 17.7892C7.97421 17.9853 7.99183 18.1983 8.08602 18.3815V18.3815ZM13.545 18.1765C13.5446 18.2779 13.5642 18.3783 13.6028 18.4721C13.6413 18.5658 13.6979 18.6511 13.7695 18.7229C13.841 18.7947 13.926 18.8517 14.0197 18.8906C14.1133 18.9295 14.2136 18.9495 14.315 18.9495H14.324C14.5289 18.9492 14.7252 18.8677 14.87 18.7227C15.0147 18.5778 15.096 18.3813 15.096 18.1765V11.7735C15.0959 11.6634 15.0724 11.5547 15.027 11.4545C14.9815 11.3542 14.9153 11.2648 14.8325 11.1922C14.7498 11.1197 14.6526 11.0655 14.5473 11.0335C14.442 11.0015 14.3311 10.9923 14.222 11.0065C14.0357 11.0295 13.8643 11.1199 13.7401 11.2606C13.6159 11.4014 13.5476 11.5828 13.548 11.7705V14.9685C13.545 16.0425 13.545 17.1085 13.545 18.1765Z" fill="white"/>
<path fill-rule="evenodd" clip-rule="evenodd" d="M24.985 13.0525C24.936 12.6785 24.688 12.4705 24.311 12.3725C24.011 12.2955 23.701 12.2805 23.385 12.2775C22.649 12.2745 21.919 12.3935 21.195 12.5345C20.149 12.7375 19.115 12.9975 18.098 13.3145C17.791 13.4085 17.488 13.5065 17.181 13.6045L17.178 13.5925L17.233 13.5465C17.825 13.0405 18.413 12.5345 19.009 12.0345C20.315 10.9305 21.493 9.71952 22.587 8.44152C22.885 8.09452 23.142 7.72352 23.274 7.30052C23.474 6.66552 23.25 6.27052 22.606 6.09252C22.3331 6.02647 22.0528 5.99555 21.772 6.00052C21.158 5.99752 20.552 6.09852 19.953 6.22052C19.328 6.35052 18.423 6.58052 17.81 6.76652C16.829 7.06652 15.617 7.58252 14.535 8.02052C13.983 8.23552 13.395 8.51152 12.845 8.72652L10.766 9.57252C8.00602 10.7595 7.20302 9.90652 7.20302 9.90652C7.20302 9.91052 7.20402 9.91352 7.20602 9.91652C7.20078 9.90884 7.19674 9.90041 7.19402 9.89152C6.65702 10.9495 7.10402 12.8715 10.208 11.4985C10.696 11.3085 11.192 11.1025 11.677 10.9155C12.612 10.5505 13.538 10.0995 14.477 9.73852C15.1229 9.47282 15.774 9.2201 16.43 8.98052L17.022 8.75052C17.629 8.55052 18.236 8.35252 18.855 8.19852C19.53 8.02452 20.119 7.91952 20.475 7.96552C20.511 7.96852 20.548 7.97152 20.582 7.97852C20.744 7.99952 20.83 8.08552 20.815 8.19852C20.809 8.37352 20.527 8.95352 17.96 11.0905C17.773 11.2505 17.586 11.4125 17.399 11.5715C17.111 11.8205 16.832 12.0655 16.549 12.3115L16.313 12.5195L16.31 12.5225L16.2 12.6205C16.1914 12.6296 16.182 12.638 16.172 12.6455L16.145 12.6695L15.93 12.8325C15.9154 12.8466 15.9 12.86 15.884 12.8725V15.5855C16.792 15.2755 21.21 13.8015 21.686 14.2335C21.723 14.2835 22.284 14.6325 17.147 18.1465C16.945 18.2995 16.749 18.4525 16.547 18.6065L15.804 19.1735C14.875 19.8455 13.952 20.5195 13.024 21.1915L12.621 21.4825C12.615 22.2155 12.612 22.9175 12.609 23.5625L22.409 16.3305C23.0067 15.8269 23.5731 15.2872 24.105 14.7145C24.405 14.3935 24.675 14.0525 24.853 13.6635C24.945 13.4605 25.013 13.2645 24.985 13.0535V13.0525ZM9.01802 24.1745C8.89171 24.332 8.82729 24.5302 8.83686 24.7319C8.84644 24.9335 8.92936 25.1247 9.07002 25.2695C9.19839 25.4056 9.36939 25.4938 9.5547 25.5194C9.74001 25.545 9.92852 25.5066 10.089 25.4105L10.481 25.1225C10.484 24.5335 10.491 23.8165 10.496 23.0425L9.17202 24.0245C9.11482 24.0681 9.06311 24.1185 9.01802 24.1745Z" fill="white"/>
<path fill-rule="evenodd" clip-rule="evenodd" d="M12.601 12.5738C12.5524 12.3922 12.4393 12.2345 12.2829 12.1301C12.1264 12.0258 11.9374 11.9819 11.751 12.0068C11.5647 12.0298 11.3933 12.1202 11.2691 12.2609C11.1449 12.4017 11.0766 12.5831 11.077 12.7708V15.9688C11.077 16.6158 11.049 19.8268 11.025 22.4908C11.019 23.2548 11.012 23.9718 11.009 24.5708C11.003 25.3308 11 25.9008 11 26.1338C10.9996 26.2352 11.0192 26.3356 11.0578 26.4294C11.0963 26.5232 11.1529 26.6084 11.2245 26.6802C11.296 26.752 11.381 26.809 11.4746 26.8479C11.5683 26.8868 11.6686 26.9068 11.77 26.9068H11.779C11.984 26.9068 12.1806 26.8254 12.3256 26.6804C12.4706 26.5354 12.552 26.3388 12.552 26.1338C12.552 25.5978 12.558 24.6188 12.564 23.4198C12.567 22.7798 12.574 22.0738 12.576 21.3408C12.598 18.0078 12.628 14.0808 12.626 12.7708C12.6253 12.7044 12.6169 12.6383 12.601 12.5738V12.5738Z" fill="white"/>
</g>
<defs>
<clipPath id="clip0_0_1336">
<rect width="32" height="32" fill="white"/>
</clipPath>
</defs>
</svg>
