<svg width="32" height="32" viewBox="0 0 32 32" fill="none" xmlns="http://www.w3.org/2000/svg">
<g clip-path="url(#clip0_0_1332)">
<path d="M16 32C24.8366 32 32 24.8366 32 16C32 7.16344 24.8366 0 16 0C7.16344 0 0 7.16344 0 16C0 24.8366 7.16344 32 16 32Z" fill="#272D63"/>
<path d="M20.215 7.2L19.515 10.042C21.679 10.798 23.272 11.932 22.961 14.032C22.871 14.67 22.651 15.309 22.197 15.792C21.808 16.209 21.2 16.43 20.681 16.6C20.0587 16.8105 19.4078 16.9248 18.751 16.939C18.311 16.939 17.883 16.926 17.443 16.887C16.731 16.834 16.005 16.769 15.306 16.613C15.086 16.561 14.878 16.522 14.684 16.469L13.738 20.289L13.181 22.375L12.481 25.231L10.759 24.801L11.472 21.919C11.07 21.815 10.655 21.698 10.241 21.593L8 21.033L8.855 19.063C8.855 19.063 10.125 19.403 10.111 19.377C10.604 19.494 10.811 19.168 10.901 18.96L11.873 15.048L12.326 13.236L12.845 11.15C12.87 10.785 12.741 10.316 12.041 10.146C12.067 10.133 10.785 9.833 10.785 9.833L11.238 7.982L13.608 8.582C13.972 8.672 14.334 8.751 14.71 8.842L15.41 6L17.132 6.43L16.446 9.22C16.899 9.325 17.366 9.429 17.819 9.546L18.492 6.769L20.215 7.2ZM20.073 17.5C20.552 17.421 21.135 17.226 21.549 17.056C21.562 17.043 21.589 17.043 21.601 17.03C22.495 17.825 22.922 19.116 22.339 20.772C21.419 23.458 19.205 23.679 16.277 23.119L15.565 26L13.855 25.57L14.515 22.819L14.541 22.728L15.06 20.615C16.588 20.955 18.648 21.176 19.036 19.585C19.244 18.738 18.842 18.125 18.194 17.682L18.868 17.642C19.348 17.617 19.593 17.578 20.073 17.499V17.5ZM19.567 14.005C20.073 11.958 16.937 11.515 15.967 11.255L15.111 14.722C16.083 14.97 19.088 15.961 19.567 14.005Z" fill="#FEFEFE"/>
</g>
<defs>
<clipPath id="clip0_0_1332">
<rect width="32" height="32" fill="white"/>
</clipPath>
</defs>
</svg>
