<svg width="32" height="32" viewBox="0 0 32 32" fill="none" xmlns="http://www.w3.org/2000/svg">
<g clip-path="url(#clip0_0_1328)">
<path d="M16 32C24.8366 32 32 24.8366 32 16C32 7.16344 24.8366 0 16 0C7.16344 0 0 7.16344 0 16C0 24.8366 7.16344 32 16 32Z" fill="#F8C24A"/>
<path d="M16 27C9.934 27 5 22.066 5 16C5 9.934 9.937 5 16 5C22.063 5 27 9.937 27 16C27 17.002 26.864 18 26.595 18.966C26.5275 19.188 26.3758 19.3748 26.1723 19.4864C25.9689 19.598 25.7298 19.6255 25.5063 19.563C25.2828 19.5005 25.0927 19.3531 24.9765 19.1521C24.8604 18.9512 24.8276 18.7128 24.885 18.488C25.11 17.678 25.225 16.841 25.224 16C25.224 10.914 21.086 6.776 16 6.776C10.914 6.776 6.776 10.914 6.776 16C6.776 21.086 10.914 25.224 16 25.224C16.952 25.224 17.899 25.078 18.806 24.789C18.918 24.7504 19.0365 24.7345 19.1547 24.7424C19.2729 24.7503 19.3883 24.7817 19.4941 24.8349C19.5999 24.888 19.6941 24.9618 19.771 25.0519C19.8479 25.142 19.906 25.2465 19.9418 25.3594C19.9777 25.4722 19.9907 25.5911 19.9799 25.7091C19.9692 25.827 19.9349 25.9416 19.8792 26.0461C19.8235 26.1507 19.7475 26.243 19.6556 26.3176C19.5636 26.3923 19.4577 26.4479 19.344 26.481C18.2629 26.8259 17.1348 27.001 16 27V27ZM19.375 15.974C19.755 16.292 20.011 16.752 20.143 17.353C20.229 17.699 20.223 18.062 20.127 18.405C20.031 18.7231 19.8618 19.0142 19.633 19.255C19.3825 19.5157 19.0888 19.7312 18.765 19.892C18.423 20.069 18.342 20.126 17.934 20.216L17.68 20.277C17.6047 20.2953 17.5395 20.3424 17.4986 20.4083C17.4576 20.4741 17.4441 20.5533 17.461 20.629L17.611 21.301C17.6194 21.339 17.6202 21.3783 17.6134 21.4167C17.6066 21.455 17.5922 21.4916 17.5712 21.5244C17.5502 21.5572 17.523 21.5855 17.491 21.6077C17.4591 21.63 17.423 21.6457 17.385 21.654L16.708 21.804C16.67 21.8124 16.6308 21.8133 16.5925 21.8065C16.5543 21.7997 16.5177 21.7855 16.4849 21.7646C16.4521 21.7437 16.4238 21.7166 16.4015 21.6847C16.3792 21.6529 16.3634 21.617 16.355 21.579L16.207 20.912C16.1986 20.874 16.1828 20.8381 16.1605 20.8063C16.1382 20.7744 16.1099 20.7473 16.0771 20.7264C16.0443 20.7055 16.0077 20.6913 15.9695 20.6845C15.9312 20.6777 15.892 20.6786 15.854 20.687L14.021 21.093C13.834 21.1341 13.6384 21.0992 13.4771 20.9961C13.3159 20.8929 13.2021 20.73 13.161 20.543L11.511 13.084C11.4699 12.897 11.5048 12.7014 11.6079 12.5401C11.7111 12.3789 11.874 12.2651 12.061 12.224L13.894 11.818C13.932 11.8096 13.9679 11.7938 13.9997 11.7715C14.0316 11.7492 14.0587 11.7209 14.0796 11.6881C14.1005 11.6553 14.1147 11.6187 14.1215 11.5805C14.1283 11.5422 14.1274 11.503 14.119 11.465L13.969 10.793C13.9608 10.755 13.9601 10.7157 13.9671 10.6774C13.974 10.6392 13.9885 10.6026 14.0095 10.5699C14.0306 10.5373 14.0579 10.509 14.0899 10.4869C14.1219 10.4648 14.158 10.4492 14.196 10.441L14.873 10.291C14.911 10.2826 14.9502 10.2817 14.9885 10.2885C15.0267 10.2953 15.0633 10.3095 15.0961 10.3304C15.1289 10.3513 15.1572 10.3784 15.1795 10.4103C15.2018 10.4421 15.2176 10.478 15.226 10.516L15.374 11.184C15.3912 11.2605 15.438 11.327 15.5042 11.369C15.5704 11.411 15.6505 11.425 15.727 11.408L16.287 11.286C16.577 11.218 16.88 11.223 17.167 11.301C17.441 11.376 17.697 11.504 17.92 11.678C18.3731 12.0398 18.6886 12.5459 18.814 13.112C18.908 13.532 18.889 13.97 18.76 14.382C18.6263 14.8093 18.3571 15.1814 17.993 15.442C18.499 15.466 18.983 15.652 19.375 15.974V15.974ZM13.945 14.377L14.043 14.803C14.0841 14.99 14.1979 15.1529 14.3591 15.2561C14.5204 15.3592 14.716 15.3941 14.903 15.353L16.21 15.063C16.4311 15.0159 16.627 14.8888 16.76 14.706C16.901 14.518 16.937 14.266 16.867 13.949C16.802 13.657 16.675 13.449 16.487 13.325C16.3986 13.2643 16.2985 13.2228 16.1931 13.2031C16.0877 13.1835 15.9793 13.1862 15.875 13.211L14.495 13.516C14.4023 13.5364 14.3146 13.5748 14.2368 13.6291C14.159 13.6834 14.0926 13.7525 14.0415 13.8325C13.9904 13.9125 13.9556 14.0017 13.9391 14.0951C13.9225 14.1886 13.9245 14.2843 13.945 14.377V14.377ZM17.854 18.144H17.856C17.9241 18.0339 17.969 17.911 17.9879 17.7829C18.0068 17.6547 17.9994 17.5241 17.966 17.399C17.9166 17.1433 17.7772 16.9137 17.573 16.752C17.4821 16.6765 17.3749 16.6231 17.2598 16.596C17.1448 16.569 17.025 16.569 16.91 16.596L15.254 16.963C15.067 17.0041 14.9041 17.1179 14.8009 17.2791C14.6978 17.4404 14.6629 17.636 14.704 17.823L14.82 18.35C14.8404 18.4427 14.8788 18.5304 14.9331 18.6082C14.9874 18.686 15.0565 18.7524 15.1365 18.8035C15.2165 18.8546 15.3057 18.8894 15.3991 18.9059C15.4926 18.9225 15.5883 18.9205 15.681 18.9L17.25 18.553C17.3733 18.5298 17.4906 18.4816 17.5945 18.4112C17.6984 18.3409 17.7867 18.2499 17.854 18.144V18.144ZM21.152 23.527L22.685 21.695C22.7189 21.6546 22.7406 21.6053 22.7474 21.5529C22.7543 21.5006 22.746 21.4474 22.7236 21.3996C22.7013 21.3517 22.6657 21.3113 22.6211 21.2831C22.5765 21.2548 22.5248 21.2399 22.472 21.24H21.44C21.4035 21.2401 21.3674 21.2331 21.3337 21.2192C21.3 21.2053 21.2693 21.185 21.2435 21.1592C21.2177 21.1335 21.1972 21.1029 21.1832 21.0692C21.1692 21.0356 21.162 20.9995 21.162 20.963V20.747C21.162 20.594 21.286 20.47 21.44 20.47H23.798C23.8715 20.47 23.9419 20.4992 23.9939 20.5511C24.0458 20.6031 24.075 20.6735 24.075 20.747V21.031C24.075 21.0935 24.0538 21.1541 24.015 21.203L22.548 23.045C22.5154 23.0858 22.495 23.135 22.4891 23.1869C22.4832 23.2388 22.4921 23.2913 22.5148 23.3383C22.5375 23.3854 22.573 23.425 22.6173 23.4528C22.6616 23.4805 22.7128 23.4951 22.765 23.495H23.816C23.969 23.495 24.094 23.619 24.094 23.772V23.987C24.094 24.0235 24.0868 24.0596 24.0728 24.0932C24.0588 24.1269 24.0383 24.1575 24.0125 24.1832C23.9867 24.209 23.956 24.2293 23.9223 24.2432C23.8886 24.2571 23.8525 24.2641 23.816 24.264H21.364C21.2905 24.264 21.2201 24.2348 21.1681 24.1829C21.1162 24.1309 21.087 24.0605 21.087 23.987V23.707C21.0869 23.6412 21.1099 23.5775 21.152 23.527V23.527Z" fill="white"/>
</g>
<defs>
<clipPath id="clip0_0_1328">
<rect width="32" height="32" fill="white"/>
</clipPath>
</defs>
</svg>
