<svg width="32" height="32" viewBox="0 0 32 32" fill="none" xmlns="http://www.w3.org/2000/svg">
<g clip-path="url(#clip0_0_1322)">
<path d="M16 32C24.8366 32 32 24.8366 32 16C32 7.16344 24.8366 0 16 0C7.16344 0 0 7.16344 0 16C0 24.8366 7.16344 32 16 32Z" fill="#00AAFF"/>
<path d="M16.022 5C9.934 5 5 9.934 5 16.022C5 22.109 9.934 27.045 16.022 27.045C22.109 27.045 27.045 22.109 27.045 16.022C27.045 9.934 22.109 5 16.022 5V5ZM16.057 6.746C16.939 6.74573 17.8079 6.95845 18.59 7.36607C19.3722 7.77369 20.0443 8.36416 20.5492 9.08726C21.0542 9.81037 21.377 10.6447 21.4903 11.5194C21.6036 12.394 21.504 13.2831 21.2 14.111C20.7265 14.0278 20.241 14.041 19.7727 14.1495C19.3043 14.2581 18.8626 14.46 18.474 14.743C18.814 14.4179 19.0844 14.0272 19.269 13.5946C19.4536 13.162 19.5485 12.6964 19.548 12.226C19.5477 11.2994 19.1797 10.4108 18.5248 9.75531C17.8699 9.09982 16.9816 8.73106 16.055 8.73C15.1902 8.7307 14.3563 9.052 13.7147 9.63179C13.073 10.2116 12.6691 11.0087 12.581 11.869C11.9241 11.7516 11.2522 11.7449 10.593 11.849C10.688 10.4645 11.3049 9.16768 12.3191 8.22047C13.3333 7.27327 14.6693 6.74629 16.057 6.746V6.746ZM18.072 17.038L16.134 15.878C16.0708 15.8399 15.9983 15.82 15.9246 15.8206C15.8508 15.8211 15.7786 15.842 15.716 15.881L14.016 16.931C13.9495 16.9715 13.8963 17.0306 13.8629 17.101C13.8295 17.1713 13.8174 17.2499 13.828 17.327C13.8727 17.6503 13.849 17.9794 13.7585 18.293C13.668 18.6066 13.5127 18.8977 13.3026 19.1475C13.0925 19.3973 12.8323 19.6002 12.5388 19.7431C12.2454 19.886 11.9252 19.9657 11.599 19.977C11.2876 19.9868 10.9774 19.9338 10.6869 19.8213C10.3964 19.7088 10.1315 19.5389 9.90792 19.3219C9.68437 19.1049 9.50677 18.8451 9.38566 18.5581C9.26456 18.271 9.20244 17.9626 9.203 17.651C9.20651 17.0424 9.44736 16.4593 9.87431 16.0256C10.3013 15.592 10.8806 15.342 11.489 15.329C11.8231 15.3233 12.1545 15.3899 12.4605 15.5242C12.7665 15.6585 13.0399 15.8573 13.262 16.107C13.386 16.247 13.592 16.277 13.754 16.187L15.392 15.268C15.4542 15.2328 15.506 15.1818 15.5422 15.1202C15.5783 15.0585 15.5976 14.9885 15.598 14.917V14.817C15.5975 14.7325 15.5705 14.6503 15.5208 14.582C15.4711 14.5136 15.4012 14.4626 15.321 14.436C14.7883 14.2583 14.3378 13.8939 14.0528 13.41C13.7678 12.9262 13.6674 12.3555 13.7703 11.8035C13.8731 11.2514 14.1722 10.7552 14.6124 10.4064C15.0526 10.0576 15.604 9.87991 16.165 9.906C16.7315 9.93523 17.2679 10.1698 17.6739 10.5659C18.0799 10.962 18.3277 11.4924 18.371 12.058C18.4112 12.6001 18.26 13.139 17.9437 13.5811C17.6274 14.0231 17.166 14.3401 16.64 14.477C16.5526 14.4985 16.4749 14.5486 16.4192 14.6192C16.3634 14.6898 16.3327 14.777 16.332 14.867V14.884C16.332 15.024 16.406 15.153 16.524 15.227L18.245 16.285C18.3278 16.3365 18.4265 16.3559 18.5226 16.3397C18.6188 16.3235 18.7057 16.2728 18.767 16.197C18.9907 15.9178 19.2758 15.6941 19.6002 15.5432C19.9246 15.3923 20.2794 15.3183 20.637 15.327C21.2536 15.3507 21.8356 15.6185 22.2548 16.0713C22.674 16.5241 22.8962 17.1249 22.8725 17.7415C22.8488 18.3581 22.581 18.9401 22.1282 19.3593C21.6754 19.7785 21.0746 20.0007 20.458 19.977C20.1439 19.9599 19.8366 19.8794 19.5544 19.7403C19.2722 19.6013 19.0211 19.4066 18.8162 19.168C18.6112 18.9295 18.4566 18.6519 18.3617 18.352C18.2668 18.0521 18.2336 17.7361 18.264 17.423C18.272 17.3472 18.2582 17.2707 18.2242 17.2025C18.1902 17.1343 18.1374 17.0772 18.072 17.038V17.038ZM11.525 23.071C10.8129 23.0713 10.1076 22.9312 9.44963 22.6588C8.79163 22.3865 8.19374 21.9871 7.69013 21.4836C7.18652 20.9801 6.78705 20.3822 6.51455 19.7243C6.24206 19.0663 6.10187 18.3611 6.102 17.649C6.10148 16.8487 6.27815 16.0583 6.61933 15.3344C6.96051 14.6105 7.45772 13.9711 8.07529 13.4621C8.69285 12.9532 9.41544 12.5873 10.1912 12.3906C10.9669 12.194 11.7766 12.1716 12.562 12.325C12.588 13.2418 12.9738 14.1115 13.636 14.746C13.0242 14.2989 12.2857 14.0586 11.528 14.06C10.5864 14.0757 9.68864 14.4608 9.02831 15.1323C8.36797 15.8037 7.99791 16.7077 7.99791 17.6495C7.99791 18.5913 8.36797 19.4953 9.02831 20.1667C9.68864 20.8382 10.5864 21.2233 11.528 21.239C12.2455 21.2389 12.9465 21.0235 13.5402 20.6205C14.1339 20.2176 14.5929 19.6458 14.858 18.979C15.029 19.725 15.345 20.414 15.771 21.022C15.2639 21.662 14.6184 22.1789 13.8831 22.5339C13.1477 22.8889 12.3416 23.0729 11.525 23.072V23.071ZM20.581 23.071C19.2066 23.0709 17.8834 22.549 16.879 21.6109C15.8746 20.6727 15.2638 19.3882 15.17 18.017C15.7804 18.1099 16.4017 18.1062 17.011 18.006C17.0757 18.655 17.316 19.2742 17.7061 19.7969C18.0962 20.3197 18.6213 20.7263 19.225 20.973C19.8288 21.2198 20.4884 21.2974 21.1329 21.1976C21.7775 21.0977 22.3827 20.8241 22.8835 20.4062C23.3842 19.9883 23.7617 19.4419 23.9753 18.8256C24.1889 18.2093 24.2306 17.5465 24.0959 16.9083C23.9611 16.2701 23.6551 15.6807 23.2106 15.2034C22.7661 14.726 22.2 14.3788 21.573 14.199C21.7812 13.6182 21.8953 13.0078 21.911 12.391C23.1909 12.7172 24.3078 13.4992 25.0522 14.5903C25.7965 15.6814 26.1172 17.0066 25.954 18.3173C25.7907 19.628 25.1549 20.8341 24.1656 21.7093C23.1764 22.5845 21.9018 23.0687 20.581 23.071V23.071Z" fill="white"/>
<path d="M16 3C8.821 3 3 8.821 3 16C3 23.179 8.821 29 16 29C23.179 29 29 23.179 29 16C29 8.821 23.179 3 16 3ZM15.962 28.022C9.302 28.022 3.904 22.624 3.904 15.964C3.904 9.304 9.302 3.907 15.962 3.907C22.621 3.907 28.019 9.305 28.019 15.964C28.019 22.624 22.621 28.022 15.962 28.022V28.022Z" fill="white"/>
</g>
<defs>
<clipPath id="clip0_0_1322">
<rect width="32" height="32" fill="white"/>
</clipPath>
</defs>
</svg>
