<svg width="32" height="32" viewBox="0 0 32 32" fill="none" xmlns="http://www.w3.org/2000/svg">
<g clip-path="url(#clip0_0_1314)">
<path d="M16 32C24.8366 32 32 24.8366 32 16C32 7.16344 24.8366 0 16 0C7.16344 0 0 7.16344 0 16C0 24.8366 7.16344 32 16 32Z" fill="#504C4C"/>
<path d="M10.827 15.376L9.082 19.074L9.894 22.106L11.96 22.658L14.524 25.225L13.752 26L7.64 24.36L6 18.248L7.23 17.02L12.572 11.677L10.827 15.376L9.082 19.074L14.524 13.632L12.572 11.677L10.827 15.376V15.376ZM13.632 17.476L19.074 22.918L22.106 22.106L22.66 20.04L25.225 17.476L26 18.248L24.362 24.362L18.248 26L11.679 19.428L13.632 17.476V17.476ZM18.368 14.524L12.926 9.082L9.892 9.894L9.34 11.957L6.775 14.524L6 13.752L7.64 7.638L13.752 6L14.98 7.23L20.32 12.57L18.368 14.524V14.524ZM20.04 9.34L17.476 6.775L18.248 6L24.362 7.638L26 13.752L19.428 20.321L17.476 18.368L22.92 12.924L22.106 9.892L20.04 9.34V9.34Z" fill="white"/>
</g>
<defs>
<clipPath id="clip0_0_1314">
<rect width="32" height="32" fill="white"/>
</clipPath>
</defs>
</svg>
