<svg width="32" height="32" viewBox="0 0 32 32" fill="none" xmlns="http://www.w3.org/2000/svg">
<g clip-path="url(#clip0_0_1310)">
<path d="M16 32C24.8366 32 32 24.8366 32 16C32 7.16344 24.8366 0 16 0C7.16344 0 0 7.16344 0 16C0 24.8366 7.16344 32 16 32Z" fill="#35BAEB"/>
<path d="M9.00017 5L15.2742 10.565C15.3472 10.632 15.4262 10.688 15.4872 10.76C15.4941 10.8026 15.4972 10.8458 15.4962 10.889C15.4932 13.286 15.5022 15.681 15.4932 18.075C15.1794 18.1396 14.8786 18.2562 14.6032 18.42L9.06017 12.878C9.03881 12.8606 9.02219 12.8381 9.01187 12.8126C9.00156 12.7871 8.99788 12.7593 9.00117 12.732C9.00717 10.154 9.00117 7.578 9.00717 5.002L9.00017 5ZM16.4472 13.607C17.9665 13.7086 19.4108 14.305 20.5592 15.305C20.2322 15.655 19.8792 15.985 19.5412 16.328C18.8272 17.04 18.1182 17.758 17.4012 18.463C17.1115 18.274 16.7884 18.1423 16.4492 18.075C16.4412 16.588 16.4492 15.098 16.4492 13.607H16.4472ZM9.00317 14.275C10.6312 15.888 12.2492 17.512 13.8742 19.128C13.6842 19.423 13.5482 19.748 13.4722 20.091H9.00017V14.272L9.00317 14.275V14.275ZM20.6092 16.608C20.8222 16.404 21.0172 16.185 21.2422 15.988C22.2422 17.1318 22.8394 18.5721 22.9422 20.088C21.4752 20.094 20.0052 20.088 18.5382 20.091C18.4502 20.111 18.4502 20.009 18.4332 19.954C18.3629 19.6644 18.2413 19.3897 18.0742 19.143C18.9142 18.297 19.7632 17.454 20.6092 16.611V16.608V16.608ZM9.00017 21.042H12.8212C13.0402 21.042 13.2592 21.032 13.4812 21.047C13.5492 21.385 13.6812 21.707 13.8682 21.995L10.7682 25.087C10.7452 25.105 10.7072 25.16 10.6802 25.117C9.69085 23.9782 9.1009 22.5472 9.00017 21.042ZM18.4622 21.047C19.0922 21.033 19.7162 21.047 20.3462 21.042H22.9422C22.844 22.5346 22.2624 23.9545 21.2852 25.087L19.4772 23.285C19.0252 22.83 18.5642 22.383 18.1172 21.922C18.2842 21.654 18.4012 21.357 18.4622 21.047V21.047ZM17.2082 22.777C17.2782 22.737 17.3482 22.695 17.4182 22.66L20.5742 25.81C19.4243 26.8184 17.9734 27.4186 16.4472 27.517V23.054C16.7128 23.0006 16.9686 22.9061 17.2052 22.774L17.2082 22.777V22.777ZM12.6172 24.571C13.2592 23.935 13.8942 23.291 14.5422 22.661C14.8322 22.847 15.1552 22.981 15.4922 23.054V27.517C13.9722 27.4179 12.5272 26.8211 11.3802 25.819C11.7832 25.396 12.2062 24.991 12.6172 24.574V24.571Z" fill="white"/>
</g>
<defs>
<clipPath id="clip0_0_1310">
<rect width="32" height="32" fill="white"/>
</clipPath>
</defs>
</svg>
