<svg width="32" height="32" viewBox="0 0 32 32" fill="none" xmlns="http://www.w3.org/2000/svg">
<g clip-path="url(#clip0_0_1302)">
<path d="M16 32C24.8366 32 32 24.8366 32 16C32 7.16344 24.8366 0 16 0C7.16344 0 0 7.16344 0 16C0 24.8366 7.16344 32 16 32Z" fill="black"/>
<path d="M27.6335 13.5395C27.4753 12.7713 27.2415 12.0207 26.9355 11.2985C26.6339 10.5872 26.2649 9.90645 25.8335 9.26551C25.4058 8.63229 24.9178 8.04188 24.3765 7.50251C23.8368 6.96115 23.2461 6.47321 22.6125 6.04551C21.9706 5.61629 21.2904 5.24738 20.5805 4.94351C19.1125 4.32087 17.5341 4 15.9395 4C14.3449 4 12.7666 4.32087 11.2985 4.94351C9.87896 5.54227 8.58962 6.41179 7.50251 7.50351C6.96125 8.04257 6.47332 8.63264 6.04551 9.26551C5.61624 9.90772 5.24733 10.5883 4.94351 11.2985C4.32087 12.7666 4 14.3449 4 15.9395C4 17.5341 4.32087 19.1125 4.94351 20.5805C5.23751 21.2905 5.61751 21.9635 6.04551 22.6125C6.47329 23.246 6.96122 23.8368 7.50251 24.3765C8.0422 24.9179 8.63294 25.4058 9.26651 25.8335C9.90251 26.2615 10.5885 26.6295 11.2985 26.9355C12.7666 27.5581 14.3449 27.879 15.9395 27.879C17.5341 27.879 19.1125 27.5581 20.5805 26.9355C21.2905 26.6415 21.9635 26.2615 22.6125 25.8335C23.2461 25.4058 23.8368 24.9179 24.3765 24.3765C24.9179 23.8368 25.4058 23.2461 25.8335 22.6125C26.2615 21.9765 26.6295 21.2905 26.9355 20.5805C27.8775 18.3588 28.121 15.9029 27.6335 13.5395V13.5395ZM15.9505 26.3845C10.1835 26.3845 5.51851 21.7065 5.51851 15.9515C5.51851 10.1965 10.1965 5.51851 15.9505 5.51851C21.7055 5.51851 26.3835 10.1965 26.3835 15.9515C26.3835 21.7065 21.7065 26.3845 15.9505 26.3845Z" fill="white"/>
<path d="M16.596 25.886H16.878C16.927 25.886 16.975 25.886 17.024 25.873H17.037C17.086 25.873 17.122 25.873 17.171 25.861H17.208C17.245 25.861 17.282 25.861 17.318 25.849H17.355C17.392 25.849 17.429 25.837 17.478 25.837H17.502C17.551 25.837 17.6 25.824 17.649 25.824C17.698 25.824 17.735 25.812 17.784 25.8H17.808C17.845 25.8 17.882 25.788 17.918 25.788H17.943C17.992 25.775 18.029 25.775 18.078 25.763C18.175 25.751 18.273 25.726 18.359 25.702H18.384C18.42 25.69 18.469 25.69 18.506 25.677H18.518C18.616 25.653 18.702 25.628 18.8 25.604C17.8828 25.6331 16.9656 25.5467 16.07 25.347C14.722 25.053 13.437 24.527 12.347 23.62C11.4877 22.9049 10.7981 22.0077 10.328 20.9934C9.85792 19.979 9.61917 18.8729 9.629 17.755C9.63782 16.0872 10.2313 14.4753 11.306 13.2C12.702 11.547 14.686 10.677 16.718 10.628H17V9H16.682C16.0638 9.01133 15.4484 9.08503 14.845 9.22C14.2378 9.3573 13.6469 9.55841 13.082 9.82C12.506 10.09 11.967 10.42 11.465 10.8C10.9463 11.1943 10.4739 11.6462 10.057 12.147C9.66446 12.6105 9.32377 13.1155 9.041 13.653C8.76125 14.1712 8.5354 14.7167 8.367 15.281C8.20181 15.8366 8.09128 16.4069 8.037 16.984L8 17.522V17.84C8.012 18.465 8.086 19.077 8.22 19.677C8.355 20.29 8.563 20.877 8.82 21.441C9.127 22.114 9.678 23.106 10.498 23.853C12.1723 25.1729 14.243 25.8892 16.375 25.886H16.596Z" fill="white"/>
<path d="M19.1862 24.212C18.5823 24.1904 17.9807 24.1249 17.3862 24.016C14.8642 23.563 12.6962 22.02 11.9012 19.694C10.9332 16.865 12.4152 13.804 15.2312 12.874C15.7679 12.6942 16.3303 12.603 16.8962 12.604C17.6192 12.604 18.3412 12.751 19.0032 13.02L19.6882 11.563C19.4822 11.4804 19.2742 11.4031 19.0642 11.331C18.3627 11.1108 17.6316 10.9992 16.8962 11C16.1596 11.0014 15.4279 11.1212 14.7292 11.355C13.8376 11.6491 13.0164 12.1244 12.3172 12.751C11.9801 13.0514 11.6726 13.3836 11.3992 13.743C11.129 14.0983 10.8952 14.4799 10.7012 14.882C10.3064 15.6904 10.0734 16.5682 10.0152 17.466C9.95425 18.396 10.0762 19.326 10.3822 20.208C10.694 21.1153 11.1951 21.946 11.8522 22.645C12.4522 23.294 13.1502 23.784 13.9942 24.237C14.8762 24.702 15.9662 24.947 17.1042 25.107C17.8392 25.204 18.8192 25.229 19.3942 25.229C19.8962 25.045 20.1042 24.959 20.3742 24.849C20.6072 24.739 20.8392 24.629 21.0722 24.494C21.3052 24.359 21.3422 24.334 21.7332 24.078C21.7681 24.0563 21.8009 24.0316 21.8312 24.004C20.4842 24.237 20.1412 24.224 19.1862 24.212V24.212Z" fill="white"/>
<path d="M22.14 22.3555C21.76 22.3795 21.221 22.4155 20.609 22.4155C19.519 22.4155 18.184 22.3185 17.046 21.9385C15.282 21.3515 13.617 19.8455 13.617 17.9835C13.6166 17.5428 13.7031 17.1064 13.8716 16.6991C14.04 16.2919 14.2872 15.9219 14.5988 15.6103C14.9104 15.2987 15.2804 15.0516 15.6876 14.8831C16.0949 14.7146 16.5313 14.6281 16.972 14.6285C18.233 14.6285 19.323 15.3265 19.899 16.3425L21.356 15.6205C21.1275 15.1904 20.8341 14.7981 20.486 14.4575C20.0248 13.9955 19.4769 13.6289 18.8739 13.3788C18.2708 13.1287 17.6244 13 16.9715 13C16.3186 13 15.6722 13.1287 15.0691 13.3788C14.4661 13.6289 13.9182 13.9955 13.457 14.4575C12.9951 14.9187 12.6287 15.4665 12.3787 16.0695C12.1287 16.6724 12 17.3188 12 17.9715C12.0033 18.6556 12.1497 19.3315 12.43 19.9555C12.686 20.5185 13.042 21.0455 13.495 21.5355C14.291 22.3915 15.38 23.0775 16.544 23.4695C17.658 23.8365 19.299 23.9715 20.891 23.8615C21.331 23.8245 21.662 23.7875 22.225 23.6655C22.7683 23.2368 23.2614 22.748 23.695 22.2085C23.315 22.2455 22.617 22.3185 22.14 22.3555V22.3555Z" fill="white"/>
</g>
<defs>
<clipPath id="clip0_0_1302">
<rect width="32" height="32" fill="white"/>
</clipPath>
</defs>
</svg>
