<svg width="32" height="32" viewBox="0 0 32 32" fill="none" xmlns="http://www.w3.org/2000/svg">
<g clip-path="url(#clip0_0_1298)">
<path d="M16 32C24.8366 32 32 24.8366 32 16C32 7.16344 24.8366 0 16 0C7.16344 0 0 7.16344 0 16C0 24.8366 7.16344 32 16 32Z" fill="#FB2EA3"/>
<path d="M23.033 14.02C22.806 15.555 21.955 16.298 20.826 16.558C22.376 17.365 23.166 18.604 22.414 20.75C21.481 23.416 19.265 23.64 16.318 23.083L15.601 25.95L13.873 25.519L14.579 22.691C14.1184 22.5766 13.659 22.4573 13.201 22.333L12.493 25.175L10.766 24.745L11.482 21.872C11.078 21.769 10.668 21.659 10.249 21.554L8 20.994L8.858 19.014C8.858 19.014 10.132 19.354 10.114 19.328C10.604 19.449 10.821 19.13 10.907 18.918L12.037 14.386L12.22 14.431C12.1613 14.4081 12.1012 14.389 12.04 14.374L12.846 11.139C12.867 10.771 12.741 10.309 12.041 10.133C12.068 10.115 10.785 9.821 10.785 9.821L11.245 7.975L13.629 8.57L13.627 8.58C13.985 8.668 14.355 8.753 14.731 8.839L15.44 6L17.168 6.43L16.474 9.214C16.937 9.32 17.404 9.426 17.858 9.54L18.548 6.775L20.276 7.205L19.568 10.045C21.751 10.797 23.347 11.924 23.033 14.02V14.02ZM19.083 19.558C19.643 17.32 15.885 16.741 14.713 16.448L13.764 20.253C14.936 20.544 18.55 21.705 19.084 19.558H19.083ZM19.618 13.989C20.126 11.952 16.984 11.499 16.008 11.255L15.148 14.706C16.123 14.95 19.131 15.942 19.618 13.989ZM24.648 21.618C24.5642 21.6068 24.479 21.6122 24.3973 21.634C24.3156 21.6558 24.2391 21.6935 24.172 21.745C24.042 21.8564 23.9539 22.0088 23.922 22.177C23.9015 22.2705 23.8948 22.3665 23.902 22.462C23.9106 22.5708 23.9456 22.6758 24.004 22.768C24.064 22.868 24.16 22.962 24.29 23.05C24.42 23.137 24.6 23.207 24.83 23.26C24.954 23.29 25.082 23.304 25.213 23.303C25.345 23.303 25.467 23.282 25.579 23.24C25.6974 23.1982 25.803 23.1264 25.8854 23.0315C25.9678 22.9367 26.0242 22.8221 26.049 22.699C26.0726 22.6112 26.0786 22.5196 26.0665 22.4295C26.0545 22.3394 26.0248 22.2525 25.979 22.174C25.887 22.02 25.736 21.902 25.525 21.82L25.679 21.154C26.059 21.307 26.325 21.526 26.479 21.809C26.633 22.093 26.665 22.43 26.575 22.82C26.5294 23.0363 26.4392 23.2407 26.31 23.42C26.1939 23.5782 26.0452 23.7096 25.8738 23.8051C25.7025 23.9007 25.5126 23.9583 25.317 23.974C25.1019 23.9935 24.885 23.9776 24.675 23.927C24.459 23.8788 24.2516 23.7979 24.06 23.687C23.8834 23.5858 23.7293 23.4497 23.607 23.287C23.4881 23.1253 23.4068 22.9391 23.369 22.742C23.3286 22.5158 23.3372 22.2836 23.394 22.061C23.4323 21.892 23.4939 21.7291 23.577 21.577C23.658 21.429 23.757 21.304 23.876 21.202C23.994 21.1 24.13 21.026 24.284 20.98C24.439 20.933 24.611 20.924 24.802 20.951L24.648 21.618V21.618ZM27.34 19.505C27.2929 19.7273 27.2014 19.9379 27.071 20.124C26.948 20.294 26.801 20.428 26.631 20.527C26.4551 20.6269 26.2603 20.6889 26.059 20.709C25.8357 20.7313 25.6102 20.7158 25.392 20.663C25.1747 20.615 24.967 20.5305 24.778 20.413C24.6061 20.3068 24.4582 20.1657 24.344 19.999C24.2319 19.8315 24.1569 19.6419 24.124 19.443C24.0887 19.2189 24.0989 18.99 24.154 18.77C24.2011 18.5477 24.2926 18.3371 24.423 18.151C24.547 17.981 24.693 17.846 24.864 17.748C25.0399 17.6481 25.2347 17.5861 25.436 17.566C25.646 17.543 25.866 17.558 26.096 17.611C26.3152 17.659 26.5248 17.7435 26.716 17.861C26.896 17.975 27.04 18.113 27.15 18.276C27.26 18.439 27.333 18.624 27.37 18.831C27.4054 19.0554 27.3952 19.2846 27.34 19.505V19.505ZM24.716 16.707L24.861 16.082L25.445 16.217L25.448 16.205C25.3664 16.163 25.294 16.1052 25.235 16.035C25.0993 15.8772 25.0094 15.6853 24.975 15.48C24.9582 15.3763 24.9616 15.2704 24.985 15.168C25.0031 15.0836 25.0285 15.001 25.061 14.921L25.704 15.069C25.6853 15.1149 25.6676 15.1613 25.651 15.208C25.6342 15.2541 25.6202 15.3012 25.609 15.349C25.5814 15.4587 25.5789 15.5733 25.6017 15.6841C25.6246 15.7949 25.6722 15.8992 25.741 15.989C25.8189 16.0896 25.9153 16.1745 26.025 16.239C26.144 16.312 26.287 16.368 26.455 16.407L27.893 16.739L27.739 17.405L24.716 16.707V16.707ZM26.996 14.517C27.112 14.545 27.229 14.554 27.346 14.547C27.4571 14.54 27.5658 14.5115 27.666 14.463C27.7654 14.4143 27.8525 14.3439 27.921 14.257C27.9982 14.1552 28.0516 14.0373 28.077 13.912C28.1234 13.7476 28.1175 13.5729 28.06 13.412C27.9951 13.2639 27.8847 13.1403 27.745 13.059L27.89 12.428C28.1069 12.5266 28.2923 12.6833 28.4255 12.8809C28.5588 13.0784 28.6348 13.3089 28.645 13.547C28.655 13.707 28.641 13.869 28.604 14.033C28.549 14.271 28.461 14.473 28.341 14.638C28.2257 14.8 28.0758 14.9343 27.9021 15.0311C27.7284 15.128 27.5354 15.185 27.337 15.198C26.899 15.233 26.461 15.1295 26.085 14.902C25.9131 14.7945 25.7631 14.6554 25.643 14.492C25.526 14.3307 25.444 14.1468 25.402 13.952C25.357 13.754 25.362 13.542 25.413 13.315C25.4607 13.0917 25.5627 12.8835 25.71 12.709C25.848 12.5472 26.0197 12.4175 26.213 12.329C26.4107 12.2415 26.6238 12.1939 26.84 12.189C27.066 12.181 27.288 12.217 27.508 12.296L26.995 14.518L26.996 14.517ZM26.814 19.384C26.847 19.2559 26.847 19.1215 26.8142 18.9934C26.7813 18.8652 26.7166 18.7474 26.626 18.651C26.5386 18.5556 26.435 18.4764 26.32 18.417C26.0814 18.2915 25.8145 18.2295 25.545 18.237C25.4157 18.2395 25.2879 18.2656 25.168 18.314C25.0449 18.3615 24.9357 18.4392 24.8506 18.5401C24.7654 18.641 24.7071 18.7616 24.681 18.891C24.6477 19.0186 24.6471 19.1526 24.6793 19.2806C24.7114 19.4085 24.7753 19.5263 24.865 19.623C24.948 19.717 25.05 19.794 25.171 19.857C25.4098 19.982 25.6765 20.044 25.946 20.037C26.0756 20.0338 26.2035 20.0077 26.324 19.96C26.4476 19.913 26.5573 19.8356 26.6429 19.7349C26.7286 19.6342 26.7874 19.5135 26.814 19.384V19.384ZM26.916 12.861C26.81 12.8444 26.7022 12.8434 26.596 12.858C26.4949 12.8693 26.3969 12.9005 26.3079 12.9497C26.2188 12.999 26.1404 13.0654 26.077 13.145C26.0114 13.2336 25.9644 13.3346 25.9386 13.4418C25.9128 13.549 25.9089 13.6602 25.927 13.769C25.947 13.874 25.984 13.969 26.04 14.054C26.1635 14.2329 26.3468 14.3616 26.557 14.417L26.916 12.861Z" fill="white"/>
</g>
<defs>
<clipPath id="clip0_0_1298">
<rect width="32" height="32" fill="white"/>
</clipPath>
</defs>
</svg>
