<svg width="32" height="32" viewBox="0 0 32 32" fill="none" xmlns="http://www.w3.org/2000/svg">
<g clip-path="url(#clip0_0_1294)">
<path d="M16 32C24.8366 32 32 24.8366 32 16C32 7.16344 24.8366 0 16 0C7.16344 0 0 7.16344 0 16C0 24.8366 7.16344 32 16 32Z" fill="#2D2D2D"/>
<path d="M11.706 19.296L4 16.77H9.155L9.665 14.327L14.243 14.33L15.385 8H19.991C23.109 8 24.373 9.255 23.906 11.845L23.806 12.4C23.533 13.909 22.844 14.912 21.66 15.491C22.833 16.091 23.227 17.226 22.932 18.861L22.704 20.127C22.248 22.653 20.39 24 17.372 24H12.497L13.76 17.007H12.23L11.706 19.296ZM16.772 16.549L15.828 21.779H17.773C18.927 21.779 19.568 21.267 19.786 20.059L20.031 18.706C20.309 17.163 19.775 16.549 18.262 16.549H16.772ZM17.915 10.22L17.091 14.784H18.503C19.791 14.784 20.544 14.234 20.775 12.954L20.932 12.088C21.157 10.841 20.691 10.22 19.51 10.22H18.1H17.915Z" fill="white"/>
</g>
<defs>
<clipPath id="clip0_0_1294">
<rect width="32" height="32" fill="white"/>
</clipPath>
</defs>
</svg>
