<svg width="32" height="32" viewBox="0 0 32 32" fill="none" xmlns="http://www.w3.org/2000/svg">
<g clip-path="url(#clip0_0_1290)">
<path d="M16 32C24.8366 32 32 24.8366 32 16C32 7.16344 24.8366 0 16 0C7.16344 0 0 7.16344 0 16C0 24.8366 7.16344 32 16 32Z" fill="#00AEEF"/>
<path d="M13.952 24.711H8.264L9.38 18.396L15.285 13.077H10.263L14.324 10.588H20.927L12.387 19.018L11.813 22.238C11.813 22.238 13.72 22.378 15.223 22.238C16.727 22.083 18.416 21.461 18.416 21.461L13.952 24.711V24.711ZM22.896 11.195L20.354 13.684C20.354 13.684 22.493 16.064 20.524 19.33C18.587 22.534 12.154 21.943 12.154 21.943L12.65 19.128L21.702 10.293H14.2L14.96 6H11.333L10.031 13.341H14.65L9.163 18.288L8 24.945C8 24.945 12.387 25.069 16.107 24.945C19.842 24.82 24.197 21.616 24.833 17.992C25.701 13.092 22.896 11.195 22.896 11.195V11.195Z" fill="white"/>
</g>
<defs>
<clipPath id="clip0_0_1290">
<rect width="32" height="32" fill="white"/>
</clipPath>
</defs>
</svg>
