<svg width="32" height="32" viewBox="0 0 32 32" fill="none" xmlns="http://www.w3.org/2000/svg">
<g clip-path="url(#clip0_0_1284)">
<path d="M16 32C24.8366 32 32 24.8366 32 16C32 7.16344 24.8366 0 16 0C7.16344 0 0 7.16344 0 16C0 24.8366 7.16344 32 16 32Z" fill="#FBB413"/>
<path d="M16.2276 21.8566C16.8914 21.8869 17.5537 21.7723 18.1686 21.5206C18.4126 21.4336 18.6456 21.3186 18.8636 21.1786C18.8829 21.1615 18.9056 21.1487 18.9302 21.1411C18.9548 21.1335 18.9808 21.1312 19.0063 21.1344C19.0319 21.1376 19.0565 21.1463 19.0784 21.1598C19.1004 21.1732 19.1192 21.1912 19.1336 21.2126L20.7126 22.8376C20.8256 22.9556 20.8216 22.9936 20.6866 23.0866C20.1382 23.4626 19.5424 23.7642 18.9146 23.9836C18.1378 24.2492 17.3261 24.3995 16.5056 24.4296C15.461 24.4834 14.4156 24.3406 13.4236 24.0086C12.5696 23.7126 11.7755 23.2662 11.0786 22.6906C10.4494 22.1701 9.89658 21.5634 9.43664 20.8886C9.17687 20.5206 8.95254 20.1289 8.76664 19.7186C8.62626 19.3941 8.49981 19.0638 8.38765 18.7286C8.20136 18.1133 8.08299 17.4796 8.03464 16.8386C7.98252 16.3679 7.98924 15.8926 8.05464 15.4236C8.10464 14.9596 8.18664 14.4996 8.29964 14.0466C8.48852 13.3542 8.76297 12.6881 9.11665 12.0636C9.87649 10.7486 10.9914 9.6742 12.3336 8.96358C12.843 8.68747 13.3808 8.46752 13.9376 8.30758C14.3893 8.17234 14.8532 8.0819 15.3226 8.03758C15.6842 7.99219 16.0494 7.98381 16.4126 8.01258C16.4776 8.01658 16.5426 8.01658 16.6066 8.01258C17.2016 8.0278 17.792 8.12127 18.3626 8.29058C18.8496 8.42058 19.3206 8.60458 19.7646 8.84258C20.2336 9.07458 20.6746 9.35658 21.0826 9.68458C21.1626 9.75558 21.2256 9.72258 21.2886 9.65458L22.2616 8.62758L23.6636 7.13758C23.8276 6.96058 23.8696 6.95558 24.0466 7.11558C24.5866 7.60258 25.0866 8.13358 25.5366 8.70358C26.1086 9.4138 26.5962 10.188 26.9896 11.0106C27.3046 11.6906 27.5636 12.3946 27.7646 13.1156C27.9336 13.7096 27.9876 14.3156 28.1186 14.9096C28.12 14.9209 28.12 14.9323 28.1186 14.9436C28.1186 15.4946 28.2406 16.0466 28.1816 16.5976C28.1146 17.2256 28.0806 17.8616 27.9496 18.4806C27.8386 19.0006 27.6976 19.5126 27.5296 20.0166C27.1164 21.2671 26.4972 22.4399 25.6976 23.4866C25.5756 23.6466 25.5376 23.6506 25.3976 23.4866C24.9356 23.0186 24.4726 22.5436 24.0046 22.0806C23.9076 21.9836 23.9206 21.9076 24.0046 21.8026C24.4976 21.1115 24.8971 20.3583 25.1926 19.5626C25.4576 18.8156 25.6396 18.0416 25.7356 17.2546C25.7936 16.6516 25.8056 16.0446 25.7736 15.4406C25.7595 15.0966 25.7184 14.7542 25.6506 14.4166C25.3955 13.0304 24.8346 11.7186 24.0086 10.5766C23.9206 10.4506 23.8106 10.3366 23.7306 10.2026C23.6506 10.0676 23.6426 10.1056 23.5666 10.1816C23.1206 10.6316 22.6616 11.0696 22.2276 11.5286C22.0766 11.6886 21.9036 11.8146 21.7606 11.9786C21.6176 12.1436 21.4446 12.2986 21.2846 12.4586L20.7966 12.9476C20.7206 13.0236 20.6616 12.9936 20.6106 12.9226C20.1974 12.3172 19.6661 11.8015 19.0486 11.4066C18.452 11.0223 17.7829 10.7643 17.0826 10.6486C16.5363 10.5646 15.9809 10.5575 15.4326 10.6276C14.7587 10.6996 14.1059 10.9057 13.5126 11.2336C12.8758 11.5833 12.3168 12.059 11.8696 12.6316C11.4804 13.1246 11.1799 13.6816 10.9816 14.2776C10.7584 14.9839 10.6573 15.7232 10.6826 16.4636C10.6737 17.7919 11.167 19.0745 12.0636 20.0546C12.6023 20.6503 13.2629 21.123 14.0006 21.4406C14.7006 21.7486 15.4636 21.8916 16.2276 21.8566V21.8566Z" fill="white"/>
<path d="M25.0369 23.711L20.7769 19.374C20.6839 19.277 20.6069 19.274 20.5319 19.374C20.2309 19.8129 19.8663 20.2045 19.4499 20.536C19.3489 20.616 19.3489 20.679 19.4499 20.772C19.8329 21.155 20.2119 21.547 20.5909 21.93C21.0839 22.431 21.5759 22.932 22.0729 23.433C22.1609 23.521 22.1569 23.563 22.0729 23.639C21.8749 23.787 21.6809 23.939 21.4749 24.06C20.395 24.8054 19.1694 25.3136 17.8789 25.551C17.3774 25.6647 16.8651 25.7241 16.3509 25.728H16.1449C15.7809 25.753 15.4149 25.742 15.0549 25.694C14.6329 25.631 14.2369 25.58 13.8369 25.492C13.3301 25.3765 12.8342 25.2173 12.3549 25.016C11.5407 24.677 10.7769 24.2278 10.0849 23.681C9.40148 23.143 8.79161 22.5177 8.27091 21.821C7.72201 21.0912 7.28488 20.2836 6.97391 19.425C6.63321 18.5843 6.43939 17.6913 6.40091 16.785C6.39374 16.6895 6.39374 16.5935 6.40091 16.498V15.505C6.37794 15.3979 6.37794 15.2871 6.40091 15.18C6.40091 15.1 6.43491 15.025 6.44791 14.945C6.48991 14.572 6.55591 14.202 6.64591 13.837C6.76091 13.347 6.91391 12.867 7.10491 12.401C7.95255 10.3252 9.49424 8.60784 11.4669 7.542C12.6337 6.89427 13.9264 6.50545 15.2569 6.402H15.4999C16.8852 6.31409 18.2727 6.53261 19.5639 7.042L19.9259 7.193C20.4779 7.43773 21.0064 7.73228 21.5049 8.073C21.5228 8.08937 21.544 8.10179 21.567 8.10946C21.59 8.11713 21.6143 8.11988 21.6385 8.11752C21.6626 8.11516 21.686 8.10775 21.7071 8.09578C21.7282 8.0838 21.7465 8.06752 21.7609 8.048C22.2079 7.538 22.6789 7.054 23.1469 6.566C23.2349 6.473 23.2389 6.389 23.1469 6.313C21.6035 5.19073 19.8153 4.45172 17.9299 4.157C17.389 4.07104 16.8433 4.01894 16.2959 4.001C15.4478 3.98758 14.6008 4.06672 13.7699 4.237C13.2392 4.34248 12.716 4.48312 12.2039 4.658C11.2919 4.963 10.4219 5.381 9.61391 5.9C8.64391 6.52 7.76691 7.272 7.00791 8.136C5.99416 9.28648 5.21217 10.6219 4.70491 12.069C4.49291 12.681 4.32491 13.307 4.20391 13.943C4.11091 14.5 4.04791 15.063 4.01391 15.627C3.97958 16.2329 4.00773 16.8408 4.09791 17.441C4.16391 18.038 4.27791 18.628 4.43891 19.206C4.55291 19.597 4.66691 19.989 4.81391 20.368C5.10791 21.128 5.47691 21.858 5.91691 22.545C6.46426 23.3902 7.11012 24.1673 7.84091 24.86C8.31391 25.296 8.82091 25.693 9.35691 26.048C10.0749 26.539 10.8469 26.948 11.6569 27.265C12.4629 27.585 13.3039 27.813 14.1609 27.947C14.8039 28.043 15.4529 28.099 16.1029 28.115C16.5229 28.115 16.9449 28.048 17.3399 28.039C17.6399 28.017 17.9369 27.972 18.2289 27.905C18.5529 27.85 18.8729 27.765 19.1929 27.681C20.3897 27.3679 21.5273 26.8616 22.5609 26.182C23.4979 25.582 24.3479 24.857 25.0879 24.027C25.2099 23.887 25.2059 23.863 25.0379 23.711H25.0369Z" fill="white"/>
</g>
<defs>
<clipPath id="clip0_0_1284">
<rect width="32" height="32" fill="white"/>
</clipPath>
</defs>
</svg>
