<svg width="32" height="32" viewBox="0 0 32 32" fill="none" xmlns="http://www.w3.org/2000/svg">
<g clip-path="url(#clip0_0_1278)">
<path d="M16 32C24.8366 32 32 24.8366 32 16C32 7.16344 24.8366 0 16 0C7.16344 0 0 7.16344 0 16C0 24.8366 7.16344 32 16 32Z" fill="#36B0F3"/>
<path fill-rule="evenodd" clip-rule="evenodd" d="M14.0385 4.21031C14.8385 4.05031 15.6535 3.98131 16.4685 4.00431C16.9765 4.00431 17.4845 4.05031 17.9855 4.14131C18.9605 4.27531 19.9005 4.58531 20.8175 4.93331C21.4845 5.23131 22.1835 5.51131 22.7255 6.01731C22.8765 6.12731 22.7955 6.34731 22.6615 6.43431C22.3515 6.63331 21.9785 6.69031 21.6245 6.76831C20.0285 7.04231 18.4045 7.16531 16.8365 7.59031C16.1335 7.74831 15.4575 8.00631 14.7885 8.27331C13.5455 8.82931 12.4025 9.64631 11.5755 10.7383C11.4175 10.9694 11.2655 11.2044 11.1195 11.4433C10.9885 11.6983 10.8565 11.9533 10.7495 12.2203C10.6695 12.4113 10.5955 12.6043 10.5255 12.7983C10.3845 13.2113 10.3155 13.6423 10.2105 14.0663C10.1775 14.3443 10.1585 14.6243 10.1005 14.8993C10.0635 15.5293 10.0815 16.1593 10.0865 16.7893C10.0865 16.9993 10.1435 17.2053 10.1465 17.4163C10.1495 17.6103 10.1765 17.8033 10.2285 17.9903C10.3285 18.5153 10.4505 19.0473 10.6735 19.5383C10.9625 20.2353 11.4125 20.8883 12.0525 21.3033C12.5835 21.6973 13.2405 21.8653 13.8845 21.9653C14.7445 22.0773 15.6175 21.9753 16.4645 21.8213C16.9075 21.7413 17.3475 21.6413 17.7845 21.5243C18.0615 21.4463 18.3465 21.3943 18.6205 21.3013C18.7256 21.2832 18.8319 21.2731 18.9385 21.2713C18.5955 21.5773 18.2505 21.8813 17.8625 22.1283C16.5405 22.9803 15.0035 23.4243 13.4705 23.7103C12.7775 23.8523 12.0725 23.9363 11.3745 24.0563C10.5795 24.1713 9.75553 24.2663 9.03853 24.6563C8.82453 24.8063 8.65853 25.0103 8.50953 25.2223C8.46453 25.3143 8.37953 25.2223 8.32953 25.1893C8.16653 25.0023 7.95753 24.8653 7.78053 24.6923C7.59172 24.5105 7.40635 24.3251 7.22453 24.1363C6.93353 23.7973 6.63453 23.4633 6.37753 23.0983C5.86553 22.4043 5.41253 21.6613 5.08053 20.8653L5.02253 20.8393C4.98053 20.6103 4.86453 20.4083 4.78753 20.1913C4.60596 19.7159 4.45891 19.2279 4.34753 18.7313C4.30356 18.5796 4.26916 18.4253 4.24453 18.2693C4.19081 18.0939 4.15857 17.9125 4.14853 17.7293C4.05053 17.2993 4.06853 16.8553 4.00653 16.4213C4.00653 16.0593 3.98253 15.6943 4.02653 15.3333C4.07453 15.0333 4.05453 14.7263 4.11653 14.4273C4.17753 14.1843 4.16553 13.9303 4.24253 13.6913C4.3386 13.1566 4.47909 12.6307 4.66253 12.1193C4.73453 11.9313 4.79953 11.7413 4.86653 11.5523C4.90653 11.4653 4.93953 11.3763 4.96653 11.2853L5.01953 11.2223C5.08362 11.0345 5.16637 10.8536 5.26653 10.6823C5.36611 10.4738 5.47455 10.2696 5.59153 10.0703C5.62553 9.99931 5.66353 9.93031 5.70353 9.86031C6.33353 8.87331 7.06953 7.93831 7.95553 7.16631C9.05463 6.18795 10.3167 5.40985 11.6845 4.86731C12.445 4.56838 13.2341 4.34822 14.0395 4.21031H14.0385Z" fill="white"/>
<path fill-rule="evenodd" clip-rule="evenodd" d="M22.7555 7.532C22.9755 7.404 23.1265 7.197 23.2785 7C24.4789 8.02625 25.4649 9.27929 26.1801 10.6873C26.8952 12.0953 27.3255 13.6306 27.4463 15.2052C27.5671 16.7798 27.3759 18.3628 26.8838 19.8634C26.3917 21.364 25.6083 22.7527 24.5785 23.95C22.7415 26.108 20.1035 27.574 17.2925 27.963C15.9995 28.153 14.6825 28.103 13.3905 27.926C12.4005 27.786 11.4325 27.516 10.5135 27.121C10.0135 26.901 9.51654 26.643 9.12554 26.253C9.02454 26.165 8.96054 26.019 9.02754 25.892C9.12754 25.737 9.30754 25.66 9.47754 25.605C9.96254 25.465 10.4615 25.383 10.9605 25.306C11.8625 25.149 12.7735 25.048 13.6685 24.851C15.1555 24.53 16.6425 24.075 17.9285 23.241C18.8025 22.683 19.5725 21.957 20.1395 21.087C20.9535 19.859 21.3295 18.388 21.4195 16.93C21.4645 15.845 21.4395 14.75 21.2125 13.684C21.0055 12.764 20.6425 11.837 19.9555 11.167C19.4305 10.628 18.7155 10.293 17.9775 10.165C16.7525 9.936 15.5015 10.157 14.3015 10.427C13.7395 10.56 13.1855 10.727 12.6175 10.837C13.4255 10.076 14.4145 9.532 15.4535 9.16C16.0505 8.939 16.6705 8.792 17.2875 8.647C18.6395 8.343 20.0235 8.227 21.3875 7.993C21.8635 7.893 22.3475 7.797 22.7555 7.532V7.532Z" fill="white"/>
</g>
<defs>
<clipPath id="clip0_0_1278">
<rect width="32" height="32" fill="white"/>
</clipPath>
</defs>
</svg>
