<svg width="32" height="32" viewBox="0 0 32 32" fill="none" xmlns="http://www.w3.org/2000/svg">
<g clip-path="url(#clip0_0_1274)">
<path d="M16 32C24.8366 32 32 24.8366 32 16C32 7.16344 24.8366 0 16 0C7.16344 0 0 7.16344 0 16C0 24.8366 7.16344 32 16 32Z" fill="#F70808"/>
<path d="M15.501 6L13.841 9.016C13.653 9.344 13.316 9.314 12.978 9.131L11.778 8.524L12.672 13.157C12.861 14.004 12.257 14.004 11.959 13.637L9.861 11.35L9.521 12.512C9.481 12.665 9.309 12.825 9.05 12.787L6.4 12.243L7.095 14.711C7.245 15.26 7.361 15.487 6.945 15.631L6 16.065L10.563 19.677C10.6537 19.7459 10.7219 19.8402 10.7589 19.9479C10.7959 20.0556 10.8001 20.1719 10.771 20.282L10.371 21.56C11.943 21.383 13.351 21.118 14.923 20.954C15.062 20.94 15.294 21.163 15.293 21.32L15.086 26H15.85L15.73 21.33C15.729 21.173 15.94 20.94 16.078 20.954C17.65 21.118 19.058 21.384 20.629 21.56L20.23 20.282C20.2007 20.1719 20.2049 20.0556 20.2419 19.9478C20.2789 19.8401 20.3472 19.7458 20.438 19.677L25.001 16.065L24.056 15.632C23.64 15.487 23.756 15.26 23.906 14.711L24.602 12.243L21.951 12.787C21.692 12.825 21.519 12.665 21.481 12.512L21.14 11.35L19.043 13.638C18.745 14.004 18.141 14.004 18.33 13.158L19.225 8.524L18.024 9.131C17.686 9.314 17.349 9.344 17.161 9.016L15.501 6Z" fill="white"/>
</g>
<defs>
<clipPath id="clip0_0_1274">
<rect width="32" height="32" fill="white"/>
</clipPath>
</defs>
</svg>
