<svg width="32" height="32" viewBox="0 0 32 32" fill="none" xmlns="http://www.w3.org/2000/svg">
<g clip-path="url(#clip0_0_1270)">
<path d="M16 32C24.8366 32 32 24.8366 32 16C32 7.16344 24.8366 0 16 0C7.16344 0 0 7.16344 0 16C0 24.8366 7.16344 32 16 32Z" fill="#272731"/>
<path d="M27 16.03C27 18.94 25.855 21.73 23.814 23.788C22.8073 24.8051 21.609 25.6126 20.2884 26.1639C18.9678 26.7152 17.5511 26.9994 16.12 27V24.198C20.068 24.21 23.445 21.341 24.104 17.416H20.214C20.368 16.96 20.447 16.482 20.448 16C20.4417 15.5189 20.3628 15.0415 20.214 14.584H24.104C23.436 10.664 20.064 7.8 16.12 7.802V5C22.128 5.058 26.975 9.972 27 16.03ZM19.746 18.389H22.818C21.682 21.694 18.346 23.689 14.925 23.109C11.505 22.527 9 19.541 9 16.043C9 12.545 11.505 9.56 14.925 8.979C18.346 8.399 21.682 10.394 22.818 13.699H19.746C19.4002 13.1734 18.9527 12.7222 18.43 12.372C17.9521 12.0646 17.4179 11.8549 16.8585 11.7552C16.299 11.6555 15.7254 11.6677 15.1707 11.7911C14.616 11.9145 14.0912 12.1467 13.6268 12.4742C13.1624 12.8016 12.7675 13.2179 12.465 13.699C11.181 15.726 11.77 18.419 13.781 19.714C14.2589 20.0215 14.7929 20.2312 15.3524 20.3309C15.9118 20.4307 16.4854 20.4186 17.0401 20.2953C17.5948 20.172 18.1196 19.9399 18.584 19.6126C19.0485 19.2852 19.4434 18.869 19.746 18.388V18.389Z" fill="white"/>
</g>
<defs>
<clipPath id="clip0_0_1270">
<rect width="32" height="32" fill="white"/>
</clipPath>
</defs>
</svg>
