<svg width="32" height="32" viewBox="0 0 32 32" fill="none" xmlns="http://www.w3.org/2000/svg">
<g clip-path="url(#clip0_0_1266)">
<path d="M16 32C24.8366 32 32 24.8366 32 16C32 7.16344 24.8366 0 16 0C7.16344 0 0 7.16344 0 16C0 24.8366 7.16344 32 16 32Z" fill="#3089F2"/>
<path d="M21.627 17.878C21.205 18.241 20.827 18.564 20.453 18.891C20.411 18.928 20.369 18.994 20.369 19.047C20.363 19.685 20.365 20.322 20.365 20.982C21.326 20.576 21.828 19.342 21.627 17.878V17.878ZM20.469 13.981C21.54 13.343 21.667 13.122 21.671 11.856C21.671 11.756 21.674 11.657 21.67 11.558C21.624 10.395 20.828 9.368 19.726 9.122C18.736 8.902 17.738 8.719 16.738 8.55C16.229 8.463 15.708 8.389 15.195 8.406C14.574 8.426 14.067 8.752 13.6 9.284C14.732 9.495 15.783 9.712 16.841 9.884C18.294 10.12 19.403 10.849 20.009 12.238C20.244 12.777 20.319 13.388 20.469 13.981V13.981ZM11.646 10.973C10.786 11.507 10.362 12.231 10.349 13.131C10.3197 15.5609 10.3173 17.991 10.342 20.421C10.352 21.598 11.129 22.607 12.251 22.881C13.211 23.115 14.193 23.259 15.165 23.447C15.781 23.567 16.391 23.749 17.027 23.591C17.547 23.461 18.011 23.242 18.377 22.728C17.211 22.509 16.116 22.268 15.01 22.104C13.117 21.823 11.649 20.146 11.647 18.194C11.644 15.962 11.646 13.731 11.646 11.499V10.973V10.973ZM12.984 10.622C12.972 10.869 12.954 11.053 12.954 11.237C12.951 13.483 12.951 15.729 12.954 17.975C12.957 19.451 13.849 20.511 15.266 20.759C16.29 20.939 17.31 21.139 18.332 21.329C18.403 21.342 18.475 21.349 18.547 21.357C19.032 21.411 19.049 21.402 19.052 20.916C19.057 20.171 19.032 19.426 19.067 18.683C19.077 18.463 19.188 18.186 19.347 18.045C20.158 17.322 21 16.635 21.831 15.935C22.057 15.745 22.289 15.615 22.593 15.762C22.914 15.917 22.998 16.185 22.993 16.522C22.981 17.366 22.999 18.211 22.973 19.053C22.924 20.575 21.82 22.073 20.403 22.553C20.283 22.5899 20.1715 22.6505 20.0753 22.7312C19.9791 22.8119 19.9001 22.9112 19.843 23.023C18.97 24.573 17.474 25.171 15.871 24.959C14.557 24.784 13.253 24.507 11.955 24.229C10.283 23.871 9.04801 22.315 9.02101 20.453C8.98501 17.947 8.99701 15.44 9.04001 12.935C9.06601 11.369 10.23 9.915 11.706 9.435C11.8702 9.37423 12.0091 9.25969 12.1 9.11C13.09 7.392 14.698 6.695 16.609 7.123C17.669 7.36 18.748 7.516 19.814 7.733C21.706 8.119 22.97 9.681 22.995 11.647C23.002 12.206 23.006 12.765 22.975 13.322C22.966 13.499 22.888 13.725 22.762 13.836C21.855 14.636 20.937 15.424 19.996 16.182C19.851 16.299 19.526 16.326 19.364 16.239C19.205 16.153 19.071 15.874 19.06 15.672C19.021 15.005 19.095 14.328 19.03 13.665C18.9 12.336 17.995 11.458 16.631 11.231C15.547 11.051 14.465 10.856 13.382 10.67C13.266 10.65 13.148 10.641 12.984 10.622V10.622Z" fill="white"/>
</g>
<defs>
<clipPath id="clip0_0_1266">
<rect width="32" height="32" fill="white"/>
</clipPath>
</defs>
</svg>
