<svg width="32" height="32" viewBox="0 0 32 32" fill="none" xmlns="http://www.w3.org/2000/svg">
<g clip-path="url(#clip0_0_1256)">
<path d="M16 32C24.8366 32 32 24.8366 32 16C32 7.16344 24.8366 0 16 0C7.16344 0 0 7.16344 0 16C0 24.8366 7.16344 32 16 32Z" fill="#1C98F7"/>
<path fill-rule="evenodd" clip-rule="evenodd" d="M16.28 23.825C16.9837 23.7761 17.6813 23.6623 18.364 23.485C19.2065 23.7421 20.0972 23.8003 20.966 23.655C21.0004 23.6495 21.0352 23.6468 21.07 23.647C21.38 23.647 21.787 23.827 22.38 24.207V23.582C22.3801 23.4739 22.409 23.3677 22.4636 23.2744C22.5183 23.1811 22.5967 23.104 22.691 23.051C22.949 22.905 23.189 22.737 23.408 22.552C24.272 21.82 24.76 20.844 24.76 19.81C24.76 19.463 24.705 19.126 24.601 18.804C24.862 18.317 25.073 17.805 25.228 17.274C25.7292 18.025 25.9977 18.9071 26 19.81C26 21.215 25.346 22.525 24.215 23.483C24.0262 23.6428 23.8275 23.7904 23.62 23.925V25.386C23.62 25.889 23.04 26.178 22.631 25.879C22.2442 25.5899 21.8438 25.3196 21.431 25.069C21.3128 24.9983 21.1898 24.9358 21.063 24.882C20.723 24.933 20.375 24.959 20.024 24.959C18.612 24.959 17.308 24.536 16.281 23.825H16.28ZM8.814 20.903C7.03 19.39 6 17.329 6 15.12C6 10.607 10.258 7 15.457 7C20.657 7 24.915 10.607 24.915 15.12C24.915 19.634 20.656 23.241 15.457 23.241C14.873 23.241 14.295 23.196 13.729 23.106C13.484 23.164 12.505 23.746 11.094 24.776C10.583 25.15 9.858 24.789 9.858 24.16V21.668C9.4926 21.4376 9.14375 21.182 8.814 20.903V20.903ZM13.763 21.569C13.806 21.569 13.85 21.572 13.893 21.579C14.403 21.665 14.927 21.709 15.457 21.709C19.849 21.709 23.364 18.731 23.364 15.12C23.364 11.51 19.849 8.532 15.457 8.532C11.067 8.532 7.55 11.51 7.55 15.12C7.55 16.866 8.371 18.51 9.823 19.74C10.188 20.048 10.589 20.328 11.019 20.572C11.26 20.708 11.409 20.962 11.409 21.236V22.673C12.525 21.924 13.259 21.569 13.763 21.569V21.569ZM11.426 16.653C10.741 16.653 10.186 16.103 10.186 15.427C10.186 14.75 10.741 14.201 11.426 14.201C12.111 14.201 12.666 14.75 12.666 15.427C12.666 16.104 12.111 16.653 11.426 16.653ZM15.457 16.653C14.772 16.653 14.217 16.103 14.217 15.427C14.217 14.75 14.772 14.201 15.457 14.201C16.142 14.201 16.697 14.75 16.697 15.427C16.697 16.104 16.142 16.653 15.457 16.653V16.653ZM19.488 16.653C18.803 16.653 18.248 16.103 18.248 15.427C18.248 14.75 18.803 14.201 19.488 14.201C20.173 14.201 20.728 14.75 20.728 15.427C20.728 16.104 20.173 16.653 19.488 16.653Z" fill="white"/>
</g>
<defs>
<clipPath id="clip0_0_1256">
<rect width="32" height="32" fill="white"/>
</clipPath>
</defs>
</svg>
