<svg width="32" height="32" viewBox="0 0 32 32" fill="none" xmlns="http://www.w3.org/2000/svg">
<g clip-path="url(#clip0_0_1252)">
<path d="M16 32C24.8366 32 32 24.8366 32 16C32 7.16344 24.8366 0 16 0C7.16344 0 0 7.16344 0 16C0 24.8366 7.16344 32 16 32Z" fill="#598182"/>
<path fill-rule="evenodd" clip-rule="evenodd" d="M13.5479 25.408C14.3932 24.3157 15.2386 23.2233 16.0839 22.131C17.0329 22.279 17.9679 22.195 18.8619 21.807C19.1849 21.667 19.4739 21.449 19.7779 21.265C19.8209 21.239 19.8609 21.205 19.8939 21.18L22.9659 24.218C22.7109 24.388 22.4579 24.572 22.1889 24.73C21.1481 25.3333 20.0009 25.7306 18.8099 25.9C18.1071 25.9985 17.3961 26.0253 16.6879 25.98C15.6203 25.931 14.5642 25.7386 13.5479 25.408V25.408ZM12.5819 25.032C12.2405 24.8794 11.908 24.7078 11.5859 24.518C9.93967 23.564 8.64017 22.1104 7.87589 20.368C7.47248 19.4592 7.20721 18.4952 7.08889 17.508C6.99603 16.7423 6.97527 15.9696 7.02689 15.2C7.14989 13.225 7.75089 11.41 8.96189 9.813C10.0799 8.339 11.5479 7.33 13.2849 6.683C14.109 6.37024 14.972 6.17174 15.8499 6.093C16.5129 6.036 17.1829 5.979 17.8459 6.008C18.2559 6.025 18.6589 6.065 19.0559 6.128C18.1986 7.37267 17.3412 8.61733 16.4839 9.862C15.6261 9.93388 14.7989 10.214 14.0739 10.678C12.7439 11.522 11.9479 12.738 11.5739 14.238C11.4152 14.87 11.3425 15.5206 11.3579 16.172C11.3669 16.514 11.3959 16.849 11.4469 17.176L11.1389 17.623C10.8909 17.983 11.1959 18.459 11.6369 18.401L11.7489 18.387C12.0069 19.116 12.3979 19.797 12.9389 20.422C13.2749 20.808 13.6499 21.132 14.0629 21.392L12.6179 24.883C12.598 24.9308 12.5859 24.9814 12.5819 25.033V25.032ZM20.0249 6.334C20.9152 6.5712 21.759 6.95695 22.5209 7.475C22.6589 7.569 22.7849 7.68 22.9169 7.783C22.9419 7.802 22.9679 7.819 22.9999 7.841C22.9579 7.889 22.9339 7.921 22.9049 7.949C21.9939 8.847 21.0809 9.742 20.1729 10.643C20.0729 10.743 20.0099 10.759 19.8889 10.673C19.5224 10.4125 19.117 10.2113 18.6879 10.077L19.9709 6.702L20.0049 6.615C20.039 6.52534 20.046 6.4276 20.0249 6.334ZM16.3209 17.282L11.5679 17.903L19.4759 6.42L19.5199 6.44L16.4649 14.471L22.0399 13.591L13.1409 25.101L13.0979 25.071L16.3209 17.282V17.282Z" fill="white"/>
</g>
<defs>
<clipPath id="clip0_0_1252">
<rect width="32" height="32" fill="white"/>
</clipPath>
</defs>
</svg>
