<svg width="32" height="32" viewBox="0 0 32 32" fill="none" xmlns="http://www.w3.org/2000/svg">
<g clip-path="url(#clip0_0_405)">
<path d="M16 32C24.8366 32 32 24.8366 32 16C32 7.16344 24.8366 0 16 0C7.16344 0 0 7.16344 0 16C0 24.8366 7.16344 32 16 32Z" fill="#0576B4"/>
<path d="M24.499 19.219L23.44 18.556L25.75 18.529L25.798 18.503V18.528L26.752 18.518L25.133 21.152L24.988 19.882L17.624 23.945L14.831 20.216L7.00098 24.342V23.402L15.074 19.149L17.866 22.878L24.5 19.219H24.499ZM14.387 18.314L11.327 19.925V9H14.387V18.314ZM23.04 18.795L19.98 20.495V9H23.04V18.795Z" fill="white"/>
<path opacity="0.5" d="M18.714 20.949L18.057 21.313L15.653 18.103V10H18.713V20.949H18.714ZM10.06 20.342L7 21.954V11.418H10.06V20.342V20.342Z" fill="white"/>
</g>
<defs>
<clipPath id="clip0_0_405">
<rect width="32" height="32" fill="white"/>
</clipPath>
</defs>
</svg>
