<svg width="32" height="32" viewBox="0 0 32 32" fill="none" xmlns="http://www.w3.org/2000/svg">
<g clip-path="url(#clip0_0_401)">
<path d="M16 32C24.8366 32 32 24.8366 32 16C32 7.16344 24.8366 0 16 0C7.16344 0 0 7.16344 0 16C0 24.8366 7.16344 32 16 32Z" fill="#20C5D3"/>
<path d="M17.8099 7.87V7.781C17.9869 7.706 18.3379 7.635 18.9419 7.797C19.6329 7.983 20.1669 8.677 20.4119 9.051L20.4099 9.291C20.3979 10.63 19.9719 13.938 19.2339 16.418C18.5889 18.585 17.1819 21.468 16.8959 22.044C16.7554 22.0131 16.6132 21.9907 16.4699 21.977C16.5889 21.246 17.1079 17.99 17.4349 15.023C17.7819 11.875 17.8089 8.753 17.8089 7.871L17.8099 7.87ZM20.7089 9.294V9.283C20.9689 9.277 21.5449 9.324 22.2019 9.747C22.8379 10.156 23.1659 10.934 23.3019 11.352L23.2389 11.599C23.0839 12.201 21.9359 15.304 20.7009 17.643C19.6529 19.625 17.9799 21.818 17.6149 22.288C17.4773 22.2225 17.3353 22.1667 17.1899 22.121C17.5299 21.434 18.8869 18.63 19.5199 16.501C20.2659 13.995 20.6959 10.649 20.7089 9.294V9.294ZM20.9659 17.778C22.1419 15.551 23.3299 12.426 23.5259 11.681C23.7849 11.775 24.3409 12.024 24.7029 12.518C25.0129 12.94 25.1139 13.511 25.1469 13.87L25.0259 14.152C24.7919 14.695 23.3659 17.197 21.9289 18.98C20.6849 20.524 18.8159 22.356 18.3679 22.79C18.2172 22.6547 18.0538 22.5341 17.8799 22.43C18.3009 21.886 19.9329 19.733 20.9659 17.778V17.778ZM11.0049 9.526L10.9699 9.252C11.1329 8.897 11.4929 8.305 12.1819 7.99C12.9319 7.648 13.5149 7.741 13.7759 7.817L13.7779 7.876C13.7979 8.471 13.9549 11.4 14.3379 14.857C14.6899 18.02 15.2569 21.384 15.3659 22.023C15.2159 22.05 15.0689 22.087 14.9249 22.133C14.6469 21.543 13.4089 18.863 12.5769 16.178C11.6489 13.183 11.1169 10.403 11.0049 9.526V9.526ZM14.0759 7.866L14.0719 7.729C14.3459 7.483 14.9839 7 15.7819 7C16.5779 7 17.2299 7.483 17.5109 7.73V7.87C17.5109 8.749 17.4839 11.858 17.1379 14.99C16.8069 17.994 16.2779 21.297 16.1699 21.961L16.0919 21.959C15.9479 21.959 15.8049 21.967 15.6619 21.981C15.5559 21.366 14.9869 17.994 14.6349 14.825C14.2529 11.377 14.0969 8.458 14.0759 7.865V7.866ZM16.0919 22.253C17.7089 22.253 18.4539 23.234 18.6789 23.608C17.4539 24.468 16.4569 25 16.1049 25C15.7529 25 14.8779 24.56 13.5019 23.565C13.7219 23.21 14.4639 22.253 16.0919 22.253ZM25.2929 14.285C25.5389 14.445 26.0439 14.876 25.9969 15.705C25.9349 16.797 24.0619 18.961 21.7099 21.15C20.828 21.9692 19.8962 22.733 18.9199 23.437C18.8197 23.2807 18.7056 23.1338 18.5789 22.998C19.0349 22.557 20.9109 20.718 22.1629 19.163C23.6029 17.377 25.0359 14.868 25.2929 14.285V14.285ZM6.81994 14.073C6.74711 13.8921 6.6781 13.7098 6.61294 13.526C6.61167 13.2021 6.69069 12.8829 6.84294 12.597C7.18494 11.977 8.05294 11.693 8.39694 11.602L8.39894 11.608L8.43594 11.738C8.68594 12.609 9.26994 14.65 10.8079 17.6C12.1809 20.233 13.6729 22.053 14.0909 22.54C13.9789 22.6166 13.872 22.7004 13.7709 22.791C12.3599 21.5692 11.0524 20.2326 9.86194 18.795C8.37994 17.003 7.35694 15.415 6.81994 14.073V14.073ZM13.5599 23.001C13.4499 23.121 13.3499 23.251 13.2599 23.389C12.3929 22.7424 11.5491 22.0653 10.7299 21.359C7.71794 18.784 6.06994 16.993 6.00394 15.862C5.95394 14.999 6.39194 14.512 6.60394 14.329C7.16594 15.666 8.18194 17.229 9.62994 18.981C10.8275 20.4262 12.1419 21.7704 13.5599 23V23.001ZM8.68694 11.527C8.6544 11.4159 8.62372 11.3042 8.59494 11.192C8.67194 10.826 8.86194 10.278 9.32694 9.94C9.72618 9.65029 10.2122 9.50532 10.7049 9.529L10.7099 9.563C10.8229 10.448 11.3579 13.251 12.2919 16.263C13.1199 18.934 14.3449 21.6 14.6449 22.238C14.5432 22.2808 14.4437 22.3289 14.3469 22.382C13.9819 21.96 12.4679 20.139 11.0749 17.466C9.54994 14.542 8.97194 12.521 8.72494 11.658L8.68694 11.527Z" fill="white"/>
</g>
<defs>
<clipPath id="clip0_0_401">
<rect width="32" height="32" fill="white"/>
</clipPath>
</defs>
</svg>
