<svg width="32" height="32" viewBox="0 0 32 32" fill="none" xmlns="http://www.w3.org/2000/svg">
<g clip-path="url(#clip0_0_393)">
<path d="M16 32C24.8366 32 32 24.8366 32 16C32 7.16344 24.8366 0 16 0C7.16344 0 0 7.16344 0 16C0 24.8366 7.16344 32 16 32Z" fill="#2FD2E5"/>
<path d="M16.2194 4.00711C13.5174 3.91324 10.8652 4.75105 8.70741 6.38011C8.49821 6.53735 8.32659 6.73915 8.20498 6.97089C8.08337 7.20263 8.01482 7.45852 8.00429 7.72002C7.99376 7.98151 8.04152 8.24208 8.1441 8.48285C8.24669 8.72362 8.40153 8.93856 8.59742 9.11211C9.21942 9.70011 10.1774 9.74611 10.8534 9.22111C12.5087 7.9329 14.5866 7.31176 16.6773 7.48022C18.7681 7.64867 20.7197 8.59449 22.1474 10.1311C22.7374 10.7411 22.7554 11.7021 22.1894 12.3341C22.0472 12.4867 21.8762 12.6097 21.6864 12.6962C21.4966 12.7827 21.2916 12.831 21.0831 12.8382C20.8746 12.8455 20.6667 12.8116 20.4714 12.7385C20.276 12.6653 20.0969 12.5544 19.9444 12.4121L19.8674 12.3341C19.1555 11.5535 18.2242 11.0063 17.1957 10.7646C16.1672 10.5228 15.0896 10.5977 14.1045 10.9795C13.1194 11.3612 12.2727 12.032 11.6756 12.9036C11.0786 13.7753 10.7591 14.8071 10.7591 15.8636C10.7591 16.9201 11.0786 17.952 11.6756 18.8236C12.2727 19.6953 13.1194 20.366 14.1045 20.7477C15.0896 21.1295 16.1672 21.2044 17.1957 20.9626C18.2242 20.7209 19.1555 20.1738 19.8674 19.3931C20.0955 19.1379 20.4013 18.965 20.7376 18.9012C21.0738 18.8374 21.4217 18.8862 21.7274 19.0401C21.9449 19.1492 22.1342 19.3071 22.2806 19.5014C22.4269 19.6958 22.5263 19.9214 22.5711 20.1605C22.6158 20.3997 22.6046 20.6459 22.5384 20.88C22.4722 21.1142 22.3528 21.3298 22.1894 21.5101C20.7676 23.0665 18.8134 24.0325 16.7134 24.217C14.6134 24.4014 12.5207 23.7908 10.8494 22.5061C10.5187 22.2541 10.1096 22.127 9.69436 22.1471C9.27907 22.1673 8.88423 22.3333 8.57942 22.6161C8.38482 22.7944 8.23217 23.0136 8.13243 23.258C8.03269 23.5024 7.98836 23.7658 8.0026 24.0293C8.01685 24.2929 8.08933 24.55 8.21483 24.7822C8.34033 25.0143 8.51573 25.2158 8.72842 25.3721C10.2201 26.4783 11.9508 27.2186 13.7811 27.5331C15.6114 27.8476 17.4899 27.7276 19.2653 27.1828C21.0407 26.638 22.6632 25.6836 24.0021 24.3966C25.3409 23.1096 26.3585 21.526 26.9729 19.7735C27.5874 18.021 27.7813 16.1486 27.5393 14.3073C27.2972 12.4661 26.6258 10.7075 25.5793 9.17335C24.5327 7.63921 23.1403 6.37246 21.5144 5.47526C19.8884 4.57805 18.0743 4.07549 16.2184 4.00811L16.2194 4.00711ZM15.9994 18.7951C15.6142 18.7937 15.2331 18.7164 14.8778 18.5676C14.5225 18.4189 14.2 18.2017 13.9287 17.9283C13.6574 17.6549 13.4425 17.3308 13.2965 16.9744C13.1504 16.618 13.076 16.2363 13.0774 15.8511C13.0789 15.4659 13.1562 15.0848 13.3049 14.7295C13.4536 14.3742 13.6709 14.0517 13.9442 13.7804C14.2176 13.5091 14.5418 13.2942 14.8982 13.1482C15.2546 13.0021 15.6362 12.9277 16.0214 12.9291C16.7993 12.9319 17.5442 13.2436 18.0923 13.7956C18.6404 14.3476 18.9467 15.0947 18.9439 15.8726C18.9411 16.6505 18.6294 17.3954 18.0774 17.9435C17.5254 18.4916 16.7783 18.7979 16.0004 18.7951H15.9994Z" fill="white"/>
</g>
<defs>
<clipPath id="clip0_0_393">
<rect width="32" height="32" fill="white"/>
</clipPath>
</defs>
</svg>
