<svg width="32" height="32" viewBox="0 0 32 32" fill="none" xmlns="http://www.w3.org/2000/svg">
<g clip-path="url(#clip0_0_389)">
<path d="M16 32C24.8366 32 32 24.8366 32 16C32 7.16344 24.8366 0 16 0C7.16344 0 0 7.16344 0 16C0 24.8366 7.16344 32 16 32Z" fill="#C1A05C"/>
<path fill-rule="evenodd" clip-rule="evenodd" d="M16.7758 26C14.4568 25.994 12.3808 25.282 10.5268 23.92C10.0338 23.558 10.0188 23.35 10.4388 22.899L10.4768 22.859C10.9898 22.303 10.9868 22.306 11.5958 22.744C12.9992 23.7694 14.6814 24.3435 16.4188 24.39C18.2648 24.454 19.9608 24.013 21.4938 23.024C23.3328 21.838 24.5868 20.186 25.1118 18.077C25.7708 15.429 25.2808 12.977 23.5448 10.822C22.3288 9.312 20.7488 8.339 18.8398 7.878C17.1358 7.466 15.4618 7.567 13.8168 8.133C12.9458 8.433 12.1408 8.875 11.4138 9.443C11.0548 9.723 10.9188 9.717 10.6138 9.375C10.4671 9.21561 10.3295 9.04801 10.2018 8.873C10.0138 8.607 10.0398 8.449 10.2938 8.247C11.5007 7.2897 12.9068 6.61516 14.4088 6.273C15.7681 5.95081 17.1793 5.91336 18.5538 6.163C20.4218 6.501 22.0838 7.269 23.5108 8.513C24.5668 9.435 25.4208 10.513 26.0148 11.773C26.8328 13.509 27.1658 15.327 26.9208 17.245C26.7022 18.9951 26.0146 20.6536 24.9308 22.045C23.8238 23.487 22.4068 24.539 20.7128 25.23C19.4648 25.746 18.1263 26.0078 16.7758 26V26ZM16.1398 19.617C16.0728 19.719 16.0378 19.795 15.9818 19.853C15.6438 20.208 15.2308 20.421 14.7328 20.437C14.3878 20.447 14.0418 20.418 13.6968 20.426C13.5634 20.4248 13.4318 20.4578 13.3148 20.522C11.7208 21.522 10.0048 21.668 8.1968 21.284C7.6018 21.158 7.0688 20.929 6.6148 20.539C6.2728 20.246 6.0318 19.9 6.0028 19.414C5.9528 18.567 6.5798 17.989 7.2258 17.8C8.4188 17.45 9.5538 17.663 10.6398 18.19C11.1358 18.43 11.5998 18.736 12.0738 19.02C12.3458 19.181 12.4268 19.175 12.5628 18.897C13.1778 17.641 12.7808 16.256 11.2788 15.744C9.9608 15.294 8.6718 15.339 7.4028 15.924C7.2168 16.01 7.0128 16.174 6.7938 15.998C6.5668 15.814 6.7188 15.595 6.7768 15.401C7.1938 13.997 7.6168 12.596 8.0458 11.196C8.1398 10.889 8.3848 10.731 8.7428 10.75C9.2698 10.779 9.7938 10.858 10.3208 10.87C11.1108 10.89 11.9038 10.897 12.6928 10.858C13.2798 10.828 13.7948 10.57 14.2478 10.196C14.3028 10.151 14.4138 10.099 14.4498 10.123C14.5028 10.158 14.5348 10.256 14.5398 10.33C14.5768 10.936 14.3168 11.403 13.8348 11.766C13.2648 12.196 12.6138 12.396 11.9028 12.413C11.1658 12.43 10.4288 12.44 9.6928 12.443C9.5268 12.445 9.4388 12.505 9.3998 12.661C9.3338 12.921 9.2638 13.182 9.1888 13.441C9.1318 13.634 9.2048 13.711 9.3998 13.703C9.8638 13.686 10.3278 13.655 10.7908 13.658C11.8566 13.6518 12.8857 14.0466 13.6738 14.764C14.4468 15.452 14.7598 16.34 14.8068 17.332C14.8438 18.127 14.6918 18.888 14.2548 19.573C14.1358 19.76 14.1898 19.841 14.3908 19.894C14.9248 20.035 15.4178 19.939 15.8888 19.676C15.9288 19.654 15.9658 19.629 16.0068 19.61C16.0208 19.604 16.0418 19.611 16.1398 19.617V19.617ZM11.5718 19.843L11.5558 19.746C11.4888 19.705 11.4258 19.654 11.3528 19.622C10.8228 19.387 10.2998 19.127 9.7558 18.929C9.2008 18.726 8.6238 18.581 8.0198 18.722C7.7478 18.785 7.4758 18.854 7.3968 19.167C7.3088 19.512 7.5198 19.727 7.7658 19.915C7.8428 19.974 7.9378 20.016 8.0298 20.052C8.9638 20.412 9.9118 20.422 10.8638 20.14C11.1078 20.068 11.3368 19.943 11.5718 19.843V19.843Z" fill="white"/>
</g>
<defs>
<clipPath id="clip0_0_389">
<rect width="32" height="32" fill="white"/>
</clipPath>
</defs>
</svg>
