<svg width="32" height="32" viewBox="0 0 32 32" fill="none" xmlns="http://www.w3.org/2000/svg">
<g clip-path="url(#clip0_0_385)">
<path d="M16 32C24.8366 32 32 24.8366 32 16C32 7.16344 24.8366 0 16 0C7.16344 0 0 7.16344 0 16C0 24.8366 7.16344 32 16 32Z" fill="#383939"/>
<path fill-rule="evenodd" clip-rule="evenodd" d="M18.973 11.479L21.64 10.868L22.673 9.167L21.653 7.494L20.347 6.592L17.664 6L16.009 6.933L13.361 6.461L9.725 8.98L9.442 11.922L7.899 12.566L8.077 15.295L7 16.153L8.076 19.225L8.238 19.547L9.376 22.71L11.715 23.538L13.449 25.302L15.443 26L16.345 25.74L17.776 25.575L19.874 24.974L23 23.209L22.182 19.977L20.608 19.357L19.824 20.254L17.619 20.796L14.412 20.288L13.377 19.091L13.737 17.92L12.221 15.521L13.496 13.965L13.632 11.32L15.458 10.272L16.71 9.772L18.41 10.079L18.973 11.479Z" fill="white"/>
</g>
<defs>
<clipPath id="clip0_0_385">
<rect width="32" height="32" fill="white"/>
</clipPath>
</defs>
</svg>
