<svg width="32" height="32" viewBox="0 0 32 32" fill="none" xmlns="http://www.w3.org/2000/svg">
<g clip-path="url(#clip0_0_379)">
<path d="M16 32C24.8366 32 32 24.8366 32 16C32 7.16344 24.8366 0 16 0C7.16344 0 0 7.16344 0 16C0 24.8366 7.16344 32 16 32Z" fill="#4C6BAE"/>
<path opacity="0.5" fill-rule="evenodd" clip-rule="evenodd" d="M6.383 16.582L5 16.725C5.74 14.655 7.203 12.999 9.391 11.757C9.598 13.473 10.411 14.892 11.831 16.016L10.531 16.151C10.6577 17.3446 11.1711 18.4641 11.9931 19.3388C12.8151 20.2135 13.9005 20.7955 15.084 20.996C14.2125 21.6516 13.1809 22.0608 12.097 22.181C12.778 23.381 13.584 24.364 14.514 25.128C12.406 24.7994 10.4658 23.7833 8.99525 22.2377C7.5247 20.6921 6.60631 18.7037 6.383 16.582V16.582ZM25.617 14.562L27 14.419C26.26 16.489 24.797 18.145 22.609 19.387C22.402 17.671 21.589 16.252 20.169 15.128L21.469 14.993C21.341 13.7868 20.8181 12.6566 19.9815 11.7782C19.1449 10.8999 18.0416 10.3225 16.843 10.136C17.7115 9.48725 18.7375 9.08229 19.815 8.963C19.128 7.754 18.316 6.767 17.377 6C19.5072 6.3072 21.4741 7.31598 22.9665 8.86672C24.459 10.4175 25.3916 12.4216 25.617 14.562V14.562Z" fill="white"/>
<path fill-rule="evenodd" clip-rule="evenodd" d="M16.494 25.626L16.637 27C14.567 26.26 12.911 24.797 11.669 22.609C13.384 22.402 14.803 21.589 15.927 20.169L16.063 21.479C17.2864 21.369 18.4379 20.8529 19.334 20.0127C20.2301 19.1726 20.8194 18.0568 21.008 16.843C21.6568 17.7115 22.0617 18.7375 22.181 19.815C23.39 19.128 24.377 18.316 25.144 17.377C24.8347 19.5222 23.8139 21.5014 22.2454 22.9972C20.6769 24.493 18.6515 25.4188 16.494 25.626V25.626ZM14.562 6.383L14.419 5C16.489 5.74 18.145 7.203 19.387 9.391C17.671 9.598 16.252 10.411 15.128 11.831L14.993 10.531C13.7868 10.659 12.6566 11.1819 11.7782 12.0185C10.8999 12.8551 10.3225 13.9584 10.136 15.157C9.48725 14.2885 9.08229 13.2625 8.963 12.185C7.754 12.872 6.767 13.684 6 14.623C6.3072 12.4928 7.31598 10.5259 8.86672 9.03346C10.4175 7.54104 12.4216 6.60836 14.562 6.383V6.383Z" fill="white"/>
</g>
<defs>
<clipPath id="clip0_0_379">
<rect width="32" height="32" fill="white"/>
</clipPath>
</defs>
</svg>
