<svg width="32" height="32" viewBox="0 0 32 32" fill="none" xmlns="http://www.w3.org/2000/svg">
<g clip-path="url(#clip0_0_367)">
<path d="M16 32C24.8366 32 32 24.8366 32 16C32 7.16344 24.8366 0 16 0C7.16344 0 0 7.16344 0 16C0 24.8366 7.16344 32 16 32Z" fill="#77C3B0"/>
<path d="M25.5772 13.205L23.8892 11.517C23.6356 11.2621 23.3339 11.0601 23.0015 10.9228C22.6692 10.7855 22.3128 10.7155 21.9532 10.717H21.6932V10.447C21.6932 9.97403 21.5812 9.52403 21.3452 9.11903C21.2238 8.88415 21.0639 8.67122 20.8722 8.48903L19.1842 6.80003C18.9305 6.54499 18.6286 6.34294 18.2961 6.2056C17.9635 6.06826 17.607 5.99839 17.2472 6.00003H9.46925C8.73725 6.00003 8.05125 6.28203 7.53325 6.80003L5.84525 8.48803C5.58962 8.73884 5.38705 9.03852 5.24962 9.36923C5.11218 9.69993 5.04268 10.0549 5.04525 10.413L5.00025 17.708C4.99025 18.439 5.28225 19.148 5.80025 19.666L7.48825 21.355C7.74194 21.6098 8.04372 21.8116 8.37607 21.9488C8.70842 22.086 9.06471 22.1557 9.42425 22.154H9.72825V22.424C9.72825 22.897 9.84125 23.347 10.0772 23.752C10.2012 23.989 10.3582 24.202 10.5502 24.382L12.2382 26.072C12.4922 26.3264 12.794 26.5279 13.1263 26.6649C13.4587 26.8019 13.8148 26.8716 14.1742 26.87H21.9642C22.6962 26.87 23.3822 26.589 23.9002 26.071L25.5892 24.383C25.8438 24.1291 26.0454 23.8273 26.1826 23.495C26.3197 23.1627 26.3896 22.8065 26.3882 22.447V15.13C26.3863 14.7717 26.3138 14.4172 26.1748 14.0869C26.0358 13.7566 25.8331 13.4569 25.5782 13.205H25.5772ZM9.42425 19.677C9.35281 19.6771 9.2842 19.6491 9.23325 19.599L8.38925 18.754L7.54425 17.91C7.508 17.8674 7.48108 17.8177 7.46525 17.764V10.425C7.46525 10.345 7.49925 10.278 7.54525 10.233L9.23325 8.54503C9.25525 8.52203 9.27825 8.51103 9.30025 8.50003C9.34196 8.47827 9.38821 8.46662 9.43525 8.46603H17.2252C17.2702 8.46603 17.3042 8.47703 17.3492 8.50003C17.3832 8.51103 17.4052 8.53403 17.4282 8.55603L19.1162 10.245C19.1409 10.2661 19.1601 10.2929 19.1722 10.323C19.1842 10.335 19.1842 10.346 19.1842 10.357C19.1842 10.368 19.1942 10.38 19.1942 10.391C19.1942 10.402 19.2062 10.436 19.2062 10.458V10.818C19.2062 10.976 19.0822 11.088 18.9362 11.088H17.5862C17.5145 11.0884 17.4454 11.0603 17.3942 11.01L16.6282 10.245H10.0322L9.75125 10.525L9.36825 10.909V17.246L10.0322 17.91H16.6172L17.3832 17.134L17.3932 17.122C17.4162 17.111 17.4392 17.088 17.4612 17.077C17.4952 17.055 17.5412 17.055 17.5742 17.055H18.9242C19.0142 17.055 19.0942 17.1 19.1502 17.167C19.1853 17.2124 19.2049 17.2677 19.2062 17.325V17.708C19.2061 17.7796 19.1777 17.8482 19.1272 17.899L18.2832 18.743L17.4392 19.587C17.4282 19.599 17.4052 19.61 17.3942 19.621C17.3942 19.621 17.3832 19.632 17.3712 19.632C17.3602 19.644 17.3492 19.644 17.3372 19.644C17.3272 19.644 17.3272 19.644 17.3152 19.655C17.3042 19.655 17.2922 19.666 17.2812 19.666H9.42425V19.677V19.677ZM23.9232 22.424C23.9228 22.4958 23.8941 22.5644 23.8432 22.615L22.1552 24.304C22.1356 24.3227 22.113 24.3379 22.0882 24.349C22.0465 24.3708 22.0003 24.3824 21.9532 24.383H14.1632C14.1197 24.3824 14.077 24.3707 14.0392 24.349C14.0091 24.3369 13.9824 24.3177 13.9612 24.293L12.2722 22.604C12.2502 22.582 12.2272 22.559 12.2162 22.525C12.2042 22.515 12.2042 22.503 12.2042 22.492C12.2042 22.48 12.1942 22.469 12.1942 22.458C12.1942 22.447 12.1822 22.413 12.1822 22.39V22.03C12.1822 21.873 12.3062 21.76 12.4522 21.76H13.8022C13.8822 21.76 13.9492 21.794 13.9942 21.839L14.7602 22.604H21.3452L21.6262 22.323L22.0092 21.94V15.603L21.3452 14.938H14.7712L14.0062 15.715L13.9942 15.726C13.9722 15.738 13.9492 15.76 13.9272 15.771C13.8932 15.794 13.8482 15.794 13.8142 15.794H12.4642C12.4205 15.7932 12.3776 15.7826 12.3385 15.763C12.2994 15.7435 12.2652 15.7155 12.2382 15.681C12.2034 15.6359 12.1838 15.581 12.1822 15.524V15.141C12.1822 15.1056 12.1892 15.0704 12.2027 15.0377C12.2163 15.0049 12.2362 14.9751 12.2612 14.95L13.1052 14.106L13.9492 13.261C13.9612 13.25 13.9832 13.239 13.9942 13.227C13.9942 13.227 14.0062 13.217 14.0172 13.217C14.0282 13.205 14.0392 13.205 14.0512 13.205C14.0612 13.205 14.0612 13.205 14.0732 13.194C14.0842 13.194 14.0962 13.182 14.1072 13.182H21.9532C22.0312 13.182 22.0992 13.216 22.1442 13.262L22.9882 14.106L23.8332 14.95C23.8432 14.961 23.8552 14.972 23.8662 14.995C23.8862 15.0263 23.9013 15.0603 23.9112 15.096V15.152C23.9232 15.13 23.9232 22.424 23.9232 22.424Z" fill="white"/>
</g>
<defs>
<clipPath id="clip0_0_367">
<rect width="32" height="32" fill="white"/>
</clipPath>
</defs>
</svg>
