<svg width="32" height="32" viewBox="0 0 32 32" fill="none" xmlns="http://www.w3.org/2000/svg">
<g clip-path="url(#clip0_0_363)">
<path d="M16 32C24.8366 32 32 24.8366 32 16C32 7.16344 24.8366 0 16 0C7.16344 0 0 7.16344 0 16C0 24.8366 7.16344 32 16 32Z" fill="#00D395"/>
<path fill-rule="evenodd" clip-rule="evenodd" d="M8.82 21.5866C8.57144 21.4396 8.36523 21.2307 8.22151 20.9802C8.07779 20.7298 8.00147 20.4463 8 20.1576V16.9046C8 16.5176 8.322 16.2046 8.716 16.2066C8.842 16.2066 8.966 16.2396 9.076 16.3016L16.579 20.5826C17.018 20.8326 17.289 21.2926 17.289 21.7896V25.1596C17.2883 25.2709 17.2657 25.3811 17.2223 25.4837C17.1789 25.5863 17.1157 25.6793 17.0362 25.7574C16.9567 25.8355 16.8626 25.897 16.7593 25.9386C16.6559 25.9802 16.5454 26.0009 16.434 25.9996C16.2757 25.9996 16.1203 25.9572 15.984 25.8766L8.82 21.5866V21.5866ZM20.004 15.4106C20.444 15.6606 20.712 16.1216 20.714 16.6176V23.4576C20.714 23.6596 20.604 23.8466 20.423 23.9446L18.781 24.8486C18.7599 24.8603 18.7374 24.8694 18.714 24.8756V21.0776C18.714 20.5856 18.451 20.1296 18.018 19.8776L11.43 16.0196V11.7326C11.43 11.3456 11.752 11.0326 12.147 11.0346C12.2729 11.0347 12.3965 11.0675 12.506 11.1296L20.006 15.4106H20.004ZM23.289 10.3586C23.729 10.6086 24 11.0686 24 11.5676V21.5576C23.9987 21.6591 23.9701 21.7583 23.9171 21.8449C23.8642 21.9315 23.7888 22.0022 23.699 22.0496L22.142 22.8726V15.9166C22.142 15.4256 21.878 14.9706 21.449 14.7176L14.713 10.7646V6.69956C14.713 6.57556 14.748 6.45456 14.809 6.34756C14.9071 6.18672 15.0639 6.07038 15.2463 6.02315C15.4286 5.97593 15.6222 6.00154 15.786 6.09456L23.289 10.3596V10.3586Z" fill="white"/>
</g>
<defs>
<clipPath id="clip0_0_363">
<rect width="32" height="32" fill="white"/>
</clipPath>
</defs>
</svg>
