<svg width="32" height="32" viewBox="0 0 32 32" fill="none" xmlns="http://www.w3.org/2000/svg">
<g clip-path="url(#clip0_0_359)">
<path d="M16 32C24.8366 32 32 24.8366 32 16C32 7.16344 24.8366 0 16 0C7.16344 0 0 7.16344 0 16C0 24.8366 7.16344 32 16 32Z" fill="#71C800"/>
<path fill-rule="evenodd" clip-rule="evenodd" d="M25.8201 14.715C25.0331 14.752 24.2431 14.798 23.4561 14.77C22.7501 14.744 22.0471 14.627 21.3431 14.545C21.2704 14.5327 21.2023 14.5009 21.1461 14.453C19.9811 13.498 18.8361 12.521 17.8321 11.39C17.4661 10.977 17.1701 10.531 17.0041 9.98902C16.7811 9.25802 15.8441 8.97701 15.1501 9.40001C14.4221 9.84401 14.2971 10.877 14.9101 11.469C15.0186 11.5769 15.1529 11.6554 15.3001 11.697C15.8301 11.825 16.2401 12.141 16.6271 12.499C17.3211 13.14 17.9431 13.849 18.5471 14.575C18.7201 14.782 18.6321 15.022 18.3671 15.052C17.9571 15.1 17.5441 15.143 17.1311 15.16C16.3531 15.192 15.5741 15.223 14.7951 15.215C14.3601 15.21 13.9231 15.143 13.4921 15.071C13.2889 15.0314 13.0947 14.9548 12.9191 14.845C12.3401 14.498 11.7401 14.735 11.4061 15.077C11.2043 15.2837 11.0755 15.5507 11.0392 15.8373C11.0029 16.1239 11.0612 16.4145 11.2051 16.665C11.4831 17.141 12.0311 17.419 12.5231 17.315C12.6651 17.285 12.8051 17.222 12.9311 17.149C13.2611 16.961 13.6191 16.873 13.9891 16.85C14.5831 16.814 15.1811 16.78 15.7761 16.794C16.5331 16.812 17.2901 16.879 18.0471 16.926C18.1501 16.933 18.2541 16.938 18.3561 16.954C18.6401 17 18.7221 17.227 18.5341 17.45C18.3081 17.718 18.0901 17.995 17.8461 18.245C17.3328 18.7711 16.8111 19.2888 16.2811 19.798C16.0406 20.0281 15.7424 20.1891 15.4181 20.264C14.7621 20.421 14.4381 21.054 14.5301 21.694C14.6221 22.33 15.1901 22.808 15.8331 22.809C16.4291 22.809 16.8871 22.491 17.0461 21.921C17.2091 21.335 17.5851 20.893 17.9771 20.462C18.9441 19.401 20.0311 18.468 21.1401 17.562C21.2049 17.5094 21.2826 17.4749 21.3651 17.462C21.9261 17.389 22.4871 17.298 23.0501 17.263C23.6849 17.2218 24.3214 17.2132 24.9571 17.237C25.6201 17.264 26.2801 17.351 26.9601 17.414C26.9481 17.644 26.9451 17.84 26.9271 18.034C26.8051 19.294 26.4841 20.501 25.8911 21.622C24.4271 24.387 22.1691 26.118 19.1141 26.793C18.4294 26.9377 17.7309 27.0064 17.0311 26.998C16.2861 26.997 15.5411 27.004 14.7961 26.996C12.7311 26.974 10.8421 26.386 9.16111 25.182C7.13811 23.732 5.83111 21.785 5.26911 19.356C5.14284 18.8136 5.06784 18.2605 5.04511 17.704C4.9979 16.6527 4.98856 15.6 5.01711 14.548C5.07809 12.4388 5.81612 10.4053 7.1221 8.74795C8.42808 7.09062 10.2327 5.89751 12.2691 5.34501C13.083 5.12313 13.9225 5.00948 14.7661 5.00701C15.6301 5.00401 16.4931 4.99101 17.3561 5.01101C19.4221 5.05901 21.2991 5.68901 22.9591 6.92301C24.9441 8.39801 26.2071 10.355 26.7391 12.772C26.8681 13.352 26.9131 13.95 27.0001 14.569C26.5701 14.624 26.1971 14.697 25.8201 14.715V14.715Z" fill="white"/>
</g>
<defs>
<clipPath id="clip0_0_359">
<rect width="32" height="32" fill="white"/>
</clipPath>
</defs>
</svg>
