<svg width="32" height="32" viewBox="0 0 32 32" fill="none" xmlns="http://www.w3.org/2000/svg">
<g clip-path="url(#clip0_0_347)">
<path d="M16 32C24.8366 32 32 24.8366 32 16C32 7.16344 24.8366 0 16 0C7.16344 0 0 7.16344 0 16C0 24.8366 7.16344 32 16 32Z" fill="#0F1529"/>
<path fill-rule="evenodd" clip-rule="evenodd" d="M24.833 15.846C24.632 15.891 24.494 15.917 24.359 15.953C23.514 16.174 22.663 16.349 21.783 16.316C20.607 16.271 19.597 15.798 18.706 15.036C18.346 14.727 18.012 14.386 17.668 14.058C17.501 13.9 17.461 13.72 17.588 13.514L17.913 12.987L18.352 13.469C18.985 14.171 19.662 14.81 20.555 15.151C21.432 15.485 22.325 15.436 23.222 15.285C24.49 15.073 25.661 14.566 26.809 13.997C26.847 13.978 26.889 13.966 27 13.922C26.924 14.065 26.882 14.15 26.834 14.23C25.158 17.048 23.482 19.866 21.804 22.683C21.598 23.029 21.521 23.055 21.163 22.88C18.797 21.718 16.319 21.497 13.761 21.937C13.361 22.006 13.29 21.972 13.099 21.562C12.89 21.114 12.892 21.126 13.365 21.035C14.683 20.7775 16.0325 20.7226 17.367 20.872C18.616 21.012 19.861 21.196 21.007 21.784C21.171 21.869 21.258 21.798 21.34 21.662C22.067 20.448 22.794 19.234 23.525 18.022C23.916 17.373 24.315 16.729 24.708 16.082C24.742 16.026 24.769 15.967 24.833 15.846V15.846ZM7.179 15.967C7.347 16.25 7.515 16.533 7.685 16.815L11.049 22.395C11.209 22.661 11.209 22.669 10.932 22.796C10.335 23.071 10.409 23.142 10.044 22.531C8.754 20.366 7.466 18.199 6.178 16.033L5.134 14.278C5.084 14.195 5.044 14.105 5 14.018L5.039 13.966C5.186 14.031 5.334 14.092 5.479 14.16C6.362 14.573 7.255 14.957 8.201 15.191C9.415 15.493 10.614 15.528 11.771 14.951C12.491 14.592 13.084 14.063 13.618 13.46C14.473 12.492 15.167 11.406 15.796 10.274L15.949 10C16.032 10.124 16.085 10.218 16.152 10.3C16.521 10.752 16.434 11.154 16.123 11.622C15.429 12.666 14.73 13.7 13.806 14.548C12.98 15.306 12.054 15.878 10.966 16.139C10.112 16.344 9.254 16.303 8.397 16.144C8.005 16.071 7.615 15.989 7.224 15.911L7.179 15.967V15.967Z" fill="white"/>
</g>
<defs>
<clipPath id="clip0_0_347">
<rect width="32" height="32" fill="white"/>
</clipPath>
</defs>
</svg>
