<svg width="32" height="32" viewBox="0 0 32 32" fill="none" xmlns="http://www.w3.org/2000/svg">
<g clip-path="url(#clip0_0_343)">
<path d="M16 32C24.8366 32 32 24.8366 32 16C32 7.16344 24.8366 0 16 0C7.16344 0 0 7.16344 0 16C0 24.8366 7.16344 32 16 32Z" fill="#262626"/>
<path fill-rule="evenodd" clip-rule="evenodd" d="M16.682 9.625C19.135 9.806 20.325 11.27 20.325 11.535C20.325 11.722 20.28 12.13 20.28 12.38C20.28 12.547 20.34 12.814 20.46 13.18C20.43 13.43 20.265 13.556 19.964 13.556C19.514 13.556 19.64 13.051 18.972 12.051C18.252 10.974 17.524 10.748 16.678 10.701C16.695 12.997 16.758 19.317 16.763 21.491C19.018 21.163 20.27 19.479 20.595 19.479C20.775 19.479 21.001 19.619 21.001 19.949C21.001 20.644 19.219 22.216 16.729 22.527C16.543 24.556 15.583 27 13.201 27C12.074 27 11.127 26.13 11.127 25.12C11.127 24.462 11.623 24.18 12.074 24.18C12.524 24.18 12.975 24.509 12.975 25.12C12.975 25.527 12.84 25.81 12.57 25.966C12.84 26.154 13.11 26.248 13.381 26.248C14.283 26.248 14.961 24.616 15.077 22.518C12.449 22.096 10 19.592 10 15.953C10 11.86 12.55 10.09 15.051 9.695C15.101 7.855 16.062 5.045 18.521 5C20.008 5 20.639 6.222 20.639 6.88C20.639 7.538 20.166 7.82 19.693 7.82C19.219 7.82 18.746 7.444 18.746 6.88C18.746 6.504 18.896 6.238 19.196 6.081C18.986 5.893 18.716 5.799 18.386 5.799C17.135 5.799 16.742 8.437 16.681 9.625H16.682ZM15.095 21.413C15.091 18.979 15.06 13.37 15.052 10.793C12.744 11.36 11.985 14.106 11.985 15.953C11.985 18.881 13.369 20.892 15.095 21.413Z" fill="white"/>
</g>
<defs>
<clipPath id="clip0_0_343">
<rect width="32" height="32" fill="white"/>
</clipPath>
</defs>
</svg>
