<svg width="32" height="32" viewBox="0 0 32 32" fill="none" xmlns="http://www.w3.org/2000/svg">
<g clip-path="url(#clip0_0_332)">
<path d="M16 32C24.8366 32 32 24.8366 32 16C32 7.16344 24.8366 0 16 0C7.16344 0 0 7.16344 0 16C0 24.8366 7.16344 32 16 32Z" fill="black"/>
<path d="M16.0253 4.39808C15.8793 4.06808 16.4073 3.83408 16.5533 4.14808C19.9853 10.0601 23.4173 15.9751 26.8493 21.8961C26.6663 21.8961 26.4903 21.8361 26.3143 21.8081L17.1543 19.9821C16.8543 19.9671 16.7883 19.4821 17.0813 19.4101L20.6753 18.4201C20.7181 18.4092 20.758 18.389 20.7921 18.361C20.8263 18.3329 20.8538 18.2976 20.8727 18.2577C20.8916 18.2178 20.9015 18.1741 20.9016 18.13C20.9017 18.0858 20.892 18.0421 20.8733 18.0021L16.0253 4.39008V4.39708V4.39808Z" fill="white"/>
<path d="M15.37 4C15.403 4.048 15.432 4.1 15.457 4.154C16.543 7.234 17.657 10.314 18.735 13.394C18.831 13.65 18.471 13.863 18.295 13.672C17.371 12.704 16.491 11.707 15.582 10.739C15.435 10.607 15.222 10.695 15.127 10.834L5.682 21.93C5.572 22.047 5.477 22.223 5.293 22.245C5.161 22.245 5.073 22.142 5 22.04V21.87C8.461 15.916 11.918 9.96 15.37 4V4Z" fill="white"/>
<path d="M12.6 15.0114C12.776 14.9604 13.01 15.0844 12.952 15.2974C12.585 16.5734 12.197 17.8424 11.815 19.1104C11.757 19.2724 11.903 19.4184 12.057 19.4264C17 20.4164 21.943 21.4424 26.885 22.4324C26.981 22.4474 27.047 22.5204 27.12 22.5794V22.7844L26.98 22.9314H6C8.2 20.2914 10.393 17.6364 12.6 15.0114V15.0114Z" fill="white"/>
</g>
<defs>
<clipPath id="clip0_0_332">
<rect width="32" height="32" fill="white"/>
</clipPath>
</defs>
</svg>
