<svg width="32" height="32" viewBox="0 0 32 32" fill="none" xmlns="http://www.w3.org/2000/svg">
<g clip-path="url(#clip0_0_314)">
<path d="M16 32C24.8366 32 32 24.8366 32 16C32 7.16344 24.8366 0 16 0C7.16344 0 0 7.16344 0 16C0 24.8366 7.16344 32 16 32Z" fill="#008CE7"/>
<path d="M19.129 8H11.853L11.251 11.367L17.813 11.377C21.044 11.377 22.003 12.55 21.972 14.497C21.958 15.495 21.523 17.183 21.339 17.727C20.842 19.187 19.818 20.849 15.98 20.844L9.602 20.84L9 24.211H16.257C18.816 24.211 19.906 23.912 21.057 23.381C23.611 22.203 25.132 19.68 25.743 16.387C26.649 11.487 25.519 8 19.128 8H19.129Z" fill="white"/>
<path d="M15.803 15.38C16.04 14.395 16.115 14 16.115 14H8.669C6.765 14 6.493 15.24 6.312 15.99C6.075 16.971 6 17.371 6 17.371H13.447C15.35 17.371 15.622 16.131 15.803 15.38V15.38Z" fill="white"/>
</g>
<defs>
<clipPath id="clip0_0_314">
<rect width="32" height="32" fill="white"/>
</clipPath>
</defs>
</svg>
