<svg width="32" height="32" viewBox="0 0 32 32" fill="none" xmlns="http://www.w3.org/2000/svg">
<g clip-path="url(#clip0_0_310)">
<path d="M16 32C24.8366 32 32 24.8366 32 16C32 7.16344 24.8366 0 16 0C7.16344 0 0 7.16344 0 16C0 24.8366 7.16344 32 16 32Z" fill="#2D9CDB"/>
<path d="M19.8 6.00053C20.192 6.00053 20.508 6.12053 20.747 6.35953C20.986 6.59853 21.105 6.91353 21.105 7.30653V18.9805C21.105 20.3105 20.79 21.5235 20.158 22.6155C19.5556 23.6787 18.681 24.5623 17.624 25.1755C16.566 25.7895 15.38 26.0965 14.065 26.0965C12.751 26.0965 11.548 25.7895 10.455 25.1755C9.39803 24.5623 8.52341 23.6787 7.921 22.6155C7.307 21.5235 7 20.3115 7 18.9805C7 17.6495 7.281 16.4455 7.845 15.3705C8.425 14.2785 9.21 13.4245 10.2 12.8105C11.207 12.1965 12.325 11.8885 13.553 11.8885C14.4986 11.8816 15.4336 12.0874 16.2889 12.4907C17.1442 12.894 17.8978 13.4845 18.494 14.2185V7.30653C18.494 6.91353 18.614 6.59853 18.853 6.35953C19.109 6.11966 19.4493 5.99063 19.8 6.00053V6.00053ZM14.065 23.7925C14.919 23.7925 15.687 23.5885 16.369 23.1785C17.0632 22.7582 17.6298 22.1566 18.008 21.4385C18.4 20.7035 18.597 19.8845 18.597 18.9805C18.597 18.0765 18.4 17.2645 18.007 16.5485C17.6333 15.8338 17.0655 15.2391 16.369 14.8325C15.687 14.4065 14.919 14.1925 14.065 14.1925C13.212 14.1925 12.435 14.4065 11.735 14.8325C11.0462 15.2488 10.4808 15.8411 10.097 16.5485C9.705 17.2645 9.509 18.0755 9.509 18.9805C9.509 19.8855 9.705 20.7035 10.097 21.4375C10.4852 22.1487 11.0496 22.7481 11.736 23.1785C12.436 23.5885 13.212 23.7925 14.066 23.7925H14.065Z" fill="white"/>
</g>
<defs>
<clipPath id="clip0_0_310">
<rect width="32" height="32" fill="white"/>
</clipPath>
</defs>
</svg>
