<svg width="32" height="32" viewBox="0 0 32 32" fill="none" xmlns="http://www.w3.org/2000/svg">
<g clip-path="url(#clip0_0_306)">
<path d="M16 32C24.8366 32 32 24.8366 32 16C32 7.16344 24.8366 0 16 0C7.16344 0 0 7.16344 0 16C0 24.8366 7.16344 32 16 32Z" fill="#E9570F"/>
<path d="M24.14 9.91399L25.747 8.31999C26.127 7.94399 26.048 7.25599 25.573 6.78499C25.098 6.31299 24.403 6.23599 24.024 6.61299L21.008 9.60299L20.905 9.70599L18.277 12.311C17.4035 11.6811 16.3351 11.3807 15.2612 11.463C14.1874 11.5454 13.1773 12.0052 12.41 12.761C11.649 13.5148 11.1845 14.5171 11.1011 15.5851C11.0178 16.653 11.3212 17.7152 11.956 18.578L9.95004 20.568C9.42972 19.8746 9.02794 19.0998 8.76104 18.275C8.08804 16.237 8.26904 14.005 9.36104 12.165C11.064 9.29499 14.111 8.04699 16.999 8.41299C17.1445 8.43338 17.2925 8.42361 17.434 8.38429C17.5755 8.34497 17.7074 8.27695 17.8215 8.18446C17.9356 8.09197 18.0294 7.97698 18.0971 7.84667C18.1648 7.71635 18.2049 7.5735 18.215 7.42699C18.234 7.09084 18.1225 6.76035 17.9038 6.50438C17.6851 6.24841 17.376 6.08672 17.041 6.05299C14.14 5.75599 11.141 6.70299 8.92604 8.89899C5.25604 12.537 5.04104 18.308 8.26604 22.237L6.42604 24.062C6.06304 24.422 6.15304 25.097 6.62904 25.568C7.10404 26.039 7.78404 26.13 8.14704 25.77L10.128 23.806H10.129L11.561 22.386L11.564 22.382L13.886 20.08C14.7117 20.4163 15.6179 20.5031 16.4924 20.3296C17.3669 20.1561 18.1713 19.73 18.806 19.104C19.4362 18.4805 19.8664 17.6835 20.0419 16.8146C20.2173 15.9456 20.13 15.0441 19.791 14.225L22.425 11.614C24.356 14.522 23.973 18.548 21.315 21.182C20.5158 21.9783 19.5549 22.5937 18.4974 22.9869C17.4399 23.3801 16.3104 23.5417 15.185 23.461C14.9317 23.4465 14.6826 23.531 14.4904 23.6967C14.2982 23.8624 14.178 24.0963 14.155 24.349L14.127 24.669C14.1145 24.809 14.1304 24.95 14.174 25.0836C14.2176 25.2172 14.2878 25.3406 14.3805 25.4463C14.4731 25.5519 14.5863 25.6377 14.7131 25.6983C14.8398 25.7589 14.9776 25.7932 15.118 25.799C16.5606 25.8764 18.0033 25.6497 19.3525 25.1336C20.7018 24.6174 21.9275 23.8234 22.95 22.803C26.547 19.236 26.963 13.742 24.14 9.91299V9.91399ZM17.139 17.449C16.7312 17.8508 16.1816 18.0761 15.609 18.0761C15.0365 18.0761 14.4869 17.8508 14.079 17.449C13.8787 17.2505 13.7197 17.0143 13.6112 16.754C13.5027 16.4937 13.4469 16.2145 13.4469 15.9325C13.4469 15.6505 13.5027 15.3713 13.6112 15.111C13.7197 14.8507 13.8787 14.6145 14.079 14.416C14.4868 14.0139 15.0364 13.7885 15.609 13.7885C16.1817 13.7885 16.7313 14.0139 17.139 14.416C17.3393 14.6145 17.4983 14.8507 17.6068 15.111C17.7154 15.3713 17.7712 15.6505 17.7712 15.9325C17.7712 16.2145 17.7154 16.4937 17.6068 16.754C17.4983 17.0143 17.3393 17.2505 17.139 17.449Z" fill="white"/>
</g>
<defs>
<clipPath id="clip0_0_306">
<rect width="32" height="32" fill="white"/>
</clipPath>
</defs>
</svg>
