<svg width="32" height="32" viewBox="0 0 32 32" fill="none" xmlns="http://www.w3.org/2000/svg">
<g clip-path="url(#clip0_0_302)">
<path d="M16 32C24.8366 32 32 24.8366 32 16C32 7.16344 24.8366 0 16 0C7.16344 0 0 7.16344 0 16C0 24.8366 7.16344 32 16 32Z" fill="#5BC1D4"/>
<path fill-rule="evenodd" clip-rule="evenodd" d="M13.785 16.928L12.135 18.652C11.838 18.962 11.547 19.275 11.249 19.583C11.199 19.635 11.128 19.666 11.067 19.707C10.937 19.686 10.837 19.605 10.82 19.487C10.7924 19.3074 10.7677 19.1274 10.746 18.947C10.716 18.709 10.643 18.643 10.402 18.613C9.905 18.553 9.409 18.488 8.912 18.423L7.778 18.276C7.552 18.246 7.47 18.084 7.588 17.891C7.86 17.453 8.134 17.017 8.407 16.581L10.077 13.913C10.143 13.805 10.217 13.731 10.359 13.735C10.449 13.737 10.543 13.715 10.632 13.692C10.738 13.666 10.821 13.698 10.895 13.768C11.026 13.891 11.159 14.013 11.289 14.137L12.797 15.568C13.122 15.876 13.45 16.182 13.775 16.49C13.943 16.648 13.943 16.762 13.785 16.928V16.928ZM24.875 19.247C24.969 19.325 25.071 19.399 25.091 19.532C25.116 19.702 25.048 19.825 24.904 19.918C24.054 20.468 23.204 21.021 22.354 21.572L20.711 22.637C20.6592 22.6698 20.6097 22.7062 20.563 22.746C20.5216 22.78 20.4887 22.8232 20.467 22.8721C20.4453 22.9211 20.4354 22.9745 20.438 23.028C20.446 23.233 20.458 23.438 20.461 23.642C20.464 23.877 20.291 24.024 20.055 23.997C19.97 23.9858 19.8928 23.9416 19.84 23.874C19.6423 23.6459 19.445 23.4176 19.248 23.189C19.001 22.903 18.755 22.615 18.507 22.33C18.4559 22.279 18.4172 22.2169 18.3938 22.1486C18.3704 22.0804 18.3629 22.0076 18.372 21.936L18.406 20.741C18.41 20.601 18.493 20.511 18.605 20.439L19.963 19.571C20.723 19.086 21.485 18.603 22.243 18.113C22.403 18.01 22.552 17.979 22.728 18.069C22.858 18.135 23.005 18.147 23.146 18.103C23.357 18.036 23.519 18.095 23.682 18.239C24.072 18.583 24.477 18.911 24.876 19.247H24.875ZM17.577 20.239C17.6387 20.2993 17.6827 20.3754 17.704 20.459C17.741 20.646 17.667 20.773 17.491 20.858C16.906 21.14 16.322 21.425 15.732 21.698C15.626 21.746 15.493 21.752 15.372 21.758C14.883 21.78 14.394 21.793 13.905 21.813C13.616 21.824 13.328 21.842 13.062 21.856H12.866C12.8217 21.8571 12.7776 21.8492 12.7363 21.8329C12.6951 21.8166 12.6576 21.7921 12.626 21.761C12.564 21.704 12.5 21.649 12.439 21.591C12.095 21.264 11.757 20.931 11.406 20.611C11.21 20.433 11.207 20.194 11.394 20.003C11.815 19.569 12.231 19.131 12.649 18.693C13.1 18.221 13.551 17.747 14.001 17.273C14.0351 17.2328 14.0771 17.2 14.1244 17.1767C14.1717 17.1534 14.2233 17.14 14.2759 17.1374C14.3286 17.1348 14.3812 17.143 14.4306 17.1615C14.48 17.18 14.525 17.2084 14.563 17.245L16.363 19.034C16.767 19.436 17.175 19.834 17.577 20.239V20.239ZM20.055 12.19C19.862 11.892 20.08 11.48 20.401 11.427C21.259 11.284 22.114 11.12 22.971 10.971C23.16 10.938 23.31 11.025 23.414 11.181C23.594 11.451 23.771 11.722 23.949 11.993C24.325 12.563 24.702 13.133 25.074 13.705C25.124 13.782 25.149 13.875 25.186 13.96L25.164 13.97C25.1579 14.116 25.1037 14.2559 25.01 14.368C24.486 15.072 23.956 15.773 23.433 16.478C23.3836 16.5405 23.3198 16.5901 23.2469 16.6224C23.1741 16.6547 23.0945 16.6688 23.015 16.6633C22.9355 16.6579 22.8585 16.6332 22.7907 16.5913C22.723 16.5494 22.6664 16.4917 22.626 16.423C21.861 15.153 21.088 13.887 20.318 12.62C20.231 12.476 20.146 12.33 20.055 12.19ZM18.55 15.722L18.4 17.057C18.358 17.427 18.313 17.795 18.271 18.165L18.123 19.465C18.113 19.556 18.112 19.649 18.093 19.737C18.083 19.78 18.051 19.835 18.015 19.849C17.979 19.863 17.915 19.843 17.883 19.816C17.741 19.693 17.606 19.563 17.47 19.434C16.98 18.97 16.493 18.505 16.003 18.043C15.577 17.64 15.15 17.24 14.722 16.84C14.58 16.708 14.579 16.666 14.716 16.523L16.674 14.473L18.011 13.069L18.667 12.379C18.686 12.359 18.702 12.332 18.725 12.324C18.772 12.307 18.83 12.284 18.871 12.297C18.905 12.309 18.921 12.37 18.931 12.387L18.831 13.267L18.702 14.398L18.55 15.722V15.722ZM22.356 16.742C22.42 16.845 22.43 16.943 22.36 17.05C22.2837 17.17 22.2512 17.3127 22.268 17.454C22.28 17.58 22.228 17.657 22.121 17.724C21.284 18.255 20.451 18.79 19.617 19.324C19.355 19.492 19.093 19.659 18.83 19.825C18.726 19.891 18.619 19.886 18.562 19.802C18.53 19.756 18.526 19.692 18.517 19.66L18.627 18.852L18.872 17.07L19.142 15.12L19.405 13.213L19.505 12.503C19.507 12.484 19.508 12.462 19.518 12.448C19.544 12.415 19.573 12.366 19.606 12.36C19.642 12.354 19.698 12.382 19.721 12.413C19.782 12.495 19.831 12.586 19.885 12.674L21.84 15.89C22.012 16.174 22.182 16.459 22.356 16.741V16.742ZM18.303 11.838C18.334 11.858 18.394 11.879 18.426 11.922C18.475 11.988 18.432 12.05 18.381 12.103L17.701 12.818L15.719 14.892C15.305 15.327 14.893 15.764 14.479 16.198C14.329 16.354 14.209 16.354 14.053 16.206C13.57 15.748 13.087 15.288 12.603 14.831C12.133 14.387 11.661 13.944 11.189 13.501C11.126 13.441 11.076 13.376 11.083 13.284C11.093 13.159 11.165 13.088 11.308 13.064C11.569 13.017 11.831 12.971 12.093 12.926L14.608 12.486L17.578 11.965L18.303 11.838V11.838ZM11.564 12.47C12.03 12.151 12.496 11.834 12.963 11.517L17.473 8.44499C17.623 8.34299 17.718 8.36399 17.793 8.52599C18.104 9.19199 18.413 9.85899 18.723 10.526C18.763 10.612 18.801 10.699 18.842 10.786C18.875 10.856 18.853 10.913 18.811 10.976C18.7564 11.0532 18.7101 11.136 18.673 11.223C18.64 11.306 18.59 11.351 18.5 11.367C17.836 11.485 17.173 11.607 16.51 11.725L14.156 12.148L11.586 12.61C11.55 12.616 11.513 12.61 11.476 12.61L11.454 12.569C11.491 12.536 11.524 12.498 11.564 12.47V12.47ZM6.874 13.996C6.58 13.99 6.405 13.704 6.546 13.441C6.665 13.219 6.797 13.005 6.925 12.788C7.293 12.159 7.663 11.532 8.029 10.903C8.08872 10.8003 8.1751 10.7156 8.279 10.658C9.255 10.097 10.229 9.53299 11.205 8.97099C11.267 8.93307 11.3349 8.90602 11.406 8.89099C11.4726 8.87783 11.5416 8.88446 11.6045 8.91004C11.6674 8.93563 11.7215 8.97906 11.76 9.03499C11.8026 9.08963 11.8285 9.15543 11.8345 9.22446C11.8405 9.29348 11.8265 9.36278 11.794 9.42399C11.647 9.73799 11.494 10.049 11.344 10.361C11.064 10.933 10.784 11.504 10.507 12.077C10.4808 12.1403 10.4399 12.1965 10.3878 12.241C10.3356 12.2855 10.2737 12.317 10.207 12.333C10.083 12.3626 9.96949 12.4258 9.87914 12.5158C9.78879 12.6058 9.72506 12.7191 9.695 12.843C9.67981 12.9042 9.64882 12.9603 9.60512 13.0058C9.56142 13.0512 9.50655 13.0844 9.446 13.102C8.644 13.384 7.843 13.672 7.042 13.957C6.988 13.977 6.931 13.983 6.875 13.997L6.874 13.996ZM11.027 12.17C11.031 12.1283 11.0425 12.0876 11.061 12.05L12.109 9.75299C12.327 9.27499 12.548 8.79799 12.763 8.31899C12.813 8.20899 12.886 8.15399 13.01 8.14899C13.337 8.13899 13.664 8.12199 13.991 8.10899L15.921 8.03599C16.147 8.02599 16.374 8.01099 16.601 7.99999C16.763 7.99299 16.874 8.09099 16.875 8.24999C16.882 8.34699 16.82 8.40999 16.74 8.46499L16.122 8.88599L12.428 11.399L11.248 12.203C11.2205 12.2238 11.191 12.2419 11.16 12.257C11.09 12.287 11.023 12.245 11.027 12.17V12.17ZM9.664 13.82C9.501 14.083 9.336 14.344 9.172 14.606C8.559 15.586 7.946 16.567 7.332 17.546C7.30668 17.5929 7.27275 17.6346 7.232 17.669C7.126 17.745 6.985 17.692 6.935 17.559C6.855 17.345 6.779 17.129 6.702 16.914L6.033 15.032C6.017 14.985 6.006 14.937 6 14.914C6.001 14.787 6.043 14.733 6.162 14.694C6.518 14.579 6.874 14.466 7.23 14.353L9.245 13.713L9.51 13.631C9.573 13.611 9.636 13.584 9.688 13.654C9.735 13.717 9.696 13.769 9.664 13.82V13.82ZM25.782 16.429L25.984 17.585C25.99 17.622 25.994 17.66 26 17.709C25.99 17.759 25.979 17.819 25.963 17.877L25.698 18.833C25.622 19.108 25.404 19.173 25.184 18.987C24.733 18.607 24.28 18.227 23.827 17.849C23.724 17.763 23.681 17.664 23.705 17.528C23.7344 17.3926 23.7182 17.2513 23.659 17.126C23.597 17.003 23.617 16.894 23.698 16.786C24.068 16.29 24.435 15.792 24.804 15.296L25.029 14.992C25.104 14.889 25.203 14.839 25.329 14.867C25.461 14.897 25.529 14.987 25.551 15.116L25.781 16.429H25.782ZM18.218 8.48499L18.198 8.44299C18.171 8.38299 18.16 8.31299 18.221 8.27899C18.2745 8.25498 18.335 8.25143 18.391 8.26899C18.479 8.29599 18.558 8.34599 18.641 8.38699L22.003 10.066L22.6 10.366C22.667 10.399 22.72 10.438 22.706 10.522C22.692 10.605 22.629 10.623 22.556 10.636C21.748 10.78 20.941 10.926 20.134 11.071L20.055 11.087C20.032 11.072 19.988 11.055 19.96 11.023C19.8881 10.9326 19.7976 10.8587 19.6945 10.8064C19.5915 10.7541 19.4784 10.7246 19.363 10.72C19.273 10.716 19.227 10.663 19.193 10.588C19.051 10.28 18.906 9.97399 18.763 9.66699L18.218 8.48499V8.48499Z" fill="white"/>
</g>
<defs>
<clipPath id="clip0_0_302">
<rect width="32" height="32" fill="white"/>
</clipPath>
</defs>
</svg>
