<svg width="32" height="32" viewBox="0 0 32 32" fill="none" xmlns="http://www.w3.org/2000/svg">
<g clip-path="url(#clip0_0_298)">
<path d="M16 32C24.8366 32 32 24.8366 32 16C32 7.16344 24.8366 0 16 0C7.16344 0 0 7.16344 0 16C0 24.8366 7.16344 32 16 32Z" fill="#136485"/>
<path fill-rule="evenodd" clip-rule="evenodd" d="M10.604 31.006C8.50879 30.2275 6.59982 29.0189 5 27.458L5.147 27.201C7.535 23.428 9.68 19.523 11.295 15.351C13.008 10.926 14.379 6.384 15.685 1.824C15.802 1.417 15.941 1.017 16.069 0.614C16.207 0.772 16.257 0.919 16.299 1.068C17.119 3.994 17.912 6.928 18.763 9.844C20.313 15.157 22.493 20.197 25.38 24.921C25.717 25.471 26.29 26.393 27.1 27.683C25.3757 29.2991 23.3146 30.5129 21.065 31.237C19.407 26.1773 17.7397 21.1206 16.063 16.067L15.909 16.065C14.743 19.342 12.975 24.322 10.604 31.006ZM16.243 0.049H16.119L16.168 0L16.243 0.049Z" fill="white"/>
</g>
<defs>
<clipPath id="clip0_0_298">
<rect width="32" height="32" fill="white"/>
</clipPath>
</defs>
</svg>
