<svg width="32" height="32" viewBox="0 0 32 32" fill="none" xmlns="http://www.w3.org/2000/svg">
<g clip-path="url(#clip0_0_294)">
<path d="M16 32C24.8366 32 32 24.8366 32 16C32 7.16344 24.8366 0 16 0C7.16344 0 0 7.16344 0 16C0 24.8366 7.16344 32 16 32Z" fill="#2ED6A1"/>
<path d="M14.856 17.62H19.276C19.6683 17.6188 20.0564 17.5404 20.4184 17.3892C20.7803 17.238 21.109 17.017 21.3855 16.7388C21.662 16.4606 21.881 16.1306 22.0301 15.7678C22.1791 15.4049 22.2552 15.0163 22.254 14.624C22.2561 13.832 21.9436 13.0715 21.3851 12.5099C20.8267 11.9482 20.068 11.6314 19.276 11.629H17.87L14.856 9H19.276C20.576 9.00311 21.8345 9.45826 22.8358 10.2875C23.837 11.1167 24.5187 12.2683 24.764 13.545C25.0144 14.8224 24.8147 16.1471 24.1986 17.2939C23.5826 18.4406 22.5884 19.3386 21.385 19.835L24.87 22.877H20.879L14.856 17.619V17.62ZM17.013 14.26H12.593C11.8011 14.2624 11.0426 14.5791 10.4842 15.1405C9.92578 15.702 9.61313 16.4621 9.61499 17.254C9.61287 18.046 9.9254 18.8065 10.4839 19.3681C11.0423 19.9298 11.801 20.2466 12.593 20.249H14L17.012 22.879H12.593C11.293 22.8759 10.0345 22.4207 9.03322 21.5915C8.03197 20.7623 7.35028 19.6107 7.10499 18.334C6.85454 17.0566 7.05431 15.7319 7.67035 14.5851C8.28638 13.4384 9.28063 12.5404 10.484 12.044L7.00199 9H10.993L17.013 14.26V14.26Z" fill="white"/>
</g>
<defs>
<clipPath id="clip0_0_294">
<rect width="32" height="32" fill="white"/>
</clipPath>
</defs>
</svg>
