<svg width="32" height="32" viewBox="0 0 32 32" fill="none" xmlns="http://www.w3.org/2000/svg">
<g clip-path="url(#clip0_0_286)">
<path d="M16 32C24.8366 32 32 24.8366 32 16C32 7.16344 24.8366 0 16 0C7.16344 0 0 7.16344 0 16C0 24.8366 7.16344 32 16 32Z" fill="#666666"/>
<path fill-rule="evenodd" clip-rule="evenodd" d="M25.0804 21.15C24.8746 21.4934 24.5426 21.7427 24.1554 21.8445C23.7682 21.9464 23.3565 21.8927 23.0084 21.695L18.2294 18.985V17.265L19.7474 16.405L24.5254 19.114C25.2514 19.525 25.4994 20.437 25.0804 21.149V21.15ZM17.5154 24.809C17.5154 25.632 16.8364 26.299 15.9984 26.299C15.1604 26.299 14.4814 25.632 14.4814 24.809V19.39L15.9984 18.53L17.5154 19.39V24.809ZM8.98841 21.695C8.64015 21.8926 8.22838 21.9461 7.84118 21.8441C7.45397 21.7421 7.12205 21.4926 6.91641 21.149C6.81714 20.9795 6.75272 20.7918 6.72691 20.5971C6.70111 20.4023 6.71444 20.2044 6.76613 20.0148C6.81782 19.8253 6.90683 19.648 7.02794 19.4933C7.14905 19.3386 7.29982 19.2097 7.47141 19.114L12.2494 16.404L13.7674 17.265V18.985L8.98841 21.695ZM7.47141 12.886C7.29982 12.7903 7.14905 12.6614 7.02794 12.5067C6.90683 12.352 6.81782 12.1747 6.76613 11.9852C6.71444 11.7956 6.70111 11.5977 6.72691 11.4029C6.75272 11.2082 6.81714 11.0205 6.91641 10.851C7.12205 10.5074 7.45397 10.2579 7.84118 10.1559C8.22838 10.0539 8.64015 10.1074 8.98841 10.305L13.7674 13.015V14.735L12.2494 15.595L7.47141 12.886ZM14.4814 7.191C14.4814 6.368 15.1614 5.701 15.9984 5.701C16.8364 5.701 17.5154 6.368 17.5154 7.191V12.609L15.9984 13.47L14.4814 12.61V7.191ZM18.2294 15.545L19.0334 16L18.2294 16.455V15.545ZM16.7124 13.875L17.5154 13.419V14.33L16.7124 13.875ZM14.4814 14.33V13.42L15.2844 13.875L14.4814 14.33ZM13.7674 16.455L12.9634 16L13.7674 15.545V16.455ZM15.2844 18.125L14.4814 18.581V17.67L15.2844 18.125ZM17.5154 17.67V18.58L16.7124 18.125L17.5154 17.67ZM15.9984 17.72L14.4814 16.86V15.14L15.9984 14.28L17.5154 15.14V16.86L15.9984 17.72ZM23.0084 10.305C23.3567 10.1074 23.7684 10.0539 24.1556 10.1559C24.5428 10.2579 24.8748 10.5074 25.0804 10.851C25.5004 11.563 25.2504 12.475 24.5254 12.886L19.7474 15.596L18.2294 14.735V13.015L23.0084 10.305ZM24.8824 18.507L20.4614 16L24.8824 13.493C25.1349 13.3525 25.3568 13.1629 25.5351 12.9354C25.7133 12.7079 25.8444 12.4471 25.9205 12.1684C25.9966 11.8896 26.0162 11.5984 25.9783 11.3119C25.9403 11.0254 25.8455 10.7494 25.6994 10.5C25.0834 9.452 23.7184 9.093 22.6514 9.698L18.2294 12.205V7.19C18.2294 5.981 17.2304 5 15.9984 5C14.7664 5 13.7674 5.981 13.7674 7.191V12.205L9.34541 9.698C8.27841 9.093 6.91341 9.452 6.29841 10.5C6.15232 10.7494 6.05752 11.0254 6.01956 11.3119C5.9816 11.5984 6.00124 11.8896 6.07735 12.1684C6.15345 12.4471 6.28447 12.7079 6.46273 12.9354C6.64099 13.1629 6.86289 13.3525 7.11541 13.493L11.5354 16L7.11541 18.507C6.86281 18.6475 6.64081 18.837 6.46245 19.0644C6.28409 19.2918 6.15297 19.5526 6.07677 19.8314C6.00057 20.1102 5.98084 20.4014 6.01873 20.688C6.05661 20.9745 6.15136 21.2506 6.29741 21.5C6.91341 22.548 8.27841 22.907 9.34541 22.302L13.7674 19.795V24.809C13.7674 26.019 14.7664 27 15.9984 27C17.2304 27 18.2294 26.019 18.2294 24.809V19.795L22.6514 22.302C23.7184 22.907 25.0834 22.548 25.6994 21.5C25.8455 21.2506 25.9403 20.9746 25.9783 20.6881C26.0162 20.4016 25.9966 20.1104 25.9205 19.8316C25.8444 19.5529 25.7133 19.2921 25.5351 19.0646C25.3568 18.8371 25.1349 18.6475 24.8824 18.507V18.507Z" fill="white"/>
</g>
<defs>
<clipPath id="clip0_0_286">
<rect width="32" height="32" fill="white"/>
</clipPath>
</defs>
</svg>
