<svg width="32" height="32" viewBox="0 0 32 32" fill="none" xmlns="http://www.w3.org/2000/svg">
<g clip-path="url(#clip0_0_282)">
<path d="M16 32C24.8366 32 32 24.8366 32 16C32 7.16344 24.8366 0 16 0C7.16344 0 0 7.16344 0 16C0 24.8366 7.16344 32 16 32Z" fill="#FEC907"/>
<path d="M12.661 22.816C13.279 22.816 13.781 23.306 13.781 23.908C13.781 24.511 13.279 25 12.661 25H11.208C10.888 25 10.58 24.876 10.354 24.655C10.2423 24.5469 10.1534 24.4174 10.0926 24.2743C10.0318 24.1313 10.0003 23.9775 10 23.822V8.149C10 7.844 10.124 7.552 10.345 7.336C10.565 7.121 10.865 7 11.178 7H12.735C13.353 7 13.855 7.489 13.855 8.092C13.855 8.382 13.736 8.659 13.526 8.864C13.316 9.068 13.031 9.184 12.735 9.184H12.39V22.816H12.661ZM24.831 11.364C25.61 12.702 26 14.199 26 15.855C26 17.511 25.605 19.008 24.818 20.347C24.031 21.686 23.156 22.712 21.719 23.641C20.399 24.495 19.021 24.999 17.312 24.999H16.745C16.127 24.999 15.625 24.51 15.625 23.907C15.625 23.304 16.127 22.816 16.745 22.816H17.435C18.645 22.816 19.524 22.315 20.511 21.746C21.497 21.178 22.129 20.247 22.701 19.243C23.274 18.24 23.561 17.119 23.561 15.881C23.56 14.626 23.27 13.497 22.689 12.493C22.1233 11.5041 21.3028 10.6851 20.313 10.121C19.309 9.544 18.193 9.255 16.966 9.255H16.669C16.051 9.255 15.549 8.767 15.549 8.164C15.549 7.874 15.668 7.596 15.878 7.392C16.088 7.187 16.372 7.072 16.669 7.072H17.018C18.71 7.072 20.24 7.452 21.608 8.214C22.9502 8.9495 24.0649 10.039 24.831 11.364V11.364Z" fill="white"/>
</g>
<defs>
<clipPath id="clip0_0_282">
<rect width="32" height="32" fill="white"/>
</clipPath>
</defs>
</svg>
