<svg width="32" height="32" viewBox="0 0 32 32" fill="none" xmlns="http://www.w3.org/2000/svg">
<g clip-path="url(#clip0_0_278)">
<path d="M16 32C24.8366 32 32 24.8366 32 16C32 7.16344 24.8366 0 16 0C7.16344 0 0 7.16344 0 16C0 24.8366 7.16344 32 16 32Z" fill="#006AD2"/>
<path fill-rule="evenodd" clip-rule="evenodd" d="M12.868 24.9999L13.347 23.7179L12.497 23.8019L12.191 24.6119C12.167 24.6729 12.147 24.7369 12.116 24.7949C12.049 24.9199 11.946 24.9979 11.803 24.9989C11.173 24.9999 10.545 24.9989 9.915 24.9979C9.9 24.9979 9.885 24.9889 9.852 24.9789L10.254 23.8939C9.521 23.8739 8.808 23.8619 8.098 23.7809C8.11 23.6479 12.16 13.4359 12.321 13.1289C12.361 13.1259 12.408 13.1189 12.456 13.1189H15.726C15.759 13.1189 15.792 13.1189 15.824 13.1209C16.155 13.1459 16.339 13.4259 16.224 13.7439C16.071 14.1639 15.909 14.5819 15.752 14.9999L13.694 20.4739C13.673 20.5299 13.655 20.5879 13.629 20.6639C13.687 20.6669 13.732 20.6729 13.777 20.6709C16.873 20.5359 19.145 19.0579 20.613 16.2809C20.934 15.674 21.16 15.0214 21.283 14.3459C21.356 13.9509 21.379 13.5549 21.28 13.1599C21.1802 12.7431 20.9321 12.377 20.582 12.1299C20.114 11.7929 19.588 11.6489 19.02 11.6459H8C8.024 11.5859 8.035 11.5459 8.054 11.5099L9.442 9.00889C9.50676 8.87849 9.60789 8.76963 9.73317 8.69546C9.85845 8.62128 10.0025 8.58496 10.148 8.59089H16.014L16.615 7.00089H18.397C18.441 7.00089 18.485 6.99789 18.527 7.00389C18.654 7.02389 18.727 7.12389 18.708 7.25389C18.7 7.30789 18.68 7.35989 18.66 7.41189C18.537 7.74289 18.411 8.07289 18.288 8.40389C18.267 8.45989 18.25 8.51689 18.228 8.58389H19.033C19.053 8.54089 19.073 8.49689 19.091 8.45189L19.587 7.13489C19.637 7.00189 19.639 7.00089 19.772 7.00089C20.336 7.00089 20.901 6.99889 21.465 7.00089C21.703 7.00189 21.788 7.12789 21.703 7.35789C21.568 7.72689 21.429 8.09289 21.291 8.45989C21.272 8.51089 21.255 8.56289 21.231 8.63289C21.286 8.64289 21.331 8.65289 21.376 8.65889C22.161 8.75489 22.925 8.93289 23.65 9.25989C24.201 9.50889 24.702 9.83389 25.114 10.2899C25.672 10.9049 25.949 11.6399 25.993 12.4699C26.035 13.2749 25.888 14.0509 25.621 14.7999C24.989 16.5749 24.091 18.1879 22.791 19.5469C21.895 20.4829 20.861 21.2269 19.727 21.8289C18.503 22.4789 17.209 22.9339 15.869 23.2559C15.749 23.2859 15.686 23.3379 15.645 23.4559C15.498 23.8659 15.342 24.2739 15.188 24.6819C15.093 24.9319 14.998 24.9999 14.736 24.9999H12.868V24.9999Z" fill="white"/>
</g>
<defs>
<clipPath id="clip0_0_278">
<rect width="32" height="32" fill="white"/>
</clipPath>
</defs>
</svg>
