<svg width="32" height="32" viewBox="0 0 32 32" fill="none" xmlns="http://www.w3.org/2000/svg">
<g clip-path="url(#clip0_0_270)">
<path d="M16 32C24.8366 32 32 24.8366 32 16C32 7.16344 24.8366 0 16 0C7.16344 0 0 7.16344 0 16C0 24.8366 7.16344 32 16 32Z" fill="#F4AE95"/>
<path d="M15.8067 9.45796L9.71275 22.465H19.8297C20.1227 22.465 20.3877 22.645 20.5027 22.92L20.5137 22.945C20.5514 23.0345 20.5681 23.1315 20.5627 23.2285C20.5574 23.3255 20.53 23.4201 20.4827 23.505C20.4001 23.6542 20.2792 23.7788 20.1324 23.8658C19.9857 23.9528 19.8184 23.9991 19.6477 24H8.89575C8.72935 23.9997 8.56693 23.9491 8.42975 23.855L8.37375 23.817C8.20446 23.6988 8.08246 23.5245 8.02938 23.325C7.9763 23.1255 7.99556 22.9136 8.08375 22.727L15.2737 7.57796C15.3487 7.41996 15.4557 7.27996 15.5867 7.16796C15.7104 7.06135 15.8677 7.00187 16.0309 7.00004C16.1941 6.99821 16.3528 7.05415 16.4787 7.15796C16.536 7.20456 16.5821 7.26331 16.6137 7.32996L23.9067 22.582C24.0067 22.789 24.0267 23.026 23.9647 23.248C23.9325 23.3688 23.8613 23.4757 23.7623 23.5522C23.6633 23.6286 23.5418 23.6704 23.4167 23.671H23.3327C23.1649 23.6699 23.0009 23.6208 22.8601 23.5293C22.7194 23.4379 22.6078 23.3079 22.5387 23.155L16.2487 9.45996C16.2298 9.41727 16.199 9.38091 16.16 9.35521C16.121 9.3295 16.0754 9.31553 16.0287 9.31496C15.9819 9.31498 15.9361 9.32847 15.8967 9.35383C15.8574 9.37918 15.8261 9.41533 15.8067 9.45796V9.45796Z" fill="white"/>
</g>
<defs>
<clipPath id="clip0_0_270">
<rect width="32" height="32" fill="white"/>
</clipPath>
</defs>
</svg>
