<svg width="32" height="32" viewBox="0 0 32 32" fill="none" xmlns="http://www.w3.org/2000/svg">
<g clip-path="url(#clip0_0_266)">
<path d="M16 32C24.8366 32 32 24.8366 32 16C32 7.16344 24.8366 0 16 0C7.16344 0 0 7.16344 0 16C0 24.8366 7.16344 32 16 32Z" fill="#2C398F"/>
<path d="M24.5754 19.0999C25.1018 19.0737 25.604 18.8704 26.0004 18.5229C25.4494 21.3389 23.9094 24.1099 21.2664 25.6329C19.2444 26.8109 16.7164 27.2029 14.2584 26.9029C13.8904 25.8409 12.9254 24.7099 11.2484 23.8559C8.60538 22.4939 7.36438 20.1389 6.23838 21.2929C6.13438 21.3929 6.04838 21.5099 5.98538 21.6389C5.93505 21.5332 5.88901 21.4254 5.84738 21.3159C3.68738 15.9599 5.84738 10.5799 10.1674 6.72494C12.7414 4.43894 15.7514 4.69294 18.4404 5.93994C18.279 6.07031 18.1495 6.23582 18.0618 6.42386C17.9741 6.6119 17.9305 6.81749 17.9344 7.02494V12.4269C16.8166 11.776 15.5032 11.5451 14.2304 11.7756C12.9576 12.0062 11.8088 12.6832 10.9904 13.6849C10.1687 14.6888 9.7285 15.9508 9.74754 17.2479C9.76657 18.545 10.2436 19.7936 11.0944 20.7729C11.9422 21.7498 13.1106 22.3923 14.3896 22.5849C15.6686 22.7776 16.9745 22.5077 18.0724 21.8239C18.2069 22.1136 18.4365 22.3486 18.723 22.4896C19.0096 22.6307 19.3358 22.6693 19.6474 22.5992C19.959 22.5291 20.2372 22.3544 20.4357 22.1042C20.6341 21.854 20.741 21.5433 20.7384 21.2239V7.30194C22.8064 8.75594 24.4604 10.6029 25.2184 11.8729C25.5884 12.5109 25.8524 13.2049 26.0004 13.9279C25.6754 13.6879 25.2964 13.5279 24.8974 13.4659C24.0474 13.4199 23.4034 14.5749 23.8404 16.2359C24.2084 17.7379 23.7484 19.0539 24.5754 19.0999V19.0999ZM14.2124 19.1919C11.3164 17.5299 13.7524 13.2589 16.6484 14.9209C17.5214 15.4059 17.6134 16.9529 17.4524 17.9449C17.1534 19.6539 15.5454 19.9539 14.2124 19.1919V19.1919ZM15.5684 8.15594C14.9244 8.17894 14.4654 8.96394 14.4884 9.31094C14.5104 9.65694 14.9934 9.86494 15.6594 9.63394C16.2574 9.42594 16.8094 9.56394 16.7854 9.21794C16.7624 8.87194 16.1884 8.13294 15.5684 8.15594V8.15594Z" fill="white"/>
</g>
<defs>
<clipPath id="clip0_0_266">
<rect width="32" height="32" fill="white"/>
</clipPath>
</defs>
</svg>
