<svg width="32" height="32" viewBox="0 0 32 32" fill="none" xmlns="http://www.w3.org/2000/svg">
<g clip-path="url(#clip0_0_262)">
<path d="M16 32C24.8366 32 32 24.8366 32 16C32 7.16344 24.8366 0 16 0C7.16344 0 0 7.16344 0 16C0 24.8366 7.16344 32 16 32Z" fill="#786DBC"/>
<path d="M15.9294 10.772L14.3004 9.139C14.0811 8.92921 13.9541 8.64089 13.9473 8.33746C13.9406 8.03402 14.0547 7.74033 14.2644 7.521C14.4742 7.30167 14.7626 7.17465 15.066 7.1679C15.3694 7.16115 15.6631 7.27521 15.8824 7.485L15.9204 7.523L19.5564 11.159C20.0034 11.606 20.0034 12.329 19.5564 12.776L15.9164 16.412C15.7005 16.618 15.4125 16.7314 15.114 16.7279C14.8155 16.7244 14.5303 16.6043 14.3192 16.3932C14.1081 16.1822 13.988 15.8969 13.9845 15.5984C13.981 15.3 14.0944 15.012 14.3004 14.796L16.0074 13.089C14.8574 12.886 13.6727 13.0415 12.614 13.5343C11.5552 14.0272 10.6736 14.8337 10.0886 15.8444C9.50356 16.8552 9.24341 18.0213 9.3434 19.1849C9.44339 20.3484 9.89867 21.4531 10.6476 22.3493C11.3964 23.2454 12.4027 23.8896 13.53 24.1946C14.6573 24.4996 15.8512 24.4507 16.9497 24.0545C18.0483 23.6582 18.9985 22.9338 19.6716 21.9795C20.3446 21.0251 20.708 19.8868 20.7124 18.719V6.143C20.7124 5.83986 20.8329 5.54913 21.0472 5.33478C21.2616 5.12042 21.5523 5 21.8554 5C22.1586 5 22.4493 5.12042 22.6637 5.33478C22.878 5.54913 22.9984 5.83986 22.9984 6.143V18.872C22.9665 20.4868 22.4466 22.0542 21.507 23.3679C20.5673 24.6817 19.2521 25.6802 17.7342 26.2322C16.2163 26.7842 14.5668 26.8639 13.0028 26.4606C11.4388 26.0574 10.0335 25.1902 8.97166 23.9731C7.90986 22.756 7.24132 21.246 7.05399 19.6418C6.86667 18.0375 7.16932 16.4141 7.92215 14.9852C8.67497 13.5562 9.8427 12.3885 11.2717 11.6358C12.7008 10.8831 14.3242 10.5806 15.9284 10.768L15.9294 10.772V10.772Z" fill="white"/>
</g>
<defs>
<clipPath id="clip0_0_262">
<rect width="32" height="32" fill="white"/>
</clipPath>
</defs>
</svg>
