<svg width="32" height="32" viewBox="0 0 32 32" fill="none" xmlns="http://www.w3.org/2000/svg">
<g clip-path="url(#clip0_0_254)">
<path d="M16 32C24.8366 32 32 24.8366 32 16C32 7.16344 24.8366 0 16 0C7.16344 0 0 7.16344 0 16C0 24.8366 7.16344 32 16 32Z" fill="#E6007A"/>
<path d="M16.736 7C13.029 7 10 10.012 10 13.736C10 14.485 10.124 15.216 10.356 15.928C10.4381 16.1631 10.6093 16.3565 10.8326 16.4666C11.0559 16.5768 11.3135 16.5949 11.55 16.517C11.7849 16.4347 11.9781 16.2635 12.088 16.0402C12.198 15.8169 12.2159 15.5594 12.138 15.323C11.9425 14.7679 11.8519 14.1812 11.871 13.593C11.942 11.081 13.974 9.013 16.487 8.889C17.1453 8.85441 17.8037 8.9541 18.4222 9.18198C19.0407 9.40987 19.6064 9.76119 20.0849 10.2146C20.5634 10.668 20.9446 11.214 21.2054 11.8194C21.4662 12.4247 21.6011 13.0768 21.602 13.736C21.6005 14.9757 21.1256 16.1679 20.2743 17.0691C19.4229 17.9702 18.2596 18.5121 17.022 18.584C17.022 18.584 16.077 18.637 15.614 18.709C15.382 18.744 15.204 18.78 15.079 18.798C15.025 18.816 14.972 18.762 14.989 18.708L15.15 17.925L16.023 13.897C16.0739 13.6562 16.0276 13.405 15.8943 13.198C15.761 12.9911 15.5513 12.8452 15.311 12.792C15.07 12.7411 14.8187 12.7875 14.6117 12.9211C14.4048 13.0546 14.259 13.2645 14.206 13.505C14.206 13.505 12.103 23.307 12.085 23.414C12.0341 23.655 12.0805 23.9063 12.2141 24.1133C12.3476 24.3202 12.5575 24.466 12.798 24.519C13.039 24.5699 13.2903 24.5235 13.4973 24.3899C13.7042 24.2564 13.85 24.0465 13.903 23.806C13.92 23.699 14.206 22.398 14.206 22.398C14.3072 21.921 14.5533 21.4869 14.9105 21.1551C15.2678 20.8232 15.7189 20.6098 16.202 20.544C16.5515 20.5057 16.902 20.476 17.253 20.455C18.945 20.3231 20.5251 19.5582 21.678 18.3128C22.8309 17.0674 23.4718 15.4331 23.473 13.736C23.473 10.012 20.443 7 16.736 7V7ZM17.217 22.505C17.0719 22.4737 16.922 22.4715 16.7761 22.4986C16.6301 22.5256 16.491 22.5813 16.3667 22.6625C16.2424 22.7437 16.1355 22.8488 16.0522 22.9716C15.9688 23.0944 15.9106 23.2325 15.881 23.378C15.756 23.984 16.131 24.59 16.754 24.715C16.8992 24.7464 17.0493 24.7487 17.1954 24.7217C17.3415 24.6946 17.4808 24.6388 17.6052 24.5575C17.7296 24.4762 17.8366 24.371 17.92 24.248C18.0034 24.125 18.0615 23.9867 18.091 23.841C18.215 23.218 17.841 22.629 17.217 22.505V22.505Z" fill="white"/>
</g>
<defs>
<clipPath id="clip0_0_254">
<rect width="32" height="32" fill="white"/>
</clipPath>
</defs>
</svg>
