<svg width="32" height="32" viewBox="0 0 32 32" fill="none" xmlns="http://www.w3.org/2000/svg">
<g clip-path="url(#clip0_0_240)">
<path d="M16 32C24.8366 32 32 24.8366 32 16C32 7.16344 24.8366 0 16 0C7.16344 0 0 7.16344 0 16C0 24.8366 7.16344 32 16 32Z" fill="#242D3D"/>
<path d="M23.264 17.103C22.713 14.676 21 12 21 12C22.974 17.387 22.214 21.45 21.691 23.755C21.691 23.755 21.001 26.333 22.486 24.185C24.338 21.497 23.264 17.103 23.264 17.103Z" fill="white"/>
<path d="M18.2092 7.899C19.2362 11.557 19.7012 14.662 19.8462 17.251C20.1012 21.663 19.4282 24.566 19.0102 26.099C18.8762 26.598 19.4342 26.969 19.7592 26.592L19.7652 26.586C20.5772 25.657 20.9612 23.481 21.1412 21.571L21.1932 20.944C21.3612 18.644 21.2632 16.323 20.7232 14.099C19.7302 9.995 18.2092 7.899 18.2092 7.899V7.899ZM16.3692 14.343C16.1192 8.335 15.6662 3 15.6662 3C15.6662 3 15.2082 8.068 14.9582 13.942C14.9182 14.895 14.8822 15.864 14.8532 16.839C14.8132 18.256 14.7952 19.679 14.7952 21.054C14.8012 23.498 14.8952 25.791 15.1152 27.62C15.2022 28.345 16.1422 28.345 16.2292 27.62C16.3802 26.372 16.4672 24.839 16.5022 23.155C16.5346 21.3344 16.527 19.5133 16.4792 17.693C16.4492 16.578 16.4152 15.452 16.3692 14.343V14.343ZM9.35116 21.582C9.21414 20.4497 9.18267 19.3071 9.25716 18.169C9.31516 17.275 9.44316 16.317 9.66416 15.295C9.86716 14.36 10.1452 13.379 10.5232 12.346C10.5232 12.346 9.31516 14.233 8.60716 16.27C8.46716 16.66 8.35216 17.06 8.26416 17.449C8.26416 17.449 8.03816 18.471 8.00416 19.835C7.98016 20.781 8.05516 21.901 8.35716 22.958C8.5098 23.5113 8.73866 24.0407 9.03716 24.531C9.03716 24.531 10.5232 26.743 9.83216 24.101C9.61718 23.2726 9.45618 22.4312 9.35016 21.582H9.35116Z" fill="white"/>
<path d="M11.3964 20.499C11.3479 19.3029 11.3673 18.1049 11.4544 16.911C11.5147 16.0295 11.6078 15.1506 11.7334 14.276C11.9934 12.395 12.4184 10.311 13.0634 8C13.0634 8 11.5354 10.096 10.5434 14.2C10.4904 14.42 10.4434 14.641 10.3974 14.856C10.2174 15.75 10.1014 16.656 10.0434 17.573C9.97341 18.723 9.99141 19.883 10.0734 21.039L10.1254 21.672C10.3054 23.582 10.6824 25.758 11.5004 26.687L11.5064 26.693C11.8314 27.065 12.3944 26.693 12.2564 26.2C11.9534 25.068 11.5064 23.187 11.3964 20.499V20.499Z" fill="white"/>
<path d="M13.7559 20.947C13.7231 19.6159 13.7171 18.2843 13.7379 16.953C13.7499 16.077 13.7729 15.153 13.8139 14.184C13.9129 11.682 14.3829 8.065 14.7079 5C14.7079 5 13.1059 8.315 12.3739 14.295C12.2759 15.113 12.1829 15.995 12.1129 16.948L12.0609 17.656C12.0609 17.656 11.9739 18.921 12.0079 20.628C12.0549 22.822 12.2979 25.748 13.2039 27.664C13.2339 27.722 13.2679 27.774 13.3139 27.814L13.3199 27.821C13.6629 28.146 14.1909 27.838 14.1449 27.333C13.9318 25.2102 13.8017 23.0799 13.7549 20.947H13.7559ZM17.0759 20.947C17.1059 19.751 17.1169 18.417 17.0939 16.953C17.0819 16.077 17.0589 15.153 17.0179 14.184C16.9199 11.682 16.4499 8.065 16.1239 5C16.1239 5 17.7269 8.315 18.4579 14.295C18.5569 15.113 18.6499 15.995 18.7189 16.948L18.7719 17.656C18.7719 17.656 18.8589 18.921 18.8239 20.628C18.7769 22.822 18.5339 25.748 17.6279 27.664C17.6013 27.7207 17.5639 27.7716 17.5179 27.814L17.5119 27.821C17.1689 28.146 16.6419 27.838 16.6879 27.333C16.8039 26.236 17.0009 24.059 17.0759 20.947V20.947Z" fill="white"/>
</g>
<defs>
<clipPath id="clip0_0_240">
<rect width="32" height="32" fill="white"/>
</clipPath>
</defs>
</svg>
