<svg width="32" height="32" viewBox="0 0 32 32" fill="none" xmlns="http://www.w3.org/2000/svg">
<g clip-path="url(#clip0_0_230)">
<path d="M16 32C24.8366 32 32 24.8366 32 16C32 7.16344 24.8366 0 16 0C7.16344 0 0 7.16344 0 16C0 24.8366 7.16344 32 16 32Z" fill="#3C80F1"/>
<path d="M15.91 4C10.44 4.004 6.006 8.436 6 13.905C6.005 14.439 6.065 14.971 6.178 15.493C6.18376 15.5177 6.19552 15.5406 6.21225 15.5597C6.22898 15.5787 6.25016 15.5933 6.27391 15.6022C6.29765 15.6111 6.32323 15.6141 6.34837 15.6107C6.37351 15.6073 6.39742 15.5978 6.418 15.583C6.79659 15.3119 7.25036 15.1658 7.716 15.165C7.7385 15.1658 7.76089 15.1615 7.78154 15.1525C7.8022 15.1436 7.8206 15.1302 7.83544 15.1132C7.85027 15.0963 7.86115 15.0763 7.8673 15.0546C7.87345 15.033 7.87472 15.0102 7.871 14.988C7.80515 14.6344 7.77102 14.2757 7.769 13.916C7.769 12.847 7.97955 11.7885 8.38862 10.801C8.79769 9.81337 9.39728 8.91602 10.1532 8.16015C10.909 7.40428 11.8064 6.80469 12.794 6.39562C13.7815 5.98655 14.84 5.776 15.909 5.776C16.978 5.776 18.0365 5.98655 19.024 6.39562C20.0116 6.80469 20.909 7.40428 21.6649 8.16015C22.4207 8.91602 23.0203 9.81337 23.4294 10.801C23.8385 11.7885 24.049 12.847 24.049 13.916C24.049 18.406 18.305 24.141 16.249 26.166C16.1585 26.2548 16.0368 26.3046 15.91 26.3046C15.7832 26.3046 15.6615 26.2548 15.571 26.166C14.7006 25.3165 13.8559 24.4411 13.038 23.541H12.998C12.2114 23.4637 11.4392 23.2786 10.703 22.991L10.567 22.936C10.5355 22.9215 10.5 22.9182 10.4664 22.9266C10.4327 22.9351 10.403 22.9548 10.3821 22.9824C10.3612 23.0101 10.3504 23.0441 10.3514 23.0788C10.3525 23.1134 10.3654 23.1467 10.388 23.173C11.6609 24.6942 13.0118 26.1484 14.435 27.53C14.8289 27.9141 15.3573 28.1292 15.9075 28.1292C16.4577 28.1292 16.9861 27.9141 17.38 27.53C21 23.954 25.82 18.664 25.82 13.905C25.814 8.435 21.38 4.004 15.91 4" fill="white"/>
<path d="M20.1932 14.871C20.1932 15.011 20.1822 15.148 20.1692 15.284C20.1333 15.8047 20.0127 16.3161 19.8122 16.798C19.5962 17.278 19.3082 17.721 18.9592 18.114L18.9692 18.123C18.2779 18.8955 17.4242 19.5054 16.4692 19.909C15.5236 20.3159 14.4917 20.4815 13.4662 20.391C12.489 20.2939 11.555 19.9395 10.7592 19.364C11.0162 19.356 11.2712 19.317 11.5192 19.248C11.7432 19.186 11.9578 19.0942 12.1572 18.975C12.5885 18.7176 12.923 18.3254 13.1092 17.859C13.1962 17.646 13.2552 17.424 13.2872 17.196C13.3072 17.006 13.3122 16.813 13.3052 16.621V10.131C13.3048 10.1247 13.3048 10.1183 13.3052 10.112V10.078C13.3197 9.9998 13.3586 9.92819 13.4163 9.87341C13.4739 9.81863 13.5474 9.78348 13.6262 9.773H15.7692C16.2772 9.813 16.7742 9.946 17.2342 10.166C18.1929 10.6192 18.9947 11.3479 19.5372 12.259C19.6692 12.483 19.7852 12.717 19.8822 12.959C19.9752 13.199 20.0492 13.449 20.1022 13.701C20.1552 13.953 20.1852 14.209 20.1922 14.466V14.872L20.1932 14.871ZM21.9572 14.405C21.9464 14.0449 21.9032 13.6864 21.8282 13.334C21.6796 12.637 21.4174 11.9691 21.0522 11.357C20.3284 10.1397 19.2568 9.16693 17.9752 8.564C17.3204 8.25309 16.614 8.0653 15.8912 8.01C15.8002 8.01 15.7122 8.01 15.6122 8H13.6142C13.5502 8 13.4842 8 13.4192 8.014C13.1582 8.044 12.9042 8.124 12.6712 8.248C12.3509 8.41915 12.0794 8.66889 11.8821 8.97378C11.6848 9.27867 11.5682 9.62869 11.5432 9.991V16.621C11.5432 16.737 11.5352 16.853 11.5192 16.968C11.5092 17.046 11.4902 17.122 11.4622 17.196C11.4404 17.2511 11.41 17.3023 11.3722 17.348C11.28 17.447 11.1602 17.516 11.0282 17.546C10.8312 17.596 10.6282 17.612 10.4252 17.593C9.70116 17.5221 9.01983 17.2174 8.48425 16.725C8.33043 16.5827 8.13107 16.4997 7.92173 16.4908C7.71238 16.4818 7.50667 16.5475 7.34128 16.6762C7.17588 16.8048 7.06156 16.988 7.0187 17.1931C6.97583 17.3982 7.00722 17.6119 7.10725 17.796C7.73121 18.9357 8.58772 19.9316 9.62125 20.719C10.1543 21.1167 10.7381 21.4412 11.3572 21.684C11.9787 21.9265 12.6304 22.0826 13.2942 22.148C14.6121 22.27 15.9396 22.0625 17.1572 21.544C18.3701 21.0424 19.4456 20.2583 20.2942 19.257L20.3052 19.266C20.7734 18.7366 21.1579 18.1387 21.4452 17.493C21.7176 16.8355 21.8814 16.1381 21.9302 15.428C21.9442 15.25 21.9532 15.089 21.9592 14.919V14.668C21.9662 14.594 21.9602 14.493 21.9592 14.405H21.9572V14.405Z" fill="white"/>
</g>
<defs>
<clipPath id="clip0_0_230">
<rect width="32" height="32" fill="white"/>
</clipPath>
</defs>
</svg>
