<svg width="32" height="32" viewBox="0 0 32 32" fill="none" xmlns="http://www.w3.org/2000/svg">
<g clip-path="url(#clip0_0_224)">
<path d="M16 32C24.8366 32 32 24.8366 32 16C32 7.16344 24.8366 0 16 0C7.16344 0 0 7.16344 0 16C0 24.8366 7.16344 32 16 32Z" fill="#121747"/>
<path d="M18.0174 22.864C18.0174 24.009 17.0974 24.938 15.9614 24.938C14.8254 24.938 13.9064 24.009 13.9064 22.863V9.074C13.9064 7.929 14.8264 7 15.9614 7C17.0964 7 18.0174 7.929 18.0174 9.075V22.864ZM11.0974 22.869C11.104 23.235 11.0136 23.5962 10.8353 23.9159C10.657 24.2356 10.3972 24.5023 10.0824 24.689C9.76921 24.8741 9.41212 24.9718 9.04835 24.9718C8.68459 24.9718 8.3275 24.8741 8.01435 24.689C7.69967 24.5022 7.44008 24.2354 7.26197 23.9157C7.08386 23.596 6.99359 23.2349 7.00035 22.869V19.769C6.99359 19.4031 7.08386 19.042 7.26197 18.7223C7.44008 18.4026 7.69967 18.1358 8.01435 17.949C8.3275 17.7639 8.68459 17.6662 9.04835 17.6662C9.41212 17.6662 9.76921 17.7639 10.0824 17.949C10.397 18.1358 10.6566 18.4026 10.8347 18.7223C11.0128 19.042 11.1031 19.4031 11.0964 19.769L11.0974 22.869Z" fill="white"/>
<path opacity="0.5" d="M25.112 17.309C25.112 18.454 24.192 19.383 23.056 19.383C21.92 19.383 21 18.453 21 17.308V12.075C21 10.929 21.92 10 23.056 10C24.192 10 25.112 10.929 25.112 12.075V17.309Z" fill="white"/>
</g>
<defs>
<clipPath id="clip0_0_224">
<rect width="32" height="32" fill="white"/>
</clipPath>
</defs>
</svg>
