<svg width="32" height="32" viewBox="0 0 32 32" fill="none" xmlns="http://www.w3.org/2000/svg">
<g clip-path="url(#clip0_0_216)">
<path d="M16 32C24.8366 32 32 24.8366 32 16C32 7.16344 24.8366 0 16 0C7.16344 0 0 7.16344 0 16C0 24.8366 7.16344 32 16 32Z" fill="#AA15DD"/>
<path d="M15.999 25.1121C16.239 25.1131 16.434 25.3121 16.435 25.5561C16.4361 25.6726 16.3909 25.7848 16.3093 25.868C16.2278 25.9513 16.1166 25.9987 16 26.0001C15.9422 25.9995 15.8851 25.9876 15.8319 25.965C15.7788 25.9425 15.7306 25.9096 15.6901 25.8684C15.6496 25.8271 15.6176 25.7783 15.596 25.7248C15.5744 25.6712 15.5635 25.6138 15.564 25.5561C15.5635 25.4983 15.5744 25.441 15.596 25.3874C15.6176 25.3338 15.6496 25.285 15.6901 25.2438C15.7306 25.2025 15.7788 25.1697 15.8319 25.1471C15.8851 25.1245 15.9422 25.1126 16 25.1121H15.999ZM7.21903 10.8581C7.11801 10.7976 7.04468 10.7001 7.01477 10.5862C6.98486 10.4724 7.00075 10.3513 7.05903 10.2491C7.10181 10.173 7.16644 10.1115 7.24455 10.0726C7.32267 10.0337 7.41066 10.0191 7.49716 10.0307C7.58366 10.0423 7.66467 10.0797 7.72972 10.1378C7.79477 10.196 7.84086 10.2724 7.86203 10.3571C7.88452 10.442 7.88164 10.5317 7.85374 10.6151C7.82584 10.6984 7.77414 10.7718 7.70503 10.8261C7.63663 10.8797 7.55367 10.9114 7.46697 10.9171C7.38027 10.9228 7.29386 10.9022 7.21903 10.8581V10.8581ZM7.21903 20.1521C7.26877 20.1232 7.32373 20.1046 7.38074 20.0972C7.43775 20.0898 7.49566 20.0938 7.55111 20.109C7.60656 20.1241 7.65844 20.1501 7.70375 20.1855C7.74905 20.2209 7.78688 20.2649 7.81503 20.3151C7.87289 20.4169 7.88855 20.5374 7.85864 20.6507C7.82873 20.764 7.75564 20.861 7.65503 20.9211C7.60536 20.9502 7.55038 20.969 7.49331 20.9766C7.43624 20.9841 7.37825 20.9802 7.32272 20.965C7.2672 20.9498 7.21527 20.9237 7.16999 20.8882C7.1247 20.8526 7.08698 20.8084 7.05903 20.7581C7.00116 20.6562 6.9855 20.5357 7.01541 20.4224C7.04532 20.3091 7.11841 20.2121 7.21903 20.1521V20.1521ZM24.779 10.8581C24.7293 10.8869 24.6743 10.9055 24.6173 10.9129C24.5603 10.9203 24.5024 10.9163 24.4469 10.9012C24.3915 10.886 24.3396 10.86 24.2943 10.8246C24.249 10.7892 24.2112 10.7452 24.183 10.6951C24.1392 10.6186 24.1188 10.531 24.1241 10.4431C24.1294 10.3551 24.1603 10.2707 24.213 10.2001C24.265 10.1301 24.3369 10.0774 24.4194 10.0488C24.5018 10.0203 24.5909 10.0172 24.675 10.0401C24.7596 10.064 24.8353 10.1122 24.8926 10.1789C24.95 10.2455 24.9865 10.3275 24.9976 10.4147C25.0087 10.5019 24.9939 10.5904 24.955 10.6692C24.9161 10.7481 24.8549 10.8137 24.779 10.8581V10.8581ZM16 5.88807C15.8846 5.88518 15.7748 5.83701 15.6946 5.75394C15.6143 5.67087 15.5699 5.55957 15.571 5.44407C15.571 5.26407 15.679 5.10107 15.842 5.03307C15.9223 4.99965 16.0109 4.99132 16.096 5.00917C16.1812 5.02702 16.2589 5.07021 16.319 5.13307C16.3798 5.19645 16.4207 5.27624 16.4367 5.3626C16.4527 5.44896 16.4431 5.53811 16.409 5.61907C16.3756 5.69969 16.3188 5.76843 16.2458 5.81638C16.1729 5.86434 16.0873 5.88931 16 5.88807V5.88807ZM23.8 20.0821C23.694 20.2691 23.6581 20.4878 23.6988 20.699C23.7395 20.9101 23.8541 21.0998 24.022 21.2341L16.871 25.4341C16.8435 25.2224 16.7402 25.0278 16.5802 24.8865C16.4203 24.7451 16.2145 24.6664 16.001 24.6651C15.7876 24.6664 15.5818 24.7451 15.4219 24.8865C15.2619 25.0278 15.1586 25.2224 15.131 25.4341L7.97803 21.2341C8.14541 21.0996 8.25947 20.9099 8.29978 20.699C8.34009 20.4881 8.30402 20.2698 8.19803 20.0831C8.09455 19.8973 7.92669 19.7558 7.72609 19.6852C7.52549 19.6147 7.30601 19.62 7.10903 19.7001V11.3001C7.30577 11.38 7.52493 11.3852 7.72529 11.3149C7.92565 11.2445 8.09341 11.1034 8.19703 10.9181C8.30308 10.7318 8.33948 10.5139 8.29973 10.3032C8.25998 10.0926 8.14667 9.9029 7.98003 9.76807L15.131 5.56807C15.1586 5.77976 15.2619 5.9743 15.4219 6.11568C15.5818 6.25706 15.7876 6.33571 16.001 6.33707C16.2147 6.33568 16.4205 6.25689 16.5805 6.1153C16.7405 5.97372 16.8437 5.77894 16.871 5.56707L24.024 9.76707C23.8569 9.90149 23.743 10.091 23.7027 10.3016C23.6624 10.5123 23.6983 10.7304 23.804 10.9171C23.9075 11.1028 24.0754 11.2443 24.276 11.3149C24.4766 11.3854 24.696 11.3802 24.893 11.3001V19.6951C24.6952 19.6149 24.4748 19.61 24.2736 19.6813C24.0724 19.7526 23.9042 19.8952 23.801 20.0821H23.8ZM17.688 18.7951C16.9111 19.2518 15.992 19.403 15.1097 19.2193C14.2274 19.0356 13.445 18.53 12.915 17.8011L17.633 15.0371L19.241 14.0931L20.003 13.6431L20.047 13.6221L23.287 11.7161C23.487 11.5991 23.557 11.3391 23.443 11.1351C23.4169 11.0861 23.381 11.043 23.3375 11.0084C23.2941 10.9739 23.2441 10.9485 23.1905 10.934C23.1369 10.9195 23.0809 10.9161 23.026 10.924C22.9711 10.9319 22.9183 10.951 22.871 10.9801L20.489 12.3851C20.0361 11.7076 19.4412 11.1367 18.7457 10.7119C18.0502 10.2871 17.2706 10.0187 16.461 9.92507V7.19607C16.4616 7.13881 16.4508 7.08201 16.4294 7.02891C16.408 6.97581 16.3763 6.92745 16.3362 6.88659C16.296 6.84573 16.2483 6.81318 16.1956 6.79078C16.1429 6.76838 16.0863 6.75659 16.029 6.75607C15.9717 6.75646 15.915 6.76816 15.8622 6.79049C15.8094 6.81283 15.7615 6.84537 15.7212 6.88624C15.681 6.92711 15.6493 6.97551 15.6278 7.02868C15.6063 7.08184 15.5955 7.13873 15.596 7.19607V9.90007C14.7074 9.9436 13.8426 10.2024 13.076 10.6541C12.3842 11.0596 11.7864 11.6073 11.322 12.2611L9.13803 10.9801C9.09045 10.9522 9.03778 10.9341 8.98312 10.9269C8.92846 10.9197 8.8729 10.9234 8.81971 10.938C8.76652 10.9525 8.71677 10.9775 8.67338 11.0115C8.62999 11.0455 8.59383 11.0879 8.56703 11.1361C8.51195 11.2336 8.49712 11.3488 8.52569 11.4571C8.55427 11.5655 8.62399 11.6584 8.72003 11.7161L10.887 12.9901C10.4235 13.9193 10.2196 14.9565 10.297 15.9921L10.498 17.1361C10.588 17.4461 10.701 17.7481 10.839 18.0391L8.72003 19.2841C8.62336 19.342 8.55328 19.4355 8.52485 19.5445C8.49643 19.6535 8.51193 19.7694 8.56803 19.8671C8.59511 19.9152 8.63152 19.9575 8.67513 19.9915C8.71874 20.0254 8.76867 20.0503 8.82202 20.0648C8.87536 20.0792 8.93104 20.0828 8.98582 20.0755C9.04059 20.0682 9.09335 20.05 9.14103 20.0221L11.268 18.7761C11.7548 19.4868 12.3974 20.077 13.147 20.5016C13.8965 20.9262 14.7331 21.174 15.593 21.2261V23.8041C15.593 24.0471 15.787 24.2441 16.026 24.2441C16.0833 24.2435 16.1399 24.2317 16.1926 24.2094C16.2453 24.187 16.293 24.1544 16.3332 24.1135C16.3733 24.0727 16.405 24.0243 16.4264 23.9712C16.4478 23.9181 16.4586 23.8613 16.458 23.8041V21.2041C17.2361 21.1241 17.9874 20.8749 18.659 20.4741C19.4168 20.0238 20.0562 19.3991 20.524 18.6521L22.861 20.0201C23.061 20.1341 23.313 20.0631 23.428 19.8611C23.4835 19.7641 23.4991 19.6493 23.4715 19.5411C23.4439 19.4328 23.3752 19.3396 23.28 19.2811L20.928 17.9011C20.934 17.8881 20.948 17.8731 20.948 17.8571C21.662 16.2131 19.751 15.5071 19.326 16.7731C19.0421 17.6231 18.4599 18.3414 17.687 18.7951H17.688ZM24.78 20.1521C24.8805 20.2125 24.9535 20.3097 24.9833 20.4231C25.0132 20.5364 24.9977 20.657 24.94 20.7591C24.912 20.8093 24.8742 20.8534 24.8289 20.8889C24.7836 20.9243 24.7316 20.9503 24.6761 20.9654C24.6206 20.9805 24.5626 20.9844 24.5056 20.9767C24.4486 20.9691 24.3936 20.9502 24.344 20.9211C24.2434 20.861 24.1703 20.764 24.1404 20.6507C24.1105 20.5374 24.1262 20.4169 24.184 20.3151C24.212 20.2647 24.2497 20.2205 24.295 20.185C24.3403 20.1494 24.3922 20.1233 24.4477 20.1081C24.5032 20.0929 24.5612 20.089 24.6183 20.0966C24.6754 20.1041 24.7304 20.123 24.78 20.1521V20.1521ZM12.284 16.0871C12.241 14.4201 12.439 13.2571 14.018 12.3291C14.6556 11.9538 15.3929 11.7829 16.1306 11.8394C16.8683 11.8959 17.571 12.1771 18.144 12.6451L12.284 16.0871V16.0871Z" fill="white"/>
</g>
<defs>
<clipPath id="clip0_0_216">
<rect width="32" height="32" fill="white"/>
</clipPath>
</defs>
</svg>
