<svg width="32" height="32" viewBox="0 0 32 32" fill="none" xmlns="http://www.w3.org/2000/svg">
<g clip-path="url(#clip0_0_212)">
<path d="M16 32C24.8366 32 32 24.8366 32 16C32 7.16344 24.8366 0 16 0C7.16344 0 0 7.16344 0 16C0 24.8366 7.16344 32 16 32Z" fill="#2B1544"/>
<path d="M24.981 12.494V19.15C24.981 19.446 24.996 19.748 24.929 20.039C24.7774 20.7123 24.4286 21.3251 23.927 21.799C23.691 22.026 23.397 22.173 23.116 22.339C21.209 23.449 19.308 24.562 17.402 25.674C16.82 25.985 16.132 26.038 15.486 25.958C15.1486 25.9169 14.8225 25.8102 14.526 25.644C12.519 24.474 10.512 23.301 8.506 22.132C8.016 21.859 7.65 21.409 7.381 20.925C7.161 20.505 7 20.043 7 19.562V12.376C7.037 11.676 7.347 11.013 7.788 10.484C7.96671 10.2604 8.18293 10.0696 8.427 9.92004C10.292 8.83404 12.157 7.74404 14.021 6.65404C14.328 6.48404 14.619 6.27604 14.951 6.16204C15.5124 5.98672 16.1084 5.95305 16.686 6.06404C16.943 6.13604 17.205 6.21204 17.436 6.34804C19.466 7.53904 21.499 8.72104 23.528 9.91304C24.069 10.233 24.466 10.768 24.724 11.339C24.887 11.699 24.981 12.096 24.981 12.494V12.494ZM15.931 10.018C15.5003 10.6566 15.0017 11.2467 14.444 11.778C14.152 12.055 13.871 12.354 13.704 12.725C13.57 12.987 13.48 13.285 13.518 13.585C13.563 13.989 13.851 14.345 14.225 14.489C14.605 14.641 15.035 14.607 15.413 14.459C15.481 14.4287 15.5563 14.4183 15.63 14.429C15.556 14.903 15.268 15.303 15.04 15.712L15.05 15.78C15.256 16 15.473 16.208 15.678 16.424C15.73 16.473 15.778 16.541 15.85 16.564C16.089 16.379 16.276 16.136 16.496 15.932C16.545 15.876 16.646 15.815 16.593 15.728C16.38 15.328 16.144 14.923 16.077 14.461C16.117 14.367 16.23 14.446 16.297 14.469C16.652 14.643 17.081 14.669 17.452 14.526C17.957 14.333 18.271 13.742 18.158 13.208C18.072 12.728 17.818 12.288 17.474 11.952C16.944 11.407 16.435 10.825 16.073 10.151C16.0602 10.12 16.0409 10.0921 16.0164 10.0692C15.9919 10.0462 15.9628 10.0288 15.931 10.018V10.018ZM12.298 16.528C11.698 16.854 11.297 17.493 11.198 18.172C11.061 19.125 11.618 20.121 12.481 20.511C13.027 20.746 13.661 20.741 14.211 20.526C14.495 20.412 14.738 20.226 14.947 20.007C15.026 19.923 15.141 19.848 15.141 19.719C15.131 19.59 15.015 19.519 14.94 19.431C14.842 19.344 14.764 19.231 14.652 19.162C14.472 19.083 14.364 19.28 14.248 19.378C13.793 19.84 12.974 19.844 12.508 19.393C12.3578 19.2518 12.2448 19.0757 12.1789 18.8803C12.113 18.685 12.0962 18.4764 12.13 18.273C12.186 17.89 12.414 17.527 12.754 17.345C12.974 17.235 13.221 17.175 13.464 17.186C13.807 17.208 14.121 17.39 14.353 17.64C15.145 18.428 15.907 19.245 16.696 20.036C17.114 20.449 17.693 20.714 18.283 20.691C18.733 20.701 19.166 20.521 19.532 20.267C20.071 19.892 20.399 19.241 20.432 18.583C20.504 17.541 19.749 16.49 18.732 16.289C18.083 16.157 17.35 16.293 16.85 16.755C16.494 17.079 16.17 17.443 15.818 17.776C15.455 17.477 15.168 17.099 14.813 16.793C14.6614 16.6492 14.4853 16.5337 14.293 16.452C14.257 16.429 14.245 16.418 14.197 16.399C13.8926 16.2697 13.562 16.214 13.2321 16.2364C12.9021 16.2588 12.5821 16.3587 12.298 16.528V16.528ZM17.335 17.58C17.594 17.322 17.96 17.171 18.325 17.201C18.721 17.212 19.105 17.424 19.315 17.765C19.643 18.265 19.547 18.984 19.125 19.396C18.691 19.817 17.947 19.87 17.48 19.472C17.133 19.177 16.842 18.825 16.51 18.515C16.506 18.493 16.502 18.451 16.498 18.432C16.775 18.144 17.058 17.868 17.335 17.58V17.58Z" fill="white"/>
</g>
<defs>
<clipPath id="clip0_0_212">
<rect width="32" height="32" fill="white"/>
</clipPath>
</defs>
</svg>
