<svg width="32" height="32" viewBox="0 0 32 32" fill="none" xmlns="http://www.w3.org/2000/svg">
<g clip-path="url(#clip0_0_208)">
<path d="M16 32C24.8366 32 32 24.8366 32 16C32 7.16344 24.8366 0 16 0C7.16344 0 0 7.16344 0 16C0 24.8366 7.16344 32 16 32Z" fill="#242424"/>
<path d="M13.06 23.874L15.743 21.177L18.437 23.874L16.718 25.596C16.5901 25.7242 16.4381 25.826 16.2708 25.8954C16.1035 25.9649 15.9241 26.0006 15.743 26.0006C15.5619 26.0006 15.3825 25.9649 15.2152 25.8954C15.0479 25.826 14.8959 25.7242 14.768 25.596L13.06 23.874ZM20.01 14.632L17.318 11.935L20.011 9.23799L22.703 11.935L20.01 14.632ZM19.341 22.995L16.648 20.298L23.878 13.056L25.596 14.777C26.135 15.317 26.135 16.19 25.596 16.73L19.341 22.995ZM11.938 22.717L9.246 20.02L16.464 12.79L19.156 15.487L11.938 22.717ZM8.116 18.917L6.397 17.195C6.14029 16.9342 5.99749 16.5822 5.99993 16.2163C6.00236 15.8504 6.14984 15.5003 6.41 15.243L8.128 13.521L10.821 16.219L8.116 18.917ZM18.883 8.12899L11.653 15.367L8.96 12.67L15.215 6.40399C15.3429 6.27573 15.4949 6.17397 15.6622 6.10453C15.8295 6.0351 16.0089 5.99936 16.19 5.99936C16.3711 5.99936 16.5505 6.0351 16.7178 6.10453C16.8851 6.17397 17.0371 6.27573 17.165 6.40399L18.883 8.12899Z" fill="white"/>
</g>
<defs>
<clipPath id="clip0_0_208">
<rect width="32" height="32" fill="white"/>
</clipPath>
</defs>
</svg>
