<svg width="32" height="32" viewBox="0 0 32 32" fill="none" xmlns="http://www.w3.org/2000/svg">
<g clip-path="url(#clip0_0_204)">
<path d="M16 32C24.8366 32 32 24.8366 32 16C32 7.16344 24.8366 0 16 0C7.16344 0 0 7.16344 0 16C0 24.8366 7.16344 32 16 32Z" fill="#0FACF3"/>
<path d="M9.9707 9.0157H15.4027C17.5567 9.0157 18.6267 8.9477 20.2327 9.0947C21.8397 9.2647 23.4467 9.9207 24.4867 11.1777C25.7117 12.6377 26.0697 14.6077 25.9887 16.4407C25.9087 18.2637 25.2837 20.1757 23.8507 21.4207C22.5797 22.5647 20.8007 22.9837 19.1127 22.9947C15.8307 23.0057 12.5597 22.9947 9.27771 22.9947C8.91971 22.9717 8.51471 23.0057 8.23771 22.7567C7.75271 22.2707 8.04171 21.2287 8.81571 21.2737C10.6417 21.2177 12.4787 21.2737 14.3057 21.2397C14.2707 19.7007 14.2937 18.1617 14.2937 16.6337C12.8837 16.6217 11.4847 16.6337 10.0757 16.6337C9.76271 16.6217 9.4157 16.6217 9.1737 16.4177C8.8847 16.1577 8.88471 15.7167 9.01171 15.3777C9.17371 15.0037 9.6127 14.9357 9.9827 14.9357C11.4157 14.9237 12.8607 14.9357 14.2927 14.9357C14.3167 13.5317 14.2707 12.1277 14.3167 10.7357C12.7097 10.7247 11.1037 10.7357 9.4967 10.7357C9.1387 10.7247 8.7347 10.7247 8.4567 10.4757C8.1687 10.1017 8.2267 9.5697 8.4687 9.1957C8.93071 8.9697 9.4627 9.0157 9.9707 9.0157V9.0157ZM16.3047 14.9357C16.9627 14.9467 17.6217 14.8897 18.2807 14.9807C19.0667 15.0937 19.0667 16.4747 18.2687 16.5877C17.6217 16.6897 16.9517 16.6217 16.2927 16.6337C16.3047 17.9687 16.2927 19.2937 16.2927 20.6287C16.3047 20.8557 16.3157 21.1947 16.6047 21.2177C17.3907 21.2857 18.0747 21.2627 18.9627 21.2627C20.2797 21.3197 21.6667 20.9127 22.5907 19.9497C23.5387 18.9427 23.8857 17.5397 23.9087 16.2027C23.9437 14.7207 23.6657 13.0907 22.5787 11.9807C21.5977 10.9847 20.1187 10.6457 18.7427 10.7247C17.9587 10.7247 17.2867 10.7017 16.5587 10.7697C16.3277 10.8377 16.3157 11.1207 16.3047 11.3247V14.9347V14.9357Z" fill="white"/>
</g>
<defs>
<clipPath id="clip0_0_204">
<rect width="32" height="32" fill="white"/>
</clipPath>
</defs>
</svg>
