<svg width="32" height="32" viewBox="0 0 32 32" fill="none" xmlns="http://www.w3.org/2000/svg">
<g clip-path="url(#clip0_0_183)">
<path d="M16 32C24.8366 32 32 24.8366 32 16C32 7.16344 24.8366 0 16 0C7.16344 0 0 7.16344 0 16C0 24.8366 7.16344 32 16 32Z" fill="#2B5EBB"/>
<path fill-rule="evenodd" clip-rule="evenodd" d="M26 15.962C25.999 18.298 24.19 20.12 21.878 20.113C19.614 20.106 17.776 18.234 17.788 15.947C17.8 13.661 19.658 11.797 21.91 11.812C24.209 11.827 26.001 13.646 26 15.962ZM9.09002 23.92C8.69042 23.9203 8.29475 23.8412 7.92594 23.6875C7.55712 23.5337 7.22251 23.3082 6.94149 23.0241C6.66048 22.74 6.43865 22.403 6.28889 22.0325C6.13912 21.6621 6.06438 21.2656 6.06901 20.866C6.07401 19.16 7.40802 17.781 9.08502 17.82C9.56702 17.831 10.051 18.011 10.521 18.158C11.189 18.367 11.841 18.626 12.507 18.844C12.92 18.98 13.315 18.884 13.68 18.658C14.21 18.328 14.66 17.93 14.947 17.346C15.237 16.752 15.897 16.531 16.484 16.783C17.028 17.017 17.311 17.61 17.154 18.186C16.977 18.833 16.444 19.181 15.78 19.065C15.191 18.962 14.607 18.772 14.009 18.989C12.939 19.378 12.469 20.264 12.117 21.275C11.925 21.828 11.721 22.409 11.377 22.865C10.825 23.601 10.013 23.924 9.09002 23.92V23.92ZM9.02602 8.08199C10.393 8.08199 11.458 8.88199 11.922 10.199C12.106 10.719 12.382 11.206 12.618 11.707C13.201 12.947 14.664 13.069 15.592 12.73C16.414 12.43 17.206 12.958 17.225 13.81C17.238 14.4 16.935 14.83 16.381 15.004C15.891 15.156 15.339 14.949 15.039 14.502C14.932 14.342 14.832 14.176 14.713 14.025C13.897 12.995 12.991 12.725 11.763 13.187C11.335 13.347 10.934 13.587 10.532 13.81C10.1688 14.0169 9.7665 14.1461 9.35071 14.1893C8.93492 14.2326 8.51468 14.189 8.11662 14.0613C7.71856 13.9337 7.35136 13.7247 7.03831 13.4476C6.72525 13.1706 6.47316 12.8316 6.29801 12.452C5.34201 10.422 6.80202 8.08199 9.02602 8.08199V8.08199ZM18.556 23.99C18.544 25.109 17.631 26.02 16.541 26C15.488 25.98 14.608 25.073 14.581 24.053C14.552 22.899 15.4 21.96 16.579 21.949C17.707 21.938 18.569 22.868 18.557 23.989L18.556 23.99ZM14.594 8.01999C14.594 6.88799 15.48 5.98999 16.589 5.99999C17.667 6.00999 18.569 6.93299 18.56 8.01799C18.552 9.15899 17.698 10.074 16.574 10.053C15.295 10.029 14.542 8.99799 14.594 8.01999V8.01999Z" fill="white"/>
</g>
<defs>
<clipPath id="clip0_0_183">
<rect width="32" height="32" fill="white"/>
</clipPath>
</defs>
</svg>
