<svg width="32" height="32" viewBox="0 0 32 32" fill="none" xmlns="http://www.w3.org/2000/svg">
<g clip-path="url(#clip0_0_175)">
<path d="M16 32C24.8366 32 32 24.8366 32 16C32 7.16344 24.8366 0 16 0C7.16344 0 0 7.16344 0 16C0 24.8366 7.16344 32 16 32Z" fill="#00ADED"/>
<path d="M10 23.235L10.002 23.231L13.19 15.615L10 8L15.885 15.615L10.004 23.23L10 23.235ZM21.776 23.235L21.772 23.23L15.891 15.615L21.776 8L18.586 15.615L21.774 23.231L21.776 23.235Z" fill="white"/>
<path d="M15.89 15.62V20.926L10 23.236L15.89 15.616V10.31L21.78 8L15.89 15.62Z" fill="white" fill-opacity="0.8"/>
<path d="M15.89 21.267V25.918L10 23.574L15.89 21.259V15.961L10 8.341L15.89 10.651V6L21.78 8.343L15.89 10.658V15.957L21.78 23.577L15.89 21.267Z" fill="white" fill-opacity="0.5"/>
<path d="M10 8.343L15.89 6V10.658L10 8.343ZM21.78 23.574L15.89 25.918V21.259L21.78 23.574Z" fill="white" fill-opacity="0.145"/>
</g>
<defs>
<clipPath id="clip0_0_175">
<rect width="32" height="32" fill="white"/>
</clipPath>
</defs>
</svg>
