<svg width="32" height="32" viewBox="0 0 32 32" fill="none" xmlns="http://www.w3.org/2000/svg">
<g clip-path="url(#clip0_0_156)">
<path d="M16 32C24.8366 32 32 24.8366 32 16C32 7.16344 24.8366 0 16 0C7.16344 0 0 7.16344 0 16C0 24.8366 7.16344 32 16 32Z" fill="#2F2F2F"/>
<path fill-rule="evenodd" clip-rule="evenodd" d="M24.6494 10.295C24.7634 10.355 25.0244 10.497 24.9994 10.806L24.9834 21.223C24.9907 21.3213 24.9675 21.4194 24.9168 21.5039C24.8661 21.5884 24.7905 21.6552 24.7004 21.695L22.4004 23.038L20.5804 24.1L15.7364 26.928C15.675 26.975 15.5997 27.0003 15.5224 27C15.4249 26.9968 15.3304 26.9663 15.2494 26.912L11.9074 24.984C10.0514 23.913 8.13139 22.805 6.23939 21.717C6.08039 21.64 5.98739 21.461 6.00139 21.257L6.00839 18.505C6.01439 16.029 6.01839 13.514 6.02039 11.082V11.072C6.02177 11.0554 6.02211 11.0387 6.02139 11.022V10.991C6.01739 10.856 6.01139 10.579 6.27139 10.454C7.33139 9.821 8.41539 9.178 9.46439 8.556L11.2014 7.526C12.5234 6.743 13.8694 5.944 15.1714 5.171L15.1814 5.165C15.2666 5.11627 15.3555 5.07447 15.4474 5.04L15.5504 5L15.6464 5.057C16.5924 5.605 17.5544 6.165 18.4834 6.707L20.2194 7.717L21.9144 8.703L24.5814 10.255H24.5834L24.5854 10.257L24.6494 10.295V10.295ZM15.8804 25.965L18.8424 24.235C20.6384 23.188 22.4341 22.1403 24.2294 21.092L24.2394 15.243L24.2444 11.378L20.3944 13.63V15.406C20.39 16.5143 20.392 17.6227 20.4004 18.731V18.807L20.3554 18.869C20.3063 18.9349 20.2435 18.9895 20.1714 19.029L20.1454 19.045H20.1444L18.9004 19.77C18.4504 20.03 17.9854 20.3 17.5304 20.567L15.8864 21.522L15.8804 25.965ZM11.6844 13.41C12.5252 13.8933 13.3665 14.3756 14.2084 14.857L15.5124 15.606L19.2894 13.398L15.5064 11.166L11.6844 13.41ZM11.2944 14.06L11.3654 18.449L15.1334 20.644L15.1394 16.265L11.2944 14.06ZM6.77439 11.466L6.75539 21.141L15.1294 25.971L15.1324 21.52L13.4924 20.565L12.4644 19.966C11.9374 19.66 11.3924 19.343 10.8574 19.03C10.7024 18.957 10.6054 18.779 10.6164 18.584L10.5354 13.625L6.77439 11.466ZM23.8684 10.72L22.3994 9.864L20.7774 8.919C19.2334 8.023 17.4024 6.959 15.5134 5.853C13.6003 6.98342 11.6882 8.11575 9.77739 9.25L7.15139 10.807L10.9294 12.972L15.2634 10.427C15.3383 10.3788 15.4258 10.354 15.5149 10.3557C15.604 10.3575 15.6905 10.3858 15.7634 10.437L20.0394 12.958L23.8684 10.72ZM15.8864 20.647C17.1496 19.9109 18.4136 19.1762 19.6784 18.443V14.05L15.8894 16.264L15.8864 20.647ZM21.0134 19.854C20.9758 19.8654 20.9367 19.8712 20.8974 19.871C20.8443 19.8718 20.7916 19.8618 20.7424 19.8417C20.6933 19.8216 20.6487 19.7918 20.6114 19.754C20.551 19.6996 20.5059 19.6304 20.4805 19.5532C20.455 19.4761 20.4502 19.3936 20.4664 19.314C20.4833 19.21 20.5362 19.1152 20.6159 19.0463C20.6956 18.9774 20.797 18.9387 20.9024 18.937C21.0254 18.937 21.1454 18.993 21.2324 19.09L21.2334 19.092C21.2935 19.1596 21.3329 19.2431 21.3467 19.3325C21.3605 19.4219 21.3483 19.5134 21.3114 19.596C21.2861 19.6598 21.2458 19.7165 21.1939 19.7614C21.1421 19.8064 21.0801 19.8381 21.0134 19.854V19.854ZM23.0774 21.262C23.019 21.2165 22.9728 21.1572 22.9428 21.0896C22.9128 21.0219 22.8999 20.9478 22.9054 20.874C22.9134 20.715 22.9954 20.574 23.1274 20.494C23.1928 20.4513 23.2692 20.4284 23.3474 20.428C23.4334 20.428 23.5174 20.455 23.5914 20.505C23.6655 20.5536 23.724 20.6226 23.7598 20.7037C23.7957 20.7848 23.8073 20.8745 23.7934 20.962C23.7802 21.0721 23.7274 21.1735 23.6447 21.2474C23.562 21.3212 23.4552 21.3623 23.3444 21.363C23.2461 21.3627 23.1513 21.3268 23.0774 21.262V21.262ZM9.88839 18.942C10.0134 18.942 10.1324 18.999 10.2154 19.098C10.2749 19.1643 10.3138 19.2465 10.3275 19.3346C10.3412 19.4226 10.329 19.5128 10.2924 19.594C10.2586 19.6762 10.2009 19.7463 10.1267 19.7952C10.0525 19.8441 9.96523 19.8694 9.87639 19.868C9.80945 19.8655 9.74387 19.8483 9.68433 19.8177C9.62479 19.787 9.57274 19.7435 9.53188 19.6905C9.49102 19.6374 9.46235 19.576 9.44792 19.5105C9.43349 19.4451 9.43365 19.3773 9.44839 19.312C9.46846 19.2094 9.52306 19.1167 9.6031 19.0494C9.68315 18.9821 9.78382 18.9442 9.88839 18.942V18.942ZM21.8444 20.518C21.7809 20.4649 21.7326 20.3959 21.7043 20.3181C21.6761 20.2404 21.6688 20.1565 21.6834 20.075C21.6996 19.9692 21.7522 19.8723 21.8322 19.8011C21.9121 19.73 22.0144 19.6889 22.1214 19.685C22.2314 19.685 22.3374 19.729 22.4214 19.807C22.5484 19.925 22.6014 20.096 22.5594 20.256C22.5454 20.3311 22.5121 20.4013 22.4626 20.4595C22.4131 20.5178 22.3493 20.5621 22.2774 20.588C22.2055 20.616 22.1275 20.6244 22.0513 20.612C21.9752 20.5997 21.9037 20.5673 21.8444 20.518V20.518ZM8.93939 19.795C9.07239 19.905 9.13439 20.08 9.10039 20.242C9.08956 20.3145 9.06061 20.3832 9.01621 20.4416C8.97181 20.4999 8.9134 20.5462 8.84639 20.576H8.84539C8.78597 20.6042 8.72115 20.6192 8.65539 20.62C8.57671 20.6189 8.49987 20.5961 8.43339 20.554C8.35898 20.5075 8.29916 20.4411 8.26078 20.3622C8.2224 20.2833 8.20702 20.1952 8.21639 20.108C8.22181 20.0219 8.25196 19.9392 8.30323 19.8699C8.35449 19.8005 8.42469 19.7474 8.50539 19.717C8.55436 19.696 8.60709 19.6851 8.66039 19.685C8.76039 19.685 8.85739 19.723 8.93939 19.795V19.795ZM15.4494 6.167C15.5794 6.167 15.7024 6.223 15.7894 6.321C15.8964 6.434 15.9364 6.591 15.8964 6.741C15.8769 6.82785 15.8315 6.90672 15.7661 6.9671C15.7007 7.02749 15.6185 7.06652 15.5304 7.079H15.5254C15.4349 7.09677 15.3412 7.08703 15.2564 7.05102C15.1715 7.01501 15.0994 6.9544 15.0494 6.877C15.0072 6.8119 14.9825 6.737 14.9778 6.65955C14.973 6.5821 14.9884 6.50475 15.0224 6.435L15.0234 6.433C15.0557 6.36381 15.1048 6.30384 15.1663 6.25859C15.2278 6.21333 15.2997 6.18425 15.3754 6.174C15.4001 6.16945 15.4252 6.1671 15.4504 6.167H15.4494ZM7.65039 20.49C7.79539 20.572 7.88339 20.72 7.88239 20.88C7.88667 20.9606 7.86938 21.0409 7.83229 21.1127C7.7952 21.1844 7.73966 21.2449 7.67139 21.288C7.59881 21.3355 7.51413 21.3612 7.42739 21.362C7.35577 21.3626 7.28531 21.344 7.22339 21.308C7.15076 21.2678 7.09044 21.2086 7.04887 21.1367C7.0073 21.0648 6.98605 20.983 6.98739 20.9C6.98739 20.727 7.07639 20.57 7.21839 20.49C7.28357 20.4507 7.35825 20.4299 7.43439 20.4299C7.51052 20.4299 7.58521 20.4507 7.65039 20.49V20.49ZM15.6904 9.205C15.761 9.24891 15.8183 9.31119 15.8561 9.38518C15.894 9.45917 15.911 9.54207 15.9054 9.625C15.8998 9.70722 15.8714 9.78625 15.8233 9.8532C15.7753 9.92016 15.7095 9.97238 15.6334 10.004C15.5706 10.0326 15.5024 10.0476 15.4334 10.048C15.3309 10.0491 15.2311 10.0152 15.1504 9.952C15.0888 9.90648 15.0401 9.84582 15.0089 9.77591C14.9777 9.706 14.9651 9.62921 14.9724 9.553C14.9766 9.47741 15.0003 9.40419 15.0411 9.34042C15.0819 9.27666 15.1385 9.2245 15.2054 9.189C15.2741 9.14944 15.3521 9.12874 15.4314 9.129C15.5236 9.12885 15.6138 9.15523 15.6914 9.205H15.6904ZM15.1204 8.447C15.0679 8.40081 15.0271 8.34283 15.0014 8.27781C14.9757 8.21279 14.9657 8.1426 14.9724 8.073V8.07C14.9789 7.99832 15.0022 7.92917 15.0402 7.86806C15.0782 7.80694 15.13 7.75556 15.1914 7.718C15.2636 7.66992 15.3486 7.64451 15.4354 7.645C15.5154 7.645 15.5954 7.666 15.6684 7.705L15.6694 7.706C15.7428 7.74553 15.8038 7.80473 15.8455 7.87697C15.8872 7.94921 15.9079 8.03163 15.9054 8.115C15.9046 8.20273 15.8782 8.28832 15.8293 8.36119C15.7804 8.43405 15.7113 8.491 15.6304 8.525C15.5676 8.55362 15.4994 8.56861 15.4304 8.569C15.3151 8.57032 15.2039 8.52654 15.1204 8.447V8.447Z" fill="white"/>
</g>
<defs>
<clipPath id="clip0_0_156">
<rect width="32" height="32" fill="white"/>
</clipPath>
</defs>
</svg>
