<svg width="32" height="32" viewBox="0 0 32 32" fill="none" xmlns="http://www.w3.org/2000/svg">
<g clip-path="url(#clip0_0_148)">
<path d="M16 32C24.8366 32 32 24.8366 32 16C32 7.16344 24.8366 0 16 0C7.16344 0 0 7.16344 0 16C0 24.8366 7.16344 32 16 32Z" fill="#FA5836"/>
<path d="M14.304 4.02883C14.196 4.04383 13.779 4.12183 13.378 4.18283C11.14 4.56083 9.073 5.65683 7.36 7.37683C5.64 9.08983 4.59 11.0728 4.15 13.4338C3.95 14.5068 3.95 16.6048 4.15 17.6778C4.59 20.0378 5.64 22.0208 7.36 23.7338C9.073 25.4538 11.055 26.5038 13.416 26.9438C14.489 27.1438 16.587 27.1438 17.66 26.9438C20.02 26.5038 22.004 25.4538 23.717 23.7338C25.437 22.0208 26.487 20.0388 26.927 17.6778C27.127 16.6048 27.127 14.5068 26.927 13.4338C26.487 11.0738 25.437 9.08983 23.717 7.37683C22.042 5.69483 20.152 4.66883 17.861 4.20683C17.151 4.05983 14.79 3.94383 14.304 4.02883V4.02883ZM18.424 8.11883C18.516 8.15683 18.547 8.27183 18.547 8.58083V8.99783H18.061C17.444 8.99783 16.958 9.22883 16.757 9.61483C16.626 9.86183 16.618 10.1628 16.618 13.8198C16.618 15.9798 16.588 17.7928 16.557 17.8468C16.395 18.0938 15.207 18.1638 14.674 17.9548L14.458 17.8698V13.8818C14.458 10.1618 14.45 9.86183 14.319 9.61483C14.119 9.22883 13.632 8.99783 13.015 8.99783H12.529V8.58083C12.529 8.31883 12.568 8.14883 12.629 8.12583C12.769 8.06383 18.277 8.06383 18.424 8.11783V8.11883ZM13.995 11.3348V12.2848L13.771 12.4148C13.44 12.6088 12.884 13.1868 12.661 13.5648C12.5255 13.8127 12.4165 14.0741 12.336 14.3448L12.213 14.7848H11.326C10.315 14.7848 10.346 14.8228 10.562 13.9748C10.832 12.9478 11.488 11.9058 12.282 11.2738C12.722 10.9188 13.694 10.3858 13.887 10.3858C13.972 10.3858 13.995 10.5868 13.995 11.3358V11.3348ZM17.822 10.6568C18.4812 10.986 19.0625 11.4523 19.5269 12.0243C19.9914 12.5964 20.3283 13.261 20.515 13.9738C20.731 14.8228 20.762 14.7838 19.751 14.7838H18.864L18.74 14.3438C18.6597 14.0735 18.5511 13.8124 18.416 13.5648C18.192 13.1868 17.636 12.6088 17.305 12.4148L17.081 12.2848V11.3348C17.081 10.5868 17.104 10.3858 17.189 10.3858C17.243 10.3858 17.529 10.5098 17.822 10.6558V10.6568ZM12.221 15.5098C12.221 15.8718 12.46 16.6128 12.707 16.9988C14.026 19.0888 17.05 19.0888 18.37 16.9988C18.617 16.6128 18.856 15.8718 18.856 15.5088V15.2468H20.7L20.661 15.6478C20.468 17.5228 19.434 19.0358 17.814 19.8378C17.066 20.2078 16.41 20.3628 15.538 20.3628C12.838 20.3628 10.701 18.3948 10.415 15.6478L10.377 15.2478H12.221V15.5098V15.5098ZM16.657 21.0878C16.757 21.6278 17.313 21.9598 18.146 21.9598H18.547V22.8078H12.529V21.9818L13.092 21.9438C13.455 21.9208 13.748 21.8518 13.91 21.7588C14.15 21.6198 14.458 21.1568 14.458 20.9408C14.458 20.8638 14.705 20.8408 15.53 20.8408H16.61L16.657 21.0878V21.0878Z" fill="#FEFFFF"/>
</g>
<defs>
<clipPath id="clip0_0_148">
<rect width="32" height="32" fill="white"/>
</clipPath>
</defs>
</svg>
