<svg width="32" height="32" viewBox="0 0 32 32" fill="none" xmlns="http://www.w3.org/2000/svg">
<g clip-path="url(#clip0_0_142)">
<path d="M16 32C24.8366 32 32 24.8366 32 16C32 7.16344 24.8366 0 16 0C7.16344 0 0 7.16344 0 16C0 24.8366 7.16344 32 16 32Z" fill="#443F54"/>
<path opacity="0.7" d="M15.4302 26.893C14.0142 26.031 12.2912 24.985 10.8762 24.123C10.2602 23.754 9.58421 23.385 8.96821 22.954C8.72221 22.77 8.72221 22.585 8.72221 22.462C9.33721 19.57 10.0142 16.432 10.6922 13.6L10.2602 12.247C10.2602 12.247 8.78421 19.323 8.04521 22.462C7.92221 22.892 8.04521 23.139 8.47521 23.385C10.8752 24.8 15.7372 27.877 15.7372 27.877L15.4302 26.893V26.893ZM16.5992 26.893C18.0142 26.031 19.7372 24.985 21.1532 24.123C21.7682 23.754 22.4452 23.385 23.0602 22.954C23.3072 22.77 23.3072 22.585 23.3072 22.462C22.6912 19.57 22.0142 16.432 21.3372 13.6L21.8302 12.308C21.8302 12.308 23.3072 19.323 23.9842 22.462C24.1072 22.892 23.9842 23.139 23.5532 23.385C21.1532 24.8 16.2912 27.877 16.2912 27.877L16.5992 26.893ZM21.2762 12.37L21.0302 12H11.0602L10.8142 12.37C10.8142 12.37 10.9992 12.862 10.9372 12.677H21.2142C21.0912 12.8 21.2762 12.37 21.2762 12.37Z" fill="#FEFFFE"/>
<path d="M21.3164 11.629C21.3164 11.629 17.9314 6.708 16.4544 4.554C16.1464 4.184 15.9624 4 15.7774 4C15.5924 4 15.3474 4.185 15.1004 4.554C13.6234 6.646 10.2394 11.631 10.2394 11.631C9.9314 12.061 9.9314 12.185 10.1774 12.738C10.1774 12.738 12.5774 19.385 13.5624 22.338C14.0544 23.692 15.3464 27.569 15.3464 27.569C15.4084 27.692 15.6544 27.754 15.7774 27.754C15.9384 27.7465 16.0912 27.6807 16.2074 27.569C16.2074 27.569 17.5624 23.692 17.9924 22.339C18.9774 19.446 21.3774 12.739 21.3774 12.739C21.6234 12.185 21.6234 12.062 21.3164 11.631V11.629ZM15.7774 25.537C14.2099 21.0683 12.6509 16.5966 11.1004 12.122C11.1004 12.122 14.4234 7.261 15.7164 5.352C17.0084 7.261 20.3314 12.122 20.3314 12.122C20.3314 12.122 17.1924 21.352 15.7774 25.537Z" fill="#FEFFFE"/>
</g>
<defs>
<clipPath id="clip0_0_142">
<rect width="32" height="32" fill="white"/>
</clipPath>
</defs>
</svg>
