<svg width="32" height="32" viewBox="0 0 32 32" fill="none" xmlns="http://www.w3.org/2000/svg">
<g clip-path="url(#clip0_0_130)">
<path d="M16 32C24.8366 32 32 24.8366 32 16C32 7.16344 24.8366 0 16 0C7.16344 0 0 7.16344 0 16C0 24.8366 7.16344 32 16 32Z" fill="#C9A35E"/>
<path d="M9.77731 19.88C9.74692 19.9428 9.6995 19.9958 9.64044 20.0329C9.58138 20.0701 9.51307 20.0898 9.4433 20.09H5.3703C5.30653 20.0896 5.24396 20.0726 5.18874 20.0406C5.13352 20.0087 5.08754 19.963 5.0553 19.908C5.02093 19.8524 5.00189 19.7887 5.00013 19.7233C4.99838 19.658 5.01396 19.5934 5.0453 19.536L12.4493 6.19C12.5823 5.951 12.9643 5.951 13.0973 6.19L18.8693 16.568C18.8982 16.6261 18.9125 16.6904 18.9107 16.7552C18.909 16.8201 18.8913 16.8836 18.8593 16.94C18.8287 16.9964 18.7831 17.0432 18.7275 17.0752C18.6718 17.1071 18.6084 17.123 18.5443 17.121H16.8563C16.7905 17.12 16.726 17.102 16.6693 17.0687C16.6125 17.0354 16.5653 16.988 16.5323 16.931L12.7823 10.111L8.58631 17.866H10.1883C10.2508 17.8664 10.3123 17.8822 10.3672 17.912C10.4222 17.9419 10.4689 17.9848 10.5033 18.037C10.5367 18.091 10.556 18.1526 10.5593 18.2161C10.5626 18.2795 10.5499 18.3428 10.5223 18.4L9.7783 19.878L9.77731 19.88ZM26.4513 19.536C26.4848 19.5927 26.5016 19.6576 26.4998 19.7234C26.4981 19.7892 26.4778 19.8532 26.4413 19.908C26.4108 19.9643 26.3653 20.0109 26.3099 20.0429C26.2545 20.0749 26.1913 20.0908 26.1273 20.089H15.0143C14.9156 20.089 14.821 20.0498 14.7513 19.98C14.6815 19.9103 14.6423 19.8157 14.6423 19.717V18.24C14.6423 18.03 14.8133 17.868 15.0143 17.868H22.9223L18.7343 10.14L17.9423 11.723C17.8093 11.971 17.3993 11.971 17.2753 11.723L16.5313 10.245C16.5077 10.1925 16.4955 10.1356 16.4955 10.078C16.4955 10.0204 16.5077 9.96351 16.5313 9.911L18.3813 6.201C18.4136 6.14257 18.4603 6.0934 18.5171 6.05821C18.5738 6.02301 18.6386 6.00297 18.7053 6C18.7726 6.00014 18.8388 6.01771 18.8973 6.05101C18.9559 6.08431 19.0048 6.13219 19.0393 6.19L26.4513 19.536V19.536ZM21.6343 21.014L23.4743 24.353C23.5072 24.4095 23.5245 24.4737 23.5245 24.539C23.5245 24.6043 23.5072 24.6685 23.4743 24.725C23.4438 24.7813 23.3983 24.828 23.3429 24.8599C23.2875 24.8919 23.2243 24.9078 23.1603 24.906H8.3373C8.27132 24.9052 8.20667 24.8873 8.1497 24.8539C8.09273 24.8206 8.04538 24.7731 8.01231 24.716C7.98078 24.6585 7.96509 24.5937 7.96684 24.5281C7.9686 24.4626 7.98774 24.3987 8.02231 24.343L10.9883 19.526L13.9453 14.346C14.0123 14.223 14.1453 14.146 14.2793 14.156C14.347 14.1543 14.4138 14.1723 14.4715 14.2078C14.5291 14.2433 14.5753 14.2948 14.6043 14.356L15.3483 15.835C15.3773 15.8897 15.3916 15.951 15.3899 16.0128C15.3881 16.0747 15.3703 16.135 15.3383 16.188L11.5803 22.674H19.9173L19.1443 21.386C19.1078 21.3312 19.0875 21.2672 19.0858 21.2014C19.084 21.1356 19.1008 21.0707 19.1343 21.014C19.1674 20.9569 19.2147 20.9094 19.2717 20.8761C19.3287 20.8427 19.3933 20.8248 19.4593 20.824H21.3093C21.4433 20.824 21.5673 20.9 21.6343 21.014V21.014Z" fill="white"/>
</g>
<defs>
<clipPath id="clip0_0_130">
<rect width="32" height="32" fill="white"/>
</clipPath>
</defs>
</svg>
