<svg width="32" height="32" viewBox="0 0 32 32" fill="none" xmlns="http://www.w3.org/2000/svg">
<g clip-path="url(#clip0_0_126)">
<path d="M16 32C24.8366 32 32 24.8366 32 16C32 7.16344 24.8366 0 16 0C7.16344 0 0 7.16344 0 16C0 24.8366 7.16344 32 16 32Z" fill="#F68922"/>
<path d="M16.72 10.078C16.72 10.078 12.593 10.684 11.992 15.271C11.992 15.271 11.354 20.405 16.6 21.791C16.9633 21.8864 17.3374 21.9345 17.713 21.934H17.971C18.505 21.934 19.017 22.148 19.395 22.528C19.773 22.908 19.985 23.424 19.985 23.962C19.9886 24.4713 19.7991 24.963 19.4548 25.3381C19.1104 25.7133 18.6367 25.9441 18.129 25.984C15.55 26.158 12.089 24.892 9.843 21.848C9.843 21.848 5.444 15.523 10.238 9.71101C11.3693 8.32934 12.8444 7.26984 14.515 6.63901C16.485 5.90201 19.371 5.42801 21.876 7.39501C21.876 7.39501 25.229 9.99201 23.51 14.232C23.51 14.232 22.306 17.607 18.18 17.867L17.607 17.835C17.3356 17.8279 17.0688 17.7625 16.8249 17.6432C16.5809 17.524 16.3654 17.3538 16.193 17.144C16.0198 16.9334 15.8933 16.6882 15.8221 16.425C15.7509 16.1617 15.7366 15.8863 15.78 15.617C15.8493 15.1799 16.0686 14.7805 16.4004 14.4876C16.7322 14.1947 17.1557 14.0265 17.598 14.012L18.18 13.972C18.18 13.972 20.157 13.886 19.985 11.549C19.985 11.549 19.813 9.47201 16.719 10.079" fill="white"/>
</g>
<defs>
<clipPath id="clip0_0_126">
<rect width="32" height="32" fill="white"/>
</clipPath>
</defs>
</svg>
