<svg width="32" height="32" viewBox="0 0 32 32" fill="none" xmlns="http://www.w3.org/2000/svg">
<g clip-path="url(#clip0_0_102)">
<path d="M16 32C24.8366 32 32 24.8366 32 16C32 7.16344 24.8366 0 16 0C7.16344 0 0 7.16344 0 16C0 24.8366 7.16344 32 16 32Z" fill="#00FFBA"/>
<path d="M10.8633 10.8955C10.5887 11.1765 10.4194 11.5437 10.3841 11.935C10.3487 12.3263 10.4495 12.7179 10.6693 13.0435C10.8247 13.2774 11.0359 13.469 11.2838 13.601C11.5316 13.7329 11.8085 13.8012 12.0893 13.7995C12.6697 13.7997 13.2263 14.0304 13.6366 14.4409C14.047 14.8514 14.2774 15.4081 14.2773 15.9885C14.2772 16.569 14.0465 17.1256 13.6359 17.5359C13.2254 17.9462 12.6687 18.1767 12.0883 18.1765C10.8809 18.177 9.70075 17.8183 8.69781 17.1462C7.69487 16.474 6.91451 15.5188 6.45599 14.4019C5.99746 13.285 5.88149 12.057 6.12283 10.874C6.36417 9.69101 6.95191 8.60655 7.81129 7.75853C8.88783 6.69369 10.3228 6.06856 11.8356 6.00531C13.3485 5.94207 14.8306 6.44525 15.9923 7.41653C15.3086 7.98814 14.7588 8.70295 14.3817 9.51043C14.0047 10.3179 13.8096 11.1984 13.8103 12.0895C13.81 12.6677 14.0386 13.2226 14.4462 13.6327C14.8537 14.0429 15.4071 14.2751 15.9853 14.2785C15.6979 14.2785 15.4133 14.2219 15.1477 14.1119C14.8822 14.0019 14.641 13.8406 14.4378 13.6373C14.2346 13.434 14.0735 13.1927 13.9636 12.9271C13.8537 12.6616 13.7972 12.3769 13.7973 12.0895C13.799 11.7493 13.6979 11.4164 13.5073 11.1345C13.3211 10.8589 13.0593 10.6429 12.7533 10.5125C12.5427 10.4244 12.3166 10.379 12.0883 10.379C11.86 10.379 11.6339 10.4244 11.4233 10.5125C11.213 10.6016 11.0226 10.7318 10.8633 10.8955V10.8955ZM25.5033 17.5235C25.9684 18.626 26.0986 19.841 25.8777 21.017C25.6569 22.193 25.0947 23.2779 24.2613 24.1365C23.4175 25.006 22.3334 25.6037 21.1477 25.8531C19.9621 26.1025 18.729 25.9923 17.6065 25.5365C16.4839 25.0807 15.523 24.3001 14.8469 23.2948C14.1707 22.2894 13.8101 21.1051 13.8113 19.8935C13.8051 19.6023 13.857 19.3128 13.9642 19.042C14.0713 18.7711 14.2314 18.5244 14.4352 18.3162C14.6389 18.1081 14.8822 17.9427 15.1507 17.8298C15.4192 17.7169 15.7075 17.6588 15.9988 17.6588C16.2901 17.6588 16.5784 17.7169 16.8469 17.8298C17.1154 17.9427 17.3586 18.1081 17.5624 18.3162C17.7661 18.5244 17.9263 18.7711 18.0334 19.042C18.1405 19.3128 18.1925 19.6023 18.1863 19.8935C18.1847 20.2303 18.2831 20.56 18.4692 20.8408C18.6552 21.1216 18.9205 21.3408 19.2313 21.4705C19.6613 21.6505 20.1443 21.6485 20.5723 21.4655C20.9815 21.2883 21.3059 20.9592 21.4773 20.5475C21.6482 20.13 21.6479 19.662 21.4765 19.2447C21.3051 18.8274 20.9763 18.4944 20.5613 18.3175C20.3509 18.2285 20.1247 18.1829 19.8963 18.1835C19.3159 18.1835 18.7592 17.953 18.3488 17.5425C17.9384 17.1321 17.7078 16.5755 17.7078 15.995C17.7078 15.4146 17.9384 14.8579 18.3488 14.4475C18.7592 14.0371 19.3159 13.8065 19.8963 13.8065C21.0927 13.8059 22.2628 14.1582 23.26 14.8194C24.2572 15.4805 25.0372 16.4212 25.5023 17.5235H25.5033Z" fill="white"/>
<path opacity="0.7" d="M15.9851 17.7048C17.1931 17.7048 18.1731 18.6848 18.1731 19.8928C18.1739 21.1063 17.8118 22.2923 17.1335 23.2985C16.4551 24.3046 15.4914 25.085 14.3662 25.5393C13.241 25.9936 12.0056 26.1011 10.8188 25.848C9.63204 25.5948 8.54804 24.9927 7.70608 24.1188C6.87673 23.2591 6.31868 22.1743 6.10147 20.9996C5.88426 19.825 6.01749 18.6123 6.48455 17.5129C6.95162 16.4134 7.73187 15.4756 8.7281 14.8165C9.72433 14.1573 10.8925 13.8058 12.0871 13.8058C12.6675 13.8058 13.2242 14.0364 13.6346 14.4468C14.045 14.8572 14.2756 15.4139 14.2756 15.9943C14.2756 16.5747 14.045 17.1314 13.6346 17.5418C13.2242 17.9522 12.6675 18.1828 12.0871 18.1828C11.7471 18.1818 11.4151 18.2828 11.1331 18.4728C10.8573 18.6592 10.6413 18.9214 10.5111 19.2278C10.381 19.5365 10.3445 19.8765 10.406 20.2058C10.4675 20.535 10.6244 20.8389 10.8571 21.0798V21.0818C11.1358 21.3712 11.5076 21.5529 11.9072 21.595C12.3067 21.637 12.7082 21.5368 13.0411 21.3118C13.2743 21.1558 13.4654 20.9445 13.5971 20.6967C13.7289 20.449 13.7972 20.1724 13.7961 19.8918C13.7961 18.6848 14.7761 17.7048 15.9851 17.7048V17.7048ZM25.3111 9.30881C25.7869 10.237 26.0163 11.2719 25.9773 12.3142C25.9384 13.3565 25.6324 14.3713 25.0887 15.2614C24.545 16.1516 23.7817 16.8871 22.8722 17.3976C21.9626 17.9081 20.9371 18.1764 19.8941 18.1768C19.3135 18.1768 18.7567 17.9462 18.3462 17.5357C17.9357 17.1252 17.7051 16.5684 17.7051 15.9878C17.7051 15.4073 17.9357 14.8505 18.3462 14.44C18.7567 14.0294 19.3135 13.7988 19.8941 13.7988C20.2306 13.7991 20.5597 13.7001 20.8403 13.5143C21.1208 13.3284 21.3402 13.0638 21.4711 12.7538C21.5673 12.5236 21.6123 12.2752 21.603 12.0259C21.5936 11.7765 21.5302 11.5322 21.4171 11.3098C21.3076 11.094 21.1534 10.904 20.9648 10.7523C20.7762 10.6007 20.5574 10.491 20.3231 10.4305C20.0888 10.3699 19.8443 10.3599 19.6058 10.4012C19.3674 10.4425 19.1404 10.534 18.9401 10.6698C18.7065 10.8256 18.5152 11.0368 18.3832 11.2846C18.2513 11.5324 18.1829 11.8091 18.1841 12.0898C18.1902 12.381 18.1382 12.6705 18.031 12.9413C17.9238 13.2122 17.7636 13.4589 17.5598 13.667C17.356 13.8751 17.1127 14.0404 16.8442 14.1532C16.5757 14.2661 16.2873 14.3241 15.9961 14.3241C15.7048 14.324 15.4165 14.2658 15.148 14.1528C14.8795 14.0399 14.6363 13.8744 14.4326 13.6662C14.2289 13.4581 14.0688 13.2113 13.9618 12.9404C13.8547 12.6695 13.8028 12.38 13.8091 12.0888C13.8084 10.9604 14.1214 9.85411 14.7133 8.8934C15.3051 7.9327 16.1524 7.15548 17.1605 6.64858C18.1686 6.14168 19.2978 5.92506 20.4219 6.02294C21.546 6.12081 22.6208 6.52931 23.5261 7.20281L23.5301 7.20581C24.276 7.76197 24.8848 8.4813 25.3101 9.30881H25.3111Z" fill="white"/>
</g>
<defs>
<clipPath id="clip0_0_102">
<rect width="32" height="32" fill="white"/>
</clipPath>
</defs>
</svg>
