<svg width="32" height="32" viewBox="0 0 32 32" fill="none" xmlns="http://www.w3.org/2000/svg">
<g clip-path="url(#clip0_0_94)">
<path d="M16 32C24.8366 32 32 24.8366 32 16C32 7.16344 24.8366 0 16 0C7.16344 0 0 7.16344 0 16C0 24.8366 7.16344 32 16 32Z" fill="#00A5FF"/>
<path fill-rule="evenodd" clip-rule="evenodd" d="M17.5801 12.573C17.5771 13.466 17.5711 14.358 17.5701 15.25C17.5691 16.734 17.5671 18.219 17.5741 19.703C17.5741 19.883 17.5241 19.99 17.3671 20.085C16.7571 20.452 16.1571 20.835 15.5131 21.238V20.913C15.5131 18.616 15.5101 16.318 15.5171 14.021C15.5181 13.83 15.4671 13.722 15.2951 13.629C14.7601 13.339 14.2371 13.027 13.7091 12.725C13.6511 12.692 13.5891 12.665 13.5001 12.621V12.936C13.5001 14.995 13.4961 17.054 13.5061 19.112C13.5061 19.319 13.4401 19.427 13.2661 19.524C12.7411 19.814 12.2281 20.124 11.7091 20.426C11.6361 20.468 11.5591 20.505 11.4431 20.566V20.246C11.4431 18.178 11.4381 16.11 11.4501 14.043C11.4511 13.803 11.3701 13.683 11.1701 13.573C10.5861 13.247 10.0131 12.901 9.40607 12.546C10.0781 12.159 10.7241 11.783 11.3771 11.422C11.4371 11.389 11.5621 11.432 11.6371 11.475C12.2061 11.795 12.7731 12.118 13.3341 12.451C13.4701 12.531 13.5691 12.541 13.7111 12.454C14.2291 12.137 14.7651 11.846 15.2811 11.524C15.4671 11.408 15.6011 11.427 15.7781 11.533C16.3751 11.89 16.9821 12.233 17.5861 12.58L17.5801 12.573V12.573ZM17.5861 12.58C17.6301 12.534 17.6681 12.475 17.7211 12.444C18.2841 12.116 18.8471 11.786 19.4201 11.476C19.4755 11.4518 19.5354 11.4396 19.5959 11.4401C19.6564 11.4406 19.7161 11.4539 19.7711 11.479C20.3531 11.792 20.9271 12.12 21.4941 12.458C21.5721 12.504 21.6501 12.626 21.6501 12.713C21.6591 14.876 21.6581 17.04 21.6541 19.203C21.6541 19.273 21.6361 19.383 21.5891 19.411C20.9411 19.797 20.2861 20.172 19.5911 20.574V20.245C19.5911 18.161 19.5891 16.077 19.5951 13.994C19.5951 13.817 19.5531 13.71 19.3871 13.619C18.7791 13.281 18.1811 12.923 17.5801 12.573L17.5861 12.58V12.58ZM6.43907 18.787C6.25166 18.7893 6.06565 18.7545 5.89175 18.6846C5.71785 18.6147 5.55947 18.5111 5.42574 18.3798C5.29201 18.2484 5.18556 18.092 5.11251 17.9194C5.03945 17.7468 5.00124 17.5615 5.00007 17.374C4.99822 17.1864 5.03359 17.0003 5.10413 16.8265C5.17468 16.6526 5.279 16.4945 5.41105 16.3612C5.54311 16.228 5.70028 16.1222 5.87348 16.0501C6.04668 15.978 6.23246 15.9409 6.42007 15.941C6.60766 15.9383 6.79393 15.9728 6.96809 16.0425C7.14224 16.1123 7.3008 16.216 7.43458 16.3475C7.56835 16.4791 7.67467 16.6358 7.74737 16.8088C7.82006 16.9818 7.85769 17.1674 7.85807 17.355C7.86019 17.5426 7.82503 17.7287 7.75463 17.9025C7.68423 18.0764 7.58 18.2345 7.44798 18.3677C7.31596 18.501 7.15879 18.6066 6.98559 18.6786C6.8124 18.7506 6.62663 18.7874 6.43907 18.787V18.787ZM8.35407 23.074C7.99766 23.077 7.65457 22.9387 7.39975 22.6895C7.14492 22.4403 6.99908 22.1004 6.99407 21.744C6.9932 21.3875 7.13226 21.0449 7.38134 20.7898C7.63042 20.5348 7.96964 20.3876 8.32607 20.38C9.05107 20.364 9.67807 20.98 9.68607 21.717C9.68874 22.0734 9.55005 22.4163 9.30039 22.6707C9.05073 22.925 8.71045 23.0701 8.35407 23.074V23.074ZM7.26707 11.398C7.98707 11.4 8.56507 11.978 8.56507 12.693C8.56507 13.42 7.97307 14.005 7.24507 13.997C7.07483 13.9959 6.90652 13.9609 6.74993 13.8941C6.59334 13.8273 6.45159 13.73 6.33295 13.6079C6.2143 13.4858 6.12112 13.3414 6.05882 13.1829C5.99652 13.0245 5.96635 12.8552 5.97007 12.685C5.96844 12.5147 6.00095 12.3458 6.06568 12.1883C6.13041 12.0307 6.22605 11.8878 6.34695 11.7678C6.46784 11.6478 6.61155 11.5533 6.76959 11.4898C6.92762 11.4263 7.09678 11.3951 7.26707 11.398V11.398ZM24.7891 16.304C24.4668 16.304 24.1578 16.176 23.9299 15.9482C23.7021 15.7203 23.5741 15.4113 23.5741 15.089C23.5741 14.7668 23.7021 14.4578 23.9299 14.2299C24.1578 14.002 24.4668 13.874 24.7891 13.874C25.1113 13.874 25.4203 14.002 25.6482 14.2299C25.8761 14.4578 26.0041 14.7668 26.0041 15.089C26.0041 15.4113 25.8761 15.7203 25.6482 15.9482C25.4203 16.176 25.1113 16.304 24.7891 16.304V16.304ZM9.04207 8.61603C9.03992 8.47028 9.06702 8.32558 9.12178 8.19048C9.17653 8.05539 9.25783 7.93265 9.36086 7.82953C9.46388 7.72641 9.58655 7.645 9.72159 7.59012C9.85664 7.53525 10.0013 7.50801 10.1471 7.51003C10.2929 7.50989 10.4374 7.53873 10.572 7.59487C10.7066 7.65102 10.8287 7.73335 10.9312 7.83709C11.0338 7.94082 11.1147 8.0639 11.1692 8.19917C11.2238 8.33443 11.2509 8.47919 11.2491 8.62503C11.2496 8.77076 11.2212 8.91515 11.1656 9.04984C11.1099 9.18453 11.0281 9.30684 10.9249 9.4097C10.8217 9.51256 10.6991 9.59392 10.5642 9.64908C10.4293 9.70424 10.2848 9.73209 10.1391 9.73103C9.99329 9.73173 9.84885 9.70324 9.71425 9.64722C9.57966 9.59121 9.45765 9.50882 9.35541 9.4049C9.25317 9.30098 9.17277 9.17764 9.11895 9.04216C9.06514 8.90667 9.039 8.76178 9.04207 8.61603V8.61603ZM24.1361 20.909C23.9904 20.9121 23.8456 20.8859 23.7102 20.8319C23.5749 20.7779 23.4518 20.6972 23.3482 20.5947C23.2447 20.4922 23.1628 20.3699 23.1074 20.2351C23.0521 20.1003 23.0244 19.9557 23.0261 19.81C23.024 19.6643 23.0506 19.5196 23.1046 19.3843C23.1585 19.2489 23.2386 19.1255 23.3404 19.0211C23.4421 18.9168 23.5634 18.8336 23.6974 18.7763C23.8314 18.7189 23.9754 18.6886 24.1211 18.687C24.2667 18.6866 24.4111 18.715 24.5458 18.7704C24.6805 18.8259 24.8029 18.9073 24.9061 19.0101C25.0093 19.113 25.0912 19.2351 25.1472 19.3696C25.2031 19.5041 25.2319 19.6484 25.2321 19.794C25.2357 19.9398 25.21 20.0849 25.1564 20.2206C25.1029 20.3562 25.0226 20.4797 24.9203 20.5838C24.8181 20.6878 24.696 20.7702 24.5612 20.8261C24.4265 20.8819 24.2819 20.9102 24.1361 20.909ZM15.4861 6.85403C15.4858 6.96412 15.4632 7.07302 15.4198 7.1742C15.3764 7.27537 15.3131 7.36675 15.2335 7.44285C15.154 7.51895 15.0599 7.5782 14.9569 7.61707C14.8539 7.65594 14.7441 7.67361 14.6341 7.66903C14.524 7.66702 14.4154 7.64293 14.3148 7.5982C14.2142 7.55348 14.1236 7.48902 14.0483 7.40864C13.9731 7.32826 13.9147 7.2336 13.8767 7.13026C13.8387 7.02693 13.8218 6.91701 13.8271 6.80703C13.8341 6.58934 13.926 6.38304 14.0832 6.23223C14.2404 6.08143 14.4503 5.99809 14.6681 6.00003C14.7783 6.00104 14.8871 6.02408 14.9883 6.06781C15.0894 6.11153 15.1808 6.17506 15.2571 6.25464C15.3333 6.33422 15.3928 6.42825 15.4321 6.53119C15.4715 6.63413 15.4898 6.7439 15.4861 6.85403V6.85403ZM21.2571 24.356C21.1488 24.3566 21.0415 24.3355 20.9415 24.2941C20.8415 24.2527 20.7508 24.1917 20.6746 24.1148C20.5984 24.0379 20.5384 23.9466 20.4979 23.8462C20.4575 23.7457 20.4375 23.6383 20.4391 23.53C20.4385 23.4194 20.4602 23.3098 20.5029 23.2077C20.5457 23.1057 20.6085 23.0133 20.6878 22.9361C20.767 22.8589 20.8611 22.7985 20.9642 22.7584C21.0673 22.7184 21.1775 22.6995 21.2881 22.703C21.7481 22.709 22.1081 23.073 22.1061 23.533C22.1061 24.005 21.7381 24.36 21.2571 24.356ZM16.9771 25.999C16.8732 26.0012 16.77 25.9823 16.6737 25.9434C16.5773 25.9046 16.4899 25.8465 16.4167 25.7728C16.3435 25.6991 16.286 25.6114 16.2477 25.5148C16.2095 25.4182 16.1912 25.3149 16.1941 25.211C16.1937 25.107 16.214 25.0039 16.2539 24.9078C16.2939 24.8117 16.3526 24.7246 16.4266 24.6515C16.5007 24.5784 16.5885 24.5208 16.6851 24.4821C16.7817 24.4434 16.885 24.4243 16.9891 24.426C17.199 24.4284 17.3996 24.5132 17.5475 24.6621C17.6955 24.811 17.779 25.0121 17.7801 25.222C17.7799 25.3262 17.7587 25.4293 17.718 25.5252C17.6772 25.6211 17.6176 25.7078 17.5428 25.7802C17.4679 25.8527 17.3793 25.9094 17.2821 25.9469C17.1849 25.9845 17.0812 26.0022 16.9771 25.999V25.999ZM19.6051 8.27603C19.4168 8.27497 19.2366 8.19915 19.1042 8.06525C18.9718 7.93135 18.898 7.75034 18.8991 7.56203C18.9001 7.37373 18.976 7.19356 19.1099 7.06116C19.2438 6.92876 19.4248 6.85497 19.6131 6.85603C19.9971 6.85803 20.3231 7.18703 20.3221 7.57003C20.3172 7.75763 20.2397 7.93601 20.106 8.06767C19.9723 8.19934 19.7927 8.27403 19.6051 8.27603V8.27603ZM13.0671 24.558C13.0668 24.6398 13.0502 24.7206 13.0182 24.7959C12.9862 24.8711 12.9395 24.9391 12.8808 24.996C12.8221 25.0528 12.7525 25.0973 12.6763 25.1269C12.6001 25.1564 12.5188 25.1704 12.4371 25.168C12.3552 25.168 12.2743 25.1514 12.1991 25.1192C12.1238 25.087 12.0559 25.0399 11.9994 24.9807C11.9428 24.9216 11.8989 24.8516 11.8701 24.775C11.8414 24.6984 11.8284 24.6168 11.8321 24.535C11.8331 24.4535 11.8502 24.373 11.8824 24.2981C11.9146 24.2232 11.9612 24.1554 12.0197 24.0986C12.0781 24.0418 12.1471 23.997 12.2229 23.9669C12.2986 23.9367 12.3796 23.9218 12.4611 23.923C12.5426 23.9248 12.6229 23.9427 12.6975 23.9756C12.7721 24.0085 12.8395 24.0559 12.8958 24.1148C12.9521 24.1738 12.9962 24.2433 13.0256 24.3194C13.055 24.3954 13.0691 24.4765 13.0671 24.558V24.558ZM23.7301 10.579C23.733 10.6496 23.7219 10.72 23.6973 10.7862C23.6728 10.8523 23.6353 10.913 23.5871 10.9645C23.5389 11.0161 23.4809 11.0576 23.4165 11.0865C23.3521 11.1154 23.2826 11.1312 23.2121 11.133C23.07 11.1355 22.9326 11.0816 22.83 10.9833C22.7274 10.885 22.6677 10.7501 22.6641 10.608C22.6613 10.5376 22.6726 10.4673 22.6973 10.4012C22.7221 10.3352 22.7598 10.2748 22.8083 10.2235C22.8567 10.1723 22.9149 10.1313 22.9794 10.1028C23.044 10.0744 23.1136 10.0592 23.1841 10.058C23.4831 10.048 23.7241 10.279 23.7301 10.58V10.579Z" fill="white"/>
</g>
<defs>
<clipPath id="clip0_0_94">
<rect width="32" height="32" fill="white"/>
</clipPath>
</defs>
</svg>
