<svg width="32" height="32" viewBox="0 0 32 32" fill="none" xmlns="http://www.w3.org/2000/svg">
<g clip-path="url(#clip0_0_66)">
<path d="M16 32C24.8366 32 32 24.8366 32 16C32 7.16344 24.8366 0 16 0C7.16344 0 0 7.16344 0 16C0 24.8366 7.16344 32 16 32Z" fill="#42C1CA"/>
<path d="M16.057 13.1307C16.429 11.5677 16.877 10.1627 17.353 9.24572C17.528 8.80772 18.238 7.75872 19.017 7.06572C20.314 5.91072 21.769 5.61773 23.284 6.56873L23.151 6.77973L23.284 6.56873C24.057 7.05373 24.367 7.55273 24.231 8.02273C24.131 8.37273 23.748 8.65272 23.543 8.62372C23.243 8.65372 22.941 8.59373 22.653 8.38173C22.4106 8.19498 22.2236 7.94573 22.112 7.66072C21.9 7.16072 21.622 6.99072 21.281 7.03072C21.034 7.05872 20.747 7.21672 20.656 7.32272L20.421 7.58272C20.2384 7.77725 20.0762 7.99003 19.937 8.21772C19.461 9.01072 19.022 10.4637 18.413 13.4747L22.449 14.0657L22.227 15.6827L18.131 15.0827L17.956 16.1467L17.911 16.4127C17.887 16.5507 17.861 16.7007 17.831 16.8607L21.967 17.4667L21.73 19.0817L17.497 18.4617C17.008 20.5397 16.364 22.7667 15.909 23.6457C15.733 24.0847 15.024 25.1317 14.245 25.8257C12.948 26.9797 11.493 27.2737 9.97804 26.3227C9.20504 25.8377 8.89504 25.3377 9.03104 24.8677C9.13104 24.5177 9.51404 24.2387 9.71904 24.2677C10.019 24.2377 10.321 24.2977 10.609 24.5087C10.831 24.6727 11.015 24.9107 11.15 25.2307C11.362 25.7297 11.64 25.9007 11.981 25.8607C12.228 25.8317 12.515 25.6737 12.606 25.5677C13.513 24.5577 14.232 22.6117 15.141 18.1177L11.105 17.5257L11.327 15.9087L15.423 16.5087L15.599 15.4457C15.6379 15.2069 15.6796 14.9686 15.724 14.7307L11.604 14.1277L11.84 12.5127L16.057 13.1307V13.1307Z" fill="white"/>
</g>
<defs>
<clipPath id="clip0_0_66">
<rect width="32" height="32" fill="white"/>
</clipPath>
</defs>
</svg>
