<svg width="32" height="32" viewBox="0 0 32 32" fill="none" xmlns="http://www.w3.org/2000/svg">
<g clip-path="url(#clip0_0_59)">
<path d="M16 32C24.8366 32 32 24.8366 32 16C32 7.16344 24.8366 0 16 0C7.16344 0 0 7.16344 0 16C0 24.8366 7.16344 32 16 32Z" fill="#00AFEC"/>
<path d="M20.306 11.715C20.355 11.636 20.399 11.531 20.444 11.441C21.4624 9.63765 21.9984 7.60205 22 5.531C20.565 4.703 19.05 4.181 17.402 4C18.012 6.662 18.876 9.24 20.125 11.669L20.306 11.715ZM12.078 11.26L12.033 11.25L11.683 11.17V11.164H11.678L11.993 9.791C12.226 9.841 12.459 9.896 12.691 9.953H12.696C13.5453 8.037 14.2073 6.0434 14.673 4C12.5253 4.23717 10.4818 5.05091 8.759 6.355V6.359C7.31345 7.45364 6.13441 8.86125 5.31023 10.4764C4.48605 12.0915 4.03812 13.8722 4 15.685V15.925C5.28089 16.6612 6.68513 17.1579 8.144 17.391L8.151 17.384C9.68196 15.4936 10.9999 13.4402 12.081 11.261H12.078V11.26ZM19.59 13.285C19.853 13.425 19.951 13.625 20.076 14.017C20.249 14.609 20.132 15.232 20.009 15.817L21.46 16.154L21.82 14.591C23.285 16.846 24.91 19.175 26.883 21.003C26.525 21.816 26.303 22.1 25.776 22.814C22.546 21.82 19.106 21.293 15.726 21.326L16.015 20.171L15.051 19.946C14.901 19.908 14.748 19.841 14.658 19.709C14.545 19.559 14.545 19.361 14.583 19.184L15.186 16.562C15.498 16.637 15.824 16.686 16.116 16.825C16.2526 16.8799 16.3744 16.9661 16.4715 17.0768C16.5687 17.1874 16.6384 17.3194 16.675 17.462C16.754 17.86 16.585 18.242 16.517 18.625L17.815 18.925L18.897 14.237L18.787 14.2L18.702 14.184C19.002 13.869 19.264 13.589 19.535 13.247L19.591 13.285H19.59ZM8.182 17.692L8.213 17.649C8.465 17.705 8.659 17.684 8.917 17.711C9.84 17.793 10.736 17.811 11.655 17.681C11.725 17.671 11.797 17.664 11.868 17.661L11.655 18.479C11.617 18.641 11.546 18.809 11.407 18.911C11.3383 18.9566 11.2608 18.9874 11.1796 19.0015C11.0984 19.0156 11.0151 19.0127 10.935 18.993C10.605 18.926 10.275 18.836 9.941 18.772C9.84 19.229 9.731 19.687 9.626 20.141L11.842 20.654C11.752 21.067 11.73 21.179 11.636 21.588C9.79132 21.841 7.96938 22.2385 6.187 22.777C5.662 22.064 5.437 21.892 5.085 21.078C6.207 20.038 7.217 18.881 8.182 17.692V17.692ZM13.327 20.996L14.216 21.202L14.186 21.378L13.237 21.446L13.327 20.996ZM11.688 17.417C11.757 17.4075 11.8264 17.4015 11.896 17.399V17.395L13.04 12.445C13.085 12.22 13.175 11.995 13.104 11.77C13.0765 11.6893 13.0308 11.6161 12.9705 11.5559C12.9102 11.4957 12.8368 11.4502 12.756 11.423L12.719 11.411C12.529 11.36 12.675 11.396 12.482 11.351C12.461 11.346 12.365 11.378 12.343 11.374C11.2739 13.5277 9.96854 15.5559 8.451 17.421C8.702 17.474 8.661 17.459 8.912 17.485C9.837 17.57 10.768 17.547 11.687 17.418L11.688 17.417Z" fill="white"/>
<path d="M14.161 10.3801V10.3841C14.337 9.64109 14.502 8.89509 14.682 8.15309L16.16 8.49309L15.646 10.7251L16.531 10.9311C16.619 10.5601 16.706 10.1881 16.791 9.81609L16.92 9.25809L17.049 8.70009L18.526 9.03709C18.506 9.13709 18.484 9.23709 18.462 9.33709C18.319 9.98409 18.16 10.6251 18.017 11.2741L19.718 11.6701C18.469 9.24009 17.642 6.70009 17.033 4.03809C16.651 3.99309 16.49 4.00809 16.103 4.00109H15.867C15.443 4.00109 15.286 3.99009 14.87 4.03809C14.402 6.08109 13.85 8.22409 13 10.1401L14.161 10.3801V10.3801ZM16.122 12.2891L16.167 12.2991L16.172 12.2891H16.122Z" fill="white"/>
<path d="M16.195 12.495L15.509 15.469C15.935 15.563 16.379 15.719 16.817 15.596C16.9578 15.5517 17.0855 15.4734 17.1889 15.3681C17.2923 15.2627 17.3683 15.1336 17.41 14.992C17.492 14.729 17.533 14.459 17.605 14.197L18.329 14.381C18.361 14.386 18.324 14.405 18.345 14.384L18.363 14.37C18.663 14.048 19.003 13.695 19.273 13.354C18.8301 13.1325 18.3581 12.9746 17.871 12.885L16.195 12.495V12.495ZM26.965 11.326C25.93 9.012 24.455 7.27 22.262 6C22.26 8.072 21.762 9.921 20.744 11.726C20.6822 11.8389 20.6258 11.9547 20.575 12.073C21.261 12.223 21.689 12.315 22.375 12.469V12.476L21.933 14.463C23.395 16.717 25.026 19.199 26.995 21.029C27.623 19.597 27.965 18.056 28 16.492V15.929C27.9617 14.3411 27.61 12.7765 26.965 11.325V11.326ZM4 16.47V16.643C4.023 18.242 4.365 19.557 5.005 21.023C6.06673 20.0436 7.05319 18.9856 7.956 17.858C6.501 17.626 5.275 17.21 4 16.47ZM15.685 21.87L15.182 24.06H15.179L13.694 23.72L14.107 21.923L13.162 21.99L12.812 23.513H12.81L11.324 23.172C11.4 22.834 11.474 22.504 11.557 22.171C9.788 22.411 8.042 22.796 6.337 23.322C7.43204 24.8082 8.85481 26.0221 10.4949 26.8694C12.135 27.7168 13.9483 28.1748 15.794 28.208H16.285C18.117 28.1607 19.9141 27.6961 21.5394 26.8494C23.1647 26.0027 24.5754 24.7963 25.664 23.322C22.4323 22.3268 19.0663 21.837 15.685 21.87V21.87Z" fill="white"/>
</g>
<defs>
<clipPath id="clip0_0_59">
<rect width="32" height="32" fill="white"/>
</clipPath>
</defs>
</svg>
