<svg width="32" height="32" viewBox="0 0 32 32" fill="none" xmlns="http://www.w3.org/2000/svg">
<g clip-path="url(#clip0_0_55)">
<path d="M16 32C24.8366 32 32 24.8366 32 16C32 7.16344 24.8366 0 16 0C7.16344 0 0 7.16344 0 16C0 24.8366 7.16344 32 16 32Z" fill="#C40E09"/>
<path fill-rule="evenodd" clip-rule="evenodd" d="M22.7 7.14C22.79 7.21 22.871 7.27 22.946 7.335C23.144 7.51 23.343 7.685 23.536 7.866C23.689 8.012 23.834 8.168 23.981 8.321C23.993 8.333 24.003 8.361 23.999 8.377C23.909 8.725 23.773 9.053 23.591 9.359C23.431 9.627 23.247 9.873 23.033 10.094C22.743 10.394 22.418 10.644 22.062 10.849C21.907 10.939 21.748 11.019 21.589 11.099C21.082 11.356 20.542 11.5 19.992 11.602C19.617 11.672 19.238 11.722 18.861 11.774C18.365 11.842 17.868 11.897 17.373 11.969C16.643 12.075 15.928 12.241 15.25 12.556C14.504 12.903 13.883 13.41 13.461 14.159C13.18 14.659 13.066 15.204 13.071 15.782C13.08 16.889 13.459 17.846 14.113 18.697C14.513 19.217 14.969 19.679 15.449 20.115C15.781 20.418 16.12 20.712 16.451 21.015C16.874 21.405 17.298 21.794 17.661 22.249C17.851 22.489 18.039 22.735 18.202 22.996C18.48 23.442 18.701 23.921 18.846 24.434C18.926 24.714 18.974 24.999 18.996 25.291C19.0278 25.725 18.9893 26.1613 18.882 26.583C18.839 26.756 18.837 26.759 18.666 26.79C18.425 26.835 18.184 26.881 17.942 26.92C17.765 26.947 17.587 26.964 17.409 26.984C17.347 26.992 17.284 26.995 17.221 27L17.184 26.999C17.185 26.985 17.184 26.971 17.188 26.959C17.242 26.816 17.302 26.675 17.353 26.531C17.4653 26.2215 17.5412 25.9 17.579 25.573C17.6452 24.998 17.5398 24.4162 17.276 23.901C17.0923 23.5533 16.8585 23.2346 16.582 22.955C16.206 22.56 15.792 22.214 15.377 21.869C14.684 21.292 14.014 20.689 13.402 20.017C13.0296 19.6114 12.6912 19.1759 12.39 18.715C12.0604 18.218 11.802 17.6775 11.622 17.109C11.3469 16.2251 11.3382 15.2798 11.597 14.391C11.743 13.877 11.94 13.394 12.244 12.961C12.646 12.388 13.165 11.961 13.76 11.631C14.36 11.296 15 11.076 15.659 10.911C16.189 10.777 16.726 10.677 17.267 10.611C17.877 10.537 18.487 10.475 19.097 10.406C19.595 10.35 20.09 10.281 20.571 10.129C21.009 9.99674 21.4114 9.767 21.748 9.457C22.039 9.185 22.255 8.859 22.41 8.485C22.553 8.14 22.623 7.776 22.674 7.407C22.685 7.325 22.691 7.241 22.701 7.14H22.7ZM15.64 19.966C15.859 19.923 16.067 19.886 16.274 19.841C16.806 19.723 17.331 19.581 17.824 19.329C18.3091 19.0831 18.7405 18.7432 19.093 18.329C19.453 17.903 19.748 17.434 19.902 16.878C19.9985 16.526 20.0324 16.1597 20.002 15.796C19.9392 15.0556 19.6864 14.344 19.268 13.73C18.9521 13.2655 18.5902 12.834 18.188 12.442C18.118 12.371 18.044 12.302 17.973 12.232C17.963 12.222 17.955 12.21 17.94 12.192L18.32 12.133L19.143 12.008C19.287 11.986 19.431 11.962 19.575 11.943C19.592 11.941 19.616 11.96 19.63 11.975C19.886 12.273 20.148 12.565 20.394 12.872C20.714 13.27 20.984 13.706 21.204 14.176C21.399 14.595 21.542 15.031 21.612 15.493C21.661 15.816 21.682 16.142 21.649 16.468C21.553 17.381 21.282 18.226 20.747 18.964C20.415 19.423 20.006 19.794 19.545 20.104C19.008 20.4582 18.424 20.7352 17.81 20.927C17.547 21.011 17.281 21.083 17.016 21.157C17.0037 21.1598 16.9911 21.1598 16.9788 21.1573C16.9666 21.1547 16.955 21.1495 16.945 21.142C16.518 20.762 16.093 20.379 15.668 19.997C15.66 19.991 15.654 19.982 15.641 19.967L15.64 19.966ZM17.756 10.268L17.112 10.368L16.382 10.481C16.297 10.495 16.211 10.511 16.124 10.52C16.0921 10.5223 16.0606 10.5123 16.036 10.492C15.7549 10.2338 15.4938 9.95465 15.255 9.657C15.125 9.492 14.993 9.327 14.878 9.15C14.488 8.546 14.183 7.901 14.054 7.176C13.9386 6.55701 13.9722 5.91944 14.152 5.316C14.163 5.276 14.175 5.256 14.222 5.247C14.49 5.201 14.755 5.141 15.022 5.097C15.242 5.062 15.466 5.044 15.688 5.018L15.87 5C15.854 5.036 15.845 5.06 15.834 5.081C15.6427 5.4726 15.5109 5.89053 15.443 6.321C15.3524 6.90921 15.4471 7.51102 15.714 8.043C15.935 8.488 16.237 8.865 16.579 9.213C16.935 9.573 17.321 9.897 17.708 10.22C17.722 10.232 17.734 10.245 17.757 10.268H17.756ZM14.582 21.556L14.156 21.601C13.976 21.621 13.796 21.635 13.616 21.663C13.339 21.706 13.061 21.748 12.787 21.809C11.784 22.031 11.003 22.563 10.577 23.586C10.4209 23.9591 10.3046 24.3476 10.23 24.745C10.227 24.763 10.221 24.781 10.213 24.813C10.156 24.769 10.103 24.733 10.055 24.691C9.85496 24.513 9.65596 24.337 9.46096 24.155C9.31996 24.023 9.18696 23.882 9.04696 23.748C8.99996 23.703 8.99096 23.658 9.00796 23.594C9.19731 22.91 9.57049 22.2909 10.087 21.804C10.4206 21.4944 10.7939 21.2304 11.197 21.019C11.763 20.709 12.368 20.531 12.988 20.397C13.06 20.382 13.134 20.374 13.204 20.355C13.248 20.343 13.277 20.355 13.308 20.384L13.886 20.913L14.527 21.502C14.5461 21.5192 14.5645 21.5372 14.582 21.556ZM18.909 17.178C18.859 17.166 18.809 17.155 18.761 17.14L15.31 16.061C14.867 15.923 14.425 15.786 13.983 15.647C13.813 15.594 13.726 15.455 13.739 15.313C13.757 15.103 13.827 14.957 14.024 14.918C14.0783 14.9097 14.1338 14.9145 14.186 14.932C14.56 15.047 14.933 15.167 15.306 15.283L17.947 16.107L19 16.434C19.0787 16.4557 19.147 16.5051 19.1924 16.573C19.2377 16.6409 19.2571 16.7229 19.247 16.804C19.218 17.027 19.085 17.172 18.909 17.178V17.178ZM11.619 23.674C11.651 23.682 11.689 23.689 11.726 23.7L16.531 25.2C16.696 25.252 16.794 25.39 16.779 25.552C16.76 25.77 16.646 25.915 16.475 25.93C16.422 25.9326 16.3691 25.9251 16.319 25.908C14.994 25.496 13.67 25.082 12.346 24.668C12.07 24.582 11.794 24.498 11.519 24.411C11.365 24.362 11.263 24.231 11.274 24.081C11.29 23.883 11.363 23.732 11.54 23.687C11.563 23.68 11.588 23.679 11.62 23.674H11.619ZM21.749 7.91C21.734 7.954 21.714 8.046 21.671 8.123C21.601 8.249 21.458 8.296 21.317 8.252L19 7.528C18.171 7.269 17.342 7.01 16.512 6.753C16.371 6.709 16.266 6.626 16.25 6.466C16.232 6.286 16.315 6.045 16.551 6.018C16.5957 6.01502 16.6406 6.02114 16.683 6.036L21.499 7.539C21.659 7.589 21.749 7.707 21.749 7.91V7.91ZM14.834 14.373C14.844 14.166 14.934 14.01 15.096 13.978C15.1597 13.9667 15.2252 13.9708 15.287 13.99C15.773 14.138 16.257 14.291 16.743 14.443L18.575 15.013C18.6563 15.0356 18.7263 15.0876 18.7714 15.1589C18.8165 15.2303 18.8335 15.3159 18.819 15.399C18.782 15.629 18.645 15.769 18.459 15.749C18.364 15.737 18.271 15.699 18.177 15.67L15.795 14.926L15.077 14.702C15.005 14.6831 14.9416 14.6402 14.8974 14.5803C14.8532 14.5205 14.8308 14.4473 14.834 14.373V14.373ZM14.502 16.263C14.566 16.28 14.614 16.289 14.661 16.303L17.681 17.247C17.764 17.273 17.848 17.297 17.931 17.324C18.116 17.384 18.206 17.556 18.158 17.752C18.121 17.907 18.047 18.026 17.887 18.053C17.8346 18.0605 17.7813 18.0561 17.731 18.04C17.347 17.923 16.964 17.802 16.581 17.682C15.868 17.46 15.156 17.237 14.444 17.017C14.312 16.976 14.212 16.897 14.19 16.752C14.165 16.591 14.207 16.442 14.336 16.339C14.386 16.3 14.452 16.286 14.502 16.264V16.263ZM11.719 25.45C11.733 25.234 11.827 25.065 12.022 25.044C12.0647 25.0398 12.1079 25.0442 12.149 25.057C13.257 25.402 14.365 25.747 15.473 26.094C15.651 26.15 15.738 26.326 15.693 26.514C15.655 26.674 15.573 26.786 15.416 26.822C15.3866 26.8303 15.3556 26.831 15.326 26.824L12.219 25.854C12.128 25.825 12.036 25.798 11.944 25.768C11.8775 25.7459 11.8198 25.7031 11.7793 25.6459C11.7389 25.5887 11.7177 25.5201 11.719 25.45ZM12.716 22.73C12.746 22.738 12.786 22.745 12.825 22.757L16.106 23.781C16.266 23.831 16.366 23.971 16.354 24.127C16.337 24.341 16.227 24.488 16.059 24.509C16.0021 24.5136 15.9449 24.5064 15.891 24.488C15.006 24.213 14.121 23.935 13.237 23.658C13.026 23.593 12.814 23.528 12.604 23.461C12.45 23.411 12.357 23.284 12.37 23.126C12.386 22.92 12.466 22.786 12.638 22.741C12.66 22.735 12.683 22.735 12.716 22.731V22.73ZM20.338 9.168C20.23 9.136 20.125 9.107 20.02 9.074C18.993 8.754 17.966 8.431 16.938 8.11C16.733 8.045 16.65 7.88 16.706 7.662C16.741 7.523 16.813 7.423 16.948 7.392C17.0075 7.37872 17.0694 7.38078 17.128 7.398C18.038 7.679 18.949 7.964 19.86 8.248C20.055 8.308 20.249 8.37 20.444 8.431C20.518 8.45476 20.5813 8.5039 20.6226 8.56977C20.664 8.63563 20.6807 8.71398 20.67 8.791C20.653 8.923 20.616 9.051 20.49 9.116C20.443 9.14 20.39 9.15 20.338 9.168V9.168ZM21.321 6.468C21.302 6.601 21.266 6.746 21.114 6.82C21.0364 6.85454 20.9484 6.85705 20.869 6.827L18.504 6.087L17.581 5.797C17.387 5.737 17.303 5.569 17.356 5.362C17.392 5.221 17.46 5.112 17.601 5.082C17.6628 5.06993 17.7267 5.07337 17.787 5.092C18.409 5.284 19.03 5.48 19.651 5.674L21.076 6.118C21.231 6.167 21.322 6.288 21.321 6.468V6.468Z" fill="white"/>
</g>
<defs>
<clipPath id="clip0_0_55">
<rect width="32" height="32" fill="white"/>
</clipPath>
</defs>
</svg>
