<svg width="32" height="32" viewBox="0 0 32 32" fill="none" xmlns="http://www.w3.org/2000/svg">
<g clip-path="url(#clip0_0_47)">
<path d="M16 32C24.8366 32 32 24.8366 32 16C32 7.16344 24.8366 0 16 0C7.16344 0 0 7.16344 0 16C0 24.8366 7.16344 32 16 32Z" fill="#1D9AD7"/>
<path fill-rule="evenodd" clip-rule="evenodd" d="M25.999 11.7121C24.99 10.6581 22.917 9.77611 19.051 9.23511C17.8321 9.06443 16.6081 8.93137 15.381 8.83611C14.428 8.77911 13.503 8.72211 12.607 8.72211C11.122 10.9421 9.721 13.6191 8.488 16.8361C7.143 20.3661 5.939 23.8401 5.099 27.0001H4.847C4.931 23.6121 5.491 19.7691 6.64 15.7831C7.397 13.1931 8.293 10.9141 9.302 8.92211C4.762 9.40611 1.512 10.8011 0 12.7931C1.289 9.63311 5.127 6.95711 10.983 6.01811C14.093 1.37711 17.763 -0.701893 20.817 0.210107C21.881 0.523107 22.778 1.20611 23.507 2.17411C23.422 2.11711 23.338 2.06011 23.227 2.03211C20.985 1.12111 17.959 2.43011 15.017 5.67611H15.157C21.741 5.64811 25.075 8.43811 26 11.7121H25.999ZM17.762 15.9821C19.555 15.9821 21.012 17.4911 21.012 19.3421C21.012 21.1921 19.555 22.7011 17.762 22.7011C15.969 22.7011 14.512 21.1921 14.512 19.3411C14.512 17.4631 15.969 15.9821 17.762 15.9821Z" fill="white"/>
</g>
<defs>
<clipPath id="clip0_0_47">
<rect width="32" height="32" fill="white"/>
</clipPath>
</defs>
</svg>
