<svg width="32" height="32" viewBox="0 0 32 32" fill="none" xmlns="http://www.w3.org/2000/svg">
<g clip-path="url(#clip0_0_43)">
<path d="M16 32C24.8366 32 32 24.8366 32 16C32 7.16344 24.8366 0 16 0C7.16344 0 0 7.16344 0 16C0 24.8366 7.16344 32 16 32Z" fill="#27323A"/>
<path d="M25.103 6C25.103 6 26.75 7.464 25.581 10.443C25.3588 10.9906 25.0502 11.4991 24.667 11.949L20.602 16.719L17.34 20.977C17.34 20.977 13.594 20.361 12.138 21.872L18.312 22.146C18.312 22.146 16.994 23.589 11.792 22.556C11.792 22.556 11.862 24.004 14.221 24.416C14.221 24.416 12.138 25.105 10.889 23.109C10.889 23.109 10.889 24.557 12.345 25.173C12.345 25.173 11.165 25.447 10.193 24.21L8.53 25.994C8.53 25.994 8.185 26.063 8.392 25.721L9.779 24.073C9.779 24.073 9.917 22.904 9.083 23.315C9.083 23.315 8.53 23.52 8.737 24.141C8.737 24.141 7.903 23.457 8.876 22.562L7 20.704L9.428 22.009L8.387 19.466L10.119 21.667C10.119 21.667 9.975 19.193 10.741 18.508C10.741 18.508 10.948 20.914 11.921 21.12L11.851 16.102L12.893 15.208L13.031 18.366C13.031 18.366 13.307 18.708 13.583 18.298C13.583 18.298 14.21 17.266 14.21 14.244L15.873 12.664L16.081 13.902C16.081 13.902 16.362 14.381 16.708 13.97L17.053 11.565C17.053 11.565 19.273 9.022 25.103 6V6ZM14.003 19.95C19.757 14.66 22.813 9.506 22.807 9.506C19.965 11.496 14.003 19.951 14.003 19.951V19.95Z" fill="white"/>
</g>
<defs>
<clipPath id="clip0_0_43">
<rect width="32" height="32" fill="white"/>
</clipPath>
</defs>
</svg>
