<svg width="32" height="32" viewBox="0 0 32 32" fill="none" xmlns="http://www.w3.org/2000/svg">
<g clip-path="url(#clip0_0_35)">
<path d="M16 32C24.8366 32 32 24.8366 32 16C32 7.16344 24.8366 0 16 0C7.16344 0 0 7.16344 0 16C0 24.8366 7.16344 32 16 32Z" fill="#ED1968"/>
<path d="M12.9626 27.1C11.6849 26.746 10.4937 26.1333 9.46256 25.3C8.44658 24.5174 7.56791 23.5711 6.86256 22.5C6.11043 21.3733 5.56836 20.1197 5.26256 18.8C4.91248 17.2192 4.91248 15.5808 5.26256 14C5.56092 12.6627 6.06706 11.3805 6.76256 10.2C7.78077 8.56642 9.23557 7.25018 10.9626 6.4C11.569 6.07358 12.2053 5.8057 12.8626 5.6C13.8626 6.8 14.8626 8.1 15.8626 9.4C15.9626 9.6 16.1626 9.7 16.2626 9.9C15.2595 9.94205 14.2744 10.1798 13.3626 10.6C12.5565 11.0214 11.8426 11.5993 11.2626 12.3C10.6919 13.0544 10.2524 13.8996 9.96256 14.8C9.69551 15.8887 9.73009 17.0295 10.0626 18.1L14.3626 14.7C15.3626 16 16.3626 17.2 17.3626 18.5C15.9626 19.6 14.4626 20.7 13.0626 21.9C14.4626 23.7 15.9626 25.6 17.3626 27.5C15.8841 27.6748 14.3853 27.5386 12.9626 27.1V27.1ZM22.4926 14.986C22.4559 14.8223 22.4125 14.6602 22.3626 14.5C22.2276 14.606 19.2526 16.88 18.0626 17.9C17.0626 16.6 16.0626 15.4 15.0626 14.1C16.4626 13 17.9626 11.9 19.3626 10.7C17.9626 8.9 16.5626 7.1 15.0626 5.2C15.0626 5.1 14.9626 5.1 14.9626 5H16.3626C18.9277 5.02395 21.4038 5.94364 23.3626 7.6C24.3172 8.38883 25.129 9.33597 25.7626 10.4C26.5087 11.5454 26.9872 12.8443 27.1626 14.2C27.4305 15.7586 27.3965 17.3542 27.0626 18.9C26.7763 20.1952 26.2322 21.4196 25.4626 22.5C24.7909 23.5372 23.9452 24.4507 22.9626 25.2C22.0056 26.0315 20.8797 26.6456 19.6626 27C18.7626 25.9 17.9626 24.9 17.1626 23.8C16.8637 23.4579 16.596 23.0898 16.3626 22.7C17.3088 22.7032 18.243 22.4883 19.0928 22.0721C19.9425 21.6559 20.685 21.0495 21.2626 20.3C21.8385 19.5632 22.248 18.7103 22.4626 17.8C22.6486 17.041 22.6586 16.103 22.4926 14.986V14.986ZM17.7696 23.359C18.4601 24.3023 19.1771 25.226 19.9196 26.129C20.8693 25.7856 21.7469 25.2684 22.5076 24.604C23.4297 23.899 24.2228 23.0397 24.8516 22.064C25.5621 21.067 26.0647 19.9373 26.3296 18.742C26.6436 17.29 26.6746 15.791 26.4196 14.296C26.256 13.0423 25.8113 11.8417 25.1186 10.784C24.5273 9.79154 23.7696 8.90831 22.8786 8.173C21.0787 6.65029 18.8087 5.79487 16.4516 5.751C17.3786 6.931 18.3176 8.134 19.9546 10.24L20.3946 10.804L19.8506 11.269C19.1393 11.874 18.413 12.4611 17.6726 13.03C17.6026 13.085 16.7526 13.738 16.1146 14.232C16.3776 14.567 16.6826 14.949 17.1486 15.532C17.6086 16.107 17.9136 16.49 18.1766 16.825C18.6406 16.442 19.1466 16.04 19.7526 15.57C19.8506 15.494 21.4486 14.264 21.8996 13.91L22.7556 13.237L23.0786 14.277C23.4512 15.4755 23.4906 16.7528 23.1926 17.972C22.9537 18.9863 22.4979 19.9367 21.8566 20.758C20.8368 22.0814 19.3721 22.9905 17.7336 23.317L17.7696 23.359V23.359Z" fill="white"/>
</g>
<defs>
<clipPath id="clip0_0_35">
<rect width="32" height="32" fill="white"/>
</clipPath>
</defs>
</svg>
