<svg width="32" height="32" viewBox="0 0 32 32" fill="none" xmlns="http://www.w3.org/2000/svg">
<g clip-path="url(#clip0_0_31)">
<path d="M16 32C24.8366 32 32 24.8366 32 16C32 7.16344 24.8366 0 16 0C7.16344 0 0 7.16344 0 16C0 24.8366 7.16344 32 16 32Z" fill="#2D475B"/>
<path d="M12.8691 12.685H23.9541V15.173H12.8691V12.685ZM23.9541 16.829H24.0001V23.372C24.0001 23.372 15.3531 29.637 8.63708 22.82C8.63708 22.82 4.95708 19.088 6.29108 13.652C6.29108 13.652 7.34908 6.88099 15.3991 6.05199C15.3991 6.05199 20.3661 5.35999 23.5861 9.04599L21.6541 10.934C21.6541 10.934 17.5601 6.69599 12.0871 10.014C12.0871 10.014 7.62508 12.501 9.46508 18.766C9.46508 18.766 11.4891 24.202 17.8361 23.096C17.8361 23.096 19.9981 22.604 21.1021 21.652V19.317H12.8701V16.829H23.9541Z" fill="white"/>
</g>
<defs>
<clipPath id="clip0_0_31">
<rect width="32" height="32" fill="white"/>
</clipPath>
</defs>
</svg>
