<svg width="32" height="32" viewBox="0 0 32 32" fill="none" xmlns="http://www.w3.org/2000/svg">
<g clip-path="url(#clip0_0_833)">
<path d="M16 32C24.8366 32 32 24.8366 32 16C32 7.16344 24.8366 0 16 0C7.16344 0 0 7.16344 0 16C0 24.8366 7.16344 32 16 32Z" fill="#EFB914"/>
<path fill-rule="evenodd" clip-rule="evenodd" d="M21.0021 9.855C21.8395 10.5121 22.5364 11.3307 23.0514 12.2623C23.5664 13.1938 23.889 14.2194 24.0001 15.278L21.1531 14.57C20.8851 13.6753 20.388 12.8663 19.7109 12.223C19.0338 11.5798 18.2003 11.1247 17.2931 10.903C14.4271 10.19 11.5331 11.894 10.8281 14.709C10.1231 17.524 11.8781 20.384 14.7451 21.097C15.6513 21.3258 16.6015 21.3142 17.5019 21.0634C18.4022 20.8126 19.2216 20.3313 19.8791 19.667L22.7261 20.374C22.1295 21.2571 21.362 22.0116 20.4688 22.593C19.5757 23.1744 18.5751 23.5709 17.5261 23.759L16.7161 27L14.1201 26.355L14.7641 23.78C14.3234 23.7075 13.8893 23.5995 13.4661 23.457L12.8231 26.032L10.2271 25.386L11.0371 22.145C8.65908 20.27 7.46208 17.149 8.23308 14.064C9.00408 10.979 11.5301 8.783 14.5131 8.241L15.3231 5L17.9191 5.645L17.2751 8.22C17.7157 8.29249 18.1498 8.40051 18.5731 8.543L19.2161 5.968L21.8121 6.614L21.0021 9.855Z" fill="white"/>
</g>
<defs>
<clipPath id="clip0_0_833">
<rect width="32" height="32" fill="white"/>
</clipPath>
</defs>
</svg>
