<svg width="32" height="32" viewBox="0 0 32 32" fill="none" xmlns="http://www.w3.org/2000/svg">
<g clip-path="url(#clip0_0_827)">
<path d="M16 32C24.8366 32 32 24.8366 32 16C32 7.16344 24.8366 0 16 0C7.16344 0 0 7.16344 0 16C0 24.8366 7.16344 32 16 32Z" fill="#008DDE"/>
<path d="M24.043 17.34C24.1406 17.3436 24.238 17.3275 24.3293 17.2926C24.4206 17.2577 24.504 17.2048 24.5744 17.137C24.6447 17.0691 24.7007 16.9878 24.739 16.8979C24.7772 16.8079 24.7969 16.7112 24.7969 16.6135C24.7969 16.5157 24.7772 16.419 24.739 16.329C24.7007 16.2391 24.6447 16.1578 24.5744 16.0899C24.504 16.0221 24.4206 15.9692 24.3293 15.9343C24.238 15.8994 24.1406 15.8833 24.043 15.887H22.383V14.245H25.854C25.9516 14.2486 26.049 14.2325 26.1403 14.1976C26.2316 14.1627 26.315 14.1098 26.3854 14.042C26.4557 13.9741 26.5117 13.8928 26.55 13.8029C26.5882 13.7129 26.6079 13.6162 26.6079 13.5185C26.6079 13.4207 26.5882 13.324 26.55 13.234C26.5117 13.1441 26.4557 13.0628 26.3854 12.9949C26.315 12.9271 26.2316 12.8742 26.1403 12.8393C26.049 12.8044 25.9516 12.7883 25.854 12.792H22.369C22.2985 12.014 21.9725 11.2812 21.4417 10.7081C20.9109 10.135 20.2053 9.75377 19.435 9.62396V7.87496C19.4386 7.77729 19.4225 7.67988 19.3876 7.58858C19.3527 7.49727 19.2998 7.41394 19.232 7.34355C19.1642 7.27317 19.0828 7.21719 18.9929 7.17895C18.9029 7.14071 18.8062 7.121 18.7085 7.121C18.6107 7.121 18.514 7.14071 18.424 7.17895C18.3341 7.21719 18.2528 7.27317 18.1849 7.34355C18.1171 7.41394 18.0642 7.49727 18.0293 7.58858C17.9944 7.67988 17.9783 7.77729 17.982 7.87496V9.57496H16.34V5.75396C16.3436 5.65629 16.3275 5.55888 16.2926 5.46758C16.2577 5.37627 16.2048 5.29294 16.137 5.22255C16.0691 5.15217 15.9878 5.09619 15.8979 5.05795C15.8079 5.01971 15.7112 5 15.6135 5C15.5157 5 15.419 5.01971 15.329 5.05795C15.2391 5.09619 15.1578 5.15217 15.0899 5.22255C15.0221 5.29294 14.9692 5.37627 14.9343 5.46758C14.8994 5.55888 14.8833 5.65629 14.887 5.75396V9.57396H13.244V7.87396C13.237 7.68594 13.1574 7.50795 13.0219 7.37741C12.8864 7.24686 12.7056 7.17392 12.5175 7.17392C12.3293 7.17392 12.1485 7.24686 12.013 7.37741C11.8775 7.50795 11.7979 7.68594 11.791 7.87396V9.62396C11.0207 9.75377 10.315 10.135 9.78425 10.7081C9.25346 11.2812 8.92739 12.014 8.85696 12.792H4.75396C4.65628 12.7883 4.55888 12.8044 4.46758 12.8393C4.37627 12.8742 4.29294 12.9271 4.22255 12.9949C4.15217 13.0628 4.09619 13.1441 4.05795 13.234C4.01971 13.324 4 13.4207 4 13.5185C4 13.6162 4.01971 13.7129 4.05795 13.8029C4.09619 13.8928 4.15217 13.9741 4.22255 14.042C4.29294 14.1098 4.37627 14.1627 4.46758 14.1976C4.55888 14.2325 4.65628 14.2486 4.75396 14.245H8.84396V15.887H7.18396C7.08629 15.8833 6.98888 15.8994 6.89758 15.9343C6.80627 15.9692 6.72294 16.0221 6.65255 16.0899C6.58217 16.1578 6.52619 16.2391 6.48795 16.329C6.44971 16.419 6.43 16.5157 6.43 16.6135C6.43 16.7112 6.44971 16.8079 6.48795 16.8979C6.52619 16.9878 6.58217 17.0691 6.65255 17.137C6.72294 17.2048 6.80627 17.2577 6.89758 17.2926C6.98888 17.3275 7.08629 17.3436 7.18396 17.34H8.84396V18.982H5.68096C5.58328 18.9783 5.48588 18.9944 5.39458 19.0293C5.30327 19.0642 5.21994 19.1171 5.14955 19.1849C5.07917 19.2528 5.02319 19.3341 4.98495 19.424C4.94671 19.514 4.927 19.6107 4.927 19.7085C4.927 19.8062 4.94671 19.9029 4.98495 19.9929C5.02319 20.0828 5.07917 20.1642 5.14955 20.232C5.21994 20.2998 5.30327 20.3527 5.39458 20.3876C5.48588 20.4225 5.58328 20.4386 5.68096 20.435H8.85696C8.92739 21.2129 9.25346 21.9457 9.78425 22.5188C10.315 23.0919 11.0207 23.4732 11.791 23.603V24.733C11.7873 24.8306 11.8034 24.928 11.8383 25.0193C11.8732 25.1106 11.9261 25.194 11.9939 25.2644C12.0618 25.3347 12.1431 25.3907 12.233 25.429C12.323 25.4672 12.4197 25.4869 12.5175 25.4869C12.6152 25.4869 12.7119 25.4672 12.8019 25.429C12.8918 25.3907 12.9731 25.3347 13.041 25.2644C13.1088 25.194 13.1617 25.1106 13.1966 25.0193C13.2315 24.928 13.2476 24.8306 13.244 24.733V23.652H14.886V26.943C14.8929 27.131 14.9725 27.309 15.108 27.4395C15.2435 27.5701 15.4243 27.643 15.6125 27.643C15.8006 27.643 15.9814 27.5701 16.1169 27.4395C16.2524 27.309 16.332 27.131 16.339 26.943V23.652H17.981V25.352C17.9773 25.4496 17.9934 25.547 18.0283 25.6383C18.0632 25.7296 18.1161 25.813 18.1839 25.8834C18.2518 25.9537 18.3331 26.0097 18.423 26.048C18.513 26.0862 18.6097 26.1059 18.7075 26.1059C18.8052 26.1059 18.9019 26.0862 18.9919 26.048C19.0818 26.0097 19.1631 25.9537 19.231 25.8834C19.2988 25.813 19.3517 25.7296 19.3866 25.6383C19.4215 25.547 19.4376 25.4496 19.434 25.352V23.604C20.2043 23.4741 20.9099 23.0929 21.4407 22.5198C21.9715 21.9467 22.2975 21.2139 22.368 20.436H27.179C27.2766 20.4396 27.374 20.4235 27.4653 20.3886C27.5566 20.3537 27.64 20.3008 27.7104 20.233C27.7807 20.1651 27.8367 20.0838 27.875 19.9939C27.9132 19.9039 27.9329 19.8072 27.9329 19.7095C27.9329 19.6117 27.9132 19.515 27.875 19.425C27.8367 19.3351 27.7807 19.2538 27.7104 19.1859C27.64 19.1181 27.5566 19.0652 27.4653 19.0303C27.374 18.9954 27.2766 18.9793 27.179 18.983H22.384V17.341H24.043V17.34ZM21.223 20.122C21.2224 20.7504 20.9726 21.3529 20.5282 21.7972C20.0839 22.2416 19.4814 22.4914 18.853 22.492H12.373C11.7446 22.4914 11.142 22.2416 10.6977 21.7972C10.2534 21.3529 10.0035 20.7504 10.003 20.122V13.104C10.0035 12.4756 10.2534 11.873 10.6977 11.4287C11.142 10.9844 11.7446 10.7345 12.373 10.734H18.853C19.4814 10.7345 20.0839 10.9844 20.5282 11.4287C20.9726 11.873 21.2224 12.4756 21.223 13.104V20.121V20.122Z" fill="white"/>
<path d="M13.6346 12.0011C13.354 11.9966 13.0733 12.0062 12.7936 12.0301C12.3516 12.0801 12.0266 12.4801 12.0126 12.9141C11.9906 13.8981 12.0086 14.8841 12.0026 15.8681C12.0166 16.3701 11.9686 16.8781 12.0426 17.3751C12.1136 17.8191 12.5476 18.1051 12.9786 18.1041C14.3186 18.1131 15.6586 18.1071 16.9986 18.1081V18.6631H12.6836L12.1286 20.3281H16.4226C16.9246 20.3141 17.4316 20.3621 17.9296 20.2891C18.3736 20.2181 18.6586 19.7841 18.6576 19.3531C18.6676 17.6001 18.6596 15.8471 18.6626 14.0931C18.6466 13.6231 18.7036 13.1441 18.6086 12.6801C18.5076 12.2071 18.0006 11.9741 17.5526 12.0031H14.4766C14.1966 12.0081 13.9146 12.0021 13.6336 12.0001L13.6346 12.0011ZM13.6676 13.6681H16.9976V16.4431H13.6676V13.6681V13.6681Z" fill="white"/>
</g>
<defs>
<clipPath id="clip0_0_827">
<rect width="32" height="32" fill="white"/>
</clipPath>
</defs>
</svg>
