<svg width="32" height="32" viewBox="0 0 32 32" fill="none" xmlns="http://www.w3.org/2000/svg">
<g clip-path="url(#clip0_0_1662)">
<path d="M16 32C24.8366 32 32 24.8366 32 16C32 7.16344 24.8366 0 16 0C7.16344 0 0 7.16344 0 16C0 24.8366 7.16344 32 16 32Z" fill="#005396"/>
<path d="M12.3062 4.57825C13.3453 4.24357 14.4254 4.0528 15.5162 4.01125C17.0132 3.94325 18.5182 4.18625 19.9332 4.66925C22.2404 5.48357 24.2444 6.98182 25.6782 8.96425C26.0082 9.40425 26.2862 9.87725 26.5542 10.3572C26.8652 10.9652 27.1462 11.5912 27.3582 12.2402C27.6382 13.1312 27.8482 14.0542 27.9132 14.9892C27.9472 15.1912 27.9252 15.3972 27.9532 15.5992C27.9632 15.8522 27.9592 16.1052 27.9532 16.3602C27.9252 16.5632 27.9472 16.7692 27.9132 16.9712C27.8532 17.8132 27.6792 18.6452 27.4392 19.4552C27.237 20.1243 26.976 20.7742 26.6592 21.3972C25.4797 23.7136 23.5816 25.5857 21.2492 26.7332C20.5988 27.0576 19.9178 27.3165 19.2162 27.5062C18.0412 27.8432 16.8162 27.9862 15.5982 27.9522C15.3952 27.9242 15.1862 27.9462 14.9872 27.9122C14.0742 27.8492 13.1762 27.6502 12.3032 27.3782C10.5523 26.8099 8.95512 25.8474 7.63459 24.5649C6.31406 23.2823 5.3054 21.7139 4.68625 19.9802C4.29625 18.8452 4.04625 17.6582 4.01625 16.4552C3.97525 15.8782 4.01925 15.2982 4.06625 14.7222C4.15325 13.8712 4.34625 13.0292 4.60825 12.2162C5.40424 9.83153 6.92677 7.75581 8.96225 6.28025C9.40225 5.95025 9.87525 5.67025 10.3552 5.40425C10.9804 5.07291 11.6332 4.79654 12.3062 4.57825V4.57825ZM14.6162 8.90825V11.7102C14.6102 11.7602 14.6562 11.7882 14.6812 11.8222C15.1112 12.2742 15.5452 12.7222 15.9752 13.1752C15.9721 11.7529 15.9721 10.3306 15.9752 8.90825C15.5232 8.90825 15.0682 8.90525 14.6152 8.90825H14.6162ZM8.70625 10.3582C8.80925 10.4262 8.88425 10.5252 8.97125 10.6102C9.89725 11.5452 10.8262 12.4772 11.7482 13.4182C12.5932 14.2722 13.4412 15.1232 14.2822 15.9772C13.2632 17.0212 12.2252 18.0472 11.2092 19.0912C10.3962 19.9112 9.58225 20.7312 8.77225 21.5502C8.75083 21.5677 8.72882 21.5843 8.70625 21.6002C9.90325 21.6002 11.1032 21.6032 12.3032 21.5942C13.5282 20.3122 14.7592 19.0342 15.9812 17.7502C17.2062 19.0312 18.4342 20.3122 19.6592 21.5942C20.8562 21.6032 22.0532 21.5972 23.2492 21.6002C23.0662 21.4532 22.9222 21.2702 22.7512 21.1102C21.8942 20.2442 21.0312 19.3772 20.1762 18.5082C19.3472 17.6632 18.5032 16.8312 17.6802 15.9802C17.8802 15.7802 18.0662 15.5722 18.2722 15.3752C19.8402 13.7952 21.4022 12.2092 22.9692 10.6282C23.0632 10.5382 23.1412 10.4322 23.2492 10.3582C22.0492 10.3582 20.8532 10.3542 19.6562 10.3602C18.4312 11.6412 17.2032 12.9202 15.9782 14.2002C14.7562 12.9162 13.5252 11.6382 12.3002 10.3602C11.1032 10.3572 9.90325 10.3572 8.70625 10.3572V10.3582ZM15.9842 18.7732C15.9842 20.2002 15.9872 21.6252 15.9812 23.0532C16.4362 23.0492 16.8912 23.0532 17.3432 23.0532V20.2472C17.3451 20.2322 17.3433 20.217 17.3379 20.2029C17.3325 20.1887 17.3237 20.1762 17.3122 20.1662C17.0822 19.9162 16.8382 19.6832 16.6112 19.4342C16.4052 19.2092 16.1842 19.0042 15.9842 18.7732V18.7732Z" fill="white"/>
</g>
<defs>
<clipPath id="clip0_0_1662">
<rect width="32" height="32" fill="white"/>
</clipPath>
</defs>
</svg>
