<svg width="32" height="32" viewBox="0 0 32 32" fill="none" xmlns="http://www.w3.org/2000/svg">
<g clip-path="url(#clip0_0_1654)">
<path d="M16 32C24.8366 32 32 24.8366 32 16C32 7.16344 24.8366 0 16 0C7.16344 0 0 7.16344 0 16C0 24.8366 7.16344 32 16 32Z" fill="#372D2C"/>
<path d="M10.399 18.075L10.5 18H10.466L10 18.43C10.1098 18.2876 10.2455 18.1671 10.4 18.075H10.399Z" fill="black"/>
<path d="M26.9502 13.3851C26.9008 13.3083 26.8239 13.2532 26.7352 13.2311C26.3897 13.1463 26.043 13.0662 25.6952 12.9911L25.7892 12.5271L25.8492 12.2351L25.8772 12.0871L25.9042 11.9271C25.9421 11.6898 25.9156 11.4466 25.8272 11.2231C25.7338 10.9848 25.5804 10.7747 25.3819 10.6131C25.1834 10.4516 24.9465 10.3441 24.6942 10.3011C24.6111 9.79699 24.4962 9.29867 24.3502 8.80908L24.3332 8.74908L21.8472 5.72908L21.7542 5.70208C21.6532 5.67508 19.4132 5.01308 16.3642 5.01208L16.3982 4.41008C16.6785 4.31785 16.9166 4.12839 17.0693 3.87594C17.2221 3.62349 17.2795 3.32472 17.2312 3.03362C17.1829 2.74253 17.032 2.47832 16.8059 2.28877C16.5798 2.09921 16.2933 1.99681 15.9982 2.00008C15.7037 1.99756 15.418 2.10029 15.1925 2.28977C14.967 2.47925 14.8166 2.74302 14.7683 3.03357C14.7201 3.32412 14.7772 3.62235 14.9293 3.87453C15.0815 4.12671 15.3187 4.31628 15.5982 4.40908L15.6332 5.01408C12.5712 5.01708 10.3192 5.67508 10.2232 5.70708L10.1302 5.73408L7.64422 8.75408L7.62822 8.81408C7.48222 9.30408 7.36722 9.80108 7.28422 10.3041H7.27622L7.10022 10.3481C6.77152 10.4482 6.4892 10.6621 6.30378 10.9514C6.11836 11.2407 6.04195 11.5866 6.08822 11.9271L6.11522 12.0861L6.14322 12.2341L6.20322 12.5261L6.29722 12.9921C5.95222 13.0681 5.60722 13.1461 5.26322 13.2301C5.17448 13.252 5.09753 13.3071 5.04822 13.3841C5.01374 13.4418 4.99711 13.5085 5.00041 13.5756C5.00371 13.6428 5.0268 13.7075 5.06678 13.7616C5.10675 13.8157 5.16182 13.8567 5.22507 13.8796C5.28831 13.9024 5.3569 13.9061 5.42222 13.8901C5.75822 13.8081 6.09422 13.7301 6.43122 13.6571L6.45622 13.7851C5.67087 16.276 5.8515 18.9712 6.96222 21.3351C8.47022 24.5531 11.9402 28.0231 16.0002 28.0231C20.0592 28.0231 23.5302 24.5531 25.0422 21.3301C26.1493 18.9641 26.326 16.2683 25.5372 13.7781L25.5612 13.6601C25.8992 13.7341 26.2372 13.8121 26.5742 13.8941C26.6395 13.9101 26.7081 13.9064 26.7714 13.8836C26.8346 13.8607 26.8897 13.8197 26.9297 13.7656C26.9696 13.7115 26.9927 13.6468 26.996 13.5796C26.9993 13.5125 26.9827 13.4458 26.9482 13.3881L26.9502 13.3851V13.3851ZM15.1122 3.24308C15.113 2.98556 15.2149 2.73865 15.3959 2.55553C15.577 2.37241 15.8227 2.26775 16.0802 2.26408C16.6202 2.26408 16.6202 4.21708 16.0802 4.22208C15.8227 4.21841 15.577 4.11374 15.3959 3.93062C15.2149 3.7475 15.113 3.50059 15.1122 3.24308V3.24308ZM15.7602 4.45308C15.8392 4.46808 15.9182 4.47608 15.9982 4.47608H16.0362L16.1122 6.57808C16.1614 6.64349 16.1852 6.72446 16.1793 6.80606C16.1734 6.88767 16.1382 6.96439 16.0802 7.02208C16.0485 7.05387 16.0107 7.07907 15.9692 7.09623C15.9277 7.11339 15.8832 7.12217 15.8382 7.12208C15.3322 7.12208 14.9252 6.96808 14.9252 6.78208C14.9252 6.61008 15.2672 6.46708 15.7152 6.44308L15.8382 6.44008H15.8722L15.7602 4.45308V4.45308ZM8.15622 9.29008L8.44722 9.18608L8.94222 9.02108L9.59222 8.82908C9.82822 8.75708 10.0922 8.69108 10.3672 8.61908L11.2412 8.42208C11.5442 8.36208 11.8572 8.29508 12.1812 8.24008C12.5062 8.18508 12.8312 8.14108 13.1612 8.08608C13.4912 8.03108 13.8212 8.00408 14.1452 7.96608C14.4702 7.92608 14.7892 7.91008 15.1022 7.88308C15.2672 7.86808 15.4362 7.86108 15.5972 7.85508H15.6142L15.9992 11.2821L16.3892 7.82608H16.8072C17.0552 7.82608 17.2862 7.81508 17.4892 7.82608L18.0172 7.84808L18.4792 7.86408L18.0232 7.82008L17.4952 7.77008C17.2912 7.74908 17.0652 7.74308 16.8132 7.72708C16.544 7.70715 16.2742 7.69615 16.0042 7.69408H16.0002C15.7162 7.69408 15.4102 7.67708 15.0982 7.68808C14.7872 7.69908 14.4602 7.69408 14.1302 7.71608L13.1292 7.78208C12.7932 7.80908 12.4582 7.83708 12.1282 7.88108C11.7982 7.92508 11.4732 7.97408 11.1652 8.01308C10.8682 8.05008 10.5752 8.10708 10.2992 8.15608L9.80722 8.11708L10.7862 6.78108L15.6752 5.71508L15.7052 6.24508C15.0452 6.29708 14.5502 6.51608 14.5502 6.77908C14.5502 7.07908 15.2002 7.32308 16.0022 7.32308C16.8042 7.32308 17.4542 7.08008 17.4542 6.77908C17.4542 6.51608 16.9592 6.29708 16.2992 6.24508L16.3292 5.71708L21.1972 6.78008L22.1772 8.11608L20.8152 8.22608L20.7902 8.22308L20.8052 8.22708H20.7852L23.3922 9.51908C23.3922 9.51908 24.5162 13.1291 22.9672 16.1971C22.7904 16.5438 22.5847 16.875 22.3522 17.1871C22.3522 17.1871 19.9462 18.2981 16.2472 18.4941L16.0002 17.4771C16.3027 17.4872 16.604 17.4347 16.8852 17.3231L17.6552 17.0701C19.2192 16.5881 20.7852 16.1131 22.3522 15.6461L22.5062 15.6021L22.5562 15.4591L22.6062 15.3161L22.6442 15.1781L22.7152 14.9081C22.8412 14.3781 22.9312 13.8401 22.9852 13.2971L23.0292 12.7471L23.0392 12.4721V12.1921L23.0452 11.9061L23.0182 11.6201L22.9742 11.3341C22.9554 11.2411 22.9314 11.1493 22.9022 11.0591L22.8582 10.9161L22.8082 10.7451L22.7732 10.7401L22.7592 10.6961L22.7092 10.5251L22.5122 10.4981C20.8885 10.3087 19.2566 10.1966 17.6222 10.1621L17.4522 10.1571L17.3802 10.3001L16.4842 12.0561L16.0002 12.0641L15.4702 12.0741L14.5102 10.3541L14.4602 10.2611L14.3602 10.2671C13.5472 10.3121 12.7352 10.3781 11.9242 10.4651C11.1162 10.5508 10.3111 10.6625 9.51022 10.8001H9.52622H9.51622L9.48222 10.9101C9.47328 10.9385 9.46528 10.9672 9.45822 10.9961C9.47422 10.9311 9.49322 10.8671 9.51322 10.8001C9.48161 10.8885 9.44489 10.975 9.40322 11.0591C9.38522 11.1291 9.36522 11.1981 9.35222 11.2681L9.34222 11.2951L9.28222 11.5651L9.23822 11.8341L9.21022 12.1091C9.20022 12.2911 9.19422 12.4781 9.20022 12.6591L9.22122 13.2091C9.25822 13.7591 9.33122 14.3071 9.44122 14.8481L9.50122 15.1181L9.57922 15.3931L9.60122 15.4591L9.67822 15.4861L12.7912 16.5091C13.7072 16.8071 14.6222 17.1141 15.5352 17.4281C15.6132 17.4441 15.6922 17.4551 15.7722 17.4611L15.8272 17.4661H15.8432L15.8712 17.4721L15.9862 17.4771H16.0032L15.7492 18.5121C14.8414 18.5386 13.9328 18.5059 13.0292 18.4141C10.8072 18.1161 9.34522 17.5841 8.96522 17.4331C7.73201 14.9024 7.44539 12.0138 8.15722 9.29008H8.15622ZM19.9562 10.8201L17.0152 16.3651L16.8182 16.7351L16.6752 16.7841C16.504 16.846 16.3242 16.8811 16.1422 16.8881C15.8633 16.9161 15.5816 16.8823 15.3172 16.7891L15.2172 16.7511L15.3432 16.5161L18.4232 10.7161L18.5622 10.4531C19.0622 10.4751 19.5742 10.5141 20.0962 10.5581L19.9562 10.8201V10.8201ZM20.8602 10.9101L21.0042 10.6381L21.4272 10.6771L21.8292 10.7211L21.8792 10.7261H21.9112L21.7632 11.0061L19.3232 15.6041L19.1232 15.9811L17.9792 16.3441L18.1762 15.9711L20.8602 10.9101V10.9101ZM6.51022 12.1801L6.49422 12.0321L6.48322 11.8891C6.46809 11.6631 6.53135 11.4389 6.66233 11.2542C6.79331 11.0694 6.984 10.9356 7.20222 10.8751C7.00986 12.5111 7.15276 14.1691 7.62222 15.7481L7.57722 15.7341C7.4148 15.6767 7.26728 15.5836 7.14547 15.4618C7.02366 15.34 6.93064 15.1925 6.87322 15.0301C6.82953 14.8924 6.80201 14.7501 6.79122 14.6061L6.54322 12.4801L6.51022 12.1801V12.1801ZM9.26422 23.6331L9.24922 23.6211L9.25622 23.6311C9.20045 23.616 9.14904 23.5879 9.10622 23.5491C8.48926 22.7839 7.96495 21.9484 7.54422 21.0601C6.68048 19.2173 6.41474 17.1504 6.78422 15.1491L6.78822 15.1591C6.87386 15.3223 6.99443 15.4646 7.14135 15.5759C7.28827 15.6872 7.45791 15.7648 7.63822 15.8031C7.85122 16.5051 8.12722 17.1861 8.46322 17.8381L8.51322 17.9261L8.60622 17.9701C8.95822 18.1141 9.31722 18.2401 9.68222 18.3491H9.69122L9.66522 18.3571C9.58439 18.3843 9.50466 18.4146 9.42622 18.4481C9.36025 18.4756 9.2949 18.5046 9.23022 18.5351L8.80622 18.7381L8.66922 18.8041L8.65222 18.9421C8.53273 19.9881 8.63703 21.0475 8.95822 22.0501C9.11322 22.5491 9.33122 23.0261 9.60722 23.4701L9.61222 23.4801L9.62922 23.5241C9.65322 23.6351 9.43922 23.6801 9.26422 23.6341V23.6331ZM13.0442 25.8451C12.27 25.5619 11.5623 25.1224 10.9652 24.5541C10.6247 24.2212 10.3341 23.841 10.1022 23.4251C9.87191 23.0088 9.69453 22.5654 9.57422 22.1051C9.45622 21.644 9.38421 21.1724 9.35922 20.6971C9.32939 20.2802 9.34246 19.8613 9.39822 19.4471L9.65622 19.3441C9.92122 19.2571 10.1892 19.1801 10.4592 19.1141L10.8722 19.0311C11.2292 18.9711 11.5882 18.9281 11.9502 18.9041H11.9932L12.0092 18.9061C11.7002 19.7483 11.5444 20.639 11.5492 21.5361C11.5492 23.3261 12.1392 24.8491 13.0762 25.8641L13.0442 25.8451V25.8451ZM17.3442 24.7021C16.9302 24.9364 16.4619 25.0578 15.9862 25.0541C15.4906 25.0564 15.0037 24.9233 14.5782 24.6691C14.3762 24.4504 14.204 24.206 14.0662 23.9421C14.2993 24.2125 14.587 24.4307 14.9103 24.5824C15.2335 24.734 15.5852 24.8157 15.9422 24.822C16.2992 24.8283 16.6536 24.7592 16.982 24.6191C17.3105 24.479 17.6057 24.2711 17.8482 24.0091C17.7113 24.2615 17.5419 24.4948 17.3442 24.7031V24.7021V24.7021ZM15.9862 24.2841C15.7287 24.2853 15.4736 24.2357 15.2352 24.1382C14.9969 24.0408 14.7801 23.8973 14.5973 23.716C14.4144 23.5347 14.2691 23.3192 14.1696 23.0818C14.07 22.8443 14.0183 22.5896 14.0172 22.3321V22.3251C14.0168 21.9378 14.1312 21.559 14.3459 21.2367C14.5606 20.9143 14.866 20.6628 15.2235 20.5138C15.581 20.3649 15.9746 20.3252 16.3547 20.3998C16.7348 20.4744 17.0842 20.6599 17.3589 20.9329C17.6336 21.206 17.8213 21.5543 17.8982 21.9339C17.9751 22.3135 17.9378 22.7073 17.7911 23.0658C17.6443 23.4242 17.3947 23.7311 17.0736 23.9478C16.7526 24.1644 16.3745 24.2811 15.9872 24.2831V24.2841H15.9862ZM18.4742 21.9451C18.3735 21.3501 18.0629 20.8109 17.5987 20.4253C17.1345 20.0398 16.5475 19.8333 15.9441 19.8435C15.3408 19.8537 14.761 20.0797 14.3101 20.4807C13.8591 20.8817 13.5668 21.431 13.4862 22.0291C13.4564 21.8025 13.4381 21.5745 13.4312 21.3461C13.6325 20.8327 13.9845 20.3923 14.4409 20.083C14.8974 19.7736 15.4368 19.6098 15.9882 19.6131H15.9982C16.5388 19.6118 17.0675 19.7711 17.5174 20.0707C17.9673 20.3703 18.318 20.7968 18.5252 21.2961C18.5184 21.5134 18.5014 21.7303 18.4742 21.9461V21.9451ZM18.9062 25.8761H18.9162L18.8962 25.8831C19.8462 24.8671 20.4462 23.3341 20.4462 21.5301C20.4516 20.6328 20.2954 19.742 19.9852 18.9001H19.9992C21.4142 19.1041 22.1512 19.8301 22.1512 19.8301C22.1512 19.8301 22.3012 23.9761 18.9082 25.8761H18.9062V25.8761ZM25.3692 16.9361V17.1501C25.3692 17.1991 25.3652 17.2471 25.3642 17.2951C25.3608 17.4045 25.3548 17.5139 25.3462 17.6231C25.3462 17.6571 25.3402 17.6921 25.3372 17.7261C25.3312 17.7971 25.3252 17.8691 25.3172 17.9391C25.3172 17.9551 25.3142 17.9711 25.3122 17.9871C25.3046 18.0558 25.2963 18.1245 25.2872 18.1931V18.2031L25.2592 18.4011V18.4081C25.1007 19.4397 24.7772 20.4392 24.3012 21.3681L24.2672 21.4341C24.2322 21.5011 24.1972 21.5691 24.1602 21.6361C23.7975 22.3126 23.3723 22.9537 22.8902 23.5511C22.8496 23.5898 22.8002 23.6179 22.7462 23.6331L22.7522 23.6231L22.7372 23.6351C22.5642 23.6851 22.3432 23.6421 22.3672 23.5251L22.3842 23.4811L22.3942 23.4711C22.6672 23.0251 22.8842 22.5491 23.0392 22.0511C23.355 21.0494 23.4578 19.9928 23.3412 18.9491L23.3252 18.8121L23.1872 18.7461C23.0442 18.6741 22.9072 18.6031 22.7642 18.5421L22.3292 18.3661L22.2902 18.3521L22.3002 18.3491C22.6632 18.2421 23.0202 18.1141 23.3692 17.9681L23.4622 17.9241L23.5122 17.8361C23.8472 17.1841 24.1222 16.5041 24.3342 15.8041C24.7092 15.7271 25.0292 15.4871 25.2072 15.1491C25.3122 15.7111 25.3672 16.2821 25.3722 16.8541C25.3704 16.8814 25.3694 16.9087 25.3692 16.9361V16.9361Z" fill="white"/>
<path d="M9.192 11.28L9.423 11H9.5H9.385C9.269 11.17 9.127 11.333 9 11.5C9.073 11.426 9.13 11.357 9.192 11.28Z" fill="black"/>
<path d="M16.4856 6C16.9696 6.127 17.2886 6.358 17.2886 6.627C17.2886 6.897 16.9646 7.127 16.4856 7.254C17.1456 7.194 17.6406 6.935 17.6406 6.627C17.6406 6.319 17.1456 6.058 16.4856 6ZM14.8946 8.472C14.9613 8.47201 15.0253 8.4458 15.0728 8.39902C15.1204 8.35225 15.1476 8.28867 15.1486 8.222C15.1487 8.18853 15.142 8.15538 15.1292 8.12448C15.1163 8.09359 15.0974 8.06555 15.0736 8.042C15.05 8.0187 15.0218 8.00047 14.9908 7.98843C14.9599 7.9764 14.9268 7.9708 14.8936 7.972C14.828 7.97279 14.7654 7.99954 14.7195 8.0464C14.6736 8.09326 14.6481 8.1564 14.6486 8.222C14.6486 8.36 14.7586 8.472 14.8946 8.472V8.472ZM8.24963 9.314C8.20001 9.31447 8.15164 9.32957 8.11057 9.35742C8.06951 9.38526 8.03757 9.42461 8.01878 9.47053C7.99998 9.51645 7.99516 9.5669 8.00492 9.61555C8.01468 9.66419 8.03858 9.70888 8.07363 9.744C8.12063 9.791 8.18363 9.816 8.24963 9.814C8.29924 9.81353 8.34762 9.79843 8.38868 9.77058C8.42975 9.74274 8.46168 9.70339 8.48048 9.65747C8.49927 9.61155 8.5041 9.5611 8.49434 9.51245C8.48458 9.46381 8.46068 9.41912 8.42563 9.384C8.40268 9.36086 8.37521 9.3427 8.34493 9.33065C8.31464 9.31861 8.2822 9.31294 8.24963 9.314V9.314ZM8.94263 17.387C8.99224 17.3865 9.04062 17.3714 9.08169 17.3436C9.12275 17.3157 9.15468 17.2764 9.17348 17.2305C9.19227 17.1845 9.1971 17.1341 9.18734 17.0855C9.17758 17.0368 9.15368 16.9921 9.11863 16.957C9.09568 16.9339 9.06821 16.9157 9.03793 16.9037C9.00764 16.8916 8.9752 16.8859 8.94263 16.887C8.87649 16.8875 8.8132 16.914 8.76643 16.9608C8.71966 17.0076 8.69315 17.0709 8.69263 17.137C8.69763 17.277 8.80763 17.387 8.94263 17.387ZM15.0146 18.344C15.0642 18.3435 15.1126 18.3284 15.1537 18.3006C15.1948 18.2727 15.2267 18.2334 15.2455 18.1875C15.2643 18.1415 15.2691 18.0911 15.2593 18.0425C15.2496 17.9938 15.2257 17.9491 15.1906 17.914C15.1677 17.8909 15.1402 17.8727 15.1099 17.8607C15.0796 17.8486 15.0472 17.8429 15.0146 17.844C14.9479 17.8453 14.8843 17.8728 14.8375 17.9204C14.7908 17.9681 14.7646 18.0322 14.7646 18.099C14.769 18.1634 14.7969 18.224 14.843 18.2691C14.8891 18.3143 14.9502 18.341 15.0146 18.344V18.344ZM16.3796 8.477C16.4463 8.47701 16.5103 8.4508 16.5578 8.40403C16.6054 8.35725 16.6326 8.29367 16.6336 8.227C16.6337 8.19353 16.627 8.16038 16.6142 8.12948C16.6013 8.09859 16.5824 8.07055 16.5586 8.047C16.535 8.0237 16.5068 8.00547 16.4758 7.99343C16.4449 7.9814 16.4118 7.9758 16.3786 7.977C16.313 7.97779 16.2504 8.00454 16.2045 8.0514C16.1586 8.09826 16.1331 8.1614 16.1336 8.227C16.1336 8.366 16.2436 8.477 16.3796 8.477ZM16.2576 17.85C16.1916 17.851 16.1287 17.8777 16.082 17.9244C16.0353 17.971 16.0087 18.034 16.0076 18.1C16.0176 18.237 16.1246 18.345 16.2576 18.35C16.3072 18.3495 16.3556 18.3344 16.3967 18.3066C16.4378 18.2787 16.4697 18.2394 16.4885 18.1935C16.5073 18.1475 16.5121 18.0971 16.5023 18.0485C16.4926 17.9998 16.4687 17.9551 16.4336 17.92C16.4107 17.8969 16.3832 17.8787 16.3529 17.8667C16.3226 17.8546 16.2902 17.8489 16.2576 17.85V17.85ZM9.48063 19.533C9.43706 19.5298 9.39348 19.5391 9.35491 19.5596C9.31635 19.5801 9.28436 19.6111 9.26263 19.649C9.23954 19.6879 9.22686 19.732 9.22581 19.7772C9.22476 19.8224 9.23537 19.8671 9.25663 19.907C9.30063 19.987 9.38263 20.036 9.47063 20.032H9.48063C9.54606 20.0307 9.60837 20.0038 9.65418 19.957C9.69999 19.9103 9.72564 19.8474 9.72563 19.782C9.72633 19.7184 9.70272 19.6568 9.65963 19.61C9.63664 19.5853 9.60876 19.5657 9.57776 19.5525C9.54677 19.5392 9.51334 19.5326 9.47963 19.533H9.48063ZM10.9896 19.082C10.9571 19.0823 10.9249 19.0889 10.8949 19.1016C10.8649 19.1143 10.8377 19.1328 10.8149 19.156C10.792 19.1793 10.774 19.2068 10.7617 19.2369C10.7495 19.2671 10.7434 19.2994 10.7436 19.332C10.7436 19.47 10.8536 19.582 10.9896 19.582C11.0563 19.582 11.1203 19.5558 11.1678 19.509C11.2154 19.4623 11.2426 19.3987 11.2436 19.332C11.2437 19.2985 11.237 19.2654 11.2242 19.2345C11.2113 19.2036 11.1924 19.1755 11.1686 19.152C11.145 19.1287 11.1168 19.1105 11.0859 19.0984C11.0549 19.0864 11.0218 19.0808 10.9886 19.082H10.9896ZM20.2856 19.082C20.2528 19.0832 20.2205 19.0909 20.1907 19.1047C20.1608 19.1184 20.134 19.1378 20.1116 19.1619C20.0893 19.186 20.0719 19.2143 20.0605 19.2451C20.0491 19.2759 20.0439 19.3087 20.0451 19.3415C20.0464 19.3743 20.0541 19.4066 20.0678 19.4364C20.0815 19.4663 20.101 19.4932 20.1251 19.5155C20.1492 19.5378 20.1774 19.5552 20.2082 19.5666C20.239 19.578 20.2718 19.5832 20.3046 19.582C20.3709 19.5793 20.4335 19.5505 20.4785 19.5017C20.5235 19.4529 20.5473 19.3883 20.5446 19.322C20.542 19.2557 20.5131 19.1932 20.4643 19.1482C20.4156 19.1031 20.3509 19.0793 20.2846 19.082H20.2856Z" fill="white"/>
</g>
<defs>
<clipPath id="clip0_0_1654">
<rect width="32" height="32" fill="white"/>
</clipPath>
</defs>
</svg>
