<svg width="32" height="32" viewBox="0 0 32 32" fill="none" xmlns="http://www.w3.org/2000/svg">
<g clip-path="url(#clip0_0_1650)">
<path d="M16 32C24.8366 32 32 24.8366 32 16C32 7.16344 24.8366 0 16 0C7.16344 0 0 7.16344 0 16C0 24.8366 7.16344 32 16 32Z" fill="#00A6C4"/>
<path d="M24.2771 10.5L24.4771 10.831C25.4744 12.5057 26.0006 14.4188 26.0001 16.368C25.9821 22.236 21.2851 27 15.5001 27H15.4821C9.69705 27 4.98205 22.199 5.00005 16.331C5.00005 14.363 5.54405 12.45 6.54105 10.794L6.72305 10.482L7.68405 11.457C7.49357 11.7354 7.34121 12.0381 7.23105 12.357C6.86464 13.3723 6.91446 14.4913 7.36965 15.4701C7.82484 16.4489 8.64849 17.208 9.66105 17.582C10.2563 17.794 10.8932 17.8628 11.52 17.7829C12.1468 17.703 12.746 17.4766 13.2691 17.122L15.5001 19.403L18.0571 16.809C18.2931 16.975 18.5651 17.104 18.8551 17.214C20.9051 17.95 23.1531 16.864 23.8781 14.804C24.3131 13.59 24.1141 12.321 23.4791 11.309L24.2771 10.5V10.5ZM8.86305 12.652L11.8731 15.687C11.5101 15.982 11.0571 16.147 10.5671 16.147C9.38905 16.147 8.42705 15.172 8.42705 13.977C8.42705 13.48 8.59105 13.02 8.86305 12.652ZM19.3631 15.503L22.3371 12.487C22.5731 12.837 22.6991 13.259 22.6991 13.701C22.6991 14.896 21.7391 15.871 20.5591 15.871C20.1061 15.871 19.7071 15.742 19.3631 15.503V15.503ZM15.5361 17.784L6.86805 8.954L7.21205 8.587C9.35205 6.287 12.2721 5 15.4101 5H15.4281C18.6021 5 21.6481 6.38 23.7701 8.77L24.0971 9.139L15.5371 17.784H15.5361ZM8.28205 8.954L15.5361 16.331L22.7001 9.102C20.7781 7.152 18.1671 6.03 15.4471 6.03H15.4281C12.7261 6.03 10.2061 7.06 8.28305 8.955L8.28205 8.954Z" fill="white"/>
</g>
<defs>
<clipPath id="clip0_0_1650">
<rect width="32" height="32" fill="white"/>
</clipPath>
</defs>
</svg>
