<svg width="32" height="32" viewBox="0 0 32 32" fill="none" xmlns="http://www.w3.org/2000/svg">
<g clip-path="url(#clip0_0_1236)">
<path d="M16 32C24.8366 32 32 24.8366 32 16C32 7.16344 24.8366 0 16 0C7.16344 0 0 7.16344 0 16C0 24.8366 7.16344 32 16 32Z" fill="#001D57"/>
<path d="M19.9991 5L21.2021 6.204L18.9251 8.544C19.4051 9.274 19.6631 10.135 19.6631 11.023C19.6712 12.1914 19.2193 13.3161 18.4051 14.154C17.8105 14.782 17.036 15.2103 16.1881 15.38V17.419C17.0318 17.5933 17.8033 18.0185 18.4011 18.639C19.2177 19.4777 19.6711 20.6044 19.6631 21.775C19.6709 22.9453 19.2175 24.0715 18.4011 24.91C18.0031 25.3222 17.5262 25.65 16.9987 25.8737C16.4712 26.0974 15.904 26.2125 15.3311 26.212C14.7579 26.2137 14.1903 26.0993 13.6627 25.8755C13.135 25.6517 12.6582 25.3233 12.2611 24.91C11.4471 24.07 10.9944 22.9447 11.0001 21.775C11.0001 20.595 11.4481 19.476 12.2581 18.643C12.8527 18.0154 13.6272 17.5874 14.4751 17.418V15.378C13.6313 15.2037 12.8599 14.7784 12.2621 14.158C11.4475 13.3179 10.9944 12.1921 11.0001 11.022C11.0001 9.842 11.4481 8.723 12.2621 7.887C12.6599 7.47458 13.1368 7.14663 13.6643 6.92274C14.1918 6.69886 14.759 6.58365 15.3321 6.584C16.1921 6.584 17.0191 6.846 17.7271 7.333L20.0001 5H19.9991ZM15.3321 19.057C14.9849 19.0542 14.6408 19.1229 14.3214 19.2588C14.0019 19.3947 13.7138 19.595 13.4751 19.847C12.9746 20.3636 12.6964 21.0557 12.7001 21.775C12.7001 22.5 12.9751 23.177 13.4751 23.702C13.7156 23.9517 14.004 24.1504 14.3231 24.2861C14.6422 24.4218 14.9853 24.4919 15.3321 24.492C15.6791 24.4946 16.0229 24.4259 16.3422 24.29C16.6615 24.1541 16.9494 23.9539 17.1881 23.702C17.6883 23.1856 17.9664 22.4939 17.9631 21.775C17.9631 21.05 17.6881 20.373 17.1851 19.844C16.9466 19.5928 16.6591 19.3934 16.3403 19.258C16.0215 19.1226 15.6784 19.0542 15.3321 19.057V19.057ZM17.1851 12.967C17.6871 12.4499 17.9664 11.7567 17.9631 11.036C17.9676 10.6794 17.9015 10.3254 17.7685 9.99446C17.6354 9.66354 17.4382 9.36225 17.1881 9.108C16.9477 8.85832 16.6594 8.65968 16.3405 8.52394C16.0216 8.3882 15.6786 8.31816 15.3321 8.318C14.9849 8.31522 14.6408 8.38392 14.3214 8.51983C14.0019 8.65574 13.7138 8.85595 13.4751 9.108C12.9746 9.62464 12.6964 10.3167 12.7001 11.036C12.7001 11.761 12.9751 12.438 13.4751 12.963C13.7156 13.2127 14.004 13.4114 14.3231 13.5471C14.6422 13.6828 14.9853 13.7529 15.3321 13.753C16.0431 13.753 16.6991 13.477 17.1851 12.967V12.967Z" fill="white"/>
</g>
<defs>
<clipPath id="clip0_0_1236">
<rect width="32" height="32" fill="white"/>
</clipPath>
</defs>
</svg>
