<svg width="32" height="32" viewBox="0 0 32 32" fill="none" xmlns="http://www.w3.org/2000/svg">
<g clip-path="url(#clip0_0_3)">
<path d="M16 32C24.8366 32 32 24.8366 32 16C32 7.16344 24.8366 0 16 0C7.16344 0 0 7.16344 0 16C0 24.8366 7.16344 32 16 32Z" fill="#5411B3"/>
<path fill-rule="evenodd" clip-rule="evenodd" d="M16.553 5C17.083 5.319 17.609 5.645 18.143 5.956C20.678 7.426 23.213 8.894 25.751 10.358C25.918 10.454 25.992 10.561 25.992 10.766C25.987 14.258 25.988 17.75 26 21.242C26 21.47 25.896 21.565 25.73 21.661C22.713 23.407 19.698 25.156 16.683 26.905C16.637 26.932 16.596 26.968 16.553 27H16.443C15.533 26.464 14.623 25.923 13.71 25.392C11.556 24.141 9.40001 22.892 7.24201 21.649C7.05901 21.544 6.99901 21.424 7.00001 21.214C7.01001 17.75 7.01201 14.286 7.00501 10.821C7.00501 10.573 7.09001 10.448 7.29401 10.331C10.283 8.607 13.267 6.877 16.252 5.147C16.321 5.107 16.38 5.049 16.443 5H16.553V5ZM19.359 22.48C19.772 22.763 20.176 23.06 20.592 23.36C20.615 23.35 20.649 23.336 20.68 23.319C22.03 22.538 23.383 21.759 24.729 20.969C24.809 20.922 24.879 20.784 24.879 20.689C24.886 17.563 24.885 14.438 24.876 11.313C24.8715 11.2586 24.8552 11.2058 24.8282 11.1584C24.8013 11.1109 24.7644 11.0698 24.72 11.038C23.39 10.256 22.053 9.488 20.722 8.709C20.584 8.629 20.507 8.653 20.39 8.744C20.067 8.997 16.891 10.937 15.647 11.684C14.675 12.266 13.725 12.88 12.973 13.754C11.936 14.959 11.839 16.629 12.746 17.939C13.195 18.589 13.794 19.083 14.436 19.522C14.948 19.871 15.476 20.195 15.996 20.53C15.982 20.55 15.974 20.57 15.96 20.578C15.274 20.976 14.59 21.378 13.896 21.765C13.829 21.802 13.69 21.765 13.614 21.717C12.8767 21.2412 12.2004 20.677 11.6 20.037C9.87001 18.223 9.51801 15.25 10.78 13.081C11.3613 12.0804 12.1697 11.2305 13.14 10.6C14.4 9.776 17.91 7.693 18.375 7.408C18.335 7.356 18.324 7.328 18.303 7.315C17.751 6.993 17.203 6.665 16.643 6.358C16.561 6.313 16.412 6.33 16.323 6.376C16.015 6.535 15.72 6.718 15.421 6.893C15.157 7.047 14.894 7.203 14.591 7.382L16.029 8.286C15.294 8.72 14.599 9.136 13.896 9.539C13.84 9.571 13.72 9.546 13.659 9.504C13.3109 9.2697 12.9713 9.02288 12.641 8.764C12.496 8.649 12.4 8.638 12.238 8.733C10.9302 9.49777 9.61887 10.2564 8.30401 11.009C8.15901 11.092 8.11201 11.189 8.11201 11.357C8.11701 14.455 8.11601 17.553 8.11101 20.65C8.11101 20.816 8.15401 20.914 8.30301 21C9.60901 21.748 10.911 22.504 12.21 23.265C12.354 23.35 12.45 23.346 12.595 23.249C13.527 22.626 17.791 19.953 18.976 19.216C19.177 19.091 19.346 18.912 19.528 18.758L19.498 18.688H15.072C15.522 17.906 15.942 17.168 16.377 16.439C16.417 16.373 16.564 16.345 16.662 16.345C18.669 16.34 20.677 16.342 22.684 16.342C22.764 16.342 22.844 16.351 22.941 16.356C22.946 16.451 22.968 16.536 22.95 16.61C22.818 17.159 22.73 17.726 22.53 18.25C22.056 19.496 21.177 20.454 20.106 21.192C18.936 21.997 15.211 24.192 14.579 24.569C14.609 24.622 14.613 24.644 14.626 24.652C15.011 24.879 15.424 25.069 15.775 25.341C16.28 25.731 16.72 25.729 17.225 25.341C17.589 25.062 18.015 24.865 18.456 24.606L16.992 23.691C17.032 23.656 17.055 23.628 17.084 23.611C17.754 23.222 18.424 22.831 19.1 22.451C19.164 22.416 19.294 22.435 19.359 22.48ZM22.253 13.143C22.598 13.755 22.855 14.542 22.893 15.149C22.215 15.149 21.561 15.153 20.906 15.144C20.846 15.143 20.752 15.074 20.733 15.016C20.413 14.028 19.73 13.326 18.923 12.736C18.35 12.317 17.74 11.948 17.147 11.556C17.097 11.524 17.048 11.489 16.967 11.433C17.102 11.352 17.207 11.287 17.315 11.224C17.867 10.904 18.415 10.577 18.975 10.269C19.075 10.213 19.255 10.179 19.336 10.232C20.506 11.001 21.551 11.899 22.253 13.143Z" fill="white"/>
</g>
<defs>
<clipPath id="clip0_0_3">
<rect width="32" height="32" fill="white"/>
</clipPath>
</defs>
</svg>
