<svg width="32" height="32" viewBox="0 0 32 32" fill="none" xmlns="http://www.w3.org/2000/svg">
<g clip-path="url(#clip0_0_419)">
<path d="M16 32C24.8366 32 32 24.8366 32 16C32 7.16344 24.8366 0 16 0C7.16344 0 0 7.16344 0 16C0 24.8366 7.16344 32 16 32Z" fill="#FFF300"/>
<path d="M22.505 9.168C22.165 8.407 21.85 6.903 20.98 6.568C19.86 6.138 19.169 8.956 19.004 9.668H18.837C18.555 8.448 18.177 6.718 16.837 6.334C16.217 8.939 17.485 11.748 18.671 14.003C19.937 13.397 20.554 11.503 20.671 10.168H20.838L22.172 14.169C23.245 13.861 23.618 12.799 24.005 11.835C24.837 9.767 25.535 7.223 25.005 5C23.405 5.454 22.917 7.743 22.505 9.168ZM6.501 14.503C7.933 13.819 8.615 11.653 8.835 10.168H9.001C9.171 10.884 9.624 12.73 10.518 12.848C11.658 12.999 12.255 10.471 12.335 9.668H12.502C12.865 10.923 13.248 12.556 14.502 13.169C14.966 11.225 14.412 9.152 13.701 7.334C13.518 6.867 13.143 5.606 12.498 5.606C11.442 5.606 10.848 8.39 10.668 9.168H10.502L9.168 5.167C6.822 6.287 5.548 12.244 6.501 14.503V14.503ZM4 16.503C5.74 24.097 13.771 28.403 21.005 25.195C23.6277 24.0297 25.7343 21.9464 26.929 19.337C27.24 18.663 27.851 17.442 27.495 16.557C27.14 15.675 23.7 17.115 22.84 17.492C22.7806 17.5183 22.7288 17.559 22.6893 17.6106C22.6498 17.6622 22.6239 17.7228 22.614 17.787C22.6 17.8786 22.605 17.972 22.6288 18.0615C22.6526 18.1511 22.6946 18.2347 22.7523 18.3072C22.81 18.3797 22.882 18.4395 22.9638 18.4828C23.0457 18.5261 23.1356 18.5521 23.228 18.559L24.672 18.671C22.057 23.733 14.986 25.971 10.002 21.927C8.886 21.022 7.891 19.947 7.221 18.671C6.897 18.054 6.596 17.265 6.046 16.841C5.516 16.435 4.714 16.295 4 16.503V16.503Z" fill="white"/>
</g>
<defs>
<clipPath id="clip0_0_419">
<rect width="32" height="32" fill="white"/>
</clipPath>
</defs>
</svg>
