<svg width="32" height="32" viewBox="0 0 32 32" fill="none" xmlns="http://www.w3.org/2000/svg">
<g clip-path="url(#clip0_0_823)">
<path d="M16 32C24.8366 32 32 24.8366 32 16C32 7.16344 24.8366 0 16 0C7.16344 0 0 7.16344 0 16C0 24.8366 7.16344 32 16 32Z" fill="#7F27FF"/>
<path d="M15.376 14H8.02V21.222C8.012 21.961 8.308 22.672 8.84 23.194C9.372 23.716 10.097 24.007 10.85 24H15.377L15.376 14ZM15.546 10.221H16.338C17.122 8.871 17.84 7.953 18.515 7.457C19.347 6.844 20.199 6.839 20.867 7.495C21.491 8.107 21.608 8.875 21.197 9.615C21.081 9.821 20.927 10.023 20.734 10.221H23.642C24.321 10.221 25 10.779 25 11.554C25 12.221 24.431 12.888 23.642 12.888H16.508V11.11H15.376V12.888H8.358C7.68 12.888 7 12.33 7 11.554C7 10.888 7.569 10.221 8.358 10.221H11.298C11.114 10.0496 10.9503 9.85767 10.81 9.649C10.323 8.905 10.382 8.119 11.017 7.495C11.685 6.839 12.537 6.845 13.37 7.457C14.044 7.953 14.762 8.872 15.547 10.221H15.546ZM14.231 10.221C13.651 9.298 13.133 8.671 12.691 8.346C12.282 8.046 12.058 8.044 11.817 8.28C11.57 8.523 11.555 8.731 11.762 9.047C11.998 9.408 12.495 9.815 13.211 10.221H14.231ZM17.653 10.221H18.873C19.556 9.829 20.007 9.433 20.203 9.081C20.373 8.777 20.337 8.546 20.067 8.281C19.826 8.044 19.602 8.045 19.194 8.346C18.751 8.671 18.232 9.298 17.654 10.221H17.653ZM16.508 13.999H23.865V21.222C23.8682 21.589 23.7971 21.9528 23.6562 22.2917C23.5153 22.6305 23.3074 22.9375 23.045 23.194C22.5084 23.7185 21.7854 24.0084 21.035 24H16.508V13.999Z" fill="white"/>
</g>
<defs>
<clipPath id="clip0_0_823">
<rect width="32" height="32" fill="white"/>
</clipPath>
</defs>
</svg>
