<svg width="32" height="32" viewBox="0 0 32 32" fill="none" xmlns="http://www.w3.org/2000/svg">
<g clip-path="url(#clip0_0_1248)">
<path d="M16 32C24.8366 32 32 24.8366 32 16C32 7.16344 24.8366 0 16 0C7.16344 0 0 7.16344 0 16C0 24.8366 7.16344 32 16 32Z" fill="#35A5F3"/>
<path d="M7.01995 7.027C8.28995 5.7 10.6099 5.647 11.9209 6.937C13.2909 8.277 14.6469 9.629 15.9889 10.994C17.4169 9.637 18.7529 8.189 20.1869 6.838C21.5509 5.606 23.8709 5.755 25.0819 7.135C26.3239 8.437 26.3039 10.708 25.0149 11.972C23.6879 13.323 22.3439 14.654 21.0049 15.994C22.3729 17.403 23.7979 18.757 25.1549 20.184C26.3709 21.517 26.2549 23.789 24.9359 25.014C23.6389 26.324 21.3129 26.328 20.0179 25.012C18.6709 23.69 17.3529 22.336 16.0149 21.008C14.5869 22.382 13.2249 23.824 11.7819 25.184C10.3999 26.41 8.06995 26.227 6.87995 24.82C5.67995 23.521 5.70995 21.308 6.95995 20.05C8.13477 18.8472 9.32351 17.6582 10.5259 16.483L12.0329 17.988C10.8569 19.202 9.61995 20.364 8.46195 21.596C7.68095 22.396 8.36895 23.888 9.46595 23.87C10.1309 23.929 10.5899 23.378 11.0219 22.962C12.1689 21.794 13.3329 20.647 14.4799 19.479C11.9799 16.957 9.43995 14.47 6.95195 11.937C5.65395 10.629 5.69495 8.297 7.02195 7.027H7.01995ZM8.47294 10.417C9.79594 11.797 11.1699 13.128 12.5169 14.485C13.1669 13.827 13.8209 13.173 14.4789 12.522C13.1759 11.209 11.8779 9.887 10.5569 8.592C10.1359 8.137 9.41595 7.968 8.86695 8.294C8.10295 8.664 7.86195 9.8 8.47195 10.417H8.47294ZM21.4129 8.627C18.9269 11.067 16.4909 13.559 14.0179 16.011C14.6849 16.658 15.3499 17.307 16.0009 17.971C16.4999 17.479 16.9959 16.981 17.4929 16.483C17.9949 16.984 18.4939 17.488 18.9999 17.986C18.5089 18.486 18.0149 18.982 17.5159 19.476C18.8569 20.825 20.1719 22.199 21.5569 23.504C22.2599 24.244 23.6239 23.795 23.8269 22.82C24.0449 22.13 23.5489 21.533 23.0809 21.099C20.8775 18.9061 18.6789 16.7084 16.4849 14.506C16.9873 14.005 17.4876 13.502 17.9859 12.997C18.4859 13.495 18.9849 13.993 19.4959 14.483C20.8109 13.12 22.2049 11.833 23.4999 10.449C24.1529 9.815 23.8919 8.6 23.0579 8.257C22.4979 7.968 21.8149 8.172 21.4119 8.627H21.4129Z" fill="white"/>
</g>
<defs>
<clipPath id="clip0_0_1248">
<rect width="32" height="32" fill="white"/>
</clipPath>
</defs>
</svg>
