<svg width="32" height="32" viewBox="0 0 32 32" fill="none" xmlns="http://www.w3.org/2000/svg">
<g clip-path="url(#clip0_0_1240)">
<path d="M16 32C24.8366 32 32 24.8366 32 16C32 7.16344 24.8366 0 16 0C7.16344 0 0 7.16344 0 16C0 24.8366 7.16344 32 16 32Z" fill="#56C9E9"/>
<path d="M23.6827 9.44166C22.9287 9.16366 21.2627 9.57966 21.1827 9.69866C21.5007 9.75866 21.5997 9.79866 22.0757 9.87766C22.5857 9.97066 23.0757 10.1517 23.5237 10.4137C23.9997 10.6907 24.1977 10.3137 24.1977 10.3137C24.2777 10.1357 24.0597 9.57966 23.6827 9.44166ZM10.1357 6.14866C10.0138 5.95638 9.88125 5.77109 9.73865 5.59366C9.36165 5.19666 8.62865 4.99866 8.23065 5.19666C8.01265 5.29666 7.91365 5.43466 8.09265 5.67266C8.30965 5.88766 8.58565 6.03266 8.88565 6.08966C9.06365 6.12966 9.85765 6.30766 10.0557 6.34666C10.2557 6.34666 10.1357 6.14866 10.1357 6.14866V6.14866ZM10.9287 8.15166C10.9128 8.11624 10.8843 8.08805 10.8487 8.07266C10.3593 8.13429 9.86342 8.02969 9.44065 7.77566C9.34499 7.70812 9.23076 7.67186 9.11365 7.67186C8.99655 7.67186 8.88232 7.70812 8.78665 7.77566C8.52865 7.99366 8.90565 8.25166 8.92565 8.25166C9.08365 8.35066 9.26265 8.31166 9.42165 8.35066C9.80998 8.46316 10.2087 8.5362 10.6117 8.56866C10.9487 8.56866 11.0277 8.44866 10.9287 8.15166ZM24.0597 7.41866C24.0997 7.29866 24.0597 6.90266 23.3447 7.00166C22.7497 7.10166 22.3337 7.25966 22.3537 7.33866C22.3737 7.41866 23.0277 7.53766 23.1667 7.55666C23.7217 7.65666 24.0397 7.49666 24.0597 7.41866ZM16.8397 4.10566C16.7702 4.04133 16.68 4.00397 16.5853 4.0003C16.4907 3.99663 16.3979 4.0269 16.3237 4.08566C15.7287 4.46266 16.1647 5.75166 16.2237 5.75166C16.2837 5.75166 16.3437 5.29566 16.9387 4.62166C16.9669 4.58151 16.9867 4.53609 16.9969 4.48811C17.0072 4.44013 17.0076 4.39057 16.9983 4.3424C16.989 4.29424 16.97 4.24845 16.9426 4.20777C16.9152 4.16709 16.8798 4.13236 16.8387 4.10566H16.8397ZM14.9487 7.93666C14.9487 7.88666 14.8987 7.88666 14.9487 7.93666V7.93666Z" fill="white"/>
<path d="M14.3472 6.92395C13.9702 6.72595 14.2872 5.75395 14.1492 5.39695C14.1361 5.34191 14.1097 5.29095 14.0722 5.2486C14.0347 5.20626 13.9873 5.17384 13.9342 5.15424C13.8812 5.13464 13.8241 5.12847 13.7681 5.13627C13.7121 5.14407 13.6588 5.1656 13.6132 5.19895C13.5617 5.2199 13.5154 5.25188 13.4777 5.29264C13.4399 5.33341 13.4115 5.38196 13.3945 5.43488C13.3776 5.4878 13.3724 5.5438 13.3794 5.59893C13.3864 5.65405 13.4055 5.70697 13.4352 5.75395C13.5152 5.91295 13.9902 6.82495 13.6132 6.98395C13.4742 7.04395 13.1772 6.92395 12.9792 6.80495C12.2652 6.48795 12.1462 5.39695 11.9272 5.25795C11.8259 5.18324 11.7025 5.14461 11.5767 5.14824C11.4509 5.15186 11.33 5.19753 11.2332 5.27795C11.1355 5.33297 11.0614 5.42188 11.025 5.52785C10.9885 5.63381 10.9921 5.74948 11.0352 5.85295C11.1342 6.03195 11.5112 6.13095 11.5902 6.74595L11.8282 6.92395C11.9482 7.02395 12.0662 7.12295 12.2052 7.22195C12.5622 7.57895 12.4832 7.63895 13.2172 7.51995C13.4552 7.43995 13.4152 7.12295 13.6532 7.04395C13.8012 7.02439 13.9517 7.04476 14.0892 7.10295C14.3082 7.21895 14.4922 7.38995 14.6252 7.59895C14.9422 7.97595 15.0812 8.45195 15.3592 8.86895C15.4552 9.04295 15.5752 9.20295 15.7162 9.34395L16.0132 9.58195C16.4302 9.85995 16.8072 9.83995 17.1042 9.52195C17.185 9.46415 17.2531 9.39041 17.3044 9.30528C17.3556 9.22015 17.3889 9.12543 17.4022 9.02695C17.5603 8.5489 17.7611 8.08603 18.0022 7.64395C18.0042 7.64214 18.0066 7.64077 18.0091 7.63991C18.0117 7.63905 18.0145 7.63872 18.0172 7.63895C18.0181 7.62865 18.0226 7.61899 18.0299 7.61167C18.0372 7.60436 18.0469 7.59985 18.0572 7.59895C18.1122 7.56026 18.1779 7.53951 18.2452 7.53951C18.3125 7.53951 18.3781 7.56026 18.4332 7.59895C18.4932 7.67895 18.3732 8.41195 18.4332 8.49095C18.4732 8.65095 18.7702 8.55095 19.0282 8.53095C19.0526 8.50047 19.0728 8.46683 19.0882 8.43095C19.5242 8.29295 19.9412 8.07495 20.3772 7.95595H20.6152C20.8582 7.91595 21.1052 7.91595 21.3492 7.95595C21.5872 7.95595 21.6662 8.09495 21.6462 8.31295C22.0432 8.29295 22.4402 8.29295 22.8362 8.25295C23.0152 8.23295 23.2932 8.23295 23.2732 7.89595C23.2332 7.69795 22.9162 7.14295 21.4682 7.47995C21.3292 7.51995 20.5362 7.75795 20.2582 7.61895C20.6812 7.34495 21.1182 7.09395 21.5672 6.86495C21.7652 6.70595 21.9242 6.48795 21.8052 6.24995C21.6862 6.01195 21.4482 6.03195 21.2302 6.11095C20.8192 6.23864 20.445 6.46329 20.1392 6.76595C19.9382 6.96995 19.7192 7.15595 19.4842 7.32095C18.9092 7.59895 18.9092 7.59895 18.7702 7.55895C18.5922 7.47895 18.3932 7.34095 18.5322 7.14295C18.6132 7.01395 18.6732 6.87295 18.7112 6.72595C18.7712 6.46795 18.6912 6.38895 18.5122 6.38895C18.1552 6.40895 18.0362 6.92395 17.9772 7.00395C17.9392 7.08195 17.8922 7.15395 17.8382 7.22195C17.7921 7.26742 17.7343 7.29902 17.6711 7.31317C17.608 7.32732 17.5422 7.32343 17.4812 7.30195C17.3622 7.28195 17.2632 7.22195 17.3622 7.06295C17.5412 6.78595 18.0962 6.34895 18.2552 5.77395C18.2552 5.77395 18.5322 5.01995 17.7592 5.00095C17.3422 4.98095 17.0052 5.27795 16.8862 5.73395C16.7672 6.20995 17.0252 6.86495 16.8862 7.18195C16.8362 7.31595 16.7692 7.44195 16.6882 7.55895C16.5546 7.6787 16.3815 7.74493 16.2022 7.74493C16.0228 7.74493 15.8497 7.6787 15.7162 7.55895C15.6398 7.46995 15.5842 7.36514 15.5532 7.25205C15.5223 7.13896 15.5168 7.02042 15.5372 6.90495C15.6051 6.6435 15.6582 6.37841 15.6962 6.11095C15.7162 5.91295 15.3592 5.55595 15.0612 5.79395C14.9222 5.89395 14.9812 6.05195 15.0412 6.19095C15.1412 6.48795 15.3192 7.34095 14.3472 6.92395V6.92395ZM14.9032 7.53895C14.8832 7.51895 14.9032 7.51895 14.9032 7.53895V7.53895Z" fill="white"/>
<path d="M16 9.00433H17.31C17.428 8.97833 17.545 9.07033 17.627 9.25233C17.633 9.35233 17.609 9.45033 17.567 9.50033C17.3498 9.39838 17.1129 9.34553 16.873 9.34553C16.6331 9.34553 16.3962 9.39838 16.179 9.50033H16.119L16 9.00433V9.00433Z" fill="white"/>
<path d="M20.298 8.50809C19.7927 8.65081 19.2961 8.82311 18.811 9.02409C18.7678 9.03745 18.7215 9.03692 18.6786 9.02257C18.6358 9.00821 18.5985 8.98077 18.572 8.94409C18.5524 8.90056 18.5422 8.85335 18.5422 8.80559C18.5422 8.75784 18.5524 8.71063 18.572 8.66709C18.5918 8.60258 18.5918 8.5336 18.572 8.46909C18.5316 8.36065 18.4633 8.26477 18.374 8.19109C18.3353 8.15902 18.29 8.13592 18.2413 8.12347C18.1926 8.11102 18.1417 8.10952 18.0924 8.11909C18.043 8.12865 17.9964 8.14904 17.9559 8.17878C17.9154 8.20852 17.8819 8.24688 17.858 8.29109C17.5918 8.70731 17.3912 9.16194 17.263 9.63909C17.2155 9.83025 17.1121 10.0029 16.966 10.1351C16.668 10.3931 16.391 10.4131 15.994 10.1951C15.8836 10.1148 15.7777 10.0283 15.677 9.93609C15.5406 9.78435 15.421 9.6184 15.32 9.44109C15.16 9.14309 15.002 8.82609 14.844 8.54809C14.625 8.19109 14.407 7.85409 14.011 7.67509C13.8837 7.62891 13.7454 7.62195 13.614 7.65509C13.5561 7.66631 13.5013 7.68989 13.4533 7.72423C13.4053 7.75858 13.3653 7.80287 13.336 7.85409C13.276 7.95309 12.483 7.97309 12.206 7.81409C12.066 7.73409 11.67 7.33809 11.531 7.37809C11.412 7.37809 11.353 7.29809 11.273 7.23909C11.0953 7.11697 10.8911 7.03887 10.6772 7.01122C10.4633 6.98358 10.246 7.00718 10.043 7.08009C9.95808 7.10011 9.88088 7.1446 9.82098 7.20805C9.76108 7.27151 9.72111 7.35114 9.70602 7.43709C9.70707 7.52874 9.73621 7.61785 9.7895 7.69242C9.84278 7.76698 9.91766 7.82341 10.004 7.85409C10.201 7.92809 10.393 8.01409 10.579 8.11209C10.679 8.15209 10.837 8.17209 10.817 8.35009C10.8154 8.39725 10.8221 8.44432 10.837 8.48909C10.857 8.74609 10.678 8.76609 10.5 8.76609C10.246 8.74586 9.99392 8.70607 9.74602 8.64709C9.47178 8.55463 9.18115 8.5209 8.89302 8.54809C8.81302 8.64809 8.71502 8.58809 8.61502 8.60809C8.25802 8.66809 7.98102 8.92509 8.00102 9.22209C8.02102 9.56009 8.29802 9.63909 8.57602 9.69809C9.25002 9.85809 9.92502 9.79809 10.599 9.81809C11.412 9.81809 11.869 10.2141 11.987 11.0281C12.067 11.6221 13.852 27.2521 13.872 27.5891C13.8737 27.658 13.8978 27.7244 13.9408 27.7782C13.9838 27.832 14.0432 27.8703 14.11 27.8871C14.784 28.0921 15.488 28.1871 16.192 28.1651C16.983 28.1851 17.772 28.0851 18.532 27.8671C18.652 27.8271 18.751 27.7871 18.751 27.6291C18.771 27.2131 19.901 12.2771 19.901 12.0391C19.8892 11.3444 20.113 10.6662 20.536 10.1151C20.873 9.71809 21.25 9.36109 21.587 8.96509C21.687 8.40909 20.972 8.40909 20.298 8.50809V8.50809Z" fill="white"/>
</g>
<defs>
<clipPath id="clip0_0_1240">
<rect width="32" height="32" fill="white"/>
</clipPath>
</defs>
</svg>
