<svg width="32" height="32" viewBox="0 0 32 32" fill="none" xmlns="http://www.w3.org/2000/svg">
<g clip-path="url(#clip0_0_411)">
<path d="M16 32C24.8366 32 32 24.8366 32 16C32 7.16344 24.8366 0 16 0C7.16344 0 0 7.16344 0 16C0 24.8366 7.16344 32 16 32Z" fill="#117FC0"/>
<path d="M26.3365 10.1782L17.8815 24.1182H12.8395L16.7145 17.7212H12.8635L8.37346 25.1252C10.5138 26.8651 13.1919 27.8078 15.9502 27.7922C18.7085 27.7766 21.3757 26.8037 23.4963 25.0397C25.6168 23.2757 27.059 20.8302 27.5765 18.1208C28.094 15.4115 27.6546 12.6065 26.3335 10.1852L26.3365 10.1782V10.1782ZM18.9545 7.67618L15.2845 13.7162H19.1405L23.4145 6.66718C21.2741 4.92729 18.596 3.9846 15.8377 4.00019C13.0795 4.01578 10.4122 4.98867 8.29165 6.75265C6.1711 8.51662 4.72888 10.9622 4.2114 13.6715C3.69392 16.3809 4.1333 19.1858 5.45446 21.6072L13.9065 7.67718H18.9535L18.9545 7.67618Z" fill="white"/>
</g>
<defs>
<clipPath id="clip0_0_411">
<rect width="32" height="32" fill="white"/>
</clipPath>
</defs>
</svg>
