<svg width="32" height="32" viewBox="0 0 32 32" fill="none" xmlns="http://www.w3.org/2000/svg">
<g clip-path="url(#clip0_0_11)">
<path d="M16 32C24.8366 32 32 24.8366 32 16C32 7.16344 24.8366 0 16 0C7.16344 0 0 7.16344 0 16C0 24.8366 7.16344 32 16 32Z" fill="#D59143"/>
<path d="M7.95782 16.4438C7.43982 16.8558 6.97782 17.5878 7.00082 18.7068C7.01782 19.4808 7.43382 20.0108 7.95782 20.3708V21.7528C7.95782 22.6168 8.37782 23.4258 9.08582 23.9208L13.9388 27.2398V10.2808L7.95782 12.0308V16.4438V16.4438ZM9.26082 16.0358C10.2678 16.7728 10.2678 21.1518 10.2678 21.1518C10.2678 21.1518 9.12882 21.0418 8.18782 20.5158C8.96382 20.7768 9.58682 20.7188 9.85782 20.7488L9.87582 20.7498H9.87982L9.89382 20.7518L9.93182 20.7548L9.94482 20.7568H9.95782C9.95782 20.7568 10.1178 16.9348 8.96082 16.2648C8.77282 16.1998 8.44082 16.2378 8.07482 16.3548C8.54082 16.0408 9.02782 15.9348 9.26082 16.0358ZM14.3578 22.9398H17.6208V27.2458H14.3588V22.9408L14.3578 22.9398ZM13.6178 9.95975L7.95782 11.5818V5.51075C7.95768 5.4099 7.98743 5.31126 8.04334 5.22731C8.09924 5.14337 8.17878 5.07788 8.2719 5.03913C8.36502 5.00039 8.46753 4.99012 8.56649 5.00963C8.66544 5.02915 8.75638 5.07756 8.82782 5.14875L13.9078 10.2488L13.6178 9.95875V9.95975ZM14.3578 16.0308H17.6208V22.5248H14.3588V16.0308H14.3578ZM18.3508 9.96075L18.1408 10.1708L23.1408 5.15075C23.2121 5.07934 23.3029 5.03066 23.4019 5.01089C23.5008 4.99112 23.6034 5.00113 23.6966 5.03967C23.7899 5.07821 23.8696 5.14354 23.9257 5.2274C23.9818 5.31125 24.0118 5.40986 24.0118 5.51075V11.5808L18.3518 9.96075H18.3508ZM14.3588 10.2818H17.6208V15.6118H14.3588V10.2818ZM24.0118 16.4438V12.0308L18.0408 10.2848V27.2458L22.8838 23.9208C23.2321 23.6767 23.5164 23.3524 23.7128 22.9752C23.9091 22.598 24.0117 22.179 24.0118 21.7538V20.3708C24.5358 20.0108 24.9518 19.4808 24.9688 18.7068C24.9928 17.5878 24.5298 16.8558 24.0118 16.4438V16.4438ZM22.0518 20.8178H22.0648L22.0768 20.8168L22.0938 20.8148H22.0978L22.1328 20.8118H22.1348L22.1508 20.8098L22.2998 20.7928H22.3068C22.6328 20.7508 23.0328 20.7548 23.6468 20.5628L23.7828 20.5178C22.8408 21.0438 21.7028 21.1538 21.7028 21.1538C21.7028 21.1538 21.7028 16.7758 22.7098 16.0388C22.9428 15.9368 23.4298 16.0428 23.8948 16.3588C23.5288 16.2418 23.1978 16.2038 23.0088 16.2688C21.8518 16.9378 22.0508 20.8188 22.0508 20.8188L22.0518 20.8178Z" fill="white"/>
</g>
<defs>
<clipPath id="clip0_0_11">
<rect width="32" height="32" fill="white"/>
</clipPath>
</defs>
</svg>
