<svg width="32" height="32" viewBox="0 0 32 32" fill="none" xmlns="http://www.w3.org/2000/svg">
<g clip-path="url(#clip0_0_941)">
<path d="M16 32C24.8366 32 32 24.8366 32 16C32 7.16344 24.8366 0 16 0C7.16344 0 0 7.16344 0 16C0 24.8366 7.16344 32 16 32Z" fill="#8834FF"/>
<path d="M7 21.23C7.191 21.23 7.392 21.24 7.583 21.23C7.946 21.203 8.31 21.13 8.665 21.04C9.36509 20.8488 10.0204 20.5209 10.593 20.075C10.757 19.948 10.92 19.812 11.075 19.666C11.402 19.339 11.685 18.966 11.912 18.566C12.112 18.211 12.257 17.829 12.367 17.438C12.376 17.411 12.376 17.374 12.385 17.347H10.957C10.6602 17.3457 10.3645 17.3122 10.075 17.247C10.0489 17.2364 10.0212 17.2303 9.993 17.229C9.9791 17.2219 9.96657 17.2125 9.956 17.201C10.038 17.02 10.111 16.847 10.184 16.665L10.739 15.382C10.7567 15.3207 10.7841 15.2627 10.82 15.21C10.8596 15.1733 10.912 15.1536 10.966 15.155C11.412 15.146 11.848 15.155 12.294 15.155H12.412C12.394 15.082 12.394 15.028 12.376 14.965C12.2149 14.3497 11.9301 13.7736 11.539 13.272C11.3467 13.0271 11.1368 12.7965 10.911 12.582C10.6286 12.3163 10.3142 12.0869 9.975 11.899C9.62155 11.7002 9.24985 11.5358 8.865 11.408C8.54446 11.3076 8.21593 11.2346 7.883 11.19C7.619 11.162 7.364 11.153 7.101 11.135C7.037 11.135 6.973 11.126 6.91 11.117C6.897 11.1131 6.88516 11.106 6.87556 11.0964C6.86596 11.0868 6.8589 11.075 6.855 11.062C6.764 10.853 6.673 10.653 6.582 10.444C6.472 10.198 6.372 9.953 6.264 9.716C6.182 9.516 6.091 9.326 6 9.116L6.191 9.061C6.591 9.007 7.001 8.989 7.41 9.007C8.06117 9.02883 8.70786 9.12342 9.338 9.289C9.738 9.398 10.138 9.534 10.52 9.698C11.057 9.925 11.566 10.208 12.04 10.544C12.248 10.698 12.457 10.862 12.658 11.026C12.748 11.099 12.839 11.181 12.93 11.262C13.385 11.699 13.785 12.199 14.122 12.736C14.458 13.272 14.704 13.854 14.868 14.464C14.922 14.664 14.958 14.874 15.004 15.074C15.0093 15.0893 15.0191 15.1027 15.0321 15.1124C15.0451 15.122 15.0608 15.1275 15.077 15.128H16.923C16.96 14.982 16.987 14.837 17.014 14.691C17.124 14.264 17.269 13.854 17.451 13.463C17.596 13.136 17.778 12.818 17.987 12.527C18.178 12.263 18.378 11.999 18.597 11.754C18.7578 11.5639 18.9309 11.3846 19.115 11.217C19.4975 10.8698 19.9116 10.5591 20.352 10.289C20.807 10.007 21.28 9.779 21.78 9.598C22.126 9.48 22.471 9.371 22.817 9.28C23.08 9.216 23.335 9.17 23.608 9.134C23.826 9.098 24.054 9.08 24.281 9.061C24.427 9.052 24.563 9.043 24.709 9.043C24.927 9.043 25.136 9.034 25.345 9.043C25.555 9.053 25.764 9.098 25.973 9.134C25.982 9.134 25.982 9.144 26 9.161L25.845 9.525C25.682 9.907 25.518 10.289 25.345 10.68C25.2789 10.8173 25.2182 10.957 25.163 11.099C25.127 11.189 25.036 11.153 24.973 11.171C24.918 11.181 24.873 11.181 24.818 11.171C23.8883 11.1801 22.9721 11.3945 22.135 11.799C21.7434 11.9903 21.3767 12.2287 21.043 12.509C20.907 12.627 20.753 12.745 20.625 12.881C20.297 13.209 20.015 13.581 19.788 13.991C19.6056 14.3293 19.4594 14.686 19.352 15.055C19.342 15.082 19.342 15.119 19.333 15.146H19.433C19.906 15.146 20.388 15.136 20.861 15.146C21.143 15.146 21.425 15.191 21.698 15.282C21.708 15.292 21.716 15.292 21.725 15.301L21.462 15.901C21.28 16.328 21.089 16.756 20.907 17.192C20.852 17.32 20.816 17.347 20.67 17.347H19.342C19.379 17.474 19.406 17.583 19.442 17.693C19.57 18.075 19.752 18.438 19.979 18.775C20.116 18.975 20.261 19.157 20.416 19.339C20.506 19.448 20.606 19.557 20.706 19.648C21.043 19.975 21.426 20.258 21.834 20.485C22.18 20.685 22.553 20.849 22.935 20.975C23.299 21.103 23.681 21.185 24.072 21.221L24.79 21.276C24.881 21.286 24.972 21.286 25.063 21.294C25.081 21.304 25.1 21.312 25.109 21.331C25.263 21.694 25.418 22.058 25.582 22.422L25.972 23.313C25.845 23.341 25.727 23.368 25.6 23.377C25.29 23.395 24.972 23.413 24.663 23.413C24.381 23.413 24.099 23.386 23.826 23.35C23.4478 23.2966 23.0715 23.2299 22.698 23.15C22.2502 23.0401 21.8121 22.8939 21.388 22.713C20.8829 22.4968 20.4017 22.2287 19.952 21.913C19.7176 21.7393 19.4872 21.5602 19.261 21.376C19.1127 21.2552 18.9727 21.1246 18.842 20.985C18.2675 20.4007 17.7944 19.7248 17.442 18.985C17.2359 18.5468 17.0832 18.0855 16.987 17.611C16.969 17.565 16.96 17.511 16.95 17.465C16.95 17.375 16.905 17.356 16.823 17.356H14.986C14.8945 17.8498 14.748 18.3319 14.549 18.793C14.3877 19.1844 14.1834 19.5567 13.94 19.903C13.7496 20.1706 13.546 20.4286 13.33 20.676C13.1744 20.8648 13.0043 21.041 12.821 21.203C12.539 21.449 12.239 21.676 11.939 21.903C11.5782 22.1593 11.1946 22.3819 10.793 22.568C10.0454 22.9235 9.24786 23.1626 8.428 23.277C8.146 23.322 7.864 23.35 7.583 23.377C7.42246 23.3861 7.26154 23.3861 7.101 23.377C6.864 23.377 6.628 23.367 6.401 23.359C6.318 23.349 6.236 23.341 6.155 23.322C6.109 23.313 6.091 23.295 6.118 23.241C6.3 22.822 6.491 22.404 6.673 21.985C6.783 21.731 6.883 21.495 7 21.231V21.23Z" fill="white"/>
</g>
<defs>
<clipPath id="clip0_0_941">
<rect width="32" height="32" fill="white"/>
</clipPath>
</defs>
</svg>
