<svg width="32" height="32" viewBox="0 0 32 32" fill="none" xmlns="http://www.w3.org/2000/svg">
<g clip-path="url(#clip0_0_935)">
<path d="M16 32C24.8366 32 32 24.8366 32 16C32 7.16344 24.8366 0 16 0C7.16344 0 0 7.16344 0 16C0 24.8366 7.16344 32 16 32Z" fill="#1591CA"/>
<path d="M16.4947 15.7222C16.4947 15.7222 17.8217 12.7722 15.2197 9.92221C15.2197 9.92221 13.7397 8.02221 10.6797 8.17221L11.2907 7.93221C11.3927 7.89221 11.4997 7.86421 11.6077 7.85021L12.2097 7.77221L16.4437 7.12221C16.4437 7.12221 17.9407 6.82821 19.0757 7.15221C19.3987 7.24521 19.6927 7.42021 19.9257 7.65821C20.5517 8.29221 21.8087 9.96921 20.9857 12.6222C20.9857 12.6222 20.1687 15.5722 17.1077 16.2722C17.1077 16.2722 16.3417 16.4722 16.4947 15.7222V15.7222ZM16.3057 17.3662C16.3057 17.3662 18.2187 19.9892 22.0477 19.2502C22.0477 19.2502 24.4697 18.9712 25.8987 16.3132L25.7967 16.9522C25.7797 17.0582 25.7497 17.1622 25.7067 17.2612L25.4687 17.8082L23.8807 21.7082C23.8807 21.7082 23.3757 23.1192 22.5127 23.9112C22.265 24.1369 21.9633 24.2949 21.6367 24.3702C20.7617 24.5732 18.6487 24.7782 16.7387 22.7322C16.7387 22.7322 14.5657 20.5402 15.5117 17.6022C15.5117 17.6002 15.7257 16.8552 16.3057 17.3662V17.3662ZM14.9207 16.4192C14.9207 16.4192 11.6507 16.7632 10.4257 20.3942C10.4257 20.3942 9.48173 22.5982 11.1397 25.1242L10.6227 24.7242C10.5368 24.6578 10.4595 24.5809 10.3927 24.4952L10.0227 24.0232L7.33873 20.7502C7.33873 20.7502 6.33173 19.6232 6.05473 18.5002C5.97473 18.1782 5.98273 17.8402 6.07673 17.5222C6.32573 16.6752 7.18273 14.7722 9.93973 14.1502C9.93973 14.1502 12.9567 13.3732 15.1017 15.6262C15.1037 15.6262 15.6617 16.1762 14.9217 16.4192H14.9207Z" fill="white"/>
<path opacity="0.5" d="M17.106 16.796C17.106 16.796 20.366 16.372 21.496 12.711C21.496 12.711 22.383 10.484 20.659 8L21.187 8.387C21.274 8.452 21.354 8.527 21.423 8.61L21.804 9.072L24.574 12.278C24.574 12.278 25.608 13.378 25.916 14.496C26.003 14.816 26.003 15.152 25.916 15.472C25.689 16.325 24.882 18.25 22.141 18.94C22.141 18.94 19.145 19.79 16.943 17.594C16.945 17.594 16.373 17.058 17.106 16.796ZM15.468 17.4C15.468 17.4 14.067 20.316 16.595 23.229C16.595 23.229 18.024 25.164 21.09 25.089L20.472 25.314C20.369 25.3512 20.2619 25.3757 20.153 25.387L19.55 25.451L15.3 25.997C15.3 25.997 13.797 26.254 12.67 25.902C12.3504 25.8011 12.0621 25.6196 11.833 25.375C11.223 24.725 10.01 23.019 10.901 20.388C10.901 20.388 11.791 17.458 14.87 16.834C14.87 16.837 15.643 16.654 15.468 17.4V17.4ZM15.577 15.863C15.577 15.863 13.625 13.267 9.808 14.063C9.808 14.063 7.39 14.375 6 17.053L6.092 16.412C6.10772 16.3055 6.13661 16.2014 6.178 16.102L6.408 15.552L7.938 11.628C7.938 11.628 8.423 10.21 9.274 9.406C9.51948 9.17725 9.81982 9.01571 10.146 8.937C11.018 8.72 13.128 8.487 15.066 10.506C15.066 10.506 17.271 12.667 16.368 15.618C16.368 15.616 16.164 16.366 15.577 15.863V15.863Z" fill="white"/>
</g>
<defs>
<clipPath id="clip0_0_935">
<rect width="32" height="32" fill="white"/>
</clipPath>
</defs>
</svg>
