<svg width="32" height="32" viewBox="0 0 32 32" fill="none" xmlns="http://www.w3.org/2000/svg">
<g clip-path="url(#clip0_0_931)">
<path d="M16 32C24.8366 32 32 24.8366 32 16C32 7.16344 24.8366 0 16 0C7.16344 0 0 7.16344 0 16C0 24.8366 7.16344 32 16 32Z" fill="#56428E"/>
<path d="M10.75 8H15.104C14.58 8.83 14.259 9.747 14.279 10.74C15.574 10.753 16.873 10.753 18.169 10.74C18.186 9.753 17.921 8.81 17.354 8H21.738C21.436 8.633 20.923 9.22 20.972 9.963C20.952 13.287 20.979 16.613 20.969 19.937C21.399 19.937 21.834 19.937 22.269 19.94C22.586 19.31 22.868 18.667 23.093 18C24.395 18.033 25.704 17.963 27 18.137C25.718 19.243 25.048 20.817 24.213 22.25C20.899 22.257 17.586 22.24 14.269 22.26C14.113 23.47 14.859 24.303 15.723 25H10.126C10.613 24.357 11.594 23.943 11.491 23C11.524 19.787 11.491 16.57 11.501 13.353H14.341V15.333H18.109V13.063H10.242L8.287 16.5C8.937 17.647 9.589 18.792 10.245 19.937H11.213V22.25H8.254C7.174 20.33 6.054 18.433 5 16.5V16.497C6.057 14.567 7.18 12.67 8.254 10.75C9.358 10.75 10.461 10.75 11.564 10.74C11.5787 9.76484 11.2943 8.80859 10.749 8H10.75ZM14.342 17.667V19.937H18.109V17.667H14.342V17.667ZM21.257 10.75H24.207C25.015 12.05 25.571 13.55 26.737 14.59C26.761 14.667 26.804 14.824 26.827 14.9C25.581 15.064 24.319 14.937 23.063 15C22.903 14.307 22.589 13.67 22.241 13.06L21.257 13.063V10.75V10.75ZM18.212 22.54C19.083 22.543 19.958 22.54 20.83 22.537C20.81 23.65 21.589 24.34 22.354 25H16.717C17.44 24.314 18.285 23.663 18.212 22.54Z" fill="white"/>
</g>
<defs>
<clipPath id="clip0_0_931">
<rect width="32" height="32" fill="white"/>
</clipPath>
</defs>
</svg>
