<svg width="32" height="32" viewBox="0 0 32 32" fill="none" xmlns="http://www.w3.org/2000/svg">
<g clip-path="url(#clip0_0_925)">
<path d="M16 32C24.8366 32 32 24.8366 32 16C32 7.16344 24.8366 0 16 0C7.16344 0 0 7.16344 0 16C0 24.8366 7.16344 32 16 32Z" fill="#2A3069"/>
<path d="M18.3128 10.4929C18.3128 6.97288 16.6058 3.98688 15.3258 3.02688C15.3258 3.02688 15.2188 2.91988 15.2188 3.13288C15.1128 9.85288 11.6988 11.6669 9.88585 14.2269C5.51285 19.8799 9.56585 26.1729 13.7258 27.3469C16.0728 27.9869 13.1928 26.1729 12.8728 22.4399C12.3388 17.7469 18.3128 14.3329 18.3128 10.4929" fill="white"/>
<path d="M20.4686 13C20.2546 13.853 19.4016 15.667 18.2286 17.373C14.2816 23.027 16.5216 25.8 17.8016 27.293C18.5486 28.147 17.8016 27.293 19.6146 26.44C19.7216 26.333 23.2416 24.52 23.5616 20.36C23.9886 16.307 21.4286 13.747 20.4686 13" fill="white"/>
</g>
<defs>
<clipPath id="clip0_0_925">
<rect width="32" height="32" fill="white"/>
</clipPath>
</defs>
</svg>
