<svg width="32" height="32" viewBox="0 0 32 32" fill="none" xmlns="http://www.w3.org/2000/svg">
<g clip-path="url(#clip0_0_921)">
<path d="M16 32C24.8366 32 32 24.8366 32 16C32 7.16344 24.8366 0 16 0C7.16344 0 0 7.16344 0 16C0 24.8366 7.16344 32 16 32Z" fill="#CFA967"/>
<path d="M16.02 17.445V25.438L21.967 23.836L23.364 8.446H16.02V14.978L16.324 14.031H17.12L16.02 17.445ZM8.636 24.969L7 7H25L23.364 24.969L15.98 27L8.636 24.969ZM13.799 18.176V17.435L11.33 16.451L13.8 15.461V14.719L10.273 16.152V16.744L13.799 18.176ZM21.732 16.744L18.205 18.176V17.435L20.675 16.448L18.205 15.461V14.719L21.732 16.152V16.744ZM16.02 17.444V14.978L14.703 19.085H15.491L16.02 17.444Z" fill="white"/>
</g>
<defs>
<clipPath id="clip0_0_921">
<rect width="32" height="32" fill="white"/>
</clipPath>
</defs>
</svg>
