<svg width="32" height="32" viewBox="0 0 32 32" fill="none" xmlns="http://www.w3.org/2000/svg">
<g clip-path="url(#clip0_0_913)">
<path d="M16 32C24.8366 32 32 24.8366 32 16C32 7.16344 24.8366 0 16 0C7.16344 0 0 7.16344 0 16C0 24.8366 7.16344 32 16 32Z" fill="#292929"/>
<path fill-rule="evenodd" clip-rule="evenodd" d="M15.507 18.658C15.507 18.198 15.509 17.739 15.506 17.28C15.505 17.152 15.542 17.054 15.661 17.002C15.771 16.954 15.886 16.988 15.982 17.1C16.268 17.434 16.552 17.77 16.837 18.106C16.937 18.223 17.038 18.339 17.135 18.46C17.1578 18.4886 17.1711 18.5235 17.173 18.56C17.175 19.045 17.176 19.53 17.174 20.014C17.1766 20.2274 17.0987 20.4339 16.9558 20.5924C16.8129 20.7509 16.6155 20.8497 16.403 20.869C16.1906 20.8826 15.981 20.8153 15.8163 20.6806C15.6515 20.5459 15.5439 20.3538 15.515 20.143C15.506 20.088 15.507 20.031 15.507 19.975V18.658V18.658ZM15.51 9.64802C15.509 9.62802 15.507 9.60902 15.507 9.58902V6.85702C15.508 6.43702 15.796 6.08302 16.186 6.01402C16.3063 5.99164 16.43 5.9961 16.5484 6.02707C16.6667 6.05804 16.7768 6.11477 16.8707 6.19319C16.9646 6.27162 17.04 6.36981 17.0916 6.48076C17.1432 6.59171 17.1696 6.71268 17.169 6.83502C17.179 7.76602 17.173 8.69802 17.175 9.62902L17.17 9.67702C16.976 9.34502 16.708 9.17902 16.342 9.18002C15.98 9.18002 15.71 9.34002 15.51 9.64802V9.64802ZM15.507 22.261C15.711 22.571 15.983 22.729 16.348 22.728C16.712 22.727 16.977 22.561 17.175 22.253V24.567C17.174 24.794 17.181 25.023 17.161 25.247C17.1416 25.4607 17.0402 25.6586 16.8779 25.799C16.7157 25.9395 16.5053 26.0115 16.291 26C16.0796 25.9859 15.8815 25.8922 15.7364 25.7378C15.5913 25.5835 15.51 25.3799 15.509 25.168C15.504 24.275 15.507 23.382 15.507 22.488V22.261V22.261ZM17.175 13.435V15.096C17.175 15.254 17.125 15.34 17.005 15.388C16.9429 15.4136 16.8742 15.4182 16.8093 15.4013C16.7443 15.3843 16.6867 15.3467 16.645 15.294L15.921 14.446C15.796 14.3 15.671 14.155 15.548 14.006C15.5244 13.9778 15.5104 13.9427 15.508 13.906C15.506 13.192 15.505 12.477 15.508 11.763C15.5067 11.5521 15.5847 11.3485 15.7266 11.1925C15.8685 11.0365 16.0639 10.9396 16.274 10.921C16.669 10.877 17.061 11.171 17.153 11.585C17.168 11.654 17.173 11.726 17.173 11.797C17.175 12.343 17.175 12.889 17.175 13.435V13.435ZM18.906 10.058V7.83802C18.908 7.43602 19.137 7.10802 19.493 6.99602C20.033 6.82502 20.573 7.23302 20.576 7.82102C20.579 8.37502 20.576 8.92902 20.576 9.48202V12.277C20.576 12.69 20.328 13.024 19.949 13.127C19.456 13.26 18.953 12.897 18.912 12.378C18.9083 12.3271 18.9067 12.2761 18.907 12.225V10.058H18.906ZM13.862 20.761V23.326C13.8657 23.5265 13.7981 23.7217 13.6711 23.8769C13.5442 24.032 13.3662 24.137 13.169 24.173C12.689 24.265 12.21 23.875 12.196 23.376C12.192 23.233 12.195 23.09 12.195 22.947V18.194C12.195 17.795 12.451 17.458 12.823 17.362C12.9463 17.3309 13.0751 17.3284 13.1995 17.3547C13.3239 17.381 13.4407 17.4354 13.5409 17.5138C13.641 17.5922 13.722 17.6924 13.7774 17.8068C13.8329 17.9212 13.8615 18.0468 13.861 18.174C13.864 19.036 13.861 19.899 13.861 20.761H13.862ZM13.862 11.315V14.814C13.8658 15.0081 13.8026 15.1975 13.6831 15.3505C13.5637 15.5035 13.3952 15.6106 13.206 15.654C13.0848 15.6798 12.9594 15.6783 12.8388 15.6497C12.7183 15.6211 12.6056 15.566 12.5089 15.4885C12.4123 15.411 12.334 15.313 12.2799 15.2015C12.2258 15.09 12.1971 14.9679 12.196 14.844C12.191 14.338 12.195 13.833 12.194 13.327V7.82102C12.194 7.40902 12.462 7.06502 12.847 6.97802C12.9694 6.95116 13.0963 6.95218 13.2182 6.98103C13.3402 7.00987 13.4541 7.0658 13.5515 7.14465C13.6488 7.22351 13.7272 7.32327 13.7808 7.43655C13.8344 7.54983 13.8618 7.67371 13.861 7.79902C13.864 8.69802 13.861 9.59602 13.861 10.495L13.862 11.315ZM18.906 19.501V15.701C18.906 15.322 19.068 15.041 19.406 14.883C19.948 14.632 20.556 15.033 20.576 15.646V23.294C20.576 23.712 20.337 24.044 19.96 24.152C19.466 24.294 18.954 23.932 18.912 23.411C18.9082 23.3578 18.9065 23.3044 18.907 23.251V19.499L18.906 19.501ZM24 15.635V21.575C24.0049 21.773 23.9405 21.9664 23.818 22.1219C23.6955 22.2775 23.5226 22.3854 23.329 22.427C22.837 22.534 22.347 22.141 22.333 21.628V9.70802C22.333 9.32302 22.526 9.01602 22.852 8.88002C23.402 8.65002 23.999 9.06402 23.999 9.67802V15.634L24 15.635ZM10.667 15.626V21.575C10.667 21.995 10.407 22.332 10.015 22.425C9.515 22.545 9.014 22.151 9 21.626V9.68902C9 9.28002 9.245 8.94802 9.62 8.84402C9.74302 8.81169 9.87181 8.80792 9.99651 8.83301C10.1212 8.8581 10.2385 8.91138 10.3395 8.98878C10.4404 9.06617 10.5223 9.16563 10.5789 9.27955C10.6355 9.39347 10.6653 9.51882 10.666 9.64602C10.671 10.301 10.667 10.957 10.667 11.613V15.625V15.626Z" fill="white"/>
</g>
<defs>
<clipPath id="clip0_0_913">
<rect width="32" height="32" fill="white"/>
</clipPath>
</defs>
</svg>
