<svg width="32" height="32" viewBox="0 0 32 32" fill="none" xmlns="http://www.w3.org/2000/svg">
<g clip-path="url(#clip0_0_893)">
<path d="M16 32C24.8366 32 32 24.8366 32 16C32 7.16344 24.8366 0 16 0C7.16344 0 0 7.16344 0 16C0 24.8366 7.16344 32 16 32Z" fill="#DF1A14"/>
<path d="M14.8597 11.027C15.1667 10.93 15.5157 11.103 15.6427 11.405C15.9497 12.107 16.2247 12.83 16.5427 13.531C16.7327 13.952 17.3797 14.006 17.6327 13.618C18.0567 12.916 18.3957 12.171 18.8087 11.458C19.1477 11.016 19.7617 11.232 20.2277 11.189C20.7147 11.157 21.0747 11.772 20.7987 12.193C19.4647 14.686 18.1207 17.169 16.7867 19.663C16.5637 20.116 15.8337 20.116 15.6327 19.641C15.3357 18.918 15.1027 18.162 14.8167 17.439C14.6467 16.964 13.9167 16.889 13.6737 17.342C13.2607 18.087 12.9007 18.864 12.4877 19.598C12.2867 19.932 11.8627 19.878 11.5347 19.878C11.2167 19.857 10.8357 19.954 10.5927 19.684C10.4863 19.5738 10.4192 19.4316 10.4018 19.2793C10.3845 19.1271 10.4178 18.9734 10.4967 18.842C11.7467 16.478 13.0167 14.104 14.2667 11.718C14.4147 11.448 14.5417 11.113 14.8597 11.028V11.027ZM10.4967 11.211C10.8671 11.1894 11.2384 11.1894 11.6087 11.211C12.0217 11.254 12.2867 11.783 12.0857 12.161C10.8457 14.503 9.59675 16.834 8.35875 19.166C8.20975 19.426 8.09375 19.771 7.77575 19.856C7.40575 19.911 7.02475 19.879 6.65375 19.879C6.19875 19.9 5.81775 19.306 6.09275 18.907C7.38475 16.489 8.67575 14.06 9.96775 11.632C10.0737 11.427 10.2537 11.222 10.4977 11.211H10.4967ZM23.6367 11.232C24.0387 11.113 24.4627 11.2 24.8757 11.167C25.1927 11.178 25.5957 11.113 25.8287 11.394C26.1147 11.686 26.0287 12.236 25.6687 12.42C24.9387 12.884 24.2187 13.38 23.4787 13.834C23.0117 14.157 22.3237 13.607 22.5247 13.067C22.7047 12.635 22.9587 12.237 23.1607 11.815C23.2767 11.599 23.3827 11.319 23.6367 11.232V11.232ZM20.1317 17.687C20.3437 17.557 20.6087 17.601 20.8097 17.709C21.3707 17.989 21.9317 18.292 22.5037 18.562C22.7477 18.67 23.0017 18.875 23.0117 19.166C23.0547 19.555 22.7257 19.932 22.3447 19.9C21.5297 19.9 20.7147 19.91 19.9097 19.9C19.5077 19.9 19.1897 19.425 19.3377 19.037C19.4437 18.756 19.6027 18.507 19.7297 18.237C19.8247 18.033 19.9197 17.784 20.1317 17.687Z" fill="white"/>
</g>
<defs>
<clipPath id="clip0_0_893">
<rect width="32" height="32" fill="white"/>
</clipPath>
</defs>
</svg>
