<svg width="32" height="32" viewBox="0 0 32 32" fill="none" xmlns="http://www.w3.org/2000/svg">
<g clip-path="url(#clip0_0_887)">
<path d="M16 32C24.8366 32 32 24.8366 32 16C32 7.16344 24.8366 0 16 0C7.16344 0 0 7.16344 0 16C0 24.8366 7.16344 32 16 32Z" fill="#B2A3F6"/>
<path d="M13.446 12.287C12.686 12.287 12.071 11.686 12.071 10.945C12.071 10.204 12.686 9.602 13.446 9.602C14.205 9.602 14.821 10.203 14.821 10.945C14.821 11.687 14.205 12.287 13.446 12.287ZM17.373 10.753C16.614 10.753 15.998 10.152 15.998 9.411C15.998 8.669 16.614 8.068 17.373 8.068C18.133 8.068 18.748 8.669 18.748 9.411C18.748 10.152 18.133 10.753 17.373 10.753ZM18.946 19.958C18.186 19.958 17.571 19.358 17.571 18.616C17.571 17.874 18.186 17.273 18.946 17.273C19.705 17.273 20.321 17.874 20.321 18.616C20.321 19.358 19.705 19.958 18.946 19.958ZM5.78602 18.04C5.68403 18.0413 5.58278 18.0225 5.48806 17.9847C5.39334 17.9468 5.30701 17.8907 5.23401 17.8194C5.16101 17.7482 5.10277 17.6633 5.06262 17.5695C5.02247 17.4757 5.0012 17.375 5.00002 17.273C5.00002 16.85 5.35202 16.506 5.78502 16.506C6.21802 16.506 6.57102 16.85 6.57102 17.273C6.56985 17.375 6.54858 17.4757 6.50843 17.5695C6.46828 17.6633 6.41004 17.7482 6.33704 17.8194C6.26403 17.8907 6.1777 17.9468 6.08299 17.9847C5.98827 18.0225 5.88701 18.0413 5.78502 18.04H5.78602ZM7.94602 23.028C7.86946 23.0289 7.79347 23.0148 7.72238 22.9863C7.65129 22.9579 7.58651 22.9157 7.53172 22.8622C7.47693 22.8087 7.43321 22.745 7.40307 22.6746C7.37292 22.6042 7.35694 22.5286 7.35602 22.452C7.35602 22.134 7.62002 21.877 7.94602 21.877C8.27202 21.877 8.53602 22.134 8.53602 22.452C8.53511 22.5286 8.51912 22.6042 8.48898 22.6746C8.45883 22.745 8.41512 22.8087 8.36033 22.8622C8.30554 22.9157 8.24075 22.9579 8.16967 22.9863C8.09858 23.0148 8.02259 23.0289 7.94602 23.028ZM14.231 26.863C13.905 26.863 13.641 26.605 13.641 26.287C13.641 25.969 13.905 25.712 14.231 25.712C14.557 25.712 14.821 25.969 14.821 26.287C14.821 26.605 14.557 26.863 14.231 26.863ZM24.446 23.411C24.12 23.411 23.856 23.153 23.856 22.835C23.856 22.517 24.12 22.259 24.446 22.259C24.771 22.259 25.036 22.517 25.036 22.835C25.036 23.153 24.771 23.411 24.446 23.411ZM18.16 22.261C18.0835 22.2619 18.0075 22.2478 17.9364 22.2193C17.8653 22.1909 17.8005 22.1487 17.7457 22.0952C17.6909 22.0417 17.6472 21.978 17.6171 21.9076C17.5869 21.8372 17.5709 21.7616 17.57 21.685C17.57 21.367 17.835 21.11 18.16 21.11C18.485 21.11 18.75 21.367 18.75 21.685C18.7491 21.7616 18.7331 21.8372 18.703 21.9076C18.6728 21.978 18.6291 22.0417 18.5743 22.0952C18.5195 22.1487 18.4548 22.1909 18.3837 22.2193C18.3126 22.2478 18.2366 22.2619 18.16 22.261ZM21.696 19.576C21.37 19.576 21.106 19.318 21.106 19C21.106 18.682 21.37 18.425 21.696 18.425C22.021 18.425 22.286 18.682 22.286 19C22.286 19.318 22.021 19.576 21.696 19.576ZM17.571 26.863C17.137 26.863 16.785 26.519 16.785 26.096C16.785 25.673 17.137 25.329 17.571 25.329C18.004 25.329 18.356 25.672 18.356 26.096C18.356 26.52 18.004 26.863 17.571 26.863ZM21.106 17.273C21.0041 17.2742 20.903 17.2553 20.8084 17.2174C20.7138 17.1795 20.6276 17.1233 20.5547 17.0521C20.4818 16.9809 20.4236 16.896 20.3835 16.8023C20.3434 16.7086 20.3222 16.6079 20.321 16.506C20.321 16.083 20.672 15.739 21.106 15.739C21.54 15.739 21.891 16.083 21.891 16.506C21.8898 16.6079 21.8686 16.7086 21.8285 16.8023C21.7884 16.896 21.7303 16.9809 21.6574 17.0521C21.5845 17.1233 21.4983 17.1795 21.4037 17.2174C21.3091 17.2553 21.2079 17.2742 21.106 17.273ZM22.286 24.945C22.184 24.9463 22.0828 24.9275 21.9881 24.8897C21.8933 24.8518 21.807 24.7957 21.734 24.7244C21.661 24.6532 21.6028 24.5683 21.5626 24.4745C21.5225 24.3808 21.5012 24.28 21.5 24.178C21.5 23.754 21.852 23.411 22.285 23.411C22.719 23.411 23.071 23.754 23.071 24.178C23.0698 24.28 23.0486 24.3808 23.0084 24.4745C22.9683 24.5683 22.91 24.6532 22.837 24.7244C22.764 24.7957 22.6777 24.8518 22.583 24.8897C22.4883 24.9275 22.387 24.9463 22.285 24.945H22.286ZM6.76502 21.11C6.22302 21.11 5.78302 20.68 5.78302 20.151C5.78302 19.622 6.22302 19.193 6.76502 19.193C7.30702 19.193 7.74702 19.623 7.74702 20.151C7.74702 20.679 7.30702 21.11 6.76502 21.11ZM16.195 24.945C15.435 24.945 14.82 24.344 14.82 23.602C14.82 22.86 15.435 22.259 16.195 22.259C16.954 22.259 17.57 22.861 17.57 23.602C17.57 24.343 16.954 24.945 16.195 24.945ZM8.73002 18.425C7.97002 18.425 7.35502 17.823 7.35502 17.082C7.35502 16.341 7.97002 15.739 8.73002 15.739C9.49002 15.739 10.105 16.34 10.105 17.082C10.105 17.824 9.48902 18.425 8.73002 18.425ZM16.195 21.492C15.652 21.492 15.212 21.063 15.212 20.534C15.212 20.005 15.652 19.576 16.195 19.576C16.737 19.576 17.177 20.005 17.177 20.534C17.177 21.063 16.737 21.492 16.195 21.492ZM11.48 13.056C11.154 13.056 10.89 12.798 10.89 12.48C10.89 12.162 11.154 11.904 11.48 11.904C11.806 11.904 12.07 12.162 12.07 12.48C12.07 12.798 11.806 13.056 11.48 13.056ZM15.212 15.356C14.562 15.356 14.034 14.841 14.034 14.206C14.034 13.57 14.562 13.054 15.212 13.054C15.862 13.054 16.39 13.57 16.39 14.205C16.39 14.841 15.863 15.357 15.212 15.357V15.356ZM17.962 16.506C17.8601 16.5072 17.759 16.4883 17.6644 16.4504C17.5698 16.4125 17.4836 16.3563 17.4107 16.2851C17.3378 16.2139 17.2796 16.129 17.2395 16.0353C17.1994 15.9416 17.1782 15.8409 17.177 15.739C17.177 15.316 17.528 14.972 17.962 14.972C18.396 14.972 18.747 15.316 18.747 15.739C18.7458 15.8409 18.7246 15.9416 18.6845 16.0353C18.6444 16.129 18.5863 16.2139 18.5134 16.2851C18.4405 16.3563 18.3543 16.4125 18.2597 16.4504C18.1651 16.4883 18.0639 16.5072 17.962 16.506V16.506ZM19.337 6.918C19.011 6.918 18.747 6.661 18.747 6.343C18.747 6.025 19.011 5.767 19.337 5.767C19.663 5.767 19.927 6.025 19.927 6.343C19.927 6.661 19.663 6.918 19.337 6.918ZM16.587 6.917C16.4596 6.91858 16.333 6.89503 16.2147 6.84768C16.0963 6.80033 15.9884 6.73011 15.8972 6.64104C15.806 6.55198 15.7333 6.44581 15.6831 6.32861C15.633 6.2114 15.6065 6.08547 15.605 5.958C15.6066 5.83061 15.6332 5.70478 15.6834 5.5877C15.7336 5.47061 15.8064 5.36456 15.8976 5.2756C15.9888 5.18664 16.0966 5.11651 16.2149 5.06922C16.3332 5.02193 16.4596 4.99841 16.587 5C16.7145 4.99828 16.841 5.0217 16.9595 5.06893C17.0779 5.11616 17.1858 5.18626 17.2771 5.27524C17.3684 5.36421 17.4413 5.47031 17.4915 5.58746C17.5418 5.70461 17.5685 5.83053 17.57 5.958C17.5686 6.08555 17.542 6.21157 17.4918 6.32884C17.4416 6.44611 17.3688 6.55232 17.2774 6.6414C17.1861 6.73048 17.0782 6.80068 16.9597 6.84797C16.8412 6.89526 16.7146 6.91871 16.587 6.917V6.917ZM17.177 13.054C16.743 13.054 16.392 12.711 16.392 12.287C16.392 11.863 16.743 11.52 17.177 11.52C17.611 11.52 17.962 11.864 17.962 12.287C17.962 12.71 17.611 13.054 17.177 13.054ZM9.71202 21.494C9.06202 21.494 8.53402 20.979 8.53402 20.343C8.53402 19.707 9.06202 19.192 9.71202 19.192C10.362 19.192 10.89 19.707 10.89 20.342C10.89 20.979 10.363 21.494 9.71202 21.494ZM21.105 22.644C20.455 22.644 19.927 22.128 19.927 21.492C19.927 20.857 20.454 20.342 21.105 20.342C21.756 20.342 22.283 20.857 22.283 21.492C22.283 22.128 21.755 22.644 21.105 22.644ZM19.535 25.329C18.884 25.329 18.356 24.813 18.356 24.178C18.356 23.542 18.884 23.026 19.534 23.026C20.184 23.026 20.712 23.542 20.712 24.178C20.712 24.813 20.185 25.328 19.534 25.328L19.535 25.329ZM10.302 25.329C9.54202 25.329 8.92702 24.728 8.92702 23.986C8.92702 23.244 9.54302 22.644 10.302 22.644C11.061 22.644 11.677 23.244 11.677 23.986C11.677 24.728 11.061 25.329 10.302 25.329ZM6.17702 15.357C5.52702 15.357 4.99902 14.841 4.99902 14.205C4.99902 13.57 5.52602 13.055 6.17702 13.055C6.82802 13.055 7.35502 13.57 7.35502 14.205C7.35502 14.841 6.82702 15.357 6.17702 15.357Z" fill="white"/>
<path opacity="0.5" d="M12.499 17.124C11.631 17.124 10.927 16.438 10.927 15.59C10.927 14.743 11.631 14.056 12.5 14.056C13.369 14.056 14.072 14.743 14.072 15.59C14.072 16.438 13.368 17.124 12.5 17.124H12.499ZM20.749 14.824C19.881 14.824 19.177 14.137 19.177 13.289C19.177 12.442 19.881 11.755 20.75 11.755C21.618 11.755 22.322 12.442 22.322 13.289C22.322 14.137 21.618 14.823 20.75 14.823L20.749 14.824ZM25.07 21.345C24.42 21.345 23.892 20.83 23.892 20.194C23.892 19.558 24.42 19.043 25.07 19.043C25.72 19.043 26.248 19.558 26.248 20.193C26.248 20.83 25.721 21.345 25.07 21.345ZM26.25 16.742C26.097 16.7437 25.9452 16.7153 25.8032 16.6583C25.6612 16.6013 25.5318 16.517 25.4224 16.41C25.313 16.303 25.2258 16.1755 25.1656 16.0348C25.1055 15.8942 25.0737 15.743 25.072 15.59C25.072 14.955 25.599 14.44 26.25 14.44C26.9 14.44 27.427 14.955 27.427 15.59C27.427 16.226 26.9 16.742 26.25 16.742ZM21.732 11.372C21.6044 11.3736 21.4778 11.35 21.3594 11.3026C21.241 11.2552 21.1331 11.1849 21.0419 11.0957C20.9507 11.0065 20.8779 10.9002 20.8278 10.7829C20.7778 10.6656 20.7513 10.5396 20.75 10.412C20.7516 10.2846 20.7782 10.1588 20.8284 10.0417C20.8786 9.92461 20.9514 9.81856 21.0426 9.7296C21.1338 9.64064 21.2416 9.57051 21.3599 9.52322C21.4782 9.47594 21.6046 9.45241 21.732 9.454C21.8595 9.45241 21.986 9.47597 22.1044 9.52332C22.2227 9.57067 22.3306 9.64089 22.4218 9.72995C22.513 9.81902 22.5857 9.92519 22.6359 10.0424C22.686 10.1596 22.7126 10.2855 22.714 10.413C22.7124 10.5404 22.6858 10.6662 22.6356 10.7833C22.5854 10.9004 22.5126 11.0064 22.4214 11.0954C22.3302 11.1844 22.2224 11.2545 22.1041 11.3018C21.9858 11.3491 21.8594 11.3726 21.732 11.371V11.372ZM21.927 8.303C21.494 8.303 21.142 7.96 21.142 7.536C21.142 7.112 21.494 6.769 21.927 6.769C22.361 6.769 22.713 7.113 22.713 7.536C22.713 7.959 22.361 8.303 21.927 8.303ZM23.695 9.07C23.369 9.07 23.105 8.812 23.105 8.495C23.105 8.178 23.369 7.919 23.695 7.919C24.021 7.919 24.285 8.177 24.285 8.495C24.285 8.813 24.021 9.07 23.695 9.07ZM26.839 13.674C26.514 13.674 26.249 13.416 26.249 13.098C26.249 12.78 26.514 12.522 26.839 12.522C27.164 12.522 27.429 12.78 27.429 13.098C27.429 13.416 27.165 13.674 26.839 13.674ZM9.945 8.687C9.619 8.687 9.355 8.43 9.355 8.112C9.355 7.794 9.619 7.536 9.945 7.536C10.271 7.536 10.535 7.794 10.535 8.112C10.535 8.43 10.271 8.687 9.945 8.687ZM9.16 13.674C8.834 13.674 8.57 13.416 8.57 13.098C8.57 12.78 8.834 12.522 9.16 12.522C9.486 12.522 9.75 12.78 9.75 13.098C9.75 13.416 9.486 13.674 9.16 13.674ZM10.732 14.441C10.406 14.441 10.142 14.183 10.142 13.865C10.142 13.547 10.406 13.289 10.732 13.289C11.058 13.289 11.322 13.547 11.322 13.865C11.322 14.183 11.058 14.441 10.732 14.441ZM12.695 7.151C12.369 7.151 12.105 6.893 12.105 6.575C12.105 6.257 12.369 6 12.695 6C13.021 6 13.285 6.257 13.285 6.575C13.285 6.893 13.021 7.151 12.695 7.151ZM26.839 18.66C26.514 18.66 26.249 18.402 26.249 18.084C26.249 17.766 26.514 17.509 26.839 17.509C27.164 17.509 27.429 17.766 27.429 18.084C27.429 18.402 27.165 18.66 26.839 18.66ZM24.875 12.522C24.115 12.522 23.5 11.922 23.5 11.18C23.5 10.438 24.115 9.837 24.875 9.837C25.634 9.837 26.25 10.438 26.25 11.18C26.25 11.921 25.634 12.522 24.875 12.522ZM23.695 15.59C23.5676 15.5916 23.4412 15.5681 23.3229 15.5208C23.2046 15.4735 23.0968 15.4034 23.0056 15.3144C22.9144 15.2254 22.8416 15.1194 22.7914 15.0023C22.7412 14.8852 22.7146 14.7594 22.713 14.632C22.713 14.102 23.153 13.674 23.695 13.674C23.8224 13.6724 23.9488 13.6959 24.0671 13.7432C24.1854 13.7905 24.2932 13.8606 24.3844 13.9496C24.4756 14.0386 24.5484 14.1446 24.5986 14.2617C24.6488 14.3788 24.6754 14.5046 24.677 14.632C24.6754 14.7594 24.6488 14.8852 24.5986 15.0023C24.5484 15.1194 24.4756 15.2254 24.3844 15.3144C24.2932 15.4034 24.1854 15.4735 24.0671 15.5208C23.9488 15.5681 23.8224 15.5916 23.695 15.59V15.59ZM10.339 11.371C10.2116 11.3726 10.0852 11.3491 9.96687 11.3018C9.84858 11.2545 9.74076 11.1844 9.64957 11.0954C9.55838 11.0064 9.48561 10.9004 9.43541 10.7833C9.38521 10.6662 9.35857 10.5404 9.357 10.413C9.357 9.883 9.797 9.454 10.339 9.454C10.881 9.454 11.322 9.884 11.322 10.413C11.3204 10.5405 11.2938 10.6664 11.2435 10.7835C11.1932 10.9007 11.1204 11.0068 11.0291 11.0958C10.9378 11.1847 10.8298 11.2548 10.7114 11.3021C10.593 11.3493 10.4665 11.3727 10.339 11.371V11.371ZM14.659 8.686C14.5316 8.68759 14.4052 8.66406 14.2869 8.61678C14.1686 8.56949 14.0608 8.49936 13.9696 8.4104C13.8784 8.32144 13.8056 8.21539 13.7554 8.0983C13.7052 7.98121 13.6786 7.85538 13.677 7.728C13.677 7.198 14.117 6.769 14.66 6.769C15.203 6.769 15.642 7.199 15.642 7.728C15.6404 7.85538 15.6138 7.98121 15.5636 8.0983C15.5134 8.21539 15.4406 8.32144 15.3494 8.4104C15.2582 8.49936 15.1504 8.56949 15.0321 8.61678C14.9138 8.66406 14.7874 8.68759 14.66 8.686H14.659ZM12.107 9.07C11.673 9.07 11.322 8.727 11.322 8.303C11.322 7.879 11.673 7.536 12.107 7.536C12.541 7.536 12.892 7.88 12.892 8.303C12.892 8.726 12.541 9.07 12.107 9.07ZM7.785 12.138C7.68309 12.1392 7.58195 12.1203 7.48734 12.0824C7.39274 12.0445 7.30653 11.9883 7.23363 11.9171C7.16074 11.8459 7.10259 11.761 7.0625 11.6673C7.02241 11.5736 7.00118 11.4729 7 11.371C7 10.948 7.351 10.604 7.785 10.604C8.219 10.604 8.57 10.948 8.57 11.371C8.56882 11.4729 8.54759 11.5736 8.5075 11.6673C8.46741 11.761 8.40926 11.8459 8.33637 11.9171C8.26347 11.9883 8.17726 12.0445 8.08266 12.0824C7.98805 12.1203 7.88691 12.1392 7.785 12.138V12.138ZM24.285 18.276C24.1831 18.2772 24.0819 18.2583 23.9873 18.2204C23.8927 18.1825 23.8065 18.1263 23.7336 18.0551C23.6607 17.9839 23.6026 17.899 23.5625 17.8053C23.5224 17.7116 23.5012 17.6109 23.5 17.509C23.5 17.085 23.851 16.742 24.285 16.742C24.719 16.742 25.07 17.085 25.07 17.509C25.0688 17.6109 25.0476 17.7116 25.0075 17.8053C24.9674 17.899 24.9093 17.9839 24.8364 18.0551C24.7635 18.1263 24.6773 18.1825 24.5827 18.2204C24.4881 18.2583 24.3869 18.2772 24.285 18.276V18.276ZM15.839 18.66C15.079 18.66 14.464 18.059 14.464 17.317C14.464 16.575 15.08 15.975 15.839 15.975C16.599 15.975 17.214 16.575 17.214 17.317C17.214 18.059 16.599 18.66 15.839 18.66V18.66ZM13.285 19.427C13.1831 19.4282 13.0819 19.4093 12.9873 19.3714C12.8927 19.3335 12.8065 19.2773 12.7336 19.2061C12.6607 19.1349 12.6026 19.05 12.5625 18.9563C12.5224 18.8626 12.5012 18.7619 12.5 18.66C12.5 18.236 12.851 17.893 13.285 17.893C13.719 17.893 14.07 18.236 14.07 18.66C14.0688 18.7619 14.0476 18.8626 14.0075 18.9563C13.9674 19.05 13.9093 19.1349 13.8364 19.2061C13.7635 19.2773 13.6773 19.3335 13.5827 19.3714C13.4881 19.4093 13.3869 19.4282 13.285 19.427ZM13.677 22.495C13.027 22.495 12.5 21.979 12.5 21.343C12.5 20.708 13.027 20.193 13.677 20.193C14.327 20.193 14.855 20.708 14.855 21.343C14.855 21.979 14.328 22.495 13.677 22.495ZM13.677 24.795C13.4714 24.7974 13.2732 24.7181 13.126 24.5744C12.9788 24.4308 12.8946 24.2346 12.892 24.029C12.892 23.605 13.244 23.262 13.677 23.262C14.11 23.262 14.463 23.605 14.463 24.029C14.4618 24.131 14.4406 24.2318 14.4004 24.3255C14.3603 24.4193 14.302 24.5042 14.229 24.5755C14.156 24.6467 14.0697 24.7028 13.975 24.7407C13.8802 24.7785 13.779 24.7973 13.677 24.796V24.795Z" fill="white"/>
</g>
<defs>
<clipPath id="clip0_0_887">
<rect width="32" height="32" fill="white"/>
</clipPath>
</defs>
</svg>
