<svg width="32" height="32" viewBox="0 0 32 32" fill="none" xmlns="http://www.w3.org/2000/svg">
<g clip-path="url(#clip0_0_876)">
<path d="M16 32C24.8366 32 32 24.8366 32 16C32 7.16344 24.8366 0 16 0C7.16344 0 0 7.16344 0 16C0 24.8366 7.16344 32 16 32Z" fill="#0CAFA5"/>
<path d="M8.06 12.0086C8.027 11.9886 8 12.0046 8 12.0436V14.3456C8.00107 14.3666 8.00706 14.387 8.01748 14.4053C8.0279 14.4235 8.04247 14.4391 8.06 14.4506L10.97 16.1326C10.9875 16.1442 11.0021 16.1597 11.0125 16.178C11.0229 16.1962 11.0289 16.2167 11.03 16.2376V24.5676C11.0314 24.5888 11.0377 24.6093 11.0485 24.6275C11.0592 24.6458 11.0742 24.6612 11.092 24.6726L13.085 25.8226C13.118 25.8426 13.145 25.8266 13.145 25.7876V15.0176C13.1441 14.9965 13.1382 14.9758 13.1277 14.9574C13.1173 14.939 13.1027 14.9233 13.085 14.9116L8.06 12.0086ZM23.234 12.0086C23.267 11.9886 23.294 12.0046 23.294 12.0436V14.3456C23.2929 14.3666 23.2869 14.387 23.2765 14.4053C23.2661 14.4235 23.2515 14.4391 23.234 14.4506L20.324 16.1306C20.3063 16.1423 20.2917 16.158 20.2813 16.1764C20.2708 16.1948 20.2649 16.2155 20.264 16.2366V24.5666C20.2629 24.5879 20.2568 24.6085 20.2462 24.6269C20.2356 24.6454 20.2208 24.661 20.203 24.6726L18.21 25.8226C18.176 25.8426 18.149 25.8266 18.149 25.7876V15.0176C18.15 14.9965 18.1559 14.9759 18.1664 14.9575C18.1768 14.9391 18.1914 14.9234 18.209 14.9116L23.234 12.0086V12.0086Z" fill="white"/>
<path d="M23.961 7.04346C23.961 7.00546 23.934 6.98946 23.901 7.00846L16.041 11.5545C16.0224 11.5638 16.0018 11.5686 15.981 11.5686C15.9602 11.5686 15.9396 11.5638 15.921 11.5545L8.061 7.00846C8.027 6.98846 8 7.00546 8 7.04346V9.34546C8.00107 9.36644 8.00706 9.38687 8.01748 9.40511C8.0279 9.42335 8.04247 9.43888 8.06 9.45046L14.864 13.3845C14.8815 13.3961 14.896 13.4116 14.9064 13.4299C14.9168 13.4481 14.9229 13.4685 14.924 13.4895V27.7745C14.925 27.7957 14.9311 27.8164 14.9417 27.8348C14.9523 27.8533 14.9672 27.8689 14.985 27.8805L15.92 28.4205C15.939 28.4298 15.9598 28.4347 15.981 28.4347C16.0022 28.4347 16.023 28.4298 16.042 28.4205L16.977 27.8805C16.9947 27.8688 17.0093 27.8531 17.0197 27.8347C17.0302 27.8162 17.0361 27.7956 17.037 27.7745V13.4905C17.0383 13.4694 17.0444 13.4489 17.055 13.4307C17.0656 13.4125 17.0803 13.397 17.098 13.3855L23.901 9.45046C23.9187 9.43878 23.9333 9.42309 23.9437 9.40467C23.9542 9.38624 23.9601 9.36561 23.961 9.34446V7.04446V7.04346ZM16.017 12.8595C16.009 12.8595 16.006 12.8535 16.01 12.8465C16.014 12.8395 16.02 12.8395 16.024 12.8465C16.028 12.8535 16.024 12.8595 16.017 12.8595V12.8595Z" fill="white"/>
<path d="M15.069 7.17517C15.0498 7.17943 15.0325 7.19002 15.02 7.20525C15.0075 7.22048 15.0004 7.23947 15 7.25917V10.1322C15.0013 10.1532 15.0074 10.1737 15.018 10.1919C15.0286 10.2102 15.0433 10.2257 15.061 10.2372L15.996 10.7772C16.034 10.7972 16.079 10.7972 16.118 10.7772L17.053 10.2372C17.0705 10.2255 17.085 10.21 17.0954 10.1918C17.1058 10.1735 17.1119 10.1531 17.113 10.1322V7.25817C17.1128 7.23856 17.106 7.21958 17.0936 7.20433C17.0813 7.18909 17.0641 7.17846 17.045 7.17417L16.125 7.00517C16.0796 6.99828 16.0334 6.99828 15.988 7.00517L15.069 7.17517V7.17517Z" fill="white"/>
</g>
<defs>
<clipPath id="clip0_0_876">
<rect width="32" height="32" fill="white"/>
</clipPath>
</defs>
</svg>
