<svg width="32" height="32" viewBox="0 0 32 32" fill="none" xmlns="http://www.w3.org/2000/svg">
<g clip-path="url(#clip0_0_872)">
<path d="M16 32C24.8366 32 32 24.8366 32 16C32 7.16344 24.8366 0 16 0C7.16344 0 0 7.16344 0 16C0 24.8366 7.16344 32 16 32Z" fill="#1C1C1C"/>
<path d="M25 11V21L16.5 26L8 21V11L16.5 6L25 11ZM16.232 16.407L15.442 16.874L16.918 17.736L17.703 17.273L19.802 18.508L16.671 20.348L10.176 16.562L10.149 18.405L16.675 22.195L22.945 18.508L19.271 16.346L20.011 15.909L18.535 15.047L17.8 15.481L16.77 14.875L17.671 14.342L16.195 13.479L15.298 14.009L13.544 12.977L16.674 11.136L21.002 13.665L22.588 12.727L16.671 9.289L10.401 12.977L13.73 14.936L13.102 15.306L14.578 16.169L15.201 15.801L16.232 16.407Z" fill="white"/>
</g>
<defs>
<clipPath id="clip0_0_872">
<rect width="32" height="32" fill="white"/>
</clipPath>
</defs>
</svg>
