<svg width="32" height="32" viewBox="0 0 32 32" fill="none" xmlns="http://www.w3.org/2000/svg">
<g clip-path="url(#clip0_0_841)">
<path d="M16 32C24.8366 32 32 24.8366 32 16C32 7.16344 24.8366 0 16 0C7.16344 0 0 7.16344 0 16C0 24.8366 7.16344 32 16 32Z" fill="#55DDFF"/>
<path d="M11.8272 10.12C11.8337 8.22394 12.5468 6.3984 13.8272 5C14.1772 4.65 14.2172 4.58 14.2172 4.3C14.2172 4.02 14.2172 4 14.0072 4C13.7476 4.02875 13.4904 4.07553 13.2372 4.14C10.2525 4.84507 7.64691 6.65721 5.94724 9.21C5.12663 10.4205 4.54925 11.7791 4.24724 13.21C3.99686 14.5279 3.93624 15.8749 4.06724 17.21C4.43465 20.1725 5.9234 22.8816 8.22724 24.78C9.45724 25.78 10.8372 26.58 10.8372 26.22C10.7565 26.0649 10.6481 25.926 10.5172 25.81C9.89845 25.128 9.43566 24.3193 9.16107 23.4403C8.88649 22.5613 8.80669 21.633 8.92724 20.72C9.01619 19.5856 9.37016 18.4879 9.96069 17.5153C10.5512 16.5427 11.3618 15.7222 12.3272 15.12C12.5711 14.9463 12.8286 14.7924 13.0972 14.66C13.2472 14.66 13.1572 14.36 12.7872 13.66C12.1542 12.588 11.8225 11.3649 11.8272 10.12V10.12ZM27.3372 13.24C26.9836 11.5175 26.2557 9.8937 25.205 8.48361C24.1544 7.07353 22.8067 5.91158 21.2572 5.08C20.6972 4.77 20.4172 4.7 20.4172 4.89C20.4701 5.04991 20.5514 5.19896 20.6572 5.33C21.2771 6.21055 21.6248 7.25367 21.6572 8.33C21.7202 8.89117 21.6637 9.45933 21.4913 9.99708C21.319 10.5348 21.0347 11.03 20.6572 11.45C20.4634 11.6555 20.1968 11.7769 19.9145 11.7881C19.6322 11.7993 19.3568 11.6995 19.1472 11.51C18.7472 11.22 18.7472 11.02 18.9972 10.65C19.527 9.8709 19.7901 8.94117 19.7472 8C19.7861 7.62162 19.7398 7.23934 19.6118 6.88116C19.4837 6.52299 19.2772 6.198 19.0072 5.93C18.7617 5.67536 18.4508 5.49311 18.1087 5.40317C17.7666 5.31322 17.4063 5.31905 17.0672 5.42C16.5824 5.61535 16.1534 5.92757 15.8184 6.32886C15.4834 6.73014 15.2528 7.20804 15.1472 7.72C14.9179 8.46 14.7835 9.22613 14.7472 10C14.7546 11.185 15.0461 12.3509 15.5972 13.4C15.9817 14.003 16.4574 14.5427 17.0072 15C17.1172 15.072 17.2142 15.16 17.2972 15.26C17.2006 15.3395 17.0881 15.3974 16.9672 15.43C16.1944 15.7957 15.5025 16.3124 14.9323 16.9495C14.3622 17.5867 13.9252 18.3314 13.6472 19.14C13.2812 20.0785 13.1176 21.0838 13.1672 22.09C13.147 22.5643 13.2255 23.0375 13.3976 23.4799C13.5697 23.9223 13.8318 24.3241 14.1672 24.66C14.5469 24.9886 14.9961 25.2268 15.4811 25.3567C15.9661 25.4866 16.4742 25.5048 16.9672 25.41C18.2882 25.3112 19.5235 24.7185 20.4272 23.75C20.8372 23.31 20.9172 23.26 20.9972 23.36C21.0772 23.46 21.0572 23.52 20.9072 23.77C19.9577 25.3919 18.4338 26.5981 16.6372 27.15C16.2872 27.24 16.1372 27.31 16.1372 27.39C16.1372 27.65 18.3272 27.29 19.6572 26.82C21.3537 26.2002 22.8898 25.2085 24.153 23.9176C25.4162 22.6267 26.3743 21.0694 26.9572 19.36C27.3885 18.1695 27.5755 16.9044 27.5072 15.64C27.5528 14.836 27.4957 14.0295 27.3372 13.24V13.24Z" fill="white"/>
</g>
<defs>
<clipPath id="clip0_0_841">
<rect width="32" height="32" fill="white"/>
</clipPath>
</defs>
</svg>
