<svg width="32" height="32" viewBox="0 0 32 32" fill="none" xmlns="http://www.w3.org/2000/svg">
<g clip-path="url(#clip0_0_1224)">
<path d="M16 32C24.8366 32 32 24.8366 32 16C32 7.16344 24.8366 0 16 0C7.16344 0 0 7.16344 0 16C0 24.8366 7.16344 32 16 32Z" fill="#0093DD"/>
<path fill-rule="evenodd" clip-rule="evenodd" d="M14.04 15.9991L19.214 21.3291L22.479 17.9661C22.614 17.8253 22.776 17.7132 22.9555 17.6366C23.1349 17.5601 23.3279 17.5206 23.523 17.5206C23.7181 17.5206 23.9111 17.5601 24.0905 17.6366C24.27 17.7132 24.432 17.8253 24.567 17.9661C24.8447 18.2555 24.9998 18.641 24.9998 19.0421C24.9998 19.4432 24.8447 19.8287 24.567 20.1181L20.258 24.5581C20.1223 24.6977 19.96 24.8087 19.7807 24.8844C19.6014 24.9602 19.4087 24.9992 19.214 24.9992C19.0193 24.9992 18.8266 24.9602 18.6473 24.8844C18.468 24.8087 18.3057 24.6977 18.17 24.5581L11.954 18.1521V21.9601C11.954 22.7961 11.288 23.4821 10.477 23.4821C9.661 23.4821 9 22.8001 9 21.9601V10.0391C9 9.19911 9.661 8.51711 10.477 8.51711C11.292 8.51711 11.954 9.19911 11.954 10.0391V13.8471L18.17 7.44111C18.3057 7.30153 18.468 7.19057 18.6473 7.1148C18.8266 7.03904 19.0193 7 19.214 7C19.4087 7 19.6014 7.03904 19.7807 7.1148C19.96 7.19057 20.1223 7.30153 20.258 7.44111L24.568 11.8811C24.8457 12.1705 25.0008 12.556 25.0008 12.9571C25.0008 13.3582 24.8457 13.7437 24.568 14.0331C24.433 14.1743 24.2708 14.2866 24.0912 14.3633C23.9116 14.4401 23.7183 14.4797 23.523 14.4797C23.3277 14.4797 23.1344 14.4401 22.9548 14.3633C22.7752 14.2866 22.613 14.1743 22.478 14.0331L19.214 10.6691L14.04 15.9991ZM19.216 14.4761C20.032 14.4761 20.694 15.1581 20.694 15.9991C20.694 16.8401 20.032 17.5221 19.216 17.5221C18.4 17.5221 17.738 16.8401 17.738 15.9991C17.738 15.1581 18.4 14.4761 19.216 14.4761Z" fill="white"/>
</g>
<defs>
<clipPath id="clip0_0_1224">
<rect width="32" height="32" fill="white"/>
</clipPath>
</defs>
</svg>
