<svg width="32" height="32" viewBox="0 0 32 32" fill="none" xmlns="http://www.w3.org/2000/svg">
<g clip-path="url(#clip0_0_1213)">
<path d="M16 32C24.8366 32 32 24.8366 32 16C32 7.16344 24.8366 0 16 0C7.16344 0 0 7.16344 0 16C0 24.8366 7.16344 32 16 32Z" fill="#EA0017"/>
<path d="M20.7486 15.212C20.7796 15.212 20.8546 15.244 20.9186 15.282C21.0946 15.389 21.1856 15.604 21.1686 15.862C21.1586 16.038 21.1156 16.158 20.9386 16.518C20.8186 16.762 20.5926 17.171 20.4386 17.428C20.1726 17.866 20.0456 18.096 20.0456 18.131C20.0456 18.141 20.2256 17.979 20.4456 17.771C20.8576 17.383 21.1466 17.199 21.2776 17.241C21.4546 17.298 21.5076 17.633 21.3906 17.969C21.3236 18.169 21.1436 18.533 20.9636 18.84C20.8596 19.01 20.8506 19.044 21.0256 18.944L21.1716 18.858C21.5356 18.639 21.7686 18.615 21.8956 18.788C22.0356 18.978 22.0116 19.557 21.8386 20.058C21.7996 20.171 21.7786 20.273 21.7886 20.284C21.7996 20.294 21.9086 20.259 22.0286 20.206C22.1526 20.15 22.3366 20.086 22.4426 20.062C22.7986 19.977 22.9506 20.129 23.0176 20.633C23.0776 21.071 22.9116 21.435 22.6076 21.544C22.5556 21.562 22.5476 21.554 22.5656 21.488C22.5796 21.442 22.5976 21.361 22.6116 21.304C22.6296 21.212 22.6256 21.209 22.5616 21.244C22.4596 21.297 22.3436 21.509 22.3016 21.721C22.1746 22.349 22.0156 22.659 21.5986 23.083C21.1396 23.549 20.6636 23.863 19.9226 24.195C19.5766 24.35 19.0896 24.657 18.5706 25.049L18.4186 25.165L18.1186 24.89L17.9686 24.758C17.6676 24.504 17.3656 24.306 17.1236 24.208C17.0514 24.1805 16.9797 24.1515 16.9086 24.121C16.9016 24.114 16.9616 24.036 17.0426 23.944C17.1216 23.8529 17.1826 23.7477 17.2226 23.634C17.2726 23.439 17.2996 23.394 17.4096 23.33C17.5366 23.26 17.7416 23.316 18.2286 23.56C18.4436 23.665 18.6266 23.754 18.6446 23.754C18.6836 23.754 18.6766 23.651 18.6266 23.521C18.5886 23.415 18.6026 23.351 18.7646 22.864C18.9796 22.222 19.0366 21.989 18.9946 21.946C18.9416 21.893 18.8986 21.978 18.6516 22.606C18.5216 22.935 18.4086 23.214 18.4016 23.221C18.3906 23.231 18.3126 23.203 18.2246 23.161C18.0796 23.09 18.0656 23.069 18.0836 22.991C18.1856 22.581 18.2456 21.657 18.1826 21.431C18.1366 21.272 18.0866 21.339 18.0446 21.618C17.9526 22.211 17.8506 22.681 17.8086 22.723C17.7686 22.762 17.7446 22.751 17.6666 22.659L17.5756 22.546V19.23L18.3586 18.22L18.5196 18.012C19.7726 16.395 20.1316 15.929 20.4096 15.573C20.5646 15.375 20.7166 15.213 20.7486 15.213V15.212ZM13.8766 20.232C14.2116 19.913 14.2866 19.885 14.4026 20.048C14.4906 20.168 14.5396 20.45 14.5396 20.835V21.152L14.7026 21.325L14.7686 21.401C14.8336 21.481 14.8926 21.571 14.9136 21.621C14.9666 21.752 14.9886 22.253 14.9456 22.423C14.9316 22.479 14.9666 22.585 15.0626 22.769C15.7156 24.019 15.8496 24.29 15.8326 24.311L15.8106 24.315L15.7706 24.312C15.7325 24.3053 15.695 24.2952 15.6586 24.282C15.5066 24.234 15.3266 24.226 14.6886 24.244C14.3036 24.254 14.0736 24.191 14.0526 24.068C14.0426 24.018 14.1866 23.788 14.4906 23.368C14.5826 23.242 14.5926 23.168 14.5406 23.083C14.5156 23.041 14.3916 23.026 13.9406 23.013C13.1846 22.988 13.1606 22.945 13.6926 22.543C13.9156 22.373 14.1766 22.105 14.2076 22.013C14.2186 21.978 14.2006 21.911 14.1696 21.862L14.1096 21.77L13.6796 21.795L13.5626 21.801C13.0886 21.821 13.0026 21.753 13.1626 21.53C13.2026 21.477 13.2226 21.424 13.2096 21.41C13.1996 21.4 12.9896 21.389 12.7536 21.389C12.3476 21.389 11.9806 21.343 11.9176 21.286C11.9036 21.272 12.0766 21.202 12.3056 21.131C12.6976 21.011 13.2236 20.771 13.4636 20.601C13.6059 20.4829 13.7437 20.3595 13.8766 20.231V20.232ZM15.1836 17.192C15.1996 17.202 15.2386 17.517 15.2806 17.895C15.3206 18.272 15.3516 18.618 15.3516 18.66C15.3516 18.706 15.3656 18.742 15.3836 18.742C15.4006 18.742 15.5066 18.6 15.6196 18.424C15.7366 18.251 15.8396 18.106 15.8496 18.106C15.8776 18.106 15.8956 18.24 15.9896 19.243C16.0366 19.705 16.0826 20.083 16.0926 20.083C16.1026 20.083 16.1596 19.885 16.2126 19.642C16.2696 19.398 16.3256 19.2 16.3396 19.2C16.3606 19.2 17.3316 22.01 17.3286 22.066C17.3286 22.144 17.2436 22.052 16.9046 21.615C16.6996 21.346 16.5056 21.099 16.4746 21.057L16.4106 20.983L16.3156 21.089L16.2756 21.134C16.1848 21.2361 16.0932 21.3374 16.0006 21.438L15.7786 21.682L15.7606 21.562L15.7576 21.532C15.7416 21.402 15.6966 20.932 15.6516 20.425C15.6056 19.864 15.5566 19.391 15.5416 19.373C15.5316 19.356 15.3976 19.455 15.2416 19.596C15.0866 19.737 14.9456 19.86 14.9246 19.864C14.9036 19.871 14.8996 19.822 14.9106 19.74C14.9356 19.56 15.1756 17.295 15.1756 17.227C15.1756 17.199 15.1826 17.185 15.1926 17.192H15.1836ZM10.6536 15.244C10.9076 15.212 11.4336 15.24 11.6776 15.307C11.9456 15.374 12.2456 15.502 12.4856 15.639C12.7226 15.78 13.3046 16.342 13.3926 16.519C13.4626 16.659 13.4986 16.677 13.0716 16.352C12.7345 16.102 12.3608 15.9057 11.9636 15.77C11.7656 15.708 11.6536 15.692 11.3486 15.69L11.2046 15.689C10.7596 15.689 10.6826 15.699 10.4276 15.784C8.81464 16.331 7.99964 18.382 8.84364 19.769C9.09364 20.185 9.49664 20.556 10.0396 20.869C10.3466 21.049 10.3226 21.079 9.94464 20.983C9.60836 20.8993 9.29487 20.7419 9.02682 20.5223C8.75877 20.3027 8.54284 20.0262 8.39464 19.713C8.20064 19.317 8.11664 18.95 8.09164 18.424C8.05664 17.574 8.27864 16.899 8.80764 16.257C9.22764 15.745 9.97264 15.339 10.6536 15.244V15.244ZM9.35464 17.994C9.40764 17.831 9.41464 17.842 9.54964 18.216C9.81855 18.925 10.2266 19.573 10.7496 20.122C10.8726 20.252 10.9746 20.369 10.9746 20.382C10.9746 20.439 10.6966 20.369 10.4316 20.249C9.78964 19.949 9.41164 19.324 9.33064 18.409C9.31664 18.219 9.32064 18.092 9.35464 17.993V17.994ZM12.3166 12.724C12.7606 12.657 12.7826 12.664 12.4926 12.798C12.3476 12.865 12.2066 12.928 12.1826 12.946L12.1546 12.963C12.0746 13.021 12.2216 13.043 12.7296 13.059C13.3756 13.077 13.3796 13.08 13.3256 13.292C13.3046 13.377 13.2976 13.377 12.9056 13.377C12.6801 13.38 12.4549 13.3977 12.2316 13.43C11.9566 13.48 11.5576 13.645 11.5576 13.712C11.5576 13.73 11.7236 13.765 11.9276 13.79C12.5566 13.864 13.1676 14.03 13.5906 14.242C13.7566 14.33 13.8446 14.442 14.1766 15.018C15.0696 16.56 15.2036 16.779 15.5246 17.206C15.9346 17.75 16.3746 18.244 16.8546 18.699L17.2926 19.112V19.685C17.2886 19.893 17.2756 20.053 17.2576 20.065C17.2226 20.086 17.2436 20.122 16.7636 19.306C16.4137 18.7116 16.0356 18.1343 15.6306 17.576C15.5273 17.4362 15.4305 17.2917 15.3406 17.143C15.3306 17.111 15.2986 17.083 15.2736 17.079C15.2496 17.079 15.1336 16.966 15.0166 16.829C14.6846 16.44 13.9366 15.766 13.4276 15.403C13.1356 15.191 12.7506 14.93 12.7296 14.93C12.7226 14.93 12.5986 14.866 12.4536 14.785C12.1335 14.6151 11.798 14.4759 11.4516 14.369C11.2076 14.302 10.7216 14.284 10.4106 14.326C9.96208 14.406 9.53094 14.5637 9.13664 14.792C9.0386 14.8552 8.93711 14.913 8.83264 14.965C8.80764 14.965 8.49764 15.187 8.25764 15.382C8.14764 15.47 8.05964 15.519 8.05264 15.498C8.03464 15.448 8.33164 15.036 8.58964 14.743C8.93897 14.3754 9.32574 14.0453 9.74364 13.758C10.4736 13.271 11.5436 12.84 12.3166 12.724V12.724ZM9.90564 17.125C9.77564 16.769 9.77864 16.74 9.94464 16.835C10.0613 16.9076 10.1754 16.9843 10.2866 17.065C10.9696 17.5729 11.5205 18.2375 11.8926 19.003C12.0446 19.324 12.1506 19.624 12.1256 19.649L12.1066 19.653L12.0736 19.643C11.9036 19.573 11.3736 19.143 10.9746 18.742C10.4706 18.23 10.1176 17.704 9.90564 17.125V17.125ZM11.0806 16.172C11.0806 16.13 11.4586 16.229 11.6806 16.331C12.1436 16.539 12.4826 16.941 12.6306 17.443C12.7296 17.782 12.7576 18.039 12.7226 18.304C12.6936 18.54 12.6976 18.548 12.4756 18.05C12.2098 17.498 11.8581 16.9917 11.4336 16.55C11.312 16.4278 11.1942 16.3017 11.0806 16.172V16.172ZM16.8696 10.278C17.0426 10.228 17.0396 10.228 17.0956 10.313C17.1906 10.461 17.3636 11.037 17.4376 11.457C17.4836 11.732 17.5156 12.11 17.5296 12.561L17.5496 13.246L17.3776 13.222L17.3386 13.216C17.0946 13.176 16.8956 13.101 15.5736 12.547C14.8606 12.247 14.2716 12.011 14.2606 12.021C14.2436 12.039 14.5966 12.734 14.8326 13.147C15.2626 13.896 16.0606 14.302 16.9826 14.242C17.2466 14.224 17.3426 14.231 17.4226 14.27C17.6136 14.372 17.7376 14.549 17.8536 14.894C17.9986 15.318 18.2636 15.834 18.4896 16.13C18.5846 16.257 18.6596 16.363 18.6596 16.363C18.6556 16.366 18.5426 16.345 18.4046 16.32C17.7866 16.193 16.7176 15.745 16.4286 15.491C16.0966 15.198 16.3996 15.667 16.7526 15.989C17.1826 16.384 17.8046 16.726 18.5136 16.963C18.7256 17.033 18.9056 17.097 18.9096 17.1C18.9486 17.136 17.9066 18.353 17.8436 18.353C17.7796 18.353 17.4196 18.138 17.0706 17.895C16.6856 17.626 15.8136 16.769 15.5036 16.359C14.6118 15.1623 13.9598 13.8043 13.5836 12.36L13.4736 11.958L13.6116 11.817L13.7006 11.733C14.2256 11.273 15.5536 10.663 16.8696 10.278V10.278ZM22.2796 9.08498C22.3571 9.09255 22.4321 9.11641 22.4996 9.15498C22.5558 9.19448 22.6045 9.24356 22.6436 9.29998C22.6756 9.34598 23.0496 10.75 23.4736 12.413C24.3206 15.727 24.3136 15.682 24.1226 15.883C24.0626 15.9421 23.9921 15.9896 23.9146 16.023C23.7516 16.077 21.2346 16.623 21.2216 16.61C21.2354 16.536 21.2603 16.4645 21.2956 16.398C21.4756 15.988 21.4856 15.608 21.3156 15.336C21.1996 15.146 20.8996 14.966 20.7056 14.966C20.5926 14.966 20.5576 15 19.9576 15.776C19.6116 16.226 19.3156 16.578 19.3016 16.564C19.2866 16.55 18.9656 15.174 18.5816 13.511C18.0866 11.365 17.8926 10.454 17.9106 10.381C17.9473 10.2455 18.0328 10.1283 18.1506 10.052C18.3026 9.97098 22.1426 9.07098 22.2806 9.08498H22.2796ZM22.8626 13.091C22.8556 13.077 22.7286 13.179 22.5796 13.321C22.4316 13.458 22.1286 13.741 21.9096 13.949L21.5066 14.326L20.6426 14.047C20.3484 13.9458 20.0505 13.8554 19.7496 13.776C19.7356 13.779 20.0666 14.093 20.4906 14.471C20.9176 14.849 21.3806 15.265 21.5246 15.399C21.6696 15.529 21.7996 15.625 21.8146 15.611C21.8526 15.572 22.8726 13.119 22.8626 13.091V13.091ZM20.7486 14.192C20.9916 14.273 21.2636 14.347 21.3516 14.362L21.5106 14.382L21.6276 14.909C21.6906 15.198 21.7366 15.442 21.7256 15.449C21.7186 15.456 21.6346 15.385 21.5426 15.293C21.3004 15.0633 21.0543 14.8376 20.8046 14.616C20.608 14.4423 20.4163 14.2633 20.2296 14.079C20.2086 14.026 20.2926 14.044 20.7486 14.192V14.192ZM12.1216 9.79099C12.7146 9.64299 12.9506 9.60698 12.9506 9.66698C12.9506 9.68498 12.8656 9.71998 12.7666 9.74098C12.4776 9.81198 11.7326 10.073 11.3626 10.236C10.9596 10.412 10.4446 10.712 10.2506 10.881L10.1096 11.001L10.2326 11.03L10.3846 11.066C10.8886 11.2 11.8146 11.549 12.2546 11.778C12.5766 11.944 12.9856 12.223 12.9856 12.279C12.9856 12.293 12.8796 12.318 12.7496 12.332C12.2096 12.385 11.3236 12.604 10.6916 12.837C9.91864 13.127 8.93764 13.652 8.33764 14.104C7.94564 14.4 7.94564 14.4 8.08364 14.203C8.24964 13.963 8.75364 13.44 9.06064 13.193C9.72464 12.667 10.5966 12.286 11.5206 12.12L11.6626 12.096L11.4126 11.979L11.2876 11.926C10.7406 11.708 9.59364 11.426 8.90964 11.347C8.82103 11.3385 8.73355 11.3207 8.64864 11.294C8.55664 11.245 9.75264 10.603 10.4626 10.324C11.0043 10.1128 11.5583 9.93476 12.1216 9.79099V9.79099ZM20.5916 10.454C20.3276 11.234 19.6916 13.204 19.6916 13.246C19.6916 13.278 19.6776 13.313 19.6566 13.324C19.5436 13.394 19.6746 13.454 20.5006 13.726C20.9836 13.882 21.4036 14.012 21.4356 14.012C21.5056 14.012 22.8156 12.787 22.8156 12.724C22.8156 12.699 22.3636 12.209 21.8166 11.637C21.4544 11.2624 21.0967 10.8833 20.7436 10.5C20.6696 10.405 20.6166 10.387 20.5916 10.454V10.454ZM15.8836 13.402C15.8486 13.302 15.8486 13.302 15.9616 13.324C16.0216 13.338 16.1616 13.391 16.2686 13.444C16.5256 13.567 16.5366 13.624 16.3036 13.624C16.0846 13.624 15.9296 13.543 15.8836 13.402ZM20.6416 10.645C20.6586 10.663 20.7546 11.04 20.8536 11.485L21.0366 12.297L20.9376 12.392C20.8006 12.526 19.7516 13.31 19.7376 13.292C19.7276 13.285 19.7516 13.218 19.7906 13.14C19.8606 13.003 20.5566 10.903 20.5916 10.716C20.6056 10.659 20.6276 10.627 20.6416 10.645V10.645ZM12.8656 10.095L12.8376 10.348L12.8266 10.449C12.8056 10.661 12.8186 10.712 12.8796 10.712C12.9196 10.712 12.9436 10.786 12.9716 10.994C13.0316 11.397 13.0456 11.796 13.0036 11.814C12.9826 11.817 12.8336 11.743 12.6686 11.647C12.2833 11.4183 11.8796 11.2223 11.4616 11.061C11.3096 11.005 11.1856 10.949 11.1856 10.938C11.1856 10.864 11.6196 10.532 11.8816 10.405C12.2166 10.243 12.6366 10.098 12.7776 10.095H12.8656V10.095ZM18.2636 8.39999C19.4986 8.16699 19.7566 8.14598 19.9756 8.25898C20.0496 8.29798 20.1456 8.37598 20.1836 8.43198C20.2716 8.55198 20.5046 9.03598 20.5046 9.09198C20.5046 9.11698 20.3066 9.16198 20.0036 9.21198C17.7836 9.56198 15.9626 10.087 14.5756 10.782C14.2388 10.9416 13.9174 11.1321 13.6156 11.351C13.3786 11.531 13.4036 11.581 13.3186 10.779C13.2586 10.236 13.2586 10.204 13.3186 10.045C13.3756 9.89698 13.4066 9.86799 13.6156 9.76299C14.107 9.53742 14.6101 9.33813 15.1226 9.16599C16.0646 8.86599 17.0066 8.63599 18.2626 8.39999H18.2636ZM14.8396 6.01698H14.8756C14.8956 6.01698 14.9596 6.11699 15.0236 6.23299C15.3236 6.77999 15.9306 8.47098 15.8566 8.54498C15.8076 8.57365 15.7531 8.59171 15.6966 8.59799L15.5736 8.61899L15.4536 8.36098L15.3936 8.23199C15.0336 7.48199 14.3876 6.45998 14.3106 6.53298C14.3006 6.54298 14.3246 6.64598 14.3636 6.76298C14.5436 7.27798 14.7866 8.43198 14.7866 8.75998C14.7866 8.85898 14.7696 8.88999 14.6986 8.92299C14.6554 8.94493 14.6087 8.95915 14.5606 8.96498C14.5406 8.96498 14.4236 8.83799 14.3106 8.68299C14.1976 8.52699 14.0916 8.41098 14.0776 8.42498C14.0676 8.44298 14.0316 8.61899 13.9996 8.81999C13.9466 9.18399 13.8936 9.30999 13.8376 9.21999C13.8236 9.19399 13.7916 8.83798 13.7676 8.42498C13.7556 8.14214 13.7356 7.8597 13.7076 7.57798C13.6966 7.52498 13.7036 7.48299 13.7206 7.48299C13.7386 7.48299 13.8766 7.59898 14.0246 7.74298C14.1726 7.88498 14.2996 7.99399 14.3066 7.97999C14.3356 7.92699 13.9536 6.78698 13.7136 6.20798C13.6936 6.15898 13.7276 6.14098 13.9296 6.10998C14.1726 6.06698 14.8116 6.00698 14.8756 6.01798L14.8396 6.01698ZM11.9666 6.77298C12.2496 6.59298 12.4896 6.53298 12.6476 6.59698C12.6956 6.61398 12.7076 6.64699 12.7086 6.88999V7.11498C12.706 7.36348 12.6977 7.61188 12.6836 7.85999L12.6586 8.10999L12.0026 8.09299L11.7346 8.08898C11.1887 8.081 10.6443 8.15001 10.1176 8.29399C9.89464 8.35099 9.69064 8.40399 9.66564 8.40699C9.64064 8.41399 9.61564 8.39298 9.60964 8.36498C9.58764 8.23798 10.3996 7.65898 11.3096 7.15098C11.5826 6.99498 11.8786 6.82598 11.9666 6.77298V6.77298ZM15.5166 5.99998L15.7296 6.35998L15.7996 6.47998C16.1586 7.11198 16.6576 8.16999 16.6576 8.30799C16.6576 8.36799 16.4206 8.42799 16.3786 8.37899C16.3425 8.31846 16.3117 8.25488 16.2866 8.18898C16.0255 7.60322 15.7386 7.02933 15.4266 6.46899C15.3383 6.32129 15.2546 6.17088 15.1756 6.01798C15.1756 6.00798 15.2526 5.99998 15.3446 5.99998H15.5176H15.5166ZM16.1666 6.03499H16.2236C16.3536 6.03499 16.7536 6.05999 17.1096 6.08799C17.4626 6.11699 17.7896 6.14799 17.8396 6.15899L18.0166 6.19398C18.1266 6.21898 18.2106 6.35399 18.4576 6.88299C18.6196 7.23899 18.8596 7.87099 18.8356 7.88799C18.4094 7.95437 17.9847 8.02972 17.5616 8.11399C17.1016 8.20999 17.0106 8.20999 17.0106 8.10699C17.0106 8.03299 16.4526 6.88698 16.2206 6.48398C15.9376 5.99998 15.9376 6.03499 16.2236 6.03499H16.1666Z" fill="white"/>
<path d="M17.0083 11.06C17.0963 11.275 17.1423 11.505 17.1883 11.988C17.2343 12.504 17.3183 13.217 17.3683 13.513C17.3893 13.665 17.4493 13.697 17.4493 13.559C17.4493 13.509 17.4243 13.315 17.3963 13.125C17.3561 12.8055 17.3208 12.4855 17.2903 12.165C17.2684 11.9073 17.2377 11.6505 17.1983 11.395C17.1533 11.18 17.0713 11 17.0223 11C16.9973 11 16.9943 11.025 17.0083 11.06V11.06ZM17.7673 15.19C17.7673 15.345 18.2613 16.481 18.4233 16.697C18.5333 16.848 18.5043 16.711 18.3773 16.481C18.1934 16.1494 18.0362 15.8036 17.9073 15.447C17.8273 15.221 17.7673 15.112 17.7673 15.19Z" fill="white"/>
<path d="M13.3679 5.31C16.1566 4.6295 19.1011 5.07881 21.5599 6.56C23.1199 7.488 24.5499 8.949 25.4359 10.523C26.3959 12.221 26.8659 13.978 26.8659 15.863C26.8689 17.144 26.7029 18.175 26.3109 19.35C25.9388 20.4463 25.3994 21.4785 24.7119 22.41C24.1452 23.1353 23.5052 23.8002 22.8019 24.394C21.0619 25.802 19.0469 26.607 16.7499 26.801C14.3039 27.013 11.5999 26.254 9.58792 24.793C7.21992 23.077 5.65292 20.589 5.15792 17.769C4.62592 14.734 5.45192 11.539 7.39592 9.122C7.69592 8.748 8.38092 8.038 8.80092 7.668C10.0609 6.556 11.6949 5.712 13.3679 5.31V5.31ZM16.5909 5.875C15.5194 5.80822 14.4441 5.90944 13.4039 6.175C12.1579 6.499 10.7239 7.198 9.81392 7.925L9.44392 8.218C8.99192 8.568 8.00692 9.648 7.63592 10.202C6.43592 11.992 5.86092 13.855 5.86092 15.937C5.86092 17.61 6.19992 19.011 6.97992 20.537C7.92612 22.389 9.42981 23.8972 11.2789 24.849C12.4789 25.467 13.8199 25.855 15.1089 25.957C17.3249 26.134 19.3999 25.619 21.3589 24.408C22.2629 23.85 23.4199 22.781 23.9989 21.973C25.0789 20.458 25.6759 19.022 25.9289 17.313C26.0209 16.703 26.0249 15.037 25.9329 14.497C25.6159 12.574 24.8179 10.795 23.6849 9.482C23.5749 9.355 23.4379 9.192 23.3809 9.125C23.0328 8.74166 22.6539 8.38747 22.2479 8.066C21.2079 7.269 20.4129 6.831 19.2199 6.4C18.4119 6.111 17.6209 5.952 16.5899 5.875H16.5909Z" fill="white"/>
</g>
<defs>
<clipPath id="clip0_0_1213">
<rect width="32" height="32" fill="white"/>
</clipPath>
</defs>
</svg>
