<svg width="32" height="32" viewBox="0 0 32 32" fill="none" xmlns="http://www.w3.org/2000/svg">
<g clip-path="url(#clip0_0_1204)">
<path d="M16 32C24.8366 32 32 24.8366 32 16C32 7.16344 24.8366 0 16 0C7.16344 0 0 7.16344 0 16C0 24.8366 7.16344 32 16 32Z" fill="#188C92"/>
<path d="M21.836 21.03C21.7795 21.1111 21.7461 21.2061 21.7394 21.3047C21.7327 21.4034 21.7529 21.502 21.798 21.59L15.872 26.228C15.7954 26.1676 15.7051 26.1271 15.609 26.11L15.429 14.694C15.4924 14.6807 15.5532 14.657 15.609 14.624L21.836 21.031V21.03ZM22.002 20.872L15.78 14.47C15.8298 14.4029 15.8635 14.3253 15.8786 14.2431C15.8937 14.1609 15.8897 14.0764 15.867 13.996L22.193 10.916C22.2753 11.0167 22.3891 11.0868 22.516 11.115L22.201 20.793C22.1307 20.8075 22.0636 20.8346 22.003 20.873L22.002 20.872ZM15.262 26.149L11.912 21.646C12.0112 21.5436 12.0668 21.4066 12.067 21.264C12.0644 21.1217 12.0089 20.9855 11.9113 20.8819C11.8136 20.7784 11.6809 20.7149 11.539 20.704L10.493 11.237C10.6171 11.2087 10.7281 11.1395 10.8081 11.0404C10.8881 10.9414 10.9325 10.8183 10.934 10.691C10.9339 10.5609 10.8874 10.435 10.803 10.336L15.008 5.823C15.062 5.853 15.122 5.876 15.186 5.889V13.593C15.0563 13.6164 14.9388 13.6842 14.8536 13.7847C14.7684 13.8852 14.7208 14.0122 14.719 14.144C14.7212 14.2773 14.77 14.4056 14.8569 14.5066C14.9439 14.6077 15.0635 14.675 15.195 14.697L15.375 26.113C15.3366 26.1213 15.2991 26.1333 15.263 26.149H15.262ZM15.42 13.593V5.89C15.5211 5.86996 15.6153 5.82376 15.693 5.756L22.12 10.331C22.0616 10.4511 22.0495 10.5885 22.086 10.717L15.761 13.797C15.6743 13.6919 15.5538 13.6201 15.42 13.594V13.593ZM15.303 5C15.496 5 15.653 5.151 15.653 5.337C15.6522 5.38218 15.6425 5.42676 15.6245 5.46819C15.6065 5.50963 15.5805 5.54712 15.548 5.5785C15.5155 5.60989 15.4771 5.63457 15.4351 5.65112C15.3931 5.66768 15.3482 5.6758 15.303 5.675C15.2578 5.6758 15.2129 5.66768 15.1709 5.65112C15.1289 5.63457 15.0905 5.60989 15.058 5.5785C15.0255 5.54712 14.9995 5.50963 14.9815 5.46819C14.9635 5.42676 14.9538 5.38218 14.953 5.337C14.953 5.151 15.109 5 15.303 5ZM10.35 10.354C10.544 10.354 10.7 10.504 10.7 10.691C10.6992 10.7362 10.6895 10.7808 10.6715 10.8222C10.6535 10.8636 10.6275 10.9011 10.595 10.9325C10.5625 10.9639 10.5241 10.9886 10.4821 11.0051C10.4401 11.0217 10.3952 11.0298 10.35 11.029C10.3048 11.0298 10.2599 11.0217 10.2179 11.0051C10.1759 10.9886 10.1375 10.9639 10.105 10.9325C10.0725 10.9011 10.0465 10.8636 10.0285 10.8222C10.0105 10.7808 10.0008 10.7362 10 10.691C10 10.505 10.157 10.354 10.35 10.354ZM11.483 20.926C11.677 20.926 11.833 21.077 11.833 21.264C11.8312 21.3551 11.7933 21.4417 11.7277 21.5049C11.6621 21.568 11.5741 21.6026 11.483 21.601C11.3919 21.6026 11.3039 21.568 11.2383 21.5049C11.1727 21.4417 11.1348 21.3551 11.133 21.264C11.133 21.077 11.29 20.926 11.483 20.926ZM22.65 10.23C22.843 10.23 23 10.381 23 10.567C22.9992 10.6122 22.9895 10.6568 22.9715 10.6982C22.9535 10.7396 22.9275 10.7771 22.895 10.8085C22.8625 10.8399 22.8241 10.8646 22.7821 10.8811C22.7401 10.8977 22.6952 10.9058 22.65 10.905C22.6048 10.9058 22.5599 10.8977 22.5179 10.8811C22.4759 10.8646 22.4375 10.8399 22.405 10.8085C22.3725 10.7771 22.3465 10.7396 22.3285 10.6982C22.3105 10.6568 22.3008 10.6122 22.3 10.567C22.3 10.381 22.456 10.23 22.65 10.23ZM15.303 13.807C15.496 13.807 15.653 13.957 15.653 14.144C15.6522 14.1892 15.6425 14.2338 15.6245 14.2752C15.6065 14.3166 15.5805 14.3541 15.548 14.3855C15.5155 14.4169 15.4771 14.4416 15.4351 14.4581C15.3931 14.4747 15.3482 14.4828 15.303 14.482C15.2578 14.4828 15.2129 14.4747 15.1709 14.4581C15.1289 14.4416 15.0905 14.4169 15.058 14.3855C15.0255 14.3541 14.9995 14.3166 14.9815 14.2752C14.9635 14.2338 14.9538 14.1892 14.953 14.144C14.953 13.958 15.109 13.807 15.303 13.807ZM15.501 26.325C15.695 26.325 15.851 26.476 15.851 26.663C15.8492 26.7541 15.8113 26.8407 15.7457 26.9039C15.6801 26.967 15.5921 27.0016 15.501 27C15.4099 27.0016 15.3219 26.967 15.2563 26.9039C15.1907 26.8407 15.1528 26.7541 15.151 26.663C15.151 26.476 15.308 26.325 15.501 26.325ZM22.323 21.005C22.516 21.005 22.673 21.156 22.673 21.343C22.6712 21.4341 22.6333 21.5207 22.5677 21.5839C22.5021 21.647 22.4141 21.6816 22.323 21.68C22.2319 21.6816 22.1439 21.647 22.0783 21.5839C22.0127 21.5207 21.9748 21.4341 21.973 21.343C21.973 21.156 22.129 21.005 22.323 21.005Z" fill="white"/>
</g>
<defs>
<clipPath id="clip0_0_1204">
<rect width="32" height="32" fill="white"/>
</clipPath>
</defs>
</svg>
