<svg width="32" height="32" viewBox="0 0 32 32" fill="none" xmlns="http://www.w3.org/2000/svg">
<g clip-path="url(#clip0_0_1200)">
<path d="M16 32C24.8366 32 32 24.8366 32 16C32 7.16344 24.8366 0 16 0C7.16344 0 0 7.16344 0 16C0 24.8366 7.16344 32 16 32Z" fill="#00AEEF"/>
<path d="M16.26 14.7061C16.498 14.6651 16.708 14.5761 16.892 14.4411C17.076 14.3061 17.25 14.0781 17.413 13.7661L21.038 6.77912C21.18 6.54512 21.354 6.35912 21.554 6.21312C21.7595 6.07098 22.0042 5.99652 22.254 6.00012H24.553L20.039 14.2181C19.839 14.5561 19.612 14.8311 19.359 15.0441C19.1062 15.2543 18.8181 15.4179 18.508 15.5271C18.992 15.6521 19.397 15.8551 19.728 16.1401C20.054 16.4201 20.365 16.8161 20.654 17.3251L25 26.0001H22.47C21.959 26.0001 21.548 25.7251 21.238 25.1801L17.676 17.8291C17.492 17.5011 17.292 17.2681 17.076 17.1271C16.861 16.9871 16.587 16.9041 16.261 16.8831V20.6131H14.272V16.8671H12.81V26.0001H10V6.00012H12.81V14.7381H14.272V10.4161H16.261V14.7061H16.26Z" fill="white"/>
</g>
<defs>
<clipPath id="clip0_0_1200">
<rect width="32" height="32" fill="white"/>
</clipPath>
</defs>
</svg>
