<svg width="32" height="32" viewBox="0 0 32 32" fill="none" xmlns="http://www.w3.org/2000/svg">
<g clip-path="url(#clip0_0_1196)">
<path d="M16 32C24.8366 32 32 24.8366 32 16C32 7.16344 24.8366 0 16 0C7.16344 0 0 7.16344 0 16C0 24.8366 7.16344 32 16 32Z" fill="#006149"/>
<path d="M24.157 16.736L23.36 16.537L23.602 15.567L26.087 16.188L25.467 18.673L24.496 18.431L24.711 17.569L15.839 23.062L6 18.146V14.394L16.224 8L25.599 12.573V14.117L15.84 20.18L8.593 16.587L9.037 15.691L15.786 19.037L24.599 13.561V13.198L16.284 9.142L7.001 14.948V17.528L15.788 21.918L24.157 16.736Z" fill="white"/>
</g>
<defs>
<clipPath id="clip0_0_1196">
<rect width="32" height="32" fill="white"/>
</clipPath>
</defs>
</svg>
