<svg width="32" height="32" viewBox="0 0 32 32" fill="none" xmlns="http://www.w3.org/2000/svg">
<g clip-path="url(#clip0_0_1184)">
<path d="M16 32C24.8366 32 32 24.8366 32 16C32 7.16344 24.8366 0 16 0C7.16344 0 0 7.16344 0 16C0 24.8366 7.16344 32 16 32Z" fill="#11021E"/>
<path d="M10.429 14.016H10.439L10.592 14.074L10.755 14.131L10.908 14.189L11.071 14.256L11.224 14.314L11.387 14.361L11.541 14.419L11.694 14.486L12.001 14.601L12.164 14.649L12.317 14.716L12.48 14.774L12.634 14.831L12.797 14.889L12.95 14.946L13.113 15.004L13.266 15.061L13.429 15.119L13.583 15.186L13.746 15.234V13H10.208L10.055 13.077L9.691 13.269L9.317 13.46L8.953 13.652L8.588 13.844L8.214 14.036L7.841 14.227L7.476 14.419L7.112 14.611L6.738 14.802L6.374 14.994L6.038 15.176L6 20.67L6.374 20.929L6.738 21.188L7.112 21.437L7.841 21.955L8.214 22.213L8.377 22.338L8.588 22.079L8.953 21.599L8.981 21.552L8.953 21.523L8.588 21.264L8.214 20.996L7.841 20.737L7.476 20.478L7.112 20.22L7.007 20.152L7.035 15.714L7.112 15.676L7.476 15.494L7.841 15.302L8.214 15.129L8.588 14.938L8.953 14.755L9.317 14.573L9.691 14.391L10.055 14.209L10.429 14.016Z" fill="white"/>
<path d="M16.756 24.888L16.439 25.013L16.094 25.147L15.749 25.291L15.404 25.425L15.251 25.492L15.069 25.397L14.723 25.224L14.388 25.051L14.043 24.879L13.698 24.706L13.353 24.534L13.008 24.361L12.662 24.179L12.317 24.016L11.982 23.834L11.637 23.661L11.301 23.499L10.956 23.316L10.918 23.297V18.821H9.921V23.911L11.301 24.601L11.637 24.773L11.982 24.956L12.317 25.119L12.662 25.301L13.008 25.473L13.353 25.636L13.698 25.818L14.388 26.163L14.723 26.336L15.203 26.576L15.404 26.489L15.749 26.355L16.094 26.221L16.439 26.077L16.784 25.933L17.13 25.809L16.784 24.946L16.756 24.888ZM22.881 18.648L22.901 20.766L22.805 20.834L22.22 21.246L21.645 21.668L21.06 22.08L20.475 22.502L19.881 22.904L19.306 23.326L18.721 23.748L18.376 23.997L18.136 23.805L17.561 23.365L16.976 22.914L16.391 22.473L15.816 22.023L15.711 21.955V19.675L15.816 19.579L16.391 18.965L16.976 18.361L17.561 17.748L18.136 17.144L18.702 16.55H11.733L12.317 17.163L12.893 17.767L13.487 18.371L14.072 18.984L14.647 19.588L14.723 19.675V22.435L15.232 22.828L15.816 23.269L16.391 23.72L16.976 24.16L17.561 24.611L18.136 25.052L18.356 25.225L18.721 24.957L19.306 24.544L19.881 24.123L20.475 23.71L21.06 23.298L21.645 22.886L22.22 22.464L22.805 22.052L23.389 21.64L23.869 21.285L23.964 18.687L23.389 18.668L22.881 18.648ZM6.93 13.749H6.997L7.007 10.931L7.39 10.691L7.85 10.414L8.32 10.136L8.77 9.838L9.24 9.56L9.7 9.273L10.16 8.995L10.62 8.717L11.08 8.429L11.55 8.151L11.56 8.141L12.001 8.401L12.471 8.659L13.391 9.196L13.851 9.455L14.321 9.714L14.771 9.982L15.222 10.232L15.242 10.193L15.702 9.369L15.242 9.1L14.772 8.841L14.321 8.583L13.851 8.323L13.391 8.046L12.931 7.787L12.471 7.528L12.001 7.269L11.551 7.01L11.531 7L11.081 7.27L10.621 7.557L10.161 7.835L9.701 8.122L9.241 8.4L8.771 8.678L8.32 8.966L7.85 9.244L7.39 9.532L6.93 9.819L6.47 10.097L6.02 10.375L6 13.74H6.47L6.93 13.749Z" fill="white"/>
<path d="M25.058 10.876L24.828 10.694L24.58 10.493L24.34 10.301L24.1 10.109L23.86 9.909L23.62 9.726L23.372 9.534L23.132 9.333L22.882 9.141L22.71 8.997L22.643 9.074L22.403 9.371L22.154 9.678L22.097 9.764L22.154 9.831L22.404 10.033L22.644 10.224L22.883 10.435L23.132 10.637L23.372 10.837L23.621 11.049L23.861 11.25L23.976 11.346L23.986 15.88L23.861 15.957L23.621 16.12L23.371 16.264L23.132 16.427L22.882 16.57L22.643 16.733L22.403 16.877L22.154 17.04L21.914 17.184L21.674 17.347L21.435 17.491L21.195 17.654L20.946 17.797L20.706 17.96L20.467 18.104L20.227 18.267L19.978 18.411L20.228 18.794L20.468 19.187L20.515 19.254L20.707 19.13L20.947 18.976L21.196 18.833L21.436 18.679L21.675 18.526L21.915 18.373L22.155 18.229L22.403 18.075L22.643 17.932L22.883 17.778L23.132 17.625L23.372 17.471L23.621 17.328L23.861 17.174L24.101 17.031L24.34 16.877L24.58 16.724L24.829 16.57L25.069 16.427L25.058 10.876ZM17.16 13.58V15.545L17.237 15.515L17.553 15.382L17.879 15.257L18.195 15.123L18.521 14.998L18.847 14.864L19.163 14.73L19.489 14.605L19.815 14.471L20.132 14.346L20.457 14.212L20.774 14.088V8.144L20.41 7.924L20.036 7.713L19.671 7.493L19.298 7.272L18.924 7.061L18.55 6.841L18.186 6.62L17.821 6.41L17.447 6.189L17.074 5.969L16.7 5.757L16.335 5.537L15.971 5.317L15.597 5.105L15.406 5L15.224 5.086L14.85 5.297L14.485 5.489L14.121 5.69L13.747 5.901L13.373 6.093L13 6.294L13.373 6.514L13.747 6.725L13.977 6.86L14.121 6.793L14.485 6.591L14.85 6.4L15.224 6.208L15.377 6.131L15.597 6.256L15.971 6.476L16.7 6.898L17.447 7.339L17.821 7.549L18.55 7.991L18.924 8.201L19.671 8.643L19.786 8.7V13.081H17.169" fill="white"/>
<path d="M16.634 15.464L20.248 14.007L16.624 13L16.634 15.464ZM13.308 15.464V13.038L10 14.026L13.308 15.454" fill="white"/>
</g>
<defs>
<clipPath id="clip0_0_1184">
<rect width="32" height="32" fill="white"/>
</clipPath>
</defs>
</svg>
