<svg width="32" height="32" viewBox="0 0 32 32" fill="none" xmlns="http://www.w3.org/2000/svg">
<g clip-path="url(#clip0_0_1169)">
<path d="M16 32C24.8366 32 32 24.8366 32 16C32 7.16344 24.8366 0 16 0C7.16344 0 0 7.16344 0 16C0 24.8366 7.16344 32 16 32Z" fill="#48BEFF"/>
<path d="M22.1925 26.239L5.80852 14.744C5.25022 14.3522 4.79449 13.8318 4.47986 13.2267C4.16524 12.6215 4.00098 11.9495 4.00098 11.2675C4.00098 10.5855 4.16524 9.91347 4.47986 9.30834C4.79449 8.70321 5.25022 8.18276 5.80852 7.791L9.77852 5L26.1645 16.494C26.7228 16.8858 27.1786 17.4062 27.4932 18.0113C27.8078 18.6165 27.9721 19.2885 27.9721 19.9705C27.9721 20.6525 27.8078 21.3245 27.4932 21.9297C27.1786 22.5348 26.7228 23.0552 26.1645 23.447L22.1925 26.239V26.239ZM9.77452 6.863L6.68152 9.027C6.32173 9.27857 6.02794 9.61324 5.82509 10.0026C5.62225 10.3919 5.51633 10.8245 5.51633 11.2635C5.51633 11.7025 5.62225 12.1351 5.82509 12.5244C6.02794 12.9138 6.32173 13.2484 6.68152 13.5L22.1955 24.377L25.2895 22.213C25.6493 21.9614 25.9431 21.6268 26.1459 21.2374C26.3488 20.8481 26.4547 20.4155 26.4547 19.9765C26.4547 19.5375 26.3488 19.1049 26.1459 18.7156C25.9431 18.3262 25.6493 17.9916 25.2895 17.74L9.77452 6.863Z" fill="white"/>
<path d="M9.76154 24.357L6.67154 22.19C6.31175 21.9384 6.01796 21.6038 5.81512 21.2144C5.61227 20.8251 5.50635 20.3925 5.50635 19.9535C5.50635 19.5145 5.61227 19.0819 5.81512 18.6926C6.01796 18.3032 6.31175 17.9686 6.67154 17.717L14.6715 12.134L13.3515 11.206L5.80754 16.474C5.24924 16.8658 4.79351 17.3862 4.47888 17.9913C4.16426 18.5965 4 19.2685 4 19.9505C4 20.6325 4.16426 21.3045 4.47888 21.9097C4.79351 22.5148 5.24924 23.0352 5.80754 23.427L9.76454 26.206L14.6615 22.777L13.3475 21.851L9.76154 24.357V24.357ZM26.1685 7.777L22.2085 5L17.3085 8.429L18.6225 9.354L22.2025 6.849L25.2925 9.016C25.6523 9.26757 25.9461 9.60224 26.149 9.99159C26.3518 10.3809 26.4577 10.8135 26.4577 11.2525C26.4577 11.6915 26.3518 12.1241 26.149 12.5134C25.9461 12.9028 25.6523 13.2374 25.2925 13.489L17.2925 19.071L18.6075 19.997L26.1615 14.72C26.7198 14.3282 27.1756 13.8078 27.4902 13.2027C27.8048 12.5975 27.9691 11.9255 27.9691 11.2435C27.9691 10.5615 27.8048 9.88947 27.4902 9.28434C27.1756 8.67921 26.7198 8.15876 26.1615 7.767L26.1695 7.777H26.1685Z" fill="white"/>
<path d="M7 15.362L13.23 11L14.098 12.24L7.867 16.602L7 15.362ZM24.75 13.604L21.715 15.729L22.583 16.97L25.725 14.766C25.391 14.384 25.068 13.994 24.744 13.603L24.75 13.604V13.604Z" fill="white"/>
</g>
<defs>
<clipPath id="clip0_0_1169">
<rect width="32" height="32" fill="white"/>
</clipPath>
</defs>
</svg>
