<svg width="32" height="32" viewBox="0 0 32 32" fill="none" xmlns="http://www.w3.org/2000/svg">
<g clip-path="url(#clip0_0_1157)">
<path d="M16 32C24.8366 32 32 24.8366 32 16C32 7.16344 24.8366 0 16 0C7.16344 0 0 7.16344 0 16C0 24.8366 7.16344 32 16 32Z" fill="#0D4EA0"/>
<path d="M14.249 24.958C14.235 24.972 14.207 24.986 14.193 25H12.641C12.613 25 12.599 24.986 12.585 24.972L8.01002 19.804C8.00336 19.7912 7.99988 19.7769 7.99988 19.7625C7.99988 19.7481 8.00336 19.7338 8.01002 19.721L13.708 9.886C13.736 9.845 13.805 9.845 13.833 9.886L15.427 12.644C15.441 12.658 15.441 12.686 15.427 12.714L11.573 19.359C11.559 19.386 11.573 19.414 11.587 19.442L13.888 22.033C13.9034 22.0478 13.9229 22.0576 13.944 22.061H16.661C16.731 22.061 16.758 22.131 16.716 22.172L14.249 24.958ZM15.939 6.042C15.968 5.986 16.037 5.986 16.051 6.042L23.994 19.692C24.008 19.721 23.994 19.749 23.98 19.776L19.406 24.944C19.3906 24.9588 19.3711 24.9686 19.35 24.972H15.635C15.565 24.972 15.538 24.902 15.58 24.861L18.061 22.047L20.39 19.428C20.418 19.4 20.418 19.372 20.404 19.345L15.995 11.739L14.332 8.869C14.318 8.856 14.318 8.828 14.332 8.799L15.939 6.042Z" fill="white"/>
</g>
<defs>
<clipPath id="clip0_0_1157">
<rect width="32" height="32" fill="white"/>
</clipPath>
</defs>
</svg>
