<svg width="32" height="32" viewBox="0 0 32 32" fill="none" xmlns="http://www.w3.org/2000/svg">
<g clip-path="url(#clip0_0_1149)">
<path d="M16 32C24.8366 32 32 24.8366 32 16C32 7.16344 24.8366 0 16 0C7.16344 0 0 7.16344 0 16C0 24.8366 7.16344 32 16 32Z" fill="#F55749"/>
<path d="M15.813 6.048C15.8698 6.01621 15.9339 5.99951 15.999 5.99951C16.0641 5.99951 16.1282 6.01621 16.185 6.048L24.41 10.666C24.4662 10.697 24.513 10.7425 24.5457 10.7977C24.5784 10.8529 24.5958 10.9158 24.596 10.98C24.596 11.11 24.526 11.23 24.411 11.294L17.256 15.328C17.0037 15.0412 16.6599 14.8504 16.283 14.788V12.595C17.058 12.466 17.649 11.81 17.649 11.017C17.649 10.132 16.913 9.414 16.004 9.414C15.095 9.414 14.359 10.132 14.359 11.017C14.359 11.805 14.944 12.459 15.713 12.593V14.791C15.3412 14.855 15.0025 15.0441 14.753 15.327L7.599 11.31C7.54263 11.2792 7.49557 11.2339 7.46275 11.1787C7.42993 11.1235 7.41256 11.0605 7.41245 10.9963C7.41235 10.9321 7.42952 10.869 7.46217 10.8137C7.49481 10.7584 7.54173 10.7129 7.598 10.682L15.814 6.051L15.813 6.048ZM24.434 11.868C24.4907 11.8359 24.5547 11.8189 24.6199 11.8187C24.685 11.8185 24.7491 11.8352 24.806 11.867C24.8622 11.898 24.9092 11.9435 24.942 11.9987C24.9749 12.0538 24.9925 12.1168 24.993 12.181L25 21.147C25 21.277 24.93 21.396 24.814 21.461L16.849 25.951C16.602 26.091 16.292 25.916 16.292 25.637L16.285 17.944C16.671 17.88 17.021 17.683 17.272 17.389L19.262 18.504C19.2071 18.7086 19.1946 18.9223 19.225 19.132C19.351 20.009 20.184 20.619 21.083 20.496C21.983 20.372 22.609 19.561 22.483 18.684C22.357 17.807 21.523 17.197 20.624 17.321C20.4006 17.3509 20.1856 17.4264 19.9926 17.5429C19.7996 17.6593 19.6326 17.8143 19.502 17.998L17.552 16.905C17.692 16.534 17.682 16.125 17.527 15.76L24.435 11.866L24.434 11.868ZM7.008 12.18C7.008 11.968 7.186 11.817 7.38 11.817C7.445 11.817 7.51 11.834 7.566 11.867L14.481 15.765C14.328 16.129 14.32 16.535 14.458 16.905L12.509 17.998C12.3783 17.8143 12.2113 17.6594 12.0183 17.543C11.8253 17.4265 11.6104 17.3509 11.387 17.321C10.487 17.197 9.656 17.808 9.529 18.684C9.402 19.56 10.029 20.371 10.929 20.495C11.829 20.619 12.659 20.008 12.787 19.132C12.8176 18.922 12.805 18.708 12.75 18.503L14.739 17.388C14.988 17.68 15.334 17.876 15.716 17.942L15.71 25.637C15.71 25.916 15.4 26.09 15.152 25.95L7.186 21.46C7.12983 21.429 7.08296 21.3835 7.05026 21.3283C7.01756 21.2731 7.00021 21.2102 7 21.146L7.008 12.18" fill="white"/>
</g>
<defs>
<clipPath id="clip0_0_1149">
<rect width="32" height="32" fill="white"/>
</clipPath>
</defs>
</svg>
