<svg width="32" height="32" viewBox="0 0 32 32" fill="none" xmlns="http://www.w3.org/2000/svg">
<g clip-path="url(#clip0_0_1142)">
<path d="M16 32C24.8366 32 32 24.8366 32 16C32 7.16344 24.8366 0 16 0C7.16344 0 0 7.16344 0 16C0 24.8366 7.16344 32 16 32Z" fill="#5592D7"/>
<path d="M19.9926 12.001V24.974L9.03662 18.667C5.79662 16.77 6.00262 15.59 6.00262 13.027L17.2656 19.539V13.59L19.9916 12L19.9926 12.001Z" fill="white"/>
<path opacity="0.6" d="M17.263 19.9184L6 13.4054L16.954 7.09843C20.194 5.25143 21.12 6.02143 23.383 7.30343L12.12 13.8164L17.263 16.7904V19.9184Z" fill="white"/>
<path opacity="0.2" d="M12.001 13.513L23.264 7V19.615C23.264 23.359 22.133 23.769 19.87 25.051V12.077L14.674 15.05L12 13.512L12.001 13.513Z" fill="white"/>
</g>
<defs>
<clipPath id="clip0_0_1142">
<rect width="32" height="32" fill="white"/>
</clipPath>
</defs>
</svg>
