<svg width="32" height="32" viewBox="0 0 32 32" fill="none" xmlns="http://www.w3.org/2000/svg">
<g clip-path="url(#clip0_0_1134)">
<path d="M16 32C24.8366 32 32 24.8366 32 16C32 7.16344 24.8366 0 16 0C7.16344 0 0 7.16344 0 16C0 24.8366 7.16344 32 16 32Z" fill="#033B4A"/>
<path d="M15.532 7.064C16.089 6.901 16.68 7.067 17.161 7.358C19.3061 8.58662 21.4608 9.79833 23.625 10.993C24.458 11.434 25.012 12.339 25 13.273C24.998 16.367 24.99 19.463 24.995 22.557C25.029 22.772 24.883 23.017 24.639 22.995C23.678 23.001 22.717 22.997 21.756 22.996C21.546 23.027 21.344 22.851 21.366 22.638C21.274 20.003 21.309 17.365 21.336 14.728C21.336 14.398 21.272 14.05 21.059 13.783C20.843 13.5 20.502 13.355 20.197 13.187C19.697 12.925 19.226 12.608 18.708 12.379C18.512 12.301 18.257 12.217 18.072 12.366C17.867 12.559 17.869 12.864 17.848 13.124C17.8102 14.417 17.8065 15.7108 17.837 17.004C17.836 17.31 17.846 17.666 17.612 17.904C17.373 18.138 17.012 18.142 16.698 18.147C16.13 18.141 15.562 18.162 14.996 18.134C14.756 18.108 14.468 18.094 14.312 17.884C14.172 17.677 14.178 17.416 14.166 17.178C14.163 15.819 14.18 14.459 14.166 13.101C14.152 12.861 14.156 12.591 13.986 12.401C13.823 12.233 13.563 12.288 13.367 12.359C12.942 12.525 12.561 12.779 12.158 12.989C11.755 13.221 11.322 13.419 10.976 13.735C10.751 13.94 10.691 14.252 10.684 14.54C10.679 17.21 10.687 19.878 10.664 22.548C10.687 22.75 10.567 22.996 10.331 22.992C9.34102 23.004 8.35102 22.997 7.36102 22.995C7.16302 23.014 6.98102 22.84 7.00102 22.643C7.04102 19.398 7.01602 16.152 7.01902 12.906C7.00972 12.5666 7.09412 12.2312 7.26294 11.9366C7.43176 11.642 7.67848 11.3996 7.97602 11.236C10.231 9.972 12.49 8.716 14.736 7.437C14.99 7.293 15.246 7.142 15.532 7.064V7.064Z" fill="white"/>
</g>
<defs>
<clipPath id="clip0_0_1134">
<rect width="32" height="32" fill="white"/>
</clipPath>
</defs>
</svg>
