<svg width="32" height="32" viewBox="0 0 32 32" fill="none" xmlns="http://www.w3.org/2000/svg">
<g clip-path="url(#clip0_0_1130)">
<path d="M16 32C24.8366 32 32 24.8366 32 16C32 7.16344 24.8366 0 16 0C7.16344 0 0 7.16344 0 16C0 24.8366 7.16344 32 16 32Z" fill="#103F68"/>
<path d="M16.48 5L26 10.483V21.483L16.491 26.982L16.414 26.963L7 21.483V10.483L16.414 5H16.48V5ZM16.449 6.138L8 11.058V20.908L16.448 25.827L17.48 25.23L25 20.905V11.06L17.48 6.71L16.449 6.138V6.138ZM9.309 16.748L11.81 14.878L14.021 16.29V18.83L15.694 20.442L15.693 21.198L14.081 22.708H12.72L9.31 16.748H9.309ZM17.212 21.2L17.209 20.44L18.876 18.83V16.29L21.063 14.86L23.559 16.749L20.166 22.691H18.822L17.212 21.2ZM14.842 16.29L14.028 14.159H18.866L18.068 16.29L18.304 18.672L16.437 18.676L14.592 18.679L14.842 16.29V16.29ZM16.437 13.575L11.839 13.573L12.694 9.753H20.158L21.058 13.578L16.437 13.575Z" fill="white"/>
</g>
<defs>
<clipPath id="clip0_0_1130">
<rect width="32" height="32" fill="white"/>
</clipPath>
</defs>
</svg>
