<svg width="32" height="32" viewBox="0 0 32 32" fill="none" xmlns="http://www.w3.org/2000/svg">
<g clip-path="url(#clip0_0_1126)">
<path d="M16 32C24.8366 32 32 24.8366 32 16C32 7.16344 24.8366 0 16 0C7.16344 0 0 7.16344 0 16C0 24.8366 7.16344 32 16 32Z" fill="#01A64F"/>
<path d="M21.163 7.992C22.379 9.292 23 10.924 23 12.832C23 14.769 22.379 16.402 21.162 17.702C20.189 18.725 19.027 19.333 17.676 19.555V20.689H20.432V21.934H17.648V22.598H20.432V23.759H17.676V26H15.324V23.76H12.594V22.598H15.351V21.934H12.595V20.689H15.325V19.527C14 19.306 12.838 18.697 11.865 17.674C10.622 16.374 10 14.741 10 12.805C10 10.841 10.595 9.209 11.838 7.936C13.08 6.636 14.622 6 16.514 6C18.379 6 19.919 6.636 21.163 7.992ZM18.622 15.378C19.135 14.714 19.406 13.856 19.406 12.805C19.406 11.782 19.136 10.925 18.568 10.26C18.028 9.569 17.325 9.237 16.514 9.237C15.676 9.237 14.974 9.569 14.433 10.233C13.891 10.897 13.621 11.726 13.621 12.778C13.621 13.856 13.892 14.714 14.433 15.378C14.974 16.042 15.676 16.374 16.513 16.374C17.379 16.374 18.108 16.042 18.622 15.378V15.378Z" fill="white"/>
</g>
<defs>
<clipPath id="clip0_0_1126">
<rect width="32" height="32" fill="white"/>
</clipPath>
</defs>
</svg>
