<svg width="32" height="32" viewBox="0 0 32 32" fill="none" xmlns="http://www.w3.org/2000/svg">
<g clip-path="url(#clip0_0_1122)">
<path d="M16 32C24.8366 32 32 24.8366 32 16C32 7.16344 24.8366 0 16 0C7.16344 0 0 7.16344 0 16C0 24.8366 7.16344 32 16 32Z" fill="#1E252C"/>
<path d="M14.22 15.589C13.8203 15.589 13.437 15.4302 13.1544 15.1476C12.8718 14.865 12.713 14.4817 12.713 14.082C12.713 13.6823 12.8718 13.299 13.1544 13.0164C13.437 12.7338 13.8203 12.575 14.22 12.575C14.6197 12.575 15.003 12.7338 15.2856 13.0164C15.5682 13.299 15.727 13.6823 15.727 14.082C15.727 14.4817 15.5682 14.865 15.2856 15.1476C15.003 15.4302 14.6197 15.589 14.22 15.589V15.589ZM17.918 15.589C17.5183 15.589 17.135 15.4302 16.8524 15.1476C16.5698 14.865 16.411 14.4817 16.411 14.082C16.411 13.6823 16.5698 13.299 16.8524 13.0164C17.135 12.7338 17.5183 12.575 17.918 12.575C18.3177 12.575 18.701 12.7338 18.9836 13.0164C19.2662 13.299 19.425 13.6823 19.425 14.082C19.425 14.4817 19.2662 14.865 18.9836 15.1476C18.701 15.4302 18.3177 15.589 17.918 15.589V15.589ZM14.219 19.288C13.8193 19.288 13.436 19.1292 13.1534 18.8466C12.8708 18.564 12.712 18.1807 12.712 17.781C12.712 17.3813 12.8708 16.998 13.1534 16.7154C13.436 16.4328 13.8193 16.274 14.219 16.274C14.6187 16.274 15.002 16.4328 15.2846 16.7154C15.5672 16.998 15.726 17.3813 15.726 17.781C15.726 18.1807 15.5672 18.564 15.2846 18.8466C15.002 19.1292 14.6187 19.288 14.219 19.288V19.288ZM17.918 19.288C17.5183 19.288 17.135 19.1292 16.8524 18.8466C16.5698 18.564 16.411 18.1807 16.411 17.781C16.411 17.3813 16.5698 16.998 16.8524 16.7154C17.135 16.4328 17.5183 16.274 17.918 16.274C18.3177 16.274 18.701 16.4328 18.9836 16.7154C19.2662 16.998 19.425 17.3813 19.425 17.781C19.425 18.1807 19.2662 18.564 18.9836 18.8466C18.701 19.1292 18.3177 19.288 17.918 19.288V19.288ZM21.616 15.178C21.4721 15.178 21.3296 15.1497 21.1966 15.0946C21.0636 15.0395 20.9428 14.9588 20.841 14.857C20.7392 14.7552 20.6585 14.6344 20.6034 14.5014C20.5483 14.3685 20.52 14.2259 20.52 14.082C20.52 13.9381 20.5483 13.7956 20.6034 13.6626C20.6585 13.5296 20.7392 13.4088 20.841 13.307C20.9428 13.2052 21.0636 13.1245 21.1966 13.0694C21.3296 13.0144 21.4721 12.986 21.616 12.986C21.9067 12.986 22.1854 13.1015 22.391 13.307C22.5965 13.5126 22.712 13.7913 22.712 14.082C22.712 14.3727 22.5965 14.6515 22.391 14.857C22.1854 15.0625 21.9067 15.178 21.616 15.178V15.178ZM21.616 18.877C21.3253 18.877 21.0466 18.7615 20.841 18.556C20.6355 18.3505 20.52 18.0717 20.52 17.781C20.52 17.4903 20.6355 17.2116 20.841 17.006C21.0466 16.8005 21.3253 16.685 21.616 16.685C21.9067 16.685 22.1854 16.8005 22.391 17.006C22.5965 17.2116 22.712 17.4903 22.712 17.781C22.712 18.0717 22.5965 18.3505 22.391 18.556C22.1854 18.7615 21.9067 18.877 21.616 18.877ZM10.384 15.178C10.0933 15.178 9.81455 15.0625 9.60901 14.857C9.40347 14.6515 9.288 14.3727 9.288 14.082C9.288 13.7913 9.40347 13.5126 9.60901 13.307C9.81455 13.1015 10.0933 12.986 10.384 12.986C10.6747 12.986 10.9534 13.1015 11.159 13.307C11.3645 13.5126 11.48 13.7913 11.48 14.082C11.48 14.3727 11.3645 14.6515 11.159 14.857C10.9534 15.0625 10.6747 15.178 10.384 15.178V15.178ZM10.384 18.877C10.0933 18.877 9.81455 18.7615 9.60901 18.556C9.40347 18.3505 9.288 18.0717 9.288 17.781C9.288 17.4903 9.40347 17.2116 9.60901 17.006C9.81455 16.8005 10.0933 16.685 10.384 16.685C10.6747 16.685 10.9534 16.8005 11.159 17.006C11.3645 17.2116 11.48 17.4903 11.48 17.781C11.48 18.0717 11.3645 18.3505 11.159 18.556C10.9534 18.7615 10.6747 18.877 10.384 18.877ZM14.219 22.575C14.0724 22.5794 13.9263 22.5544 13.7895 22.5013C13.6527 22.4483 13.528 22.3683 13.4227 22.2661C13.3174 22.1639 13.2337 22.0417 13.1765 21.9066C13.1194 21.7714 13.0899 21.6262 13.0899 21.4795C13.0899 21.3328 13.1194 21.1876 13.1765 21.0524C13.2337 20.9173 13.3174 20.7951 13.4227 20.6929C13.528 20.5907 13.6527 20.5108 13.7895 20.4577C13.9263 20.4046 14.0724 20.3796 14.219 20.384C14.5038 20.3926 14.7741 20.5118 14.9725 20.7163C15.1709 20.9208 15.2819 21.1946 15.2819 21.4795C15.2819 21.7644 15.1709 22.0382 14.9725 22.2427C14.7741 22.4472 14.5038 22.5664 14.219 22.575V22.575ZM17.918 22.575C17.7714 22.5794 17.6253 22.5544 17.4885 22.5013C17.3517 22.4483 17.227 22.3683 17.1217 22.2661C17.0164 22.1639 16.9327 22.0417 16.8755 21.9066C16.8184 21.7714 16.7889 21.6262 16.7889 21.4795C16.7889 21.3328 16.8184 21.1876 16.8755 21.0524C16.9327 20.9173 17.0164 20.7951 17.1217 20.6929C17.227 20.5907 17.3517 20.5108 17.4885 20.4577C17.6253 20.4046 17.7714 20.3796 17.918 20.384C18.2028 20.3926 18.4731 20.5118 18.6715 20.7163C18.8699 20.9208 18.9809 21.1946 18.9809 21.4795C18.9809 21.7644 18.8699 22.0382 18.6715 22.2427C18.4731 22.4472 18.2028 22.5664 17.918 22.575ZM14.219 11.48C14.0724 11.4844 13.9263 11.4594 13.7895 11.4063C13.6527 11.3533 13.528 11.2733 13.4227 11.1711C13.3174 11.0689 13.2337 10.9467 13.1765 10.8116C13.1194 10.6764 13.0899 10.5312 13.0899 10.3845C13.0899 10.2378 13.1194 10.0926 13.1765 9.95745C13.2337 9.82233 13.3174 9.70006 13.4227 9.5979C13.528 9.49573 13.6527 9.41575 13.7895 9.36269C13.9263 9.30963 14.0724 9.28457 14.219 9.289C14.5038 9.29761 14.7741 9.4168 14.9725 9.62131C15.1709 9.82581 15.2819 10.0996 15.2819 10.3845C15.2819 10.6694 15.1709 10.9432 14.9725 11.1477C14.7741 11.3522 14.5038 11.4714 14.219 11.48V11.48ZM17.918 11.48C17.7714 11.4844 17.6253 11.4594 17.4885 11.4063C17.3517 11.3533 17.227 11.2733 17.1217 11.1711C17.0164 11.0689 16.9327 10.9467 16.8755 10.8116C16.8184 10.6764 16.7889 10.5312 16.7889 10.3845C16.7889 10.2378 16.8184 10.0926 16.8755 9.95745C16.9327 9.82233 17.0164 9.70006 17.1217 9.5979C17.227 9.49573 17.3517 9.41575 17.4885 9.36269C17.6253 9.30963 17.7714 9.28457 17.918 9.289C18.2028 9.29761 18.4731 9.4168 18.6715 9.62131C18.8699 9.82581 18.9809 10.0996 18.9809 10.3845C18.9809 10.6694 18.8699 10.9432 18.6715 11.1477C18.4731 11.3522 18.2028 11.4714 17.918 11.48ZM14.219 7.37C14.1269 7.37352 14.0351 7.35843 13.9489 7.32561C13.8628 7.2928 13.7842 7.24295 13.7178 7.17904C13.6514 7.11513 13.5986 7.03848 13.5625 6.95368C13.5264 6.86887 13.5078 6.77766 13.5078 6.6855C13.5078 6.59335 13.5264 6.50213 13.5625 6.41733C13.5986 6.33253 13.6514 6.25588 13.7178 6.19197C13.7842 6.12806 13.8628 6.07821 13.9489 6.04539C14.0351 6.01258 14.1269 5.99748 14.219 6.001C14.4007 6.001 14.5749 6.07317 14.7034 6.20164C14.8318 6.3301 14.904 6.50433 14.904 6.686C14.904 6.86768 14.8318 7.04191 14.7034 7.17037C14.5749 7.29883 14.4007 7.371 14.219 7.371V7.37ZM17.918 7.37C17.8259 7.37352 17.7341 7.35843 17.6479 7.32561C17.5618 7.2928 17.4832 7.24295 17.4168 7.17904C17.3504 7.11513 17.2976 7.03848 17.2615 6.95368C17.2254 6.86887 17.2068 6.77766 17.2068 6.6855C17.2068 6.59335 17.2254 6.50213 17.2615 6.41733C17.2976 6.33253 17.3504 6.25588 17.4168 6.19197C17.4832 6.12806 17.5618 6.07821 17.6479 6.04539C17.7341 6.01258 17.8259 5.99748 17.918 6.001C18.0997 6.001 18.2739 6.07317 18.4024 6.20164C18.5308 6.3301 18.603 6.50433 18.603 6.686C18.603 6.86768 18.5308 7.04191 18.4024 7.17037C18.2739 7.29883 18.0997 7.371 17.918 7.371V7.37ZM25.315 14.768C25.1333 14.768 24.9591 14.6958 24.8306 14.5674C24.7022 14.4389 24.63 14.2647 24.63 14.083C24.63 13.9013 24.7022 13.7271 24.8306 13.5986C24.9591 13.4702 25.1333 13.398 25.315 13.398C25.4967 13.398 25.6709 13.4702 25.7994 13.5986C25.9278 13.7271 26 13.9013 26 14.083C26 14.2647 25.9278 14.4389 25.7994 14.5674C25.6709 14.6958 25.4967 14.768 25.315 14.768V14.768ZM25.315 18.467C25.1333 18.467 24.9591 18.3948 24.8306 18.2664C24.7022 18.1379 24.63 17.9637 24.63 17.782C24.63 17.6003 24.7022 17.4261 24.8306 17.2976C24.9591 17.1692 25.1333 17.097 25.315 17.097C25.4967 17.097 25.6709 17.1692 25.7994 17.2976C25.9278 17.4261 26 17.6003 26 17.782C26 17.9637 25.9278 18.1379 25.7994 18.2664C25.6709 18.3948 25.4967 18.467 25.315 18.467V18.467ZM6.685 14.768C6.50333 14.768 6.32909 14.6958 6.20063 14.5674C6.07217 14.4389 6 14.2647 6 14.083C6 13.9013 6.07217 13.7271 6.20063 13.5986C6.32909 13.4702 6.50333 13.398 6.685 13.398C6.86667 13.398 7.04091 13.4702 7.16937 13.5986C7.29783 13.7271 7.37 13.9013 7.37 14.083C7.37 14.2647 7.29783 14.4389 7.16937 14.5674C7.04091 14.6958 6.86667 14.768 6.685 14.768V14.768ZM6.685 18.467C6.50333 18.467 6.32909 18.3948 6.20063 18.2664C6.07217 18.1379 6 17.9637 6 17.782C6 17.6003 6.07217 17.4261 6.20063 17.2976C6.32909 17.1692 6.50333 17.097 6.685 17.097C6.86667 17.097 7.04091 17.1692 7.16937 17.2976C7.29783 17.4261 7.37 17.6003 7.37 17.782C7.37 17.9637 7.29783 18.1379 7.16937 18.2664C7.04091 18.3948 6.86667 18.467 6.685 18.467V18.467ZM14.219 26C14.0373 26 13.8631 25.9278 13.7346 25.7994C13.6062 25.6709 13.534 25.4967 13.534 25.315C13.534 25.1333 13.6062 24.9591 13.7346 24.8306C13.8631 24.7022 14.0373 24.63 14.219 24.63C14.4007 24.63 14.5749 24.7022 14.7034 24.8306C14.8318 24.9591 14.904 25.1333 14.904 25.315C14.904 25.4967 14.8318 25.6709 14.7034 25.7994C14.5749 25.9278 14.4007 26 14.219 26ZM17.918 26C17.7363 26 17.5621 25.9278 17.4336 25.7994C17.3052 25.6709 17.233 25.4967 17.233 25.315C17.233 25.1333 17.3052 24.9591 17.4336 24.8306C17.5621 24.7022 17.7363 24.63 17.918 24.63C18.0997 24.63 18.2739 24.7022 18.4024 24.8306C18.5308 24.9591 18.603 25.1333 18.603 25.315C18.603 25.4967 18.5308 25.6709 18.4024 25.7994C18.2739 25.9278 18.0997 26 17.918 26Z" fill="white"/>
</g>
<defs>
<clipPath id="clip0_0_1122">
<rect width="32" height="32" fill="white"/>
</clipPath>
</defs>
</svg>
