<svg width="32" height="32" viewBox="0 0 32 32" fill="none" xmlns="http://www.w3.org/2000/svg">
<g clip-path="url(#clip0_0_1112)">
<path d="M16 32C24.8366 32 32 24.8366 32 16C32 7.16344 24.8366 0 16 0C7.16344 0 0 7.16344 0 16C0 24.8366 7.16344 32 16 32Z" fill="black"/>
<path d="M9 21.8944L15.956 26.2704H16.798L23.642 21.8944L22.576 21.0534L16.349 25.0364L9.898 21.0534L9 21.8944ZM12.366 11.7414L16.293 5.79444L20.332 11.7974L21.286 10.9554L16.798 4.22444C16.798 4.22444 16.405 3.71944 15.788 4.22444L11.188 11.1244L12.366 11.7414V11.7414Z" fill="white" fill-opacity="0.703"/>
<path d="M16.5365 23.8472C16.7605 23.0612 17.0415 22.3322 17.2665 21.5472C18.2765 18.4052 19.2855 15.2072 20.2955 12.0662C20.3515 11.8982 20.4075 11.6732 20.4635 11.5062C20.5755 11.1682 20.7435 11.0002 21.0805 11.0002C21.2268 10.9964 21.3697 11.0452 21.4829 11.138C21.5962 11.2307 21.6724 11.361 21.6975 11.5052C21.9775 12.6272 22.2025 13.8052 22.4825 14.9272C22.9875 17.0592 23.4365 19.2472 23.9415 21.3782C24.0535 21.8832 23.8855 22.2202 23.4925 22.3322C23.0995 22.4442 22.8195 22.1642 22.7075 21.6592C22.1465 19.2472 21.5855 16.8342 21.0805 14.3662C21.0805 14.2542 21.0245 14.1982 20.9685 14.0292C20.922 14.1827 20.8655 14.333 20.7995 14.4792C19.7345 17.7322 18.7245 20.9862 17.6585 24.2392C17.4905 24.8562 17.2655 25.4172 17.0975 26.0342C16.9855 26.4272 16.7605 26.5952 16.4245 26.5952C16.0875 26.5952 15.8635 26.4272 15.7515 26.0352C14.5175 22.1642 13.2825 18.2932 12.1045 14.4222C12.0485 14.3102 12.0485 14.2542 11.9925 14.0292C11.8924 14.5368 11.7804 15.0419 11.6565 15.5442C11.2065 17.5642 10.7585 19.6392 10.3095 21.6592C10.1975 22.2192 9.74951 22.5002 9.29951 22.2192C9.01951 22.0512 8.96351 21.7712 9.01951 21.4342C9.63651 18.6292 10.3095 15.8242 10.9265 13.0202C11.0385 12.5702 11.1515 12.1222 11.2065 11.6732C11.3195 11.2252 11.5435 11.0002 11.8805 11.0002C12.2175 11.0002 12.4405 11.2252 12.5535 11.6732C13.8435 15.7132 15.1335 19.8082 16.3685 23.8472H16.5365V23.8472Z" fill="white"/>
</g>
<defs>
<clipPath id="clip0_0_1112">
<rect width="32" height="32" fill="white"/>
</clipPath>
</defs>
</svg>
