<svg width="32" height="32" viewBox="0 0 32 32" fill="none" xmlns="http://www.w3.org/2000/svg">
<g clip-path="url(#clip0_0_2038)">
<path d="M16 32C24.8366 32 32 24.8366 32 16C32 7.16344 24.8366 0 16 0C7.16344 0 0 7.16344 0 16C0 24.8366 7.16344 32 16 32Z" fill="#DA1157"/>
<path d="M20.9882 19.006C21.7907 19.006 22.5604 18.6872 23.1279 18.1197C23.6954 17.5522 24.0142 16.7825 24.0142 15.98C24.0142 15.1775 23.6954 14.4078 23.1279 13.8403C22.5604 13.2728 21.7907 12.954 20.9882 12.954C20.1856 12.954 19.416 13.2728 18.8485 13.8403C18.281 14.4078 17.9622 15.1775 17.9622 15.98C17.9622 16.7825 18.281 17.5522 18.8485 18.1197C19.416 18.6872 20.1856 19.006 20.9882 19.006V19.006ZM20.9882 9.001C22.1405 9.00032 23.2751 9.28495 24.2907 9.82949C25.3063 10.374 26.1713 11.1615 26.8084 12.1217C27.4455 13.0819 27.835 14.1849 27.9421 15.3323C28.0492 16.4797 27.8706 17.6357 27.4222 18.6972C26.9737 19.7588 26.2694 20.6927 25.3722 21.4158C24.4749 22.1389 23.4126 22.6286 22.28 22.8412C21.1475 23.0538 19.9799 22.9827 18.8815 22.6342C17.7831 22.2857 16.788 21.6707 15.9852 20.844C17.2544 19.5432 17.964 17.7974 17.9622 15.98C17.9641 14.1626 17.2545 12.4167 15.9852 11.116C16.6346 10.446 17.4123 9.91342 18.2717 9.55007C19.1312 9.18672 20.055 9 20.9882 9.001V9.001ZM10.9832 19.006C11.7857 19.006 12.5554 18.6872 13.1229 18.1197C13.6904 17.5522 14.0092 16.7825 14.0092 15.98C14.0092 15.1775 13.6904 14.4078 13.1229 13.8403C12.5554 13.2728 11.7857 12.954 10.9832 12.954C10.1806 12.954 9.41097 13.2728 8.84348 13.8403C8.276 14.4078 7.95719 15.1775 7.95719 15.98C7.95719 16.7825 8.276 17.5522 8.84348 18.1197C9.41097 18.6872 10.1806 19.006 10.9832 19.006V19.006ZM15.9862 11.116C14.7174 12.4169 14.0081 14.1628 14.0102 15.98C14.0102 17.872 14.7642 19.587 15.9862 20.844C15.0182 21.8403 13.775 22.5251 12.4156 22.8108C11.0562 23.0965 9.64252 22.9701 8.35538 22.4478C7.06825 21.9254 5.96623 21.0309 5.19034 19.8788C4.41446 18.7266 4 17.3691 4 15.98C4 14.5909 4.41446 13.2334 5.19034 12.0812C5.96623 10.9291 7.06825 10.0346 8.35538 9.51225C9.64252 8.98993 11.0562 8.86353 12.4156 9.14923C13.775 9.43493 15.0182 10.1197 15.9862 11.116V11.116ZM14.0092 15.981C14.0092 17.873 14.7632 19.588 15.9862 20.845C17.2551 19.5441 17.9644 17.7982 17.9622 15.981C17.9644 14.1638 17.2551 12.4179 15.9862 11.117C14.7169 12.4177 14.0073 14.1636 14.0092 15.981V15.981Z" fill="white"/>
</g>
<defs>
<clipPath id="clip0_0_2038">
<rect width="32" height="32" fill="white"/>
</clipPath>
</defs>
</svg>
