<svg width="32" height="32" viewBox="0 0 32 32" fill="none" xmlns="http://www.w3.org/2000/svg">
<g clip-path="url(#clip0_0_2034)">
<path d="M16 32C24.8366 32 32 24.8366 32 16C32 7.16344 24.8366 0 16 0C7.16344 0 0 7.16344 0 16C0 24.8366 7.16344 32 16 32Z" fill="#242424"/>
<path d="M22.2567 7.27C22.2567 7.971 21.6867 8.54 20.9827 8.54C20.8156 8.54026 20.6502 8.50762 20.4957 8.44394C20.3413 8.38026 20.2009 8.28679 20.0826 8.16885C19.9643 8.05092 19.8704 7.91085 19.8063 7.75662C19.7421 7.6024 19.7089 7.43704 19.7087 7.27C19.7087 6.568 20.2787 6 20.9827 6C21.6867 6 22.2567 6.568 22.2567 7.27ZM21.3387 11.694C20.7427 11.694 20.2587 11.212 20.2587 10.618C20.2587 10.024 20.7427 9.543 21.3387 9.543C21.9347 9.543 22.4177 10.024 22.4177 10.618C22.4177 11.212 21.9347 11.694 21.3377 11.694H21.3387ZM21.0037 14.347C20.884 14.3473 20.7654 14.3239 20.6548 14.2783C20.5442 14.2327 20.4436 14.1657 20.3589 14.0812C20.2742 13.9966 20.207 13.8962 20.1611 13.7857C20.1153 13.6752 20.0917 13.5567 20.0917 13.437C20.0918 13.3174 20.1155 13.199 20.1614 13.0886C20.2073 12.9782 20.2746 12.8779 20.3593 12.7935C20.444 12.709 20.5445 12.6422 20.655 12.5966C20.7656 12.551 20.8841 12.5277 21.0037 12.528C21.1233 12.5277 21.2419 12.5511 21.3525 12.5967C21.4632 12.6423 21.5637 12.7093 21.6484 12.7938C21.7331 12.8784 21.8003 12.9788 21.8462 13.0893C21.8921 13.1998 21.9157 13.3183 21.9157 13.438C21.9155 13.5576 21.8918 13.676 21.8459 13.7864C21.8 13.8968 21.7328 13.9971 21.6481 14.0815C21.5634 14.166 21.4629 14.2328 21.3523 14.2784C21.2417 14.324 21.1232 14.3473 21.0037 14.347V14.347ZM20.9497 15.719C20.9497 15.9259 20.8675 16.1243 20.7212 16.2705C20.5749 16.4168 20.3765 16.499 20.1697 16.499C19.9628 16.499 19.7644 16.4168 19.6181 16.2705C19.4718 16.1243 19.3897 15.9259 19.3897 15.719C19.3897 15.5121 19.4718 15.3137 19.6181 15.1675C19.7644 15.0212 19.9628 14.939 20.1697 14.939C20.3765 14.939 20.5749 15.0212 20.7212 15.1675C20.8675 15.3137 20.9497 15.5121 20.9497 15.719V15.719ZM19.7157 17.443C19.7157 17.813 19.4157 18.11 19.0467 18.11C18.9146 18.1096 18.7856 18.0701 18.676 17.9964C18.5664 17.9227 18.4811 17.8182 18.4308 17.696C18.3806 17.5739 18.3677 17.4396 18.3938 17.3101C18.4199 17.1806 18.4838 17.0618 18.5774 16.9686C18.671 16.8754 18.7901 16.8121 18.9197 16.7866C19.0493 16.7611 19.1835 16.7746 19.3054 16.8253C19.4274 16.8761 19.5315 16.9619 19.6047 17.0718C19.6779 17.1818 19.7169 17.3109 19.7167 17.443H19.7157ZM18.3657 18.666C18.3657 18.8182 18.3052 18.9642 18.1975 19.0719C18.0899 19.1795 17.9439 19.24 17.7917 19.24C17.6394 19.24 17.4934 19.1795 17.3858 19.0719C17.2781 18.9642 17.2177 18.8182 17.2177 18.666C17.2177 18.5138 17.2781 18.3678 17.3858 18.2601C17.4934 18.1525 17.6394 18.092 17.7917 18.092C17.9439 18.092 18.0899 18.1525 18.1975 18.2601C18.3052 18.3678 18.3657 18.5138 18.3657 18.666ZM25.2397 11.257C25.1656 11.5273 24.9898 11.7584 24.7491 11.9018C24.5084 12.0453 24.2214 12.0899 23.9485 12.0264C23.6755 11.9629 23.4378 11.7962 23.2851 11.5612C23.1325 11.3262 23.0768 11.0412 23.1297 10.766C23.1948 10.4862 23.3684 10.2437 23.6123 10.0919C23.8561 9.9401 24.1504 9.89139 24.4302 9.9565C24.71 10.0216 24.9524 10.1952 25.1043 10.4391C25.2561 10.683 25.3048 10.9772 25.2397 11.257V11.257ZM24.7217 14.06C24.6664 14.2968 24.5192 14.502 24.3127 14.6304C24.1061 14.7587 23.857 14.7998 23.6202 14.7445C23.3833 14.6892 23.1781 14.5421 23.0498 14.3355C22.9214 14.1289 22.8804 13.8798 22.9357 13.643C22.991 13.4062 23.1381 13.201 23.3446 13.0726C23.5512 12.9443 23.8003 12.9032 24.0372 12.9585C24.274 13.0138 24.4792 13.1609 24.6075 13.3675C24.7359 13.5741 24.777 13.8232 24.7217 14.06V14.06ZM23.7577 16.297C23.711 16.4972 23.5867 16.6707 23.4121 16.7793C23.2375 16.8879 23.0269 16.9227 22.8267 16.876C22.6264 16.8293 22.4529 16.705 22.3443 16.5304C22.2358 16.3558 22.201 16.1452 22.2477 15.945C22.3016 15.7525 22.4277 15.5883 22.5997 15.4865C22.7717 15.3848 22.9764 15.3533 23.171 15.3986C23.3657 15.444 23.5353 15.5628 23.6446 15.7301C23.7539 15.8975 23.7944 16.1005 23.7577 16.297V16.297ZM22.5157 18C22.4691 18.1637 22.3613 18.3033 22.2146 18.3897C22.0679 18.4762 21.8936 18.5029 21.7278 18.4643C21.562 18.4257 21.4173 18.3249 21.3239 18.1826C21.2304 18.0403 21.1952 17.8675 21.2257 17.7C21.2454 17.6154 21.2817 17.5355 21.3324 17.4649C21.383 17.3944 21.4471 17.3345 21.521 17.2887C21.5948 17.2429 21.6769 17.2121 21.7627 17.1981C21.8484 17.1841 21.9361 17.1871 22.0207 17.207C22.1053 17.2264 22.1853 17.2624 22.256 17.3128C22.3267 17.3632 22.3868 17.4271 22.4328 17.5008C22.4787 17.5744 22.5097 17.6564 22.524 17.7421C22.5382 17.8278 22.5354 17.9154 22.5157 18V18ZM21.1587 19.189C21.1416 19.2618 21.1104 19.3304 21.0667 19.3911C21.0231 19.4518 20.968 19.5033 20.9045 19.5427C20.841 19.582 20.7703 19.6085 20.6966 19.6206C20.6228 19.6326 20.5474 19.6301 20.4747 19.613C20.4019 19.5959 20.3332 19.5647 20.2725 19.5211C20.2119 19.4775 20.1604 19.4223 20.121 19.3588C20.0816 19.2953 20.0552 19.2246 20.0431 19.1509C20.031 19.0772 20.0336 19.0018 20.0507 18.929C20.0851 18.7821 20.1766 18.6549 20.3048 18.5753C20.4331 18.4958 20.5877 18.4705 20.7347 18.505C20.8816 18.5395 21.0088 18.6309 21.0883 18.7592C21.1678 18.8875 21.1931 19.0421 21.1587 19.189ZM19.8037 19.94C19.767 20.0584 19.6869 20.1586 19.5794 20.2202C19.4719 20.2819 19.345 20.3006 19.2243 20.2724C19.1035 20.2443 18.998 20.1714 18.9288 20.0685C18.8597 19.9657 18.8321 19.8404 18.8517 19.718C18.8883 19.5996 18.9684 19.4994 19.0759 19.4378C19.1835 19.3761 19.3103 19.3574 19.4311 19.3856C19.5518 19.4137 19.6573 19.4866 19.7265 19.5895C19.7956 19.6923 19.8232 19.8176 19.8037 19.94V19.94ZM26.9077 15.084C26.8007 15.3038 26.6109 15.4722 26.38 15.5523C26.149 15.6323 25.8957 15.6175 25.6757 15.511C25.5666 15.4587 25.4689 15.3854 25.3883 15.2952C25.3076 15.2051 25.2456 15.0998 25.2059 14.9856C25.1661 14.8713 25.1493 14.7504 25.1565 14.6296C25.1636 14.5089 25.1946 14.3907 25.2477 14.282C25.3546 14.0625 25.5442 13.8942 25.775 13.8142C26.0057 13.7342 26.2587 13.7488 26.4787 13.855C26.5876 13.9075 26.6851 13.9809 26.7656 14.0711C26.8461 14.1613 26.908 14.2664 26.9479 14.3806C26.9877 14.4947 27.0047 14.6156 26.9978 14.7363C26.9909 14.857 26.9602 14.9751 26.9077 15.084V15.084ZM25.9467 17.299C25.851 17.4773 25.6903 17.6118 25.4979 17.6745C25.3055 17.7371 25.0963 17.7231 24.914 17.6352C24.7317 17.5474 24.5904 17.3925 24.5196 17.203C24.4487 17.0135 24.4537 16.8039 24.5337 16.618C24.6251 16.4314 24.7865 16.2885 24.9827 16.2203C25.179 16.1522 25.3943 16.1643 25.5817 16.254C25.6745 16.2984 25.7576 16.3607 25.8263 16.4373C25.8949 16.5139 25.9477 16.6034 25.9816 16.7005C26.0156 16.7977 26.03 16.9006 26.0239 17.0033C26.0179 17.106 25.9917 17.2065 25.9467 17.299V17.299ZM24.7387 18.979C24.6598 19.1404 24.5202 19.264 24.3504 19.3229C24.1807 19.3817 23.9945 19.371 23.8327 19.293C23.7527 19.2545 23.6811 19.2006 23.622 19.1344C23.5629 19.0682 23.5175 18.991 23.4883 18.9072C23.4591 18.8234 23.4468 18.7347 23.452 18.6461C23.4572 18.5575 23.4799 18.4708 23.5187 18.391C23.6013 18.237 23.7403 18.121 23.9065 18.067C24.0727 18.013 24.2534 18.0253 24.4107 18.1012C24.5681 18.1772 24.6901 18.311 24.7512 18.4748C24.8123 18.6385 24.8078 18.8195 24.7387 18.98V18.979ZM23.3927 20.167C23.3241 20.3067 23.2032 20.4136 23.0561 20.4646C22.9091 20.5155 22.7479 20.5063 22.6077 20.439C22.5362 20.4067 22.472 20.3604 22.4187 20.3029C22.3654 20.2453 22.3242 20.1777 22.2975 20.104C22.2708 20.0302 22.2592 19.9519 22.2633 19.8736C22.2673 19.7953 22.2871 19.7186 22.3213 19.648C22.3555 19.5775 22.4035 19.5145 22.4624 19.4628C22.5214 19.4111 22.5901 19.3717 22.6645 19.347C22.739 19.3223 22.8176 19.3128 22.8957 19.3189C22.9739 19.3251 23.05 19.3469 23.1197 19.383C23.1891 19.4166 23.2512 19.4634 23.3025 19.521C23.3537 19.5786 23.3932 19.6457 23.4185 19.7185C23.4439 19.7913 23.4547 19.8683 23.4502 19.9453C23.4458 20.0223 23.4262 20.0976 23.3927 20.167V20.167ZM22.0377 20.899C21.9762 21.013 21.8731 21.0988 21.7499 21.1387C21.6267 21.1786 21.4929 21.1694 21.3763 21.1131C21.2597 21.0568 21.1693 20.9577 21.1239 20.8364C21.0785 20.7151 21.0816 20.581 21.1327 20.462C21.1965 20.3523 21.2994 20.2708 21.4208 20.2336C21.5422 20.1965 21.6731 20.2065 21.7874 20.2617C21.9017 20.3169 21.9909 20.4132 22.0373 20.5313C22.0837 20.6495 22.0839 20.7808 22.0377 20.899V20.899ZM20.7647 21.268C20.7151 21.3696 20.6273 21.4474 20.5205 21.4845C20.4137 21.5216 20.2966 21.515 20.1947 21.466C20.1444 21.4416 20.0994 21.4075 20.0623 21.3657C20.0251 21.3239 19.9966 21.2751 19.9783 21.2223C19.96 21.1695 19.9523 21.1135 19.9556 21.0577C19.959 21.0019 19.9732 20.9473 19.9977 20.897C20.0221 20.8467 20.0562 20.8017 20.098 20.7646C20.1398 20.7275 20.1885 20.6989 20.2414 20.6807C20.2942 20.6624 20.3501 20.6547 20.4059 20.658C20.4617 20.6613 20.5164 20.6756 20.5667 20.7C20.617 20.7243 20.662 20.7582 20.6992 20.7999C20.7364 20.8416 20.765 20.8902 20.7834 20.9429C20.8018 20.9957 20.8096 21.0516 20.8064 21.1073C20.8032 21.1631 20.789 21.2177 20.7647 21.268V21.268ZM21.8007 26.124C21.6558 26.0412 21.5287 25.9305 21.4267 25.7984C21.3247 25.6663 21.2498 25.5154 21.2063 25.3542C21.1628 25.1931 21.1516 25.025 21.1733 24.8595C21.195 24.694 21.2491 24.5345 21.3327 24.39C21.5022 24.0981 21.7804 23.8853 22.1065 23.7979C22.4326 23.7106 22.7799 23.7559 23.0727 23.924C23.6827 24.274 23.8927 25.051 23.5417 25.658C23.3723 25.9501 23.0941 26.1631 22.7679 26.2505C22.4418 26.3378 22.0943 26.2923 21.8017 26.124H21.8007ZM18.8107 24.592C18.688 24.5219 18.5803 24.4283 18.494 24.3164C18.4076 24.2046 18.3442 24.0768 18.3074 23.9404C18.2706 23.8039 18.2611 23.6616 18.2795 23.5215C18.2979 23.3814 18.3439 23.2463 18.4147 23.124C18.5581 22.8768 18.7936 22.6965 19.0696 22.6225C19.3457 22.5485 19.6398 22.5868 19.8877 22.729C20.4037 23.025 20.5807 23.683 20.2837 24.197C20.1404 24.4444 19.9049 24.6249 19.6288 24.6989C19.3527 24.773 19.0585 24.7345 18.8107 24.592V24.592ZM16.6087 22.752C16.5048 22.6926 16.4137 22.6133 16.3407 22.5186C16.2676 22.4239 16.2139 22.3156 16.1828 22.2001C16.1517 22.0846 16.1437 21.9641 16.1593 21.8455C16.1749 21.7269 16.2137 21.6125 16.2737 21.509C16.3951 21.3 16.5944 21.1477 16.8279 21.0853C17.0614 21.0228 17.3101 21.0555 17.5197 21.176C17.6232 21.2353 17.714 21.3145 17.7869 21.4089C17.8598 21.5034 17.9134 21.6113 17.9445 21.7265C17.9756 21.8417 17.9837 21.9619 17.9683 22.0802C17.9529 22.1985 17.9142 22.3126 17.8547 22.416C17.7339 22.6257 17.5348 22.7789 17.3012 22.8419C17.0676 22.9049 16.8185 22.8725 16.6087 22.752ZM15.1077 20.778C15.0193 20.7269 14.9418 20.6588 14.8798 20.5777C14.8177 20.4966 14.7722 20.4041 14.7459 20.3055C14.7195 20.2068 14.7129 20.1039 14.7263 20.0027C14.7398 19.9015 14.773 19.8039 14.8242 19.7155C14.8753 19.6271 14.9434 19.5497 15.0244 19.4876C15.1055 19.4255 15.198 19.38 15.2967 19.3537C15.3954 19.3274 15.4982 19.3207 15.5995 19.3342C15.7007 19.3476 15.7983 19.3808 15.8867 19.432C16.2587 19.646 16.3867 20.121 16.1717 20.492C16.0683 20.6708 15.8983 20.8014 15.6988 20.855C15.4993 20.9086 15.2867 20.8809 15.1077 20.778ZM14.2247 18.852C14.1486 18.8085 14.0818 18.7503 14.0283 18.6809C13.9747 18.6115 13.9353 18.5322 13.9125 18.4476C13.8896 18.3629 13.8837 18.2746 13.8951 18.1877C13.9064 18.1008 13.9348 18.0169 13.9787 17.941C14.0677 17.7874 14.214 17.6754 14.3855 17.6295C14.557 17.5836 14.7398 17.6075 14.8937 17.696C15.2137 17.88 15.3237 18.288 15.1397 18.606C15.0509 18.76 14.9047 18.8724 14.7331 18.9185C14.5615 18.9646 14.3786 18.9407 14.2247 18.852V18.852ZM13.8357 17.075C13.7703 17.0375 13.7131 16.9875 13.6671 16.9278C13.6212 16.8681 13.5875 16.7999 13.568 16.7271C13.5485 16.6544 13.5435 16.5785 13.5534 16.5038C13.5633 16.4291 13.5879 16.3572 13.6257 16.292C13.7022 16.1606 13.8275 16.0648 13.9744 16.0255C14.1213 15.9861 14.2777 16.0064 14.4097 16.082C14.4749 16.1197 14.532 16.1699 14.5778 16.2296C14.6236 16.2894 14.6572 16.3576 14.6767 16.4304C14.6961 16.5031 14.7011 16.579 14.6912 16.6537C14.6813 16.7283 14.6568 16.8003 14.6192 16.8655C14.5815 16.9307 14.5313 16.9878 14.4715 17.0337C14.4118 17.0795 14.3436 17.1131 14.2708 17.1325C14.198 17.152 14.1222 17.1569 14.0475 17.147C13.9728 17.1372 13.9009 17.1127 13.8357 17.075V17.075ZM17.5857 27.001C17.4436 27.0013 17.3029 26.9735 17.1716 26.9194C17.0403 26.8652 16.9209 26.7857 16.8203 26.6854C16.7198 26.5851 16.6399 26.466 16.5854 26.3348C16.5309 26.2037 16.5028 26.063 16.5027 25.921C16.5028 25.779 16.5309 25.6384 16.5854 25.5073C16.64 25.3762 16.7198 25.2571 16.8204 25.1569C16.921 25.0567 17.0404 24.9773 17.1717 24.9233C17.303 24.8692 17.4437 24.8416 17.5857 24.842C18.1837 24.842 18.6687 25.325 18.6687 25.922C18.6687 26.518 18.1837 27.001 17.5857 27.001ZM14.6677 24.863C14.5798 24.7811 14.5089 24.6827 14.4591 24.5734C14.4094 24.4641 14.3817 24.346 14.3777 24.2259C14.3737 24.1059 14.3935 23.9862 14.4359 23.8738C14.4782 23.7614 14.5424 23.6585 14.6247 23.571C14.7914 23.394 15.0215 23.2902 15.2645 23.2824C15.5075 23.2745 15.7438 23.3632 15.9217 23.529C16.2917 23.874 16.3097 24.452 15.9637 24.821C15.7969 24.9977 15.5671 25.1013 15.3243 25.1091C15.0815 25.117 14.8455 25.0285 14.6677 24.863ZM13.2027 22.915C13.1284 22.8456 13.0687 22.7623 13.0267 22.6697C12.9848 22.5772 12.9615 22.4773 12.9583 22.3758C12.955 22.2742 12.9718 22.173 13.0078 22.078C13.0437 21.983 13.098 21.896 13.1677 21.822C13.3084 21.6723 13.5028 21.5844 13.7082 21.5777C13.9136 21.5709 14.1134 21.6458 14.2637 21.786C14.3382 21.8552 14.3983 21.9384 14.4404 22.0309C14.4826 22.1234 14.5061 22.2234 14.5094 22.325C14.5127 22.4266 14.4959 22.5279 14.4599 22.623C14.4239 22.7181 14.3695 22.8051 14.2997 22.879C14.1587 23.0288 13.9642 23.1167 13.7586 23.1234C13.553 23.1302 13.3531 23.0552 13.2027 22.915ZM12.3437 20.991C12.2802 20.9319 12.229 20.8607 12.1931 20.7818C12.1573 20.7028 12.1374 20.6175 12.1346 20.5307C12.1318 20.444 12.1462 20.3576 12.1769 20.2765C12.2076 20.1954 12.2541 20.1211 12.3137 20.058C12.4339 19.9302 12.5999 19.8552 12.7753 19.8494C12.9507 19.8436 13.1212 19.9074 13.2497 20.027C13.3131 20.0862 13.3643 20.1574 13.4002 20.2364C13.4361 20.3155 13.4561 20.4008 13.4589 20.4876C13.4618 20.5743 13.4475 20.6608 13.417 20.742C13.3864 20.8233 13.34 20.8977 13.2807 20.961C13.1602 21.089 12.994 21.164 12.8184 21.1696C12.6427 21.1752 12.472 21.111 12.3437 20.991V20.991ZM11.9877 19.227C11.9333 19.1762 11.8895 19.1151 11.8587 19.0473C11.828 18.9795 11.8109 18.9063 11.8085 18.8319C11.8061 18.7575 11.8184 18.6833 11.8446 18.6137C11.8709 18.544 11.9107 18.4803 11.9617 18.426C12.0649 18.3158 12.2076 18.251 12.3586 18.246C12.5095 18.2409 12.6563 18.2959 12.7667 18.399C12.9967 18.613 13.0067 18.972 12.7927 19.201C12.6893 19.3111 12.5465 19.3756 12.3955 19.3805C12.2446 19.3854 12.0979 19.3302 11.9877 19.227V19.227ZM12.0117 17.681C11.9648 17.6375 11.927 17.5851 11.9004 17.5269C11.8738 17.4686 11.8591 17.4057 11.8569 17.3418C11.8548 17.2778 11.8653 17.2141 11.8879 17.1542C11.9106 17.0944 11.9448 17.0396 11.9887 16.993C12.0775 16.8987 12.2001 16.8435 12.3296 16.8394C12.4591 16.8352 12.585 16.8826 12.6797 16.971C12.7621 17.0621 12.8072 17.181 12.8061 17.3039C12.8049 17.4267 12.7574 17.5447 12.6732 17.6342C12.589 17.7237 12.4742 17.7782 12.3516 17.7869C12.229 17.7956 12.1076 17.7578 12.0117 17.681V17.681ZM12.6867 26.241C12.6187 26.1412 12.571 26.0289 12.5465 25.9107C12.5219 25.7924 12.521 25.6705 12.5436 25.5519C12.5663 25.4332 12.6122 25.3202 12.6786 25.2194C12.745 25.1185 12.8307 25.0317 12.9307 24.964C13.133 24.8266 13.3816 24.775 13.6219 24.8205C13.8622 24.8661 14.0746 25.0051 14.2127 25.207C14.2808 25.3067 14.3285 25.4189 14.3531 25.5371C14.3777 25.6553 14.3787 25.7772 14.356 25.8957C14.3333 26.0143 14.2874 26.1273 14.221 26.228C14.1545 26.3288 14.0687 26.4155 13.9687 26.483C13.7664 26.6203 13.518 26.6719 13.2777 26.6265C13.0375 26.5812 12.825 26.4426 12.6867 26.241V26.241ZM11.2407 24.305C11.1826 24.2201 11.1418 24.1246 11.1208 24.024C11.0997 23.9233 11.0988 23.8195 11.118 23.7184C11.1373 23.6174 11.1763 23.5212 11.2329 23.4353C11.2894 23.3494 11.3624 23.2756 11.4477 23.218C11.6197 23.1015 11.8309 23.0577 12.0351 23.0963C12.2393 23.1349 12.42 23.2527 12.5377 23.424C12.5958 23.5089 12.6365 23.6044 12.6575 23.705C12.6786 23.8057 12.6795 23.9095 12.6603 24.0106C12.641 24.1116 12.602 24.2078 12.5454 24.2937C12.4889 24.3796 12.4159 24.4534 12.3307 24.511C12.1587 24.6278 11.9474 24.6717 11.7431 24.6331C11.5388 24.5945 11.3582 24.4765 11.2407 24.305ZM10.3827 22.422C10.3327 22.3487 10.2976 22.2663 10.2796 22.1794C10.2615 22.0926 10.2608 22.003 10.2774 21.9158C10.294 21.8287 10.3277 21.7457 10.3765 21.6716C10.4253 21.5975 10.4882 21.5337 10.5617 21.484C10.7104 21.3832 10.8929 21.3454 11.0694 21.3788C11.2459 21.4121 11.402 21.5139 11.5037 21.662C11.5539 21.7354 11.5891 21.8181 11.6073 21.9052C11.6255 21.9923 11.6262 22.0821 11.6095 22.1695C11.5927 22.2569 11.5589 22.3401 11.5098 22.4143C11.4608 22.4886 11.3975 22.5523 11.3237 22.602C11.1748 22.7022 10.9923 22.7396 10.8161 22.7059C10.6398 22.6721 10.484 22.5701 10.3827 22.422V22.422ZM10.0227 20.668C9.97924 20.6043 9.94881 20.5327 9.9331 20.4573C9.91739 20.3819 9.91672 20.3041 9.93111 20.2283C9.94551 20.1526 9.9747 20.0805 10.017 20.0161C10.0593 19.9517 10.1139 19.8963 10.1777 19.853C10.3068 19.7654 10.4654 19.7326 10.6187 19.7616C10.772 19.7907 10.9075 19.8793 10.9957 20.008C11.0393 20.0716 11.0699 20.1433 11.0857 20.2188C11.1014 20.2943 11.1021 20.3722 11.0876 20.448C11.0731 20.5238 11.0437 20.596 11.0011 20.6603C10.9586 20.7247 10.9037 20.78 10.8397 20.823C10.7106 20.9103 10.5523 20.9429 10.3992 20.9139C10.2462 20.8849 10.1108 20.7965 10.0227 20.668V20.668ZM10.0627 19.132C10.0255 19.0777 9.99945 19.0165 9.98597 18.9521C9.9725 18.8877 9.97187 18.8213 9.98414 18.7566C9.9964 18.6919 10.0213 18.6303 10.0574 18.5753C10.0936 18.5203 10.1402 18.473 10.1947 18.436C10.3049 18.3611 10.4404 18.3329 10.5714 18.3576C10.7024 18.3824 10.8183 18.458 10.8937 18.568C10.9595 18.6782 10.9807 18.8094 10.9529 18.9347C10.9252 19.0601 10.8505 19.1701 10.7443 19.2421C10.6381 19.3142 10.5083 19.343 10.3816 19.3225C10.2549 19.302 10.1408 19.2339 10.0627 19.132V19.132ZM10.3767 17.849C10.3434 17.8027 10.3198 17.7502 10.3071 17.6946C10.2945 17.6391 10.2931 17.5815 10.3031 17.5254C10.313 17.4693 10.3341 17.4157 10.3651 17.3679C10.396 17.32 10.4363 17.2789 10.4834 17.2468C10.5306 17.2148 10.5836 17.1925 10.6395 17.1813C10.6954 17.1701 10.753 17.1702 10.8088 17.1815C10.8647 17.1929 10.9177 17.2154 10.9647 17.2476C11.0117 17.2798 11.0518 17.3211 11.0827 17.369C11.1429 17.4627 11.1641 17.5761 11.1419 17.6852C11.1196 17.7944 11.0557 17.8904 10.9636 17.9531C10.8715 18.0157 10.7586 18.0398 10.649 18.0204C10.5393 18.0009 10.4416 17.9394 10.3767 17.849V17.849ZM5.63666 16.307C5.92933 16.1387 6.27679 16.0932 6.60293 16.1805C6.92906 16.2679 7.20729 16.4809 7.37666 16.773C7.46009 16.9175 7.5142 17.077 7.53588 17.2424C7.55756 17.4078 7.54639 17.5758 7.50301 17.7369C7.45963 17.898 7.38489 18.0489 7.28307 18.1811C7.18125 18.3132 7.05436 18.424 6.90966 18.507C6.29966 18.857 5.52166 18.648 5.17066 18.042C5.08703 17.8976 5.03274 17.738 5.0109 17.5726C4.98906 17.4071 5.00011 17.2389 5.0434 17.0777C5.0867 16.9165 5.16139 16.7655 5.26319 16.6332C5.365 16.501 5.49191 16.3901 5.63666 16.307V16.307ZM8.46666 14.497C8.71432 14.354 9.00859 14.3151 9.28491 14.3888C9.56124 14.4624 9.79706 14.6427 9.94066 14.89C10.2377 15.405 10.0607 16.062 9.54466 16.359C9.29684 16.5011 9.00291 16.5394 8.72696 16.4656C8.45102 16.3917 8.21546 16.2118 8.07166 15.965C8.00079 15.8427 7.95478 15.7076 7.93628 15.5675C7.91778 15.4273 7.92716 15.2849 7.96386 15.1484C8.00057 15.0119 8.06388 14.884 8.15017 14.772C8.23645 14.6601 8.34401 14.5663 8.46666 14.496V14.497ZM11.1677 13.52C11.3772 13.3997 11.6259 13.3673 11.8593 13.4296C12.0927 13.492 12.292 13.6442 12.4137 13.853C12.4734 13.9565 12.5121 14.0708 12.5276 14.1893C12.5431 14.3079 12.5352 14.4283 12.5041 14.5437C12.4731 14.6591 12.4197 14.7673 12.3468 14.8621C12.274 14.9568 12.1832 15.0363 12.0797 15.096C11.87 15.2162 11.6212 15.2485 11.3878 15.1859C11.1543 15.1233 10.9551 14.9709 10.8337 14.762C10.7738 14.6586 10.735 14.5443 10.7195 14.4259C10.7039 14.3074 10.7118 14.1871 10.7429 14.0717C10.7739 13.9563 10.8274 13.8482 10.9003 13.7535C10.9732 13.6588 11.064 13.5795 11.1677 13.52V13.52ZM13.6347 13.214C13.8136 13.111 14.0261 13.0832 14.2256 13.1366C14.425 13.19 14.5951 13.3203 14.6987 13.499C14.7497 13.5873 14.7828 13.6848 14.7961 13.7859C14.8094 13.887 14.8026 13.9897 14.7762 14.0882C14.7497 14.1866 14.704 14.2789 14.6418 14.3597C14.5796 14.4405 14.5021 14.5082 14.4137 14.559C14.325 14.6103 14.227 14.6436 14.1254 14.6571C14.0238 14.6705 13.9206 14.6638 13.8216 14.6374C13.7226 14.6109 13.6298 14.5652 13.5485 14.5028C13.4672 14.4405 13.3989 14.3627 13.3477 14.274C13.2967 14.1856 13.2637 14.088 13.2505 13.9868C13.2374 13.8857 13.2444 13.7829 13.271 13.6844C13.2977 13.5859 13.3435 13.4937 13.4059 13.4129C13.4683 13.3322 13.5461 13.2646 13.6347 13.214V13.214ZM15.7487 13.418C15.9024 13.3295 16.085 13.3056 16.2563 13.3516C16.4276 13.3975 16.5738 13.5095 16.6627 13.663C16.7401 13.816 16.7559 13.9929 16.7068 14.1573C16.6577 14.3216 16.5475 14.4608 16.3988 14.5463C16.2501 14.6318 16.0743 14.6571 15.9076 14.6168C15.7409 14.5766 15.596 14.4739 15.5027 14.33C15.4587 14.254 15.4301 14.1701 15.4187 14.0831C15.4073 13.996 15.4131 13.9076 15.436 13.8228C15.4589 13.7381 15.4983 13.6587 15.5519 13.5892C15.6056 13.5197 15.6724 13.4615 15.7487 13.418V13.418ZM17.4867 13.972C17.6188 13.8964 17.7754 13.876 17.9224 13.9154C18.0694 13.9547 18.195 14.0505 18.2717 14.182C18.3096 14.2471 18.3342 14.3191 18.3442 14.3938C18.3542 14.4685 18.3492 14.5444 18.3297 14.6172C18.3102 14.69 18.2765 14.7582 18.2305 14.8179C18.1844 14.8776 18.1271 14.9276 18.0617 14.965C17.9965 15.0028 17.9245 15.0273 17.8498 15.0372C17.7751 15.0472 17.6992 15.0423 17.6264 15.0229C17.5536 15.0035 17.4853 14.9699 17.4255 14.9241C17.3656 14.8783 17.3154 14.8212 17.2777 14.756C17.2399 14.6908 17.2154 14.6188 17.2054 14.5441C17.1955 14.4694 17.2004 14.3935 17.2198 14.3207C17.2392 14.2479 17.2728 14.1796 17.3185 14.1198C17.3643 14.06 17.4215 14.0098 17.4867 13.972V13.972ZM7.61366 11.74C7.88842 11.6571 8.18484 11.6866 8.43791 11.8219C8.69098 11.9573 8.88005 12.1875 8.96366 12.462C9.02926 12.7316 8.98902 13.016 8.8512 13.2568C8.71339 13.4976 8.48851 13.6764 8.22285 13.7563C7.9572 13.8363 7.67099 13.8114 7.42317 13.6867C7.17534 13.562 6.98476 13.347 6.89066 13.086C6.84929 12.9502 6.83519 12.8075 6.84918 12.6662C6.86316 12.5248 6.90496 12.3877 6.97215 12.2626C7.03935 12.1375 7.13062 12.0269 7.24072 11.9372C7.35081 11.8475 7.47756 11.7805 7.61366 11.74V11.74ZM10.3077 10.787C10.5364 10.7277 10.7791 10.7592 10.9851 10.8749C11.1911 10.9906 11.3444 11.1814 11.4129 11.4075C11.4814 11.6336 11.4597 11.8775 11.3525 12.088C11.2453 12.2985 11.0608 12.4594 10.8377 12.537C10.7228 12.5718 10.6021 12.5836 10.4826 12.5718C10.3632 12.56 10.2472 12.5247 10.1413 12.4681C9.92753 12.3537 9.76794 12.1591 9.69766 11.927C9.62738 11.6949 9.65216 11.4445 9.76656 11.2307C9.88095 11.0169 10.0756 10.8573 10.3077 10.787V10.787ZM12.7337 10.5C12.9299 10.4407 13.1417 10.4618 13.3224 10.5587C13.5031 10.6556 13.6379 10.8202 13.6972 11.0165C13.7564 11.2128 13.7353 11.4245 13.6385 11.6052C13.5416 11.7859 13.3769 11.9207 13.1807 11.98C13.0835 12.0093 12.9815 12.0193 12.8805 12.0092C12.7794 11.9991 12.6814 11.9693 12.5919 11.9213C12.5025 11.8733 12.4233 11.8082 12.359 11.7297C12.2947 11.6511 12.2465 11.5607 12.2172 11.4635C12.1878 11.3663 12.1779 11.2643 12.188 11.1633C12.198 11.0623 12.2279 10.9642 12.2759 10.8748C12.3238 10.7853 12.3889 10.7062 12.4675 10.6419C12.546 10.5776 12.6365 10.5294 12.7337 10.5V10.5ZM14.8337 10.723C15.0014 10.6723 15.1824 10.6904 15.3368 10.7732C15.4913 10.856 15.6065 10.9968 15.6572 11.1645C15.7078 11.3322 15.6898 11.5133 15.607 11.6677C15.5242 11.8221 15.3834 11.9373 15.2157 11.988C15.0476 12.0385 14.8665 12.0203 14.7119 11.9374C14.5572 11.8546 14.4417 11.7138 14.3907 11.546C14.3656 11.4628 14.3572 11.3755 14.366 11.2891C14.3748 11.2026 14.4005 11.1188 14.4418 11.0423C14.483 10.9658 14.539 10.8983 14.6064 10.8435C14.6738 10.7887 14.7514 10.7477 14.8347 10.723H14.8337ZM16.5437 11.3C16.685 11.2653 16.8342 11.2861 16.9606 11.3581C17.087 11.4302 17.1809 11.5481 17.223 11.6873C17.2651 11.8266 17.2521 11.9768 17.1867 12.1068C17.1213 12.2368 17.0086 12.3367 16.8717 12.386C16.8004 12.4075 16.7255 12.4148 16.6514 12.4074C16.5773 12.4 16.5053 12.3781 16.4397 12.3429C16.374 12.3077 16.3159 12.26 16.2688 12.2023C16.2216 12.1447 16.1862 12.0783 16.1647 12.007C16.1431 11.9357 16.1358 11.8608 16.1432 11.7867C16.1506 11.7126 16.1725 11.6407 16.2077 11.575C16.2429 11.5094 16.2907 11.4513 16.3483 11.4041C16.406 11.3569 16.4724 11.3215 16.5437 11.3V11.3ZM17.8737 12.095C17.9349 12.0764 17.9991 12.0701 18.0628 12.0763C18.1264 12.0826 18.1882 12.1013 18.2446 12.1314C18.301 12.1616 18.351 12.2025 18.3915 12.2519C18.4321 12.3014 18.4626 12.3583 18.4812 12.4195C18.4997 12.4807 18.5061 12.545 18.4998 12.6086C18.4936 12.6723 18.4749 12.734 18.4447 12.7905C18.4146 12.8469 18.3736 12.8968 18.3242 12.9374C18.2748 12.978 18.2179 13.0084 18.1567 13.027C18.0331 13.0645 17.8996 13.0514 17.7857 12.9906C17.6718 12.9297 17.5867 12.8261 17.5492 12.7025C17.5116 12.5789 17.5247 12.4455 17.5856 12.3315C17.6464 12.2176 17.7501 12.1325 17.8737 12.095ZM10.1037 8.388C10.2244 8.37873 10.3458 8.39337 10.4608 8.43111C10.5759 8.46884 10.6823 8.52891 10.7741 8.60788C10.8659 8.68685 10.9412 8.78316 10.9957 8.89129C11.0502 8.99942 11.0828 9.11724 11.0917 9.238C11.1094 9.482 11.0295 9.72306 10.8696 9.90816C10.7096 10.0933 10.4827 10.2072 10.2387 10.225C9.99466 10.2428 9.7536 10.1629 9.5685 10.0029C9.3834 9.84295 9.26943 9.616 9.25166 9.372C9.24295 9.25136 9.25811 9.13018 9.29628 9.01541C9.33445 8.90063 9.39488 8.79451 9.47411 8.70311C9.55333 8.61172 9.64981 8.53684 9.75801 8.48277C9.8662 8.4287 9.984 8.39649 10.1047 8.388H10.1037ZM12.5107 8.11C12.7116 8.1054 12.9066 8.17823 13.0553 8.31342C13.204 8.4486 13.295 8.63578 13.3095 8.83623C13.324 9.03667 13.2609 9.23502 13.1333 9.39022C13.0056 9.54542 12.8231 9.64559 12.6237 9.67C12.5184 9.68288 12.4115 9.67423 12.3097 9.64458C12.2078 9.61493 12.1131 9.56488 12.0311 9.49749C11.9492 9.4301 11.8818 9.34676 11.8331 9.25254C11.7844 9.15831 11.7553 9.05517 11.7476 8.94936C11.74 8.84356 11.7539 8.7373 11.7885 8.63704C11.8232 8.53677 11.8778 8.44459 11.9492 8.3661C12.0206 8.2876 12.1071 8.22443 12.2036 8.1804C12.3001 8.13638 12.4046 8.11243 12.5107 8.11V8.11ZM14.5747 8.314C14.7472 8.31184 14.914 8.37562 15.041 8.49231C15.1681 8.609 15.2458 8.7698 15.2583 8.94186C15.2708 9.11392 15.2172 9.28427 15.1083 9.41811C14.9995 9.55195 14.8437 9.63918 14.6727 9.662C14.4966 9.67028 14.3242 9.60944 14.1923 9.49246C14.0604 9.37547 13.9795 9.21159 13.9667 9.03576C13.9539 8.85993 14.0103 8.68607 14.1239 8.55124C14.2375 8.41641 14.3992 8.33128 14.5747 8.314V8.314ZM16.2777 8.882C16.4292 8.87699 16.5769 8.93086 16.6896 9.0323C16.8024 9.13373 16.8715 9.27488 16.8825 9.42615C16.8935 9.57742 16.8455 9.72707 16.7486 9.84374C16.6517 9.96041 16.5134 10.035 16.3627 10.052C16.2841 10.0608 16.2046 10.0537 16.1289 10.0311C16.0531 10.0084 15.9828 9.97074 15.922 9.92023C15.8612 9.86973 15.8112 9.80747 15.775 9.73719C15.7389 9.66691 15.7173 9.59004 15.7116 9.51121C15.7058 9.43238 15.7161 9.35321 15.7417 9.27844C15.7673 9.20366 15.8078 9.13484 15.8606 9.07608C15.9135 9.01732 15.9777 8.96984 16.0494 8.93649C16.121 8.90314 16.1987 8.88461 16.2777 8.882V8.882Z" fill="white"/>
</g>
<defs>
<clipPath id="clip0_0_2034">
<rect width="32" height="32" fill="white"/>
</clipPath>
</defs>
</svg>
