<svg width="32" height="32" viewBox="0 0 32 32" fill="none" xmlns="http://www.w3.org/2000/svg">
<g clip-path="url(#clip0_0_2030)">
<path d="M16 32C24.8366 32 32 24.8366 32 16C32 7.16344 24.8366 0 16 0C7.16344 0 0 7.16344 0 16C0 24.8366 7.16344 32 16 32Z" fill="#00316D"/>
<path d="M18.1561 19.887C18.1431 19.863 18.1411 19.853 18.1361 19.85C17.5161 19.557 16.8961 19.263 16.2741 18.974C16.2411 18.958 16.1741 18.962 16.1531 18.985C15.8831 19.275 15.6191 19.572 15.3511 19.869C15.5451 20.012 17.9941 20.013 18.1561 19.887V19.887ZM12.4821 12.724L12.4201 12.594C12.3681 12.631 12.3001 12.658 12.2661 12.708C11.6932 13.5603 11.1239 14.415 10.5581 15.272C10.5231 15.326 10.5251 15.405 10.5081 15.472C10.5781 15.458 10.6561 15.461 10.7131 15.426C11.1988 15.1339 11.6802 14.8345 12.1571 14.528C12.2409 14.4689 12.2986 14.3797 12.3181 14.279C12.3821 13.779 12.4261 13.276 12.4821 12.724ZM24.4791 19.974H25.3051C25.4641 19.974 25.5251 19.914 25.4241 19.761C24.8991 18.959 24.3761 18.156 23.8491 17.357C23.8211 17.313 23.7571 17.294 23.7091 17.264C23.6841 17.314 23.6411 17.364 23.6361 17.417C23.5751 18.199 23.5201 18.981 23.4601 19.763C23.4491 19.912 23.5011 19.979 23.6531 19.976C23.9281 19.97 24.2031 19.974 24.4791 19.974V19.974ZM6.74507 19.914C6.87107 19.944 6.93307 19.972 6.99407 19.973C7.88707 19.975 8.78007 19.973 9.67207 19.975C9.84507 19.975 9.88907 19.914 9.81607 19.747C9.53592 19.1117 9.26191 18.4736 8.99407 17.833C8.91607 17.646 8.84407 17.655 8.72107 17.787C8.24507 18.301 7.76507 18.81 7.28707 19.321C7.12007 19.501 6.95707 19.681 6.74507 19.914V19.914ZM19.9401 15.301C19.9981 15.414 20.0171 15.463 20.0461 15.505L21.2541 17.259C21.7531 17.984 22.2511 18.709 22.7541 19.431C22.7881 19.481 22.8541 19.508 22.9041 19.545C22.9301 19.485 22.9721 19.428 22.9801 19.366C23.0001 19.196 23.0041 19.026 23.0151 18.856C23.0691 18.081 23.1291 17.307 23.1751 16.533C23.1951 16.203 23.0521 16.033 22.7391 15.955C21.9041 15.746 21.0691 15.536 20.2331 15.329C20.1581 15.311 20.0791 15.314 19.9401 15.301V15.301ZM19.7281 10.166L19.6521 10.179C19.6421 10.332 19.6271 10.486 19.6221 10.641L19.5111 14.412C19.5061 14.55 19.5471 14.622 19.6901 14.656C20.5561 14.866 21.4201 15.087 22.2861 15.3C22.3611 15.318 22.4441 15.301 22.5231 15.3C22.5031 15.223 22.4991 15.136 22.4621 15.068C21.5991 13.498 20.7341 11.928 19.8671 10.36C19.8291 10.291 19.7751 10.23 19.7281 10.166V10.166ZM15.8431 17.873C15.8671 17.74 15.8901 17.66 15.8931 17.58C15.9061 17.161 15.9071 16.742 15.9261 16.323C15.944 16.0038 15.8491 15.6884 15.6581 15.432C14.8641 14.3303 14.0724 13.227 13.2831 12.122C13.2471 12.072 13.2321 12.007 13.2071 11.949L13.1131 12.005C13.0901 12.089 13.0541 12.172 13.0451 12.257C12.9751 12.937 12.9151 13.617 12.8401 14.295C12.8287 14.3663 12.8342 14.4394 12.8563 14.5082C12.8783 14.577 12.9163 14.6396 12.9671 14.691C13.8621 15.688 14.7511 16.691 15.6441 17.691C15.6921 17.745 15.7501 17.789 15.8431 17.873ZM16.4201 17.664L16.4801 17.704C16.5351 17.661 16.6001 17.627 16.6441 17.574C17.4044 16.6509 18.1621 15.7255 18.9171 14.798C18.9634 14.7392 18.9906 14.6677 18.9951 14.593C19.0311 13.358 19.0621 12.123 19.0901 10.888C19.0921 10.82 19.0531 10.751 19.0321 10.683C18.9771 10.736 18.9001 10.779 18.8691 10.843C18.1691 12.325 17.5001 13.822 16.7661 15.285C16.3781 16.059 16.4401 16.858 16.4201 17.665V17.664ZM12.9171 19.975C13.3981 19.975 13.8801 19.982 14.3611 19.969C14.4709 19.9638 14.5751 19.9195 14.6551 19.844C14.9901 19.493 15.3041 19.121 15.6381 18.769C15.7631 18.639 15.7351 18.559 15.6291 18.443C15.0647 17.8309 14.5054 17.2142 13.9511 16.593C13.8171 16.443 13.7401 16.444 13.6201 16.608C12.8591 17.649 12.0901 18.683 11.3251 19.722C11.2871 19.774 11.2731 19.843 11.2471 19.904C11.3141 19.928 11.3811 19.971 11.4491 19.971C11.9391 19.977 12.4271 19.975 12.9171 19.975ZM13.4151 16.009C13.1491 15.7 12.8881 15.409 12.6411 15.104C12.5371 14.977 12.4571 14.964 12.3171 15.051C11.4811 15.577 10.6361 16.089 9.80207 16.618C9.65107 16.714 9.53207 16.863 9.40407 16.994C9.28507 17.116 9.30107 17.25 9.36607 17.4C9.69107 18.143 10.0081 18.889 10.3291 19.634C10.4511 19.914 10.4971 19.919 10.6841 19.669C11.1791 19.009 11.6721 18.346 12.1651 17.685L13.4151 16.009V16.009ZM19.2101 15.221C19.1451 15.326 19.1141 15.39 19.0701 15.442C18.2781 16.408 17.4851 17.374 16.6871 18.336C16.5571 18.493 16.6241 18.555 16.7711 18.622C17.6881 19.042 18.6011 19.469 19.5201 19.887C19.6378 19.94 19.765 19.9686 19.8941 19.971C20.6501 19.978 21.4071 19.976 22.1641 19.972C22.2341 19.972 22.3051 19.94 22.3761 19.922C22.3511 19.848 22.3401 19.763 22.2961 19.7C21.5985 18.6813 20.8988 17.6639 20.1971 16.648C19.8871 16.198 19.5751 15.748 19.2101 15.221V15.221ZM15.9931 20.998C12.5511 20.998 9.10907 20.997 5.66707 21C5.39907 21 5.15707 20.97 5.04107 20.682C4.93107 20.409 5.05907 20.207 5.23807 20.016C6.26607 18.918 7.30807 17.832 8.30807 16.71C8.69007 16.282 8.98507 15.773 9.30807 15.292C10.3431 13.744 11.3701 12.19 12.4101 10.646C12.5121 10.495 12.6681 10.342 12.8321 10.282C13.0581 10.198 13.2511 10.328 13.3951 10.534C14.2321 11.73 15.0751 12.922 15.9161 14.116C16.0891 14.36 16.1511 14.352 16.2791 14.074L18.8731 8.424C18.9751 8.202 19.1101 8.013 19.3731 8.001C19.6481 7.988 19.8151 8.155 19.9441 8.391C21.2461 10.753 22.5181 13.135 23.8711 15.467C24.6891 16.877 25.6361 18.208 26.5251 19.575C26.6351 19.743 26.7461 19.91 26.8541 20.08C26.9841 20.285 27.0611 20.51 26.9391 20.737C26.8191 20.957 26.5971 20.999 26.3641 20.999C22.9071 20.997 19.4501 20.998 15.9931 20.998" fill="white"/>
</g>
<defs>
<clipPath id="clip0_0_2030">
<rect width="32" height="32" fill="white"/>
</clipPath>
</defs>
</svg>
