<svg width="32" height="32" viewBox="0 0 32 32" fill="none" xmlns="http://www.w3.org/2000/svg">
<g clip-path="url(#clip0_0_2026)">
<path d="M16 32C24.8366 32 32 24.8366 32 16C32 7.16344 24.8366 0 16 0C7.16344 0 0 7.16344 0 16C0 24.8366 7.16344 32 16 32Z" fill="#1AAB9B"/>
<path d="M7.558 21.2533V13.2083L13.659 17.8003V21.2533H15.217V17.4773C15.2169 17.3364 15.184 17.1975 15.121 17.0715C15.058 16.9455 14.9666 16.8359 14.854 16.7513L7.455 11.1823C7.3201 11.0809 7.15966 11.0191 6.99163 11.0038C6.8236 10.9884 6.65462 11.0202 6.5036 11.0954C6.35258 11.1707 6.22549 11.2865 6.13655 11.4298C6.0476 11.5732 6.00032 11.7385 6 11.9073V21.2533H7.558ZM24.432 21.2533V13.2083L18.331 17.8003V21.2533H16.773V17.4773C16.773 17.1913 16.907 16.9223 17.135 16.7513L24.535 11.1823C24.67 11.0809 24.8305 11.019 24.9986 11.0037C25.1667 10.9884 25.3358 11.0203 25.4868 11.0956C25.6379 11.171 25.765 11.2869 25.8538 11.4305C25.9427 11.574 25.9899 11.7394 25.99 11.9083V21.2543H24.432V21.2533Z" fill="white"/>
</g>
<defs>
<clipPath id="clip0_0_2026">
<rect width="32" height="32" fill="white"/>
</clipPath>
</defs>
</svg>
