<svg width="32" height="32" viewBox="0 0 32 32" fill="none" xmlns="http://www.w3.org/2000/svg">
<g clip-path="url(#clip0_0_2014)">
<path d="M16 32C24.8366 32 32 24.8366 32 16C32 7.16344 24.8366 0 16 0C7.16344 0 0 7.16344 0 16C0 24.8366 7.16344 32 16 32Z" fill="#7F368A"/>
<path d="M25.148 21.615C25.213 21.878 24.951 22.009 24.754 21.944H21.476C21.279 21.944 21.148 21.878 21.016 21.812C20.82 21.746 20.689 21.484 20.623 21.221V21.155L17.541 9.789C17.476 9.789 17.279 9.986 17.213 9.986C17.148 10.051 17.016 10.117 16.951 10.051C16.82 9.986 16.754 9.789 16.82 9.657C16.95 9.329 17.279 9.131 17.607 9.066C18 9 18.328 9 18.721 9H21.148C21.344 9 21.541 9 21.738 9.066C21.935 9.197 22 9.46 22.066 9.657C22.196 10.117 22.262 10.577 22.394 11.037L23.967 16.951L24.557 19.316C24.754 20.039 25.017 20.828 25.147 21.616L25.148 21.615ZM17.541 21.615C17.607 21.878 17.344 22.009 17.148 21.944H13.869C13.672 21.944 13.541 21.878 13.409 21.812C13.213 21.746 13.082 21.484 13.016 21.221V21.155L9.935 9.789C9.869 9.789 9.672 9.986 9.607 9.986C9.541 10.051 9.41 10.117 9.344 10.051C9.214 9.986 9.148 9.789 9.214 9.657C9.344 9.329 9.672 9.131 10 9.066C10.394 9 10.721 9 11.115 9H13.541C13.738 9 13.935 9 14.131 9.066C14.328 9.197 14.394 9.46 14.459 9.657C14.59 10.117 14.656 10.577 14.787 11.037L16.361 16.951L16.951 19.316C17.148 20.039 17.41 20.828 17.541 21.616V21.615ZM11.508 19.118L10.721 21.615C10.6847 21.7447 10.6079 21.8593 10.5017 21.9421C10.3955 22.0248 10.2656 22.0714 10.131 22.075H6.656C6.48201 22.0745 6.31531 22.005 6.19237 21.8819C6.06943 21.7588 6.00026 21.592 6 21.418V21.286L8.754 10.905C8.82 10.773 8.951 10.642 9.082 10.642C9.279 10.642 9.41 10.773 9.41 10.905L11.508 19.118V19.118ZM19.246 18.921L18.787 20.301C18.721 20.432 18.656 20.498 18.525 20.498C18.394 20.498 18.328 20.432 18.262 20.301L15.967 12.284L16.427 10.642C16.427 10.51 16.557 10.445 16.689 10.445C16.819 10.445 16.951 10.51 16.951 10.642L19.246 18.921V18.921Z" fill="white"/>
</g>
<defs>
<clipPath id="clip0_0_2014">
<rect width="32" height="32" fill="white"/>
</clipPath>
</defs>
</svg>
