<svg width="32" height="32" viewBox="0 0 32 32" fill="none" xmlns="http://www.w3.org/2000/svg">
<g clip-path="url(#clip0_0_1994)">
<path d="M16 32C24.8366 32 32 24.8366 32 16C32 7.16344 24.8366 0 16 0C7.16344 0 0 7.16344 0 16C0 24.8366 7.16344 32 16 32Z" fill="#47B95C"/>
<path d="M16 6C10.48 6 6 10.48 6 16C6 16.133 6.013 16.26 6.02 16.393H10.713L12.98 12.493L16 16.82L19.013 12.493L21.28 16.393H25.973C25.98 16.26 25.993 16.133 25.993 16C26 10.48 21.52 6 16 6ZM22.893 15.187C22.487 11.74 19.553 9.06 16 9.06C12.447 9.06 9.513 11.747 9.107 15.187H7.893C8.3 11.073 11.78 7.853 16 7.853C20.22 7.853 23.693 11.073 24.107 15.187H22.893Z" fill="white"/>
<path d="M18.787 15L15.86 19.2L12.933 15L11.267 17.867H6C6.767 22.627 10.88 26.267 15.86 26.267C20.84 26.267 24.953 22.627 25.72 17.86H20.453L18.787 15ZM22.207 19.067H23.5C22.353 22.18 19.367 24.414 15.86 24.414C12.353 24.414 9.367 22.18 8.22 19.067H9.513C10.593 21.5 13.027 23.207 15.86 23.207C18.693 23.207 21.127 21.5 22.207 19.067Z" fill="white"/>
</g>
<defs>
<clipPath id="clip0_0_1994">
<rect width="32" height="32" fill="white"/>
</clipPath>
</defs>
</svg>
