<svg width="32" height="32" viewBox="0 0 32 32" fill="none" xmlns="http://www.w3.org/2000/svg">
<g clip-path="url(#clip0_0_1986)">
<path d="M16 32C24.8366 32 32 24.8366 32 16C32 7.16344 24.8366 0 16 0C7.16344 0 0 7.16344 0 16C0 24.8366 7.16344 32 16 32Z" fill="#104FCA"/>
<path d="M7 10L11.234 17.103V24.432C8.896 24.432 7 22.596 7 20.331V10Z" fill="white" fill-opacity="0.5"/>
<path d="M21 17.099L25.232 10H25.234V20.336C25.235 22.6 23.339 24.436 21 24.436V17.099Z" fill="white" fill-opacity="0.6"/>
<path d="M15.997 16.4403L13.88 19.9923C13.441 19.8823 12.969 19.4563 12.464 18.7153L7 9.5503C9.025 8.4173 11.615 9.0903 12.784 11.0503L15.997 16.4403Z" fill="white" fill-opacity="0.8"/>
<path d="M19.336 11.0515C20.505 9.08949 23.095 8.41749 25.12 9.55049L19.656 18.7155C19.2613 19.2876 18.7329 19.7546 18.1167 20.076C17.5004 20.3974 16.815 20.5633 16.12 20.5595C15.4618 20.5608 14.812 20.412 14.22 20.1245L14 20.0015L19.336 11.0515Z" fill="white"/>
</g>
<defs>
<clipPath id="clip0_0_1986">
<rect width="32" height="32" fill="white"/>
</clipPath>
</defs>
</svg>
