<svg width="32" height="32" viewBox="0 0 32 32" fill="none" xmlns="http://www.w3.org/2000/svg">
<g clip-path="url(#clip0_0_1970)">
<path d="M16 32C24.8366 32 32 24.8366 32 16C32 7.16344 24.8366 0 16 0C7.16344 0 0 7.16344 0 16C0 24.8366 7.16344 32 16 32Z" fill="#4A90E2"/>
<path d="M25.45 11C24.592 11 23.867 11.693 23.867 12.583C23.867 13.837 23.669 14.166 22.283 14.166H22.151C21.763 14.1987 21.4016 14.3764 21.1388 14.6636C20.876 14.9509 20.7311 15.3267 20.733 15.716V15.75C20.733 16.97 20.503 17.267 19.15 17.267C19.084 17.267 19.018 17.267 18.985 17.3C18.193 17.399 17.567 18.058 17.567 18.85C17.567 19.708 18.259 20.433 19.15 20.433C19.975 20.433 20.667 19.773 20.7 18.982V18.85C20.7 17.729 21.063 17.3 22.25 17.267H22.283C23.108 17.267 23.801 16.607 23.833 15.783V15.683C23.833 14.529 24.196 14.1 25.417 14.1C26.274 14.1 27 13.408 27 12.517C27 11.693 26.307 11 25.45 11V11ZM16.148 14.166C16.5327 14.2007 16.8917 14.3736 17.1587 14.6527C17.4257 14.9318 17.5825 15.2982 17.6 15.684C17.6 16.574 16.907 17.267 16.016 17.267C15.126 17.267 14.433 16.541 14.433 15.684C14.433 14.562 14.07 14.134 12.85 14.134C11.63 14.134 11.267 14.562 11.267 15.717V15.816C11.234 16.607 10.541 17.266 9.717 17.266C8.827 17.266 8.133 16.541 8.133 15.684C8.133 14.859 8.76 14.199 9.552 14.134H9.684C11.069 14.134 11.267 13.837 11.267 12.584C11.2816 12.1739 11.4547 11.7855 11.75 11.5005C12.0453 11.2155 12.4396 11.0563 12.85 11.0563C13.2604 11.0563 13.6547 11.2155 13.95 11.5005C14.2453 11.7855 14.4184 12.1739 14.433 12.584C14.433 13.837 14.631 14.166 16.016 14.166H16.148V14.166ZM6.583 20.433C6.16316 20.433 5.76052 20.2662 5.46365 19.9694C5.16678 19.6725 5 19.2698 5 18.85C5 18.4302 5.16678 18.0275 5.46365 17.7306C5.76052 17.4338 6.16316 17.267 6.583 17.267C7.00284 17.267 7.40548 17.4338 7.70235 17.7306C7.99922 18.0275 8.166 18.4302 8.166 18.85C8.166 19.2698 7.99922 19.6725 7.70235 19.9694C7.40548 20.2662 7.00284 20.433 6.583 20.433V20.433Z" fill="white"/>
</g>
<defs>
<clipPath id="clip0_0_1970">
<rect width="32" height="32" fill="white"/>
</clipPath>
</defs>
</svg>
