<svg width="32" height="32" viewBox="0 0 32 32" fill="none" xmlns="http://www.w3.org/2000/svg">
<g clip-path="url(#clip0_0_1958)">
<path d="M16 32C24.8366 32 32 24.8366 32 16C32 7.16344 24.8366 0 16 0C7.16344 0 0 7.16344 0 16C0 24.8366 7.16344 32 16 32Z" fill="#36A9CF"/>
<path fill-rule="evenodd" clip-rule="evenodd" d="M25.8103 18.4745C25.9863 18.5515 26.0513 18.7905 25.9563 19.0085C25.9279 19.0808 25.8812 19.1444 25.8206 19.193C25.7601 19.2416 25.6879 19.2735 25.6113 19.2855L23.3863 23.3885C23.4059 23.4801 23.4013 23.5753 23.3729 23.6646C23.3445 23.7538 23.2933 23.8342 23.2243 23.8975C23.1693 23.955 23.1024 23.9997 23.0283 24.0286C22.9542 24.0574 22.8746 24.0697 22.7953 24.0645L18.4563 26.6625C18.4225 26.7481 18.3669 26.8232 18.2949 26.8805C18.223 26.9377 18.1372 26.975 18.0463 26.9885C17.8323 27.0295 17.6283 26.9515 17.5303 26.8065L12.4323 26.4495C12.3689 26.4979 12.2955 26.5314 12.2174 26.5477C12.1394 26.5639 12.0587 26.5625 11.9813 26.5435C11.7293 26.4885 11.5553 26.2875 11.5653 26.0805L7.62628 23.2385C7.544 23.2533 7.45939 23.2483 7.37942 23.2239C7.29945 23.1996 7.2264 23.1566 7.16628 23.0985C6.99428 22.9425 6.93228 22.7155 6.99828 22.5435L5.37828 18.7865C5.20128 18.7515 5.04828 18.5775 5.00828 18.3475C4.97528 18.1405 5.04328 17.9455 5.17028 17.8415L5.40928 12.1545C5.35548 12.0812 5.32089 11.9956 5.30867 11.9054C5.29644 11.8153 5.30696 11.7236 5.33928 11.6385C5.41928 11.4055 5.61228 11.2585 5.80228 11.2685L10.0543 6.81355C10.0173 6.60355 10.1773 6.38055 10.4283 6.30155C10.5062 6.27498 10.5891 6.26685 10.6707 6.27778C10.7522 6.28871 10.8301 6.31841 10.8983 6.36455L17.0163 5.25255C17.0953 5.07255 17.3193 4.96655 17.5613 5.00955C17.7813 5.04755 17.9463 5.19855 17.9853 5.37255L20.8113 6.98455C20.8896 6.95951 20.9725 6.95173 21.0541 6.96174C21.1358 6.97176 21.2143 6.99932 21.2843 7.04255C21.3614 7.08741 21.4272 7.14929 21.4768 7.22346C21.5264 7.29763 21.5583 7.38214 21.5703 7.47055L22.7863 8.28854C22.8647 8.26727 22.947 8.26432 23.0268 8.27993C23.1065 8.29554 23.1816 8.32928 23.2463 8.37855C23.4743 8.54255 23.5563 8.82855 23.4263 9.01855L23.4183 9.02855L25.2013 12.5085C25.3713 12.4855 25.5453 12.6175 25.6073 12.8265C25.6753 13.0555 25.5813 13.2885 25.3993 13.3465C25.2163 13.4065 25.0133 13.2685 24.9463 13.0405L24.9343 12.9905L21.2653 11.0255C21.2069 11.1077 21.1274 11.1726 21.0353 11.2135V21.0075C21.1551 21.0604 21.2529 21.1532 21.312 21.2701C21.3711 21.387 21.3878 21.5207 21.3593 21.6485L22.8493 23.1665C22.9256 23.1342 23.009 23.1225 23.0913 23.1325L25.3413 19.1565C25.3025 19.0926 25.2802 19.0199 25.2766 18.9452C25.2729 18.8705 25.2879 18.796 25.3203 18.7285C25.4153 18.5105 25.6353 18.3975 25.8103 18.4745V18.4745ZM25.8143 18.9495C25.8523 18.8615 25.8253 18.7665 25.7553 18.7355C25.6853 18.7055 25.5973 18.7505 25.5593 18.8375C25.5213 18.9245 25.5473 19.0195 25.6183 19.0515C25.6883 19.0815 25.7753 19.0365 25.8143 18.9495ZM23.1493 23.7415C23.2293 23.6615 23.2433 23.5435 23.1803 23.4775C23.1173 23.4115 23.0013 23.4225 22.9203 23.5015C22.8403 23.5815 22.8263 23.7005 22.8893 23.7665C22.9523 23.8325 23.0693 23.8215 23.1493 23.7415V23.7415ZM22.5203 23.4915L22.5313 23.4675L21.1023 22.0135C21.0168 22.0669 20.9181 22.0953 20.8173 22.0955C20.7123 22.0953 20.6095 22.0651 20.5211 22.0084C20.4327 21.9517 20.3623 21.8709 20.3183 21.7755H18.4003C18.3507 21.8797 18.2704 21.9663 18.1703 22.0235L18.3573 24.7305C18.4313 24.7625 18.4973 24.8085 18.5473 24.8655L22.5203 23.4915ZM18.3523 26.2775L21.8193 24.2015L18.6593 25.2935C18.6384 25.3725 18.5991 25.4455 18.5447 25.5065C18.4903 25.5674 18.4224 25.6147 18.3463 25.6445L18.2503 26.2085C18.2873 26.2267 18.3217 26.2499 18.3523 26.2775V26.2775ZM18.0273 26.8155C18.1373 26.7955 18.2123 26.7055 18.1963 26.6135C18.1803 26.5235 18.0763 26.4655 17.9663 26.4875C17.8573 26.5075 17.7813 26.5975 17.7973 26.6885C17.8143 26.7795 17.9173 26.8365 18.0273 26.8155V26.8155ZM17.5233 26.4175C17.5897 26.3081 17.6934 26.2264 17.8153 26.1875L17.9063 25.6525C17.8252 25.6224 17.7523 25.5738 17.6933 25.5105L13.7153 26.1525L17.5233 26.4175ZM13.8023 22.0815L12.5083 25.8985L17.5243 25.0885L13.9753 22.0085C13.9222 22.0425 13.8637 22.0672 13.8023 22.0815V22.0815ZM12.1373 25.6365L13.3713 21.9975C13.29 21.9412 13.2251 21.8642 13.1833 21.7745H10.9273C10.9134 21.8022 10.8977 21.829 10.8803 21.8545L12.1373 25.6365ZM11.9843 26.3715C12.0943 26.3955 12.1983 26.3415 12.2163 26.2515C12.2363 26.1615 12.1633 26.0685 12.0533 26.0435C11.9433 26.0205 11.8393 26.0735 11.8203 26.1635C11.8013 26.2555 11.8743 26.3475 11.9843 26.3715V26.3715ZM7.89728 22.9595L11.7023 25.7055L10.5003 22.0895C10.4136 22.1008 10.3255 22.0913 10.2432 22.0617C10.161 22.0322 10.0869 21.9834 10.0273 21.9195L7.90428 22.8445C7.90733 22.883 7.90531 22.9216 7.89828 22.9595H7.89728ZM7.54128 22.3615C7.59537 22.3854 7.64586 22.4167 7.69128 22.4545L9.87428 21.5045C9.8786 21.3965 9.91326 21.2918 9.97428 21.2025L6.59828 17.7135L7.54128 22.3615ZM7.51828 22.9705C7.57828 22.9025 7.55828 22.7845 7.47528 22.7085C7.39128 22.6335 7.27528 22.6275 7.21528 22.6965C7.15528 22.7665 7.17328 22.8845 7.25728 22.9595C7.34128 23.0345 7.45828 23.0395 7.51728 22.9705H7.51828ZM5.72828 18.6375L6.89028 21.3305L6.11128 17.4925L5.80428 18.1465C5.8292 18.2289 5.83531 18.3157 5.82216 18.4007C5.809 18.4857 5.77692 18.5666 5.72828 18.6375V18.6375ZM5.70028 14.2975L5.56028 17.6495L5.83828 17.0595C5.79238 16.9725 5.77033 16.8748 5.77437 16.7764C5.77841 16.6781 5.80839 16.5826 5.86128 16.4995L5.70028 14.2975ZM5.50028 11.6465C5.46228 11.7545 5.50328 11.8665 5.58828 11.8975C5.67428 11.9275 5.77228 11.8655 5.80928 11.7575C5.84628 11.6495 5.80728 11.5375 5.72128 11.5065C5.63528 11.4765 5.53728 11.5385 5.49928 11.6465H5.50028ZM6.34428 16.7995C6.34428 16.6855 6.26128 16.5935 6.16128 16.5935C6.06028 16.5935 5.97728 16.6855 5.97728 16.7995C5.97728 16.9145 6.06028 17.0065 6.16128 17.0065C6.26128 17.0065 6.34428 16.9145 6.34428 16.7995ZM6.11428 11.9135C6.08611 11.9985 6.0393 12.076 5.97728 12.1405L6.26728 16.1305L8.04728 10.5015L6.14228 11.7945C6.13668 11.835 6.12731 11.8748 6.11428 11.9135V11.9135ZM9.14028 8.32855L6.70628 10.8785L7.95328 10.0325C7.97003 9.91866 8.01934 9.81205 8.09528 9.72555C8.17346 9.63264 8.27927 9.56712 8.39728 9.53855L9.14028 8.32855ZM10.3943 7.12155L8.80728 9.70355C8.84562 9.77488 8.8623 9.85586 8.85528 9.93655L10.0303 10.2975C10.0916 10.2318 10.1683 10.1822 10.2535 10.1531C10.3386 10.1241 10.4297 10.1166 10.5184 10.1313C10.6072 10.1459 10.691 10.1823 10.7623 10.2371C10.8336 10.2919 10.8903 10.3635 10.9273 10.4455H12.8943C12.9308 10.3671 12.985 10.2983 13.0527 10.2445C13.1204 10.1907 13.1997 10.1534 13.2843 10.1355L14.3533 7.86155C14.2957 7.7857 14.2578 7.69668 14.2433 7.60255L10.9753 6.87855C10.9012 6.9862 10.7925 7.06525 10.6673 7.10255C10.5791 7.13075 10.4856 7.1376 10.3943 7.12255V7.12155ZM10.4523 6.46855C10.3453 6.50155 10.2803 6.60055 10.3063 6.68855C10.3333 6.77755 10.4413 6.82155 10.5473 6.78855C10.6543 6.75555 10.7203 6.65655 10.6933 6.56855C10.6673 6.47955 10.5603 6.43455 10.4523 6.46855ZM16.7003 5.70455L11.7683 6.60255L14.3483 7.17355C14.4179 7.07846 14.5162 7.00833 14.6288 6.97357C14.7414 6.9388 14.8622 6.94125 14.9733 6.98055L16.7003 5.70455ZM17.3053 5.80155L15.4663 7.16155L20.5113 7.30155L20.5223 7.26355L17.8483 5.73955C17.7874 5.78415 17.7179 5.81563 17.6443 5.83198C17.5706 5.84833 17.4943 5.84921 17.4203 5.83455C17.3809 5.82747 17.3424 5.81641 17.3053 5.80155V5.80155ZM17.5433 5.18255C17.4333 5.16255 17.3303 5.22055 17.3153 5.31255C17.3003 5.40255 17.3753 5.49255 17.4863 5.51255C17.5963 5.53255 17.6983 5.47455 17.7143 5.38255C17.7303 5.29255 17.6533 5.20255 17.5433 5.18255ZM20.7763 7.90755C20.708 7.86538 20.6486 7.81036 20.6013 7.74555L15.3383 7.59955C15.3343 7.63082 15.3272 7.66163 15.3173 7.69155L17.4413 10.1405C17.564 10.1139 17.6921 10.1296 17.8047 10.1852C17.9174 10.2408 18.0078 10.3329 18.0613 10.4465H20.3183C20.3734 10.3292 20.4674 10.2345 20.5843 10.1785L20.7763 7.90755ZM20.8163 10.4655C20.6953 10.4655 20.5963 10.5675 20.5963 10.6925C20.5963 10.8175 20.6953 10.9185 20.8163 10.9185C20.9393 10.9185 21.0393 10.8175 21.0393 10.6925C21.0393 10.5675 20.9393 10.4655 20.8173 10.4655H20.8163ZM20.9153 7.26555C20.8603 7.36155 20.9013 7.49155 21.0073 7.55355C21.1123 7.61755 21.2433 7.59055 21.2973 7.49355C21.3533 7.39755 21.3123 7.26855 21.2063 7.20555C21.1003 7.14255 20.9703 7.16955 20.9153 7.26555V7.26555ZM24.8303 12.5835L21.2033 7.99655L21.0203 10.1655C21.1174 10.2053 21.2015 10.2712 21.2633 10.3559C21.3251 10.4407 21.3622 10.541 21.3703 10.6455L24.8303 12.5835ZM22.5373 8.58655L21.7233 8.04055L24.3503 11.4605L23.0723 9.17355C22.9654 9.16525 22.863 9.12753 22.7763 9.06455C22.6063 8.94355 22.5163 8.75455 22.5363 8.58655H22.5373ZM22.9173 8.52955C22.8653 8.60555 22.8973 8.71955 22.9893 8.78555C23.0803 8.85055 23.1973 8.84255 23.2493 8.76555C23.3013 8.69055 23.2693 8.57555 23.1783 8.51055C23.0853 8.44555 22.9693 8.45355 22.9183 8.53055L22.9173 8.52955ZM17.3473 10.6925C17.3473 10.8145 17.4423 10.9135 17.5633 10.9135C17.6213 10.9128 17.6766 10.8891 17.7173 10.8477C17.7579 10.8063 17.7805 10.7505 17.7803 10.6925C17.7808 10.6344 17.7583 10.5783 17.7176 10.5367C17.6769 10.4951 17.6215 10.4713 17.5633 10.4705C17.5051 10.4713 17.4496 10.4951 17.4089 10.5367C17.3683 10.5783 17.3457 10.6344 17.3463 10.6925H17.3473ZM17.4663 15.4655C17.4369 15.4658 17.4078 15.4719 17.3807 15.4834C17.3536 15.4949 17.3291 15.5116 17.3085 15.5326C17.2879 15.5536 17.2716 15.5784 17.2606 15.6057C17.2495 15.6329 17.244 15.6621 17.2443 15.6915C17.2443 15.8165 17.3443 15.9185 17.4663 15.9185C17.4957 15.9182 17.5247 15.912 17.5518 15.9004C17.5788 15.8887 17.6033 15.8719 17.6238 15.8508C17.6443 15.8297 17.6605 15.8048 17.6714 15.7775C17.6823 15.7502 17.6877 15.721 17.6873 15.6915C17.6877 15.6622 17.6823 15.633 17.6714 15.6057C17.6605 15.5785 17.6443 15.5536 17.6237 15.5326C17.6032 15.5116 17.5787 15.4949 17.5517 15.4834C17.5247 15.4719 17.4956 15.4658 17.4663 15.4655V15.4655ZM14.5693 7.44155C14.5693 7.56655 14.6683 7.66755 14.7903 7.66755C14.8197 7.66728 14.8488 7.66123 14.8758 7.64973C14.9029 7.63823 14.9275 7.62151 14.9481 7.60053C14.9687 7.57954 14.985 7.5547 14.996 7.52742C15.007 7.50014 15.0125 7.47096 15.0123 7.44155C15.0123 7.31655 14.9123 7.21455 14.7903 7.21455C14.7609 7.21494 14.7318 7.22112 14.7048 7.23274C14.6778 7.24436 14.6533 7.26119 14.6328 7.28227C14.6122 7.30335 14.5961 7.32826 14.5852 7.35559C14.5743 7.38292 14.5689 7.41213 14.5693 7.44155ZM14.7313 8.07855L13.7173 10.2335C13.8306 10.3169 13.909 10.4393 13.9373 10.5771C13.9656 10.7149 13.9417 10.8583 13.8703 10.9795L17.2503 15.1695C17.2813 15.1567 17.3134 15.1466 17.3463 15.1395V11.2135C17.2721 11.1812 17.2057 11.1334 17.1516 11.0733C17.0975 11.0132 17.0569 10.9422 17.0325 10.865C17.0082 10.7879 17.0006 10.7064 17.0104 10.6261C17.0202 10.5458 17.0471 10.4686 17.0893 10.3995L15.0293 8.02555C14.9368 8.07058 14.8336 8.08894 14.7313 8.07855V8.07855ZM13.1713 10.6925C13.1713 10.8175 13.2713 10.9185 13.3933 10.9185C13.5143 10.9185 13.6143 10.8175 13.6143 10.6925C13.6143 10.5675 13.5143 10.4655 13.3933 10.4655C13.3338 10.4663 13.277 10.4907 13.2354 10.5332C13.1938 10.5758 13.1707 10.633 13.1713 10.6925V10.6925ZM10.2113 10.6925C10.2113 10.8145 10.3073 10.9135 10.4273 10.9135C10.5473 10.9135 10.6443 10.8145 10.6443 10.6925C10.6443 10.5695 10.5473 10.4705 10.4273 10.4705C10.3073 10.4705 10.2113 10.5705 10.2113 10.6925ZM10.4273 21.3025C10.398 21.3029 10.3691 21.3091 10.3422 21.3207C10.3153 21.3322 10.2909 21.349 10.2705 21.37C10.25 21.391 10.2339 21.4158 10.2231 21.443C10.2123 21.4702 10.2069 21.4993 10.2073 21.5285C10.2073 21.6535 10.3053 21.7545 10.4273 21.7545C10.4567 21.7543 10.4858 21.7482 10.5129 21.7367C10.5399 21.7252 10.5645 21.7085 10.5851 21.6875C10.6057 21.6665 10.622 21.6417 10.633 21.6144C10.644 21.5871 10.6495 21.558 10.6493 21.5285C10.6497 21.4991 10.6442 21.4699 10.6333 21.4425C10.6223 21.4152 10.606 21.3903 10.5854 21.3693C10.5647 21.3483 10.5401 21.3315 10.513 21.3201C10.4859 21.3086 10.4567 21.3027 10.4273 21.3025V21.3025ZM8.23128 9.84255C8.15828 9.92855 8.15228 10.0475 8.22128 10.1085C8.28828 10.1685 8.40328 10.1505 8.47728 10.0635C8.55128 9.97855 8.55628 9.85955 8.48828 9.79855C8.42028 9.73655 8.30628 9.75655 8.23128 9.84255ZM6.60628 16.5015C6.66233 16.5908 6.69182 16.6942 6.69128 16.7995C6.69128 16.9095 6.66128 17.0115 6.60928 17.0945L10.2113 20.8165V11.2135C10.1135 11.1705 10.0299 11.1005 9.97024 11.0118C9.91059 10.9232 9.87732 10.8194 9.87428 10.7125L8.65228 10.3375C8.61432 10.372 8.57195 10.4013 8.52628 10.4245L6.60628 16.5015ZM17.9003 20.9615C18.1393 20.9615 18.3423 21.1165 18.4203 21.3315H20.2983C20.3239 21.2598 20.364 21.1941 20.4159 21.1384C20.4678 21.0827 20.5306 21.0382 20.6003 21.0075V11.2135C20.5305 11.183 20.4678 11.1384 20.4158 11.0827C20.3639 11.027 20.3239 10.9613 20.2983 10.8895H18.0823C18.0564 10.9611 18.0162 11.0267 17.9644 11.0824C17.9125 11.138 17.8498 11.1827 17.7803 11.2135V15.2235C17.8549 15.2765 17.9157 15.3467 17.9575 15.4282C17.9993 15.5097 18.0208 15.6 18.0203 15.6915C18.0219 15.8402 17.9644 15.9833 17.8606 16.0896C17.7567 16.196 17.6149 16.2567 17.4663 16.2585C17.3927 16.2578 17.3199 16.2425 17.2522 16.2135C17.1845 16.1846 17.1231 16.1426 17.0717 16.0899C17.0202 16.0373 16.9797 15.975 16.9523 15.9066C16.925 15.8383 16.9114 15.7652 16.9123 15.6915C16.9123 15.6215 16.9243 15.5545 16.9483 15.4915L13.5203 11.2435C13.3878 11.274 13.2487 11.2548 13.1295 11.1896C13.0102 11.1243 12.9191 11.0176 12.8733 10.8895H10.9473C10.9212 10.9612 10.881 11.0268 10.8289 11.0825C10.7768 11.1382 10.714 11.1828 10.6443 11.2135V21.0075C10.7843 21.0675 10.8933 21.1855 10.9473 21.3315H13.1623C13.1883 21.2599 13.2286 21.1942 13.2807 21.1386C13.3327 21.0829 13.3955 21.0383 13.4653 21.0075V16.9375C13.3837 16.8863 13.3165 16.8152 13.27 16.7309C13.2234 16.6466 13.1991 16.5518 13.1993 16.4555C13.1984 16.3818 13.212 16.3087 13.2394 16.2402C13.2668 16.1718 13.3075 16.1095 13.359 16.0568C13.4106 16.0041 13.4721 15.9621 13.5399 15.9333C13.6077 15.9044 13.6806 15.8892 13.7543 15.8885C13.8452 15.8889 13.9346 15.9113 14.0149 15.9539C14.0952 15.9965 14.1639 16.0581 14.2151 16.1332C14.2663 16.2083 14.2985 16.2947 14.3088 16.385C14.3191 16.4754 14.3072 16.5668 14.2743 16.6515L17.7573 20.9815C17.8039 20.969 17.852 20.9623 17.9003 20.9615ZM18.1403 25.0085C18.0203 25.0085 17.9203 25.0985 17.9203 25.2105C17.9203 25.3225 18.0203 25.4115 18.1403 25.4115C18.2633 25.4115 18.3633 25.3215 18.3633 25.2115C18.3633 25.1015 18.2633 25.0085 18.1413 25.0085H18.1403ZM17.6793 21.5285C17.6793 21.6535 17.7783 21.7545 17.8993 21.7545C17.9288 21.7544 17.958 21.7485 17.9852 21.737C18.0124 21.7256 18.037 21.7089 18.0577 21.6879C18.0785 21.6669 18.0948 21.642 18.1059 21.6147C18.117 21.5873 18.1225 21.558 18.1223 21.5285C18.1225 21.4991 18.117 21.4699 18.106 21.4427C18.095 21.4154 18.0787 21.3906 18.0581 21.3696C18.0375 21.3486 18.0129 21.3319 17.9859 21.3204C17.9588 21.3089 17.9297 21.3028 17.9003 21.3025C17.841 21.3033 17.7845 21.3276 17.7431 21.3699C17.7017 21.4123 17.6787 21.4693 17.6793 21.5285ZM13.5323 16.4555C13.5323 16.5805 13.6323 16.6815 13.7543 16.6815C13.8763 16.6815 13.9753 16.5805 13.9753 16.4555C13.9753 16.3295 13.8763 16.2295 13.7543 16.2295C13.6323 16.2295 13.5323 16.3295 13.5323 16.4555ZM13.6823 21.3025C13.6529 21.3028 13.6238 21.3089 13.5967 21.3204C13.5696 21.3319 13.5451 21.3486 13.5245 21.3696C13.5039 21.3906 13.4876 21.4154 13.4766 21.4427C13.4655 21.4699 13.46 21.4991 13.4603 21.5285C13.4603 21.6535 13.5603 21.7545 13.6823 21.7545C13.8043 21.7545 13.9033 21.6535 13.9033 21.5285C13.9037 21.4992 13.8983 21.47 13.8874 21.4427C13.8765 21.4155 13.8603 21.3906 13.8397 21.3696C13.8192 21.3486 13.7947 21.3319 13.7677 21.3204C13.7407 21.3089 13.7116 21.3028 13.6823 21.3025ZM13.8983 21.0075C14.0177 21.0599 14.1153 21.1519 14.1747 21.268C14.2341 21.3841 14.2516 21.5171 14.2243 21.6445L17.8173 24.7615C17.85 24.7425 17.8845 24.7268 17.9203 24.7145L17.7363 22.0705C17.6223 22.0331 17.5231 21.9604 17.453 21.863C17.383 21.7656 17.3456 21.6485 17.3463 21.5285C17.3463 21.4285 17.3713 21.3355 17.4163 21.2555L13.9733 16.9755C13.949 16.9862 13.9239 16.9949 13.8983 17.0015V21.0075ZM21.0383 21.5275C21.0385 21.4983 21.033 21.4692 21.0221 21.4421C21.0111 21.4149 20.9949 21.3902 20.9744 21.3693C20.9539 21.3484 20.9294 21.3317 20.9025 21.3203C20.8755 21.3088 20.8466 21.3028 20.8173 21.3025C20.7879 21.3028 20.7588 21.3089 20.7317 21.3204C20.7046 21.3319 20.6801 21.3486 20.6595 21.3696C20.6389 21.3906 20.6226 21.4154 20.6116 21.4427C20.6005 21.4699 20.595 21.4991 20.5953 21.5285C20.5953 21.6535 20.6953 21.7545 20.8173 21.7545C20.9393 21.7545 21.0393 21.6535 21.0393 21.5285L21.0383 21.5275ZM5.32828 18.5065C5.41828 18.4915 5.47528 18.3875 5.45628 18.2755C5.43628 18.1625 5.34928 18.0835 5.26028 18.0995C5.17028 18.1145 5.11428 18.2195 5.13328 18.3315C5.15128 18.4445 5.23928 18.5235 5.32828 18.5065V18.5065ZM25.3003 12.7925C25.2283 12.8155 25.1903 12.9095 25.2173 13.0005C25.2443 13.0915 25.3253 13.1465 25.3973 13.1235C25.4713 13.1005 25.5073 13.0065 25.4813 12.9155C25.4553 12.8235 25.3733 12.7695 25.3013 12.7925H25.3003Z" fill="white"/>
</g>
<defs>
<clipPath id="clip0_0_1958">
<rect width="32" height="32" fill="white"/>
</clipPath>
</defs>
</svg>
