<svg width="32" height="32" viewBox="0 0 32 32" fill="none" xmlns="http://www.w3.org/2000/svg">
<g clip-path="url(#clip0_0_1950)">
<path d="M16 32C24.8366 32 32 24.8366 32 16C32 7.16344 24.8366 0 16 0C7.16344 0 0 7.16344 0 16C0 24.8366 7.16344 32 16 32Z" fill="#50479E"/>
<path d="M20.86 13.6605V18.4445L16.553 20.8115V16.0295L20.859 13.6625L20.86 13.6605ZM26 12.4345V19.5655C26 20.0725 25.86 20.5685 25.597 20.9995C25.337 21.4295 24.96 21.7945 24.493 22.0515L21.281 23.8165V19.1105L21.687 18.8875V13.2085L25.621 11.0455C25.865 11.4655 26 11.9405 26 12.4355V12.4345ZM8.507 22.0515C8.06913 21.8124 7.69922 21.4659 7.432 21.0445C7.15085 20.6027 7.00103 20.0902 7 19.5665V15.0005L11.424 18.4555V18.6475L11.431 18.8455L11.775 19.0485L16.191 21.4765L16.555 21.6765V26.0005C16.01 26.0114 15.4715 25.8797 14.993 25.6185L8.507 22.0505V22.0515ZM8.323 10.0605L13 7.50052L16.18 10.5805L11.424 13.2035V13.6035L7.01 16.0275L7 12.4335C7 11.9265 7.14 11.4285 7.405 10.9975C7.637 10.6175 7.951 10.2975 8.323 10.0595V10.0605ZM24.493 9.94952C24.9614 10.2054 25.3514 10.5839 25.621 11.0445L21.687 13.2075V13.1715L21.281 12.9485L16.947 10.5665L21.281 8.18352L24.493 9.94952ZM7.01 16.0295L11.424 13.6025V18.4555L7.01 16.0285V16.0295ZM16.555 10.3805V6.00052C17.0629 6.00824 17.5613 6.1397 18.007 6.38352L21.281 8.18352L16.947 10.5655L16.555 10.3805ZM16.191 10.5805L11.783 8.15852L15.185 6.28752C15.6143 6.08999 16.0826 5.99189 16.555 6.00052V10.3805L16.191 10.5805ZM16.583 21.6915L16.947 21.4915L21.229 23.8455L18.007 25.6175C17.5612 25.8609 17.0628 25.992 16.555 25.9995V21.6765L16.583 21.6915ZM21.281 19.1095V23.8165L21.229 23.8455L16.947 21.4915L21.281 19.1095Z" fill="white"/>
</g>
<defs>
<clipPath id="clip0_0_1950">
<rect width="32" height="32" fill="white"/>
</clipPath>
</defs>
</svg>
