<svg width="32" height="32" viewBox="0 0 32 32" fill="none" xmlns="http://www.w3.org/2000/svg">
<g clip-path="url(#clip0_0_1926)">
<path d="M16 32C24.8366 32 32 24.8366 32 16C32 7.16344 24.8366 0 16 0C7.16344 0 0 7.16344 0 16C0 24.8366 7.16344 32 16 32Z" fill="#1A4199"/>
<path opacity="0.7" d="M10.676 7.05627L21.408 13.2473V19.5663L5 10.0903L10.265 7.05627C10.3288 7.01941 10.4013 7 10.475 7C10.5487 7 10.6212 7.01941 10.685 7.05627" fill="white"/>
<path opacity="0.9" d="M21.467 7L16 10.16L21.467 13.316V7Z" fill="white"/>
<path d="M21 7L26.264 10.036C26.3302 10.0718 26.3855 10.1248 26.4242 10.1894C26.4629 10.2539 26.4836 10.3277 26.484 10.403V22.792L21 19.635V7Z" fill="white"/>
<path opacity="0.9" d="M26.416 22.485L21.152 25.518C21.0875 25.553 21.0154 25.5713 20.942 25.5713C20.8686 25.5713 20.7965 25.553 20.732 25.518L10 19.328V13L26.416 22.485Z" fill="white"/>
<path opacity="0.6" d="M5 10V22.387C5.00024 22.4624 5.02079 22.5364 5.05951 22.6012C5.09822 22.6659 5.15366 22.7191 5.22 22.755L10.485 25.791V13.147L5 10Z" fill="white"/>
<path opacity="0.7" d="M10 26.315L15.465 23.157L10 20V26.315Z" fill="white"/>
</g>
<defs>
<clipPath id="clip0_0_1926">
<rect width="32" height="32" fill="white"/>
</clipPath>
</defs>
</svg>
