<svg width="32" height="32" viewBox="0 0 32 32" fill="none" xmlns="http://www.w3.org/2000/svg">
<g clip-path="url(#clip0_0_1922)">
<path d="M16 32C24.8366 32 32 24.8366 32 16C32 7.16344 24.8366 0 16 0C7.16344 0 0 7.16344 0 16C0 24.8366 7.16344 32 16 32Z" fill="#F80000"/>
<path d="M21 16.842L14.304 26L14.551 18.559H13L13.634 12.027L20.718 11.051L18.392 16.976L21 16.842ZM15.502 23.34V21.59C15.502 21.46 15.392 21.354 15.256 21.354C15.12 21.354 15.009 21.459 15.009 21.589V23.34C15.009 23.47 15.119 23.576 15.256 23.576C15.393 23.576 15.502 23.47 15.502 23.34ZM13.67 18.054H15.08L15.015 20.747C15.014 20.818 15.042 20.887 15.094 20.937C15.146 20.987 15.217 21.017 15.291 21.017H15.303C15.3734 21.0184 15.4416 20.9922 15.493 20.944C15.5444 20.8958 15.5749 20.8294 15.578 20.759L15.643 17.582H14.233L14.706 12.363C14.711 12.303 14.69 12.243 14.647 12.198C14.604 12.153 14.544 12.128 14.48 12.128H14.44C14.3846 12.1269 14.3307 12.1464 14.289 12.1829C14.2472 12.2193 14.2205 12.2699 14.214 12.325L13.67 18.054ZM13.67 11.454L16.278 9.3C16.418 7.145 15.008 6.808 15.008 6.808L15.22 6C17.546 6.673 17.194 9.232 17.194 9.232L20.577 10.646L13.67 11.454Z" fill="white"/>
</g>
<defs>
<clipPath id="clip0_0_1922">
<rect width="32" height="32" fill="white"/>
</clipPath>
</defs>
</svg>
