<svg width="32" height="32" viewBox="0 0 32 32" fill="none" xmlns="http://www.w3.org/2000/svg">
<g clip-path="url(#clip0_0_1914)">
<path d="M16 32C24.8366 32 32 24.8366 32 16C32 7.16344 24.8366 0 16 0C7.16344 0 0 7.16344 0 16C0 24.8366 7.16344 32 16 32Z" fill="#F28F01"/>
<path fill-rule="evenodd" clip-rule="evenodd" d="M18.151 14.219L16.21 10.403C16.614 9.523 16.816 9.023 16.816 8.908C16.816 8.495 16.544 8.193 16.001 8H21.949C21.216 8.33 20.564 9.155 19.994 10.476L18.151 14.219ZM15.235 20.147L14.33 21.987H19.667C22.084 21.987 23.7 21.534 24.515 20.627L21.663 25H7.078C8.653 24.697 10.242 22.8 11.844 19.306C12.384 18.232 12.879 17.24 13.331 16.332L15.235 20.147ZM5 20.75C6.181 20.049 10.5 12.578 10.5 10.476C10.5 9.981 10.201 9.513 9.604 9.073H14.248L18.281 16.995L22.193 9.073H27C24.963 9.609 20.93 19.219 20.93 20.337C20.93 20.557 20.97 20.695 21.052 20.75H16.815L13.189 13.488L9.604 20.75H5Z" fill="white"/>
</g>
<defs>
<clipPath id="clip0_0_1914">
<rect width="32" height="32" fill="white"/>
</clipPath>
</defs>
</svg>
