<svg width="32" height="32" viewBox="0 0 32 32" fill="none" xmlns="http://www.w3.org/2000/svg">
<g clip-path="url(#clip0_0_1910)">
<path d="M16 32C24.8366 32 32 24.8366 32 16C32 7.16344 24.8366 0 16 0C7.16344 0 0 7.16344 0 16C0 24.8366 7.16344 32 16 32Z" fill="#2AB0FD"/>
<path fill-rule="evenodd" clip-rule="evenodd" d="M25.5148 14.8053C25.6798 14.8033 25.7848 14.8253 25.8508 14.8853C25.9208 14.9493 25.9488 15.0533 25.9638 15.2163C26.4298 20.5953 22.3618 25.4573 16.9658 25.9563C11.4018 26.4713 6.57182 22.4563 6.04382 16.8763C5.52982 11.4573 9.59882 6.54131 15.0298 6.04731C18.1058 5.76731 20.7618 6.73331 22.9978 8.86331C23.0208 8.88531 23.0158 8.97731 22.9898 9.00331C22.4877 9.51486 21.981 10.0219 21.4698 10.5243C21.4408 10.5523 21.3368 10.5483 21.3048 10.5193C18.9978 8.40531 16.3248 7.77931 13.4018 8.84431C10.4458 9.92131 8.75482 12.1513 8.41982 15.2913C7.96982 19.5403 11.1768 23.2853 15.4548 23.6083C19.3328 23.9003 22.8468 21.1553 23.4898 17.3233C23.4958 17.2853 23.4098 17.1903 23.3658 17.1903C20.9708 17.1833 18.5758 17.1853 16.1818 17.1763C16.1198 17.1763 16.0048 17.0613 16.0028 16.9983C15.9903 16.329 15.9903 15.6596 16.0028 14.9903C16.0038 14.9303 16.1108 14.8223 16.1698 14.8213C17.7658 14.8123 23.9958 14.8263 25.5138 14.8043L25.5148 14.8053Z" fill="white"/>
</g>
<defs>
<clipPath id="clip0_0_1910">
<rect width="32" height="32" fill="white"/>
</clipPath>
</defs>
</svg>
