<svg width="32" height="32" viewBox="0 0 32 32" fill="none" xmlns="http://www.w3.org/2000/svg">
<g clip-path="url(#clip0_0_1906)">
<path d="M16 32C24.8366 32 32 24.8366 32 16C32 7.16344 24.8366 0 16 0C7.16344 0 0 7.16344 0 16C0 24.8366 7.16344 32 16 32Z" fill="#186C9D"/>
<path d="M19.261 24L19.262 23.998C19.4162 24.001 19.5701 23.9842 19.72 23.948C20.596 23.743 21.337 22.978 21.513 22.152L25 9.056L22.228 9.042L19.942 17.61L13.762 9.013L13.758 9.017L13.761 9.007L12.74 9V9.001C12.5856 8.99862 12.4314 9.01507 12.281 9.05C11.406 9.256 10.665 10.021 10.488 10.846L7 23.945L9.773 23.957L12.058 15.389L18.238 23.987H18.241L19.261 24V24ZM12.668 13.106L13.151 11.296L19.332 19.895L18.849 21.705L12.669 13.105L12.668 13.106Z" fill="white"/>
</g>
<defs>
<clipPath id="clip0_0_1906">
<rect width="32" height="32" fill="white"/>
</clipPath>
</defs>
</svg>
