<svg width="32" height="32" viewBox="0 0 32 32" fill="none" xmlns="http://www.w3.org/2000/svg">
<g clip-path="url(#clip0_0_1902)">
<path d="M16 32C24.8366 32 32 24.8366 32 16C32 7.16344 24.8366 0 16 0C7.16344 0 0 7.16344 0 16C0 24.8366 7.16344 32 16 32Z" fill="#050708"/>
<path d="M16.354 5.01411C16.4635 4.99287 16.5762 4.99564 16.6845 5.02223C16.7927 5.04881 16.8939 5.09859 16.981 5.16811L25.683 11.6331C25.883 11.7831 26.008 12.0331 25.998 12.2871V19.7111C26.0017 19.8446 25.972 19.9769 25.9116 20.096C25.8511 20.2151 25.7619 20.3172 25.652 20.3931L16.981 26.8351C16.8383 26.9464 16.6614 27.0047 16.4806 27.0001C16.2997 26.9956 16.126 26.9284 15.989 26.8101C13.109 24.6701 10.23 22.5301 7.35003 20.3921C7.2412 20.3154 7.15253 20.2135 7.09159 20.0951C7.03065 19.9767 6.99923 19.8453 7.00003 19.7121V12.2921C6.9989 12.1592 7.02985 12.028 7.09026 11.9096C7.15067 11.7912 7.23875 11.6892 7.34703 11.6121L15.988 5.19211C16.0949 5.10564 16.2201 5.04476 16.354 5.01411V5.01411ZM16.25 25.0281C16.245 25.1441 16.243 25.2611 16.242 25.3771L16.244 26.0741C16.394 26.0761 16.544 26.0771 16.694 26.0741V25.0501C16.5464 25.0362 16.3983 25.0289 16.25 25.0281V25.0281ZM14.54 24.1101L14.288 24.1111C14.468 24.4261 14.639 24.7461 14.823 25.0581C14.973 25.0581 15.123 25.0581 15.275 25.0481C15.155 24.7161 14.948 24.4271 14.793 24.1121C14.6247 24.1096 14.4564 24.1096 14.288 24.1121L14.54 24.1101ZM17.267 24.5901C17.2643 24.7428 17.2653 24.8955 17.27 25.0481H17.69C17.709 24.8991 17.71 24.7501 17.707 24.6001C17.5605 24.5913 17.4138 24.5879 17.267 24.5901V24.5901ZM16.792 22.1331C16.162 22.1371 15.531 22.1291 14.9 22.1381C14.898 22.2814 14.898 22.4248 14.9 22.5681C15.458 22.5811 16.017 22.5711 16.576 22.5741V23.6031C16.46 23.6041 16.346 23.6001 16.232 23.6121C16.199 23.7481 16.216 23.8891 16.214 24.0281C16.416 24.0341 16.618 24.0331 16.82 24.0291C16.881 23.9601 16.944 23.8931 17.007 23.8251C17.007 23.3351 17.006 22.8451 17.008 22.3551C16.9363 22.2809 16.8642 22.2069 16.792 22.1331V22.1331ZM20.136 22.7091C19.993 22.6391 19.841 22.4011 19.674 22.5441C19.177 22.8751 18.665 23.1841 18.174 23.5241C18.176 23.6661 18.177 23.8081 18.187 23.9491C18.647 23.9531 19.106 23.9551 19.565 23.9481C19.567 23.7981 19.567 23.6481 19.566 23.4981C19.4534 23.4955 19.3407 23.4942 19.228 23.4941L19.016 23.4961C19.381 23.2381 19.763 23.0071 20.136 22.7621V22.7091ZM13.594 22.9571L12.699 22.9601C12.696 23.1101 12.696 23.2601 12.699 23.4121C13.295 23.4151 13.892 23.4181 14.489 23.4101V22.9611C13.892 22.9541 13.295 22.9571 12.699 22.9601L13.594 22.9571ZM12.091 22.3001L11.87 22.3011C11.868 22.4511 11.867 22.6021 11.87 22.7531C12.017 22.7551 12.165 22.7551 12.313 22.7531C12.315 22.6031 12.315 22.4531 12.313 22.3031C12.1654 22.2999 12.0177 22.2992 11.87 22.3011L12.091 22.3001ZM20.684 20.6861C20.678 20.9321 20.68 21.1781 20.681 21.4241C20.921 21.7941 21.156 22.1671 21.399 22.5351C21.601 22.2251 21.799 21.9091 22.004 21.6001C22.042 21.5321 22.103 21.4661 22.098 21.3821C22.103 21.1571 22.1 20.9321 22.094 20.7071C21.908 21.0101 21.709 21.3041 21.524 21.6071C21.482 21.6651 21.451 21.7391 21.384 21.7691C21.142 21.4131 20.919 21.0451 20.684 20.6861ZM19.249 20.1331C18.968 20.1341 18.687 20.1311 18.405 20.1361C18.2407 20.7504 18.0694 21.3628 17.891 21.9731L18.325 21.9761L18.713 20.5551L18.949 20.5671C19.075 21.0361 19.209 21.5021 19.332 21.9721C19.476 21.9751 19.622 21.9751 19.766 21.9751L19.249 20.1331ZM10.497 21.1631L10.104 21.1711V21.6151C10.495 21.6221 10.887 21.6321 11.278 21.6121C11.297 21.4651 11.288 21.3161 11.285 21.1671C10.891 21.1651 10.497 21.1581 10.104 21.1711L10.497 21.1631ZM13.647 20.1151C13.104 20.4521 12.57 20.8041 12.035 21.1541C12.033 21.2981 12.033 21.4421 12.037 21.5861C12.88 21.5951 13.723 21.5911 14.566 21.5881C14.57 21.4361 14.57 21.2841 14.567 21.1321C13.997 21.1241 13.429 21.1361 12.86 21.1251C13.253 20.8861 13.633 20.6281 14.022 20.3821C13.898 20.2911 13.772 20.2041 13.647 20.1151ZM15.547 19.7811L15.323 19.7821C15.317 20.3441 15.323 20.9071 15.32 21.4691L15.455 21.4941C15.561 21.4841 15.667 21.4791 15.773 21.4741C15.77 20.9101 15.774 20.3461 15.77 19.7821C15.621 19.7805 15.472 19.7805 15.323 19.7821L15.547 19.7811ZM16.925 20.1971C16.77 20.2181 16.613 20.2271 16.456 20.2271C16.633 20.5371 16.808 20.8501 16.981 21.1641L17.421 21.1611C17.326 20.8111 17.109 20.5051 16.925 20.1971V20.1971ZM22.884 20.4101L22.654 20.4141C22.651 20.5621 22.651 20.7101 22.654 20.8581C22.807 20.8651 22.961 20.8651 23.114 20.8611V20.4121C22.9607 20.4087 22.8073 20.4093 22.654 20.4141L22.884 20.4101ZM12.096 18.6181C11.851 18.9801 11.629 19.3581 11.382 19.7171C11.151 19.3531 10.917 18.9901 10.683 18.6271C10.6775 18.8761 10.6765 19.1251 10.68 19.3741C10.923 19.7281 11.148 20.0941 11.38 20.4541C11.631 20.0951 11.855 19.7171 12.1 19.3531C12.098 19.1081 12.101 18.8631 12.096 18.6181ZM13.246 19.0931C13.236 19.2481 13.237 19.4031 13.243 19.5581C13.391 19.5601 13.539 19.5591 13.686 19.5581C13.6895 19.4068 13.6895 19.2554 13.686 19.1041C13.5396 19.0936 13.3928 19.09 13.246 19.0931V19.0931ZM19.362 17.8691L19.138 18.0791C19.138 18.2791 19.137 18.4781 19.141 18.6771C19.284 18.6771 19.428 18.6771 19.571 18.6751C19.574 18.5521 19.575 18.4291 19.574 18.3051L20.578 18.3061C20.573 18.7111 20.576 19.1151 20.577 19.5191C20.722 19.5231 20.867 19.5241 21.013 19.5231V18.0801L20.796 17.8701C20.318 17.8691 19.84 17.8721 19.362 17.8681V17.8691ZM8.16503 17.5821H7.88303L7.67103 17.7931L7.66903 18.7741L7.67503 19.2641C7.71203 19.3531 7.79503 19.4301 7.87703 19.4781C8.36703 19.4921 8.85803 19.4781 9.34903 19.4841H9.55403L9.76003 19.4831C9.76103 19.3411 9.76103 19.1991 9.75803 19.0571C9.20603 19.0511 8.65303 19.0561 8.10003 19.0541C8.09603 18.7101 8.10003 18.3671 8.09703 18.0231L8.44703 18.0181C8.44832 17.8738 8.44799 17.7294 8.44603 17.5851C8.25838 17.582 8.0707 17.5813 7.88303 17.5831L8.16503 17.5821ZM17.819 17.9621C17.287 18.3221 16.739 18.6551 16.206 19.0151C16.208 19.1611 16.208 19.3061 16.229 19.4501C17.069 19.4501 17.91 19.4541 18.75 19.4491C18.7541 19.2918 18.7541 19.1344 18.75 18.9771C18.19 18.9701 17.628 18.9811 17.066 18.9711C17.441 18.7181 17.832 18.4891 18.2 18.2261C18.071 18.1401 17.946 18.0501 17.82 17.9611L17.819 17.9621ZM23.808 17.8921C23.273 18.2351 22.738 18.5771 22.208 18.9281C22.206 19.0741 22.206 19.2211 22.208 19.3681C23.048 19.3711 23.887 19.3711 24.726 19.3681C24.728 19.2161 24.728 19.0621 24.726 18.9101C24.161 18.9061 23.596 18.9131 23.032 18.9071L24.185 18.1601C24.061 18.0701 23.935 17.9781 23.808 17.8921V17.8921ZM13.858 15.9091L13.636 15.9101C13.633 16.7651 13.633 17.6191 13.636 18.4731C13.786 18.4771 13.936 18.4771 14.085 18.4761C14.103 17.9061 14.058 17.3341 14.113 16.7681C14.417 17.2891 14.75 17.7941 15.068 18.3081L15.221 18.3051C15.197 18.0721 15.288 17.8041 15.135 17.6041C14.782 17.0401 14.425 16.4791 14.078 15.9111C13.9307 15.9084 13.7834 15.9084 13.636 15.9111L13.858 15.9091ZM22.041 16.8331C21.895 16.8101 21.746 16.8201 21.598 16.8231C21.5931 17.3518 21.5931 17.8805 21.598 18.4091C21.747 18.4121 21.896 18.4131 22.045 18.4091C22.047 17.8841 22.055 17.3581 22.041 16.8331V16.8331ZM12.131 17.4281C11.616 17.4441 11.097 17.3991 10.583 17.4561C10.582 17.6051 10.582 17.7531 10.585 17.9021C11.234 17.9071 11.881 17.9021 12.531 17.9041V17.4461C12.3982 17.4323 12.2646 17.4263 12.131 17.4281V17.4281ZM25.059 15.4061C24.5724 15.3969 24.0857 15.3963 23.599 15.4041L23.402 15.6081C23.402 15.8021 23.402 15.9981 23.404 16.1921C23.547 16.1931 23.69 16.1921 23.833 16.1901L23.836 15.8351C24.176 15.8381 24.516 15.8311 24.856 15.8401L24.855 17.7481L25.27 17.7491C25.263 17.6111 25.3 17.4751 25.292 17.3371C25.297 17.1671 25.289 16.9981 25.294 16.8291C25.291 16.4771 25.294 16.1241 25.294 15.7721C25.32 15.6081 25.182 15.4821 25.059 15.4061V15.4061ZM17.737 17.1321L17.52 17.1331V17.5881C17.665 17.5901 17.809 17.5901 17.953 17.5881C17.955 17.4361 17.955 17.2841 17.953 17.1341C17.8087 17.1327 17.6644 17.1323 17.52 17.1331L17.737 17.1321ZM15.827 16.2361L15.602 16.2391C15.598 16.6111 15.599 16.9841 15.601 17.3561C15.751 17.3601 15.901 17.3601 16.052 17.3581C16.053 16.9841 16.054 16.6111 16.052 16.2381C15.902 16.2351 15.752 16.2351 15.602 16.2381L15.827 16.2361ZM20.439 16.7541L19.753 16.7581C19.748 16.9081 19.748 17.0581 19.751 17.2081C20.138 17.2531 20.529 17.2181 20.918 17.2301C20.996 17.2221 21.099 17.2571 21.143 17.1681C21.1532 17.0306 21.1475 16.8923 21.126 16.7561C20.668 16.7561 20.211 16.7521 19.753 16.7581L20.439 16.7541ZM18.543 16.7371L18.322 16.7381C18.32 16.8901 18.32 17.0421 18.322 17.1931C18.469 17.1941 18.616 17.1951 18.764 17.1941C18.7668 17.0421 18.7668 16.8901 18.764 16.7381C18.6167 16.7367 18.4694 16.7367 18.322 16.7381L18.543 16.7371ZM10.193 15.4221H9.74103L9.74003 16.8701H10.194V15.4221H10.193ZM11.828 14.8471L11.409 14.8491C11.233 15.4621 11.062 16.0771 10.889 16.6911L11.323 16.6931C11.438 16.2201 11.589 15.7571 11.695 15.2831L11.935 15.2651C12.082 15.7371 12.193 16.2191 12.337 16.6931L12.757 16.6921C12.597 16.0751 12.417 15.4641 12.247 14.8501C11.967 14.8461 11.689 14.8481 11.409 14.8501L11.828 14.8471ZM17.224 14.7111L17.155 14.7131H15.44C15.4386 14.8591 15.4386 15.0051 15.44 15.1511C15.997 15.1661 16.557 15.1241 17.112 15.1751V16.1841L16.756 16.1881V16.6281C16.946 16.6301 17.135 16.6301 17.324 16.6301L17.544 16.3901V15.1081C17.571 14.8991 17.364 14.6801 17.155 14.7131L17.224 14.7111ZM8.32203 15.8261C8.31703 15.9731 8.31703 16.1201 8.31803 16.2671C8.46803 16.2701 8.61803 16.2691 8.76703 16.2671V15.8371C8.61891 15.8273 8.47045 15.8237 8.32203 15.8261V15.8261ZM18.962 13.9811H18.677C18.596 14.0881 18.439 14.1681 18.459 14.3241C18.457 14.7371 18.457 15.1501 18.459 15.5641C18.44 15.7181 18.594 15.7991 18.674 15.9051C19.303 15.9031 19.932 15.9071 20.56 15.9031C20.564 15.7571 20.564 15.6101 20.563 15.4631C20.004 15.4571 19.446 15.4631 18.888 15.4591V14.4241L19.248 14.4211C19.2506 14.2755 19.25 14.1297 19.246 13.9841C19.056 13.9801 18.866 13.9821 18.676 13.9811H18.962ZM14.129 14.7131H13.036C13.03 14.8671 13.031 15.0211 13.037 15.1751H14.129C14.132 15.0211 14.132 14.8671 14.129 14.7131V14.7131ZM23.022 14.1821L22.046 14.1861C22.044 14.3361 22.045 14.4881 22.046 14.6381C22.696 14.6471 23.346 14.6411 23.996 14.6411C23.998 14.4891 23.998 14.3361 23.997 14.1831C23.347 14.1831 22.697 14.1771 22.047 14.1861L23.022 14.1821ZM20.807 14.1821L20.576 14.1861C20.574 14.3361 20.574 14.4861 20.576 14.6361C20.73 14.6421 20.884 14.6421 21.038 14.6361C21.04 14.4861 21.041 14.3361 21.038 14.1861C20.8841 14.1804 20.73 14.1804 20.576 14.1861L20.807 14.1821ZM8.79103 13.2421L7.67103 13.2451C7.66803 13.3971 7.66803 13.5501 7.67103 13.7021C8.13903 13.7071 8.60803 13.7021 9.07703 13.7041C8.89703 13.8311 8.71003 13.9461 8.52503 14.0641C8.64903 14.1541 8.75903 14.2771 8.90403 14.3311C9.24703 14.1241 9.58103 13.9011 9.91403 13.6781L9.91303 13.2461C9.16503 13.2391 8.41703 13.2411 7.67003 13.2451L8.79103 13.2421ZM11.889 12.8731C11.53 13.1191 11.157 13.3441 10.807 13.6031C11.154 13.8551 11.519 14.0791 11.871 14.3221C12.115 14.3221 12.359 14.3241 12.603 14.3191C12.241 14.0841 11.883 13.8401 11.519 13.6071C11.873 13.3541 12.249 13.1331 12.601 12.8771C12.363 12.8731 12.127 12.8771 11.889 12.8731ZM15.033 13.6861H14.063C14.063 13.8361 14.063 13.9871 14.065 14.1391C14.709 14.1391 15.352 14.1401 15.997 14.1381C16.017 13.9881 16.019 13.8381 16.003 13.6881C15.357 13.6821 14.71 13.6881 14.063 13.6851L15.033 13.6861ZM16.658 13.6861L16.425 13.6881V14.1341C16.58 14.1361 16.735 14.1361 16.891 14.1321V13.6901C16.7357 13.685 16.5804 13.6844 16.425 13.6881L16.658 13.6861ZM17.737 12.3471H17.52V13.7971H17.954C17.954 13.3141 17.957 12.8311 17.954 12.3481C17.8094 12.3468 17.6647 12.3468 17.52 12.3481L17.737 12.3471ZM23.246 13.1801L23.021 13.1831C23.018 13.3341 23.019 13.4861 23.021 13.6371C23.171 13.6411 23.321 13.6411 23.469 13.6371C23.4734 13.4855 23.4737 13.3338 23.47 13.1821C23.32 13.1791 23.17 13.1801 23.021 13.1821L23.246 13.1801ZM21.742 11.4031C21.462 11.3571 21.179 11.4011 20.898 11.4031C20.727 12.0151 20.559 12.6271 20.381 13.2351C20.526 13.2361 20.671 13.2371 20.816 13.2361C20.938 12.7621 21.08 12.2941 21.197 11.8191L21.435 11.8161C21.577 12.2871 21.695 12.7651 21.832 13.2361H22.264L21.742 11.4031ZM19.262 12.4801L19.043 12.4811C19.0412 12.6324 19.0412 12.7838 19.043 12.9351H19.48C19.482 12.7851 19.482 12.6341 19.481 12.4831C19.3351 12.4794 19.189 12.4788 19.043 12.4811L19.262 12.4801ZM24.582 11.9681C24.415 11.9681 24.248 11.9681 24.082 11.9711L24.614 12.9111C24.765 12.9111 24.918 12.9111 25.069 12.9051C24.946 12.5731 24.746 12.2791 24.581 11.9681H24.582ZM16.362 10.5931L16.147 10.5961C16.14 11.1601 16.145 11.7261 16.144 12.2901C15.803 12.2821 15.462 12.3101 15.123 12.2711C15.1251 12.1578 15.1244 12.0444 15.121 11.9311H14.709C14.709 12.1291 14.691 12.3291 14.716 12.5261C14.774 12.5941 14.841 12.6541 14.906 12.7181C15.398 12.7151 15.89 12.7201 16.383 12.7151C16.448 12.6491 16.514 12.5841 16.581 12.5201C16.576 11.8781 16.584 11.2361 16.577 10.5951C16.4337 10.5929 16.2904 10.5929 16.147 10.5951L16.362 10.5931ZM12.967 11.6541H12.75C12.74 12.0081 12.745 12.3611 12.746 12.7141H13.186C13.186 12.3611 13.188 12.0081 13.184 11.6561C13.039 11.6541 12.894 11.6541 12.75 11.6551L12.967 11.6541ZM23.244 11.0351L23.021 11.0381C23.0166 11.5224 23.0166 12.0068 23.021 12.4911C23.17 12.4931 23.319 12.4941 23.468 12.4911C23.473 12.0071 23.473 11.5221 23.468 11.0381C23.3191 11.0345 23.17 11.0345 23.021 11.0381L23.244 11.0351ZM9.84203 11.6321L8.86903 11.6361C8.86703 11.7861 8.86703 11.9391 8.86903 12.0911C9.51803 12.0951 10.166 12.0961 10.815 12.0911C10.8186 11.9395 10.8186 11.7878 10.815 11.6361C10.1664 11.6312 9.51769 11.6312 8.86903 11.6361L9.84203 11.6321ZM11.562 11.6361H11.12V12.0921C11.268 12.0931 11.415 12.0941 11.563 12.0921C11.5663 11.9401 11.5663 11.7881 11.563 11.6361H11.562ZM14.772 9.95411C14.531 10.3191 14.299 10.6921 14.06 11.0591C13.82 10.6971 13.59 10.3271 13.353 9.96211C13.352 10.2081 13.334 10.4561 13.359 10.7021C13.433 10.8251 13.509 10.9481 13.587 11.0701L14.058 11.7971C14.294 11.4261 14.548 11.0641 14.768 10.6821C14.788 10.4401 14.772 10.1961 14.772 9.95411V9.95411ZM17.701 8.85811L17.485 8.86011C17.48 9.71411 17.482 10.5681 17.484 11.4221C17.634 11.4251 17.784 11.4251 17.934 11.4221L17.937 9.70611C18.267 10.2141 18.575 10.7381 18.909 11.2441L19.077 11.2741C19.081 11.0871 19.08 10.9001 19.08 10.7141C18.687 10.0991 18.307 9.47611 17.917 8.85911C17.773 8.85669 17.629 8.85702 17.485 8.86011L17.701 8.85811ZM12.399 9.33811L12.077 9.35111C11.9564 9.34961 11.8357 9.34961 11.715 9.35111C11.713 9.50111 11.714 9.65211 11.717 9.80311C11.878 9.80511 12.04 9.80311 12.202 9.81211C11.882 10.0021 11.573 10.2091 11.257 10.4041C11.373 10.5011 11.482 10.6171 11.624 10.6721C12.107 10.3941 12.564 10.0721 13.041 9.78111C13.043 9.63911 13.043 9.49611 13.042 9.35411C12.7208 9.33273 12.3984 9.33172 12.077 9.35111L12.399 9.33811ZM20.977 10.0211L19.91 10.0231V10.4641C20.622 10.4661 21.332 10.4651 22.043 10.4641V10.0241C21.333 10.0201 20.621 10.0201 19.91 10.0241L20.977 10.0211ZM15.746 9.51711L15.524 9.52011C15.521 9.67111 15.521 9.82211 15.524 9.97311C15.672 9.97711 15.82 9.97711 15.968 9.97311C15.971 9.82111 15.971 9.67111 15.968 9.52011C15.8201 9.51598 15.672 9.51598 15.524 9.52011L15.746 9.51711ZM19.498 9.20411L19.268 9.20711L19.269 9.64911C19.422 9.65211 19.575 9.65211 19.728 9.64811V9.20811C19.5747 9.20391 19.4213 9.20358 19.268 9.20711L19.498 9.20411ZM14.588 7.36511L14.358 7.37011C14.368 8.03211 14.328 8.69711 14.378 9.35811C14.525 9.35811 14.672 9.35811 14.819 9.35511C14.826 8.69311 14.823 8.03111 14.821 7.36811C14.6664 7.36383 14.5116 7.36449 14.357 7.37011L14.588 7.36511ZM16.29 8.30511C16.124 8.30511 15.958 8.30511 15.792 8.30811C15.964 8.62411 16.138 8.93811 16.319 9.24811C16.471 9.24811 16.624 9.24811 16.776 9.24111C16.648 8.91111 16.448 8.61911 16.29 8.30511V8.30511ZM18.902 8.07912L18.285 8.08211C18.283 8.23411 18.283 8.38711 18.285 8.53911C18.696 8.54611 19.107 8.54411 19.518 8.53911C19.5199 8.38645 19.5199 8.23378 19.518 8.08112C19.107 8.07732 18.696 8.07765 18.285 8.08211L18.902 8.07912ZM16.469 6.57711L15.783 6.57811C15.649 6.56011 15.571 6.69811 15.495 6.78511C15.468 6.97511 15.488 7.17011 15.487 7.36211H15.913L15.916 7.00211H16.922C16.952 7.35911 16.921 7.71711 16.921 8.07511L16.954 8.20911C17.089 8.21911 17.226 8.21211 17.362 8.21011C17.36 7.73111 17.36 7.25211 17.362 6.77311L17.228 6.64011L17.154 6.58311C16.698 6.57111 16.24 6.58111 15.784 6.57811L16.469 6.57711Z" fill="white"/>
</g>
<defs>
<clipPath id="clip0_0_1902">
<rect width="32" height="32" fill="white"/>
</clipPath>
</defs>
</svg>
