<svg width="32" height="32" viewBox="0 0 32 32" fill="none" xmlns="http://www.w3.org/2000/svg">
<g clip-path="url(#clip0_0_1896)">
<path d="M16 32C24.8366 32 32 24.8366 32 16C32 7.16344 24.8366 0 16 0C7.16344 0 0 7.16344 0 16C0 24.8366 7.16344 32 16 32Z" fill="#F5D100"/>
<path d="M15.972 4C9.372 4 4 9.372 4 15.972C4 22.572 9.372 27.954 15.982 27.954C22.591 27.954 27.963 22.582 27.963 15.972C27.963 9.363 22.582 4 15.973 4H15.972ZM15.972 27.03C9.88 27.03 4.914 22.074 4.914 15.972C4.924 9.88 9.88 4.923 15.972 4.923C22.065 4.923 27.031 9.88 27.031 15.982C27.031 22.074 22.074 27.031 15.972 27.031V27.03Z" fill="white"/>
<path d="M10 10.881L10.88 10L15.568 14.687L14.687 15.567L10 10.881ZM16.818 17.702L17.699 16.821L22.386 21.508L21.505 22.388L16.818 17.702ZM15.323 16.2L16.203 15.32L17.091 16.206L16.211 17.088L15.323 16.2ZM16.831 14.725L21.518 10.039L22.398 10.92L17.712 15.607L16.831 14.725ZM10.034 21.513L14.72 16.827L15.601 17.707L10.915 22.394L10.034 21.513Z" fill="white"/>
</g>
<defs>
<clipPath id="clip0_0_1896">
<rect width="32" height="32" fill="white"/>
</clipPath>
</defs>
</svg>
