<svg width="32" height="32" viewBox="0 0 32 32" fill="none" xmlns="http://www.w3.org/2000/svg">
<g clip-path="url(#clip0_0_1888)">
<path d="M16 32C24.8366 32 32 24.8366 32 16C32 7.16344 24.8366 0 16 0C7.16344 0 0 7.16344 0 16C0 24.8366 7.16344 32 16 32Z" fill="#4099CD"/>
<path fill-rule="evenodd" clip-rule="evenodd" d="M2 24.2527C2.605 22.4887 3.771 20.5787 5.395 18.6927C5.10606 18.3086 4.96508 17.8334 4.99785 17.3539C5.03061 16.8744 5.23494 16.4228 5.57343 16.0816C5.91193 15.7405 6.36195 15.5326 6.84116 15.4961C7.32036 15.4595 7.7967 15.5968 8.183 15.8827C9.47275 14.7469 10.8445 13.7078 12.287 12.7737C19.221 8.27069 26.549 6.83368 30.123 8.97568C31.1527 10.9069 31.7726 13.0298 31.944 15.2117C30.79 18.9897 26.978 23.5037 21.546 27.0317C17.799 29.4647 13.936 31.0037 10.613 31.5647C6.95077 30.2517 3.89003 27.6532 2 24.2527V24.2527ZM5.75 19.0577C3.406 21.7657 2.467 24.5517 3.603 26.3017C5.319 28.9447 11.123 28.2217 16.564 24.6887C22.006 21.1547 25.026 16.1467 23.31 13.5037C21.593 10.8607 15.79 11.5837 10.348 15.1167C9.745 15.5087 9.171 15.9187 8.631 16.3417C8.90796 16.7352 9.03378 17.2153 8.98537 17.6941C8.93696 18.1728 8.71757 18.6181 8.36744 18.9481C8.01732 19.2782 7.55992 19.471 7.07916 19.4911C6.59839 19.5112 6.12649 19.3573 5.75 19.0577V19.0577Z" fill="white"/>
</g>
<defs>
<clipPath id="clip0_0_1888">
<rect width="32" height="32" fill="white"/>
</clipPath>
</defs>
</svg>
