<svg width="32" height="32" viewBox="0 0 32 32" fill="none" xmlns="http://www.w3.org/2000/svg">
<g clip-path="url(#clip0_0_1884)">
<path d="M16 32C24.8366 32 32 24.8366 32 16C32 7.16344 24.8366 0 16 0C7.16344 0 0 7.16344 0 16C0 24.8366 7.16344 32 16 32Z" fill="#008FBB"/>
<path fill-rule="evenodd" clip-rule="evenodd" d="M26.082 17.333C25.575 17.333 25.164 16.96 25.164 16.5V15.666H20.552C20.045 15.666 19.634 15.293 19.634 14.833C19.634 14.373 20.045 14 20.552 14H26.082C26.589 14 27 14.373 27 14.833V16.5C27 16.96 26.59 17.333 26.082 17.333ZM21.533 17.333H23.368C23.875 17.333 24.286 17.706 24.286 18.166C24.286 18.626 23.876 19 23.368 19H20.552C20.4058 19.0004 20.2613 18.9683 20.129 18.906L14.777 15.666H13.235C12.728 15.666 12.317 15.293 12.317 14.833C12.317 14.373 12.727 14 13.235 14H15.07C15.268 14 15.451 14.057 15.601 14.154L20.833 17.334H21.533V17.333ZM15.07 17.333C15.577 17.333 15.988 17.706 15.988 18.166C15.988 18.626 15.577 19 15.07 19H13.235C13.0888 19.0004 12.9443 18.9683 12.812 18.906L7.46 15.666H5.918C5.411 15.666 5 15.293 5 14.833C5 14.373 5.41 14 5.918 14H7.753C7.94111 13.9993 8.12545 14.0528 8.284 14.154L13.516 17.334H15.07V17.333ZM5.918 17.333H7.753C8.26 17.333 8.671 17.706 8.671 18.167C8.671 18.627 8.26 19 7.753 19H5.918C5.411 19 5 18.627 5 18.167C5 17.707 5.41 17.333 5.918 17.333V17.333Z" fill="white"/>
</g>
<defs>
<clipPath id="clip0_0_1884">
<rect width="32" height="32" fill="white"/>
</clipPath>
</defs>
</svg>
