<svg width="32" height="32" viewBox="0 0 32 32" fill="none" xmlns="http://www.w3.org/2000/svg">
<g clip-path="url(#clip0_0_1880)">
<path d="M16 32C24.8366 32 32 24.8366 32 16C32 7.16344 24.8366 0 16 0C7.16344 0 0 7.16344 0 16C0 24.8366 7.16344 32 16 32Z" fill="#164B79"/>
<path d="M14.0913 18.668L13.4683 19.998H12.0863L15.8393 12L18.3423 17.333H16.9273L15.8073 15.018L14.6853 17.372L14.0913 18.668ZM19.5453 19.968L22.4753 16.018L19.5243 12.038H21.1393L23.2803 14.948L22.5013 16.018L23.2803 17.088L21.1403 19.998H18.1773L17.5513 18.668H18.9333L19.5453 19.968ZM24.0713 16.001L23.2803 14.914L25.4213 12.004H27.0013L24.0713 16.001ZM24.0713 16.001L27.0013 19.999H25.4213L23.2813 17.089L24.0713 16.001ZM11.4233 13.159C11.7824 13.5381 12.0632 13.9844 12.2494 14.4723C12.4356 14.9602 12.5235 15.48 12.5083 16.002C12.522 17.053 12.1339 18.0695 11.4233 18.844C10.7013 19.653 9.80826 20 8.75526 20C8.25438 20.005 7.75805 19.9046 7.29843 19.7055C6.83881 19.5064 6.42617 19.2128 6.08726 18.844C5.36506 18.0767 4.9748 17.0554 5.00126 16.002C4.98517 15.1772 5.22672 14.368 5.69226 13.687L6.61226 14.667C6.32426 15.1809 6.2043 15.7721 6.26922 16.3576C6.33414 16.9431 6.58068 17.4937 6.97426 17.932C7.19732 18.1846 7.47114 18.3873 7.77786 18.5269C8.08458 18.6664 8.41729 18.7398 8.75426 18.742C9.42626 18.742 10.0683 18.449 10.5343 17.932C10.7733 17.6791 10.9602 17.3816 11.0842 17.0564C11.2083 16.7313 11.2671 16.3849 11.2573 16.037C11.2596 15.3371 11.0015 14.6612 10.5333 14.141C10.3091 13.8925 10.0342 13.6951 9.72707 13.5623C9.41994 13.4294 9.08783 13.3642 8.75326 13.371C8.31114 13.3589 7.8757 13.4809 7.50426 13.721L6.58426 12.741C7.20209 12.2525 7.96974 11.9925 8.75726 12.005C9.2581 11.9961 9.75504 12.0944 10.2147 12.2935C10.6744 12.4925 11.0861 12.7876 11.4223 13.159H11.4233Z" fill="white"/>
</g>
<defs>
<clipPath id="clip0_0_1880">
<rect width="32" height="32" fill="white"/>
</clipPath>
</defs>
</svg>
