<svg width="32" height="32" viewBox="0 0 32 32" fill="none" xmlns="http://www.w3.org/2000/svg">
<g clip-path="url(#clip0_0_1876)">
<path d="M16 32C24.8366 32 32 24.8366 32 16C32 7.16344 24.8366 0 16 0C7.16344 0 0 7.16344 0 16C0 24.8366 7.16344 32 16 32Z" fill="black"/>
<path d="M27.9582 14.6688V14.7328C26.5712 15.6008 25.1742 16.4588 23.7812 17.3248C23.7548 17.3439 23.7341 17.3698 23.7212 17.3998C24.0932 17.4998 24.4782 17.5748 24.8312 17.7368C25.1572 17.8818 25.4912 18.0708 25.6752 18.3878C25.8512 18.7098 25.8952 19.0878 25.7972 19.4408C25.7442 19.7048 25.6332 19.9528 25.5332 20.2038C25.1152 21.2058 24.6952 22.2048 24.2802 23.2108C24.2601 23.2606 24.2332 23.3073 24.2002 23.3498C24.0632 23.3468 23.9322 23.2968 23.7982 23.2658C23.1222 23.0988 22.4422 22.9348 21.7662 22.7658C21.5462 22.7038 21.3202 22.6678 21.1032 22.5958C21.1092 22.4588 21.1872 22.3418 21.2332 22.2188L22.1612 19.9978C22.2312 19.8438 22.2722 19.6518 22.1722 19.5018C22.0472 19.2878 21.7962 19.2068 21.5742 19.1458C20.7582 18.9358 19.9362 18.7418 19.1182 18.5388C19.0012 18.5138 18.8872 18.4608 18.7642 18.4768C18.6922 18.6028 18.6502 18.7448 18.5922 18.8808C18.2442 19.6968 17.9102 20.5178 17.5642 21.3338C17.5142 21.4478 17.4842 21.5738 17.4082 21.6738C17.2722 21.6738 17.1442 21.6208 17.0132 21.5898C16.3142 21.4178 15.6152 21.2418 14.9132 21.0718C14.7162 21.0188 14.5102 20.9858 14.3152 20.9188C14.3176 20.8634 14.3298 20.8089 14.3512 20.7578L17.8842 12.2878C17.8964 12.2594 17.9157 12.2346 17.9402 12.2158C18.0632 12.2238 18.1802 12.2738 18.3002 12.3018C18.8952 12.4438 19.4912 12.5968 20.0872 12.7418C20.3962 12.8218 20.7132 12.8838 21.0202 12.9758C21.0362 13.0338 21.0082 13.0928 20.9862 13.1478C20.7462 13.6938 20.5262 14.2478 20.2932 14.7938L19.5722 16.5258C19.4912 16.7288 19.3852 16.9238 19.3292 17.1378C19.4332 17.1018 19.5222 17.0408 19.6132 16.9788L24.3192 14.0288C24.4052 13.9748 24.4832 13.9028 24.5812 13.8778C24.7252 13.8668 24.8612 13.9218 24.9982 13.9528C25.4782 14.0558 25.9502 14.1928 26.4262 14.3028C26.9422 14.4178 27.4482 14.5598 27.9582 14.6688V14.6688ZM16.8542 12.9698C16.8792 13.4738 16.6872 13.9528 16.4902 14.4038C15.9582 15.6818 15.4202 16.9568 14.8912 18.2348C14.6992 18.6858 14.5322 19.1568 14.2372 19.5548C14.0272 19.8508 13.7352 20.0788 13.3972 20.2088C12.9712 20.342 12.52 20.3746 12.0792 20.3038C11.3192 20.2088 10.5792 20.0038 9.83523 19.8248C8.82523 19.5718 7.80823 19.3268 6.79823 19.0728C6.12723 18.9118 5.45023 18.7388 4.82623 18.4328C4.55698 18.3022 4.32819 18.1011 4.16423 17.8508C4.0376 17.6442 3.98178 17.402 4.00523 17.1608C4.05823 16.7178 4.22223 16.2968 4.40023 15.8908L6.03023 11.9758C6.16023 11.6758 6.27423 11.3658 6.44123 11.0828C6.5841 10.821 6.77393 10.5878 7.00123 10.3948C7.26923 10.1908 7.58423 10.0598 7.91723 10.0128C8.16223 9.99079 8.40723 10.0028 8.65223 10.0078C9.40989 10.1198 10.1602 10.2767 10.8992 10.4778C11.9352 10.7278 12.9682 10.9908 14.0032 11.2408C14.4792 11.3578 14.9532 11.4778 15.4182 11.6368C15.7292 11.7508 16.0472 11.8668 16.3202 12.0648C16.6302 12.2658 16.8282 12.6008 16.8542 12.9698V12.9698ZM13.2342 13.8608C13.2542 13.7138 13.1492 13.5878 13.0262 13.5238C12.7762 13.3878 12.4912 13.3378 12.2192 13.2678C11.4972 13.0878 10.7752 12.9098 10.0492 12.7338C9.8435 12.6735 9.62691 12.6598 9.41523 12.6938C9.17023 12.7638 9.04723 13.0118 8.96423 13.2288C8.55423 14.2038 8.15423 15.1808 7.74223 16.1528C7.69723 16.2668 7.65223 16.3808 7.64223 16.5028C7.64223 16.6428 7.73923 16.7648 7.85823 16.8228C8.03723 16.9148 8.23223 16.9658 8.42123 17.0158L10.6762 17.5698C10.9382 17.6308 11.2132 17.6978 11.4812 17.6398C11.7062 17.5668 11.8212 17.3358 11.9042 17.1328L13.0092 14.4818C13.0962 14.2818 13.2072 14.0838 13.2352 13.8618L13.2342 13.8608Z" fill="white"/>
</g>
<defs>
<clipPath id="clip0_0_1876">
<rect width="32" height="32" fill="white"/>
</clipPath>
</defs>
</svg>
