<svg width="32" height="32" viewBox="0 0 32 32" fill="none" xmlns="http://www.w3.org/2000/svg">
<g clip-path="url(#clip0_0_1861)">
<path d="M16 32C24.8366 32 32 24.8366 32 16C32 7.16344 24.8366 0 16 0C7.16344 0 0 7.16344 0 16C0 24.8366 7.16344 32 16 32Z" fill="black"/>
<path fill-rule="evenodd" clip-rule="evenodd" d="M15.943 25.878C21.683 25.878 26.031 22.032 26.933 17H22.036C21.304 19.672 19.032 21.628 16.001 21.628C12.992 21.628 10.691 19.658 9.928 17H5C5.869 22.05 10.18 25.878 15.943 25.878Z" fill="white"/>
<path d="M15.527 10.054C16.9226 10.054 18.054 8.92262 18.054 7.527C18.054 6.13138 16.9226 5 15.527 5C14.1314 5 13 6.13138 13 7.527C13 8.92262 14.1314 10.054 15.527 10.054Z" fill="white"/>
<path fill-rule="evenodd" clip-rule="evenodd" d="M10 17.576V17.526C10 13.933 12.574 11 16.285 11C19.997 11 22.625 13.983 22.631 17.576H10Z" fill="white"/>
</g>
<defs>
<clipPath id="clip0_0_1861">
<rect width="32" height="32" fill="white"/>
</clipPath>
</defs>
</svg>
