<svg width="32" height="32" viewBox="0 0 32 32" fill="none" xmlns="http://www.w3.org/2000/svg">
<g clip-path="url(#clip0_0_1853)">
<path d="M16 32C24.8366 32 32 24.8366 32 16C32 7.16344 24.8366 0 16 0C7.16344 0 0 7.16344 0 16C0 24.8366 7.16344 32 16 32Z" fill="#25AAE1"/>
<path fill-rule="evenodd" clip-rule="evenodd" d="M16.346 24.993C14.706 25.011 13.329 24.715 12.031 24.07C11.951 24.03 11.891 24.028 11.811 24.073C11.0226 24.5186 10.1571 24.811 9.26 24.935C8.876 24.985 8.488 25.039 8.102 24.96C7.86431 24.9133 7.6433 24.8043 7.46163 24.6441C7.27995 24.4839 7.14415 24.2783 7.06813 24.0483C6.99211 23.8183 6.97861 23.5722 7.02902 23.3353C7.07943 23.0984 7.19194 22.8791 7.355 22.7C7.81324 22.1795 8.1573 21.5687 8.365 20.907C8.37721 20.874 8.38113 20.8385 8.37643 20.8036C8.37172 20.7688 8.35852 20.7356 8.338 20.707C7.63009 19.5833 7.19293 18.3105 7.061 16.989C6.767 14.067 7.676 11.564 9.771 9.512C11.0895 8.20601 12.7957 7.36253 14.634 7.108C17.171 6.737 19.483 7.323 21.514 8.896C23.326 10.3 24.454 12.149 24.847 14.407C25.345 17.265 24.624 19.811 22.707 21.987C21.29 23.595 19.49 24.55 17.372 24.889C16.97 24.954 16.562 24.972 16.346 24.993V24.993ZM9.916 22.605C9.981 22.587 10.019 22.577 10.056 22.565C10.6248 22.3729 11.1619 22.0976 11.65 21.748C12.002 21.5 12.349 21.488 12.72 21.7C13.516 22.156 14.369 22.44 15.284 22.537C16.771 22.696 18.174 22.413 19.429 21.607C21.599 20.215 22.679 18.211 22.562 15.616C22.487 13.954 21.836 12.519 20.657 11.35C19.236 9.942 17.507 9.3 15.504 9.438C14.154 9.532 12.934 9.996 11.895 10.863C9.882 12.543 9.105 14.697 9.551 17.28C9.697 18.13 10.036 18.91 10.514 19.63C10.6052 19.7587 10.6677 19.9055 10.6972 20.0604C10.7267 20.2153 10.7225 20.3748 10.685 20.528C10.5707 21.0253 10.41 21.5107 10.205 21.978C10.116 22.181 10.02 22.38 9.917 22.605H9.916ZM16.007 12.193L16.577 13.35C16.777 13.76 16.983 14.17 17.177 14.584C17.227 14.692 17.294 14.73 17.406 14.745C18.246 14.862 19.085 14.985 19.924 15.106C19.953 15.111 19.982 15.119 20.018 15.126C19.863 15.286 19.719 15.442 19.568 15.589C19.094 16.052 18.619 16.513 18.141 16.971C18.058 17.051 18.025 17.126 18.047 17.249C18.197 18.092 18.337 18.937 18.479 19.782C18.482 19.803 18.482 19.825 18.485 19.866C18.439 19.848 18.404 19.837 18.372 19.82C17.63 19.429 16.887 19.039 16.148 18.642C16.048 18.588 15.97 18.583 15.866 18.639C15.122 19.036 14.375 19.427 13.628 19.819C13.598 19.836 13.566 19.849 13.508 19.877C13.545 19.65 13.577 19.447 13.612 19.245C13.73 18.563 13.847 17.88 13.972 17.199C13.99 17.099 13.934 17.052 13.878 16.997C13.2826 16.4117 12.6859 15.8277 12.088 15.245C12.054 15.211 12.006 15.192 11.964 15.166L11.995 15.118L12.911 14.986C13.487 14.904 14.062 14.82 14.639 14.741C14.731 14.728 14.773 14.679 14.811 14.601C15.188 13.832 15.569 13.065 15.948 12.297C15.962 12.27 15.978 12.245 16.008 12.193H16.007Z" fill="white"/>
</g>
<defs>
<clipPath id="clip0_0_1853">
<rect width="32" height="32" fill="white"/>
</clipPath>
</defs>
</svg>
