<svg width="32" height="32" viewBox="0 0 32 32" fill="none" xmlns="http://www.w3.org/2000/svg">
<g clip-path="url(#clip0_0_1847)">
<path d="M16 32C24.8366 32 32 24.8366 32 16C32 7.16344 24.8366 0 16 0C7.16344 0 0 7.16344 0 16C0 24.8366 7.16344 32 16 32Z" fill="#34445B"/>
<path d="M15.8748 10.1482L17.8848 7.01218C18.4006 7.09583 18.9287 6.97741 19.3593 6.68156C19.79 6.38571 20.09 5.93521 20.1969 5.42379C20.3038 4.91237 20.2094 4.37942 19.9334 3.93583C19.6573 3.49223 19.2209 3.17215 18.7148 3.04218C18.3117 2.9587 17.8928 2.99975 17.5135 3.15988C17.1343 3.32 16.8127 3.59164 16.5914 3.93876C16.3701 4.28588 16.2596 4.69207 16.2745 5.10345C16.2894 5.51484 16.429 5.91197 16.6748 6.24218L14.1808 10.1332C13.14 10.2355 12.1296 10.542 11.2073 11.0351C10.285 11.5281 9.46884 12.1981 8.80557 13.0067C8.14231 13.8153 7.64488 14.7467 7.34174 15.7476C7.03859 16.7486 6.93566 17.7994 7.03883 18.8402C7.24687 20.9415 8.28079 22.8742 9.91333 24.2134C11.5459 25.5527 13.6434 26.1889 15.7448 25.9822C17.8463 25.7744 19.7793 24.7406 21.1187 23.108C22.4582 21.4754 23.0945 19.3778 22.8878 17.2762C22.7083 15.4659 21.9147 13.7717 20.6389 12.4749C19.3631 11.1782 17.6819 10.3571 15.8748 10.1482V10.1482ZM14.9598 22.2702C14.4051 22.2707 13.8556 22.1618 13.343 21.9498C12.8303 21.7378 12.3645 21.4268 11.9722 21.0345C11.5799 20.6423 11.2687 20.1765 11.0566 19.6639C10.8444 19.1513 10.7354 18.6019 10.7358 18.0472C10.7353 17.4923 10.8442 16.9428 11.0563 16.4301C11.2684 15.9174 11.5795 15.4515 11.9718 15.0592C12.3642 14.6668 12.83 14.3557 13.3427 14.1436C13.8555 13.9315 14.405 13.8227 14.9598 13.8232C15.8179 13.823 16.6557 14.0843 17.3614 14.5725C18.0671 15.0606 18.6073 15.7522 18.9098 16.5552C18.5129 16.0441 17.9294 15.7114 17.2874 15.6302C16.6454 15.549 15.9975 15.726 15.4858 16.1222C14.9745 16.5189 14.6416 17.1025 14.5604 17.7445C14.4792 18.3866 14.6563 19.0346 15.0528 19.5462C15.2806 19.8392 15.5721 20.0764 15.9053 20.2397C16.2385 20.4031 16.6045 20.4884 16.9756 20.4891C17.3467 20.4898 17.7131 20.4058 18.0468 20.2436C18.3806 20.0815 18.673 19.8453 18.9018 19.5532C18.598 20.3525 18.0582 21.0406 17.3541 21.5259C16.6501 22.0112 15.815 22.2708 14.9598 22.2702V22.2702Z" fill="white"/>
<path d="M15.8748 10.1482L17.8848 7.01218C18.4006 7.09583 18.9287 6.97741 19.3593 6.68156C19.79 6.38571 20.09 5.93521 20.1969 5.42379C20.3038 4.91237 20.2094 4.37942 19.9334 3.93583C19.6573 3.49223 19.2209 3.17215 18.7148 3.04218C18.3117 2.9587 17.8928 2.99975 17.5135 3.15988C17.1343 3.32 16.8127 3.59164 16.5914 3.93876C16.3701 4.28588 16.2596 4.69207 16.2745 5.10345C16.2894 5.51484 16.429 5.91197 16.6748 6.24218L14.1808 10.1332C13.14 10.2355 12.1296 10.542 11.2073 11.0351C10.285 11.5281 9.46884 12.1981 8.80557 13.0067C8.14231 13.8153 7.64488 14.7467 7.34174 15.7476C7.03859 16.7486 6.93566 17.7994 7.03883 18.8402C7.24687 20.9415 8.28079 22.8742 9.91333 24.2134C11.5459 25.5527 13.6434 26.1889 15.7448 25.9822C17.8463 25.7744 19.7793 24.7406 21.1187 23.108C22.4582 21.4754 23.0945 19.3778 22.8878 17.2762C22.7083 15.4659 21.9147 13.7717 20.6389 12.4749C19.3631 11.1782 17.6819 10.3571 15.8748 10.1482V10.1482ZM14.9598 22.2702C14.4051 22.2707 13.8556 22.1618 13.343 21.9498C12.8303 21.7378 12.3645 21.4268 11.9722 21.0345C11.5799 20.6423 11.2687 20.1765 11.0566 19.6639C10.8444 19.1513 10.7354 18.6019 10.7358 18.0472C10.7353 17.4923 10.8442 16.9428 11.0563 16.4301C11.2684 15.9174 11.5795 15.4515 11.9718 15.0592C12.3642 14.6668 12.83 14.3557 13.3427 14.1436C13.8555 13.9315 14.405 13.8227 14.9598 13.8232C15.8179 13.823 16.6557 14.0843 17.3614 14.5725C18.0671 15.0606 18.6073 15.7522 18.9098 16.5552C18.5129 16.0441 17.9294 15.7114 17.2874 15.6302C16.6454 15.549 15.9975 15.726 15.4858 16.1222C14.9745 16.5189 14.6416 17.1025 14.5604 17.7445C14.4792 18.3866 14.6563 19.0346 15.0528 19.5462C15.2806 19.8392 15.5721 20.0764 15.9053 20.2397C16.2385 20.4031 16.6045 20.4884 16.9756 20.4891C17.3467 20.4898 17.7131 20.4058 18.0468 20.2436C18.3806 20.0815 18.673 19.8453 18.9018 19.5532C18.598 20.3525 18.0582 21.0406 17.3541 21.5259C16.6501 22.0112 15.815 22.2708 14.9598 22.2702V22.2702Z" fill="white"/>
</g>
<defs>
<clipPath id="clip0_0_1847">
<rect width="32" height="32" fill="white"/>
</clipPath>
</defs>
</svg>
