<svg width="32" height="32" viewBox="0 0 32 32" fill="none" xmlns="http://www.w3.org/2000/svg">
<g clip-path="url(#clip0_0_1843)">
<path d="M16 32C24.8366 32 32 24.8366 32 16C32 7.16344 24.8366 0 16 0C7.16344 0 0 7.16344 0 16C0 24.8366 7.16344 32 16 32Z" fill="#4392CD"/>
<path fill-rule="evenodd" clip-rule="evenodd" d="M16.858 25.001H15.142C13.854 25.001 13.489 23.807 13.489 22.895C13.489 21.983 13.554 21.57 13.554 21.158C13.554 20.508 13.226 18.885 12.631 18.205C11.472 16.88 10.742 15.693 10.742 13.971C9.734 13.45 7.952 12.972 7.266 12.191C6.58 11.41 6 10.301 6 8.715C6 8.31 6.086 7.738 6.258 7C6.653 8.234 7.261 9.08 8.082 9.54C9.283 10.214 10.637 10.713 11.794 10.713H20.206C21.363 10.713 22.716 10.213 23.918 9.54C24.738 9.08 25.347 8.234 25.742 7C25.914 7.738 26 8.31 26 8.715C26 10.3 25.42 11.408 24.734 12.189C24.048 12.97 22.266 13.449 21.258 13.969C21.258 15.692 20.528 16.879 19.369 18.204C18.774 18.884 18.446 20.507 18.446 21.157C18.446 21.569 18.511 21.982 18.511 22.894C18.511 23.806 18.146 25 16.858 25V25.001Z" fill="white"/>
</g>
<defs>
<clipPath id="clip0_0_1843">
<rect width="32" height="32" fill="white"/>
</clipPath>
</defs>
</svg>
