<svg width="32" height="32" viewBox="0 0 32 32" fill="none" xmlns="http://www.w3.org/2000/svg">
<g clip-path="url(#clip0_0_1839)">
<path d="M16 32C24.8366 32 32 24.8366 32 16C32 7.16344 24.8366 0 16 0C7.16344 0 0 7.16344 0 16C0 24.8366 7.16344 32 16 32Z" fill="#5F45BA"/>
<path d="M10.1955 8.66099C10.0846 8.848 9.92068 8.9979 9.72452 9.09172C9.52837 9.18554 9.30879 9.21907 9.09358 9.18806C8.87837 9.15705 8.67719 9.0629 8.5155 8.91752C8.35381 8.77213 8.23888 8.58206 8.18526 8.37134C8.13163 8.16061 8.14172 7.93872 8.21424 7.73374C8.28677 7.52875 8.41847 7.34988 8.59268 7.21977C8.76689 7.08966 8.97578 7.01415 9.19292 7.00279C9.41006 6.99144 9.62569 7.04475 9.81252 7.15599C10.3335 7.46599 10.5055 8.13899 10.1955 8.66099V8.66099ZM6.44552 8.17299C6.36714 8.30532 6.25125 8.41141 6.11253 8.47782C5.9738 8.54424 5.81849 8.56799 5.66626 8.54607C5.51403 8.52415 5.37173 8.45754 5.25738 8.35469C5.14303 8.25183 5.06178 8.11735 5.02391 7.96828C4.98605 7.81921 4.99328 7.66226 5.04468 7.51731C5.09609 7.37235 5.18936 7.24591 5.31268 7.154C5.436 7.06209 5.58382 7.00884 5.73742 7.00101C5.89102 6.99317 6.04349 7.0311 6.17552 7.10999C6.54352 7.32999 6.66552 7.80499 6.44552 8.17299ZM16.8845 24.073C18.0045 23.9408 19.0873 23.5883 20.0705 23.0358C21.0537 22.4832 21.9178 21.7417 22.6131 20.8537C23.3084 19.9658 23.8212 18.9491 24.1219 17.8621C24.4225 16.7752 24.5052 15.6394 24.365 14.5204C24.2248 13.4014 23.8646 12.3211 23.3052 11.3419C22.7457 10.3627 21.998 9.50384 21.1051 8.81484C20.2123 8.12584 19.192 7.62031 18.1029 7.32737C17.0138 7.03443 15.8775 6.95987 14.7595 7.10799C14.0406 7.17522 13.3361 7.35193 12.6705 7.63199C11.8955 8.01199 11.3955 8.64499 11.3955 9.49199C11.3955 10.592 12.2875 11.486 13.3895 11.486C13.5735 11.486 14.2105 11.284 14.3625 11.232C15.0803 10.9815 15.849 10.9126 16.5999 11.0314C17.3508 11.1503 18.0606 11.4531 18.666 11.913C19.2714 12.3728 19.7536 12.9754 20.0695 13.6669C20.3854 14.3584 20.5252 15.1173 20.4765 15.876C20.4159 16.8405 20.0536 17.7616 19.4408 18.5089C18.828 19.2562 17.9957 19.792 17.0617 20.0403C16.1277 20.2886 15.1393 20.237 14.2362 19.8928C13.3331 19.5485 12.5612 18.9291 12.0295 18.122V18.123C11.1095 16.918 11.3215 14.992 11.3205 14.967C11.3025 14.4901 11.1144 14.0355 10.7902 13.6854C10.466 13.3353 10.0271 13.1128 9.55308 13.0583C9.07902 13.0038 8.60112 13.1208 8.2059 13.3882C7.81068 13.6556 7.52427 14.0557 7.39852 14.516C7.35352 14.683 7.33052 15.172 7.33752 15.237C7.28709 16.4728 7.50545 17.7047 7.97753 18.8479C8.44961 19.9911 9.16417 21.0181 10.0719 21.8582C10.9796 22.6983 12.0588 23.3314 13.235 23.7138C14.4112 24.0962 15.6563 24.2187 16.8845 24.073V24.073ZM9.05252 11.711C8.90872 11.9531 8.69637 12.1471 8.4423 12.2686C8.18823 12.39 7.90387 12.4334 7.62514 12.3933C7.34642 12.3531 7.08586 12.2312 6.8764 12.043C6.66695 11.8548 6.518 11.6087 6.44838 11.3358C6.37877 11.063 6.39162 10.7756 6.48531 10.51C6.579 10.2445 6.74932 10.0127 6.97474 9.8439C7.20016 9.67513 7.47056 9.57698 7.75176 9.56187C8.03295 9.54676 8.31231 9.61535 8.55452 9.75899C9.23052 10.161 9.45252 11.035 9.05152 11.711" fill="white"/>
</g>
<defs>
<clipPath id="clip0_0_1839">
<rect width="32" height="32" fill="white"/>
</clipPath>
</defs>
</svg>
