<svg width="32" height="32" viewBox="0 0 32 32" fill="none" xmlns="http://www.w3.org/2000/svg">
<g clip-path="url(#clip0_0_1835)">
<path d="M16 32C24.8366 32 32 24.8366 32 16C32 7.16344 24.8366 0 16 0C7.16344 0 0 7.16344 0 16C0 24.8366 7.16344 32 16 32Z" fill="#03E8B0"/>
<path d="M15.4245 6.1755C16.0685 5.8955 16.5285 6.4895 16.9265 6.8875C17.6365 7.4905 18.3125 8.1315 18.9525 8.8075C19.3195 9.2085 19.1705 9.9415 18.6715 10.1645C18.2875 10.3745 17.8185 10.2165 17.5245 9.9245C16.7515 9.1845 16.0125 8.4075 15.2105 7.7005C14.7125 7.2935 14.8145 6.4105 15.4245 6.1755V6.1755ZM22.4585 8.2265C22.8955 7.9915 23.5955 8.1825 23.7165 8.7035C23.9015 9.1665 23.6045 9.6235 23.2785 9.9325C22.5635 10.6375 21.8685 11.3625 21.1735 12.0885C20.9205 12.3945 20.4735 12.4765 20.1155 12.3115C19.5985 12.0975 19.4585 11.3215 19.8485 10.9275C20.7255 10.0355 21.4995 9.0355 22.4585 8.2275V8.2265ZM8.4905 8.3705C8.9455 8.0955 9.5085 8.2775 9.8455 8.6505C10.6035 9.4155 11.3855 10.1545 12.1505 10.9075C12.6575 11.3755 12.3035 12.3675 11.5965 12.3715C11.0045 12.4615 10.6905 11.8765 10.2945 11.5565C9.6005 10.9815 8.9645 10.3415 8.3345 9.6965C7.9785 9.3295 8.0845 8.6555 8.4915 8.3705H8.4905ZM9.0785 12.8905C9.8415 12.5955 10.5865 13.5575 10.1105 14.2205C9.5475 14.9545 8.8145 15.5455 8.2005 16.2385C7.8375 16.6115 7.5005 17.1855 6.8955 17.1125C6.1885 17.0855 5.8335 16.1025 6.3475 15.6255C7.2765 14.7365 8.0135 13.6125 9.0795 12.8895L9.0785 12.8905ZM24.5545 15.0175C25.0795 14.6745 25.8715 15.0645 25.8885 15.6975C25.9655 16.2915 25.3755 16.6055 25.0505 17.0055C24.4785 17.6935 23.8505 18.3355 23.2025 18.9535C22.7285 19.4005 21.8445 19.0865 21.7595 18.4385C21.6485 17.7695 22.2765 17.3545 22.6725 16.9265C23.3285 16.3175 23.8825 15.6005 24.5545 15.0175ZM11.0695 19.7225C11.5795 19.4175 12.3525 19.7795 12.3645 20.3985C12.4595 20.9965 11.8685 21.3135 11.5455 21.7125C10.9755 22.4025 10.3395 23.0355 9.6975 23.6605C9.2805 24.0825 8.3905 23.8795 8.2725 23.2745C8.0705 22.6895 8.5665 22.2185 8.9445 21.8515C9.6775 21.1655 10.3145 20.3815 11.0695 19.7225V19.7225ZM20.1315 19.6995C20.4135 19.6025 20.7715 19.5945 21.0095 19.7985C21.8925 20.6375 22.8325 21.4165 23.6625 22.3125C23.9185 22.5725 23.9415 23.0075 23.7715 23.3195C23.5315 23.8805 22.7095 23.8945 22.3105 23.4975C21.5045 22.7375 20.7305 21.9385 19.9205 21.1815C19.4305 20.8015 19.5455 19.9195 20.1305 19.6995H20.1315ZM13.3315 21.8445C13.7515 21.6175 14.2455 21.8325 14.5475 22.1525C15.3042 22.9132 16.0757 23.659 16.8615 24.3895C17.3815 24.8835 17.0295 25.8865 16.2965 25.8945C15.7045 25.9645 15.3965 25.3765 14.9995 25.0545C14.3143 24.4761 13.6632 23.8584 13.0495 23.2045C12.6755 22.8065 12.8275 22.0645 13.3315 21.8445ZM11.9815 6.9375C11.9815 7.16771 11.8901 7.38849 11.7273 7.55127C11.5645 7.71405 11.3437 7.8055 11.1135 7.8055C10.8833 7.8055 10.6625 7.71405 10.4997 7.55127C10.3369 7.38849 10.2455 7.16771 10.2455 6.9375C10.2531 6.71252 10.3479 6.49931 10.5097 6.34286C10.6716 6.18641 10.8879 6.09896 11.113 6.09896C11.3381 6.09896 11.5544 6.18641 11.7163 6.34286C11.8781 6.49931 11.9729 6.71252 11.9805 6.9375H11.9815ZM14.5095 9.2455C14.5095 9.47558 14.4181 9.69623 14.2554 9.85891C14.0927 10.0216 13.8721 10.113 13.642 10.113C13.4119 10.113 13.1913 10.0216 13.0286 9.85891C12.8659 9.69623 12.7745 9.47558 12.7745 9.2455C12.7745 9.01542 12.8659 8.79477 13.0286 8.63209C13.1913 8.4694 13.4119 8.378 13.642 8.378C13.8721 8.378 14.0927 8.4694 14.2554 8.63209C14.4181 8.79477 14.5095 9.01542 14.5095 9.2455V9.2455ZM7.7355 11.3655C7.73945 11.4819 7.71994 11.5979 7.67812 11.7066C7.63631 11.8153 7.57304 11.9145 7.4921 11.9982C7.41115 12.082 7.31418 12.1486 7.20696 12.194C7.09974 12.2395 6.98447 12.263 6.868 12.263C6.75153 12.263 6.63626 12.2395 6.52904 12.194C6.42182 12.1486 6.32485 12.082 6.2439 11.9982C6.16296 11.9145 6.09969 11.8153 6.05788 11.7066C6.01606 11.5979 5.99655 11.4819 6.0005 11.3655C6.00814 11.1405 6.10288 10.9273 6.26474 10.7709C6.42659 10.6144 6.64289 10.527 6.868 10.527C7.09311 10.527 7.30941 10.6144 7.47126 10.7709C7.63312 10.9273 7.72786 11.1405 7.7355 11.3655V11.3655ZM21.5075 6.8685C21.5075 7.09871 21.4161 7.31949 21.2533 7.48227C21.0905 7.64505 20.8697 7.7365 20.6395 7.7365C20.4093 7.7365 20.1885 7.64505 20.0257 7.48227C19.8629 7.31949 19.7715 7.09871 19.7715 6.8685C19.7715 6.63816 19.863 6.41725 20.0259 6.25438C20.1888 6.0915 20.4097 6 20.64 6C20.8703 6 21.0912 6.0915 21.2541 6.25438C21.417 6.41725 21.5085 6.63816 21.5085 6.8685H21.5075ZM26.0005 11.1485C26.0005 11.3786 25.9091 11.5992 25.7464 11.7619C25.5837 11.9246 25.3631 12.016 25.133 12.016C24.9029 12.016 24.6823 11.9246 24.5196 11.7619C24.3569 11.5992 24.2655 11.3786 24.2655 11.1485C24.2655 10.9184 24.3569 10.6978 24.5196 10.5351C24.6823 10.3724 24.9029 10.281 25.133 10.281C25.3631 10.281 25.5837 10.3724 25.7464 10.5351C25.9091 10.6978 26.0005 10.9184 26.0005 11.1485V11.1485ZM23.6295 13.6405C23.6295 13.8706 23.5381 14.0912 23.3754 14.2539C23.2127 14.4166 22.9921 14.508 22.762 14.508C22.5319 14.508 22.3113 14.4166 22.1486 14.2539C21.9859 14.0912 21.8945 13.8706 21.8945 13.6405C21.8945 13.4104 21.9859 13.1898 22.1486 13.0271C22.3113 12.8644 22.5319 12.773 22.762 12.773C22.9921 12.773 23.2127 12.8644 23.3754 13.0271C23.5381 13.1898 23.6295 13.4104 23.6295 13.6405V13.6405ZM25.9965 20.6465C25.9965 20.8766 25.9051 21.0972 25.7424 21.2599C25.5797 21.4226 25.3591 21.514 25.129 21.514C24.8989 21.514 24.6783 21.4226 24.5156 21.2599C24.3529 21.0972 24.2615 20.8766 24.2615 20.6465C24.2615 20.4164 24.3529 20.1958 24.5156 20.0331C24.6783 19.8704 24.8989 19.779 25.129 19.779C25.3591 19.779 25.5797 19.8704 25.7424 20.0331C25.9051 20.1958 25.9965 20.4164 25.9965 20.6465ZM19.2305 22.7625C19.2345 22.8789 19.2149 22.9949 19.1731 23.1036C19.1313 23.2123 19.068 23.3115 18.9871 23.3952C18.9062 23.479 18.8092 23.5456 18.702 23.591C18.5947 23.6365 18.4795 23.66 18.363 23.66C18.2465 23.66 18.1313 23.6365 18.024 23.591C17.9168 23.5456 17.8198 23.479 17.7389 23.3952C17.658 23.3115 17.5947 23.2123 17.5529 23.1036C17.5111 22.9949 17.4915 22.8789 17.4955 22.7625C17.5031 22.5375 17.5979 22.3243 17.7597 22.1679C17.9216 22.0114 18.1379 21.924 18.363 21.924C18.5881 21.924 18.8044 22.0114 18.9663 22.1679C19.1281 22.3243 19.2229 22.5375 19.2305 22.7625ZM21.7265 25.1345C21.7305 25.2509 21.7109 25.3669 21.6691 25.4756C21.6273 25.5843 21.564 25.6835 21.4831 25.7672C21.4022 25.851 21.3052 25.9176 21.198 25.963C21.0907 26.0085 20.9755 26.032 20.859 26.032C20.7425 26.032 20.6273 26.0085 20.52 25.963C20.4128 25.9176 20.3158 25.851 20.2349 25.7672C20.154 25.6835 20.0907 25.5843 20.0489 25.4756C20.0071 25.3669 19.9875 25.2509 19.9915 25.1345C19.9991 24.9095 20.0939 24.6963 20.2557 24.5399C20.4176 24.3834 20.6339 24.296 20.859 24.296C21.0841 24.296 21.3004 24.3834 21.4623 24.5399C21.6241 24.6963 21.7189 24.9095 21.7265 25.1345V25.1345ZM12.2265 25.1345C12.2265 25.3647 12.1351 25.5855 11.9723 25.7483C11.8095 25.9111 11.5887 26.0025 11.3585 26.0025C11.1283 26.0025 10.9075 25.9111 10.7447 25.7483C10.5819 25.5855 10.4905 25.3647 10.4905 25.1345C10.4981 24.9095 10.5929 24.6963 10.7547 24.5399C10.9166 24.3834 11.1329 24.296 11.358 24.296C11.5831 24.296 11.7994 24.3834 11.9613 24.5399C12.1231 24.6963 12.2179 24.9095 12.2255 25.1345H12.2265ZM10.1095 18.3405C10.1135 18.4569 10.0939 18.5729 10.0521 18.6816C10.0103 18.7903 9.94704 18.8895 9.8661 18.9732C9.78515 19.057 9.68818 19.1236 9.58096 19.169C9.47374 19.2145 9.35847 19.238 9.242 19.238C9.12553 19.238 9.01026 19.2145 8.90304 19.169C8.79582 19.1236 8.69885 19.057 8.6179 18.9732C8.53696 18.8895 8.47369 18.7903 8.43188 18.6816C8.39006 18.5729 8.37055 18.4569 8.3745 18.3405C8.38214 18.1155 8.47688 17.9023 8.63874 17.7459C8.80059 17.5894 9.01689 17.502 9.242 17.502C9.46711 17.502 9.68341 17.5894 9.84526 17.7459C10.0071 17.9023 10.1019 18.1155 10.1095 18.3405V18.3405ZM7.7355 20.8615C7.73945 20.9779 7.71994 21.0939 7.67812 21.2026C7.63631 21.3113 7.57304 21.4105 7.4921 21.4942C7.41115 21.578 7.31418 21.6446 7.20696 21.69C7.09974 21.7355 6.98447 21.759 6.868 21.759C6.75153 21.759 6.63626 21.7355 6.52904 21.69C6.42182 21.6446 6.32485 21.578 6.2439 21.4942C6.16296 21.4105 6.09969 21.3113 6.05788 21.2026C6.01606 21.0939 5.99655 20.9779 6.0005 20.8615C6.00814 20.6365 6.10288 20.4233 6.26474 20.2669C6.42659 20.1104 6.64289 20.023 6.868 20.023C7.09311 20.023 7.30941 20.1104 7.47126 20.2669C7.63312 20.4233 7.72786 20.6365 7.7355 20.8615" fill="white"/>
</g>
<defs>
<clipPath id="clip0_0_1835">
<rect width="32" height="32" fill="white"/>
</clipPath>
</defs>
</svg>
