<svg width="32" height="32" viewBox="0 0 32 32" fill="none" xmlns="http://www.w3.org/2000/svg">
<g clip-path="url(#clip0_0_1827)">
<path d="M16 32C24.8366 32 32 24.8366 32 16C32 7.16344 24.8366 0 16 0C7.16344 0 0 7.16344 0 16C0 24.8366 7.16344 32 16 32Z" fill="#00ACFF"/>
<path fill-rule="evenodd" clip-rule="evenodd" d="M15.5798 20.156C15.6419 20.1302 15.7086 20.117 15.7759 20.1171C15.8432 20.1171 15.9098 20.1305 15.9719 20.1565C16.034 20.1824 16.0903 20.2204 16.1377 20.2682C16.185 20.316 16.2225 20.3727 16.2478 20.435C16.2996 20.5608 16.2995 20.7019 16.2476 20.8276C16.1957 20.9534 16.0962 21.0534 15.9708 21.106L12.5648 22.52L12.1128 25H9.76879L10.0258 23.574L8.64379 24.147C8.58164 24.1728 8.515 24.1861 8.44771 24.186C8.38041 24.1859 8.3138 24.1725 8.25171 24.1466C8.18961 24.1207 8.13326 24.0827 8.08591 24.0349C8.03855 23.9871 8.00113 23.9304 7.97579 23.868C7.92432 23.7424 7.92455 23.6015 7.97642 23.476C8.0283 23.3506 8.12762 23.2506 8.25279 23.198L10.2428 22.372L10.3928 21.533L7.70579 22.648C7.6437 22.6737 7.57715 22.6868 7.50996 22.6867C7.44278 22.6865 7.37629 22.6731 7.31431 22.6472C7.25233 22.6212 7.19608 22.5833 7.1488 22.5356C7.10152 22.4879 7.06413 22.4313 7.03879 22.369C6.98701 22.2433 6.98707 22.1021 7.03897 21.9764C7.09086 21.8507 7.19038 21.7506 7.31579 21.698L10.6088 20.331L13.0068 7.01004H19.7798C23.9268 6.86704 25.9998 8.25204 25.9998 11.165C25.9998 14.86 23.2978 17.718 18.7148 17.718H13.4398L13.1568 19.274L14.6438 18.657C14.7059 18.6314 14.7724 18.6183 14.8396 18.6184C14.9068 18.6186 14.9733 18.632 15.0353 18.6579C15.0973 18.6838 15.1535 18.7218 15.2008 18.7695C15.2481 18.8172 15.2854 18.8738 15.3108 18.936C15.3623 19.0617 15.362 19.2026 15.3102 19.328C15.2583 19.4535 15.159 19.5534 15.0338 19.606L12.9368 20.477L12.7838 21.317L15.5798 20.156ZM15.0098 9.10904L13.8378 15.534H19.0558C22.2678 15.534 23.4858 13.349 23.4858 11.764C23.4858 10.18 22.7198 9.10904 20.1638 9.10904H15.0098Z" fill="white"/>
</g>
<defs>
<clipPath id="clip0_0_1827">
<rect width="32" height="32" fill="white"/>
</clipPath>
</defs>
</svg>
