<svg width="32" height="32" viewBox="0 0 32 32" fill="none" xmlns="http://www.w3.org/2000/svg">
<g clip-path="url(#clip0_0_1823)">
<path d="M16 32C24.8366 32 32 24.8366 32 16C32 7.16344 24.8366 0 16 0C7.16344 0 0 7.16344 0 16C0 24.8366 7.16344 32 16 32Z" fill="#EDE708"/>
<path d="M26.8837 13.37L27.3837 14.12C28.3837 11.6 28.1537 9.63 27.2537 8.77C25.6337 7.21 23.2537 8.08 20.6737 7C18.5237 5.42 17.2237 5 15.4337 5C14.2111 5.21032 13.0793 5.78145 12.1837 6.64C11.4617 6.59777 10.7391 6.7127 10.0658 6.97684C9.39246 7.24099 8.78446 7.64807 8.28374 8.17C7.22374 9.42 6.98374 12.85 6.82374 13.72C6.66374 14.59 4.82374 18.1 5.01374 20.02C5.20374 21.94 6.61374 24.02 10.6037 24.51C11.3435 25.3692 12.2666 26.0515 13.3049 26.5067C14.3433 26.9618 15.4706 27.1783 16.6037 27.14C18.6937 26.92 21.6037 23.72 23.2937 22.45C24.9837 21.18 31.0037 20.08 27.4137 14.17C27.2599 13.9117 27.093 13.6614 26.9137 13.42L26.8837 13.37V13.37ZM17.7537 22.17C16.2336 22.4649 14.6582 22.2208 13.2986 21.4798C11.9389 20.7389 10.8799 19.5473 10.3037 18.11C10.0837 17.25 9.65374 12.87 13.3037 10.7C16.0237 9.16 19.8537 8.95 21.4637 12.54C23.0737 16.13 22.4837 21.16 17.7537 22.17Z" fill="white"/>
</g>
<defs>
<clipPath id="clip0_0_1823">
<rect width="32" height="32" fill="white"/>
</clipPath>
</defs>
</svg>
