<svg width="32" height="32" viewBox="0 0 32 32" fill="none" xmlns="http://www.w3.org/2000/svg">
<g clip-path="url(#clip0_0_1819)">
<path d="M16 32C24.8366 32 32 24.8366 32 16C32 7.16344 24.8366 0 16 0C7.16344 0 0 7.16344 0 16C0 24.8366 7.16344 32 16 32Z" fill="#302C2C"/>
<path d="M26.91 15.696C26.8551 15.585 26.7825 15.4836 26.695 15.396C24.793 13.242 20.922 9 20.922 9L16.005 14.378L11.025 9.051C11.025 9.051 7.109 13.33 5.19 15.507C4.94 15.753 4.94 16.197 5.164 16.459C6.161 17.595 11.058 22.995 11.058 22.995L15.998 17.581L20.904 23L26.821 16.454C26.821 16.454 26.946 16.324 26.973 16.237C27.031 16.057 26.989 15.861 26.91 15.696V15.696ZM7.918 16.295C7.758 16.106 7.812 15.809 7.961 15.63C8.587 14.917 11.092 12.23 11.092 12.23L14.582 15.935L11.086 19.759C11.086 19.759 8.946 17.475 7.918 16.295V16.295ZM23.906 16.421C23.8323 16.5473 23.7466 16.6662 23.65 16.776L20.94 19.721L17.44 16L20.884 12.225C20.884 12.225 22.868 14.28 23.777 15.385C23.854 15.481 23.945 15.572 23.984 15.694C24.067 15.933 24.014 16.199 23.905 16.42" fill="white"/>
</g>
<defs>
<clipPath id="clip0_0_1819">
<rect width="32" height="32" fill="white"/>
</clipPath>
</defs>
</svg>
