<svg width="32" height="32" viewBox="0 0 32 32" fill="none" xmlns="http://www.w3.org/2000/svg">
<g clip-path="url(#clip0_0_1813)">
<path d="M16 32C24.8366 32 32 24.8366 32 16C32 7.16344 24.8366 0 16 0C7.16344 0 0 7.16344 0 16C0 24.8366 7.16344 32 16 32Z" fill="#663300"/>
<path d="M12 10.063L13.25 7L21.812 7.031C23.062 7.125 24.562 7.125 25.406 8.188C26.406 9.344 26.187 11 25.687 12.312C25.2051 13.724 24.3686 14.9885 23.2578 15.9845C22.147 16.9804 20.799 17.6745 19.343 18C17.281 18.313 15.187 18.219 13.093 18.219C13.51 17.202 13.927 16.181 14.343 15.156C16.062 15.156 17.812 15.25 19.562 14.969C21.156 14.563 22.625 12.969 22.375 11.219C22.218 10.469 21.375 10.125 20.655 10.125C17.781 10 14.905 10.125 12.031 10.062H12V10.063Z" fill="white"/>
<path d="M8 11H18.156L16.813 14.469H6.624L8 11.031V11.001V11ZM9.625 15.25H13.156L9.47 24.625H6L9.656 15.25H9.625V15.25Z" fill="white"/>
</g>
<defs>
<clipPath id="clip0_0_1813">
<rect width="32" height="32" fill="white"/>
</clipPath>
</defs>
</svg>
