<svg width="32" height="32" viewBox="0 0 32 32" fill="none" xmlns="http://www.w3.org/2000/svg">
<g clip-path="url(#clip0_0_1807)">
<path d="M16 32C24.8366 32 32 24.8366 32 16C32 7.16344 24.8366 0 16 0C7.16344 0 0 7.16344 0 16C0 24.8366 7.16344 32 16 32Z" fill="#ED79AA"/>
<path opacity="0.5" fill-rule="evenodd" clip-rule="evenodd" d="M22.952 8.929L21.082 10.812C20.4083 10.1306 19.6059 9.58975 18.7215 9.22084C17.8371 8.85194 16.8883 8.66233 15.93 8.663C12.015 8.663 8.82002 11.773 8.65202 15.673H8.64402V22.795C6.93919 20.9433 5.99508 18.517 6.00002 16C6.00002 10.477 10.446 6 15.93 6C17.2361 5.99908 18.5293 6.25751 19.7348 6.7603C20.9402 7.2631 22.0337 8.00026 22.952 8.929ZM22.952 23.071C21.1368 24.9075 18.6739 25.9591 16.092 26V23.336C17.971 23.2953 19.7605 22.5254 21.082 21.189L22.952 23.071Z" fill="white"/>
<path fill-rule="evenodd" clip-rule="evenodd" d="M11 24.784V15.674H11.007C11.147 13.069 13.289 11 15.911 11C18.623 11 20.822 13.214 20.822 15.946C20.822 18.677 18.623 20.891 15.912 20.891C15.0385 20.8925 14.1808 20.6586 13.429 20.214V25.725C12.5812 25.5209 11.7643 25.2048 11 24.785V24.784ZM15.911 18.446C16.2382 18.445 16.562 18.3794 16.8639 18.2532C17.1658 18.127 17.4398 17.9426 17.6704 17.7104C17.901 17.4782 18.0836 17.2029 18.2077 16.9002C18.3319 16.5974 18.3952 16.2732 18.394 15.946C18.394 14.565 17.282 13.446 15.911 13.446C15.5839 13.4472 15.2602 13.5128 14.9584 13.6391C14.6566 13.7653 14.3827 13.9498 14.1522 14.182C13.9218 14.4141 13.7393 14.6894 13.6152 14.992C13.4911 15.2947 13.4278 15.6189 13.429 15.946C13.429 17.326 14.54 18.446 15.911 18.446Z" fill="white"/>
</g>
<defs>
<clipPath id="clip0_0_1807">
<rect width="32" height="32" fill="white"/>
</clipPath>
</defs>
</svg>
