<svg width="32" height="32" viewBox="0 0 32 32" fill="none" xmlns="http://www.w3.org/2000/svg">
<g clip-path="url(#clip0_0_1803)">
<path d="M16 32C24.8366 32 32 24.8366 32 16C32 7.16344 24.8366 0 16 0C7.16344 0 0 7.16344 0 16C0 24.8366 7.16344 32 16 32Z" fill="#96B73D"/>
<path d="M11.594 16.105C11.68 16.363 11.807 16.605 11.971 16.823L9.478 14.305C9.21823 14.043 9.07247 13.689 9.07247 13.32C9.07247 12.951 9.21823 12.597 9.478 12.335L12.623 9.188C12.688 9.14 12.75 9.088 12.81 9.034L12.901 8.954L15.448 6.405C15.5761 6.27636 15.7284 6.17435 15.8961 6.10483C16.0638 6.03531 16.2436 5.99966 16.4251 5.99994C16.6067 6.00022 16.7864 6.03642 16.9538 6.10645C17.1213 6.17648 17.2733 6.27897 17.401 6.408L25.744 14.811C25.9341 15.0812 26.0232 15.4097 25.9956 15.7389C25.968 16.0682 25.8255 16.3772 25.593 16.612C25.3635 16.8434 25.0615 16.9891 24.7375 17.0246C24.4135 17.0601 24.0872 16.9833 23.813 16.807L16.443 9.367L16.435 9.357L16.411 9.331L12.468 13.275L12.408 13.325C12.4057 13.3277 12.4034 13.3304 12.401 13.333L16.297 17.26C16.4685 17.4333 16.5918 17.6485 16.6545 17.8842C16.7172 18.1198 16.7173 18.3678 16.6546 18.6035C16.592 18.8392 16.4688 19.0544 16.2973 19.2278C16.1258 19.4012 15.912 19.5267 15.677 19.592C15.4421 19.6553 15.1947 19.6552 14.9598 19.5918C14.725 19.5284 14.5111 19.4039 14.34 19.231L12.344 17.221C12.315 17.195 12.286 17.161 12.25 17.125L12.158 17.033C12.0911 16.9577 12.0287 16.8786 11.971 16.796L12.016 16.849L11.986 16.81C11.8185 16.5975 11.6861 16.3594 11.594 16.105V16.105ZM19.74 18.678L15.839 14.749C15.5792 14.487 15.4335 14.133 15.4335 13.764C15.4335 13.395 15.5792 13.041 15.839 12.779C15.9674 12.6502 16.1199 12.5481 16.2879 12.4786C16.4559 12.409 16.636 12.3734 16.8178 12.3738C16.9997 12.3741 17.1796 12.4105 17.3473 12.4807C17.515 12.551 17.6672 12.6537 17.795 12.783L19.792 14.793C19.82 14.818 19.849 14.853 19.886 14.888L19.977 14.98C20.029 15.038 20.077 15.1 20.121 15.163L20.143 15.19C20.1149 15.1499 20.0863 15.1102 20.057 15.071L22.667 17.698C22.9271 17.9602 23.0731 18.3146 23.0731 18.684C23.0731 19.0534 22.9271 19.4078 22.667 19.67L19.52 22.818C19.4541 22.865 19.3907 22.9154 19.33 22.969L16.706 25.593C16.5781 25.722 16.4259 25.8244 16.2582 25.8942C16.0905 25.9641 15.9107 26.0001 15.729 26.0001C15.5473 26.0001 15.3675 25.9641 15.1998 25.8942C15.0321 25.8244 14.8799 25.722 14.752 25.593L6.275 17.046C6.06846 16.7658 5.97306 16.4189 6.00723 16.0725C6.04139 15.726 6.2027 15.4045 6.46 15.17C6.71649 14.9367 7.05125 14.8083 7.39795 14.8101C7.74466 14.812 8.07802 14.944 8.332 15.18L15.716 22.635L15.741 22.665L19.676 18.731L19.734 18.684C19.736 18.682 19.738 18.68 19.74 18.678V18.678Z" fill="white"/>
</g>
<defs>
<clipPath id="clip0_0_1803">
<rect width="32" height="32" fill="white"/>
</clipPath>
</defs>
</svg>
