<svg width="32" height="32" viewBox="0 0 32 32" fill="none" xmlns="http://www.w3.org/2000/svg">
<g clip-path="url(#clip0_0_1787)">
<path d="M16 32C24.8366 32 32 24.8366 32 16C32 7.16344 24.8366 0 16 0C7.16344 0 0 7.16344 0 16C0 24.8366 7.16344 32 16 32Z" fill="#DCD6CC"/>
<path d="M24.758 8.23201C23.9542 7.44009 22.8704 6.99736 21.742 7.00001C20.597 7.00001 19.531 7.44001 18.726 8.23201L8.87 17.938C8.8203 17.9879 8.78169 18.0477 8.7567 18.1135C8.73171 18.1794 8.72091 18.2497 8.725 18.32V23.316L6 26H7.503L9.521 24.013H14.565C14.6358 24.0137 14.706 23.9997 14.7711 23.9718C14.8361 23.9439 14.8947 23.9028 14.943 23.851L24.749 14.193L24.759 14.183C25.1514 13.7964 25.4631 13.3358 25.6761 12.8279C25.8891 12.32 25.9992 11.7748 26 11.224C26.0027 10.668 25.8942 10.1171 25.681 9.60358C25.4677 9.09011 25.1539 8.62446 24.758 8.23401V8.23201ZM19.026 9.36001L19.443 8.95001C20.0555 8.3464 20.8821 8.00988 21.742 8.01401C22.605 8.01401 23.42 8.34801 24.041 8.95001C24.051 8.96001 24.061 8.97801 24.08 8.98801C24.671 9.59001 24.991 10.373 24.991 11.214C24.991 12.064 24.651 12.866 24.041 13.478L23.614 13.898H19.802L22.305 11.433C22.4007 11.3396 22.4562 11.2126 22.4597 11.0789C22.4633 10.9452 22.4146 10.8154 22.324 10.717C22.314 10.707 22.314 10.697 22.304 10.688C22.2037 10.5918 22.07 10.5381 21.931 10.5381C21.792 10.5381 21.6584 10.5918 21.558 10.688L19.036 13.172V9.35901L19.026 9.36001ZM10.55 23.001L12.606 20.975H16.418L14.362 23.001H10.55ZM16.534 17.097L18.969 14.699H22.781L20.346 17.097H16.534ZM19.512 17.919L17.242 20.154H13.43L15.7 17.919H19.512ZM15.759 12.579L18.203 10.171V13.973L15.759 16.39V12.579ZM12.655 15.635L14.925 13.4V17.202L12.655 19.437V15.635ZM9.745 18.501L11.83 16.457V20.259L9.745 22.303V18.501Z" fill="white"/>
</g>
<defs>
<clipPath id="clip0_0_1787">
<rect width="32" height="32" fill="white"/>
</clipPath>
</defs>
</svg>
