<svg width="32" height="32" viewBox="0 0 32 32" fill="none" xmlns="http://www.w3.org/2000/svg">
<g clip-path="url(#clip0_0_1783)">
<path d="M16 32C24.8366 32 32 24.8366 32 16C32 7.16344 24.8366 0 16 0C7.16344 0 0 7.16344 0 16C0 24.8366 7.16344 32 16 32Z" fill="#2C3E50"/>
<path d="M25.636 22.68V21.68C25.636 21.482 25.503 21.35 25.301 21.35H24.636V20.346C24.636 20.147 24.503 20.012 24.305 20.012H23.639V12.667H24.301C24.5 12.667 24.636 12.535 24.636 12.333V11.333H25.301C25.3793 11.3363 25.4562 11.3109 25.5171 11.2615C25.5781 11.2122 25.6189 11.1423 25.632 11.065C25.666 10.899 25.599 10.767 25.467 10.697L16.149 6.025C16.0524 5.99193 15.9476 5.99193 15.851 6.025L6.199 10.697C6.13563 10.7315 6.08518 10.7856 6.05524 10.8513C6.02531 10.9169 6.0175 10.9905 6.033 11.061C6.033 11.231 6.166 11.333 6.331 11.333H7.331V12.333C7.331 12.531 7.464 12.663 7.662 12.663H8.328V20.012H7.666C7.466 20.012 7.331 20.144 7.331 20.342V21.346H6.666C6.466 21.346 6.334 21.478 6.334 21.677V22.68C6.136 22.68 6 22.813 6 23.015C6 23.217 6.132 23.349 6.331 23.349H25.636C25.834 23.349 25.97 23.217 25.97 23.019C25.97 22.819 25.838 22.68 25.64 22.68H25.636V22.68ZM7.993 11.998V11.333H23.967V11.998H7.993V11.998ZM21.636 12.668V20.012H20.308V12.667H21.636V12.668ZM18.308 12.668V20.012H16.977V12.667H18.307L18.308 12.668ZM14.98 12.668V20.012H13.652V12.667H14.98V12.668ZM11.652 12.668V20.012H10.325V12.667H11.652V12.668ZM23.967 21.346H7.997V20.677H23.97V21.346H23.967V21.346Z" fill="white"/>
</g>
<defs>
<clipPath id="clip0_0_1783">
<rect width="32" height="32" fill="white"/>
</clipPath>
</defs>
</svg>
