<svg width="32" height="32" viewBox="0 0 32 32" fill="none" xmlns="http://www.w3.org/2000/svg">
<g clip-path="url(#clip0_0_1775)">
<path d="M16 32C24.8366 32 32 24.8366 32 16C32 7.16344 24.8366 0 16 0C7.16344 0 0 7.16344 0 16C0 24.8366 7.16344 32 16 32Z" fill="#105B2F"/>
<path fill-rule="evenodd" clip-rule="evenodd" d="M12.033 18.18L11.643 20.167L10.933 23.818C10.913 23.928 10.885 24.002 10.745 24C9.863 23.987 8.981 23.98 8.099 23.97C8.078 23.97 8.056 23.956 8 23.935L9.99 13.995H8.313C8.317 13.921 8.315 13.877 8.323 13.835C8.426 13.298 8.537 12.762 8.63 12.223C8.656 12.073 8.723 12.035 8.863 12.036C9.273 12.04 9.683 12.025 10.091 12.039C10.286 12.045 10.361 11.989 10.399 11.797C10.627 10.609 10.871 9.425 11.105 8.239C11.133 8.098 11.164 8.001 11.348 8.001C13.356 8.007 15.365 7.988 17.373 8.014C18.545 8.029 19.72 8.089 20.873 8.326C21.27 8.408 21.673 8.514 22.041 8.678C23.099 9.148 23.736 9.962 23.913 11.089C24.188 12.84 23.817 14.449 22.693 15.851C21.863 16.883 20.725 17.462 19.454 17.814C18.446 18.093 17.412 18.18 16.37 18.182C15.015 18.185 13.66 18.182 12.305 18.181H12.033V18.18ZM12.588 15.442H12.871C14.304 15.442 15.737 15.445 17.171 15.44C17.476 15.44 17.785 15.427 18.088 15.39C19.245 15.252 20.124 14.697 20.686 13.69C20.9271 13.2533 21.0081 12.7461 20.915 12.256C20.797 11.559 20.381 11.104 19.674 10.976C19.1564 10.8774 18.6317 10.8205 18.105 10.806C16.633 10.779 15.161 10.79 13.688 10.786C13.635 10.786 13.582 10.794 13.511 10.8L13.267 12.048H17.357L16.981 13.986H12.878L12.588 15.442Z" fill="white"/>
</g>
<defs>
<clipPath id="clip0_0_1775">
<rect width="32" height="32" fill="white"/>
</clipPath>
</defs>
</svg>
