<svg width="32" height="32" viewBox="0 0 32 32" fill="none" xmlns="http://www.w3.org/2000/svg">
<g clip-path="url(#clip0_0_1771)">
<path d="M16 32C24.8366 32 32 24.8366 32 16C32 7.16344 24.8366 0 16 0C7.16344 0 0 7.16344 0 16C0 24.8366 7.16344 32 16 32Z" fill="#05BCA9"/>
<path fill-rule="evenodd" clip-rule="evenodd" d="M27.9937 15.9541C28.0038 15.9998 27.998 16.0476 27.9772 16.0896C27.9565 16.1316 27.9221 16.1653 27.8797 16.1851L27.8037 16.2211L25.4977 18.5331L26.3917 21.8781C26.4057 21.9307 26.3984 21.9868 26.3712 22.034C26.344 22.0813 26.2993 22.1158 26.2467 22.1301L23.0377 22.9911L22.1527 26.3011C22.1388 26.3536 22.1047 26.3984 22.0579 26.4258C22.011 26.4531 21.9552 26.4608 21.9027 26.4471L18.5127 25.5371L16.1147 27.9401C16.0957 27.9593 16.0731 27.9745 16.0482 27.9849C16.0233 27.9953 15.9966 28.0006 15.9697 28.0006C15.9427 28.0006 15.916 27.9953 15.8911 27.9849C15.8662 27.9745 15.8436 27.9593 15.8247 27.9401L13.4557 25.5651L10.1737 26.4471C10.1477 26.454 10.1207 26.4558 10.0941 26.4523C10.0675 26.4487 10.0418 26.44 10.0186 26.4265C9.99534 26.413 9.975 26.3951 9.95872 26.3738C9.94244 26.3524 9.93053 26.3281 9.92368 26.3021L9.03767 22.9921L5.82967 22.1301C5.80357 22.1231 5.77909 22.1111 5.75766 22.0946C5.73622 22.0782 5.71825 22.0577 5.70477 22.0342C5.6913 22.0108 5.68259 21.985 5.67914 21.9582C5.67569 21.9314 5.67757 21.9042 5.68467 21.8781L6.54967 18.6411L4.05967 16.1441C4.02145 16.1055 4 16.0534 4 15.9991C4 15.9448 4.02145 15.8927 4.05967 15.8541L6.48067 13.4251L5.61567 10.1891C5.60164 10.1363 5.60913 10.0801 5.63651 10.0329C5.66388 9.98562 5.70891 9.95117 5.76167 9.9371L9.11667 9.0351L9.99067 5.7651C10.0047 5.71233 10.0392 5.6673 10.0865 5.63993C10.1337 5.61255 10.1899 5.60506 10.2427 5.6191L13.4167 6.4721L15.8247 4.0581C15.8637 4.02081 15.9157 4 15.9697 4C16.0237 4 16.0756 4.02081 16.1147 4.0581L18.5517 6.5001L21.8337 5.6181C21.8597 5.61116 21.8869 5.60943 21.9137 5.61302C21.9404 5.6166 21.9662 5.62543 21.9895 5.63899C22.0128 5.65256 22.0332 5.67059 22.0495 5.69206C22.0659 5.71352 22.0778 5.73801 22.0847 5.7641L22.1077 5.8501C22.1127 5.86302 22.1164 5.87642 22.1187 5.8901L22.9587 9.0341L26.3147 9.9361C26.4247 9.9661 26.4887 10.0781 26.4597 10.1881L25.5657 13.5321L27.8227 15.7951C27.8638 15.801 27.9022 15.8192 27.9328 15.8475C27.9633 15.8757 27.9846 15.9125 27.9937 15.9531V15.9541ZM25.3747 18.0741L26.7207 16.7261L25.2037 17.4331L25.3747 18.0751V18.0741ZM25.8657 21.5011L25.1627 18.8691L23.7657 20.2691V20.2701L25.8657 21.5011V21.5011ZM23.6557 20.6811L23.1607 22.5331L25.6657 21.8601L23.6557 20.6821V20.6811ZM21.8577 25.8171L22.5807 23.1141L20.6067 23.6441L21.8577 25.8171ZM19.3537 24.6921L18.8467 25.2011L20.8357 25.7351L19.3537 24.6921ZM16.1747 27.2981L18.0547 25.4131L16.1747 24.9081V27.2981ZM15.7647 24.9451L13.9137 25.4421L15.7637 27.2981V24.9451H15.7647ZM10.5757 25.9131L13.1217 25.2301L11.7577 23.8621L10.5757 25.9131V25.9131ZM9.49567 23.1141L10.0607 25.2281L10.2307 23.3121L9.49567 23.1141ZM6.40567 21.8591L8.91567 22.5331L8.41567 20.6661L6.40567 21.8591ZM8.21267 20.3091L6.88468 18.9771L6.21067 21.4971L8.21267 20.3091ZM4.73268 16.2391L6.67267 18.1831L7.19167 16.2391H4.73268V16.2391ZM6.81267 14.6641L6.60367 13.8841L4.96968 15.5221L6.81267 14.6641ZM6.14068 10.5621L6.81567 13.0891L8.16567 11.7361L6.14068 10.5621V10.5621ZM8.47867 11.4221L8.99468 9.4941L6.34468 10.2061L8.46567 11.4351L8.47867 11.4221V11.4221ZM10.2507 6.3821L9.57468 8.9121L11.4217 8.4161L10.2507 6.3831V6.3821ZM12.5927 7.2981L13.0817 6.8081L11.1657 6.2931L12.5927 7.2981ZM15.7647 4.7001L13.8747 6.5951L15.7647 7.1031V4.7001ZM16.1747 7.1401L18.0947 6.6241L16.1747 4.7001V7.1401V7.1401ZM21.5707 6.1161L18.8867 6.8361L20.3247 8.2791L21.5707 6.1161V6.1161ZM21.8737 8.7441L22.5017 8.9121L22.0187 7.1051L21.8737 8.7441V8.7441ZM25.7237 10.2041L23.0817 9.4941L23.5917 11.4061L25.7227 10.2031L25.7237 10.2041ZM23.7987 11.7611L25.2307 13.1961L25.9377 10.5531L23.7987 11.7611V11.7611ZM27.2407 15.7921L25.4437 13.9911L24.9617 15.7921H27.2407ZM24.8747 16.2031L25.0947 17.0281L26.8657 16.2031H24.8757H24.8747ZM24.5647 17.2751L24.7177 17.2051L24.6507 16.9551L24.5657 17.2751H24.5647ZM24.4267 17.7931L23.9767 19.4741L25.0397 18.4091L24.8257 17.6071L24.4267 17.7931ZM23.1857 20.8501L20.9027 23.1381L22.7027 22.6551L23.1857 20.8501ZM20.3187 23.1431L23.3977 20.0561L23.9417 18.0191L18.7587 20.4341L20.3187 23.1431ZM20.2307 23.8131L19.6487 24.3961L21.1927 25.4831L20.2307 23.8131V23.8131ZM19.1397 24.0381L19.3077 24.1561L19.5307 23.9321L19.1397 24.0381ZM18.6227 24.1761L16.8307 24.6581L18.3897 25.0771L19.0137 24.4511L18.6237 24.1761H18.6227ZM15.2457 24.6581L12.3587 23.8821L13.5787 25.1061L15.2457 24.6581ZM10.6887 22.7901L10.6687 23.0031L10.9857 23.0881L10.6887 22.7901V22.7901ZM10.3097 22.4101L8.94068 21.0401L9.37267 22.6571L10.2677 22.8971L10.3097 22.4121V22.4101ZM8.14867 19.6631L7.42467 16.9551L7.00667 18.5181L8.14867 19.6631V19.6631ZM7.12367 15.8281L6.91967 15.0671L5.28667 15.8271H7.12367V15.8281ZM7.58768 14.7551L7.29767 14.8911L7.42467 15.3671L7.58768 14.7551V14.7551ZM7.72668 14.2381L8.26667 12.2161L6.93867 13.5481L7.18967 14.4881L7.72668 14.2381ZM9.05868 10.8401L10.9177 8.9771L9.45167 9.3711L9.05868 10.8411V10.8401ZM11.7427 8.15009L12.2987 7.5931L10.8227 6.5541L11.7427 8.15009V8.15009ZM12.9027 8.0181L12.6397 7.8331L12.2897 8.18309L12.9027 8.0181V8.0181ZM13.4197 7.8791L15.2457 7.3891L13.5397 6.9311L12.9337 7.5371L13.4197 7.8791V7.8791ZM16.8297 7.3891L19.5997 8.1331L18.4297 6.9601L16.8297 7.3891V7.3891ZM21.4067 9.3631L21.4347 9.0511L20.9717 8.9271L21.4067 9.3631V9.3631ZM21.7847 9.7431L23.0667 11.0281L22.6237 9.3711L21.8367 9.1591L21.7847 9.7431ZM23.8587 12.4031L24.6507 15.3671L25.1087 13.6561L23.8587 12.4041V12.4031ZM18.0847 19.2641L18.5527 20.0771L24.0807 17.5021L24.4277 16.2041H21.2127L21.0497 18.0381C21.0458 18.0812 21.0284 18.1219 20.9999 18.1545C20.9715 18.1871 20.9334 18.2099 20.8913 18.2195C20.8491 18.2292 20.8049 18.2252 20.7651 18.2083C20.7253 18.1913 20.6919 18.1622 20.6697 18.1251L19.6717 16.4351L18.0847 19.2641ZM17.3007 20.6611L18.1797 20.2511L17.8507 19.6811L17.3007 20.6611ZM13.8147 20.2911L18.7017 23.7311L19.9847 23.3861L18.3847 20.6091L16.8967 21.3031C16.8572 21.3218 16.8127 21.3273 16.7698 21.3189C16.727 21.3105 16.6879 21.2887 16.6583 21.2565C16.6287 21.2244 16.6102 21.1836 16.6054 21.1402C16.6006 21.0967 16.6098 21.0529 16.6317 21.0151L17.5647 19.3521L14.3347 19.3881L13.8147 20.2901V20.2911ZM13.6087 20.6481L12.0387 23.3721L16.0387 24.4461L18.1847 23.8691L13.6087 20.6481V20.6481ZM13.8577 19.3931L12.5607 19.4081L13.4777 20.0531L13.8577 19.3931ZM11.2677 16.2391L10.7357 22.2571L11.6697 23.1921L13.2717 20.4101L11.8037 19.3781C11.7683 19.353 11.7417 19.3173 11.7277 19.2762C11.7138 19.235 11.7132 19.1905 11.7261 19.149C11.739 19.1076 11.7646 19.0712 11.7994 19.0452C11.8341 19.0191 11.8762 19.0048 11.9197 19.0041L13.9037 18.9811L12.2837 16.2391H11.2687H11.2677ZM10.8577 16.2391H7.65767L8.72767 20.2441L10.3577 21.8771L10.8577 16.2391V16.2391ZM12.0397 15.8281L11.4007 14.7461L11.3047 15.8281H12.0397ZM13.4897 12.0061L8.07367 14.5301L7.72668 15.8281H10.8937L11.0487 14.0741C11.0532 14.0314 11.0709 13.9911 11.0994 13.959C11.1279 13.9268 11.1657 13.9044 11.2076 13.8948C11.2495 13.8852 11.2933 13.8889 11.3329 13.9055C11.3726 13.922 11.4061 13.9506 11.4287 13.9871L12.4317 15.6841L13.9987 12.8911L13.4887 12.0061H13.4897ZM13.2837 11.6491L11.6537 8.8201L8.84667 11.6351L8.21168 14.0121L13.2837 11.6491ZM18.2907 11.8111L13.3407 8.3261L12.0447 8.6751L13.6567 11.4751L15.2567 10.7291C15.2962 10.7104 15.3406 10.7049 15.3835 10.7133C15.4264 10.7216 15.4655 10.7435 15.4951 10.7757C15.5247 10.8078 15.5432 10.8486 15.548 10.892C15.5528 10.9354 15.5436 10.9793 15.5217 11.0171L14.5857 12.6851L17.8077 12.6491L18.2907 11.8111V11.8111ZM18.4967 11.4531L20.0877 8.69009L16.0377 7.6021L13.8577 8.1881L18.4967 11.4531ZM18.2847 12.6431L19.4547 12.6311L18.6277 12.0481L18.2847 12.6441V12.6431ZM20.8007 16.2041H20.0107L20.6977 17.3661L20.8007 16.2041V16.2041ZM14.2327 12.4741L14.8527 11.3711L13.8627 11.8321L14.2327 12.4751V12.4741ZM17.7957 18.9411L19.4297 16.0271L17.6847 13.0731L17.6797 13.0621L14.3527 13.0991L12.6727 16.0931L14.3777 18.9761L17.7757 18.9381C17.7827 18.9381 17.7887 18.9401 17.7957 18.9411ZM21.7377 10.2771L21.2487 15.7931H24.3407L23.2787 11.8231L21.7377 10.2771V10.2771ZM20.8377 15.7931L21.3597 9.8971L20.4127 8.9481L18.8327 11.6901L20.2127 12.6601C20.2485 12.6851 20.2755 12.7208 20.2897 12.7621C20.3039 12.8035 20.3046 12.8482 20.2917 12.89C20.2788 12.9317 20.2529 12.9683 20.2179 12.9944C20.1828 13.0205 20.1404 13.0347 20.0967 13.0351L18.1517 13.0561L19.7687 15.7931H20.8367H20.8377ZM21.4707 8.6361L21.6307 6.8331L20.7107 8.4311L21.4707 8.6361ZM10.6327 23.4201L10.4677 25.2781L11.4177 23.6301L10.6327 23.4201Z" fill="white"/>
</g>
<defs>
<clipPath id="clip0_0_1771">
<rect width="32" height="32" fill="white"/>
</clipPath>
</defs>
</svg>
