<svg width="32" height="32" viewBox="0 0 32 32" fill="none" xmlns="http://www.w3.org/2000/svg">
<g clip-path="url(#clip0_0_1763)">
<path d="M16 32C24.8366 32 32 24.8366 32 16C32 7.16344 24.8366 0 16 0C7.16344 0 0 7.16344 0 16C0 24.8366 7.16344 32 16 32Z" fill="#348F8D"/>
<path d="M23.812 7.04469C24.0509 7.29256 24.1844 7.62342 24.1844 7.96769C24.1844 8.31196 24.0509 8.64282 23.812 8.89069L20.6819 12.0997C20.5825 12.2013 20.4669 12.2858 20.34 12.3497C20.1102 12.4793 19.8439 12.5289 19.5829 12.4907C19.3219 12.4526 19.0809 12.3287 18.898 12.1387L15.78 8.94469L9.77495 15.1037L11.225 16.5867C11.433 16.8055 11.5485 17.0962 11.5472 17.3981C11.5459 17.7 11.4279 17.9897 11.218 18.2067C11.1155 18.3127 10.9928 18.3971 10.8572 18.4549C10.7216 18.5128 10.5758 18.543 10.4284 18.5436C10.281 18.5443 10.1349 18.5154 9.99884 18.4587C9.86274 18.4021 9.73936 18.3188 9.63595 18.2137L7.32995 15.8607C7.11831 15.6418 7 15.3492 7 15.0447C7 14.7402 7.11831 14.4476 7.32995 14.2287L7.34595 14.2137C7.35087 14.2089 7.35555 14.2039 7.35995 14.1987L14.984 6.37869H14.985L14.986 6.37769L15.011 6.35169C15.2012 6.15395 15.4561 6.03098 15.7293 6.00511C16.0025 5.97924 16.2759 6.05218 16.5 6.21069C16.572 6.25969 16.64 6.31469 16.7 6.37769L19.684 9.43069L22.011 7.04469C22.1279 6.92403 22.268 6.82809 22.4228 6.76258C22.5775 6.69707 22.7439 6.66331 22.912 6.66331C23.08 6.66331 23.2464 6.69707 23.4011 6.76258C23.5559 6.82809 23.696 6.92403 23.813 7.04469H23.812ZM25.67 16.1467C25.8823 16.3641 26.0013 16.656 26.0015 16.96C26.0017 17.264 25.8831 17.556 25.6709 17.7737L25.655 17.7887C25.6497 17.7934 25.6447 17.7984 25.6399 17.8037L17.986 25.6507C17.8696 25.7713 17.7283 25.8649 17.5719 25.9251C17.4156 25.9852 17.2479 26.0104 17.0808 25.9989C16.9136 25.9874 16.751 25.9394 16.6044 25.8583C16.4577 25.7773 16.3306 25.6651 16.232 25.5297L13.3149 22.5457L11.002 24.9237C10.68 25.2557 10.21 25.3867 9.76895 25.2657C9.32795 25.1447 8.98295 24.7927 8.86495 24.3407C8.74795 23.8897 8.87495 23.4077 9.19995 23.0787L12.329 19.8707C12.507 19.6847 12.736 19.5587 12.986 19.5087C13.39 19.4187 13.8119 19.5447 14.1049 19.8447L17.231 23.0427L23.225 16.8987L21.775 15.4157C21.5669 15.1969 21.4514 14.9062 21.4527 14.6043C21.454 14.3024 21.572 14.0126 21.7819 13.7957C21.8844 13.6897 22.0071 13.6053 22.1427 13.5474C22.2783 13.4896 22.4241 13.4594 22.5715 13.4588C22.7189 13.4581 22.865 13.487 23.0011 13.5436C23.1372 13.6003 23.2605 13.6836 23.364 13.7887L25.6369 16.1137L25.639 16.1157L25.642 16.1177L25.67 16.1467Z" fill="white"/>
</g>
<defs>
<clipPath id="clip0_0_1763">
<rect width="32" height="32" fill="white"/>
</clipPath>
</defs>
</svg>
