<svg width="32" height="32" viewBox="0 0 32 32" fill="none" xmlns="http://www.w3.org/2000/svg">
<g clip-path="url(#clip0_0_1759)">
<path d="M16 32C24.8366 32 32 24.8366 32 16C32 7.16344 24.8366 0 16 0C7.16344 0 0 7.16344 0 16C0 24.8366 7.16344 32 16 32Z" fill="#152743"/>
<path d="M16.513 8.276C15.197 8.276 14.13 7.543 14.13 6.638C14.13 5.733 15.197 5 16.513 5C17.829 5 18.895 5.733 18.895 6.638C18.895 7.543 17.829 8.276 16.513 8.276ZM15.28 26.56V9.064H20.592C20.789 9.064 20.928 9.211 20.928 9.408V19.116C20.928 19.312 20.788 19.48 20.592 19.48H17.664V26.56C17.664 26.757 17.514 26.936 17.317 26.936H15.649C15.5513 26.9322 15.4588 26.8913 15.3902 26.8216C15.3216 26.7519 15.2822 26.6587 15.28 26.561V26.56ZM14.384 19.479H12.374C12.2768 19.478 12.1837 19.4397 12.1141 19.3719C12.0445 19.3041 12.0036 19.2121 12 19.115V9.408C12 9.211 12.177 9.064 12.373 9.064H14.384V19.48V19.479Z" fill="white"/>
</g>
<defs>
<clipPath id="clip0_0_1759">
<rect width="32" height="32" fill="white"/>
</clipPath>
</defs>
</svg>
