<svg width="32" height="32" viewBox="0 0 32 32" fill="none" xmlns="http://www.w3.org/2000/svg">
<g clip-path="url(#clip0_0_1752)">
<path d="M16 32C24.8366 32 32 24.8366 32 16C32 7.16344 24.8366 0 16 0C7.16344 0 0 7.16344 0 16C0 24.8366 7.16344 32 16 32Z" fill="#3A8CBD"/>
<path d="M13.812 18.4311H15.49C15.9695 18.4326 16.4433 18.3274 16.877 18.1231C17.287 17.9201 17.653 17.6391 17.954 17.2951C18.253 16.9391 18.484 16.5321 18.638 16.0941C18.8039 15.6502 18.8879 15.1799 18.886 14.7061C18.8887 14.2437 18.7968 13.7856 18.616 13.3601C18.4426 12.9289 18.1978 12.53 17.892 12.1801C17.5838 11.8295 17.211 11.5416 16.794 11.3321C16.3663 11.111 15.8914 10.9971 15.41 11.0001H11V21.7031H13.816L13.812 18.4311V18.4311ZM13.812 13.5851H15.239C15.4373 13.5981 15.6229 13.6873 15.757 13.8341C15.923 13.9991 16.027 14.2901 16.027 14.7451C16.027 15.2001 15.924 15.4701 15.777 15.6171C15.654 15.7621 15.488 15.8651 15.302 15.8651H13.812V13.5861V13.5851Z" fill="white"/>
<path d="M7 8.031V23.919C7 24.489 7.461 24.949 8.03 24.949H23.918C24.487 24.949 24.948 24.489 24.948 23.919V8.031C24.9481 7.89565 24.9216 7.76161 24.8699 7.63653C24.8182 7.51145 24.7423 7.39778 24.6467 7.30203C24.551 7.20628 24.4374 7.13032 24.3124 7.0785C24.1874 7.02667 24.0533 7 23.918 7H8.03C7.89474 7 7.7608 7.02664 7.63584 7.0784C7.51087 7.13017 7.39732 7.20604 7.30168 7.30168C7.20604 7.39732 7.13017 7.51087 7.0784 7.63584C7.02664 7.7608 7 7.89474 7 8.03V8.031ZM21.803 22.835H10.123C9.98765 22.8351 9.85361 22.8086 9.72853 22.7569C9.60345 22.7052 9.48978 22.6293 9.39403 22.5337C9.29828 22.438 9.22232 22.3244 9.1705 22.1994C9.11867 22.0744 9.092 21.9403 9.092 21.805V10.125C9.09187 9.98957 9.11845 9.85544 9.17021 9.7303C9.22198 9.60515 9.29792 9.49144 9.39368 9.39568C9.48944 9.29992 9.60315 9.22398 9.7283 9.17221C9.85344 9.12045 9.98757 9.09387 10.123 9.094H21.803C22.373 9.094 22.833 9.555 22.833 10.124V21.804C22.833 22.374 22.373 22.835 21.803 22.835V22.835Z" fill="white"/>
<path d="M15 19H21.607V21.03H15V19Z" fill="white"/>
</g>
<defs>
<clipPath id="clip0_0_1752">
<rect width="32" height="32" fill="white"/>
</clipPath>
</defs>
</svg>
