<svg width="32" height="32" viewBox="0 0 32 32" fill="none" xmlns="http://www.w3.org/2000/svg">
<g clip-path="url(#clip0_0_1748)">
<path d="M16 32C24.8366 32 32 24.8366 32 16C32 7.16344 24.8366 0 16 0C7.16344 0 0 7.16344 0 16C0 24.8366 7.16344 32 16 32Z" fill="#1061E3"/>
<path fill-rule="evenodd" clip-rule="evenodd" d="M24.2812 21.3667C24.3652 22.2277 24.0962 23.0777 23.2632 23.6297C22.8642 23.8947 22.4192 23.9997 21.9412 23.9997C17.9812 23.9977 14.0212 23.9987 10.0612 23.9977C9.97451 23.9977 9.88781 23.9954 9.80122 23.9907C8.93322 23.9437 8.11322 23.3147 7.83322 22.4937C7.70922 22.1307 7.69022 21.7587 7.70522 21.3667H10.1152C10.3472 21.3657 10.5012 21.1967 10.4492 20.9857C10.422 20.9039 10.3741 20.8305 10.3102 20.7727C9.32723 19.7907 8.34122 18.8127 7.35622 17.8327L6.45422 16.9347C6.11522 16.5997 5.95222 16.1947 6.01222 15.7227C6.04222 15.4907 6.11722 15.2627 6.19222 15.0387C6.61316 13.7699 7.28174 12.5972 8.15922 11.5887C9.40218 10.1423 11.0234 9.07055 12.8412 8.49371C14.0246 8.10638 15.2702 7.94458 16.5132 8.01671C19.4492 8.19271 21.8942 9.38671 23.8322 11.5877C24.8237 12.7133 25.5453 14.0502 25.9422 15.4967C26.0922 16.0357 25.9502 16.5207 25.5512 16.9177C24.8012 17.6657 24.0452 18.4077 23.2922 19.1527C22.7392 19.6997 22.1872 20.2487 21.6352 20.7977C21.4532 20.9777 21.4712 21.2177 21.6792 21.3247C21.7392 21.3547 21.8142 21.3647 21.8822 21.3647C22.6422 21.3677 23.4032 21.3667 24.1642 21.3667H24.2812ZM8.44222 21.9067C8.45322 22.2287 8.53922 22.5147 8.72722 22.7647C9.03922 23.1807 9.46022 23.3767 9.98222 23.3757H22.0102C22.0572 23.3757 22.1042 23.3737 22.1502 23.3707C22.3717 23.3623 22.5883 23.3028 22.783 23.197C22.9778 23.0912 23.1456 22.9419 23.2732 22.7607C23.4592 22.5107 23.5462 22.2247 23.5512 21.9077L8.44222 21.9067ZM18.7102 14.1597C18.7392 14.1787 18.7602 14.1897 18.7772 14.2027C19.7652 14.9387 20.3912 15.9027 20.6292 17.1097C20.7592 17.7657 20.7412 18.4197 20.5872 19.0707C20.4469 19.6621 20.1921 20.2203 19.8372 20.7137C19.8038 20.7557 19.7803 20.8046 19.7686 20.8569C19.7568 20.9092 19.757 20.9635 19.7692 21.0157C19.8382 21.2877 20.1472 21.3757 20.3512 21.1767C20.6512 20.8857 20.9442 20.5887 21.2412 20.2947C22.4372 19.1047 23.6332 17.9157 24.8302 16.7277C25.0902 16.4697 25.2042 16.1617 25.1402 15.8017C25.1112 15.6457 25.0552 15.4937 25.0022 15.3437C24.6139 14.2167 24.0433 13.161 23.3132 12.2187C22.7547 11.4955 22.0906 10.8605 21.3432 10.3347C21.3051 10.3073 21.2787 10.2666 21.2692 10.2207C21.2583 10.1146 21.2226 10.0126 21.165 9.92284C21.1075 9.83306 21.0297 9.75802 20.9379 9.70376C20.8461 9.6495 20.7428 9.61752 20.6364 9.61039C20.53 9.60326 20.4234 9.62118 20.3252 9.66271C20.2845 9.67884 20.2392 9.6792 20.1982 9.66371C19.1441 9.16197 18.0035 8.8673 16.8382 8.79571C15.912 8.72611 14.9807 8.77856 14.0682 8.95171C13.3058 9.09697 12.5655 9.34103 11.8662 9.67771C11.8396 9.69288 11.8094 9.70085 11.7787 9.70085C11.748 9.70085 11.7179 9.69288 11.6912 9.67771C11.5912 9.62843 11.4803 9.60506 11.3689 9.60976C11.2574 9.61446 11.149 9.64707 11.0534 9.7046C10.9579 9.76214 10.8783 9.84275 10.822 9.93904C10.7657 10.0353 10.7345 10.1442 10.7312 10.2557C10.7312 10.3157 10.7092 10.3507 10.6632 10.3867C10.3572 10.6297 10.0392 10.8607 9.75322 11.1257C8.40922 12.3707 7.49522 13.8897 6.90822 15.6127C6.76022 16.0487 6.85822 16.4227 7.18322 16.7457L10.7432 20.2847C11.0412 20.5817 11.3382 20.8787 11.6392 21.1737C11.8122 21.3437 12.0732 21.3137 12.1862 21.1127C12.2632 20.9737 12.2442 20.8367 12.1532 20.7087C11.6747 20.0464 11.3807 19.2689 11.3012 18.4557C11.2315 17.7872 11.3101 17.1115 11.5312 16.4767C11.5812 16.3317 11.6432 16.1897 11.7022 16.0397L13.1142 16.8697C12.8211 17.5786 12.8001 18.3707 13.0552 19.0941C13.3102 19.8176 13.8234 20.4214 14.4962 20.7897C15.1315 21.1376 15.8678 21.2542 16.5794 21.1196C17.2911 20.985 17.9339 20.6076 18.3982 20.0517C18.8582 19.5047 19.1022 18.8697 19.1162 18.1547C19.1362 17.0887 18.6952 16.2387 17.8662 15.5767L18.7102 14.1597V14.1597ZM23.3752 17.1997C23.3492 17.0337 23.3252 16.8807 23.2992 16.7277C23.203 16.163 23.0377 15.6122 22.8072 15.0877C22.7822 15.0277 22.7762 14.9817 22.8062 14.9197C22.8457 14.8365 22.8674 14.746 22.87 14.654C22.8726 14.5619 22.856 14.4703 22.8213 14.385C22.7866 14.2997 22.7345 14.2226 22.6684 14.1585C22.6023 14.0944 22.5236 14.0447 22.4372 14.0127C22.3526 13.9807 22.2623 13.9661 22.1719 13.9696C22.0815 13.973 21.9926 13.9946 21.9107 14.033C21.8287 14.0715 21.7553 14.1259 21.6948 14.1932C21.6343 14.2605 21.5878 14.3392 21.5582 14.4247C21.5288 14.5102 21.5172 14.6009 21.5243 14.691C21.5314 14.7812 21.5569 14.869 21.5993 14.9488C21.6416 15.0287 21.7 15.0991 21.7707 15.1555C21.8414 15.2119 21.9229 15.2531 22.0102 15.2767C22.0576 15.2857 22.1017 15.3073 22.1379 15.3391C22.1741 15.3709 22.2012 15.4119 22.2162 15.4577C22.5202 16.2027 22.6892 16.9747 22.7132 17.7777C22.7152 17.8256 22.6995 17.8726 22.6692 17.9097C22.2122 18.3697 21.7512 18.8257 21.2922 19.2827C21.2762 19.2977 21.2572 19.3097 21.2502 19.3167C21.6882 17.1467 21.1552 15.2657 19.4122 13.8497C17.6012 12.3797 15.5832 12.2667 13.4642 13.2227L12.8172 12.1057C13.0482 12.0027 13.2702 11.8957 13.4972 11.8017C14.0819 11.5683 14.696 11.4168 15.3222 11.3517C15.4032 11.3427 15.4622 11.3557 15.5252 11.4197C15.5871 11.4835 15.6613 11.5341 15.7433 11.5686C15.8253 11.603 15.9134 11.6205 16.0023 11.62C16.0912 11.6196 16.1791 11.6011 16.2607 11.5659C16.3423 11.5306 16.416 11.4792 16.4772 11.4147C16.4983 11.3901 16.5254 11.3713 16.5559 11.36C16.5863 11.3488 16.6192 11.3456 16.6512 11.3507C18.1842 11.5167 19.5142 12.1187 20.6362 13.1717C20.7262 13.2567 20.8112 13.3457 20.8982 13.4337C21.0532 13.5897 21.2242 13.5937 21.3822 13.4417L22.4332 12.4247L22.5312 12.3317C22.6572 12.4917 22.7842 12.6457 22.9022 12.8057C23.5851 13.729 24.109 14.7598 24.4522 15.8557C24.4762 15.9202 24.4803 15.9903 24.4641 16.0571C24.4478 16.1239 24.412 16.1844 24.3612 16.2307L23.4372 17.1497C23.4212 17.1647 23.4022 17.1767 23.3752 17.1997V17.1997ZM22.1092 11.8897L21.2112 12.7587C21.1842 12.7357 21.1592 12.7147 21.1362 12.6927C20.2013 11.7931 19.0442 11.1581 17.7832 10.8527C17.4302 10.7667 17.0652 10.7267 16.7062 10.6687C16.6432 10.6587 16.6002 10.6457 16.5612 10.5857C16.4994 10.4917 16.4151 10.4146 16.316 10.3613C16.217 10.3081 16.1062 10.2803 15.9937 10.2805C15.8812 10.2807 15.7705 10.3088 15.6716 10.3625C15.5727 10.4161 15.4887 10.4935 15.4272 10.5877C15.3972 10.6281 15.3528 10.6553 15.3032 10.6637C12.9892 10.9177 11.1732 12.0017 9.84323 13.8957C9.82833 13.919 9.80835 13.9385 9.78479 13.9529C9.76123 13.9673 9.7347 13.9761 9.70722 13.9787C9.24122 14.0547 9.00422 14.5087 9.19722 14.9387C9.21238 14.9773 9.21238 15.0201 9.19722 15.0587C8.9174 15.6964 8.7305 16.3709 8.64222 17.0617C8.63622 17.1047 8.62722 17.1467 8.61722 17.2057L8.53122 17.1257C8.24522 16.8407 7.96122 16.5527 7.67122 16.2717C7.53722 16.1417 7.49322 16.0037 7.55622 15.8217C8.22922 13.8917 9.29922 12.2397 10.9662 11.0067C10.9852 10.9927 11.0052 10.9807 11.0232 10.9657C11.0832 10.9127 11.1382 10.8977 11.2272 10.9217C11.3169 10.9467 11.4107 10.9528 11.5028 10.9395C11.595 10.9263 11.6833 10.8939 11.7622 10.8446C11.8412 10.7953 11.909 10.7301 11.9613 10.6532C12.0136 10.5762 12.0494 10.4892 12.0662 10.3977C12.0713 10.3781 12.0801 10.3597 12.0923 10.3436C12.1045 10.3275 12.1198 10.3139 12.1372 10.3037C12.5691 10.0907 13.0197 9.91799 13.4832 9.78771C14.5782 9.47671 15.6962 9.39571 16.8262 9.47671C17.8671 9.54275 18.8863 9.80325 19.8312 10.2447C19.8912 10.2727 19.9212 10.3047 19.9312 10.3747C19.9457 10.4759 19.9831 10.5723 20.0406 10.6568C20.0981 10.7413 20.1741 10.8115 20.2629 10.862C20.3517 10.9126 20.4508 10.9422 20.5528 10.9486C20.6548 10.9549 20.7569 10.9379 20.8512 10.8987C20.8832 10.8867 20.9342 10.8857 20.9592 10.9027C21.3682 11.1847 21.7442 11.5047 22.0912 11.8577C22.0982 11.8647 22.1012 11.8747 22.1092 11.8897V11.8897ZM18.4452 18.0697C18.4522 19.4007 17.3552 20.4977 16.0092 20.5057C15.3621 20.5076 14.7406 20.2533 14.2804 19.7983C13.8202 19.3434 13.5588 18.7248 13.5532 18.0777C13.5472 16.7447 14.6422 15.6507 15.9912 15.6437C16.6382 15.64 17.2601 15.8934 17.7203 16.3481C18.1805 16.8029 18.4413 17.4218 18.4452 18.0687V18.0697ZM10.7472 19.3337L10.1152 18.6987C9.85522 18.4387 9.59322 18.1827 9.33522 17.9207C9.30169 17.8866 9.28178 17.8415 9.27922 17.7937C9.30312 16.9667 9.48223 16.1516 9.80722 15.3907C9.81554 15.366 9.83048 15.3441 9.85041 15.3274C9.87034 15.3106 9.89449 15.2997 9.92022 15.2957C10.3692 15.1907 10.5782 14.7987 10.4192 14.3707C10.4092 14.3407 10.4092 14.2957 10.4242 14.2707C10.9156 13.5438 11.5465 12.9218 12.2802 12.4407C12.2832 12.4387 12.2862 12.4387 12.3002 12.4347L12.5652 12.8867L13.1212 13.8467C13.2332 14.0427 13.3792 14.0857 13.5722 13.9687C14.0767 13.6628 14.6357 13.4577 15.2182 13.3647C16.2198 13.1953 17.2493 13.3542 18.1532 13.8177C18.1622 13.8227 18.1692 13.8297 18.1872 13.8437L17.3482 15.2507C15.7632 14.6557 14.4532 15.0107 13.3952 16.3277L11.9882 15.5007C12.1142 15.3317 12.2342 15.1687 12.3572 15.0087C12.4072 14.9427 12.4652 14.8827 12.5212 14.8207C12.6072 14.7247 12.6072 14.6707 12.5192 14.5807C12.4418 14.5021 12.3638 14.4241 12.2852 14.3467C12.1792 14.2427 12.1272 14.2427 12.0272 14.3507C11.6006 14.8074 11.258 15.3358 11.0152 15.9117C10.6711 16.7185 10.5343 17.5985 10.6172 18.4717C10.6432 18.7517 10.7002 19.0287 10.7472 19.3337V19.3337ZM15.9952 11.3237C15.896 11.3217 15.8014 11.2813 15.7313 11.211C15.6612 11.1407 15.621 11.046 15.6192 10.9467C15.6225 10.8475 15.6638 10.7534 15.7345 10.6838C15.8053 10.6142 15.9 10.5745 15.9992 10.5727C16.0985 10.575 16.193 10.6157 16.2629 10.6862C16.3328 10.7566 16.3727 10.8515 16.3742 10.9507C16.3721 11.0501 16.3314 11.1448 16.2606 11.2146C16.1899 11.2845 16.0946 11.324 15.9952 11.3247V11.3237ZM11.3952 9.90971C11.4446 9.90838 11.4938 9.91689 11.5399 9.93472C11.586 9.95256 11.6281 9.97937 11.6637 10.0136C11.6993 10.0479 11.7278 10.0888 11.7475 10.1342C11.7671 10.1795 11.7776 10.2283 11.7782 10.2777C11.7782 10.378 11.7384 10.4741 11.6675 10.545C11.5966 10.6159 11.5005 10.6557 11.4002 10.6557C11.3 10.6557 11.2038 10.6159 11.1329 10.545C11.062 10.4741 11.0222 10.378 11.0222 10.2777C11.0233 10.1796 11.0631 10.0858 11.1329 10.0169C11.2028 9.94797 11.2971 9.90944 11.3952 9.90971V9.90971ZM22.1962 15.0097C22.1009 15.0057 22.0108 14.9653 21.9444 14.8968C21.8781 14.8283 21.8406 14.7369 21.8397 14.6415C21.8388 14.5462 21.8746 14.4541 21.9396 14.3843C22.0047 14.3146 22.094 14.2725 22.1892 14.2667C22.238 14.2663 22.2864 14.2754 22.3317 14.2937C22.3769 14.3119 22.4181 14.3389 22.4529 14.373C22.4878 14.4072 22.5155 14.4479 22.5346 14.4928C22.5537 14.5377 22.5638 14.5859 22.5642 14.6347C22.5647 14.6835 22.5555 14.7319 22.5373 14.7771C22.519 14.8224 22.4921 14.8636 22.4579 14.8984C22.4237 14.9333 22.383 14.961 22.3381 14.9801C22.2932 14.9992 22.245 15.0093 22.1962 15.0097V15.0097ZM20.5932 9.90971C20.8062 9.90971 20.9682 10.0697 20.9672 10.2817C20.967 10.3796 20.928 10.4734 20.8589 10.5427C20.7898 10.612 20.6961 10.6512 20.5982 10.6517C20.5489 10.6525 20.5 10.6436 20.4542 10.6254C20.4084 10.6072 20.3666 10.5801 20.3313 10.5457C20.296 10.5113 20.2678 10.4703 20.2484 10.425C20.229 10.3797 20.2187 10.331 20.2182 10.2817C20.2175 10.2324 20.2268 10.1834 20.2454 10.1377C20.2641 10.092 20.2917 10.0505 20.3267 10.0157C20.3617 9.98094 20.4033 9.95353 20.4491 9.93514C20.4949 9.91676 20.5439 9.90777 20.5932 9.90871V9.90971ZM10.1752 14.6377C10.1755 14.687 10.1659 14.7358 10.1471 14.7813C10.1282 14.8268 10.1005 14.8681 10.0655 14.9028C10.0304 14.9374 9.98884 14.9647 9.94313 14.9831C9.89741 15.0015 9.84848 15.0105 9.79922 15.0097C9.74988 15.0104 9.70091 15.0011 9.65522 14.9825C9.60953 14.9639 9.56805 14.9363 9.53325 14.9013C9.49845 14.8663 9.47104 14.8247 9.45266 14.7789C9.43427 14.7331 9.42528 14.684 9.42622 14.6347C9.42675 14.5368 9.46611 14.443 9.53565 14.374C9.6052 14.305 9.69927 14.2664 9.79722 14.2667C9.84653 14.2658 9.89553 14.2747 9.94135 14.2929C9.98717 14.3111 10.0289 14.3383 10.0641 14.3729C10.0993 14.4074 10.1272 14.4486 10.1463 14.4941C10.1654 14.5396 10.1752 14.5884 10.1752 14.6377Z" fill="white"/>
</g>
<defs>
<clipPath id="clip0_0_1748">
<rect width="32" height="32" fill="white"/>
</clipPath>
</defs>
</svg>
