<svg width="32" height="32" viewBox="0 0 32 32" fill="none" xmlns="http://www.w3.org/2000/svg">
<g clip-path="url(#clip0_0_1744)">
<path d="M16 32C24.8366 32 32 24.8366 32 16C32 7.16344 24.8366 0 16 0C7.16344 0 0 7.16344 0 16C0 24.8366 7.16344 32 16 32Z" fill="#22B573"/>
<path d="M15.22 26.8025C16.097 26.8525 17.138 26.8005 17.886 26.6675C19.509 26.3875 21.174 25.6625 22.54 24.6405C23.153 24.1795 24.204 23.1285 24.66 22.5205C25.688 21.1485 26.365 19.6135 26.715 17.8505C26.844 17.1835 26.861 14.8835 26.745 14.2005C26.102 10.5855 23.895 7.64254 20.66 6.08954C20.5747 6.04874 20.489 6.00873 20.403 5.96954L20.823 7.46154C21.063 8.29054 21.553 10.0365 21.921 11.3325C22.896 14.7605 22.885 14.7025 22.92 15.5725C22.937 16.0275 22.926 16.5355 22.885 16.8455C22.47 19.9575 20 22.4215 16.875 22.8425C16.239 22.9295 15.165 22.8895 14.564 22.7605C14.342 22.7075 14.149 22.6785 14.131 22.6905C14.114 22.7135 15.077 26.1885 15.229 26.6555C15.261 26.7515 15.272 26.7895 15.219 26.8025H15.22ZM11.64 25.9295C11.6331 25.9245 11.6264 25.9192 11.62 25.9135C11.585 25.8735 11.317 25.0205 11.03 24.0105C10.745 23.0005 10.213 21.1305 9.857 19.8645C9.495 18.5975 9.167 17.3595 9.121 17.1195C9.028 16.5945 9.016 15.3675 9.104 14.8425C9.21397 14.1962 9.4104 13.5675 9.688 12.9735C10.663 10.9295 12.38 9.58054 14.645 9.08454C15.258 8.95054 16.677 8.95054 17.296 9.08454C17.547 9.14354 17.776 9.16654 17.799 9.13754C17.822 9.11354 17.582 8.18554 17.267 7.07554C17.0722 6.41022 16.8882 5.7418 16.715 5.07054C16.5017 5.06791 16.2883 5.06691 16.075 5.06754C14.774 5.06154 14.441 5.09654 13.436 5.32954C11.264 5.83754 9.162 7.13454 7.708 8.84554C5.296 11.6835 4.485 15.5555 5.559 19.0755C5.95 20.3725 6.435 21.3245 7.247 22.4275C8.3832 23.9558 9.89699 25.1625 11.64 25.9295V25.9295ZM14.213 27.8345C13.898 27.7885 13.594 27.7355 13.542 27.7125C13.3567 27.6576 13.1696 27.609 12.981 27.5665C11.124 27.1165 9.151 26.0135 7.673 24.5995C6.546 23.5195 5.419 21.8845 4.946 20.6525C4.882 20.4945 4.806 20.3075 4.776 20.2435C4.619 19.9105 4.339 18.9355 4.181 18.1475C4.011 17.3245 4 17.1775 4 15.9805C4 15.2455 4.03 14.5445 4.064 14.3455C4.105 14.1535 4.181 13.7265 4.245 13.4055C4.304 13.0785 4.391 12.7515 4.432 12.6755C4.45944 12.6325 4.47939 12.5852 4.491 12.5355C4.461 12.5355 4.73 11.6655 4.777 11.6015C4.8 11.5715 4.87 11.4145 4.928 11.2515C5.028 10.9765 5.355 10.3115 5.478 10.1115C5.512 10.0655 5.664 9.80854 5.822 9.54554C5.985 9.27754 6.143 9.02554 6.172 8.99154C6.207 8.95054 6.4 8.70554 6.599 8.44854C8.339 6.23454 10.984 4.63454 13.769 4.11554C14.593 3.95754 17.401 3.96354 18.236 4.12154C19.574 4.37154 20.999 4.92654 22.207 5.66254C22.791 6.02454 22.832 6.04854 23.492 6.57354C24.052 7.01754 24.981 7.95154 25.384 8.47754C25.542 8.68754 25.74 8.93854 25.822 9.03754C25.904 9.14354 25.974 9.24254 25.974 9.26554C25.974 9.29554 26.038 9.39454 26.114 9.49354C26.19 9.59354 26.371 9.91354 26.523 10.1995C26.669 10.4915 26.815 10.7545 26.838 10.7835C26.861 10.8185 26.972 11.0585 27.078 11.3265C27.866 13.3185 28.14 15.2165 27.924 17.2665C27.836 18.1465 27.439 19.7065 27.136 20.3725C27.077 20.5125 27.025 20.6405 27.025 20.6585C27.025 20.7105 26.523 21.7155 26.371 21.9665C25.139 24.0105 23.393 25.6565 21.419 26.6375C21.08 26.8075 20.759 26.9645 20.701 26.9945C20.309 27.1985 19.019 27.5895 18.061 27.7885C17.466 27.9105 14.972 27.9405 14.213 27.8345V27.8345ZM16.835 19.4845C18.102 19.1635 19.2 18.0835 19.515 16.8515C19.632 16.3895 19.638 15.4965 19.521 15.0465C19.036 13.1315 17.045 11.9105 15.171 12.3835C14.4 12.5765 13.991 12.8035 13.448 13.3475C12.672 14.1245 12.35 14.8945 12.356 15.9805C12.362 17.6335 13.436 19.0295 15.048 19.4605C15.533 19.5905 16.374 19.6005 16.835 19.4845V19.4845Z" fill="#FEFFFF"/>
</g>
<defs>
<clipPath id="clip0_0_1744">
<rect width="32" height="32" fill="white"/>
</clipPath>
</defs>
</svg>
