<svg width="32" height="32" viewBox="0 0 32 32" fill="none" xmlns="http://www.w3.org/2000/svg">
<g clip-path="url(#clip0_0_1728)">
<path d="M16 32C24.8366 32 32 24.8366 32 16C32 7.16344 24.8366 0 16 0C7.16344 0 0 7.16344 0 16C0 24.8366 7.16344 32 16 32Z" fill="#610089"/>
<path fill-rule="evenodd" clip-rule="evenodd" d="M16.49 5.003C21.62 5.279 25.772 8.839 26.791 13.871C26.925 14.535 26.961 15.222 26.998 15.901C27.031 16.501 26.64 16.906 26.099 16.905C25.569 16.905 25.222 16.521 25.209 15.925C25.112 11.538 22.149 7.92 17.871 7.005C17.231 6.869 16.563 6.867 15.909 6.793C15.411 6.737 15.081 6.354 15.095 5.868C15.109 5.387 15.469 5.029 15.971 5.004C16.144 4.996 16.317 5.003 16.49 5.003V5.003ZM15.532 27C10.609 26.852 6.18099 23.12 5.24699 18.288C5.10499 17.548 5.05099 16.789 5.00199 16.036C4.97199 15.576 5.26499 15.246 5.69199 15.136C6.04599 15.044 6.45799 15.195 6.63799 15.532C6.72799 15.703 6.77099 15.919 6.77499 16.116C6.84799 20.32 9.69099 23.938 13.771 24.944C14.507 25.126 15.283 25.155 16.043 25.236C16.477 25.281 16.825 25.576 16.883 25.999C16.938 26.399 16.686 26.846 16.303 26.941C16.056 27.002 15.789 26.983 15.532 27V27ZM15.984 11.997C18.161 11.99 19.989 13.775 20.004 15.922C20.009 16.662 19.331 17.128 18.704 16.809C18.364 16.637 18.218 16.349 18.204 15.966C18.1935 15.4477 18.0005 14.9497 17.659 14.5598C17.3175 14.1698 16.8494 13.9128 16.337 13.834C15.185 13.638 14.065 14.42 13.841 15.577C13.612 16.759 14.352 17.91 15.504 18.159C15.662 18.193 15.824 18.212 15.984 18.221C16.52 18.249 16.896 18.618 16.892 19.121C16.888 19.631 16.485 20.009 15.939 20.014C14.223 20.029 12.605 18.777 12.137 17.073C11.438 14.528 13.35 12.005 15.984 11.997V11.997ZM23.539 15.754C23.519 15.924 23.526 16.137 23.464 16.327C23.334 16.731 22.904 16.965 22.484 16.897C22.047 16.825 21.736 16.467 21.731 15.977C21.724 15.231 21.603 14.507 21.297 13.83C20.284 11.595 18.551 10.396 16.093 10.28C15.492 10.25 15.093 9.898 15.097 9.36C15.102 8.822 15.504 8.471 16.114 8.473C19.784 8.48 22.991 11.32 23.456 14.977C23.488 15.224 23.509 15.471 23.539 15.754V15.754ZM8.47799 16.215C8.42699 15.808 8.53099 15.407 8.99599 15.193C9.60799 14.91 10.249 15.348 10.261 16.067C10.273 16.756 10.391 17.419 10.639 18.061C11.0425 19.1231 11.7535 20.0407 12.6812 20.6966C13.6089 21.3525 14.7111 21.7168 15.847 21.743C16.623 21.763 17.074 22.325 16.827 22.963C16.689 23.323 16.385 23.532 15.969 23.528C13.767 23.508 11.91 22.683 10.425 21.066C9.2018 19.7437 8.50866 18.0171 8.47799 16.216V16.215ZM20.012 19.035C19.975 19.482 19.822 19.765 19.486 19.922C19.152 20.078 18.813 20.054 18.546 19.807C18.0622 19.3585 17.5949 18.8925 17.145 18.41C16.835 18.078 16.865 17.555 17.169 17.228C17.479 16.895 18.033 16.826 18.372 17.137C18.874 17.595 19.349 18.085 19.812 18.584C19.934 18.716 19.968 18.929 20.012 19.034V19.035Z" fill="white"/>
</g>
<defs>
<clipPath id="clip0_0_1728">
<rect width="32" height="32" fill="white"/>
</clipPath>
</defs>
</svg>
