<svg width="32" height="32" viewBox="0 0 32 32" fill="none" xmlns="http://www.w3.org/2000/svg">
<g clip-path="url(#clip0_0_1724)">
<path d="M16 32C24.8366 32 32 24.8366 32 16C32 7.16344 24.8366 0 16 0C7.16344 0 0 7.16344 0 16C0 24.8366 7.16344 32 16 32Z" fill="#252525"/>
<path d="M25.628 21.709C25.7281 21.7111 25.8233 21.7526 25.893 21.8245C25.9626 21.8964 26.0011 21.9929 26 22.093V24H19.721L19.697 22.34C19.6974 22.2859 19.7094 22.2325 19.7324 22.1834C19.7553 22.1344 19.7886 22.0909 19.83 22.056C19.8548 22.0241 19.883 21.9949 19.914 21.969C22.681 20.039 23.744 16.364 22.456 13.185C21.167 10.006 17.884 8.207 14.609 8.885C11.335 9.562 8.978 12.529 8.977 15.975C8.975 18.33 10.097 20.535 11.978 21.87C12.019 21.8929 12.0523 21.9274 12.074 21.969C12.1423 22.0009 12.2001 22.0516 12.2407 22.1152C12.2813 22.1788 12.3029 22.2526 12.303 22.328L12.279 23.988H6V22.08C6 21.868 6.167 21.696 6.372 21.696C6.577 21.696 6.744 21.868 6.744 22.08V23.232H11.546L11.558 22.514H11.546C8.785 20.512 7.6 16.896 8.616 13.576C9.635 10.256 12.62 8 15.995 8C19.37 8 22.355 10.256 23.372 13.576C24.389 16.896 23.204 20.512 20.442 22.514L20.455 23.244H25.257V22.093C25.2559 21.9929 25.2944 21.8964 25.364 21.8245C25.4337 21.7526 25.5289 21.7111 25.629 21.709H25.628ZM20.67 16.533C21.498 17.586 21.75 18.527 21.39 19.146C21.114 19.629 20.526 19.889 19.673 19.889C19.1374 19.8759 18.6054 19.797 18.089 19.654C17.621 21.289 16.864 22.342 16 22.342C15.136 22.342 14.38 21.289 13.923 19.654C13.4066 19.797 12.8746 19.8759 12.339 19.889C11.486 19.889 10.898 19.629 10.622 19.146C10.178 18.378 10.682 17.177 11.834 15.951C11.6598 15.7701 11.4956 15.5798 11.342 15.381C10.514 14.328 10.262 13.399 10.622 12.755C10.898 12.272 11.486 12.012 12.339 12.012C12.8747 12.0254 13.4067 12.1046 13.923 12.248C14.391 10.613 15.148 9.56 16.012 9.56C16.876 9.56 17.632 10.613 18.089 12.26C18.6054 12.117 19.1374 12.0381 19.673 12.025C20.526 12.025 21.114 12.285 21.39 12.768C21.75 13.412 21.498 14.341 20.67 15.394C20.5163 15.5927 20.3521 15.7829 20.178 15.964C20.352 16.144 20.516 16.334 20.67 16.533V16.533ZM19.685 12.483C19.1868 12.4987 18.6918 12.5691 18.209 12.693C18.338 13.281 18.429 13.877 18.485 14.477C18.959 14.827 19.412 15.208 19.842 15.617C20.01 15.443 20.166 15.257 20.31 15.084C20.994 14.204 21.246 13.449 20.994 12.991C20.766 12.57 20.154 12.483 19.685 12.483V12.483ZM17.045 17.821C17.393 17.611 17.729 17.388 18.041 17.165C18.077 16.768 18.089 16.372 18.089 15.951C18.089 15.53 18.065 15.121 18.041 14.737C17.7169 14.5098 17.3843 14.295 17.044 14.093C16.7012 13.8977 16.3531 13.712 16 13.536C15.642 13.702 15.294 13.888 14.956 14.093C14.596 14.303 14.271 14.514 13.959 14.737C13.923 15.121 13.911 15.53 13.911 15.951C13.911 16.371 13.935 16.781 13.959 17.165C14.6077 17.6204 15.29 18.0259 16 18.378C16.358 18.212 16.706 18.026 17.044 17.821H17.045ZM17.993 17.784C17.753 17.932 17.525 18.081 17.285 18.23C17.045 18.378 16.805 18.515 16.565 18.638C16.959 18.816 17.364 18.969 17.777 19.097C17.861 18.688 17.933 18.254 17.993 17.784V17.784ZM15.46 18.638L14.74 18.23C14.5 18.081 14.26 17.932 14.031 17.784C14.074 18.226 14.146 18.664 14.247 19.097C14.659 18.967 15.064 18.814 15.46 18.638V18.638ZM13.491 16.805C13.4767 16.5205 13.4687 16.2358 13.467 15.951C13.467 15.654 13.479 15.381 13.491 15.096C13.142 15.36 12.809 15.645 12.495 15.951C12.811 16.254 13.144 16.54 13.491 16.805ZM14.031 14.143C14.2566 13.9846 14.4888 13.8358 14.727 13.697C14.98 13.548 15.22 13.412 15.46 13.288C15.065 13.11 14.66 12.958 14.247 12.83C14.163 13.238 14.091 13.672 14.031 14.143V14.143ZM16.552 13.288C16.792 13.412 17.032 13.548 17.272 13.697C17.512 13.845 17.752 13.994 17.981 14.143C17.9385 13.701 17.8663 13.2623 17.765 12.83C17.353 12.96 16.948 13.112 16.552 13.288V13.288ZM18.533 15.108C18.545 15.394 18.557 15.666 18.557 15.963C18.557 16.26 18.545 16.545 18.533 16.818C18.881 16.533 19.217 16.248 19.517 15.963C19.2084 15.6567 18.8796 15.3714 18.533 15.109V15.108ZM16.012 10.031C15.4 10.031 14.776 10.898 14.367 12.371C14.929 12.548 15.478 12.763 16.012 13.014C16.5453 12.7634 17.0949 12.5489 17.657 12.372C17.248 10.898 16.612 10.031 16.012 10.031V10.031ZM11.03 12.991C10.766 13.449 11.018 14.217 11.714 15.071C11.858 15.256 12.014 15.429 12.182 15.615C12.61 15.205 13.062 14.825 13.539 14.477C13.594 13.877 13.686 13.281 13.815 12.694C13.333 12.564 12.837 12.494 12.339 12.483C11.87 12.483 11.27 12.57 11.03 12.991V12.991ZM12.339 19.431C12.838 19.421 13.334 19.346 13.815 19.207C13.6863 18.6193 13.5941 18.0241 13.539 17.425C13.056 17.081 12.599 16.7 12.17 16.285C11.138 17.388 10.73 18.378 11.03 18.923C11.258 19.344 11.87 19.431 12.339 19.431V19.431ZM16.012 21.883C16.612 21.883 17.248 21.016 17.657 19.543C17.0948 19.3655 16.5453 19.1503 16.012 18.899C15.4785 19.1498 14.929 19.365 14.367 19.543C14.776 21.016 15.412 21.883 16.012 21.883ZM20.994 18.923C21.246 18.477 20.994 17.71 20.31 16.83C20.1608 16.6468 20.0047 16.4693 19.842 16.298C19.414 16.708 18.962 17.088 18.485 17.438C18.4301 18.0375 18.3379 18.633 18.209 19.221C18.691 19.35 19.187 19.421 19.685 19.431C20.154 19.431 20.754 19.344 20.994 18.923V18.923ZM16.012 14.143C16.982 14.143 17.77 14.95 17.777 15.951C17.777 16.948 16.994 17.757 16.028 17.759C15.062 17.761 14.276 16.956 14.271 15.959C14.267 14.962 15.046 14.149 16.012 14.143V14.143ZM16.012 17.301C16.726 17.295 17.303 16.7 17.309 15.963C17.309 15.224 16.729 14.626 16.012 14.626C15.295 14.626 14.715 15.224 14.715 15.963C14.715 16.702 15.296 17.301 16.012 17.301Z" fill="white"/>
</g>
<defs>
<clipPath id="clip0_0_1724">
<rect width="32" height="32" fill="white"/>
</clipPath>
</defs>
</svg>
