<svg width="32" height="32" viewBox="0 0 32 32" fill="none" xmlns="http://www.w3.org/2000/svg">
<g clip-path="url(#clip0_0_1716)">
<path d="M16 32C24.8366 32 32 24.8366 32 16C32 7.16344 24.8366 0 16 0C7.16344 0 0 7.16344 0 16C0 24.8366 7.16344 32 16 32Z" fill="#2E9AD0"/>
<path d="M24.813 23.636L22.84 21.88L18.848 24.875C18.8956 24.9795 18.9202 25.0931 18.92 25.208C18.9216 25.4161 18.8406 25.6164 18.6948 25.7648C18.5489 25.9133 18.3501 25.9979 18.142 26C17.9592 25.9989 17.7826 25.934 17.6427 25.8163C17.5028 25.6987 17.4085 25.5359 17.376 25.356H13.066C13.0336 25.5357 12.9394 25.6984 12.7997 25.816C12.66 25.9336 12.4836 25.9987 12.301 26C12.0927 25.9982 11.8937 25.9137 11.7476 25.7652C11.6016 25.6167 11.5204 25.4163 11.522 25.208C11.5218 25.0939 11.546 24.981 11.593 24.877L8.04702 22.237C7.9057 22.3651 7.72176 22.436 7.53102 22.436C7.32273 22.4342 7.12369 22.3497 6.97763 22.2012C6.83156 22.0527 6.75042 21.8523 6.75202 21.644C6.75202 21.344 6.91602 21.083 7.15802 20.948L5.85502 16.788C5.74598 16.7976 5.63613 16.7843 5.53252 16.749C5.42891 16.7137 5.33381 16.6572 5.25332 16.583C5.17283 16.5088 5.10872 16.4186 5.0651 16.3183C5.02148 16.2179 4.99931 16.1095 5.00002 16C4.99936 15.8885 5.02245 15.778 5.06775 15.6761C5.11306 15.5742 5.17954 15.4831 5.26278 15.4088C5.34602 15.3346 5.44411 15.2789 5.55053 15.2455C5.65695 15.212 5.76927 15.2017 5.88002 15.215L7.16102 11.054C7.03654 10.985 6.93291 10.8838 6.86095 10.761C6.789 10.6382 6.75137 10.4983 6.75202 10.356C6.75202 9.919 7.10102 9.564 7.53102 9.564C7.73302 9.564 7.91702 9.642 8.05502 9.77L11.628 7.19C11.5585 7.06888 11.522 6.93165 11.522 6.792C11.522 6.355 11.871 6 12.301 6C12.681 6 12.998 6.277 13.066 6.644H17.376C17.4085 6.46413 17.5028 6.30127 17.6427 6.18366C17.7826 6.06604 17.9592 6.00107 18.142 6C18.572 6 18.92 6.355 18.92 6.792C18.9203 6.92458 18.8877 7.05516 18.825 7.172L22.375 9.782C22.5188 9.64217 22.7115 9.56396 22.912 9.564C23.342 9.564 23.69 9.919 23.69 10.356C23.6906 10.4875 23.6586 10.617 23.5968 10.7331C23.535 10.8491 23.4454 10.9481 23.336 11.021L24.612 15.21C24.7195 15.2026 24.8274 15.2177 24.9288 15.2543C25.0301 15.2908 25.1228 15.3481 25.2008 15.4224C25.2789 15.4967 25.3407 15.5864 25.3822 15.6858C25.4237 15.7853 25.4441 15.8923 25.442 16C25.4428 16.1053 25.4225 16.2096 25.3823 16.3069C25.342 16.4041 25.2826 16.4923 25.2076 16.5662C25.1326 16.64 25.0436 16.6981 24.9457 16.7369C24.8479 16.7757 24.7432 16.7944 24.638 16.792L23.141 21.622L25.058 23.328C25.27 23.1358 25.5459 23.0296 25.832 23.03C26.477 23.03 27 23.562 27 24.218C27 24.874 26.477 25.406 25.832 25.406C25.6773 25.4047 25.5244 25.3729 25.382 25.3125C25.2395 25.2521 25.1104 25.1642 25.002 25.0539C24.8935 24.9436 24.8078 24.813 24.7498 24.6696C24.6919 24.5261 24.6627 24.3727 24.664 24.218C24.664 24.006 24.718 23.808 24.814 23.636H24.813ZM18.208 24.419L19.695 21.07C19.5729 20.9691 19.4837 20.834 19.439 20.682L15.989 21.184C15.9645 21.3307 15.8994 21.4675 15.801 21.579L17.848 24.474C17.9618 24.427 18.0853 24.4081 18.208 24.419V24.419ZM18.601 24.569L22.47 21.666L20.802 20.94C20.716 21.0539 20.6001 21.1418 20.4672 21.1938C20.3343 21.2459 20.1895 21.2601 20.049 21.235L18.576 24.551C18.5845 24.5565 18.5928 24.5622 18.601 24.568V24.569ZM17.536 24.71L15.476 21.798C15.311 21.8563 15.131 21.8563 14.966 21.798L12.906 24.71C12.9657 24.7845 13.0114 24.8692 13.041 24.96H17.401C17.4306 24.8692 17.4764 24.7845 17.536 24.71V24.71ZM24.264 16.68C24.1478 16.6087 24.0518 16.5087 23.9855 16.3896C23.9191 16.2705 23.8845 16.1363 23.885 16C23.885 15.72 24.027 15.475 24.242 15.334L23.036 11.374L22.766 15.248C23.076 15.352 23.301 15.649 23.301 16C23.3018 16.1645 23.2512 16.3251 23.1564 16.4596C23.0616 16.594 22.9272 16.6955 22.772 16.75L23.038 20.636L24.264 16.68ZM22.01 15.403L20.426 12.298C20.297 12.3407 20.1589 12.3483 20.026 12.32L18.634 15.387C18.7238 15.4619 18.7959 15.5557 18.8454 15.6616C18.8948 15.7676 18.9203 15.8831 18.92 16C18.9202 16.1188 18.8938 16.2362 18.8428 16.3434C18.7918 16.4507 18.7173 16.5452 18.625 16.62L20.06 19.674C20.1631 19.657 20.2686 19.661 20.37 19.686L21.989 16.576C21.9112 16.5016 21.8493 16.4122 21.807 16.3132C21.7647 16.2142 21.7429 16.1077 21.743 16C21.743 15.762 21.847 15.548 22.01 15.403ZM22.384 16.78C22.3659 16.7767 22.3479 16.7727 22.33 16.768L20.713 19.872C20.8079 19.9606 20.8796 20.0711 20.9219 20.1938C20.9643 20.3165 20.976 20.4477 20.956 20.576L22.696 21.334L22.384 16.78V16.78ZM22.378 15.222L22.664 11.108C22.5134 11.0562 22.3822 10.9595 22.288 10.831L20.95 11.39C20.9735 11.513 20.968 11.6398 20.9342 11.7604C20.9004 11.881 20.839 11.9921 20.755 12.085L22.359 15.225C22.3653 15.2239 22.3717 15.2229 22.378 15.222V15.222ZM18.27 16.782C18.1584 16.8007 18.044 16.7945 17.935 16.764L15.812 20.534C15.8755 20.609 15.9247 20.6951 15.957 20.788L19.425 20.284C19.465 20.103 19.565 19.944 19.703 19.834L18.27 16.78V16.782ZM18.28 15.221L19.677 12.144C19.5351 12.0193 19.4422 11.848 19.415 11.661L15.94 11.156C15.9018 11.2493 15.8461 11.3345 15.776 11.407L17.915 15.242C18.0335 15.2055 18.1591 15.1983 18.281 15.221H18.28ZM17.598 16.567C17.5233 16.4927 17.464 16.4044 17.4237 16.3071C17.3833 16.2097 17.3627 16.1054 17.363 16C17.363 15.786 17.447 15.591 17.583 15.449L15.443 11.611C15.3237 11.6471 15.1974 11.6537 15.075 11.63L12.868 15.457C13.0047 15.6047 13.0805 15.7987 13.08 16C13.0806 16.2089 12.9991 16.4097 12.853 16.559L15.021 20.284C15.1762 20.2423 15.3406 20.2503 15.491 20.307L17.598 16.567ZM6.22102 16.652L7.46302 20.618L7.75602 16.774C7.58093 16.734 7.42471 16.6355 7.3131 16.4948C7.20148 16.3541 7.14114 16.1796 7.14202 16C7.1411 15.8181 7.20298 15.6415 7.31721 15.4999C7.43144 15.3583 7.59103 15.2605 7.76902 15.223L7.46602 11.389L6.24302 15.364C6.3412 15.4384 6.42076 15.5345 6.47543 15.6449C6.53009 15.7553 6.55837 15.8768 6.55802 16C6.55802 16.27 6.42402 16.51 6.22102 16.652V16.652ZM10.109 19.678C10.2244 19.6554 10.3435 19.6595 10.457 19.69L11.827 16.629C11.7317 16.5543 11.6546 16.4588 11.6018 16.3498C11.5489 16.2408 11.5216 16.1211 11.522 16C11.522 15.752 11.634 15.531 11.809 15.386L10.417 12.32C10.3209 12.3403 10.2218 12.342 10.125 12.325L8.44602 15.416C8.52627 15.4906 8.59026 15.581 8.63396 15.6815C8.67767 15.782 8.70016 15.8904 8.70002 16C8.70033 16.1066 8.67925 16.2121 8.63803 16.3103C8.5968 16.4086 8.53627 16.4976 8.46002 16.572L10.11 19.678H10.109ZM10.433 21.228C10.2905 21.2615 10.1414 21.2535 10.0032 21.2052C9.86506 21.1568 9.74356 21.07 9.65302 20.955L8.30302 21.543C8.31833 21.666 8.30534 21.7908 8.26502 21.908L11.84 24.57C11.8505 24.5621 11.8612 24.5544 11.872 24.547L10.432 21.227L10.433 21.228ZM9.49002 20.595C9.46514 20.4579 9.47671 20.3166 9.52356 20.1853C9.57042 20.0541 9.65092 19.9374 9.75702 19.847L8.14402 16.812L7.83102 20.912C7.96225 20.9682 8.07567 21.0591 8.15902 21.175L9.49002 20.595V20.595ZM11.02 20.296L14.485 20.79C14.5253 20.672 14.5928 20.5651 14.682 20.478L12.518 16.761C12.4104 16.7929 12.297 16.8007 12.186 16.784L10.796 19.885C10.9105 19.9962 10.9886 20.1395 11.02 20.296V20.296ZM11 20.693C10.9583 20.8273 10.8817 20.948 10.778 21.043L12.241 24.418C12.3614 24.4089 12.4823 24.4281 12.594 24.474L14.642 21.579C14.544 21.4681 14.4789 21.332 14.454 21.186L11 20.693V20.693ZM9.49702 11.371L8.16602 10.815C8.08253 10.9349 7.9672 11.0291 7.83302 11.087L8.15302 15.138L9.76902 12.162C9.65492 12.0685 9.56906 11.9451 9.52103 11.8056C9.473 11.6661 9.46469 11.516 9.49702 11.372V11.371ZM10.447 10.776L11.822 7.536L8.26902 10.102C8.30572 10.2124 8.318 10.3294 8.30502 10.445L9.67502 11.018C9.76864 10.9101 9.89041 10.8303 10.0267 10.7876C10.163 10.7449 10.3085 10.7409 10.447 10.776V10.776ZM11.029 11.649C11.0044 11.8405 10.9109 12.0164 10.766 12.144L12.162 15.221C12.2881 15.1977 12.4181 15.2063 12.54 15.246L14.722 11.46C14.6252 11.3771 14.5497 11.2722 14.502 11.154L11.029 11.649V11.649ZM10.789 10.967C10.873 11.047 10.939 11.146 10.982 11.256L14.447 10.762C14.4629 10.6172 14.5183 10.4795 14.607 10.364L12.617 7.516C12.495 7.57147 12.3605 7.59388 12.227 7.581L10.79 10.967H10.789ZM20.112 10.756C20.2375 10.7444 20.3639 10.7635 20.4803 10.8118C20.5967 10.8601 20.6996 10.936 20.78 11.033L22.14 10.465C22.1245 10.3486 22.1344 10.2302 22.169 10.118L18.64 7.524L20.111 10.756H20.112ZM19.456 11.266C19.5122 11.1144 19.6134 10.9835 19.746 10.891L18.236 7.578C18.0963 7.59501 17.9545 7.57357 17.826 7.516L15.836 10.364C15.9245 10.4804 15.9798 10.6187 15.996 10.764L19.456 11.267V11.266ZM17.52 7.27C17.4684 7.20028 17.4285 7.12259 17.402 7.04H13.04C13.0132 7.12266 12.973 7.20035 12.921 7.27L14.915 10.123C15.0113 10.0812 15.1151 10.0596 15.22 10.0596C15.325 10.0596 15.4288 10.0812 15.525 10.123L17.52 7.27Z" fill="white"/>
</g>
<defs>
<clipPath id="clip0_0_1716">
<rect width="32" height="32" fill="white"/>
</clipPath>
</defs>
</svg>
