<svg width="32" height="32" viewBox="0 0 32 32" fill="none" xmlns="http://www.w3.org/2000/svg">
<g clip-path="url(#clip0_0_1708)">
<path d="M16 32C24.8366 32 32 24.8366 32 16C32 7.16344 24.8366 0 16 0C7.16344 0 0 7.16344 0 16C0 24.8366 7.16344 32 16 32Z" fill="#9D4BEF"/>
<path d="M11.809 8C12.8189 8 13.7875 8.4012 14.5017 9.11534C15.2158 9.82948 15.617 10.7981 15.617 11.808C15.617 12.8179 15.2158 13.7865 14.5017 14.5007C13.7875 15.2148 12.8189 15.616 11.809 15.616C10.7991 15.616 9.83048 15.2148 9.11634 14.5007C8.4022 13.7865 8.001 12.8179 8.001 11.808C8.001 10.7981 8.4022 9.82948 9.11634 9.11534C9.83048 8.4012 10.7991 8 11.809 8V8ZM15.616 20.87C15.616 21.6232 15.3927 22.3594 14.9742 22.9856C14.5558 23.6118 13.9611 24.0999 13.2653 24.3881C12.5694 24.6764 11.8038 24.7518 11.0651 24.6048C10.3264 24.4579 9.6479 24.0952 9.11534 23.5627C8.58278 23.0301 8.2201 22.3516 8.07317 21.6129C7.92624 20.8742 8.00165 20.1086 8.28987 19.4127C8.57809 18.7169 9.06617 18.1222 9.69239 17.7038C10.3186 17.2853 11.0549 17.062 11.808 17.062C13.2012 17.062 14.5373 16.5086 15.5224 15.5234C16.5076 14.5383 17.061 13.2022 17.061 11.809C17.061 11.0558 17.2843 10.3196 17.7028 9.69339C18.1212 9.06717 18.7159 8.57909 19.4117 8.29087C20.1076 8.00265 20.8732 7.92724 21.6119 8.07417C22.3506 8.2211 23.0291 8.58378 23.5617 9.11634C24.0942 9.6489 24.4569 10.3274 24.6038 11.0661C24.7508 11.8048 24.6754 12.5704 24.3871 13.2663C24.0989 13.9621 23.6108 14.5568 22.9846 14.9752C22.3584 15.3937 21.6222 15.617 20.869 15.617C19.476 15.6173 18.1401 16.1708 17.1552 17.1559C16.1703 18.141 15.617 19.477 15.617 20.87H15.616ZM20.869 24.678C19.8591 24.678 18.8905 24.2768 18.1763 23.5627C17.4622 22.8485 17.061 21.8799 17.061 20.87C17.061 19.8601 17.4622 18.8915 18.1763 18.1773C18.8905 17.4632 19.8591 17.062 20.869 17.062C21.8789 17.062 22.8475 17.4632 23.5617 18.1773C24.2758 18.8915 24.677 19.8601 24.677 20.87C24.677 21.8799 24.2758 22.8485 23.5617 23.5627C22.8475 24.2768 21.8789 24.678 20.869 24.678V24.678ZM20.869 22.018C21.1735 22.018 21.4655 21.8971 21.6808 21.6818C21.8961 21.4665 22.017 21.1745 22.017 20.87C22.017 20.5655 21.8961 20.2735 21.6808 20.0582C21.4655 19.843 21.1735 19.722 20.869 19.722C20.5645 19.722 20.2725 19.843 20.0572 20.0582C19.842 20.2735 19.721 20.5655 19.721 20.87C19.721 21.1745 19.842 21.4665 20.0572 21.6818C20.2725 21.8971 20.5645 22.018 20.869 22.018V22.018ZM11.809 22.018C12.1135 22.018 12.4055 21.8971 12.6208 21.6818C12.8361 21.4665 12.957 21.1745 12.957 20.87C12.957 20.5655 12.8361 20.2735 12.6208 20.0582C12.4055 19.843 12.1135 19.722 11.809 19.722C11.5045 19.722 11.2125 19.843 10.9972 20.0582C10.782 20.2735 10.661 20.5655 10.661 20.87C10.661 21.1745 10.782 21.4665 10.9972 21.6818C11.2125 21.8971 11.5045 22.018 11.809 22.018V22.018ZM20.869 12.956C21.1735 12.956 21.4655 12.8351 21.6808 12.6198C21.8961 12.4045 22.017 12.1125 22.017 11.808C22.017 11.5035 21.8961 11.2115 21.6808 10.9962C21.4655 10.781 21.1735 10.66 20.869 10.66C20.5645 10.66 20.2725 10.781 20.0572 10.9962C19.842 11.2115 19.721 11.5035 19.721 11.808C19.721 12.1125 19.842 12.4045 20.0572 12.6198C20.2725 12.8351 20.5645 12.956 20.869 12.956ZM11.809 12.956C12.1135 12.956 12.4055 12.8351 12.6208 12.6198C12.8361 12.4045 12.957 12.1125 12.957 11.808C12.957 11.5035 12.8361 11.2115 12.6208 10.9962C12.4055 10.781 12.1135 10.66 11.809 10.66C11.5045 10.66 11.2125 10.781 10.9972 10.9962C10.782 11.2115 10.661 11.5035 10.661 11.808C10.661 12.1125 10.782 12.4045 10.9972 12.6198C11.2125 12.8351 11.5045 12.956 11.809 12.956Z" fill="white"/>
</g>
<defs>
<clipPath id="clip0_0_1708">
<rect width="32" height="32" fill="white"/>
</clipPath>
</defs>
</svg>
