<svg width="32" height="32" viewBox="0 0 32 32" fill="none" xmlns="http://www.w3.org/2000/svg">
<g clip-path="url(#clip0_0_1700)">
<path d="M16 32C24.8366 32 32 24.8366 32 16C32 7.16344 24.8366 0 16 0C7.16344 0 0 7.16344 0 16C0 24.8366 7.16344 32 16 32Z" fill="#3555F9"/>
<path d="M14.3601 7.12695C15.2101 6.96895 16.0801 6.98695 16.9401 7.02995C17.9321 7.14595 18.9261 7.35395 19.8381 7.76395C21.6595 8.52508 23.2034 9.82707 24.2611 11.4939C24.6541 12.0669 24.9181 12.7089 25.1831 13.3459C25.4291 12.9539 25.6491 12.5459 25.8631 12.1359C25.9551 11.9429 26.1481 11.7939 26.3731 11.8039C26.5227 11.7923 26.6711 11.8388 26.7874 11.9338C26.9036 12.0288 26.9787 12.165 26.9971 12.3139C27.0221 12.5539 26.8711 12.7609 26.7721 12.9689C26.4601 13.5989 26.0571 14.1809 25.6401 14.7489C25.5631 14.8309 25.5951 14.9449 25.6041 15.0449C26.0681 17.7819 25.1851 20.6949 23.3041 22.7569C22.2197 23.9622 20.8532 24.8796 19.3271 25.4269C17.5691 26.0419 15.6331 26.1809 13.8151 25.7509C11.1791 25.1799 8.84706 23.4419 7.52106 21.1359C7.23107 20.6689 7.04606 20.1499 6.81706 19.6539C6.56706 20.0389 6.35507 20.4439 6.14207 20.8479C6.09202 20.9481 6.01671 21.0334 5.92358 21.0955C5.83045 21.1576 5.72273 21.1943 5.61107 21.2019C5.23007 21.2019 4.88407 20.7919 5.03707 20.4269C5.36507 19.6729 5.81406 18.9749 6.31706 18.3229C6.42506 18.2099 6.41006 18.0499 6.39006 17.9089C6.20329 16.7056 6.25768 15.4771 6.55007 14.2949C7.32007 10.9709 10.0801 8.19495 13.4251 7.32995C13.7351 7.25695 14.0451 7.17995 14.3601 7.12695V7.12695ZM11.9981 9.13695C10.2251 10.0689 8.79806 11.6279 8.05806 13.4689C7.63006 14.5809 7.41207 15.7769 7.47807 16.9669C7.66584 16.826 7.84484 16.6737 8.01407 16.5109C9.00907 15.6229 10.1741 14.9349 11.3921 14.3869C13.6551 13.3579 16.1471 12.9149 18.6231 12.7949C17.7861 11.9269 16.8781 11.1259 16.0411 10.2579C16.3051 9.96795 16.5911 9.69995 16.8771 9.43195C17.2021 9.72595 17.5021 10.0449 17.8201 10.3459C18.8501 11.3709 19.9111 12.3659 20.9241 13.4049C19.8441 14.4819 18.7361 15.5319 17.6561 16.6089C17.565 16.6946 17.4696 16.7753 17.3701 16.8509C17.0981 16.5769 16.7821 16.3369 16.5641 16.0159C17.2281 15.3199 17.9841 14.7099 18.6211 13.9889C17.4791 14.0049 16.3431 14.1669 15.2251 14.3889C14.3221 14.5499 13.4541 14.8549 12.5871 15.1459C10.7711 15.8259 9.09606 16.9099 7.81906 18.3599C7.74306 18.4349 7.75407 18.5459 7.77407 18.6399C7.92507 19.2879 8.21007 19.8939 8.52207 20.4799C9.55207 22.3369 11.3321 23.7719 13.3771 24.4199C14.5731 24.7879 15.8491 24.9299 17.0931 24.7569C18.832 24.5385 20.4626 23.7935 21.7661 22.6219C23.6311 20.9779 24.6771 18.4729 24.5161 16.0139C24.3191 16.1669 24.1431 16.3409 23.9591 16.5069C22.7082 17.5831 21.2694 18.4191 19.7151 18.9729C17.6951 19.7229 15.5431 20.1109 13.3881 20.1719C13.5761 20.4179 13.8081 20.6239 14.0271 20.8429C14.6721 21.4709 15.3081 22.1069 15.9631 22.7249C15.7111 23.0219 15.4171 23.2809 15.1391 23.5529C14.8601 23.3259 14.6191 23.0619 14.3591 22.8129C13.3851 21.8689 12.4211 20.9129 11.4491 19.9649C11.3145 19.8425 11.1907 19.7087 11.0791 19.5649C11.5001 19.1129 11.9841 18.7229 12.4151 18.2809C13.1551 17.5659 13.8751 16.8299 14.6241 16.1239C14.9041 16.3959 15.1981 16.6559 15.4471 16.9569C14.7811 17.6469 14.0721 18.2959 13.3971 18.9769C14.1371 19.0139 14.8671 18.8869 15.6011 18.8169C16.1311 18.7609 16.6521 18.6409 17.1751 18.5319C19.8601 17.9119 22.4751 16.6369 24.2771 14.5359C23.5871 11.5519 21.0501 9.09595 18.0311 8.40195C16.0201 7.89095 13.8271 8.18195 11.9981 9.13695V9.13695Z" fill="white"/>
</g>
<defs>
<clipPath id="clip0_0_1700">
<rect width="32" height="32" fill="white"/>
</clipPath>
</defs>
</svg>
