<svg width="32" height="32" viewBox="0 0 32 32" fill="none" xmlns="http://www.w3.org/2000/svg">
<g clip-path="url(#clip0_0_1694)">
<path d="M16 32C24.8366 32 32 24.8366 32 16C32 7.16344 24.8366 0 16 0C7.16344 0 0 7.16344 0 16C0 24.8366 7.16344 32 16 32Z" fill="#E30613"/>
<path opacity="0.75" fill-rule="evenodd" clip-rule="evenodd" d="M15.361 26.516C9.64 26.516 5 21.923 5 16.258C5 10.593 9.639 6 15.361 6C21.084 6 25.723 10.593 25.723 16.258C25.723 21.923 21.083 26.516 15.36 26.516H15.361ZM17.15 8.939C19.566 9.928 21.302 11.789 22.534 14.297L23.464 13.65C22.42 11.138 20.491 9.164 17.388 7.884L17.15 8.939V8.939Z" fill="white"/>
<path d="M26.73 9.321C26.73 6.935 24.775 5 22.365 5C19.955 5 18 6.935 18 9.321C18 9.549 18.018 9.776 18.054 10.001C19.507 10.847 20.674 12.061 21.607 13.577C21.857 13.62 22.111 13.643 22.365 13.643C24.775 13.643 26.73 11.708 26.73 9.321V9.321Z" fill="white"/>
</g>
<defs>
<clipPath id="clip0_0_1694">
<rect width="32" height="32" fill="white"/>
</clipPath>
</defs>
</svg>
