<svg width="32" height="32" viewBox="0 0 32 32" fill="none" xmlns="http://www.w3.org/2000/svg">
<g clip-path="url(#clip0_0_1690)">
<path d="M16 32C24.8366 32 32 24.8366 32 16C32 7.16344 24.8366 0 16 0C7.16344 0 0 7.16344 0 16C0 24.8366 7.16344 32 16 32Z" fill="#2A2A2A"/>
<path d="M10 6.006H18.111C18.209 5.976 18.259 6.066 18.323 6.116C19.0875 6.83813 19.7734 7.63927 20.369 8.506C21.2153 9.7181 21.8797 11.0475 22.341 12.452C22.823 13.936 23.051 15.506 22.991 17.066H18.856C18.8763 16.8587 18.8837 16.6503 18.878 16.442C18.835 14.971 18.381 13.528 17.666 12.25C16.901 10.881 15.833 9.7 14.619 8.719C13.297 7.65 11.809 6.806 10.259 6.124C10.173 6.084 10.083 6.052 10 6.006V6.006ZM13.002 13.333C14.3893 15.8427 15.7743 18.3537 17.157 20.866C17.49 21.472 17.827 22.076 18.157 22.683C16.436 23.785 14.72 24.897 13 26V13.333H13.002Z" fill="white"/>
</g>
<defs>
<clipPath id="clip0_0_1690">
<rect width="32" height="32" fill="white"/>
</clipPath>
</defs>
</svg>
