<svg width="32" height="32" viewBox="0 0 32 32" fill="none" xmlns="http://www.w3.org/2000/svg">
<g clip-path="url(#clip0_0_1686)">
<path d="M16 32C24.8366 32 32 24.8366 32 16C32 7.16344 24.8366 0 16 0C7.16344 0 0 7.16344 0 16C0 24.8366 7.16344 32 16 32Z" fill="#080817"/>
<path d="M9.94 9.504L11.504 8.603L11.726 8.966L17.526 5.616L17.099 5.363L16.671 5.127L16.466 5L7 10.469V10.705L9.718 9.14L9.94 9.504ZM9.94 12.948L14.49 10.325L14.695 10.69L20.512 7.338L20.086 7.085L19.659 6.849L19.452 6.722L7 13.896V14.149L9.718 12.585L9.94 12.948ZM9.94 14.67L15.976 11.18L16.181 11.543L21.998 8.193L21.572 7.955L21.142 7.701L20.938 7.575L7 15.62V15.87L9.718 14.292L9.94 14.67ZM9.94 16.378L17.508 12.015L17.716 12.381L23.484 9.046L23.055 8.807L22.629 8.557L22.424 8.444L7 17.343V17.579L9.718 16.015L9.94 16.378ZM9.94 18.1L18.994 12.87L19.201 13.25L24.97 9.916L24.54 9.662L24.132 9.424L23.91 9.299L7 19.065V19.301L9.718 17.737L9.94 18.1ZM25.615 10.279L25.395 10.152L7 20.787V21.023L9.718 19.459L9.94 19.822L18.994 14.592L19.201 14.956L25.931 11.085V10.469L25.615 10.279ZM8.17 22.068L9.687 21.198L9.908 21.562L18.948 16.332L19.168 16.709L25.932 12.79V11.574L7.965 21.942L8.17 22.068ZM18.948 18.054L19.168 18.434L25.932 14.514V13.297L9.45 22.81L9.654 22.937L11.204 22.036L11.423 22.399L18.948 18.054ZM11.141 23.79L12.705 22.89L12.909 23.27L18.949 19.776L19.167 20.139L25.932 16.237V15.005L10.934 23.664L11.141 23.79ZM12.642 24.643L14.191 23.759L14.395 24.122L18.948 21.498L19.168 21.861L25.932 17.959V16.726L12.42 24.533L12.642 24.643ZM13.906 25.386L14.127 25.513L15.677 24.611L15.881 24.991L18.948 23.221L19.168 23.586L25.932 19.681V18.45L13.906 25.386ZM15.613 26.365L17.163 25.481L17.382 25.844L18.948 24.928L19.168 25.308L25.932 21.403V20.171L15.406 26.256L15.613 26.365ZM19.026 6.469L18.6 6.233L18.173 5.979L17.952 5.853L7 12.19V12.426L9.718 10.862L9.94 11.225L13.004 9.457L13.212 9.82L19.026 6.469Z" fill="white"/>
</g>
<defs>
<clipPath id="clip0_0_1686">
<rect width="32" height="32" fill="white"/>
</clipPath>
</defs>
</svg>
