<svg width="32" height="32" viewBox="0 0 32 32" fill="none" xmlns="http://www.w3.org/2000/svg">
<g clip-path="url(#clip0_0_1682)">
<path d="M16 32C24.8366 32 32 24.8366 32 16C32 7.16344 24.8366 0 16 0C7.16344 0 0 7.16344 0 16C0 24.8366 7.16344 32 16 32Z" fill="#602A52"/>
<path fill-rule="evenodd" clip-rule="evenodd" d="M20.5804 16.312C20.3021 15.5359 19.8056 14.8567 19.1504 14.356L19.1434 14.348C19.074 14.2955 19.003 14.2451 18.9304 14.197L18.9164 14.187C18.845 14.1401 18.7723 14.0951 18.6984 14.052L18.6784 14.04C18.606 13.998 18.5316 13.9597 18.4554 13.925L18.4334 13.913C18.3555 13.8764 18.2768 13.8414 18.1974 13.808L18.1714 13.798C17.9145 13.6914 17.648 13.6096 17.3754 13.554C17.2184 13.8388 17.0165 14.0965 16.7774 14.317C17.3388 14.3618 17.8811 14.5412 18.3584 14.84L18.3854 14.856L18.5174 14.946L18.5774 14.988C18.6174 15.018 18.6544 15.048 18.6954 15.078L18.7624 15.132C18.7984 15.162 18.8314 15.192 18.8654 15.223L18.9334 15.288L19.0264 15.382L19.0944 15.455L19.1774 15.552L19.2424 15.633L19.3174 15.733C19.3424 15.766 19.3594 15.792 19.3794 15.821C19.3994 15.85 19.4254 15.888 19.4464 15.923L19.5044 16.019C19.5224 16.051 19.5444 16.087 19.5624 16.121C19.5824 16.154 19.5984 16.191 19.6164 16.227C19.6334 16.263 19.6504 16.293 19.6654 16.327C19.6841 16.3714 19.7021 16.4161 19.7194 16.461C19.8143 16.6978 19.8814 16.9448 19.9194 17.197L20.0284 17.601C20.0744 17.769 20.4994 19.257 21.4844 19.758C22.6134 20.337 24.1084 21.052 24.6964 21.335L16.9304 25.895V22.77C16.9304 22.277 17.9304 21.7 18.3934 21.497L18.4204 21.482C18.5154 21.435 18.6104 21.384 18.7004 21.33L18.7394 21.31C18.9397 21.1894 19.1303 21.0533 19.3094 20.903L19.3574 20.86L19.4124 20.811C19.4687 20.7604 19.5238 20.7084 19.5774 20.655L19.6054 20.628C19.6644 20.569 19.7234 20.513 19.7754 20.444L19.8244 20.388C19.8684 20.336 19.9104 20.283 19.9514 20.229L19.9874 20.184C20.0374 20.118 20.0834 20.05 20.1294 19.981L20.1454 19.961C20.2074 19.864 20.2624 19.767 20.3204 19.666C20.1027 19.4031 19.9161 19.1159 19.7644 18.81C19.7024 18.983 19.6244 19.151 19.5344 19.312C19.4964 19.382 19.4564 19.45 19.4164 19.516L19.3984 19.543C19.3607 19.5991 19.3213 19.6542 19.2804 19.708L19.2444 19.754C19.2037 19.8066 19.161 19.8576 19.1164 19.907L19.0924 19.935C18.8031 20.251 18.4576 20.5104 18.0734 20.7L18.0004 20.737C17.8034 20.824 16.0674 21.594 16.0674 22.765V25.891L8.27743 21.323C8.77843 21.017 10.2424 20.165 11.4464 19.79C11.9174 19.646 12.9174 20.263 13.4844 20.716L13.5184 20.746C13.5934 20.816 13.6724 20.883 13.7544 20.946L13.7824 20.971C13.9624 21.115 14.1544 21.244 14.3554 21.358L14.4904 21.431L14.5174 21.445C14.6484 21.511 14.7824 21.571 14.9194 21.624L14.9794 21.647L15.0194 21.663C15.2164 21.735 15.4194 21.791 15.6244 21.833C15.7858 21.5446 15.9939 21.2851 16.2404 21.065C15.9118 21.0407 15.5883 20.97 15.2794 20.855L15.2264 20.835L15.1244 20.794L15.0724 20.772L14.9734 20.726C14.7442 20.6148 14.5279 20.4786 14.3284 20.32L14.0184 20.044C13.7338 19.7989 13.4256 19.5825 13.0984 19.398C12.3284 18.968 11.6844 18.828 11.1904 18.98C10.1604 19.298 9.00043 19.916 8.29243 20.324L16.0704 6.60701V12.614C16.0704 12.827 15.7504 13.383 14.6814 13.855L14.6074 13.895C14.5034 13.945 14.4024 13.999 14.3034 14.057L14.2834 14.067C13.9543 14.2609 13.6523 14.4976 13.3854 14.771L13.3754 14.781C13.2743 14.8851 13.1785 14.9942 13.0884 15.108L13.0774 15.123C13.034 15.1785 12.9916 15.2348 12.9504 15.292L12.9364 15.312C12.8994 15.366 12.8633 15.4206 12.8284 15.476L12.8164 15.493C12.7812 15.5498 12.7475 15.6074 12.7154 15.666L12.6924 15.707C12.6634 15.763 12.6344 15.823 12.6054 15.875L12.5924 15.902C12.5667 15.9547 12.5423 16.008 12.5194 16.062L12.4944 16.122C12.4714 16.178 12.4504 16.238 12.4294 16.292L12.4094 16.352C12.3941 16.3949 12.3801 16.4383 12.3674 16.482C12.3604 16.506 12.3524 16.529 12.3464 16.554C12.289 16.7548 12.2472 16.9598 12.2214 17.167L12.2114 17.26C12.2067 17.3022 12.203 17.3446 12.2004 17.387C12.1984 17.43 12.2004 17.472 12.1934 17.514C12.1864 17.557 12.1934 17.566 12.1934 17.594V17.689C12.1934 17.899 12.2094 18.109 12.2414 18.318C12.5764 18.3997 12.9007 18.5206 13.2074 18.678C13.1133 18.3761 13.0627 18.0622 13.0574 17.746V17.689C13.0574 17.613 13.0574 17.538 13.0664 17.458V17.398C13.0664 17.333 13.0794 17.267 13.0884 17.202V17.174C13.0988 17.1017 13.1128 17.0299 13.1304 16.959L13.1424 16.904C13.1574 16.844 13.1724 16.786 13.1914 16.727L13.2034 16.689C13.2234 16.62 13.2484 16.553 13.2744 16.486L13.2944 16.441C13.3164 16.386 13.3404 16.331 13.3654 16.276L13.3844 16.234C13.4154 16.169 13.4494 16.106 13.4844 16.043L13.5034 16.012C13.5349 15.9578 13.568 15.9044 13.6024 15.852L13.6274 15.815C13.6684 15.755 13.7104 15.699 13.7554 15.637L13.7634 15.627C13.8064 15.572 13.8514 15.519 13.8974 15.467L13.9224 15.437C14.1334 15.205 14.3754 15.002 14.6424 14.834L15.0104 14.664C15.2074 14.577 16.9354 13.786 16.9354 12.614V6.60701L24.7744 20.427C24.0744 20.09 22.8444 19.495 21.8844 19.007C21.3364 18.727 20.9624 17.74 20.8664 17.386L20.7604 16.971C20.7212 16.7483 20.6637 16.5292 20.5884 16.316L20.5804 16.312V16.312ZM25.8904 20.662L17.2504 5.43601C17.1741 5.30284 17.0639 5.1923 16.9309 5.1157C16.7979 5.0391 16.6469 4.99918 16.4934 5.00001C16.3403 4.99953 16.1898 5.03962 16.0571 5.11621C15.9245 5.19279 15.8146 5.30313 15.7384 5.43601L7.10843 20.663C6.9998 20.855 6.97143 21.0821 7.02949 21.2949C7.08756 21.5076 7.22736 21.6888 7.41843 21.799L16.0554 26.879C16.1902 26.9577 16.3434 26.9992 16.4994 26.9992C16.6555 26.9992 16.8087 26.9577 16.9434 26.879L25.5794 21.803C25.7704 21.693 25.9102 21.5121 25.9685 21.2995C26.0267 21.087 25.9987 20.86 25.8904 20.668L25.8924 20.662H25.8904Z" fill="white"/>
</g>
<defs>
<clipPath id="clip0_0_1682">
<rect width="32" height="32" fill="white"/>
</clipPath>
</defs>
</svg>
