<svg width="32" height="32" viewBox="0 0 32 32" fill="none" xmlns="http://www.w3.org/2000/svg">
<g clip-path="url(#clip0_0_1678)">
<path d="M16 32C24.8366 32 32 24.8366 32 16C32 7.16344 24.8366 0 16 0C7.16344 0 0 7.16344 0 16C0 24.8366 7.16344 32 16 32Z" fill="#0E0E21"/>
<path fill-rule="evenodd" clip-rule="evenodd" d="M11.5503 15.495L10.3103 14.69C10.2562 14.6549 10.2177 14.6002 10.203 14.5374C10.1883 14.4746 10.1984 14.4085 10.2313 14.353L15.0153 6.242C15.0583 6.1687 15.1196 6.10785 15.1932 6.06543C15.2669 6.023 15.3503 6.00045 15.4353 6H16.5643C16.6492 6.00045 16.7327 6.023 16.8063 6.06543C16.8799 6.10785 16.9413 6.1687 16.9843 6.242L21.7683 14.353C21.8011 14.4085 21.8112 14.4746 21.7965 14.5374C21.7818 14.6002 21.7434 14.6549 21.6893 14.69L20.4493 15.495C20.4216 15.5125 20.3908 15.5244 20.3585 15.5297C20.3262 15.5351 20.2932 15.5339 20.2614 15.5263C20.2296 15.5186 20.1996 15.5047 20.1733 15.4852C20.147 15.4657 20.1249 15.4412 20.1083 15.413L16.1053 8.627C16.0945 8.60876 16.0791 8.59364 16.0607 8.58314C16.0423 8.57264 16.0215 8.56712 16.0003 8.56712C15.9791 8.56712 15.9582 8.57264 15.9398 8.58314C15.9214 8.59364 15.9061 8.60876 15.8953 8.627L11.8923 15.413C11.8757 15.4414 11.8536 15.4662 11.8273 15.4858C11.8009 15.5055 11.7708 15.5195 11.7388 15.5272C11.7068 15.5349 11.6736 15.536 11.6412 15.5304C11.6088 15.5249 11.5779 15.5128 11.5503 15.495ZM23.0273 16.49L24.9313 19.718C24.9963 19.8289 25.0164 19.9605 24.9876 20.0858C24.9588 20.2111 24.8832 20.3206 24.7763 20.392L16.2663 25.922C16.1875 25.9735 16.0954 26.001 16.0013 26.001C15.9071 26.001 15.815 25.9735 15.7363 25.922L7.22626 20.392C7.11839 20.3214 7.04195 20.2119 7.01288 20.0863C6.98381 19.9608 7.00437 19.8288 7.07026 19.718L8.97426 16.49C8.99078 16.4616 9.0129 16.4368 9.03928 16.4172C9.06565 16.3975 9.09574 16.3835 9.12771 16.3758C9.15968 16.3681 9.19288 16.367 9.22529 16.3726C9.2577 16.3781 9.28865 16.3902 9.31626 16.408L10.5553 17.213C10.6094 17.2481 10.6478 17.3028 10.6625 17.3656C10.6772 17.4284 10.6671 17.4945 10.6343 17.55L9.54626 19.395C9.53052 19.4229 9.5259 19.4557 9.53331 19.4868C9.54073 19.518 9.55964 19.5452 9.58626 19.563L15.9343 23.688C15.9743 23.715 16.0243 23.715 16.0653 23.688L22.4153 19.563C22.4423 19.5455 22.4615 19.5183 22.4689 19.487C22.4764 19.4557 22.4715 19.4228 22.4553 19.395L21.3673 17.55C21.3344 17.4945 21.3243 17.4284 21.339 17.3656C21.3537 17.3028 21.3922 17.2481 21.4463 17.213L22.6863 16.408C22.7138 16.3903 22.7447 16.3784 22.777 16.3729C22.8093 16.3675 22.8424 16.3686 22.8742 16.3763C22.9061 16.384 22.9361 16.398 22.9624 16.4175C22.9887 16.4371 23.0107 16.4617 23.0273 16.49V16.49Z" fill="white"/>
</g>
<defs>
<clipPath id="clip0_0_1678">
<rect width="32" height="32" fill="white"/>
</clipPath>
</defs>
</svg>
