<svg width="32" height="32" viewBox="0 0 32 32" fill="none" xmlns="http://www.w3.org/2000/svg">
<g clip-path="url(#clip0_0_1674)">
<path d="M16 32C24.8366 32 32 24.8366 32 16C32 7.16344 24.8366 0 16 0C7.16344 0 0 7.16344 0 16C0 24.8366 7.16344 32 16 32Z" fill="#00E6A0"/>
<path d="M22.5731 7.00016C22.6615 6.99821 22.7493 7.01423 22.8313 7.04723C22.9133 7.08023 22.9878 7.12954 23.0501 7.19216L23.0441 7.18616C23.1429 7.28461 23.2075 7.41223 23.2281 7.55016L23.2371 7.65416L23.2301 11.0712C23.2301 11.5202 23.0521 11.9512 22.7341 12.2682L18.4941 16.4952L23.0311 21.0182C23.1907 21.1741 23.3178 21.3601 23.4051 21.5654C23.4923 21.7708 23.538 21.9914 23.5396 22.2145C23.5411 22.4376 23.4984 22.6587 23.414 22.8653C23.3296 23.0718 23.2051 23.2595 23.0477 23.4176C22.8903 23.5758 22.7031 23.7011 22.497 23.7865C22.2909 23.8719 22.0699 23.9156 21.8468 23.9151C21.6237 23.9146 21.4029 23.8699 21.1971 23.7835C20.9914 23.6972 20.8048 23.571 20.6481 23.4122L14.9131 17.6952C14.755 17.5384 14.6294 17.3519 14.5438 17.1463C14.4581 16.9408 14.414 16.7203 14.414 16.4977C14.414 16.275 14.4581 16.0545 14.5438 15.849C14.6294 15.6434 14.755 15.4569 14.9131 15.3002L19.9351 10.2882H11.4371V22.1772C11.4409 22.4038 11.3991 22.6289 11.3141 22.8391C11.2291 23.0492 11.1027 23.2401 10.9424 23.4004C10.7821 23.5607 10.5912 23.6871 10.3811 23.7721C10.1709 23.8571 9.9458 23.8989 9.71915 23.8952L9.54915 23.8892C9.12251 23.8521 8.72569 23.655 8.43837 23.3374C8.15105 23.0199 7.9945 22.6054 8.00015 22.1772V8.84716C8.00015 7.78116 8.76315 7.00016 9.79615 7.00016H22.5731Z" fill="white"/>
</g>
<defs>
<clipPath id="clip0_0_1674">
<rect width="32" height="32" fill="white"/>
</clipPath>
</defs>
</svg>
