<svg width="32" height="32" viewBox="0 0 32 32" fill="none" xmlns="http://www.w3.org/2000/svg">
<g clip-path="url(#clip0_0_1670)">
<path d="M16 32C24.8366 32 32 24.8366 32 16C32 7.16344 24.8366 0 16 0C7.16344 0 0 7.16344 0 16C0 24.8366 7.16344 32 16 32Z" fill="#CC1E46"/>
<path d="M12.1305 9.20798C13.8042 7.95016 15.7976 7.18787 17.8835 7.00798C18.0955 6.96498 18.3255 7.09898 18.3185 7.33298C18.3385 7.89298 18.3245 8.45298 18.3245 9.01298C18.3385 9.18698 18.2465 9.41298 18.0465 9.41798C16.2005 9.62198 14.4465 10.376 12.9225 11.418C12.7785 11.499 12.8105 11.686 12.8225 11.822C12.9285 12.804 12.8565 13.793 12.8855 14.778C17.8595 14.792 22.8355 14.776 27.8115 14.786C28.0485 14.766 28.2985 14.901 28.2795 15.166C28.3045 16.841 28.2845 18.516 28.2895 20.19C28.2935 21.1 28.0995 22.042 27.5485 22.786C26.6785 23.955 25.1485 24.656 23.6945 24.398C22.6645 24.244 21.7745 23.605 21.1505 22.794C19.4519 24.0715 17.4251 24.8397 15.3065 25.009C15.0915 25.012 14.9305 24.801 14.9635 24.595C14.9705 24.009 14.9515 23.421 14.9735 22.835C15.0235 22.525 15.4055 22.585 15.6325 22.534C17.3765 22.262 19.0445 21.531 20.4685 20.494C20.3951 19.406 20.3694 18.3152 20.3915 17.225C15.3995 17.193 10.4055 17.223 5.41347 17.209C5.19347 17.234 4.98147 17.069 5.00247 16.836C4.99847 15.073 4.99947 13.309 5.00447 11.546C5.01447 10.624 5.30547 9.69198 5.91647 8.98898C6.72147 8.07298 7.93547 7.48798 9.16747 7.55998C10.3475 7.60698 11.4305 8.27798 12.1305 9.20798V9.20798ZM7.01447 11.85C7.01247 12.883 7.01147 13.917 7.01647 14.952C8.25047 14.951 9.48247 14.969 10.7155 14.942C10.7175 13.934 10.7305 12.927 10.7095 11.919C10.6905 10.953 9.81747 10.099 8.84747 10.119C7.90047 10.08 7.03747 10.909 7.01447 11.849V11.85ZM22.7235 17.14C22.7135 18.122 22.7215 19.105 22.7175 20.087C22.7115 20.48 22.8305 20.864 23.0575 21.184C23.5315 21.861 24.4755 22.157 25.2475 21.858C25.9605 21.594 26.4315 20.848 26.4235 20.098C26.4235 19.112 26.4285 18.128 26.4195 17.142C25.1875 17.132 23.9555 17.137 22.7235 17.139V17.14Z" fill="white"/>
</g>
<defs>
<clipPath id="clip0_0_1670">
<rect width="32" height="32" fill="white"/>
</clipPath>
</defs>
</svg>
