<svg width="32" height="32" viewBox="0 0 32 32" fill="none" xmlns="http://www.w3.org/2000/svg">
<g clip-path="url(#clip0_0_799)">
<path d="M16 32C24.8366 32 32 24.8366 32 16C32 7.16344 24.8366 0 16 0C7.16344 0 0 7.16344 0 16C0 24.8366 7.16344 32 16 32Z" fill="#8D181B"/>
<path d="M25.696 15.732C26.416 15.732 27 16.302 27 17.007C27 17.712 26.416 18.282 25.696 18.282C25.146 18.282 24.675 17.948 24.484 17.477H20.764L19.392 19.917C19.166 20.319 18.547 20.2 18.493 19.745L18.185 17.138L17.045 25.592C16.969 26.154 16.128 26.128 16.089 25.562L15.154 11.895L14.164 20.949C14.104 21.489 13.311 21.517 13.214 20.982L12.166 15.226L11.682 17.121C11.6547 17.2236 11.5942 17.3142 11.5098 17.3786C11.4255 17.4431 11.3221 17.4777 11.216 17.477H6.48C6.215 17.477 6 17.267 6 17.007C6 16.747 6.215 16.537 6.48 16.537H10.84L11.779 12.866C11.905 12.374 12.627 12.399 12.719 12.898L13.568 17.567L14.787 6.42C14.85 5.849 15.705 5.865 15.744 6.438L16.725 20.778L17.739 13.254C17.813 12.705 18.628 12.711 18.693 13.261L19.275 18.176L20.059 16.78C20.1014 16.7058 20.1626 16.6442 20.2366 16.6015C20.3106 16.5588 20.3946 16.5366 20.48 16.537H24.484C24.5832 16.2976 24.7514 16.0931 24.9673 15.9497C25.1832 15.8064 25.4369 15.7306 25.696 15.732V15.732Z" fill="white"/>
</g>
<defs>
<clipPath id="clip0_0_799">
<rect width="32" height="32" fill="white"/>
</clipPath>
</defs>
</svg>
