<svg width="32" height="32" viewBox="0 0 32 32" fill="none" xmlns="http://www.w3.org/2000/svg">
<g clip-path="url(#clip0_0_795)">
<path d="M16 32C24.8366 32 32 24.8366 32 16C32 7.16344 24.8366 0 16 0C7.16344 0 0 7.16344 0 16C0 24.8366 7.16344 32 16 32Z" fill="#64D1FF"/>
<path fill-rule="evenodd" clip-rule="evenodd" d="M11 15.238H12.764V7H17.311C18.155 7 18.925 7.099 19.621 7.297C20.317 7.495 20.913 7.797 21.41 8.201C21.907 8.605 22.296 9.118 22.578 9.737C22.859 10.357 23 11.097 23 11.958C23 12.819 22.85 13.568 22.553 14.205C22.272 14.8194 21.8556 15.3623 21.335 15.793C20.8003 16.2261 20.1836 16.5469 19.522 16.736C18.7873 16.9481 18.0257 17.0525 17.261 17.046H14.751V19.654H18.751V21.359H14.751V25H12.764V21.359H11V19.654H12.764V17.046H11V15.238ZM17.31 15.238C18.453 15.238 19.352 14.967 20.006 14.425C20.66 13.882 20.988 13.06 20.988 11.958C20.988 10.857 20.66 10.056 20.006 9.557C19.352 9.057 18.453 8.807 17.311 8.807H14.751V15.238H17.31Z" fill="white"/>
</g>
<defs>
<clipPath id="clip0_0_795">
<rect width="32" height="32" fill="white"/>
</clipPath>
</defs>
</svg>
