<svg width="32" height="32" viewBox="0 0 32 32" fill="none" xmlns="http://www.w3.org/2000/svg">
<g clip-path="url(#clip0_0_791)">
<path d="M16 32C24.8366 32 32 24.8366 32 16C32 7.16344 24.8366 0 16 0C7.16344 0 0 7.16344 0 16C0 24.8366 7.16344 32 16 32Z" fill="#384182"/>
<path fill-rule="evenodd" clip-rule="evenodd" d="M10 27L13.618 10.211L15.648 22.811L10 27ZM13.688 10.115L19.185 22.824L15.742 22.764L13.688 10.114V10.115ZM13.77 10.019L20.97 11.042L19.302 22.824L13.77 10.019V10.019ZM19.43 22.643L21.053 11.15L22.115 12.498L19.43 22.643V22.643ZM20.947 10.933L13.921 9.934L20.247 7.852L20.947 10.933ZM13.887 9.826L18.193 6.841L20.247 7.744L13.887 9.826ZM13.781 9.79L14.611 8.201L18.123 6.793L13.781 9.79V9.79ZM14.611 8.13L15.007 6.89L17.901 6.793L14.611 8.129V8.13ZM14.984 6.793L15.917 5.794L17.925 6.697L14.984 6.793V6.793ZM15.976 5.734L17.376 5.048L19.186 7.166L15.976 5.734V5.734ZM17.575 5.132L19.664 6.047L19.29 7.178L17.575 5.132V5.132ZM19.36 7.214L19.745 6.059L20.212 7.648L19.36 7.214V7.214ZM17.423 5H18.952L19.709 5.842C19.716 5.85013 19.7201 5.86038 19.7206 5.8711C19.7211 5.88183 19.718 5.89242 19.7118 5.90117C19.7056 5.90993 19.6966 5.91634 19.6863 5.91939C19.676 5.92244 19.665 5.92195 19.655 5.918L17.423 5ZM19.839 5.963L22.949 6.831C22.9647 6.83478 22.9787 6.84375 22.9887 6.85644C22.9987 6.86914 23.0041 6.88484 23.0041 6.901C23.0041 6.91716 22.9987 6.93286 22.9887 6.94556C22.9787 6.95825 22.9647 6.96722 22.949 6.971L20.306 7.696L19.839 5.963V5.963Z" fill="white"/>
</g>
<defs>
<clipPath id="clip0_0_791">
<rect width="32" height="32" fill="white"/>
</clipPath>
</defs>
</svg>
