<svg width="32" height="32" viewBox="0 0 32 32" fill="none" xmlns="http://www.w3.org/2000/svg">
<g clip-path="url(#clip0_0_785)">
<path d="M16 32C24.8366 32 32 24.8366 32 16C32 7.16344 24.8366 0 16 0C7.16344 0 0 7.16344 0 16C0 24.8366 7.16344 32 16 32Z" fill="#3D58B0"/>
<path d="M15.986 4C9.376 4 4 9.376 4 15.986C4 22.596 9.376 27.97 15.986 27.97C22.596 27.97 27.97 22.595 27.97 15.986C27.971 9.376 22.595 4 15.986 4ZM15.986 5.632C17.3461 5.63029 18.6933 5.89694 19.9502 6.41669C21.2071 6.93643 22.3491 7.69905 23.3108 8.66086C24.2726 9.62267 25.0351 10.7648 25.5547 12.0217C26.0743 13.2787 26.3408 14.6259 26.339 15.986C26.3407 17.3461 26.0741 18.6931 25.5544 19.9499C25.0347 21.2068 24.2722 22.3488 23.3105 23.3105C22.3488 24.2722 21.2068 25.0347 19.9499 25.5544C18.6931 26.0741 17.3461 26.3407 15.986 26.339C14.6259 26.3408 13.2787 26.0743 12.0217 25.5547C10.7648 25.0351 9.62267 24.2726 8.66086 23.3108C7.69905 22.3491 6.93643 21.2071 6.41669 19.9502C5.89694 18.6933 5.63029 17.3461 5.632 15.986C5.63029 14.6258 5.89694 13.2786 6.41667 12.0217C6.9364 10.7647 7.699 9.6226 8.6608 8.6608C9.6226 7.699 10.7647 6.9364 12.0217 6.41667C13.2786 5.89694 14.6258 5.63029 15.986 5.632V5.632Z" fill="white"/>
<path d="M12 12V20.85H20.905V12H12ZM13.45 13.45H19.454V19.4H13.451V13.45H13.45Z" fill="white"/>
</g>
<defs>
<clipPath id="clip0_0_785">
<rect width="32" height="32" fill="white"/>
</clipPath>
</defs>
</svg>
