<svg width="32" height="32" viewBox="0 0 32 32" fill="none" xmlns="http://www.w3.org/2000/svg">
<g clip-path="url(#clip0_0_779)">
<path d="M16 32C24.8366 32 32 24.8366 32 16C32 7.16344 24.8366 0 16 0C7.16344 0 0 7.16344 0 16C0 24.8366 7.16344 32 16 32Z" fill="#00688C"/>
<path d="M26.985 23.011V10.338L15.981 4L15.966 4.008L5 10.345V23.015L15.975 29.337L15.976 29.338L26.984 23.012L26.985 23.011ZM22.115 20.985L20.238 19.909L16.05 22.34C16.0379 22.3471 16.0241 22.3509 16.01 22.3509C15.9959 22.3509 15.9821 22.3471 15.97 22.34L11.165 19.555L11.163 14.71L6.942 12.29L15.94 7.015C15.9436 7.01279 15.9478 7.01162 15.952 7.01162C15.9562 7.01162 15.9604 7.01279 15.964 7.015L24.321 11.793L22.843 12.648L15.968 8.692L9.871 12.271L11.986 13.486L15.972 11.168L15.974 11.166L20.844 13.951L20.842 18.561L24.993 20.938L24.992 21.008L15.976 26.272L7.618 21.5L9.081 20.643L15.962 24.59L22.115 20.984V20.985Z" fill="white"/>
<path d="M17.5791 15.2907V15.2567L17.5781 15.2347L17.5771 15.2227L17.5751 15.1977V15.1897L17.5721 15.1627V15.1557L17.5681 15.1277V15.1227L17.5641 15.0937V15.0897L17.5591 15.0597L17.5581 15.0577L17.5521 15.0277L17.5511 15.0247L17.5441 14.9947V14.9927C17.5422 14.9826 17.5399 14.9726 17.5371 14.9627V14.9607L17.5281 14.9307V14.9297L17.5191 14.8977C17.5138 14.8773 17.5071 14.8573 17.4991 14.8377V14.8367L17.4871 14.8067C17.4834 14.7966 17.4794 14.7866 17.4751 14.7767L17.4621 14.7467L17.4491 14.7187L17.4351 14.6887L17.4211 14.6607L17.4051 14.6327C17.3996 14.6238 17.3943 14.6148 17.3891 14.6057V14.6047L17.3731 14.5787L17.3721 14.5777C17.3667 14.5692 17.361 14.5609 17.3551 14.5527V14.5507L17.3381 14.5267C17.3381 14.5267 17.3381 14.5247 17.3361 14.5247L17.3191 14.5007L17.3171 14.4987C17.3111 14.4907 17.3071 14.4827 17.3001 14.4747L17.2991 14.4727L17.2801 14.4497L17.2781 14.4477L17.2601 14.4257L17.2581 14.4237L17.2381 14.4027C17.2373 14.4019 17.2366 14.4008 17.2361 14.3997L17.2171 14.3787C17.2163 14.3779 17.2156 14.3768 17.2151 14.3757L17.1961 14.3557C17.1884 14.3481 17.1808 14.3404 17.1731 14.3327L17.1701 14.3297L17.1501 14.3097C17.1424 14.3031 17.1348 14.2964 17.1271 14.2897L17.1241 14.2867C17.1173 14.2802 17.1103 14.2739 17.1031 14.2677L17.1001 14.2647C17.0933 14.2588 17.0863 14.2532 17.0791 14.2477L17.0761 14.2457L17.0541 14.2277L17.0511 14.2257L17.0281 14.2087L17.0251 14.2067L17.0021 14.1897L16.9991 14.1877L16.9761 14.1717L16.9731 14.1707L16.9491 14.1547L16.9471 14.1527L16.9221 14.1377H16.9201L16.8941 14.1217H16.8921L16.8651 14.1057H16.8641C16.5449 13.9709 16.186 13.9648 15.8624 14.0886C15.5388 14.2124 15.2757 14.4566 15.128 14.77C14.9803 15.0834 14.9596 15.4418 15.0701 15.7702C15.1807 16.0985 15.4139 16.3714 15.7211 16.5317L15.1411 19.1837H17.3351L16.7501 16.5337C17.2521 16.3237 17.5791 15.8337 17.5791 15.2907V15.2907Z" fill="white"/>
</g>
<defs>
<clipPath id="clip0_0_779">
<rect width="32" height="32" fill="white"/>
</clipPath>
</defs>
</svg>
