<svg width="32" height="32" viewBox="0 0 32 32" fill="none" xmlns="http://www.w3.org/2000/svg">
<g clip-path="url(#clip0_0_767)">
<path d="M16 32C24.8366 32 32 24.8366 32 16C32 7.16344 24.8366 0 16 0C7.16344 0 0 7.16344 0 16C0 24.8366 7.16344 32 16 32Z" fill="#2B77B3"/>
<path d="M27.0001 16.039C26.9531 22.147 22.0031 27.045 15.9231 26.999C9.83812 26.954 4.95112 21.982 5.00012 15.887C5.05012 9.85 10.0141 4.96 16.0501 5C22.1301 5.041 27.0441 9.996 27.0001 16.04V16.039ZM5.79612 16.004C5.80712 21.624 10.3541 26.161 15.9851 26.174C21.6221 26.184 26.2211 21.616 26.2021 15.99C26.1811 10.13 21.3271 5.71 15.7401 5.806C10.3381 5.898 5.78512 10.49 5.79612 16.004V16.004ZM18.6811 11.228L18.2741 12.53C17.5161 12.405 16.8141 12.256 16.1031 12.186C15.6811 12.145 15.2431 12.255 15.0801 12.73C14.9121 13.217 14.8921 13.736 15.2951 14.112C15.7091 14.497 16.1951 14.802 16.6491 15.144C17.0661 15.458 17.5251 15.732 17.8891 16.099C18.8761 17.095 19.0511 18.303 18.6461 19.605C18.4061 20.377 17.8341 20.865 17.1021 21.161C15.9821 21.615 14.0751 21.391 13.0041 20.671L13.4741 19.307C14.1561 19.487 14.7801 19.703 15.4221 19.805C16.0341 19.902 16.6751 19.808 16.9891 19.183C17.3051 18.553 17.2051 17.89 16.7101 17.384C16.3281 16.994 15.8491 16.697 15.4021 16.372C15.1041 16.156 14.7711 15.986 14.4811 15.76C13.9188 15.3301 13.5185 14.7226 13.3451 14.0364C13.1717 13.3501 13.2355 12.6254 13.5261 11.98C13.6542 11.6718 13.8547 11.399 14.1106 11.1847C14.3665 10.9704 14.6702 10.821 14.9961 10.749C16.2511 10.451 17.4681 10.586 18.6811 11.229V11.228ZM10.6011 15.818C10.6011 16.1526 10.4691 16.4737 10.2338 16.7115C9.99839 16.9493 9.67869 17.0846 9.34412 17.088C8.64412 17.091 8.04612 16.481 8.06212 15.784C8.0753 15.4496 8.2174 15.1333 8.45863 14.9014C8.69986 14.6695 9.02149 14.54 9.35612 14.54C10.0561 14.55 10.6061 15.115 10.6021 15.818H10.6011ZM22.6941 14.575C23.3921 14.574 23.9121 15.089 23.9211 15.791C23.925 15.9606 23.8948 16.1293 23.8323 16.287C23.7698 16.4448 23.6763 16.5883 23.5574 16.7093C23.4384 16.8302 23.2963 16.9261 23.1396 16.9911C22.9829 17.0562 22.8148 17.0891 22.6451 17.088C22.3103 17.0825 21.9911 16.9452 21.7568 16.706C21.5224 16.4668 21.3918 16.1449 21.3931 15.81C21.3931 15.078 21.9231 14.575 22.6941 14.575Z" fill="white"/>
</g>
<defs>
<clipPath id="clip0_0_767">
<rect width="32" height="32" fill="white"/>
</clipPath>
</defs>
</svg>
