<svg width="32" height="32" viewBox="0 0 32 32" fill="none" xmlns="http://www.w3.org/2000/svg">
<g clip-path="url(#clip0_0_763)">
<path d="M16 32C24.8366 32 32 24.8366 32 16C32 7.16344 24.8366 0 16 0C7.16344 0 0 7.16344 0 16C0 24.8366 7.16344 32 16 32Z" fill="#4BA2F2"/>
<path d="M9.641 8.14324C9.857 8.18024 9.319 9.61325 9.619 11.2502C9.879 12.6532 13.126 18.0862 12.992 19.9502C12.888 21.1202 10.222 23.8652 9.941 23.6822C9.634 23.5972 10.751 21.7322 10.337 20.1782C9.855 18.3662 6.997 13.6822 7 11.6142C7 10.1012 9.448 8.04524 9.64 8.14324H9.641ZM15.75 6.00324C16.024 6.05024 15.34 7.87924 15.722 9.96224C16.052 11.7542 20.195 18.6822 20.023 21.0572C19.889 22.5512 16.491 26.0482 16.131 25.8172C15.741 25.7102 17.165 23.3312 16.637 21.3492C16.024 19.0412 12.379 13.0672 12.382 10.4302C12.382 8.49924 15.504 5.88024 15.75 6.00424V6.00324ZM22.055 8.14324C22.271 8.18024 21.734 9.61325 22.033 11.2502C22.293 12.6532 25.54 18.0862 25.407 19.9502C25.304 21.1202 22.637 23.8652 22.355 23.6822C22.049 23.5972 23.165 21.7322 22.751 20.1782C22.27 18.3662 19.411 13.6822 19.414 11.6142C19.414 10.1012 21.864 8.04524 22.055 8.14324V8.14324Z" fill="white"/>
</g>
<defs>
<clipPath id="clip0_0_763">
<rect width="32" height="32" fill="white"/>
</clipPath>
</defs>
</svg>
