<svg width="32" height="32" viewBox="0 0 32 32" fill="none" xmlns="http://www.w3.org/2000/svg">
<g clip-path="url(#clip0_0_755)">
<path d="M16 32C24.8366 32 32 24.8366 32 16C32 7.16344 24.8366 0 16 0C7.16344 0 0 7.16344 0 16C0 24.8366 7.16344 32 16 32Z" fill="#20EE82"/>
<path fill-rule="evenodd" clip-rule="evenodd" d="M16.5 8C18.7543 8 20.9163 8.89553 22.5104 10.4896C24.1045 12.0837 25 14.2457 25 16.5V25H16.5C14.2457 25 12.0837 24.1045 10.4896 22.5104C8.89553 20.9163 8 18.7543 8 16.5C8 14.2457 8.89553 12.0837 10.4896 10.4896C12.0837 8.89553 14.2457 8 16.5 8V8ZM21.6 21.6V16.577C21.6 13.757 19.345 11.414 16.526 11.4C15.8521 11.3974 15.1843 11.5281 14.5612 11.7848C13.9381 12.0415 13.372 12.419 12.8955 12.8955C12.419 13.372 12.0415 13.9381 11.7848 14.5612C11.5281 15.1843 11.3974 15.8521 11.4 16.526C11.414 19.345 13.758 21.6 16.577 21.6H21.6Z" fill="white"/>
</g>
<defs>
<clipPath id="clip0_0_755">
<rect width="32" height="32" fill="white"/>
</clipPath>
</defs>
</svg>
