<svg width="32" height="32" viewBox="0 0 32 32" fill="none" xmlns="http://www.w3.org/2000/svg">
<g clip-path="url(#clip0_0_737)">
<path d="M16 32C24.8366 32 32 24.8366 32 16C32 7.16344 24.8366 0 16 0C7.16344 0 0 7.16344 0 16C0 24.8366 7.16344 32 16 32Z" fill="#F5342E"/>
<path d="M6.00053 16.1229C5.98913 15.0089 6.1604 13.9006 6.50753 12.8419C6.89945 11.6414 7.51532 10.5261 8.32253 9.55493C9.23837 8.44068 10.3891 7.5426 11.6925 6.92493C12.5563 6.51397 13.4775 6.23647 14.4245 6.10193C14.9938 6.01769 15.5695 5.98556 16.1445 6.00593C17.2802 6.04746 18.3995 6.28987 19.4505 6.72193C19.4665 6.72893 19.4855 6.73593 19.4875 6.75593C19.4895 6.78193 19.4665 6.78993 19.4475 6.79793L19.0875 6.93793C18.3032 7.24259 17.5367 7.59114 16.7915 7.98193C15.9645 8.41893 15.1705 8.90893 14.4335 9.49393C13.7935 10.0029 13.2085 10.5689 12.7335 11.2469C12.4135 11.7029 12.1615 12.1929 12.0235 12.7399C11.8475 13.4319 11.8905 14.1169 12.0905 14.7959C12.2375 15.2979 12.4585 15.7679 12.7025 16.2259C13.0105 16.8059 13.3595 17.3609 13.6805 17.9329C13.9725 18.4529 14.2445 18.9829 14.4245 19.5579C14.5495 19.9589 14.6245 20.3699 14.6165 20.7919C14.6031 21.3392 14.462 21.8758 14.2045 22.3589C13.9015 22.9429 13.4865 23.4349 13.0245 23.8889C12.5975 24.3079 12.1335 24.6769 11.6545 25.0289C11.5845 25.0809 11.5295 25.0789 11.4565 25.0409C10.7587 24.6863 10.1057 24.2495 9.51153 23.7399C8.79097 23.1221 8.1623 22.4045 7.64453 21.6089C6.79446 20.3026 6.25594 18.8184 6.07053 17.2709C6.02106 16.8903 5.99767 16.5067 6.00053 16.1229V16.1229Z" fill="white"/>
<path d="M12 25.3108C12.018 25.2678 12.063 25.2668 12.097 25.2548C12.7957 24.9994 13.483 24.7138 14.157 24.3988C14.947 24.0268 15.716 23.6148 16.444 23.1338C17.0126 22.7644 17.548 22.3462 18.044 21.8838C18.532 21.4238 18.964 20.9198 19.3 20.3398C19.572 19.8698 19.756 19.3688 19.816 18.8278C19.8656 18.3359 19.8191 17.839 19.679 17.3648C19.529 16.8358 19.294 16.3428 19.03 15.8618C18.714 15.2848 18.355 14.7318 18.024 14.1638C17.743 13.6808 17.481 13.1888 17.291 12.6618C17.0995 12.1555 17.0183 11.6141 17.053 11.0738C17.08 10.7038 17.176 10.3478 17.325 10.0058C17.549 9.49182 17.872 9.04282 18.247 8.62882C18.795 8.02182 19.432 7.51882 20.096 7.04482C20.169 6.99182 20.23 6.98582 20.311 7.02682C21.017 7.38082 21.677 7.80282 22.286 8.30382C22.909 8.81682 23.463 9.39382 23.946 10.0368C25.0931 11.5547 25.7778 13.3714 25.918 15.2688C25.94 15.5838 25.96 15.8988 25.951 16.2148C25.9295 17.1345 25.7842 18.047 25.519 18.9278C25.0018 20.6219 24.045 22.1487 22.746 23.3528C21.3134 24.6811 19.5292 25.5696 17.606 25.9128C16.9288 26.0317 16.2414 26.0833 15.554 26.0668C14.3705 26.0366 13.2012 25.8015 12.098 25.3718C12.062 25.3558 12.02 25.3518 12 25.3118V25.3108Z" fill="white"/>
</g>
<defs>
<clipPath id="clip0_0_737">
<rect width="32" height="32" fill="white"/>
</clipPath>
</defs>
</svg>
