<svg width="32" height="32" viewBox="0 0 32 32" fill="none" xmlns="http://www.w3.org/2000/svg">
<g clip-path="url(#clip0_0_733)">
<path d="M16 32C24.8366 32 32 24.8366 32 16C32 7.16344 24.8366 0 16 0C7.16344 0 0 7.16344 0 16C0 24.8366 7.16344 32 16 32Z" fill="#0072FF"/>
<path d="M24.027 13.303L19.215 24H17.292L22.357 12.74C22.9408 12.8347 23.505 13.0249 24.027 13.303V13.303ZM15.607 7.019L8.204 23.478C6.316 22.582 5 20.619 5 18.333C5 15.203 7.462 12.667 10.5 12.667C10.5 9.672 12.754 7.227 15.607 7.019V7.019ZM21.501 12.667L16.402 24H14.319L20.721 9.77C21.214 10.618 21.501 11.606 21.501 12.667V12.667ZM23.395 23.649L26.661 16.393C26.877 17.001 27 17.653 27 18.336C27 20.774 25.5 22.851 23.395 23.649ZM24.837 13.835C25.293 14.195 25.697 14.623 26.023 15.114L22.037 23.972C21.859 23.9909 21.68 24.0002 21.501 24H20.265L24.837 13.835V13.835ZM16.02 7C16.8 7.003 17.539 7.174 18.21 7.481L10.78 24H10.5C9.81 24 9.15 23.864 8.543 23.623L16.02 7ZM20.287 9.118L13.592 24H11.346L18.673 7.715C19.295 8.073 19.843 8.551 20.287 9.118V9.118Z" fill="white"/>
</g>
<defs>
<clipPath id="clip0_0_733">
<rect width="32" height="32" fill="white"/>
</clipPath>
</defs>
</svg>
