<svg width="32" height="32" viewBox="0 0 32 32" fill="none" xmlns="http://www.w3.org/2000/svg">
<g clip-path="url(#clip0_0_729)">
<path d="M16 32C24.8366 32 32 24.8366 32 16C32 7.16344 24.8366 0 16 0C7.16344 0 0 7.16344 0 16C0 24.8366 7.16344 32 16 32Z" fill="#FDA616"/>
<path d="M11.921 22C12.038 22.364 13.486 23.864 14.993 23.864C17.227 23.864 18.532 22.516 18.532 20.566C18.532 18.76 17.628 17.728 15.344 16.724C12.583 15.606 10.876 13.971 10.876 11.247C10.876 8.237 13.06 6 16.348 6C18.08 6 19.835 7.09 20.417 7.818L19.02 9.273C18.468 8.929 17.805 8.064 16.273 8.064C13.964 8.064 13.085 9.641 13.085 10.96C13.085 12.767 14.115 13.656 16.448 14.688C19.31 15.95 20.766 17.527 20.766 20.365C20.766 23.348 18.822 26 14.831 26C13.199 26 11.456 24.91 10.408 23.576L11.921 22ZM13.783 11.697C13.434 10.97 13.667 10.243 13.667 10.243C22.511 8.788 20.882 17.393 20.882 17.393C20.184 16.061 19.486 15.818 19.486 15.818C19.602 10.848 13.783 11.697 13.783 11.697V11.697ZM17.74 19.576C18.09 20.425 17.686 21.308 17.686 21.308C7.61605 22.606 10.336 13.398 10.333 13.398C10.867 14.812 11.531 15.143 11.531 15.143C11.341 20.909 17.74 19.576 17.74 19.576V19.576Z" fill="white"/>
</g>
<defs>
<clipPath id="clip0_0_729">
<rect width="32" height="32" fill="white"/>
</clipPath>
</defs>
</svg>
