<svg width="32" height="32" viewBox="0 0 32 32" fill="none" xmlns="http://www.w3.org/2000/svg">
<g clip-path="url(#clip0_0_725)">
<path d="M16 32C24.8366 32 32 24.8366 32 16C32 7.16344 24.8366 0 16 0C7.16344 0 0 7.16344 0 16C0 24.8366 7.16344 32 16 32Z" fill="#8E9495"/>
<path d="M7.623 20.711C7.39395 20.2171 7.22411 19.6978 7.117 19.164C7.05529 18.8829 7.01616 18.5973 7 18.31H7.894C7.91443 18.541 7.94781 18.7707 7.994 18.998C8.091 19.467 8.237 19.933 8.437 20.358C8.973 21.494 9.787 22.142 10.969 22.142C11.893 22.142 12.609 21.772 13.113 21.12C13.541 20.569 13.783 19.838 13.783 19.224C13.783 18.437 13.485 17.857 12.89 17.366C12.406 16.966 11.849 16.686 10.699 16.208L10.496 16.124C9.3 15.629 8.748 15.357 8.211 14.933C7.469 14.347 7.075 13.62 7.075 12.689C7.075 11.574 7.476 10.629 8.194 9.961C8.87488 9.33774 9.76596 8.99452 10.689 8.99999C11.969 8.99999 12.946 9.53299 13.596 10.467V9.19699H16.484V21.944H17.342V18.367C17.3406 18.3377 17.3406 18.3083 17.342 18.279L18.236 18.309V18.354C18.2536 18.5709 18.2837 18.7866 18.326 19C18.419 19.465 18.563 19.932 18.763 20.357C19.296 21.492 20.111 22.141 21.292 22.141C22.216 22.141 22.932 21.771 23.436 21.119C23.864 20.568 24.106 19.837 24.106 19.223C24.106 18.436 23.808 17.856 23.213 17.365C22.729 16.965 22.172 16.685 21.022 16.207L20.819 16.123C19.623 15.628 19.071 15.356 18.534 14.932C17.792 14.346 17.398 13.619 17.398 12.688C17.398 11.573 17.799 10.628 18.517 9.95999C19.198 9.3371 20.0891 8.99425 21.012 8.99999C22.292 8.99999 23.269 9.53299 23.919 10.467V9.251H24.814V13.673H23.919C23.919 12.749 23.707 11.813 23.29 11.122C22.798 10.305 22.058 9.85899 21.012 9.85899C20.3195 9.85397 19.6507 10.1104 19.139 10.577C18.599 11.081 18.292 11.802 18.292 12.688C18.292 13.348 18.558 13.838 19.102 14.268C19.552 14.623 20.056 14.871 21.173 15.334L21.376 15.418C22.609 15.929 23.22 16.238 23.796 16.713C24.583 17.363 25 18.177 25 19.223C25 20.019 24.698 20.929 24.154 21.633C23.485 22.496 22.508 23 21.292 23C20.449 23 19.726 22.744 19.132 22.27C18.7765 21.9825 18.4734 21.6357 18.236 21.245V22.803H15.59V10.056H14.49V13.673H13.596C13.596 12.749 13.384 11.813 12.967 11.122C12.475 10.305 11.735 9.85899 10.689 9.85899C9.99653 9.85397 9.32766 10.1104 8.816 10.577C8.276 11.081 7.969 11.802 7.969 12.688C7.969 13.348 8.235 13.838 8.779 14.268C9.229 14.623 9.733 14.871 10.85 15.334L11.053 15.418C12.286 15.929 12.897 16.238 13.473 16.713C14.26 17.363 14.677 18.177 14.677 19.223C14.677 20.019 14.375 20.929 13.831 21.633C13.162 22.496 12.185 23 10.969 23C10.126 23 9.403 22.744 8.809 22.27C8.44459 21.9754 8.13487 21.619 7.894 21.217V22.749H7V18.309H7.894V21.217C7.7946 21.0533 7.70414 20.8844 7.623 20.711Z" fill="white"/>
</g>
<defs>
<clipPath id="clip0_0_725">
<rect width="32" height="32" fill="white"/>
</clipPath>
</defs>
</svg>
