<svg width="32" height="32" viewBox="0 0 32 32" fill="none" xmlns="http://www.w3.org/2000/svg">
<g clip-path="url(#clip0_0_721)">
<path d="M16 32C24.8366 32 32 24.8366 32 16C32 7.16344 24.8366 0 16 0C7.16344 0 0 7.16344 0 16C0 24.8366 7.16344 32 16 32Z" fill="#FEC60D"/>
<path d="M26.661 10.141L23.223 8.162C23.105 8.092 22.996 8.031 22.879 7.964C22.765 7.899 22.654 7.829 22.538 7.762C21.849 7.368 21.158 6.986 20.477 6.578L17.211 4.692C17.021 4.577 16.039 4 15.997 4C15.98 4 15.856 4.08 15.829 4.097L11.367 6.667C11.302 6.704 11.257 6.733 11.191 6.769C11.1343 6.80042 11.0783 6.83309 11.023 6.867L10.681 7.067C10.6228 7.10214 10.5641 7.13648 10.505 7.17L10.169 7.364C10.051 7.434 9.94 7.494 9.824 7.561L9.133 7.956C9.073 7.987 9.023 8.02 8.965 8.053L8.101 8.553C7.981 8.623 7.87 8.681 7.753 8.748L7.07 9.151C6.727 9.347 6.383 9.556 6.035 9.745C5.882 9.827 5.079 10.317 5 10.338V23.052C5.064 23.058 5.942 23.581 6.033 23.635L7.409 24.431C7.524 24.501 7.639 24.564 7.753 24.63L8.433 25.022C8.491 25.052 8.543 25.086 8.603 25.119C8.669 25.155 8.712 25.186 8.779 25.219C8.954 25.309 9.122 25.416 9.289 25.517L10.155 26.016C10.215 26.049 10.263 26.078 10.322 26.113C10.66 26.317 11.011 26.5 11.348 26.703L12.555 27.403C13.352 27.874 14.165 28.313 14.958 28.789L15.901 29.335C16.051 29.436 16.106 29.322 16.342 29.193L18.408 28.001C18.522 27.935 18.633 27.871 18.753 27.804L19.09 27.611C19.147 27.58 19.2 27.547 19.257 27.512L21.152 26.415C21.718 26.076 22.302 25.769 22.868 25.429L26.641 23.243C26.696 23.21 26.751 23.177 26.809 23.145C26.869 23.113 26.926 23.068 26.994 23.053V10.338C26.887 10.266 26.776 10.211 26.661 10.141V10.141ZM19.871 22.585H16.656V23.427C16.656 23.437 16.652 23.44 16.642 23.44H15.092V22.585H12.123V20.205C12.123 20.18 12.153 20.159 12.168 20.145L12.469 19.82C12.4779 19.8119 12.4862 19.8032 12.494 19.794C12.5009 19.7844 12.5086 19.7754 12.517 19.767L12.692 19.581L12.694 19.578L12.746 19.525L12.769 19.497L12.825 19.438L12.831 19.431L13.018 19.229C13.058 19.188 13.098 19.149 13.136 19.104L13.138 19.102L13.144 19.094L13.27 18.96C13.288 18.94 13.302 18.929 13.319 18.907L13.471 18.745L13.496 18.72C13.5043 18.7112 13.5119 18.7018 13.519 18.692L13.774 18.42L13.776 18.418L13.782 18.411L13.821 18.371C13.871 18.307 13.961 18.227 14.014 18.163L14.02 18.155C14.037 18.135 14.056 18.121 14.072 18.102L14.171 17.995C14.241 17.925 14.301 17.849 14.371 17.779L14.596 17.537L14.621 17.512L14.719 17.404C14.738 17.385 14.756 17.371 14.771 17.351C14.786 17.331 14.805 17.317 14.822 17.297L14.921 17.19C14.931 17.18 14.939 17.173 14.948 17.162L15.023 17.081C15.038 17.061 15.057 17.047 15.074 17.027C15.118 16.978 15.244 16.849 15.271 16.813C15.287 16.793 15.306 16.781 15.32 16.761C15.2804 16.7125 15.238 16.6664 15.193 16.623L15.095 16.515L15.069 16.49C15.059 16.478 15.056 16.472 15.044 16.46C14.967 16.382 14.896 16.299 14.818 16.22L14.693 16.085C14.6857 16.0754 14.6777 16.0663 14.669 16.058L13.519 14.824C13.5113 14.8135 13.503 14.8035 13.494 14.794L13.324 14.611L13.322 14.609L12.945 14.203C12.937 14.193 12.929 14.187 12.92 14.178L12.82 14.068C12.752 13.998 12.687 13.922 12.618 13.853L12.596 13.829L12.594 13.827L12.52 13.746C12.486 13.709 12.45 13.675 12.417 13.638C12.406 13.626 12.404 13.62 12.392 13.608C12.324 13.539 12.262 13.464 12.192 13.396C12.184 13.386 12.176 13.38 12.168 13.371C12.159 13.361 12.123 13.326 12.123 13.315V10.926H15.091V9.934C15.613 9.934 16.129 9.944 16.651 9.944V10.894C16.651 10.905 16.654 10.909 16.665 10.909H19.871V13.32H15.448C15.474 13.36 15.514 13.393 15.545 13.429L15.791 13.699C15.806 13.719 15.822 13.733 15.839 13.753C15.881 13.803 15.928 13.846 15.969 13.896L16.327 14.289C16.397 14.357 16.457 14.434 16.524 14.504L17.437 15.507L17.443 15.515L17.77 15.875L17.795 15.899C17.839 15.943 17.875 15.993 17.919 16.037L18.507 16.68C18.531 16.706 18.557 16.73 18.577 16.76C18.568 16.774 18.561 16.778 18.55 16.79C18.5429 16.7995 18.5352 16.8085 18.527 16.817L18.404 16.95C18.3969 16.9595 18.3892 16.9685 18.381 16.977L18.086 17.3C18.066 17.319 18.056 17.335 18.036 17.354C17.996 17.394 17.936 17.469 17.889 17.514L17.683 17.743C17.642 17.792 17.532 17.901 17.499 17.943L17.206 18.263C17.143 18.34 17.072 18.406 17.008 18.482L16.888 18.612C16.828 18.673 16.776 18.738 16.718 18.8C16.708 18.81 16.7 18.817 16.691 18.828C16.623 18.905 16.549 18.978 16.482 19.058L16.472 19.07L16.215 19.349L16.209 19.356L16.2 19.366L16.198 19.369L16.08 19.499C16.0717 19.5071 16.064 19.5157 16.057 19.525C16.0493 19.5342 16.0409 19.5429 16.032 19.551C15.981 19.601 15.937 19.661 15.886 19.711C15.8778 19.7195 15.8701 19.7285 15.863 19.738L15.765 19.846C15.757 19.856 15.749 19.862 15.74 19.871L15.448 20.193H19.748C19.789 20.193 19.871 20.183 19.871 20.206V22.586V22.585Z" fill="white"/>
</g>
<defs>
<clipPath id="clip0_0_721">
<rect width="32" height="32" fill="white"/>
</clipPath>
</defs>
</svg>
