<svg width="32" height="32" viewBox="0 0 32 32" fill="none" xmlns="http://www.w3.org/2000/svg">
<g clip-path="url(#clip0_0_709)">
<path d="M16 32C24.8366 32 32 24.8366 32 16C32 7.16344 24.8366 0 16 0C7.16344 0 0 7.16344 0 16C0 24.8366 7.16344 32 16 32Z" fill="#5B6DEE"/>
<path d="M13.3 15.202C12.7421 15.1991 12.1851 15.2473 11.636 15.346C12.088 11.166 15.572 8 19.72 8C22.26 8 24 9.244 24 11.818C24 14.393 21.911 15.637 18.864 15.637C16.614 15.637 15.55 15.203 13.3 15.203V15.202ZM13.136 16.727C10.089 16.727 8 17.972 8 20.546C8 23.12 9.74 24.364 12.28 24.364C16.428 24.364 19.912 21.199 20.364 17.018C19.8149 17.1167 19.2579 17.1649 18.7 17.162C16.45 17.162 15.385 16.727 13.136 16.727" fill="white"/>
</g>
<defs>
<clipPath id="clip0_0_709">
<rect width="32" height="32" fill="white"/>
</clipPath>
</defs>
</svg>
