<svg width="32" height="32" viewBox="0 0 32 32" fill="none" xmlns="http://www.w3.org/2000/svg">
<g clip-path="url(#clip0_0_703)">
<path d="M16 32C24.8366 32 32 24.8366 32 16C32 7.16344 24.8366 0 16 0C7.16344 0 0 7.16344 0 16C0 24.8366 7.16344 32 16 32Z" fill="#199248"/>
<path d="M16 4C9.373 4 4 9.373 4 16C4 22.627 9.373 28 16 28C22.627 28 28 22.627 28 16C28 12.8174 26.7357 9.76516 24.4853 7.51472C22.2348 5.26428 19.1826 4 16 4V4ZM18.743 26.236C17.3625 26.6039 15.9219 26.6888 14.5078 26.4856C13.0937 26.2824 11.7352 25.7954 10.5142 25.0538C9.29308 24.3122 8.23459 23.3313 7.40232 22.1701C6.57005 21.0089 5.9812 19.6914 5.67116 18.2968C5.36112 16.9022 5.3363 15.4593 5.5982 14.0549C5.86009 12.6504 6.40329 11.3134 7.19514 10.1243C7.98698 8.93521 9.01111 7.91849 10.206 7.13532C11.4008 6.35214 12.7417 5.81868 14.148 5.567C16.8364 5.09199 19.6044 5.67285 21.875 7.18851C24.1457 8.70417 25.7438 11.0377 26.3363 13.7027C26.9287 16.3676 26.4698 19.1584 25.0552 21.4934C23.6406 23.8283 21.3794 25.5272 18.743 26.236Z" fill="white"/>
<path d="M19.1282 7.4747C19.1282 7.9917 19.1282 8.5077 19.1482 9.0247C18.4566 8.75633 17.7366 8.56778 17.0022 8.4627C16.9722 7.9937 17.1062 7.4787 16.9692 7.0337C16.446 6.9964 15.9211 6.99006 15.3972 7.0147C15.3712 7.4967 15.3812 7.9807 15.3972 8.4647C14.6625 8.57461 13.9426 8.76717 13.2512 9.0387C13.2662 8.5167 13.2712 7.9957 13.2642 7.4727C11.4387 8.08735 9.85226 9.25944 8.7284 10.8237C7.60454 12.388 7 14.2656 7 16.1917C7 18.1178 7.60454 19.9954 8.7284 21.5597C9.85226 23.124 11.4387 24.296 13.2642 24.9107C13.2642 24.3987 13.2592 23.8887 13.2492 23.3787C13.9354 23.6473 14.6516 23.8316 15.3822 23.9277C15.3822 24.3967 15.3822 24.8657 15.3542 25.3297C15.9142 25.4097 16.4822 25.4097 17.0422 25.3297C17.0167 24.8678 17.0033 24.4053 17.0022 23.9427C17.7332 23.8399 18.4508 23.6575 19.1422 23.3987C19.1263 23.9052 19.1263 24.4122 19.1422 24.9187C20.9669 24.3027 22.5522 23.1295 23.6748 21.5647C24.7974 19.9998 25.4006 18.1221 25.3994 16.1962C25.3982 14.2704 24.7926 12.3934 23.668 10.83C22.5435 9.26654 20.9566 8.09542 19.1312 7.4817L19.1292 7.4747H19.1282ZM20.4982 21.4097C19.2902 22.5047 17.5742 22.7637 15.9982 22.7407C14.6152 22.7407 13.1512 22.3657 12.1522 21.3647C11.6222 20.8527 11.3222 20.1687 11.0532 19.4897C12.0192 19.2397 13.0162 19.1557 13.9892 18.9477C14.0497 19.2419 14.1868 19.5149 14.3866 19.7391C14.5864 19.9634 14.8419 20.1309 15.1272 20.2247C16.0102 20.5007 17.1042 20.5397 17.8402 19.9097C18.3622 19.4767 18.3772 18.5297 17.7302 18.2057C16.2132 17.4217 14.3232 17.6877 12.8892 16.6957C10.9142 15.4507 10.7682 12.1487 12.7012 10.8047C14.1792 9.7677 16.1552 9.6387 17.8692 10.0547C19.4192 10.4467 20.5242 11.7607 21.0562 13.2157C20.1022 13.3807 19.1492 13.5497 18.1952 13.7107C17.9442 12.1957 15.8232 11.8357 14.7692 12.7187C14.1692 13.2177 14.3232 14.2807 15.0732 14.5467C16.7132 15.2267 18.6832 15.0307 20.1362 16.1687C21.8232 17.3127 21.9992 20.0447 20.4972 21.4087L20.4982 21.4097Z" fill="white"/>
</g>
<defs>
<clipPath id="clip0_0_703">
<rect width="32" height="32" fill="white"/>
</clipPath>
</defs>
</svg>
