<svg width="32" height="32" viewBox="0 0 32 32" fill="none" xmlns="http://www.w3.org/2000/svg">
<g clip-path="url(#clip0_0_691)">
<path d="M16 32C24.8366 32 32 24.8366 32 16C32 7.16344 24.8366 0 16 0C7.16344 0 0 7.16344 0 16C0 24.8366 7.16344 32 16 32Z" fill="#1C1C1C"/>
<path d="M15.715 13.433C16.021 13.558 16.327 13.495 16.572 13.433C16.756 14.057 17.062 14.618 17.367 14.867C17.184 16.427 16.633 16.988 16.021 16.988C15.165 16.988 14.736 15.179 14.736 14.868C14.92 14.743 15.471 14.368 15.716 13.433H15.715ZM14.797 18.922C15.165 18.61 15.409 18.111 15.715 17.3C15.96 17.425 16.327 17.362 16.572 17.3C16.756 18.173 16.939 18.735 17.367 18.984C17.245 19.982 16.633 20.668 16.082 20.668C15.287 20.668 14.92 19.421 14.797 18.922V18.922ZM9.90204 20.855C10.147 20.543 10.147 20.045 10.025 19.109C10.208 19.171 10.392 19.171 10.515 19.109C10.881 19.982 11.187 20.543 11.677 20.855C11.738 21.292 11.677 21.791 11.493 21.853C10.82 22.165 10.208 21.354 9.90303 20.855H9.90204ZM7.33203 19.171C7.45503 19.171 7.51603 19.171 7.63803 19.234C8.06703 20.356 8.80103 20.98 8.80103 20.98C9.04603 21.479 9.16804 21.978 8.98404 21.978C8.43404 22.04 8.00503 21.666 7.57703 20.855C7.63803 20.668 7.57703 20.543 7.33203 19.171V19.171ZM5.68003 19.171C6.29203 21.791 7.45503 21.666 7.39403 21.541C7.14903 21.105 6.90403 20.918 6.65903 20.731C6.10903 20.169 5.68003 18.984 5.68003 19.171V19.171ZM13.145 20.855C13.574 20.543 13.635 19.857 13.696 18.985C13.941 19.046 14.246 19.046 14.43 18.985C14.553 19.545 14.736 20.356 15.287 20.731C15.226 21.417 15.042 21.791 14.614 21.853C14.308 21.978 13.451 21.978 13.145 20.855V20.855ZM7.88303 18.922C8.12803 18.61 8.18903 18.111 8.25003 17.425C8.43403 17.487 8.67904 17.487 8.80003 17.425C8.98404 18.235 9.29003 18.735 9.65803 18.985C9.78003 20.294 9.65803 20.731 9.41303 20.731C8.86303 20.731 8.12803 19.545 7.88303 18.921V18.922ZM5.98603 18.922C5.98603 18.797 6.04703 17.986 6.10903 17.425H6.35303C6.65903 18.61 7.08803 18.985 7.08803 18.985C7.39403 20.419 7.39403 20.793 7.14803 20.668C6.59803 20.481 6.17003 19.421 5.98603 18.922ZM10.881 18.922C11.187 18.672 11.371 18.236 11.493 17.425C11.799 17.549 12.105 17.487 12.289 17.425C12.472 18.235 12.779 18.735 13.207 18.985C13.207 19.67 13.145 20.793 12.289 20.605C11.554 20.419 10.943 19.171 10.881 18.922ZM10.331 18.735C9.59604 18.735 9.16804 17.549 9.16804 17.175C9.53504 16.801 9.71804 16.115 9.90204 14.93C10.025 14.992 10.208 14.992 10.392 14.93C10.453 16.24 10.82 16.801 11.126 17.113C11.004 18.173 10.698 18.735 10.331 18.735ZM6.53703 17.175C6.65903 16.925 6.65903 16.863 7.02703 14.93H7.33203C7.33203 16.24 7.69903 16.863 7.88303 17.113C7.82203 17.799 7.94403 18.735 7.39303 18.735C7.14903 18.735 6.84303 18.423 6.53703 17.175ZM5.31303 14.992C5.49703 15.055 5.37403 16.676 5.61903 17.238C5.61903 17.238 5.61903 18.797 5.49703 18.672C4.57903 17.549 5.19103 14.93 5.31303 14.992ZM12.656 17.175C13.084 16.863 13.329 16.177 13.696 14.93C13.941 14.992 14.246 14.992 14.43 14.93C14.553 15.865 14.797 16.552 15.287 17.05C15.165 18.048 14.675 18.735 14.063 18.735C13.084 18.735 12.717 17.362 12.656 17.175V17.175ZM7.63803 14.743C8.12803 14.556 8.43403 13.495 8.49503 13.37C8.56236 13.4304 8.64961 13.4638 8.74003 13.4638C8.83046 13.4638 8.91771 13.4304 8.98503 13.37C8.98503 14.181 9.22903 14.556 9.41303 14.68C9.22903 15.74 8.98403 16.988 8.43303 16.988C7.94403 16.988 7.69903 15.865 7.63803 14.743V14.743ZM6.10803 17.05C5.68003 17.05 5.55803 15.429 5.68003 14.743C5.68003 14.743 6.04703 14.181 6.29203 13.37C6.35303 13.37 6.47603 13.433 6.53703 13.37C6.47603 14.181 6.59803 14.556 6.72003 14.743C6.72003 14.743 6.41503 17.05 6.10903 17.05H6.10803ZM10.759 14.743C11.004 14.618 11.493 13.932 11.738 13.308C11.983 13.433 12.228 13.433 12.533 13.37C12.656 14.057 12.839 14.493 13.268 14.743C13.084 15.865 12.717 16.988 11.922 16.988C11.187 16.988 10.82 15.491 10.759 14.743V14.743ZM11.309 13.059C10.943 14.057 10.575 14.618 10.086 14.618C9.47404 14.618 9.41303 13.308 9.41303 13.183C9.90303 12.809 10.269 12.061 10.575 11.437H11.004C10.881 12.372 11.126 12.809 11.31 13.059H11.309ZM8.31103 11.499C8.00503 12.372 8.12804 12.809 8.25104 13.121C7.76104 14.368 7.51603 14.681 7.14903 14.681C6.78203 14.618 6.78203 13.869 6.90403 13.246C7.27103 12.996 8.06704 11.562 8.06704 11.499H8.31103ZM6.53703 11.562C6.72003 11.499 6.04703 12.435 6.10903 12.872C6.16903 13.495 5.43503 14.556 5.37403 14.493C5.13003 14.431 5.61903 12.185 6.53703 11.562ZM15.226 13.059C15.042 13.745 14.797 14.618 13.757 14.618C13.207 14.556 12.901 13.808 12.778 13.183C13.39 12.747 13.696 11.998 13.88 11.437C14.063 11.499 14.37 11.499 14.553 11.437C14.675 12.372 14.981 12.809 15.226 13.059V13.059ZM6.90403 11.374C7.02603 11.312 7.82203 10.252 8.25003 10.252C8.49503 10.314 7.82203 10.938 7.88303 11.25C7.69903 11.562 6.84303 13.12 6.53703 13.12C6.29203 13.12 6.29203 12.31 6.90403 11.374ZM21.957 19.109C21.895 20.044 21.895 20.543 22.079 20.855C21.834 21.355 21.161 22.103 20.489 21.853C20.243 21.791 20.243 21.292 20.304 20.855C20.855 20.543 21.222 19.92 21.467 19.109C21.589 19.171 21.773 19.171 21.957 19.109ZM24.404 19.109C24.465 19.171 24.588 19.171 24.71 19.046C24.465 20.419 24.404 20.543 24.465 20.731C24.037 21.541 23.609 21.853 23.058 21.853C22.813 21.853 22.936 21.417 23.242 20.855C23.242 20.855 23.976 20.232 24.404 19.109ZM25.384 20.731C25.138 20.98 24.894 21.105 24.71 21.541C24.649 21.666 25.812 21.791 26.423 19.171C26.301 18.984 25.933 20.169 25.383 20.731H25.384ZM18.346 19.109C18.346 19.857 18.53 20.543 18.897 20.98C18.591 22.04 17.735 22.04 17.429 21.978C17 21.853 16.878 21.479 16.756 20.855C17.245 20.419 17.49 19.67 17.612 19.109C17.857 19.171 18.102 19.171 18.346 19.109V19.109ZM23.853 17.362C23.853 18.111 23.915 18.61 24.221 18.859C23.976 19.483 23.181 20.669 22.691 20.669C22.446 20.669 22.324 20.232 22.446 18.922C22.813 18.672 23.119 18.048 23.303 17.362C23.387 17.4091 23.4817 17.4339 23.578 17.4339C23.6743 17.4339 23.769 17.4091 23.853 17.362V17.362ZM26.056 17.487C26.056 17.987 26.056 18.797 26.179 18.984C25.934 19.484 25.506 20.544 25.016 20.731C24.71 20.793 24.771 20.419 25.077 19.046C25.077 19.046 25.506 18.61 25.812 17.487H26.056ZM20.61 17.362C20.733 18.236 20.855 18.672 21.222 18.859C21.162 19.171 20.488 20.419 19.815 20.543C18.958 20.731 18.897 19.545 18.897 18.922C19.325 18.672 19.631 18.111 19.815 17.362C19.999 17.425 20.305 17.487 20.61 17.362V17.362ZM22.936 17.175C22.874 17.549 22.385 18.735 21.773 18.735C21.406 18.735 21.1 18.111 20.978 17.113C21.284 16.863 21.651 16.24 21.712 14.93C21.8694 14.9925 22.0447 14.9925 22.202 14.93C22.446 16.053 22.63 16.801 22.936 17.175V17.175ZM25.077 14.93C25.383 16.863 25.444 16.926 25.567 17.175C25.261 18.36 24.955 18.735 24.71 18.735C24.16 18.735 24.282 17.737 24.22 17.113C24.465 16.863 24.771 16.24 24.771 14.93C24.894 14.992 24.955 14.93 25.077 14.93ZM26.362 17.175C26.668 16.676 26.546 15.055 26.668 14.93C26.852 14.867 27.402 17.612 26.485 18.61C26.362 18.735 26.362 17.175 26.362 17.175ZM18.53 14.93C18.714 16.177 19.02 16.863 19.57 17.175C19.509 17.362 19.02 18.735 18.163 18.735C17.49 18.797 17.123 17.986 16.939 17.05C17.367 16.552 17.673 15.865 17.796 14.93C17.918 14.992 18.224 14.992 18.53 14.93ZM23.609 13.37C23.609 13.495 23.976 14.556 24.404 14.867C24.404 15.927 24.098 17.113 23.609 17.113C23.058 17.113 22.813 15.928 22.629 14.805C22.813 14.618 23.058 14.181 23.058 13.433C23.1478 13.4687 23.245 13.4817 23.341 13.4707C23.4369 13.4597 23.5287 13.4251 23.608 13.37H23.609ZM26.362 14.743C26.423 15.429 26.301 17.05 25.995 16.988C25.689 16.988 25.383 14.68 25.383 14.68C25.506 14.493 25.628 14.057 25.567 13.37C25.6006 13.4003 25.6443 13.4171 25.6895 13.4171C25.7348 13.4171 25.7784 13.4003 25.812 13.37C26.056 14.181 26.362 14.743 26.362 14.743V14.743ZM20.366 13.37C20.61 13.932 21.039 14.618 21.406 14.805C21.345 15.554 20.916 17.05 20.243 17.05C19.325 17.113 19.081 15.99 18.897 14.805C19.264 14.555 19.509 14.057 19.57 13.433C19.815 13.495 20.12 13.495 20.366 13.37ZM21.896 14.556C21.467 14.618 21.1 14.056 20.672 13.059C20.916 12.809 21.1 12.31 20.978 11.437C21.161 11.499 21.284 11.499 21.406 11.437C21.773 12.123 22.14 12.809 22.568 13.121C22.568 13.308 22.508 14.556 21.895 14.556H21.896ZM23.853 13.059C23.915 12.809 24.037 12.372 23.67 11.437H23.915C23.915 11.499 24.771 12.997 25.077 13.183C25.2 13.869 25.2 14.556 24.832 14.618C24.527 14.618 24.282 14.306 23.853 13.058V13.059ZM25.933 12.871C25.995 12.435 25.383 11.499 25.444 11.561C26.424 12.185 26.791 14.431 26.607 14.493C26.546 14.556 25.873 13.433 25.934 12.871H25.933ZM18.163 14.556C17.245 14.618 17 13.745 16.817 13.059C17.123 12.871 17.429 12.31 17.49 11.437C17.673 11.499 17.98 11.499 18.163 11.437C18.346 11.998 18.653 12.747 19.142 13.121C19.081 13.869 18.775 14.493 18.162 14.556H18.163ZM23.853 10.252C24.159 10.252 25.077 11.312 25.138 11.374C25.812 12.372 25.812 13.121 25.567 13.121C25.2 13.121 24.404 11.561 24.221 11.25C24.281 10.938 23.609 10.252 23.853 10.252ZM10.269 10.439C10.147 10.813 10.086 11.187 10.269 11.374C9.90203 12.123 9.29004 13.184 8.73904 13.121C8.12804 12.996 8.61703 11.561 8.67903 11.437C9.04603 11.25 9.90203 10.065 10.209 10.065C10.392 10.127 10.269 10.439 10.269 10.439V10.439ZM13.145 10.377C13.145 10.751 13.207 11.187 13.512 11.374C13.268 12.123 12.778 13.121 11.982 13.059C11.432 12.996 11.31 12.061 11.432 11.374C11.982 11.187 12.472 10.002 12.839 10.002C13.145 10.002 13.145 10.314 13.145 10.377V10.377ZM21.835 11.374C21.957 11.187 21.957 10.814 21.835 10.439C21.835 10.377 21.712 10.065 21.895 10.065C22.201 10.065 23.058 11.25 23.425 11.437C23.486 11.562 23.975 12.997 23.364 13.121C22.752 13.183 22.201 12.061 21.834 11.374H21.835ZM18.591 11.374C18.836 11.187 18.897 10.751 18.958 10.377C18.958 10.314 18.958 10.002 19.264 10.002C19.57 9.94001 20.182 11.187 20.672 11.374C20.855 12.185 20.732 12.996 20.121 13.059C19.264 13.183 18.836 12.061 18.591 11.374V11.374ZM16.021 10.002C16.633 10.002 16.633 11.187 17.123 11.437C17.123 11.749 16.939 13.121 15.96 13.121C15.103 13.121 14.92 11.998 14.859 11.437C15.593 11.125 15.349 10.002 16.021 10.002Z" fill="white"/>
</g>
<defs>
<clipPath id="clip0_0_691">
<rect width="32" height="32" fill="white"/>
</clipPath>
</defs>
</svg>
