<svg width="32" height="32" viewBox="0 0 32 32" fill="none" xmlns="http://www.w3.org/2000/svg">
<g clip-path="url(#clip0_0_675)">
<path d="M16 32C24.8366 32 32 24.8366 32 16C32 7.16344 24.8366 0 16 0C7.16344 0 0 7.16344 0 16C0 24.8366 7.16344 32 16 32Z" fill="#2683FF"/>
<path d="M24.977 18.971C25.3966 19.2227 25.7016 19.6281 25.8273 20.101C25.9529 20.5739 25.8893 21.0772 25.65 21.504C25.136 22.406 23.968 22.726 23.049 22.222C22.959 22.173 22.881 22.115 22.801 22.057L17.875 24.841C17.887 24.931 17.894 25.022 17.895 25.113C17.895 25.22 17.895 25.317 17.875 25.423C17.707 26.443 16.728 27.141 15.689 26.976C14.651 26.811 13.939 25.85 14.107 24.832L9.15001 22.028C9.07326 22.083 8.99419 22.1347 8.91301 22.183C8.83301 22.222 8.75401 22.27 8.66501 22.299C8.19771 22.4863 7.67553 22.4824 7.21106 22.2882C6.74658 22.094 6.37701 21.7251 6.18201 21.261C5.78701 20.301 6.26201 19.214 7.24101 18.826V13.218C7.15112 13.189 7.06488 13.1498 6.98401 13.101C6.90984 13.055 6.83714 13.0066 6.76601 12.956C6.49652 12.7602 6.28455 12.4956 6.15227 12.1899C6.01999 11.8841 5.97224 11.5485 6.01401 11.218C6.05828 10.8867 6.19001 10.5732 6.39564 10.3098C6.60128 10.0463 6.87341 9.84239 7.18401 9.719C7.49678 9.5929 7.83699 9.55038 8.17118 9.59561C8.50536 9.64085 8.82202 9.77229 9.09001 9.977L14.096 7.134C14.086 7.047 14.076 6.97 14.076 6.882C14.076 5.854 14.956 5 16.005 5C17.053 5 17.913 5.834 17.914 6.872C17.914 6.96 17.904 7.037 17.894 7.125L22.939 9.987C23.1583 9.82634 23.4089 9.71365 23.6746 9.65626C23.9403 9.59887 24.2151 9.59807 24.4811 9.65392C24.7471 9.70976 24.9984 9.821 25.2185 9.98038C25.4387 10.1398 25.6229 10.3437 25.759 10.579C26.272 11.481 25.936 12.626 25.016 13.131C24.927 13.169 24.838 13.218 24.749 13.247V18.865C24.828 18.895 24.904 18.93 24.976 18.971H24.977ZM25.324 21.319C25.4217 21.1577 25.4862 20.9786 25.5137 20.792C25.5412 20.6055 25.5311 20.4153 25.4841 20.2327C25.437 20.0501 25.354 19.8788 25.2397 19.7287C25.1255 19.5787 24.9825 19.453 24.819 19.359C24.5497 19.2037 24.238 19.138 23.9289 19.1712C23.6198 19.2045 23.3292 19.335 23.099 19.544L20.833 18.254C21.1042 17.7061 21.1654 17.078 21.0051 16.488C20.8449 15.8981 20.4742 15.3873 19.963 15.052C19.8994 14.8379 19.8164 14.63 19.715 14.431L23.138 12.529C23.494 12.859 23.995 12.994 24.473 12.889C24.6592 12.8488 24.8356 12.772 24.9918 12.6631C25.1481 12.5542 25.2812 12.4153 25.3833 12.2546C25.4855 12.0938 25.5547 11.9144 25.5869 11.7266C25.6191 11.5389 25.6137 11.3466 25.571 11.161C25.393 10.385 24.601 9.91 23.811 10.084C23.6248 10.1241 23.4485 10.2007 23.2922 10.3095C23.1359 10.4183 23.0027 10.5571 22.9005 10.7178C22.7983 10.8784 22.7289 11.0578 22.6966 11.2455C22.6642 11.4331 22.6695 11.6254 22.712 11.811L19.25 13.742C18.578 12.956 16.441 12.432 16.441 12.432V8.153C16.6548 8.09154 16.85 7.97782 17.0088 7.82209C17.1677 7.66636 17.2853 7.47354 17.351 7.261C17.4026 7.09162 17.4198 6.91367 17.4018 6.73754C17.3839 6.56141 17.331 6.39062 17.2462 6.23516C17.1615 6.07969 17.0467 5.94266 16.9084 5.83206C16.7702 5.72146 16.6113 5.63952 16.441 5.591C15.719 5.378 14.957 5.766 14.739 6.475C14.6876 6.64432 14.6705 6.82217 14.6885 6.99819C14.7066 7.17421 14.7595 7.34487 14.8442 7.50022C14.9289 7.65557 15.0437 7.7925 15.1819 7.90303C15.3201 8.01356 15.4789 8.09548 15.649 8.144V12.51C15.649 12.51 14.483 12.888 14.028 13.256C13.5447 13.2671 13.0706 13.3904 12.643 13.616L9.38801 11.782C9.44286 11.5529 9.43899 11.3136 9.37676 11.0863C9.31453 10.8591 9.19595 10.6512 9.03201 10.482C8.76694 10.2025 8.40245 10.0387 8.01747 10.0259C7.63248 10.0132 7.25797 10.1526 6.97501 10.414C6.83489 10.5411 6.72168 10.695 6.64208 10.8667C6.56248 11.0383 6.5181 11.2241 6.51158 11.4132C6.50505 11.6023 6.53651 11.7908 6.60408 11.9675C6.67166 12.1442 6.77399 12.3055 6.90501 12.442C7.17026 12.7215 7.53491 12.8854 7.92006 12.8981C8.30522 12.9109 8.67989 12.7714 8.96301 12.51L11.901 14.159C11.3857 14.6602 11.0681 15.3302 11.0064 16.0464C10.9447 16.7626 11.143 17.4771 11.565 18.059L8.98301 19.524C8.80405 19.3609 8.58804 19.2439 8.35369 19.1831C8.11933 19.1223 7.87369 19.1195 7.63801 19.175C7.45191 19.2165 7.2759 19.2945 7.12019 19.4046C6.96448 19.5146 6.83218 19.6545 6.73097 19.8161C6.62975 19.9777 6.56164 20.1578 6.53058 20.3459C6.49951 20.534 6.50612 20.7264 6.55001 20.912C6.73901 21.686 7.53101 22.163 8.32001 21.978C8.50601 21.9365 8.68192 21.8585 8.83755 21.7485C8.99318 21.6385 9.12543 21.4987 9.22663 21.3373C9.32784 21.1758 9.39598 20.9958 9.42712 20.8078C9.45825 20.6198 9.45176 20.4275 9.40801 20.242L12.168 18.68C12.878 19.243 13.805 19.467 14.7 19.291C14.976 19.417 15.26 19.524 15.55 19.611V23.687C15.3539 23.7478 15.1717 23.8467 15.014 23.9782C14.8563 24.1097 14.7261 24.271 14.631 24.453C14.5411 24.6299 14.4875 24.823 14.4732 25.021C14.4589 25.2189 14.4844 25.4177 14.548 25.6057C14.6116 25.7937 14.7121 25.967 14.8437 26.1156C14.9752 26.2642 15.1351 26.385 15.314 26.471C15.374 26.501 15.433 26.529 15.502 26.549C15.512 26.549 15.522 26.559 15.532 26.559C16.342 26.801 17.204 26.364 17.451 25.569C17.5101 25.3791 17.5308 25.1793 17.5119 24.9813C17.493 24.7833 17.4348 24.591 17.3408 24.4158C17.2468 24.2405 17.1188 24.0857 16.9643 23.9604C16.8098 23.8351 16.6319 23.7418 16.441 23.686V19.69C16.441 19.69 17.183 19.622 17.529 19.515C18.494 19.895 19.598 19.67 20.329 18.943L22.643 20.273C22.5719 20.5722 22.6001 20.8864 22.7233 21.1682C22.8465 21.45 23.0581 21.684 23.326 21.835C23.6607 22.0256 24.0564 22.0784 24.4294 21.9823C24.8023 21.8862 25.1232 21.6486 25.324 21.32V21.319ZM7.98401 19.961C8.20401 19.962 8.40601 20.076 8.51801 20.261C8.56849 20.3538 8.5956 20.4574 8.59701 20.563C8.59517 20.7239 8.52961 20.8775 8.4147 20.9902C8.2998 21.1028 8.14492 21.1653 7.98401 21.164C7.82293 21.1656 7.6678 21.1032 7.55268 20.9905C7.43756 20.8778 7.37186 20.7241 7.37001 20.563C7.37001 20.23 7.64501 19.961 7.98401 19.961V19.961ZM16.649 6.873C16.6464 7.03383 16.5804 7.18713 16.4655 7.29965C16.3505 7.41216 16.1959 7.47481 16.035 7.474C15.8741 7.47533 15.7192 7.41282 15.6043 7.30017C15.4894 7.18752 15.4239 7.03391 15.422 6.873C15.422 6.54 15.697 6.271 16.035 6.271C16.375 6.271 16.649 6.541 16.649 6.873ZM24.127 12.093C23.9664 12.0928 23.8123 12.0296 23.6977 11.9171C23.5831 11.8045 23.5172 11.6516 23.514 11.491C23.514 11.159 23.789 10.889 24.127 10.889C24.467 10.889 24.741 11.159 24.741 11.491C24.7392 11.6521 24.6735 11.8058 24.5583 11.9185C24.4432 12.0312 24.2881 12.0936 24.127 12.092V12.093ZM8.27001 10.937C8.33953 10.9745 8.40078 11.0256 8.4501 11.0873C8.49942 11.149 8.53581 11.22 8.55709 11.2961C8.57837 11.3721 8.58411 11.4517 8.57396 11.5301C8.56381 11.6084 8.53798 11.6839 8.49801 11.752C8.41709 11.8914 8.28424 11.9932 8.12853 12.035C7.97281 12.0768 7.80688 12.0552 7.66701 11.975C7.59729 11.9377 7.53584 11.8867 7.48636 11.825C7.43688 11.7633 7.40039 11.6923 7.37908 11.6162C7.35778 11.54 7.35211 11.4603 7.36241 11.382C7.37271 11.3036 7.39877 11.2281 7.43901 11.16C7.51994 11.0206 7.65278 10.9188 7.8085 10.877C7.96422 10.8352 8.13015 10.8568 8.27001 10.937V10.937ZM24.374 20.077C24.4434 20.1145 24.5045 20.1656 24.5538 20.2272C24.603 20.2888 24.6393 20.3597 24.6606 20.4357C24.6819 20.5116 24.6876 20.5911 24.6776 20.6693C24.6675 20.7475 24.6418 20.8229 24.602 20.891C24.5453 20.982 24.4665 21.0573 24.373 21.11C24.2795 21.1626 24.1743 21.1908 24.067 21.192C23.9591 21.1938 23.8526 21.1672 23.7582 21.1149C23.6637 21.0626 23.5847 20.9865 23.529 20.894C23.4742 20.8022 23.4453 20.6974 23.4453 20.5905C23.4453 20.4836 23.4742 20.3788 23.529 20.287C23.5847 20.1945 23.6637 20.1184 23.7582 20.0661C23.8526 20.0138 23.9591 19.9872 24.067 19.989C24.1749 19.9925 24.2803 20.0223 24.374 20.076V20.077ZM15.422 25.092C15.423 25.0844 15.4265 25.0773 15.432 25.072C15.459 24.9148 15.5467 24.7745 15.6761 24.6814C15.8055 24.5882 15.9664 24.5497 16.124 24.574C16.2817 24.5951 16.4245 24.678 16.521 24.8044C16.6176 24.9308 16.66 25.0903 16.639 25.248C16.6094 25.3937 16.53 25.5247 16.4146 25.6184C16.2991 25.7121 16.1547 25.7629 16.006 25.762C15.923 25.7584 15.8415 25.738 15.7666 25.702C15.6916 25.6659 15.6248 25.615 15.5702 25.5523C15.5156 25.4897 15.4743 25.4165 15.4488 25.3374C15.4233 25.2583 15.4142 25.1748 15.422 25.092V25.092ZM18.944 15.807C19.2381 15.8974 19.4952 16.0804 19.677 16.3287C19.8588 16.577 19.9556 16.8773 19.953 17.185C19.953 17.234 19.943 17.283 19.943 17.331C19.933 17.37 19.933 17.409 19.923 17.447V17.477C19.903 17.564 19.883 17.651 19.843 17.738C19.7333 18.0054 19.5437 18.2324 19.3 18.388C19.24 18.418 19.19 18.447 19.132 18.476L19.102 18.486C18.9861 18.5398 18.8627 18.5759 18.736 18.593L18.686 18.602C18.617 18.602 18.558 18.612 18.489 18.612C18.166 18.612 17.853 18.506 17.599 18.311L17.331 18.427C17.249 18.467 17.163 18.496 17.074 18.515H17.064C16.4519 18.6788 15.801 18.613 15.234 18.33H15.224C15.165 18.301 15.106 18.272 15.056 18.243L15.036 18.233C14.977 18.195 14.928 18.156 14.868 18.117C14.6282 18.2221 14.3688 18.2749 14.107 18.272C14.027 18.272 13.958 18.272 13.889 18.262L13.849 18.252L13.671 18.224L13.651 18.214C13.5876 18.2022 13.5251 18.1858 13.464 18.165C13.3045 18.1121 13.1518 18.0406 13.009 17.952C12.7111 17.7677 12.4763 17.497 12.336 17.176C12.336 17.156 12.326 17.146 12.316 17.127C12.3044 17.094 12.291 17.0616 12.276 17.03C12.2642 17.0082 12.2542 16.9854 12.246 16.962C12.236 16.933 12.217 16.904 12.217 16.875C12.2151 16.8451 12.2083 16.8157 12.197 16.788C12.187 16.758 12.187 16.748 12.177 16.71C12.167 16.671 12.167 16.633 12.158 16.594C12.158 16.564 12.148 16.545 12.148 16.526C12.1397 16.4647 12.1364 16.4028 12.138 16.341C12.1369 16.2665 12.1402 16.1921 12.148 16.118C12.148 16.089 12.158 16.07 12.158 16.05C12.168 15.992 12.178 15.944 12.188 15.895C12.198 15.875 12.198 15.847 12.208 15.827C12.2198 15.774 12.2362 15.7222 12.257 15.672C12.267 15.652 12.267 15.643 12.277 15.624C12.2988 15.5637 12.3252 15.5052 12.356 15.449L12.366 15.429C12.5284 15.1313 12.7647 14.8804 13.052 14.7003C13.3394 14.5203 13.6683 14.4172 14.007 14.401C14.037 14.391 14.067 14.391 14.107 14.391C14.226 14.391 14.345 14.401 14.463 14.421C14.513 14.361 14.562 14.313 14.621 14.255L14.671 14.207C14.73 14.158 14.779 14.11 14.839 14.071L14.869 14.051C14.908 14.022 14.977 13.974 15.007 13.954C15.037 13.935 15.086 13.896 15.116 13.886C15.1508 13.874 15.184 13.8579 15.215 13.838C15.274 13.808 15.373 13.76 15.432 13.741L15.482 13.702C15.8782 13.5481 16.3071 13.4982 16.728 13.557H16.738C16.818 13.565 16.897 13.577 16.975 13.595H16.985C17.065 13.605 17.134 13.635 17.213 13.654L17.223 13.664C17.302 13.692 17.371 13.721 17.44 13.751L17.46 13.761C17.528 13.789 17.594 13.821 17.658 13.857L17.668 13.867C17.727 13.897 17.796 13.945 17.856 13.983L17.866 13.993C17.935 14.032 17.994 14.08 18.053 14.129L18.063 14.139C18.3938 14.417 18.649 14.774 18.805 15.177V15.187C18.825 15.245 18.845 15.313 18.865 15.371C18.865 15.391 18.875 15.41 18.875 15.429C18.891 15.479 18.905 15.532 18.914 15.584L18.944 15.807V15.807Z" fill="white"/>
</g>
<defs>
<clipPath id="clip0_0_675">
<rect width="32" height="32" fill="white"/>
</clipPath>
</defs>
</svg>
