<svg width="32" height="32" viewBox="0 0 32 32" fill="none" xmlns="http://www.w3.org/2000/svg">
<g clip-path="url(#clip0_0_667)">
<path d="M16 32C24.8366 32 32 24.8366 32 16C32 7.16344 24.8366 0 16 0C7.16344 0 0 7.16344 0 16C0 24.8366 7.16344 32 16 32Z" fill="#2DC4E7"/>
<path d="M5.04041 9.02592C6.11141 9.02592 7.21841 8.95392 8.29041 9.04992C8.76641 9.58492 8.87341 10.3349 9.24241 10.9539C14.0524 10.9779 18.8854 10.9539 23.6954 10.9539C24.0524 10.9779 24.4924 10.9899 24.6714 11.3469C24.8854 11.7399 24.7314 12.2039 24.5284 12.5609C23.5524 14.2159 22.6234 15.8949 21.6714 17.5609C21.3144 18.1569 21.0754 18.8229 20.5404 19.2879C20.1004 19.6569 19.4924 19.6799 18.9334 19.6799H12.2654C11.9084 19.6799 11.5274 19.6449 11.3134 19.3589C10.6234 18.5849 10.2534 17.5969 9.80141 16.6919C9.01865 15.1248 8.25261 13.5494 7.50341 11.9659C7.34841 11.6089 7.15841 11.2879 6.97941 10.9539C6.34941 10.9539 5.71741 10.9539 5.09941 10.9299C4.97941 10.2999 4.97941 9.65692 5.03941 9.02592H5.04041ZM12.5524 20.9659C13.0368 20.8508 13.5405 20.8426 14.0284 20.9419C14.5754 21.0619 15.0524 21.4779 15.1834 22.0259C15.3254 22.6559 15.3254 23.3359 15.0754 23.9419C14.8374 24.4899 14.2424 24.7519 13.6834 24.7999C13.0404 24.8469 12.3024 24.7999 11.8254 24.3229C11.3144 23.7519 11.3144 22.9189 11.4214 22.2039C11.4924 21.6089 11.9684 21.0969 12.5514 20.9659H12.5524ZM18.5044 20.9659C19.0994 20.8359 19.7424 20.8469 20.3144 21.0609C20.8614 21.2879 21.1474 21.8829 21.1944 22.4419C21.2664 23.0969 21.1944 23.8469 20.7184 24.3469C20.2784 24.7639 19.6354 24.8229 19.0524 24.8109C18.4804 24.7879 17.8624 24.5729 17.5644 24.0379C17.2804 23.4577 17.2045 22.7975 17.3494 22.1679C17.4694 21.5849 17.9214 21.0979 18.5044 20.9659Z" fill="white"/>
</g>
<defs>
<clipPath id="clip0_0_667">
<rect width="32" height="32" fill="white"/>
</clipPath>
</defs>
</svg>
