<svg width="32" height="32" viewBox="0 0 32 32" fill="none" xmlns="http://www.w3.org/2000/svg">
<g clip-path="url(#clip0_0_663)">
<path d="M16 32C24.8366 32 32 24.8366 32 16C32 7.16344 24.8366 0 16 0C7.16344 0 0 7.16344 0 16C0 24.8366 7.16344 32 16 32Z" fill="#1387C9"/>
<path d="M16.053 18.373L25.647 12.789L16.053 7.105L6.55501 12.789L16.053 18.373V18.373ZM6.04701 15.453C6.04681 15.5858 6.08142 15.7164 6.1474 15.8316C6.21337 15.9469 6.3084 16.0429 6.42301 16.11L16.05 21.718L25.835 15.93C25.9474 15.865 26.0749 15.8308 26.2047 15.8307C26.3345 15.8306 26.462 15.8648 26.5744 15.9296C26.6868 15.9945 26.7802 16.0879 26.845 16.2003C26.9099 16.3127 26.9441 16.4402 26.944 16.57V19.196C26.944 19.3243 26.9107 19.4504 26.8474 19.5621C26.7842 19.6737 26.6931 19.767 26.583 19.833L16.426 25.896C16.3134 25.9633 16.1847 25.9991 16.0534 25.9997C15.9222 26.0002 15.7932 25.9654 15.68 25.899L5.26001 19.773C5.13994 19.7019 5.05275 19.5863 5.01736 19.4513C4.98198 19.3164 5.00126 19.1729 5.07101 19.052C5.10528 18.9922 5.15106 18.9399 5.20571 18.8979C5.26035 18.856 5.32277 18.8252 5.38936 18.8076C5.45595 18.7899 5.52538 18.7856 5.59364 18.795C5.6619 18.8043 5.72762 18.8271 5.78701 18.862L16.05 24.895L25.897 19.017V17.117L16.424 22.72C16.3118 22.7866 16.1839 22.822 16.0534 22.8225C15.923 22.823 15.7947 22.7887 15.682 22.723L5.89901 17.023C5.62495 16.8628 5.3977 16.6335 5.23995 16.358C5.0822 16.0825 4.99947 15.7705 5.00001 15.453V12.98C4.99969 12.869 5.02864 12.7599 5.08394 12.6637C5.13924 12.5675 5.21893 12.4876 5.31497 12.432C5.41102 12.3764 5.52002 12.3472 5.63099 12.3472C5.74196 12.3472 5.85096 12.3764 5.94701 12.432L6.55501 12.789L5.79101 13.246C5.71795 13.2902 5.63515 13.3157 5.5499 13.3203C5.46466 13.325 5.37957 13.3086 5.30214 13.2727C5.2247 13.2367 5.15729 13.1823 5.10583 13.1142C5.05437 13.046 5.02043 12.9663 5.00701 12.882C4.98929 12.777 5.00367 12.6691 5.04827 12.5724C5.09288 12.4757 5.16563 12.3947 5.25701 12.34L15.676 6.104C15.7892 6.03606 15.9187 6 16.0507 5.99965C16.1828 5.9993 16.3124 6.03467 16.426 6.102L26.637 12.152C26.7481 12.2182 26.84 12.3123 26.9036 12.4248C26.9673 12.5374 27.0005 12.6646 27 12.7939C26.9995 12.9232 26.9653 13.0502 26.9007 13.1623C26.8362 13.2743 26.7436 13.3676 26.632 13.433L16.42 19.377C16.3077 19.4426 16.1799 19.4771 16.0499 19.4769C15.9198 19.4767 15.7921 19.4419 15.68 19.376L5.42001 13.343C5.47427 13.3749 5.53507 13.394 5.59782 13.399C5.66056 13.4039 5.72361 13.3945 5.78219 13.3715C5.84077 13.3485 5.89334 13.3124 5.93593 13.2661C5.97852 13.2197 6.01001 13.1643 6.02801 13.104C6.04081 13.0639 6.04756 13.0221 6.04801 12.98V15.454L6.04701 15.453Z" fill="white"/>
</g>
<defs>
<clipPath id="clip0_0_663">
<rect width="32" height="32" fill="white"/>
</clipPath>
</defs>
</svg>
