<svg width="32" height="32" viewBox="0 0 32 32" fill="none" xmlns="http://www.w3.org/2000/svg">
<g clip-path="url(#clip0_0_655)">
<path d="M16 32C24.8366 32 32 24.8366 32 16C32 7.16344 24.8366 0 16 0C7.16344 0 0 7.16344 0 16C0 24.8366 7.16344 32 16 32Z" fill="#E53431"/>
<path d="M12.266 5.05177C12.3089 5.01864 12.3617 5.00102 12.416 5.00177C12.4701 5.00177 12.5227 5.01931 12.566 5.05177L13.823 5.99377C13.8492 6.01353 13.8713 6.03828 13.888 6.06659C13.9047 6.0949 13.9157 6.12622 13.9203 6.15877C13.9249 6.19131 13.923 6.22445 13.9148 6.25628C13.9066 6.28811 13.8922 6.31801 13.8725 6.34427C13.8527 6.37053 13.828 6.39265 13.7996 6.40935C13.7713 6.42605 13.74 6.43701 13.7075 6.44161C13.6749 6.44621 13.6418 6.44435 13.61 6.43614C13.5781 6.42793 13.5482 6.41353 13.522 6.39377L12.416 5.56677L8.81896 8.26377L24.619 20.1178C24.6502 20.1412 24.6756 20.1717 24.6931 20.2066C24.7105 20.2416 24.7196 20.2802 24.7196 20.3193C24.7196 20.3584 24.7105 20.3969 24.6931 20.4319C24.6756 20.4669 24.6502 20.4973 24.619 20.5208L23.458 21.3908C23.4047 21.4306 23.3377 21.4475 23.2719 21.438C23.2061 21.4284 23.1467 21.3931 23.107 21.3398C23.0672 21.2865 23.0502 21.2195 23.0598 21.1537C23.0693 21.0879 23.1047 21.0286 23.158 20.9888L24.051 20.3188L8.24996 8.46677C8.21855 8.44374 8.193 8.41363 8.17539 8.37888C8.15778 8.34413 8.1486 8.30572 8.1486 8.26677C8.1486 8.22782 8.15778 8.18941 8.17539 8.15466C8.193 8.11991 8.21855 8.0898 8.24996 8.06677L12.266 5.05277V5.05177ZM16.283 5.05177C16.3258 5.01856 16.3784 5.00037 16.4326 5.00001C16.4868 4.99964 16.5397 5.01713 16.583 5.04977L24.618 11.0768C24.6602 11.108 24.6914 11.1519 24.7068 11.2021C24.7223 11.2523 24.7213 11.3062 24.704 11.3558C24.6877 11.4058 24.656 11.4494 24.6134 11.4803C24.5708 11.5112 24.5196 11.5278 24.467 11.5278H20.45C20.3959 11.5274 20.3434 11.5099 20.3 11.4778L15.027 7.52377C15.0006 7.50401 14.9783 7.47924 14.9615 7.45088C14.9447 7.42252 14.9336 7.39112 14.9289 7.35848C14.9242 7.32584 14.926 7.29259 14.9342 7.26065C14.9423 7.2287 14.9567 7.19867 14.9765 7.17227C14.9962 7.14587 15.021 7.12363 15.0494 7.10681C15.0777 7.08998 15.1091 7.07891 15.1418 7.07422C15.1744 7.06953 15.2076 7.07132 15.2396 7.07948C15.2715 7.08763 15.3016 7.10201 15.328 7.12177L20.535 11.0258H23.714L16.434 5.56577L11.394 9.34577C11.3676 9.36553 11.3375 9.37991 11.3056 9.38806C11.2736 9.39622 11.2404 9.39801 11.2078 9.39332C11.1418 9.38385 11.0824 9.34858 11.0425 9.29527C11.0025 9.24196 10.9854 9.17498 10.9949 9.10906C11.0044 9.04314 11.0397 8.98369 11.093 8.94377L16.283 5.05177V5.05177ZM9.35896 10.2468C9.41253 10.2144 9.47622 10.2031 9.53764 10.2151C9.59906 10.2271 9.65381 10.2616 9.69124 10.3117C9.72867 10.3619 9.7461 10.4242 9.74013 10.4865C9.73417 10.5488 9.70523 10.6066 9.65896 10.6488L8.81796 11.2788L24.619 23.1328C24.6504 23.156 24.6759 23.1863 24.6935 23.2212C24.7111 23.2561 24.7203 23.2947 24.7203 23.3338C24.7203 23.3729 24.7111 23.4114 24.6935 23.4463C24.6759 23.4812 24.6504 23.5115 24.619 23.5348L20.602 26.5478C20.5585 26.5798 20.5059 26.597 20.452 26.597C20.398 26.597 20.3454 26.5798 20.302 26.5478L19.139 25.6758C19.0857 25.6356 19.0505 25.5759 19.0412 25.5098C19.0319 25.4437 19.0493 25.3766 19.0895 25.3233C19.1296 25.27 19.1894 25.2348 19.2555 25.2255C19.3216 25.2162 19.3887 25.2336 19.442 25.2738L20.452 26.0308L24.052 23.3308L8.24696 11.4798C8.21607 11.4562 8.19103 11.4257 8.1738 11.3909C8.15657 11.356 8.14761 11.3177 8.14761 11.2788C8.14761 11.2399 8.15657 11.2015 8.1738 11.1667C8.19103 11.1318 8.21607 11.1014 8.24696 11.0778L9.35696 10.2478L9.35896 10.2468ZM8.39996 20.0658V20.0678H12.415C12.4692 20.067 12.522 20.0846 12.565 20.1178L17.781 24.0288C17.8074 24.0485 17.8296 24.0732 17.8465 24.1015C17.8633 24.1298 17.8744 24.1611 17.8792 24.1937C17.8839 24.2263 17.8822 24.2595 17.8741 24.2914C17.866 24.3234 17.8517 24.3534 17.832 24.3798C17.8123 24.4062 17.7876 24.4284 17.7593 24.4453C17.731 24.4621 17.6996 24.4732 17.667 24.478C17.6344 24.4827 17.6012 24.481 17.5693 24.4729C17.5374 24.4648 17.5074 24.4505 17.481 24.4308L12.335 20.5698H9.15396L16.435 26.0298L21.465 22.2578C21.4914 22.2379 21.5214 22.2235 21.5534 22.2153C21.5854 22.2071 21.6186 22.2052 21.6513 22.2099C21.684 22.2145 21.7155 22.2255 21.7439 22.2423C21.7723 22.2591 21.7971 22.2814 21.817 22.3078C21.8368 22.3342 21.8512 22.3642 21.8594 22.3962C21.8677 22.4282 21.8695 22.4614 21.8649 22.4941C21.8602 22.5268 21.8492 22.5583 21.8324 22.5867C21.8156 22.6151 21.7934 22.6399 21.767 22.6598L16.586 26.5438C16.5427 26.5762 16.4901 26.5938 16.436 26.5938C16.3815 26.5943 16.3284 26.5767 16.285 26.5438L8.24796 20.5188C8.20841 20.5183 8.16953 20.5085 8.13449 20.4901C8.09945 20.4717 8.06925 20.4454 8.04635 20.4131C8.02345 20.3809 8.00849 20.3437 8.0027 20.3045C7.99691 20.2654 8.00046 20.2254 8.01304 20.1879C8.02562 20.1504 8.04689 20.1164 8.07511 20.0887C8.10333 20.061 8.1377 20.0403 8.17542 20.0284C8.21314 20.0165 8.25315 20.0137 8.29217 20.0202C8.33119 20.0267 8.36812 20.0423 8.39996 20.0658Z" fill="white"/>
</g>
<defs>
<clipPath id="clip0_0_655">
<rect width="32" height="32" fill="white"/>
</clipPath>
</defs>
</svg>
