<svg width="32" height="32" viewBox="0 0 32 32" fill="none" xmlns="http://www.w3.org/2000/svg">
<g clip-path="url(#clip0_0_647)">
<path d="M16 32C24.8366 32 32 24.8366 32 16C32 7.16344 24.8366 0 16 0C7.16344 0 0 7.16344 0 16C0 24.8366 7.16344 32 16 32Z" fill="#0082C6"/>
<path d="M18.046 15.103C18.0251 15.0988 18.0034 15.1004 17.9833 15.1076C17.9632 15.1148 17.9454 15.1274 17.932 15.144C17.9228 15.1556 17.9161 15.1689 17.9122 15.1832C17.9084 15.1975 17.9075 15.2124 17.9097 15.227C17.9118 15.2416 17.917 15.2556 17.9248 15.2682C17.9326 15.2808 17.9429 15.2916 17.955 15.3C22.334 18.478 16.101 25.754 4 18.011C14.26 27.666 28.547 17.001 18.046 15.103ZM12.202 10.855C3.116 13.762 13.525 20.618 14.428 17.155C14.432 17.1405 14.433 17.1254 14.431 17.1106C14.4289 17.0957 14.4239 17.0814 14.4161 17.0686C14.4083 17.0557 14.398 17.0446 14.3858 17.0359C14.3735 17.0272 14.3597 17.0211 14.345 17.018C14.324 17.0125 14.3018 17.0129 14.281 17.019C12.944 17.454 5.58 15.395 12.201 10.855H12.202ZM28 12.602C20.133 6.992 5.372 11.618 12.987 15.579C13.0142 15.5928 13.0457 15.5956 13.0749 15.5868C13.1041 15.5781 13.1288 15.5585 13.144 15.532C13.152 15.517 13.1565 15.5004 13.157 15.4834C13.1575 15.4663 13.1541 15.4495 13.147 15.434C10.05 8.89 25.781 10.88 28 12.602ZM21.472 20.753C25.631 18.863 22.249 12.392 16.748 13.641C16.7185 13.6477 16.6875 13.6425 16.6617 13.6266C16.6359 13.6107 16.6174 13.5854 16.61 13.556C16.6053 13.5358 16.6065 13.5146 16.6136 13.495C16.6207 13.4755 16.6334 13.4585 16.65 13.446C20.93 10.23 28.964 17.738 21.472 20.753V20.753Z" fill="white"/>
</g>
<defs>
<clipPath id="clip0_0_647">
<rect width="32" height="32" fill="white"/>
</clipPath>
</defs>
</svg>
