<svg width="32" height="32" viewBox="0 0 32 32" fill="none" xmlns="http://www.w3.org/2000/svg">
<g clip-path="url(#clip0_0_631)">
<path d="M16 32C24.8366 32 32 24.8366 32 16C32 7.16344 24.8366 0 16 0C7.16344 0 0 7.16344 0 16C0 24.8366 7.16344 32 16 32Z" fill="#14C8FF"/>
<path d="M25.08 11.478C25.713 11.991 26.112 13.052 25.972 13.831L24.612 21.355C24.47 22.139 23.72 23.002 22.948 23.273L15.529 25.878C14.757 26.149 13.609 25.953 12.977 25.44L6.919 20.523C6.286 20.01 5.886 18.954 6.029 18.17L7.389 10.646C7.53 9.862 8.28 9 9.053 8.728L16.473 6.122C17.246 5.85 18.393 6.048 19.026 6.56L25.08 11.478ZM18.769 14.856L19.071 13.326L16.239 13.331L16.639 11.315H15.724C15.064 12.3265 14.1026 13.1048 12.976 13.54L12.719 14.859H13.957C13.957 14.859 13.538 16.753 13.397 17.452C13.047 19.232 13.927 20.494 15.279 20.494H17.567L17.967 18.804H16.053C15.203 18.804 15.248 18.339 15.413 17.514L15.94 14.852L18.769 14.856Z" fill="white"/>
</g>
<defs>
<clipPath id="clip0_0_631">
<rect width="32" height="32" fill="white"/>
</clipPath>
</defs>
</svg>
