<svg width="32" height="32" viewBox="0 0 32 32" fill="none" xmlns="http://www.w3.org/2000/svg">
<g clip-path="url(#clip0_0_617)">
<path d="M16 32C24.8366 32 32 24.8366 32 16C32 7.16344 24.8366 0 16 0C7.16344 0 0 7.16344 0 16C0 24.8366 7.16344 32 16 32Z" fill="#434247"/>
<path d="M15.9115 4C12.7524 4 9.72264 5.25496 7.4888 7.4888C5.25496 9.72264 4 12.7524 4 15.9115C4 19.0706 5.25496 22.1004 7.4888 24.3342C9.72264 26.568 12.7524 27.823 15.9115 27.823C22.4905 27.823 27.8225 22.49 27.8225 15.911C27.8225 9.333 22.4915 4 15.9115 4ZM15.9115 27.341C9.5935 27.341 4.4715 22.219 4.4715 15.901C4.4715 9.585 9.5945 4.463 15.9115 4.463C22.2285 4.463 27.3515 9.585 27.3515 15.903C27.3515 22.22 22.2295 27.342 15.9115 27.342" fill="white"/>
<path d="M17.21 17.108H20.23V21.564C20.23 22.006 19.777 22.242 19.345 22.469C18.922 22.695 18.233 22.646 17.072 22.646H15.656C13.482 22.695 12.872 22.528 12.351 22.301C11.83 22.065 11.564 21.731 11.564 21.298V17.108H10V21.829C10 22.085 10.128 22.38 10.325 22.646C10.551 22.951 10.522 23.039 11.013 23.285C11.456 23.511 11.899 23.688 12.695 23.787C13.315 23.865 13.207 23.846 14.309 23.865H16.925C18.892 23.826 19.295 23.964 20.465 23.374C21.42 22.901 21.745 22.351 21.813 21.996V15.574H17.22V17.108H17.21ZM13.138 8.019C12.341 8.069 11.682 8.315 11.171 8.511C10.65 8.708 10.541 8.944 10.325 9.2C10.125 9.432 10.013 9.729 10.01 10.036V15.269H11.584V10.536C11.584 10.133 11.83 9.809 12.312 9.573C12.804 9.327 13.522 9.209 14.191 9.209H17.259C18.429 9.209 19.059 9.189 19.423 9.405C19.797 9.641 20.24 9.848 20.24 10.291V11.54H21.813V9.859C21.784 9.642 21.548 9.023 20.436 8.501C19.433 8.029 19.109 8 17.535 8" fill="white"/>
</g>
<defs>
<clipPath id="clip0_0_617">
<rect width="32" height="32" fill="white"/>
</clipPath>
</defs>
</svg>
