<svg width="32" height="32" viewBox="0 0 32 32" fill="none" xmlns="http://www.w3.org/2000/svg">
<g clip-path="url(#clip0_0_599)">
<path d="M16 32C24.8366 32 32 24.8366 32 16C32 7.16344 24.8366 0 16 0C7.16344 0 0 7.16344 0 16C0 24.8366 7.16344 32 16 32Z" fill="#895AF8"/>
<path fill-rule="evenodd" clip-rule="evenodd" d="M17.77 14.54C17.9299 14.5304 18.0901 14.5304 18.25 14.54C19.73 14.64 20.41 16.65 21.35 16.54C20.469 17.2602 19.4471 17.7882 18.35 18.09C17.8939 18.1566 17.4288 18.0635 17.0334 17.8266C16.638 17.5898 16.3365 17.2236 16.18 16.79V20.79L22 17.47V12.29L17.77 14.54ZM14.88 14.53C14.6594 14.3472 14.4795 14.1201 14.3521 13.8634C14.2246 13.6068 14.1524 13.3263 14.14 13.04V12.96C14.14 11.8 16.01 9.96 16.07 9.96C16.13 10.02 18 11.81 18 12.96V13.05C17.9822 13.5636 17.7673 14.0506 17.4 14.41L22 11.94L16 9L10 11.91L14.88 14.53V14.53ZM15.86 16.83C15.7053 17.2654 15.4046 17.6338 15.009 17.8727C14.6134 18.1115 14.1474 18.2059 13.69 18.14C12.5929 17.8382 11.571 17.3102 10.69 16.59C11.63 16.66 12.3 14.64 13.79 14.59C13.9499 14.5804 14.1101 14.5804 14.27 14.59L10 12.29V17.48L15.87 20.87L15.86 16.83V16.83Z" fill="white"/>
<path d="M16 4C9.373 4 4 9.373 4 16C4 22.627 9.373 28 16 28C22.627 28 28 22.627 28 16C28 12.8174 26.7357 9.76516 24.4853 7.51472C22.2348 5.26428 19.1826 4 16 4V4ZM9.3 11.19L16 7.94L22.71 11.19V17.58L16 21.45L9.3 17.58V11.19V11.19ZM22.73 20.19L16.05 24.05L9.29 20.15V19.78L16.05 23.68L22.73 19.82V20.19ZM22.73 19.44L16.05 23.3L9.29 19.4V19L16.05 22.91L22.73 19.05V19.44ZM22.73 18.69L16.05 22.55L9.29 18.65V18.28L16.05 22.19L22.73 18.33V18.69Z" fill="white"/>
</g>
<defs>
<clipPath id="clip0_0_599">
<rect width="32" height="32" fill="white"/>
</clipPath>
</defs>
</svg>
