<svg width="32" height="32" viewBox="0 0 32 32" fill="none" xmlns="http://www.w3.org/2000/svg">
<g clip-path="url(#clip0_0_595)">
<path d="M16 32C24.8366 32 32 24.8366 32 16C32 7.16344 24.8366 0 16 0C7.16344 0 0 7.16344 0 16C0 24.8366 7.16344 32 16 32Z" fill="#FFC04E"/>
<path d="M15.598 12.357H15.601L15.571 12.487L15.311 13.714H15.281L13.568 21H11.389L13.136 13.714H10.204L8.558 21H6.162L8.34 12H15.673L15.598 12.357ZM19.739 12H23.369C26.492 12.143 26.201 14.214 26.201 14.214H27L26.71 15.071H25.983C25.766 15.857 24.313 16.286 24.313 16.286C25.983 16.5 25.911 17.786 25.911 17.786H26.71L26.492 18.643H25.838C25.671 19.833 24.616 20.411 23.749 20.686C23.2247 20.8497 22.6783 20.9316 22.129 20.929H17.56L19.739 12ZM7.323 13.714H5L5.436 12H7.759L7.323 13.714ZM17.271 20L15.383 15.571L16.182 12.143L18.069 16.357L17.271 20ZM22.825 15.571C23.085 15.571 23.335 15.471 23.518 15.289C23.701 15.107 23.805 14.863 23.805 14.607C23.805 14.351 23.702 14.106 23.518 13.925C23.334 13.744 23.085 13.643 22.825 13.643H21.41L20.975 15.571H22.825ZM22.336 19.286C22.987 19.286 23.515 18.79 23.515 18.179C23.515 17.567 22.99 17.071 22.336 17.071H20.634L20.11 19.286H22.336Z" fill="white"/>
</g>
<defs>
<clipPath id="clip0_0_595">
<rect width="32" height="32" fill="white"/>
</clipPath>
</defs>
</svg>
