<svg width="32" height="32" viewBox="0 0 32 32" fill="none" xmlns="http://www.w3.org/2000/svg">
<g clip-path="url(#clip0_0_583)">
<path d="M16 32C24.8366 32 32 24.8366 32 16C32 7.16344 24.8366 0 16 0C7.16344 0 0 7.16344 0 16C0 24.8366 7.16344 32 16 32Z" fill="#1A1F36"/>
<path d="M18.5736 14.514C18.715 14.5143 18.851 14.46 18.9533 14.3623C19.0556 14.2647 19.1161 14.1313 19.1223 13.99C19.1285 13.8488 19.0799 13.7106 18.9866 13.6043C18.8933 13.4981 18.7625 13.4321 18.6216 13.42H14.7816V12.46C14.744 12.3272 14.6641 12.2103 14.554 12.1271C14.4439 12.0438 14.3096 11.9988 14.1716 11.9988C14.0336 11.9988 13.8993 12.0438 13.7892 12.1271C13.6791 12.2103 13.5992 12.3272 13.5616 12.46V13.42H12.5346C12.3895 13.42 12.2504 13.4776 12.1478 13.5802C12.0452 13.6828 11.9876 13.8219 11.9876 13.967C11.9876 14.1121 12.0452 14.2512 12.1478 14.3538C12.2504 14.4564 12.3895 14.514 12.5346 14.514H13.5626V17.854C13.5674 18.6944 13.9038 19.4989 14.4989 20.0924C15.0939 20.6859 15.8992 21.0204 16.7396 21.023C17.4403 21.0123 18.1169 20.7653 18.6596 20.322L18.8896 20.13C18.9636 20.0781 19.0259 20.0112 19.0723 19.9337C19.1187 19.8561 19.1482 19.7696 19.159 19.6799C19.1697 19.5901 19.1614 19.4991 19.1346 19.4128C19.1078 19.3265 19.0631 19.2468 19.0034 19.1789C18.9438 19.111 18.8704 19.0565 18.7883 19.0189C18.7061 18.9812 18.6169 18.9613 18.5265 18.9605C18.4361 18.9597 18.3466 18.9779 18.2637 19.014C18.1809 19.0501 18.1065 19.1032 18.0456 19.17L17.8726 19.314C17.5977 19.5415 17.2627 19.6844 16.9082 19.7252C16.5537 19.7661 16.195 19.7031 15.8756 19.544C15.549 19.3883 15.2729 19.1435 15.0794 18.8378C14.8858 18.5321 14.7826 18.1779 14.7816 17.816V14.514H18.5736V14.514ZM24.8136 18.239C24.8263 18.1771 24.8267 18.1134 24.8147 18.0514C24.8027 17.9894 24.7786 17.9304 24.7438 17.8777C24.7089 17.825 24.6641 17.7797 24.6117 17.7444C24.5593 17.7091 24.5005 17.6845 24.4386 17.672H24.1986C24.0919 17.6716 23.9882 17.7075 23.9046 17.7738C23.821 17.8402 23.7625 17.933 23.7386 18.037C23.5056 19.0561 23.0619 20.0151 22.4358 20.8524C21.8098 21.6896 21.0154 22.3864 20.1038 22.8981C19.1922 23.4097 18.1835 23.7248 17.1428 23.8231C16.102 23.9214 15.0522 23.8006 14.0609 23.4686C13.0696 23.1366 12.1589 22.6008 11.3872 21.8955C10.6156 21.1902 10.0001 20.3312 9.58054 19.3737C9.16096 18.4162 8.9465 17.3815 8.95099 16.3361C8.95548 15.2907 9.17881 14.2579 9.60661 13.304C9.95072 12.4733 10.4551 11.7185 11.091 11.0828C11.7269 10.4471 12.4818 9.94289 13.3126 9.599C14.9334 8.87537 16.7575 8.74628 18.4641 9.23442C20.1707 9.72257 21.6506 10.7967 22.6436 12.268C22.7139 12.3706 22.8213 12.4418 22.9431 12.4668C23.0649 12.4918 23.1916 12.4686 23.2966 12.402L23.3826 12.344C23.4979 12.2711 23.5799 12.1556 23.6106 12.0227C23.6413 11.8898 23.6183 11.7501 23.5466 11.634C22.4634 10.0395 20.878 8.85311 19.0428 8.26348C17.2076 7.67384 15.2278 7.71486 13.4186 8.38C12.2709 8.77446 11.2264 9.42173 10.3623 10.274C9.4983 11.1263 8.83677 12.1618 8.42661 13.304C8.00035 14.4067 7.80649 15.5855 7.8572 16.7666C7.90791 17.9477 8.20208 19.1055 8.72129 20.1676C9.24049 21.2297 9.97352 22.173 10.8744 22.9385C11.7753 23.7039 12.8246 24.275 13.9566 24.6159C15.0885 24.9568 16.2787 25.0602 17.4525 24.9195C18.6263 24.7788 19.7583 24.3971 20.7777 23.7984C21.797 23.1997 22.6817 22.3968 23.3762 21.4402C24.0707 20.4835 24.5601 19.3937 24.8136 18.239V18.239ZM16.9226 5H15.9626C14.228 5.07289 12.5327 5.53953 11.0051 6.36458C9.47748 7.18964 8.15766 8.35148 7.14554 9.76211C6.13343 11.1727 5.45558 12.7952 5.16331 14.5066C4.87104 16.218 4.97202 17.9734 5.45861 19.64C5.50065 19.7788 5.59612 19.8953 5.72402 19.9637C5.85192 20.0322 6.00177 20.047 6.14061 20.005H6.21761C6.33368 19.9489 6.42623 19.8537 6.47892 19.736C6.53161 19.6184 6.54106 19.4859 6.50561 19.362C5.86958 17.1836 5.96721 14.8566 6.78346 12.7391C7.5997 10.6216 9.08932 8.83119 11.023 7.64337C12.9566 6.45555 15.2271 5.93624 17.4848 6.16538C19.7425 6.39453 21.8624 7.35942 23.5179 8.91151C25.1735 10.4636 26.273 12.5168 26.6472 14.7551C27.0214 16.9934 26.6495 19.2926 25.5887 21.2988C24.528 23.305 22.8373 24.9069 20.7768 25.8579C18.7164 26.8089 16.4005 27.0563 14.1856 26.562C14.0898 26.5417 13.9902 26.5489 13.8983 26.5829C13.8065 26.6169 13.7261 26.6762 13.6666 26.754C13.6072 26.8281 13.5677 26.9161 13.5519 27.0097C13.5361 27.1033 13.5444 27.1994 13.5762 27.2889C13.6079 27.3783 13.662 27.4582 13.7334 27.5209C13.8047 27.5836 13.8908 27.627 13.9836 27.647C15.5099 27.9266 17.0772 27.8927 18.59 27.5472C20.1027 27.2017 21.5294 26.5519 22.783 25.6374C24.0366 24.7229 25.0909 23.5627 25.8817 22.2277C26.6726 20.8926 27.1834 19.4105 27.3831 17.8717C27.5828 16.3329 27.4672 14.7695 27.0433 13.2768C26.6194 11.7841 25.8962 10.3933 24.9175 9.18908C23.9389 7.98487 22.7254 6.99245 21.3509 6.27227C19.9764 5.55209 18.4698 5.11921 16.9226 5V5Z" fill="white"/>
</g>
<defs>
<clipPath id="clip0_0_583">
<rect width="32" height="32" fill="white"/>
</clipPath>
</defs>
</svg>
