<svg width="32" height="32" viewBox="0 0 32 32" fill="none" xmlns="http://www.w3.org/2000/svg">
<g clip-path="url(#clip0_0_576)">
<path d="M16 32C24.8366 32 32 24.8366 32 16C32 7.16344 24.8366 0 16 0C7.16344 0 0 7.16344 0 16C0 24.8366 7.16344 32 16 32Z" fill="#3058A6"/>
<path d="M15.938 27.161C9.74 27.161 4.715 22.136 4.715 15.938C4.715 9.74 9.74 4.715 15.938 4.715C22.136 4.715 27.161 9.74 27.161 15.938C27.161 22.136 22.136 27.161 15.938 27.161ZM15.938 4C9.355 4 4 9.355 4 15.938C4 22.521 9.355 27.876 15.938 27.876C22.521 27.876 27.876 22.521 27.876 15.938C27.876 9.355 22.521 4 15.938 4Z" fill="white"/>
<path fill-rule="evenodd" clip-rule="evenodd" d="M20.459 20.594L19.836 23.293L19.686 23.946H19.016L15.571 23.944H15.557C14.176 23.921 13.092 23.554 12.381 22.906C12.995 23.989 14.299 24.616 16.119 24.646H16.133L19.577 24.648H20.247L20.398 23.995L21.021 21.296L20.535 20.265L20.459 20.594ZM19.376 9.023L18.884 8L18.814 8.32L18.347 10.447H19.063L19.376 9.023ZM21.863 11.484L21.243 14.109L21.089 14.757H17.356L16.408 19.085C16.388 19.209 16.376 19.335 16.376 19.405C16.376 19.466 16.383 19.505 16.389 19.524C16.4603 19.5507 16.5359 19.5636 16.612 19.562H17.02L17.918 15.46H21.651L21.804 14.811L22.424 12.186L21.942 11.15L21.862 11.484H21.863ZM12.601 14.757H10L10.896 15.46H12.448L12.601 14.757Z" fill="white"/>
<path fill-rule="evenodd" clip-rule="evenodd" d="M16.36 20.265H16.265C15.541 20.246 15.199 19.869 15.199 19.265C15.199 19.121 15.223 18.93 15.247 18.787L16.345 13.775H20.089L20.709 11.15H16.965L17.657 8H14.603L13.91 11.15H10.596L10 13.775H13.314L12.024 19.67C11.954 19.956 11.929 20.29 11.929 20.457C11.929 22.139 13.256 22.929 15.237 22.962L18.681 22.963L19.304 20.265H16.36V20.265Z" fill="white"/>
</g>
<defs>
<clipPath id="clip0_0_576">
<rect width="32" height="32" fill="white"/>
</clipPath>
</defs>
</svg>
