<svg width="32" height="32" viewBox="0 0 32 32" fill="none" xmlns="http://www.w3.org/2000/svg">
<g clip-path="url(#clip0_0_572)">
<path d="M16 32C24.8366 32 32 24.8366 32 16C32 7.16344 24.8366 0 16 0C7.16344 0 0 7.16344 0 16C0 24.8366 7.16344 32 16 32Z" fill="#30C0F2"/>
<path d="M10.123 7H21.897C21.897 7 22.209 8.554 23.877 8.658C23.877 8.658 29.399 21.508 15.958 27C15.958 27 3.55898 23.062 7.93498 8.762C7.93498 8.762 9.81098 8.658 10.123 7ZM21.273 8.023H10.753L10.739 8.247C10.651 8.736 10.406 9.077 10.047 9.307C9.8245 9.44728 9.57518 9.53958 9.31498 9.578L9.13098 9.596L9.07898 9.774C8.10998 13.084 8.07698 15.944 8.83998 18.384C9.46598 20.384 10.599 22.024 12.092 23.334C12.8799 24.025 13.7518 24.6139 14.687 25.087C14.997 25.244 15.287 25.373 15.546 25.477C15.703 25.54 15.818 25.581 15.881 25.602L15.979 25.632L16.074 25.592C19.78 24.008 22.022 21.614 23.026 18.632C23.856 16.172 23.782 13.553 23.163 11.073C23.044 10.5972 22.9005 10.1279 22.733 9.667C22.7195 9.63048 22.7055 9.59414 22.691 9.558L22.627 9.4L22.456 9.389C21.97 9.357 21.661 9.159 21.47 8.841C21.3683 8.67002 21.3052 8.4789 21.285 8.281L21.273 8.023ZM11.228 8.568C17.595 8.569 20.778 8.57 20.778 8.571C20.822 8.758 20.893 8.944 20.998 9.121C21.254 9.546 21.665 9.833 22.241 9.915C22.3921 10.3383 22.5223 10.7689 22.631 11.205C23.227 13.593 23.297 16.111 22.506 18.459C21.561 21.266 19.46 23.526 15.955 25.049C15.6074 24.918 15.2672 24.7681 14.936 24.6C14.042 24.1483 13.2085 23.5859 12.455 22.926C11.034 21.678 9.95798 20.122 9.36398 18.223C8.64598 15.928 8.66498 13.23 9.55798 10.089C9.83589 10.0255 10.1012 9.91602 10.343 9.765C10.7789 9.49246 11.0952 9.06467 11.228 8.568V8.568ZM18.588 14.15H18.285C18.315 13.542 18.18 12.218 16.535 11.85C16.057 11.7357 15.5565 11.7586 15.091 11.916C14.449 12.144 13.683 12.717 13.654 14.15H13.431C13.2038 14.15 12.9858 14.2399 12.8246 14.4001C12.6635 14.5603 12.5723 14.7778 12.571 15.005V18.58C12.5723 18.8072 12.6635 19.0247 12.8246 19.1849C12.9858 19.3451 13.2038 19.435 13.431 19.435H18.589C18.8162 19.435 19.0342 19.3451 19.1953 19.1849C19.3565 19.0247 19.4477 18.8072 19.449 18.58V15.005C19.4477 14.7778 19.3565 14.5603 19.1953 14.4001C19.0342 14.2399 18.8162 14.15 18.589 14.15H18.588ZM16.583 18.192H15.437L15.74 16.685C15.5975 16.6236 15.4806 16.5148 15.4091 16.377C15.3376 16.2393 15.3159 16.0811 15.3477 15.9292C15.3794 15.7773 15.4627 15.6411 15.5834 15.5435C15.7041 15.446 15.8548 15.3932 16.01 15.394C16.1016 15.3545 16.2009 15.3359 16.3006 15.3394C16.4003 15.343 16.4979 15.3687 16.5865 15.4147C16.675 15.4606 16.7523 15.5257 16.8126 15.6052C16.8729 15.6847 16.9148 15.7766 16.9352 15.8742C16.9556 15.9719 16.9541 16.0729 16.9307 16.1699C16.9073 16.2668 16.8626 16.3574 16.7999 16.435C16.7372 16.5126 16.658 16.5753 16.5681 16.6185C16.4782 16.6618 16.3798 16.6845 16.28 16.685L16.583 18.192ZM14.395 14.15C14.423 13.682 14.621 12.574 15.854 12.492C15.854 12.492 17.48 12.403 17.451 14.15H14.395Z" fill="white"/>
</g>
<defs>
<clipPath id="clip0_0_572">
<rect width="32" height="32" fill="white"/>
</clipPath>
</defs>
</svg>
