<svg width="32" height="32" viewBox="0 0 32 32" fill="none" xmlns="http://www.w3.org/2000/svg">
<g clip-path="url(#clip0_0_566)">
<path d="M16 32C24.8366 32 32 24.8366 32 16C32 7.16344 24.8366 0 16 0C7.16344 0 0 7.16344 0 16C0 24.8366 7.16344 32 16 32Z" fill="#00843D"/>
<path d="M15.969 5.563C16.363 5.563 16.75 5.666 17.091 5.863L24.251 9.997C24.5923 10.1942 24.8757 10.4777 25.0726 10.8191C25.2696 11.1606 25.3732 11.5478 25.373 11.942V20.376C25.373 21.178 24.946 21.919 24.251 22.32L17.09 26.455C16.7487 26.652 16.3616 26.7558 15.9675 26.7558C15.5734 26.7558 15.1863 26.652 14.845 26.455L7.683 22.32C7.34172 22.123 7.0583 21.8396 6.86118 21.4984C6.66406 21.1572 6.56019 20.7701 6.56 20.376V11.942C6.56 11.14 6.988 10.399 7.683 9.997L14.843 5.863C15.185 5.666 15.573 5.562 15.966 5.562H15.968L15.969 5.563ZM15.967 4.002C15.2993 4.00239 14.6434 4.17827 14.065 4.512L6.903 8.645C6.32511 8.97981 5.84521 9.46043 5.51127 10.0388C5.17732 10.6172 5.00103 11.2731 5 11.941V20.375C5.00103 21.0429 5.17732 21.6988 5.51127 22.2772C5.84521 22.8556 6.32511 23.3362 6.903 23.671L14.063 27.805C15.241 28.485 16.692 28.485 17.869 27.805L25.03 23.671C25.6079 23.3362 26.0878 22.8556 26.4217 22.2772C26.7557 21.6988 26.932 21.0429 26.933 20.375V11.941C26.932 11.2731 26.7557 10.6172 26.4217 10.0388C26.0878 9.46043 25.6079 8.97981 25.03 8.645L17.87 4.51C17.2911 4.17593 16.6344 4.00004 15.966 4L15.967 4.002Z" fill="white"/>
<path d="M15.4961 16.9991C15.4138 16.9992 15.333 16.9776 15.2617 16.9366C15.1904 16.8955 15.1313 16.8363 15.0901 16.7651L14.2291 15.2721C14.188 15.2009 14.1664 15.1202 14.1664 15.0381C14.1664 14.9559 14.188 14.8752 14.2291 14.8041L15.0901 13.3111C15.1313 13.2398 15.1904 13.1807 15.2617 13.1396C15.333 13.0985 15.4138 13.077 15.4961 13.0771H17.2541C17.3362 13.0773 17.4167 13.0991 17.4878 13.1401C17.5588 13.1812 17.6179 13.2401 17.6591 13.3111L18.5211 14.8041C18.5622 14.8752 18.5838 14.9559 18.5838 15.0381C18.5838 15.1202 18.5622 15.2009 18.5211 15.2721L17.6591 16.7651C17.6181 16.8362 17.559 16.8952 17.4879 16.9363C17.4169 16.9774 17.3362 16.999 17.2541 16.9991H15.4961V16.9991ZM13.1471 14.6481C13.2293 14.648 13.3101 14.6264 13.3814 14.5853C13.4526 14.5442 13.5118 14.4852 13.5531 14.4141L14.4141 12.9211C14.4552 12.8499 14.4768 12.7692 14.4768 12.6871C14.4768 12.6049 14.4552 12.5242 14.4141 12.4531L13.3401 10.5921L11.2431 11.7361C11.1679 11.7773 11.1055 11.8383 11.0627 11.9126C11.0198 11.9868 10.9982 12.0714 11.0001 12.1571C11.0171 12.9951 11.1151 13.8291 11.2911 14.6481H13.1471V14.6481ZM19.6021 14.6481C19.52 14.648 19.4394 14.6264 19.3683 14.5853C19.2972 14.5442 19.2382 14.4852 19.1971 14.4141L18.3351 12.9211C18.294 12.8499 18.2724 12.7692 18.2724 12.6871C18.2724 12.6049 18.294 12.5242 18.3351 12.4531L19.4091 10.5921L21.5051 11.7361C21.5803 11.7771 21.6429 11.8379 21.6859 11.912C21.7289 11.986 21.7508 12.0705 21.7491 12.1561C21.7321 12.9941 21.6349 13.8286 21.4591 14.6481H19.6021V14.6481ZM16.5991 9.05709C16.5304 9.01963 16.4534 9 16.3751 9C16.2969 9 16.2198 9.01963 16.1511 9.05709L14.0251 10.2171L15.0911 12.0631C15.1322 12.1342 15.1912 12.1932 15.2623 12.2343C15.3334 12.2754 15.414 12.297 15.4961 12.2971H17.2541C17.3362 12.2971 17.4169 12.2755 17.488 12.2344C17.5591 12.1934 17.6181 12.1343 17.6591 12.0631L18.7251 10.2181L16.5991 9.05809V9.05709ZM11.4851 15.4281C11.8862 16.8549 12.527 18.2031 13.3801 19.4151L14.4151 17.6231C14.4562 17.5519 14.4778 17.4712 14.4778 17.3891C14.4778 17.3069 14.4562 17.2262 14.4151 17.1551L13.5531 15.6621C13.5121 15.591 13.453 15.5319 13.3819 15.4909C13.3109 15.4498 13.2302 15.4281 13.1481 15.4281H11.4851ZM21.2631 15.4281C20.8624 16.8548 20.2219 18.2031 19.3691 19.4151L18.3341 17.6231C18.293 17.5519 18.2714 17.4712 18.2714 17.3891C18.2714 17.3069 18.293 17.2262 18.3341 17.1551L19.1971 15.6621C19.2382 15.591 19.2972 15.5319 19.3683 15.4909C19.4394 15.4498 19.52 15.4281 19.6021 15.4281H21.2641H21.2631ZM15.4961 17.7791C15.4138 17.779 15.333 17.8005 15.2617 17.8416C15.1904 17.8827 15.1313 17.9418 15.0901 18.0131L13.8901 20.0931C14.5364 20.8961 15.2744 21.6207 16.0891 22.2521C16.1713 22.3153 16.272 22.3495 16.3756 22.3495C16.4792 22.3495 16.58 22.3153 16.6621 22.2521C17.4765 21.6203 18.2142 20.8954 18.8601 20.0921L17.6601 18.0131C17.6191 17.942 17.56 17.8829 17.4889 17.8419C17.4179 17.8008 17.3372 17.7791 17.2551 17.7791H15.4951H15.4961Z" fill="white"/>
</g>
<defs>
<clipPath id="clip0_0_566">
<rect width="32" height="32" fill="white"/>
</clipPath>
</defs>
</svg>
