<svg width="32" height="32" viewBox="0 0 32 32" fill="none" xmlns="http://www.w3.org/2000/svg">
<g clip-path="url(#clip0_0_562)">
<path d="M16 32C24.8366 32 32 24.8366 32 16C32 7.16344 24.8366 0 16 0C7.16344 0 0 7.16344 0 16C0 24.8366 7.16344 32 16 32Z" fill="#EF0027"/>
<path d="M21.432 9.656L7 7L14.595 26.112L25.178 13.218L21.432 9.656ZM21.2 10.826L23.408 12.925L17.37 14.018L21.2 10.826V10.826ZM16.058 13.799L9.694 8.521L20.096 10.435L16.058 13.799V13.799ZM15.605 14.733L14.567 23.313L8.972 9.23L15.605 14.732V14.733ZM16.565 15.188L23.252 13.978L15.582 23.321L16.565 15.188Z" fill="white"/>
</g>
<defs>
<clipPath id="clip0_0_562">
<rect width="32" height="32" fill="white"/>
</clipPath>
</defs>
</svg>
