<svg width="32" height="32" viewBox="0 0 32 32" fill="none" xmlns="http://www.w3.org/2000/svg">
<g clip-path="url(#clip0_0_555)">
<path d="M16 32C24.8366 32 32 24.8366 32 16C32 7.16344 24.8366 0 16 0C7.16344 0 0 7.16344 0 16C0 24.8366 7.16344 32 16 32Z" fill="#2B2E7F"/>
<path d="M17.451 19.233V13.373H18.221C20.766 13.373 21.393 11 21.393 11H14.71C11.538 11 11 13.374 11 13.374H14.943V22.191C14.943 22.191 17.451 21.438 17.451 19.233Z" fill="white"/>
<path d="M23.988 23.798C26.236 21.462 27.098 18.218 26.289 15.115C25.8621 13.4914 25.0053 12.0128 23.809 10.835C23.701 10.729 23.593 10.621 23.467 10.515L23.359 10.408C23.2857 10.3373 23.2075 10.2718 23.125 10.212L22.981 10.105L22.766 9.945L22.639 9.855C22.5532 9.79879 22.4694 9.73942 22.388 9.677L22.225 9.571C22.1578 9.52212 22.0857 9.48023 22.01 9.446L21.848 9.339C21.776 9.303 21.704 9.249 21.632 9.214L21.47 9.124C21.398 9.089 21.326 9.053 21.236 9.018L21.181 9C21.379 9.16 21.576 9.339 21.756 9.517C22.5764 10.3305 23.2276 11.2983 23.672 12.3648C24.1164 13.4313 24.3452 14.5752 24.3452 15.7305C24.3452 16.8858 24.1164 18.0297 23.672 19.0962C23.2276 20.1627 22.5764 21.1305 21.756 21.944C17.37 26.294 10.251 26.294 5.863 21.944C5.701 21.784 5.557 21.624 5.396 21.464L5.27 21.321C5.17578 21.2114 5.08572 21.0983 5 20.982C5.56403 22.0881 6.29832 23.0988 7.176 23.977C11.76 28.523 19.202 28.523 23.786 23.977C23.8659 23.9328 23.9349 23.8713 23.988 23.797V23.798Z" fill="white"/>
<path d="M10.3885 22.3853C10.1885 22.2221 9.99627 22.0496 9.81255 21.8682C8.99128 21.054 8.33939 20.0852 7.89453 19.0177C7.44966 17.9503 7.22061 16.8052 7.22061 15.6488C7.22061 14.4923 7.44966 13.3473 7.89453 12.2798C8.33939 11.2123 8.99128 10.2435 9.81255 9.42925C14.2035 5.07525 21.3285 5.07525 25.7195 9.42925C26.0255 9.73325 26.3125 10.0543 26.5825 10.3932C26.0179 9.29174 25.2832 8.28608 24.4055 7.41325C19.8175 2.86225 12.3675 2.86225 7.77955 7.41325C7.72555 7.46625 7.67155 7.53825 7.59955 7.59125C4.55855 10.7682 4.14455 15.5153 6.57455 19.1203C7.52855 20.5103 8.85855 21.6703 10.3885 22.3853Z" fill="white"/>
</g>
<defs>
<clipPath id="clip0_0_555">
<rect width="32" height="32" fill="white"/>
</clipPath>
</defs>
</svg>
