<svg width="32" height="32" viewBox="0 0 32 32" fill="none" xmlns="http://www.w3.org/2000/svg">
<g clip-path="url(#clip0_0_526)">
<path d="M16 32C24.8366 32 32 24.8366 32 16C32 7.16344 24.8366 0 16 0C7.16344 0 0 7.16344 0 16C0 24.8366 7.16344 32 16 32Z" fill="#F58634"/>
<path d="M13.288 22.777H13.292C14.481 22.633 15.481 22.273 16.292 21.697C17.366 20.927 17.903 19.949 17.903 18.763C17.903 17.763 17.51 16.926 16.725 16.241C15.938 15.558 14.872 15.143 13.527 14.999C13.07 14.94 12.422 14.897 11.59 14.849C9.77598 14.739 8.59898 14.491 8.05298 14.102C7.85888 13.9627 7.6955 13.785 7.57298 13.58C7.46919 13.3935 7.41545 13.1833 7.41698 12.97C7.41698 12.409 7.74098 11.935 8.39398 11.562C9.04598 11.19 9.86998 11 10.872 11C11.821 11 12.762 11.162 13.652 11.48C17.478 12.844 21.132 17.612 23.565 21.026C21.582 22.231 18.881 22.974 15.905 22.974C15.029 22.974 14.154 22.909 13.288 22.777V22.777ZM9.00898 20.835C5.51598 19.56 3.98698 16.409 5.71198 13.349C5.75998 13.779 5.91898 14.192 6.17498 14.549C6.49498 14.998 6.96498 15.363 7.58198 15.65C9.73698 16.586 13.7 15.988 15.332 17.177C15.881 17.577 16.156 18.088 16.156 18.711C16.156 19.494 15.773 20.135 15.007 20.633C14.242 21.131 13.246 21.38 12.02 21.38C10.9926 21.3742 9.97413 21.1898 9.00998 20.835H9.00898Z" fill="white"/>
<path opacity="0.5" d="M26.084 18.875V13.021C26.741 13.91 27.108 14.903 27.108 15.948C27.108 16.994 26.741 17.985 26.084 18.875ZM24.435 11.415L24.44 18.876C22.097 15.55 18.596 11.365 14.293 9.967C13.5486 9.72392 12.7796 9.56394 12 9.49C13.334 9.16126 14.7031 8.99671 16.077 9C19.417 9 22.412 9.936 24.435 11.415Z" fill="white"/>
</g>
<defs>
<clipPath id="clip0_0_526">
<rect width="32" height="32" fill="white"/>
</clipPath>
</defs>
</svg>
