<svg width="32" height="32" viewBox="0 0 32 32" fill="none" xmlns="http://www.w3.org/2000/svg">
<g clip-path="url(#clip0_0_522)">
<path d="M16 32C24.8366 32 32 24.8366 32 16C32 7.16344 24.8366 0 16 0C7.16344 0 0 7.16344 0 16C0 24.8366 7.16344 32 16 32Z" fill="#6CDE07"/>
<path fill-rule="evenodd" clip-rule="evenodd" d="M23 19.154C23 21.724 20.914 23.43 17.834 23.687V26H15.724V23.664C13.6407 23.4291 11.6613 22.6289 10 21.35L11.552 19.224C12.935 20.299 14.244 21 15.821 21.234V16.654C12.28 15.766 10.631 14.481 10.631 11.841C10.631 9.318 12.692 7.589 15.724 7.355V6H17.834V7.402C19.4831 7.58518 21.0554 8.19754 22.394 9.178L21.035 11.374C19.968 10.603 18.877 10.112 17.737 9.879V14.318C21.424 15.206 23 16.631 23 19.154V19.154ZM15.82 13.827V9.715C14.293 9.832 13.493 10.65 13.493 11.678C13.493 12.658 13.953 13.29 15.821 13.828L15.82 13.827ZM20.138 19.317C20.138 18.267 19.628 17.636 17.737 17.098V21.328C19.265 21.21 20.138 20.439 20.138 19.318V19.317Z" fill="white"/>
</g>
<defs>
<clipPath id="clip0_0_522">
<rect width="32" height="32" fill="white"/>
</clipPath>
</defs>
</svg>
