<svg width="32" height="32" viewBox="0 0 32 32" fill="none" xmlns="http://www.w3.org/2000/svg">
<g clip-path="url(#clip0_0_510)">
<path d="M16 32C24.8366 32 32 24.8366 32 16C32 7.16344 24.8366 0 16 0C7.16344 0 0 7.16344 0 16C0 24.8366 7.16344 32 16 32Z" fill="#30367A"/>
<path d="M13.853 22.298V9.028H10V6H21V9.028H17.147V22.298H13.853ZM12.966 26C10.977 26 10.036 25.044 10.036 23.022V9.896H12.93V22.888C12.93 23.208 13.035 23.314 13.349 23.314H17.688C18.002 23.314 18.108 23.207 18.108 22.888V9.896H21V23.022C21 25.044 20.058 26 18.07 26H12.966Z" fill="white"/>
</g>
<defs>
<clipPath id="clip0_0_510">
<rect width="32" height="32" fill="white"/>
</clipPath>
</defs>
</svg>
