<svg width="32" height="32" viewBox="0 0 32 32" fill="none" xmlns="http://www.w3.org/2000/svg">
<g clip-path="url(#clip0_0_502)">
<path d="M16 32C24.8366 32 32 24.8366 32 16C32 7.16344 24.8366 0 16 0C7.16344 0 0 7.16344 0 16C0 24.8366 7.16344 32 16 32Z" fill="#15BDFF"/>
<path d="M14.7362 25.234L7.03818 9.546C7.01011 9.48821 6.99716 9.42424 7.00052 9.36008C7.00389 9.29592 7.02347 9.23367 7.05743 9.17913C7.09139 9.12459 7.13862 9.07955 7.19472 9.04823C7.25081 9.0169 7.31393 9.00031 7.37818 9H10.0462C10.1892 9 10.3232 9.08 10.3862 9.206L16.0082 20.587C16.5082 21.607 17.9592 21.607 18.4602 20.587L24.0642 9.215C24.0965 9.15277 24.1453 9.10062 24.2053 9.06429C24.2652 9.02795 24.3341 9.00882 24.4042 9.009H24.7362C24.9332 9.009 25.0582 9.215 24.9692 9.385L17.1892 25.235C16.6882 26.255 15.2382 26.255 14.7362 25.235V25.234Z" fill="white"/>
</g>
<defs>
<clipPath id="clip0_0_502">
<rect width="32" height="32" fill="white"/>
</clipPath>
</defs>
</svg>
