<svg width="32" height="32" viewBox="0 0 32 32" fill="none" xmlns="http://www.w3.org/2000/svg">
<g clip-path="url(#clip0_0_490)">
<path d="M16 32C24.8366 32 32 24.8366 32 16C32 7.16344 24.8366 0 16 0C7.16344 0 0 7.16344 0 16C0 24.8366 7.16344 32 16 32Z" fill="#338BE5"/>
<path d="M22.63 16.918C23.36 17.114 24.08 17.341 24.728 17.74C25.016 17.917 25.285 18.125 25.528 18.359C25.888 18.759 25.864 19.181 25.536 19.604C25.248 19.972 24.856 20.207 24.439 20.403C23.383 20.912 22.263 21.202 21.119 21.374C20.19 21.514 19.246 21.594 18.309 21.711C18.2649 21.7204 18.2232 21.7384 18.1861 21.764C18.149 21.7895 18.1174 21.8222 18.093 21.86C17.437 22.838 16.789 23.817 16.133 24.796C16.0803 24.8606 16.0322 24.9287 15.989 25C15.2961 23.9604 14.6104 22.916 13.932 21.867C13.9034 21.8179 13.8626 21.7769 13.8135 21.7482C13.7645 21.7195 13.7088 21.7039 13.652 21.703C11.779 21.57 9.93097 21.327 8.16197 20.693C7.60197 20.497 7.06597 20.254 6.60197 19.886C6.57697 19.862 6.54497 19.846 6.52197 19.823C5.84197 19.252 5.82497 18.641 6.48197 18.053C7.00197 17.583 7.64197 17.317 8.30597 17.113C8.96997 16.909 9.64197 16.761 10.315 16.589C10.347 16.581 10.379 16.581 10.435 16.565C8.98597 14.349 7.55397 12.156 6.08897 9.932C6.17697 9.924 6.24097 9.916 6.29697 9.916C7.20197 9.908 8.10597 9.916 9.00997 9.908C9.07389 9.90416 9.13752 9.91917 9.19299 9.95117C9.24845 9.98317 9.2933 10.0307 9.32197 10.088C11.512 13.428 13.7 16.769 15.885 20.113C15.9171 20.1689 15.9546 20.2215 15.997 20.27C16.501 19.51 16.989 18.782 17.469 18.053C19.229 15.393 20.99 12.736 22.751 10.081C22.815 9.987 22.863 9.916 23.007 9.916C23.959 9.924 24.912 9.924 25.864 9.924C25.909 9.924 25.954 9.926 26 9.932C24.5141 12.1738 23.0254 14.4138 21.534 16.652C21.911 16.745 22.271 16.824 22.631 16.918H22.63ZM8.89797 18.798C9.08397 19.005 9.30297 19.183 9.54597 19.322C10.546 19.855 11.651 20.05 12.796 20.222C12.78 20.168 12.78 20.144 12.772 20.129C12.123 19.149 11.483 18.163 10.835 17.184C10.809 17.1585 10.7773 17.1394 10.7425 17.1285C10.7078 17.1176 10.6709 17.115 10.635 17.121C10.255 17.246 9.88297 17.395 9.52197 17.568C9.28828 17.6968 9.07963 17.8664 8.90597 18.069C8.8089 18.1648 8.7536 18.295 8.7521 18.4314C8.7506 18.5677 8.80303 18.6991 8.89797 18.797V18.798ZM21.502 19.643C21.938 19.5252 22.3371 19.2989 22.662 18.985C22.983 18.665 22.983 18.304 22.662 17.975C22.5826 17.8891 22.4913 17.815 22.391 17.755C22.047 17.583 21.687 17.419 21.334 17.247C21.214 17.184 21.142 17.231 21.07 17.341C20.694 17.921 20.31 18.491 19.926 19.064C19.686 19.424 19.446 19.792 19.198 20.168C19.2617 20.176 19.3262 20.176 19.39 20.168C20.094 19.996 20.806 19.839 21.502 19.643V19.643ZM21.51 9L16.029 17.732L10.475 9H21.51Z" fill="white"/>
</g>
<defs>
<clipPath id="clip0_0_490">
<rect width="32" height="32" fill="white"/>
</clipPath>
</defs>
</svg>
