<svg width="32" height="32" viewBox="0 0 32 32" fill="none" xmlns="http://www.w3.org/2000/svg">
<g clip-path="url(#clip0_0_486)">
<path d="M16 32C24.8366 32 32 24.8366 32 16C32 7.16344 24.8366 0 16 0C7.16344 0 0 7.16344 0 16C0 24.8366 7.16344 32 16 32Z" fill="#408AF1"/>
<path d="M23.0488 10.7762C23.1554 10.5951 23.2972 10.4371 23.4658 10.3117C23.6344 10.1862 23.8264 10.0958 24.0305 10.0457C24.2347 9.9957 24.4467 9.98703 24.6543 10.0203C24.8618 10.0535 25.0605 10.1279 25.2388 10.2392C25.9888 10.7092 26.2248 11.7092 25.7648 12.4762C24.0608 15.3142 22.1378 18.2842 20.5348 20.5522C18.1948 23.8622 17.6878 24.9992 15.9998 24.9992C14.3118 24.9992 13.9318 23.9962 11.5248 20.5432C10.0948 18.4932 8.30182 15.7482 6.25482 12.5072C6.02553 12.1445 5.94687 11.7066 6.03559 11.2867C6.1243 10.8668 6.37339 10.4982 6.72982 10.2592C6.90537 10.1436 7.10231 10.0644 7.309 10.0262C7.51569 9.98799 7.72794 9.99161 7.93322 10.0368C8.13849 10.082 8.33261 10.1679 8.50413 10.2894C8.67565 10.4109 8.82107 10.5656 8.93182 10.7442C10.9548 13.9462 15.5248 20.6202 16.0128 21.2152C16.5228 20.6112 21.3848 13.5482 23.0488 10.7752V10.7762Z" fill="white"/>
</g>
<defs>
<clipPath id="clip0_0_486">
<rect width="32" height="32" fill="white"/>
</clipPath>
</defs>
</svg>
