<svg width="32" height="32" viewBox="0 0 32 32" fill="none" xmlns="http://www.w3.org/2000/svg">
<g clip-path="url(#clip0_0_476)">
<path d="M16 32C24.8366 32 32 24.8366 32 16C32 7.16344 24.8366 0 16 0C7.16344 0 0 7.16344 0 16C0 24.8366 7.16344 32 16 32Z" fill="#FFB500"/>
<path d="M27.8858 14.5154C27.5966 12.1847 26.63 9.9901 25.1058 8.20338C24.0393 6.94935 22.7234 5.93108 21.2418 5.21338C19.2533 4.24231 17.0344 3.8418 14.8318 4.05638C12.7893 4.25391 10.8316 4.97262 9.1465 6.14368C7.46136 7.31473 6.10516 8.89889 5.20782 10.7444C4.13711 12.9481 3.76584 15.4266 4.14382 17.8474C4.50549 20.1602 5.53819 22.316 7.11382 24.0474C9.35882 26.5494 12.7048 28.0124 16.0658 27.9734C17.7577 27.9626 19.4281 27.5938 20.9673 26.8912C22.5064 26.1886 23.8794 25.1681 24.9959 23.8969C26.1124 22.6257 26.9471 21.1325 27.4452 19.5155C27.9433 17.8986 28.0935 16.1945 27.8858 14.5154ZM24.2318 11.9254C24.177 12.0018 24.1295 12.0831 24.0898 12.1684L18.8118 23.2864C18.5588 23.8174 18.3048 24.3544 18.0168 24.8664C16.7098 24.8564 15.4028 24.8614 14.0948 24.8614C12.0118 20.5734 9.93882 16.2814 7.85082 11.9984C7.80782 11.9154 7.76382 11.8274 7.71982 11.7444C7.75382 11.7204 7.83182 11.6764 7.86582 11.6564C8.68082 10.6424 9.50582 9.63238 10.3248 8.61738C10.4268 8.48638 10.5448 8.35938 10.6608 8.24238C10.7148 8.32938 10.7678 8.41738 10.8118 8.51538C11.2658 9.55938 11.7288 10.6084 12.1918 11.6514C12.6618 11.6514 13.1288 11.6614 13.6018 11.6314C13.7728 11.7934 13.8658 12.0084 13.9338 12.2274C14.0218 12.0034 14.0558 11.7644 14.0658 11.5204C14.2168 10.1204 14.2418 8.70538 14.3928 7.30538C14.4168 7.00338 14.8708 7.00338 14.9098 7.29538C15.0558 8.62238 15.0898 9.96438 15.1978 11.2954C15.2178 11.6954 15.2318 12.0954 15.3198 12.4854C15.5198 12.2224 15.4558 11.7594 15.8218 11.6514C16.1248 11.5494 16.4658 11.7204 16.7538 11.5394C17.1488 11.3004 17.2948 10.8324 17.5438 10.4664C17.6858 10.2274 18.0118 10.0564 18.2758 10.1934C18.5388 10.2954 18.6508 10.5784 18.7878 10.8034C18.9438 11.0614 19.0858 11.3494 19.3388 11.5204C19.5638 11.6174 19.8168 11.6324 20.0608 11.6274C20.5538 10.5154 21.0608 9.40738 21.5638 8.30038C22.4418 9.40338 23.2708 10.5404 24.1488 11.6424C24.2808 11.7004 24.3048 11.7984 24.2318 11.9254V11.9254Z" fill="white"/>
<path d="M17.717 10.399C17.322 10.829 17.181 11.521 16.59 11.741C16.288 11.887 15.922 11.765 15.62 11.878C15.356 12.395 15.39 13.004 15.19 13.541C15.054 13.795 14.644 13.668 14.644 13.39C14.474 11.931 14.459 10.458 14.303 9C14.137 10.312 14.093 11.638 13.888 12.94C13.888 13.278 13.356 13.331 13.308 12.995C13.205 12.615 13.181 12.215 12.99 11.858C12.66 11.8531 12.33 11.8531 12 11.858C13.244 14.678 14.478 17.497 15.722 20.317C16.981 17.497 18.283 14.697 19.532 11.873L19.537 11.863C19.21 11.823 18.854 11.79 18.581 11.585C18.201 11.268 18.054 10.76 17.717 10.399V10.399Z" fill="white"/>
</g>
<defs>
<clipPath id="clip0_0_476">
<rect width="32" height="32" fill="white"/>
</clipPath>
</defs>
</svg>
