<svg width="32" height="32" viewBox="0 0 32 32" fill="none" xmlns="http://www.w3.org/2000/svg">
<g clip-path="url(#clip0_0_472)">
<path d="M16 32C24.8366 32 32 24.8366 32 16C32 7.16344 24.8366 0 16 0C7.16344 0 0 7.16344 0 16C0 24.8366 7.16344 32 16 32Z" fill="#048657"/>
<path d="M3 16.236L4.95 14.015H11.888L16.151 19.453L27.306 4C27.9908 4.618 28.6137 5.30122 29.166 6.04C29.7416 6.8057 30.2426 7.62477 30.662 8.486L16.967 27.429C16.708 27.701 16.436 27.837 16.151 27.837C15.865 27.837 15.578 27.701 15.289 27.429L6.628 16.235H3V16.236Z" fill="white"/>
</g>
<defs>
<clipPath id="clip0_0_472">
<rect width="32" height="32" fill="white"/>
</clipPath>
</defs>
</svg>
