<svg width="32" height="32" viewBox="0 0 32 32" fill="none" xmlns="http://www.w3.org/2000/svg">
<g clip-path="url(#clip0_0_462)">
<path d="M16 32C24.8366 32 32 24.8366 32 16C32 7.16344 24.8366 0 16 0C7.16344 0 0 7.16344 0 16C0 24.8366 7.16344 32 16 32Z" fill="#399B32"/>
<path d="M21.89 7.468C21.782 7.902 21.801 8.458 21.921 8.508C22.041 8.559 22.343 8.272 22.52 7.946C22.69 7.646 22.841 7.557 23.05 7.634C23.327 7.742 23.283 7.838 22.715 8.329C22.243 8.738 22.148 8.885 22.275 9.012C22.35 9.089 22.406 9.076 22.677 8.929C23.017 8.751 23.207 8.763 23.207 8.968C23.207 9.063 23.081 9.14 22.621 9.318C22.293 9.446 21.971 9.612 21.896 9.695C21.745 9.861 21.48 10.385 21.165 11.157C20.894 11.827 20.635 12.319 20.465 12.51C20.326 12.663 19.86 12.76 18.877 12.836C18.417 12.874 18.36 12.868 18.335 12.759C18.2642 12.4618 18.2074 12.1615 18.165 11.859C18.165 11.84 18.398 11.846 18.688 11.866C19.205 11.904 19.721 12.044 19.961 12.21C20.144 12.338 20.163 12.319 20.245 11.961C20.345 11.553 20.56 11.017 20.887 10.353C21.133 9.861 21.14 9.823 21.114 9.357C21.083 8.84 20.994 8.617 20.686 8.278C20.572 8.158 20.503 8.023 20.522 7.972C20.538 7.93279 20.5507 7.89232 20.56 7.851C20.56 7.838 20.616 7.825 20.68 7.825C20.755 7.825 20.887 7.94 21.007 8.112C21.341 8.585 21.442 8.495 21.442 7.71C21.442 7.353 21.467 7.2 21.549 7.11C21.675 6.97 21.776 6.964 21.883 7.091C21.946 7.168 21.946 7.251 21.89 7.468V7.468ZM16.879 10.142C16.923 10.615 17.011 10.78 17.295 10.882C17.408 10.927 17.565 10.992 17.641 11.017C17.824 11.093 17.875 11.367 18.07 13.155C18.278 15.095 18.322 15.37 18.518 15.97C18.814 16.882 18.788 17.942 18.442 19.008C18.265 19.557 18.07 19.806 17.667 20.023C16.86 20.45 16.027 20.138 15.379 19.167C14.897 18.467 14.719 17.597 14.887 16.761C14.982 16.314 15.032 15.638 14.987 15.471C14.969 15.389 14.767 15.134 14.54 14.891C13.834 14.157 13.09 12.842 13.236 12.606C13.28 12.542 13.311 12.344 13.311 12.172C13.311 11.821 13.211 11.68 12.769 11.432C12.479 11.266 12.46 11.1 12.7 10.64C12.832 10.372 12.908 10.315 13.57 9.976C14.244 9.632 14.547 9.536 15.549 9.357C15.965 9.28 16.267 9.287 16.494 9.383C16.759 9.498 16.834 9.644 16.879 10.143V10.142ZM10.916 12.523C10.916 12.848 11.023 13.168 11.099 13.085C11.131 13.053 11.199 12.874 11.263 12.689C11.363 12.369 11.547 12.179 11.673 12.261C11.78 12.331 11.742 12.701 11.603 12.931C11.414 13.244 11.414 13.838 11.61 14.234C11.805 14.617 12.208 15.038 12.385 15.038C12.492 15.031 12.618 14.878 12.965 14.285L13.405 13.538L13.475 13.985C13.545 14.489 13.513 14.642 13.229 15.134C12.914 15.689 12.561 16.123 12.429 16.123C12.278 16.123 11.937 15.785 11.647 15.351C11.534 15.171 11.219 14.827 10.954 14.578L10.469 14.125L10.173 14.176C9.99182 14.2098 9.80825 14.2292 9.624 14.234C9.397 14.24 9.372 14.227 9.354 14.068C9.334 13.928 9.366 13.883 9.498 13.851C9.64172 13.8257 9.78854 13.8233 9.933 13.844C10.109 13.87 10.242 13.857 10.311 13.806C10.418 13.729 10.412 13.716 10.305 13.589C10.242 13.512 10.053 13.41 9.876 13.353C9.436 13.213 9.151 13.021 9.151 12.874C9.151 12.683 9.391 12.638 9.586 12.797C10.236 13.334 10.418 13.41 10.589 13.237C10.709 13.117 10.677 12.887 10.475 12.485C10.299 12.127 10.235 11.795 10.33 11.7C10.393 11.63 10.557 11.649 10.67 11.738C10.803 11.846 10.916 12.198 10.916 12.523V12.523ZM22.444 18.273C22.287 18.44 21.833 18.97 21.436 19.448C20.263 20.865 20.144 21.018 20.194 21.07C20.244 21.12 21.24 20.68 21.467 20.508C21.751 20.284 22.267 19.736 22.362 19.55C22.406 19.474 22.469 19.238 22.514 19.033C22.589 18.65 22.797 18.357 22.986 18.357C23.112 18.357 23.169 18.504 23.119 18.695C23.0331 18.9108 22.9276 19.1183 22.804 19.315C22.646 19.576 22.539 19.812 22.551 19.838C22.614 19.933 22.848 19.888 23.119 19.729C23.276 19.639 23.503 19.404 23.673 19.161C24.007 18.689 24.234 18.485 24.436 18.485C24.606 18.485 24.808 18.702 24.764 18.829C24.744 18.88 24.454 19.129 24.127 19.379C23.56 19.806 23.383 20.029 23.484 20.195C23.541 20.291 24.064 20.163 24.619 19.915C25.564 19.487 25.823 19.461 25.974 19.748C26.1 19.985 25.791 20.131 24.581 20.399C24.247 20.476 23.881 20.597 23.768 20.667L23.56 20.795L23.705 20.916C23.831 21.019 23.963 21.038 24.587 21.038C25.148 21.038 25.357 21.063 25.451 21.133C25.571 21.229 25.564 21.236 25.388 21.395C25.274 21.491 25.168 21.542 25.104 21.516C24.827 21.401 23.888 21.229 23.547 21.229C22.936 21.229 22.885 21.453 23.44 21.669C23.692 21.772 23.787 21.887 23.736 22.021C23.68 22.174 23.528 22.148 22.98 21.893C21.87 21.376 21.669 21.35 20.34 21.523C19.709 21.606 19.526 21.613 19.457 21.548C19.318 21.433 19.343 21.325 19.539 21.153C19.696 21.019 20.913 18.753 20.856 18.702C20.824 18.67 19.596 19.11 18.706 19.48C18.593 19.525 18.593 19.519 18.706 19.34C19.123 18.657 20.326 17.89 21.726 17.412C22.451 17.163 22.495 17.157 22.797 17.163C22.999 17.176 23.056 17.202 23.068 17.303C23.088 17.463 22.835 17.859 22.444 18.273V18.273ZM7.992 20.528C8.225 20.86 8.761 21.422 8.842 21.422C8.925 21.422 8.855 20.866 8.704 20.285C8.565 19.755 8.553 19.5 8.66 19.392C8.742 19.309 9.02 19.29 9.133 19.366C9.177 19.392 9.227 19.756 9.265 20.305C9.335 21.307 9.385 21.492 9.63 21.651C9.788 21.76 9.8 21.76 9.876 21.658C9.914 21.6 9.958 21.364 9.965 21.128C9.983 20.496 10.135 20.215 10.405 20.305C10.614 20.368 10.633 20.63 10.475 21.128C10.292 21.708 10.261 22.13 10.343 22.698C10.463 23.471 10.753 24.16 10.897 24.013C10.929 23.988 10.947 23.126 10.954 22.105C10.96 20.509 10.973 20.19 11.068 19.89C11.244 19.34 11.282 19.315 11.975 19.315C13.116 19.315 15.234 19.622 15.517 19.825C15.82 20.043 15.757 20.12 15.158 20.311C13.853 20.713 13.217 20.79 12.429 20.637C12.171 20.585 11.937 20.554 11.912 20.567C11.887 20.579 11.912 20.726 11.962 20.892C12.12 21.409 12.076 21.728 11.704 22.864C11.509 23.445 11.326 24.122 11.301 24.364C11.276 24.607 11.206 24.849 11.168 24.9C11.004 25.098 10.822 25.009 10.525 24.594C10.154 24.084 9.567 23.522 9.227 23.343C9.082 23.266 8.603 23.126 8.168 23.023C7.387 22.845 7.135 22.723 7.229 22.571C7.261 22.513 7.399 22.507 7.702 22.532C8.256 22.59 8.301 22.513 7.929 22.162C7.52336 21.8019 7.05851 21.5147 6.555 21.313C6.082 21.122 6 21.058 6 20.905C6 20.783 6.176 20.655 6.347 20.655C6.403 20.655 6.656 20.828 6.901 21.045C7.418 21.485 7.777 21.696 7.973 21.665C8.333 21.613 7.903 20.777 7.229 20.215C6.983 20.011 6.744 19.762 6.693 19.666C6.611 19.506 6.611 19.488 6.725 19.405C6.82959 19.3442 6.95048 19.3173 7.071 19.328C7.267 19.348 7.311 19.386 7.544 19.794C7.683 20.043 7.884 20.374 7.992 20.528V20.528ZM17.03 9.568C17.352 9.518 17.42 9.779 17.42 9.773C17.591 10.213 17.49 10.763 17.49 10.763C17.263 10.718 17.093 10.437 17.093 10.437C16.961 10.124 17.03 9.569 17.03 9.569V9.568ZM12.486 11.388C12.486 11.388 12.971 11.656 13.154 11.943C13.154 11.943 13.28 12.243 13.185 12.46C13.185 12.46 12.681 12.224 12.429 11.828C12.429 11.835 12.265 11.624 12.486 11.388Z" fill="white"/>
</g>
<defs>
<clipPath id="clip0_0_462">
<rect width="32" height="32" fill="white"/>
</clipPath>
</defs>
</svg>
