<svg width="32" height="32" viewBox="0 0 32 32" fill="none" xmlns="http://www.w3.org/2000/svg">
<g clip-path="url(#clip0_0_450)">
<path d="M16 32C24.8366 32 32 24.8366 32 16C32 7.16344 24.8366 0 16 0C7.16344 0 0 7.16344 0 16C0 24.8366 7.16344 32 16 32Z" fill="#F89022"/>
<path fill-rule="evenodd" clip-rule="evenodd" d="M28 19.462H25.636L23.959 18.026L22.288 19.456H20.29L19.335 18.296H16.043L16.876 17.267H18.495L17.262 15.759L12.957 21H10.96L12.206 19.478H10.125L9 16.324L7.884 19.454H5.773L4 14.541H5.62L6.812 17.887L8 14.556H10L11.185 17.88L12.369 14.555H13.994L12.206 19.478L12.604 18.992L16.256 14.547H18.266L21.305 18.255L22.767 16.998L18.14 13H20.515L28 19.462ZM25.655 16.49L24.54 15.534L25.653 14.586L27.903 14.588L25.655 16.49Z" fill="white"/>
</g>
<defs>
<clipPath id="clip0_0_450">
<rect width="32" height="32" fill="white"/>
</clipPath>
</defs>
</svg>
