<svg width="32" height="32" viewBox="0 0 32 32" fill="none" xmlns="http://www.w3.org/2000/svg">
<g clip-path="url(#clip0_0_434)">
<path d="M16 32C24.8366 32 32 24.8366 32 16C32 7.16344 24.8366 0 16 0C7.16344 0 0 7.16344 0 16C0 24.8366 7.16344 32 16 32Z" fill="#5783CB"/>
<path d="M15.24 4H16.48C19.1876 4.13033 21.7638 5.20609 23.76 7.04C24.1 7.26 24.1 7.8 23.7 7.94C23.36 8.02 23.1 7.72 22.84 7.54C20.6296 5.85672 17.853 5.0955 15.0932 5.41623C12.3335 5.73696 9.80541 7.11467 8.04 9.26C6.5985 11.0329 5.77468 13.2276 5.69352 15.5111C5.61237 17.7947 6.27833 20.0423 7.59034 21.9131C8.90235 23.7838 10.7888 25.1755 12.9634 25.877C15.138 26.5785 17.4821 26.5514 19.64 25.8C21.4051 25.1891 22.9815 24.1309 24.2154 22.7288C25.4493 21.3266 26.2985 19.6284 26.68 17.8C26.856 17.071 26.97 16.328 27.02 15.58C27.0328 15.4704 27.0881 15.3702 27.1739 15.3009C27.2597 15.2315 27.3693 15.1986 27.4791 15.209C27.589 15.2195 27.6904 15.2725 27.7615 15.3568C27.8327 15.4411 27.8681 15.55 27.86 15.66L27.82 16.9C27.6644 19.7919 26.4382 22.5225 24.38 24.56C22.2929 26.629 19.5152 27.8541 16.58 28H15.4C12.4185 27.8493 9.59969 26.5945 7.49243 24.4798C5.38518 22.3652 4.14025 19.542 4 16.56V15.44C4.1454 12.4868 5.37062 9.68998 7.44283 7.5809C9.51505 5.47181 12.2899 4.19746 15.24 4V4Z" fill="white"/>
<path d="M25.1941 10.4525C25.9941 9.57255 27.6541 10.0525 27.8341 11.2325C28.0941 12.2925 27.0741 13.1925 26.0341 13.1125C24.6541 14.5125 23.5541 16.1725 22.6141 17.9125C22.2341 18.4325 22.7141 19.1125 22.4141 19.6525C22.0541 20.7125 20.4941 20.9325 19.8141 20.0525C19.3141 19.4925 19.4541 18.7126 19.7141 18.0926C19.3334 17.3026 18.8268 16.5798 18.2141 15.9525L17.6141 15.9725C16.3006 17.42 15.2148 19.0587 14.3941 20.8326C14.5341 21.3726 14.6341 22.0125 14.2541 22.4925C13.7541 23.3125 12.4341 23.3925 11.8141 22.6325C11.3541 22.1125 11.4141 21.3726 11.6541 20.7526C10.9636 18.8749 9.97788 17.1195 8.73407 15.5525C7.95407 15.5125 7.13407 15.0525 7.03407 14.2325C6.77407 13.1125 8.05407 12.0325 9.11407 12.5325C10.0541 12.8725 10.3141 14.0725 9.85407 14.8925C10.6096 16.8101 11.6699 18.5931 12.9941 20.1726C14.4334 18.7459 15.6052 17.0728 16.4541 15.2325C16.2941 14.6925 16.1941 14.0725 16.5541 13.5725C17.0941 12.6925 18.5341 12.6725 19.0941 13.5525C19.5141 14.0925 19.3741 14.8125 19.1341 15.3925C19.5054 16.1841 19.9979 16.9129 20.5941 17.5525L21.1941 17.5125C22.6541 15.9725 23.9941 14.2725 24.8941 12.3325C24.7941 11.6925 24.6741 10.9325 25.2141 10.4525H25.1941V10.4525Z" fill="white"/>
</g>
<defs>
<clipPath id="clip0_0_434">
<rect width="32" height="32" fill="white"/>
</clipPath>
</defs>
</svg>
