<svg width="32" height="32" viewBox="0 0 32 32" fill="none" xmlns="http://www.w3.org/2000/svg">
<g clip-path="url(#clip0_0_423)">
<path d="M16 32C24.8366 32 32 24.8366 32 16C32 7.16344 24.8366 0 16 0C7.16344 0 0 7.16344 0 16C0 24.8366 7.16344 32 16 32Z" fill="#FFE600"/>
<path fill-rule="evenodd" clip-rule="evenodd" d="M4 5.405C4.79119 4.50732 5.68002 3.70067 6.65 3L11.102 18.918L13.075 10.48H16.815L18.787 18.918L21.124 10.48H24.873L24.908 10.63L28.982 25.344C28.2436 26.3657 27.3878 27.2971 26.432 28.119L22.995 15.709L21.035 22.787L21 22.937H16.814L14.945 16.005L13.075 22.937H8.889L8.854 22.787L4 5.405Z" fill="white"/>
</g>
<defs>
<clipPath id="clip0_0_423">
<rect width="32" height="32" fill="white"/>
</clipPath>
</defs>
</svg>
