<svg width="32" height="32" viewBox="0 0 32 32" fill="none" xmlns="http://www.w3.org/2000/svg">
<g clip-path="url(#clip0_0_1107)">
<path d="M16 32C24.8366 32 32 24.8366 32 16C32 7.16344 24.8366 0 16 0C7.16344 0 0 7.16344 0 16C0 24.8366 7.16344 32 16 32Z" fill="#8200FF"/>
<path fill-rule="evenodd" clip-rule="evenodd" d="M18.414 13.166L17.734 13.333C17.12 13.483 16.69 14.023 16.69 14.643V19.181L14.443 19.731C14.2669 19.7755 14.0805 19.7488 13.924 19.6567C13.7675 19.5646 13.6536 19.4145 13.607 19.239C13.5935 19.1854 13.5868 19.1303 13.587 19.075V11.52C13.587 11.21 13.802 10.94 14.109 10.864L17.557 10.02C17.7331 9.9755 17.9195 10.0022 18.076 10.0943C18.2325 10.1864 18.3464 10.3365 18.393 10.512C18.407 10.565 18.413 10.62 18.413 10.675V13.166H18.414ZM10.828 13.124L9.976 13.333C9.362 13.483 8.931 14.023 8.931 14.643V19.223L6.857 19.731C6.68095 19.7755 6.49445 19.7488 6.33795 19.6567C6.18145 19.5646 6.06757 19.4145 6.021 19.239C6.00717 19.1854 6.00012 19.1303 6 19.075V11.52C6 11.21 6.215 10.94 6.522 10.864L9.971 10.02C10.1471 9.9755 10.3335 10.0022 10.49 10.0943C10.6465 10.1864 10.7604 10.3365 10.807 10.512C10.821 10.565 10.827 10.62 10.827 10.675V13.125L10.828 13.124ZM21.695 10.885L25.143 10.041C25.3189 9.99647 25.5053 10.023 25.6618 10.1149C25.8182 10.2068 25.9322 10.3567 25.979 10.532C25.9929 10.5856 26 10.6407 26 10.696V18.252C26 18.562 25.785 18.832 25.478 18.907L22.029 19.751C21.8531 19.7955 21.6667 19.769 21.5102 19.6771C21.3538 19.5852 21.2398 19.4353 21.193 19.26C21.1795 19.2064 21.1728 19.1513 21.173 19.096V11.54C21.173 11.23 21.388 10.96 21.695 10.885V10.885Z" fill="white"/>
<path opacity="0.504" fill-rule="evenodd" clip-rule="evenodd" d="M13.276 13V18.761C13.276 18.871 13.289 18.981 13.316 19.089C13.4022 19.4124 13.603 19.6934 13.881 19.8797C14.1589 20.0661 14.4951 20.1451 14.827 20.102V21.041C14.827 21.351 14.612 21.621 14.305 21.696L10.857 22.54C10.6809 22.5848 10.4943 22.5584 10.3376 22.4665C10.1809 22.3746 10.0668 22.2246 10.02 22.049C10.0065 21.9954 9.9998 21.9403 10 21.885V14.329C10 14.019 10.215 13.749 10.522 13.674L13.276 13V13ZM20.862 13.042V18.782C20.862 18.892 20.876 19.002 20.902 19.11C21.088 19.833 21.837 20.273 22.576 20.092L22.586 20.09V21.04C22.5848 21.1919 22.5327 21.3391 22.4381 21.458C22.3435 21.5769 22.2118 21.6607 22.064 21.696L18.615 22.54C18.4391 22.5845 18.2527 22.558 18.0962 22.4661C17.9398 22.3742 17.8258 22.2243 17.779 22.049C17.7655 21.9954 17.7588 21.9403 17.759 21.885V14.329C17.759 14.019 17.974 13.749 18.281 13.674L20.861 13.042H20.862Z" fill="white"/>
</g>
<defs>
<clipPath id="clip0_0_1107">
<rect width="32" height="32" fill="white"/>
</clipPath>
</defs>
</svg>
