<svg width="32" height="32" viewBox="0 0 32 32" fill="none" xmlns="http://www.w3.org/2000/svg">
<g clip-path="url(#clip0_0_1100)">
<path d="M16 32C24.8366 32 32 24.8366 32 16C32 7.16344 24.8366 0 16 0C7.16344 0 0 7.16344 0 16C0 24.8366 7.16344 32 16 32Z" fill="#3B5998"/>
<path fill-rule="evenodd" clip-rule="evenodd" d="M14 6H15.88V11.882L14 9.919V6Z" fill="white"/>
<path fill-rule="evenodd" clip-rule="evenodd" d="M6.001 8.001H10.95C12.627 9.756 14.311 11.508 15.988 13.267C16.959 12.258 17.927 11.242 18.894 10.23C19.609 9.489 20.321 8.744 21.034 8H25.971C23.667 10.33 21.366 12.662 19.061 14.99C18.819 15.233 18.576 15.478 18.339 15.724C18.397 15.786 18.459 15.847 18.511 15.913L25.282 22.759L25.973 23.455H22.143C22.044 23.455 21.945 23.461 21.848 23.448C21.575 23.44 21.301 23.452 21.028 23.442C20.533 22.931 20.044 22.413 19.549 21.9C18.576 20.888 17.607 19.87 16.634 18.856C16.418 18.632 16.207 18.402 15.986 18.184C15.516 18.684 15.034 19.177 14.561 19.677L11.884 22.471C11.572 22.796 11.264 23.123 10.95 23.442C10.68 23.45 10.408 23.442 10.136 23.446C9.981 23.465 9.824 23.452 9.669 23.456H6L13.268 16.106C13.393 15.98 13.517 15.853 13.638 15.724L6 8.001H6.001Z" fill="white"/>
<path fill-rule="evenodd" clip-rule="evenodd" d="M16.002 20C16.628 20.663 17.262 21.319 17.89 21.98C17.894 23.287 17.89 24.592 17.89 25.9H16C16 23.933 16 21.967 16.004 20H16.002Z" fill="white"/>
</g>
<defs>
<clipPath id="clip0_0_1100">
<rect width="32" height="32" fill="white"/>
</clipPath>
</defs>
</svg>
