<svg width="32" height="32" viewBox="0 0 32 32" fill="none" xmlns="http://www.w3.org/2000/svg">
<g clip-path="url(#clip0_0_1092)">
<path d="M16 32C24.8366 32 32 24.8366 32 16C32 7.16344 24.8366 0 16 0C7.16344 0 0 7.16344 0 16C0 24.8366 7.16344 32 16 32Z" fill="#F7931A"/>
<path d="M26.345 20.007L25.8 22.19L24.345 21.828L24.889 19.644L22.706 19.1L23.069 17.645L25.252 18.189L25.797 16.006L27.252 16.369L26.708 18.552L28.891 19.096L28.528 20.552L26.345 20.007ZM20.978 14.013C20.775 15.363 20.039 16.019 19.066 16.253C20.397 16.956 21.071 18.04 20.414 19.93C19.598 22.277 17.688 22.485 15.152 22.01L14.522 24.532L13.036 24.162L13.657 21.672C13.2612 21.574 12.8665 21.4717 12.473 21.365L11.849 23.865L10.365 23.495L10.995 20.967C10.647 20.878 10.295 20.784 9.935 20.694L8 20.211L8.748 18.469C8.748 18.469 9.843 18.76 9.828 18.739C10.25 18.842 10.438 18.561 10.513 18.374L11.507 14.386L11.665 14.425C11.6145 14.4049 11.5627 14.3881 11.51 14.375L12.22 11.528C12.24 11.205 12.133 10.799 11.53 10.648C11.554 10.633 10.451 10.38 10.451 10.38L10.856 8.756L12.906 9.268L12.904 9.275C13.212 9.352 13.53 9.425 13.854 9.498L14.477 7L15.963 7.37L15.352 9.82C15.751 9.91 16.152 10.002 16.542 10.1L17.149 7.667L18.636 8.037L18.013 10.536C19.889 11.186 21.258 12.169 20.978 14.013V14.013ZM17.551 18.898C18.042 16.928 14.809 16.438 13.801 16.186L12.968 19.533C13.976 19.783 17.083 20.786 17.553 18.897L17.551 18.898ZM18.038 14.002C18.484 12.209 15.78 11.825 14.941 11.616L14.184 14.653C15.023 14.863 17.609 15.72 18.038 14.002Z" fill="white"/>
</g>
<defs>
<clipPath id="clip0_0_1092">
<rect width="32" height="32" fill="white"/>
</clipPath>
</defs>
</svg>
