<svg width="32" height="32" viewBox="0 0 32 32" fill="none" xmlns="http://www.w3.org/2000/svg">
<g clip-path="url(#clip0_0_1068)">
<path d="M16 32C24.8366 32 32 24.8366 32 16C32 7.16344 24.8366 0 16 0C7.16344 0 0 7.16344 0 16C0 24.8366 7.16344 32 16 32Z" fill="#1EB5FA"/>
<path d="M26.405 7.05136L22.775 8.66136C22.6691 8.71929 22.5808 8.80462 22.5192 8.90842C22.4576 9.01222 22.4251 9.13067 22.425 9.25136V22.2314C22.4246 22.3534 22.4581 22.4731 22.5216 22.5773C22.5852 22.6814 22.6763 22.7659 22.785 22.8214L26.415 24.3914C26.4667 24.4196 26.525 24.4338 26.5839 24.4327C26.6428 24.4315 26.7004 24.4149 26.7509 24.3846C26.8015 24.3542 26.8432 24.3112 26.872 24.2598C26.9008 24.2084 26.9156 24.1503 26.915 24.0914V7.35136C26.9131 7.29233 26.8963 7.23474 26.8662 7.18395C26.8361 7.13316 26.7936 7.09082 26.7427 7.06088C26.6917 7.03094 26.6341 7.01436 26.5751 7.0127C26.516 7.01103 26.4575 7.02433 26.405 7.05136V7.05136ZM9.02002 8.64136L5.50002 7.04136C5.44829 7.01311 5.39008 6.99888 5.33115 7.00007C5.27223 7.00126 5.21464 7.01784 5.1641 7.04817C5.11356 7.07849 5.07183 7.1215 5.04305 7.17293C5.01426 7.22436 4.99943 7.28243 5.00002 7.34136V24.0814C5.00006 24.142 5.01629 24.2016 5.04704 24.2539C5.07779 24.3062 5.12193 24.3494 5.17493 24.3789C5.22792 24.4085 5.28784 24.4234 5.3485 24.422C5.40916 24.4207 5.46837 24.4032 5.52002 24.3714L9.06002 22.5014C9.15779 22.4418 9.23859 22.3581 9.29463 22.2582C9.35067 22.1584 9.38008 22.0458 9.38002 21.9314V9.23136C9.3762 9.11027 9.34101 8.99225 9.27791 8.88883C9.21481 8.78541 9.12595 8.70014 9.02002 8.64136V8.64136ZM20.06 13.0714L16.27 10.9014C16.1682 10.8424 16.0527 10.8113 15.935 10.8113C15.8174 10.8113 15.7018 10.8424 15.6 10.9014L11.74 13.0514C11.6368 13.1114 11.551 13.1975 11.4914 13.301C11.4317 13.4046 11.4002 13.5219 11.4 13.6414V18.0414C11.4 18.2844 11.53 18.5094 11.74 18.6314L15.6 20.8514C15.807 20.9714 16.063 20.9714 16.27 20.8514L20.06 18.6514C20.1633 18.5913 20.249 18.5052 20.3087 18.4017C20.3683 18.2982 20.3998 18.1808 20.4 18.0614V13.6614C20.401 13.5416 20.3701 13.4238 20.3103 13.3201C20.2505 13.2164 20.1641 13.1305 20.06 13.0714V13.0714Z" fill="white"/>
</g>
<defs>
<clipPath id="clip0_0_1068">
<rect width="32" height="32" fill="white"/>
</clipPath>
</defs>
</svg>
