<svg width="32" height="32" viewBox="0 0 32 32" fill="none" xmlns="http://www.w3.org/2000/svg">
<g clip-path="url(#clip0_0_1049)">
<path d="M16 32C24.8366 32 32 24.8366 32 16C32 7.16344 24.8366 0 16 0C7.16344 0 0 7.16344 0 16C0 24.8366 7.16344 32 16 32Z" fill="#FF6600"/>
<path d="M28 16.154C28 22.782 22.628 28.154 16 28.154C9.372 28.154 4 22.782 4 16.154C4 13.473 4.881 10.998 6.362 9.00096L8.322 10.961C7.28134 12.4927 6.72591 14.3022 6.728 16.154C6.728 21.264 10.881 25.416 15.991 25.416C21.1 25.416 25.253 21.263 25.253 16.154C25.2522 14.3023 24.697 12.4933 23.659 10.96L25.619 8.99996C27.1697 11.0621 28.0057 13.5738 28 16.154Z" fill="white"/>
<path d="M22.275 16.292C22.2731 18.0516 21.5733 19.7387 20.329 20.983C19.0847 22.2273 17.3977 22.9271 15.638 22.929C13.8782 22.9274 12.1908 22.2276 10.9463 20.9833C9.70184 19.739 9.00185 18.0518 9 16.292C9 15.139 9.3 14.005 9.872 13.002L15.638 18.766L21.404 13C21.9757 14.0029 22.2763 15.1375 22.276 16.292" fill="white"/>
<path d="M23.694 6.925L15.847 14.762L9.866 8.791L8 6.925C10.1752 5.032 12.9634 3.99267 15.847 4C18.847 4 21.585 5.097 23.694 6.925Z" fill="white"/>
</g>
<defs>
<clipPath id="clip0_0_1049">
<rect width="32" height="32" fill="white"/>
</clipPath>
</defs>
</svg>
