<svg width="32" height="32" viewBox="0 0 32 32" fill="none" xmlns="http://www.w3.org/2000/svg">
<g clip-path="url(#clip0_0_1045)">
<path d="M16 32C24.8366 32 32 24.8366 32 16C32 7.16344 24.8366 0 16 0C7.16344 0 0 7.16344 0 16C0 24.8366 7.16344 32 16 32Z" fill="#FF6600"/>
<path d="M15.823 5C21.808 5 26.648 9.84 26.648 15.824C26.6439 16.9903 26.4556 18.1485 26.09 19.256H22.864V10.162L15.824 17.202L8.784 10.162V19.256H5.557C5.19172 18.1485 5.00373 16.9902 5 15.824C5 9.84 9.84 5 15.824 5H15.823ZM14.211 18.785L15.853 20.4L17.466 18.786L20.517 15.706V21.426H25.064C24.0995 23.0122 22.7427 24.3232 21.1243 25.2326C19.5058 26.142 17.6804 26.6192 15.824 26.618C11.922 26.618 8.49 24.536 6.584 21.426H11.13V15.706L14.21 18.786L14.211 18.785Z" fill="white"/>
</g>
<defs>
<clipPath id="clip0_0_1045">
<rect width="32" height="32" fill="white"/>
</clipPath>
</defs>
</svg>
