<svg width="32" height="32" viewBox="0 0 32 32" fill="none" xmlns="http://www.w3.org/2000/svg">
<g clip-path="url(#clip0_0_1041)">
<path d="M16 32C24.8366 32 32 24.8366 32 16C32 7.16344 24.8366 0 16 0C7.16344 0 0 7.16344 0 16C0 24.8366 7.16344 32 16 32Z" fill="#EC1076"/>
<path fill-rule="evenodd" clip-rule="evenodd" d="M21.0816 21C20.4796 21 19.8186 20.697 19.8186 19.788C19.8186 19.34 20.1686 17.963 20.8666 15.656C21.0096 15.3 21.0806 14.98 21.0806 14.697C21.0806 14.152 20.6606 13.607 19.8786 13.607C19.4246 13.607 18.4356 13.787 18.1356 14.757C17.9356 15.404 17.4746 17.121 16.7526 19.909C16.4726 20.636 15.9716 21 15.2506 21C14.1686 21 13.9876 20.212 13.9876 19.727C13.9876 19.535 14.2756 18.374 14.8526 16.247C15.0776 15.537 15.1896 15.02 15.1896 14.697C15.1896 14.212 14.8296 13.607 13.9876 13.607C13.1466 13.607 12.3646 14.212 12.0046 15.545C11.7646 16.435 11.4236 17.768 10.9826 19.545C10.7426 20.515 10.2006 21 9.35964 21C8.59764 21 8.19764 20.576 8.15764 19.727L9.53964 13.97H6.47464C6.2847 13.9766 6.09536 13.9452 5.91776 13.8775C5.74016 13.8099 5.57789 13.7074 5.44049 13.5761C5.30309 13.4448 5.19334 13.2873 5.11771 13.113C5.04207 12.9386 5.00208 12.7509 5.00008 12.5609C4.99808 12.3708 5.03411 12.1823 5.10606 12.0064C5.178 11.8305 5.28441 11.6708 5.41901 11.5366C5.55361 11.4024 5.7137 11.2965 5.88983 11.2252C6.06597 11.1538 6.2546 11.1184 6.44464 11.121H11.5836C12.3046 11.121 12.7456 11.465 12.9056 12.151C13.6276 11.243 14.5886 11 15.4316 11C16.2746 11 17.3546 11.485 17.8356 12.576C18.4956 11.848 19.6386 11 21.2616 11C22.7636 11 24.0266 12.03 24.0266 13.848C24.0266 14.535 23.6856 15.97 23.0046 18.152L25.6416 18.134C26.4126 18.134 27.0316 18.776 27.0316 19.567C27.0316 20.358 26.4126 21 25.6486 21H21.0816Z" fill="white"/>
</g>
<defs>
<clipPath id="clip0_0_1041">
<rect width="32" height="32" fill="white"/>
</clipPath>
</defs>
</svg>
