<svg width="32" height="32" viewBox="0 0 32 32" fill="none" xmlns="http://www.w3.org/2000/svg">
<g clip-path="url(#clip0_0_1033)">
<path d="M16 32C24.8366 32 32 24.8366 32 16C32 7.16344 24.8366 0 16 0C7.16344 0 0 7.16344 0 16C0 24.8366 7.16344 32 16 32Z" fill="#4FA784"/>
<path fill-rule="evenodd" clip-rule="evenodd" d="M25.5735 12.8462L17.4635 10.5222L14.6895 15.2472L11.4675 11.5102L12.9275 11.3222L14.4325 13.0902L16.1025 10.1312L8.75252 8.02416C8.65377 7.99489 8.54906 7.99217 8.44893 8.01626C8.34879 8.04035 8.25678 8.0904 8.18215 8.16138C8.10752 8.23236 8.05292 8.32175 8.02384 8.42055C7.99476 8.51935 7.99224 8.62407 8.01652 8.72416L11.2725 21.8002L14.7695 15.9122L17.9915 19.6492L16.5315 19.8372L15.0275 18.0692L11.7175 23.5862L12.2075 25.5562C12.233 25.6561 12.2842 25.7476 12.3561 25.8215C12.428 25.8954 12.518 25.9492 12.6171 25.9776C12.7163 26.0059 12.8211 26.0077 12.9212 25.9829C13.0213 25.9581 13.1131 25.9075 13.1875 25.8362L25.8175 13.8262C25.8921 13.7555 25.9466 13.6663 25.9754 13.5677C26.0042 13.4691 26.0063 13.3646 25.9815 13.265C25.9566 13.1653 25.9058 13.074 25.8341 13.0004C25.7624 12.9268 25.6725 12.8736 25.5735 12.8462Z" fill="white"/>
</g>
<defs>
<clipPath id="clip0_0_1033">
<rect width="32" height="32" fill="white"/>
</clipPath>
</defs>
</svg>
