<svg width="32" height="32" viewBox="0 0 32 32" fill="none" xmlns="http://www.w3.org/2000/svg">
<g clip-path="url(#clip0_0_1017)">
<path d="M16 32C24.8366 32 32 24.8366 32 16C32 7.16344 24.8366 0 16 0C7.16344 0 0 7.16344 0 16C0 24.8366 7.16344 32 16 32Z" fill="#A6E000"/>
<path fill-rule="evenodd" clip-rule="evenodd" d="M18.69 26C17.23 26 16.166 25.656 15.498 24.97C14.831 24.282 14.497 23.541 14.497 22.747C14.497 22.457 14.555 22.212 14.672 22.014C14.7861 21.8175 14.9508 21.6552 15.149 21.544C15.351 21.43 15.599 21.372 15.894 21.372C16.189 21.372 16.438 21.43 16.64 21.544C16.842 21.659 17 21.815 17.117 22.014C17.234 22.212 17.292 22.457 17.292 22.747C17.292 23.098 17.207 23.384 17.036 23.606C16.8861 23.8125 16.6736 23.9651 16.43 24.041C16.632 24.316 16.95 24.511 17.385 24.625C17.82 24.748 18.255 24.809 18.689 24.809C19.2723 24.8158 19.8444 24.6483 20.332 24.328C20.821 24.007 21.182 23.533 21.414 22.908C21.647 22.281 21.764 21.571 21.764 20.777C21.764 19.914 21.636 19.177 21.38 18.566C21.131 17.947 20.762 17.489 20.273 17.191C19.7971 16.8971 19.2483 16.7426 18.689 16.745C18.317 16.745 17.851 16.897 17.292 17.203L16.267 17.707V17.203L20.879 11.155H14.497V17.432C14.497 17.952 14.613 18.379 14.847 18.715C15.079 19.051 15.437 19.219 15.917 19.219C16.29 19.219 16.647 19.097 16.989 18.852C17.332 18.6061 17.6312 18.3042 17.874 17.959C17.898 17.8989 17.9386 17.8469 17.991 17.809C18.0332 17.7732 18.0867 17.7534 18.142 17.753C18.228 17.753 18.328 17.795 18.445 17.878C18.5511 17.9936 18.6094 18.1451 18.608 18.302C18.5947 18.41 18.5753 18.5172 18.55 18.623C18.286 19.203 17.92 19.646 17.455 19.952C16.9996 20.2541 16.4645 20.4136 15.918 20.41C14.536 20.41 13.581 20.143 13.053 19.608C12.525 19.074 12.261 18.348 12.261 17.432V11.155H9V9.986H12.26V7.33L11.516 6.596V6H13.682L14.497 6.412V9.986L22.928 9.963L23.768 10.788L18.596 15.874C18.9093 15.7508 19.2387 15.6734 19.574 15.644C20.134 15.644 20.762 15.82 21.461 16.172C22.168 16.515 22.711 16.989 23.091 17.592C23.472 18.188 23.717 18.761 23.825 19.311C23.9337 19.7923 23.9923 20.2836 24 20.777C24.0073 21.7225 23.7918 22.6563 23.371 23.503C22.9666 24.3281 22.2928 24.9906 21.461 25.381C20.5966 25.7958 19.6488 26.0075 18.69 26V26Z" fill="white"/>
</g>
<defs>
<clipPath id="clip0_0_1017">
<rect width="32" height="32" fill="white"/>
</clipPath>
</defs>
</svg>
