<svg width="32" height="32" viewBox="0 0 32 32" fill="none" xmlns="http://www.w3.org/2000/svg">
<g clip-path="url(#clip0_0_1000)">
<path d="M16 32C24.8366 32 32 24.8366 32 16C32 7.16344 24.8366 0 16 0C7.16344 0 0 7.16344 0 16C0 24.8366 7.16344 32 16 32Z" fill="#23B852"/>
<path d="M18.725 19.148H22.115V22.112H11.93L24.573 9.46C24.7735 9.25709 24.9105 9.00018 24.9674 8.72064C25.0242 8.44111 24.9983 8.15108 24.893 7.886C24.7812 7.62253 24.5941 7.39792 24.3552 7.24031C24.1163 7.0827 23.8362 6.99911 23.55 7H8.44999C8.25903 6.99866 8.06972 7.03533 7.89306 7.10785C7.71641 7.18037 7.55594 7.28731 7.421 7.42243C7.28607 7.55755 7.17935 7.71817 7.10707 7.89492C7.03479 8.07168 6.99839 8.26104 6.99999 8.452V19.148L13.275 12.868H9.88499V9.888H20.053L7.42699 22.54C7.22649 22.7429 7.08946 22.9998 7.03263 23.2794C6.9758 23.5589 7.00164 23.8489 7.10699 24.114C7.33599 24.649 7.85499 25 8.44999 25H23.55C23.7406 25 23.9293 24.9624 24.1053 24.8894C24.2814 24.8164 24.4413 24.7095 24.576 24.5746C24.7107 24.4397 24.8174 24.2797 24.8902 24.1035C24.9629 23.9273 25.0003 23.7386 25 23.548V12.868L18.725 19.148Z" fill="white"/>
</g>
<defs>
<clipPath id="clip0_0_1000">
<rect width="32" height="32" fill="white"/>
</clipPath>
</defs>
</svg>
