<svg width="32" height="32" viewBox="0 0 32 32" fill="none" xmlns="http://www.w3.org/2000/svg">
<g clip-path="url(#clip0_0_994)">
<path d="M16 32C24.8366 32 32 24.8366 32 16C32 7.16344 24.8366 0 16 0C7.16344 0 0 7.16344 0 16C0 24.8366 7.16344 32 16 32Z" fill="#006AE3"/>
<path d="M16 22.606V10H17.372V22.606H16Z" fill="white"/>
<path d="M22.697 13.9538L18.457 15.0778L17.512 10.6778L18.772 10.3938L19.27 12.4778C19.27 12.4778 20.415 10.5998 18.888 8.65377C17.988 7.65377 17.561 7.61177 16.552 7.45377C15.664 7.32677 13.6 7.62677 12.985 10.0358C12.725 11.5878 13.018 12.7358 15.018 14.2388L14.906 15.9118C14.906 15.9118 12.673 14.3388 12.097 13.2358C11.652 12.3628 10.887 10.6388 12.267 8.23877C13.009 7.03877 14.473 5.88777 17.052 6.00877C18.348 6.06277 21.515 7.64877 21.024 11.3508C20.939 12.0448 20.579 12.9688 20.579 12.9688L22.319 12.5818L22.697 13.9538V13.9538ZM20.276 23.8178C19.5 24.9968 18.006 26.1078 15.433 25.9208C14.136 25.8328 11.015 24.1628 11.603 20.4748C11.706 19.7848 12.091 18.8718 12.091 18.8718L10.342 19.2118L10 17.8328L14.27 16.8208L15.1 21.2448L13.83 21.4968L13.388 19.3968C13.388 19.3968 12.194 21.2418 13.667 23.2298C14.539 24.2538 14.964 24.3058 15.973 24.4898C16.855 24.6418 18.927 24.3938 19.606 22.0028C19.906 20.4598 19.642 19.3028 17.685 17.7448L17.842 16.0748C17.842 16.0748 20.033 17.7048 20.579 18.8238C20.997 19.7118 21.715 21.4568 20.276 23.8178Z" fill="white"/>
</g>
<defs>
<clipPath id="clip0_0_994">
<rect width="32" height="32" fill="white"/>
</clipPath>
</defs>
</svg>
