<svg width="32" height="32" viewBox="0 0 32 32" fill="none" xmlns="http://www.w3.org/2000/svg">
<g clip-path="url(#clip0_0_982)">
<path d="M16 32C24.8366 32 32 24.8366 32 16C32 7.16344 24.8366 0 16 0C7.16344 0 0 7.16344 0 16C0 24.8366 7.16344 32 16 32Z" fill="#ECB244"/>
<path d="M14.596 19.846H20.893V23.196H17.018C17.082 24.154 17.115 25.043 17.179 26H13.918V23.23H10.042C10.042 22.137 9.91303 21.043 10.107 20.017C10.204 19.47 10.785 18.991 11.14 18.513C12.3683 16.9781 13.6063 15.4511 14.854 13.932C15.339 13.35 15.823 12.803 16.372 12.154H10.332V8.804H13.918V6H17.05V8.735H20.958C20.958 9.863 21.087 10.957 20.893 11.983C20.796 12.53 20.215 13.009 19.828 13.487C18.5998 15.0219 17.3618 16.5489 16.114 18.068C15.6268 18.6765 15.1206 19.2694 14.596 19.846V19.846Z" fill="white"/>
</g>
<defs>
<clipPath id="clip0_0_982">
<rect width="32" height="32" fill="white"/>
</clipPath>
</defs>
</svg>
