<svg width="32" height="32" viewBox="0 0 32 32" fill="none" xmlns="http://www.w3.org/2000/svg">
<g clip-path="url(#clip0_0_971)">
<path d="M16 32C24.8366 32 32 24.8366 32 16C32 7.16344 24.8366 0 16 0C7.16344 0 0 7.16344 0 16C0 24.8366 7.16344 32 16 32Z" fill="#00EAAB"/>
<path d="M25.232 9.99997L23.452 12.77C24.0199 13.8829 24.3134 15.1155 24.308 16.365C24.308 20.765 20.748 24.308 16.365 24.308C15.1213 24.3136 13.8944 24.02 12.788 23.452L10 25.249C11.797 26.525 13.98 27.298 16.348 27.298C22.377 27.298 27.281 22.411 27.281 16.365C27.281 13.98 26.525 11.797 25.232 9.99997V9.99997Z" fill="white"/>
<path d="M15.552 21.7684C16.8326 21.7683 18.0727 21.32 19.0573 20.5011C20.0418 19.6822 20.7086 18.5445 20.942 17.2854C19.2326 16.9133 17.4641 16.9049 15.7512 17.2609C14.0384 17.6168 12.4196 18.3291 11 19.3514C11.5008 20.0982 12.1785 20.7097 12.9726 21.1316C13.7667 21.5534 14.6528 21.7725 15.552 21.7694V21.7684Z" fill="white"/>
<path d="M18.62 15.63C19.577 15.63 20.5 15.731 21.408 15.933C21.4075 14.4766 20.8287 13.08 19.7989 12.0502C18.769 11.0203 17.3724 10.4415 15.916 10.441C15.1334 10.4416 14.36 10.6099 13.6478 10.9345C12.9356 11.259 12.3013 11.7324 11.7874 12.3226C11.2735 12.9129 10.892 13.6064 10.6685 14.3565C10.4451 15.1065 10.3849 15.8957 10.492 16.671C9.115 17.73 8.46 18.553 8.426 18.586C8.12905 17.7387 7.97594 16.8478 7.973 15.95C7.973 11.55 11.533 8.006 15.916 8.006C17.209 8.006 18.418 8.308 19.493 8.863L22.264 7.066C20.4285 5.71877 18.2098 4.99475 15.933 5C14.4969 4.99868 13.0746 5.28058 11.7476 5.82954C10.4205 6.37851 9.21476 7.18378 8.19927 8.19927C7.18379 9.21475 6.37852 10.4205 5.82955 11.7476C5.28058 13.0746 4.99869 14.4969 5 15.933C5 18.368 5.79 20.602 7.133 22.415C7.653 21.475 8.275 20.618 8.997 19.845C8.997 19.845 10.072 18.721 10.895 18.15C13.1359 16.5087 15.8423 15.6259 18.62 15.63V15.63Z" fill="white"/>
</g>
<defs>
<clipPath id="clip0_0_971">
<rect width="32" height="32" fill="white"/>
</clipPath>
</defs>
</svg>
