<svg width="32" height="32" viewBox="0 0 32 32" fill="none" xmlns="http://www.w3.org/2000/svg">
<g clip-path="url(#clip0_0_964)">
<path d="M16 32C24.8366 32 32 24.8366 32 16C32 7.16344 24.8366 0 16 0C7.16344 0 0 7.16344 0 16C0 24.8366 7.16344 32 16 32Z" fill="#07BC9C"/>
<path fill-rule="evenodd" clip-rule="evenodd" d="M23.4877 6.695C22.9187 6.553 21.5927 6.572 21.1857 7.131C21.5927 7.358 21.8767 7.708 22.2937 7.718C22.7107 7.728 23.1937 7.329 23.7237 7.557C23.4967 7.557 22.4737 7.747 22.4077 8.059C22.5507 8.294 22.7227 8.51 22.9187 8.703C23.1847 8.921 23.2127 8.997 23.6107 8.779C24.0979 8.47144 24.4655 8.00683 24.6527 7.462C24.6527 7.178 24.7377 7.367 24.5297 7.131C24.224 6.90139 23.8659 6.75154 23.4877 6.695V6.695ZM18.1447 7.197C18.9141 6.78657 19.8081 6.67509 20.6547 6.884C20.5728 5.97163 20.1462 5.1248 19.4617 4.516C20.2817 5.026 20.8587 5.846 21.0617 6.789C21.5267 6.714 22.0097 6.534 22.4547 6.467C22.3745 5.56012 21.9752 4.7111 21.3277 4.071C21.0147 3.777 20.1337 3 19.6307 3C19.1277 3 18.4747 4.137 18.2857 4.601C17.9616 5.42879 17.9118 6.33879 18.1437 7.197H18.1447Z" fill="white"/>
<path fill-rule="evenodd" clip-rule="evenodd" d="M18.2213 8.63246C18.0513 8.22546 18.7993 8.06446 19.0273 8.09246C19.4343 8.21246 19.8073 8.42646 20.1173 8.71746C20.7133 9.16346 21.8873 10.4805 22.7503 10.1675C23.6123 9.85446 22.5893 8.32946 22.1153 7.93146C21.728 7.56634 21.2608 7.29667 20.7509 7.1439C20.2411 6.99112 19.7026 6.95947 19.1783 7.05146C18.7003 7.19446 18.3083 7.54146 18.1083 7.99746C18.0513 8.20646 17.8433 8.63246 18.2223 8.63246H18.2213Z" fill="white"/>
<path d="M22.3606 14.7798C21.8306 14.4578 21.6406 13.5098 21.3096 12.9898C20.8546 12.2598 20.1916 11.6638 19.7936 10.9058C19.3956 10.1478 19.3486 9.56976 18.6666 9.20976C18.4052 9.072 18.1141 9 17.8186 9C17.5231 9 17.2321 9.072 16.9706 9.20976C16.1236 9.59376 15.2326 9.87376 14.3176 10.0438C13.912 10.1398 13.5134 10.2635 13.1246 10.4138C12.8001 10.5961 12.4609 10.7509 12.1106 10.8768C11.2386 10.9998 9.62863 9.92976 9.78063 11.5868C9.78063 11.8908 10.0926 12.0518 9.99763 12.4398C9.90363 12.8288 9.48663 13.1698 9.28763 13.4728C8.87899 14.1584 8.56036 14.8937 8.33963 15.6608C7.80127 17.3981 7.90562 19.271 8.63363 20.9378C8.98363 21.7578 9.45062 22.5238 10.0166 23.2118C10.2936 23.5348 10.5366 23.8838 10.7466 24.2538C10.9066 24.6918 11.1066 25.1138 11.3436 25.5138C11.5485 25.7712 11.8206 25.9668 12.1299 26.0788C12.4392 26.1909 12.7734 26.2151 13.0956 26.1488C13.4267 26.035 13.7446 25.8858 14.0436 25.7038C14.5544 25.5006 15.0891 25.3635 15.6346 25.2958C17.6251 24.9837 19.4407 23.9769 20.7596 22.4538C21.3845 21.6997 21.8692 20.8398 22.1906 19.9148C22.3774 19.3988 22.5137 18.866 22.5976 18.3238C22.6456 17.9828 22.5416 17.1198 22.7876 16.8938C22.9476 16.7408 23.3276 16.7038 23.4416 16.5608C23.528 16.3726 23.5943 16.1758 23.6396 15.9738C23.8196 15.4148 22.7686 14.9698 22.3616 14.7798H22.3606ZM23.0806 16.1348C22.9386 16.4568 22.3806 16.6468 22.1336 16.9878C21.7795 17.6267 21.3071 18.1924 20.7416 18.6548C20.1719 18.9516 19.5165 19.0403 18.8884 18.9053C18.2603 18.7704 17.6991 18.4204 17.3016 17.9158C16.8822 17.3918 16.6549 16.7399 16.6576 16.0688C16.6576 15.5478 17.2266 14.2398 16.6576 13.9558C16.0896 13.6718 15.8246 14.5908 15.6066 14.9038C15.2253 15.5367 14.6456 16.0261 13.9576 16.2958C13.4223 16.477 12.8479 16.5092 12.2956 16.3891C11.7434 16.269 11.2343 16.001 10.8226 15.6138C10.5474 15.2221 10.3643 14.7733 10.2871 14.3009C10.2098 13.8284 10.2404 13.3447 10.3766 12.8858C10.3893 12.4182 10.348 11.9508 10.2536 11.4928C10.2536 10.8108 10.8506 11.0568 11.3336 11.1518C12.531 11.365 13.6685 11.8336 14.6686 12.5258C15.6079 13.306 16.7342 13.8281 17.9366 14.0408C18.7416 14.1168 19.5396 14.2528 20.3246 14.4488C20.7126 14.5628 21.0726 14.7518 21.4516 14.8848C21.8516 15.0148 22.2396 15.1818 22.6076 15.3868C22.8636 15.4998 23.2326 15.7268 23.0906 16.0968L23.0806 16.1348V16.1348Z" fill="white"/>
</g>
<defs>
<clipPath id="clip0_0_964">
<rect width="32" height="32" fill="white"/>
</clipPath>
</defs>
</svg>
