<svg width="32" height="32" viewBox="0 0 32 32" fill="none" xmlns="http://www.w3.org/2000/svg">
<g clip-path="url(#clip0_0_953)">
<path d="M16 32C24.8366 32 32 24.8366 32 16C32 7.16344 24.8366 0 16 0C7.16344 0 0 7.16344 0 16C0 24.8366 7.16344 32 16 32Z" fill="#00004D"/>
<path d="M15.5052 6.474C15.4132 6.864 15.1372 8.094 15.0112 8.918C14.9612 9.256 14.7512 9.707 15.3372 9.95C15.2032 9.976 15.1622 9.993 15.1202 9.984C14.7022 9.932 14.2752 9.872 13.8572 9.82C13.7652 9.811 13.6482 9.794 13.5642 9.837C13.0042 10.132 12.7542 10.834 13.0372 11.432C13.1972 11.77 13.2472 12.082 13.1802 12.438C13.1717 12.5302 13.189 12.623 13.2302 12.706C13.5562 13.504 13.6152 14.301 13.3552 15.133C13.3132 15.263 13.3392 15.42 13.3472 15.558C13.3642 15.827 13.3802 16.096 13.4052 16.364C12.9952 16.035 12.5452 15.74 12.2012 15.341C12.0302 15.1401 11.9008 14.9072 11.8204 14.6559C11.7401 14.4046 11.7105 14.1399 11.7332 13.877C11.7412 13.773 11.6582 13.651 11.5912 13.556C11.3982 13.27 11.1732 13.01 11.0142 12.706C10.7882 12.273 10.5122 12.091 10.0602 12.23C9.83523 12.299 9.62523 12.446 9.43323 12.594C9.26623 12.714 9.12323 12.871 8.97323 13.01C8.95623 12.992 8.93123 12.975 8.91523 12.958C8.94023 12.897 8.94823 12.828 8.98223 12.767C9.21623 12.334 9.20723 12.342 8.88223 11.978C8.25423 11.276 7.71023 10.522 7.47623 9.568C7.35923 9.092 7.21623 8.623 7.09223 8.155C6.46423 8.935 6.38123 11.745 7.00023 12.854C6.80723 11.874 6.61523 10.947 6.83223 9.993C6.87423 10.21 6.89923 10.418 6.90823 10.635C6.94123 11.406 7.12523 12.135 7.45123 12.819C7.51823 12.966 7.71123 13.053 7.85323 13.157C7.90323 13.192 7.97023 13.209 8.02823 13.235C8.02023 13.27 8.02023 13.305 8.01123 13.33C7.70223 13.313 7.40123 13.278 7.09123 13.27C6.89123 13.261 6.65723 13.209 6.49823 13.296C6.28823 13.408 6.12123 13.626 6.00423 13.842C5.97123 13.902 6.13823 14.145 6.26423 14.241C6.59823 14.492 6.82423 14.769 6.77423 15.237C6.76523 15.35 6.89123 15.55 7.00023 15.593C7.30023 15.706 7.38423 15.931 7.43423 16.217C7.46823 16.399 7.49323 16.633 7.61023 16.737C7.98623 17.084 8.10323 17.5 8.11223 18.003C8.12023 18.323 8.28723 18.653 8.24623 18.965C8.21223 19.234 8.26223 19.433 8.37123 19.589H8.36323L8.38823 19.615C8.45523 19.719 8.54723 19.805 8.65523 19.884L8.87323 20.092C8.87323 20.092 9.24923 20.499 9.25723 20.898C9.26623 21.297 9.23223 21.348 9.34923 21.704C9.46723 22.051 9.62523 22.328 9.67623 22.623C9.72623 22.918 9.61723 23.004 9.79323 23.195C9.96823 23.385 10.1612 23.515 10.3612 23.733C10.5542 23.958 10.8302 24.036 11.0142 24.227C11.1982 24.417 11.4902 24.773 11.7162 24.998C11.8332 25.12 11.9922 25.215 12.1092 25.284C12.1432 25.319 12.1592 25.336 12.1512 25.354C11.9922 25.7 12.3182 25.692 12.4442 25.804C12.6612 25.995 12.9712 26.116 13.1292 26.35C13.4142 26.775 13.7822 26.992 14.2422 27.122C14.2842 27.131 14.3342 27.139 14.3502 27.165C14.4092 27.235 14.4502 27.321 14.5012 27.399C14.4842 27.425 14.4592 27.451 14.4422 27.477C14.9022 27.642 15.3622 27.815 15.8222 27.971C15.9142 28.006 16.0322 28.006 16.1152 27.981C16.5002 27.851 16.8852 27.711 17.2692 27.573C17.3442 27.547 17.4612 27.469 17.4532 27.434C17.3952 27.157 17.6202 27.2 17.7462 27.131C18.0462 26.966 18.3982 26.845 18.6242 26.611C18.9002 26.316 19.1512 26.012 19.5192 25.813C19.6692 25.726 19.9702 25.692 19.8192 25.363C19.8112 25.345 19.8952 25.276 19.9372 25.233C19.9952 25.18 20.0622 25.137 20.1462 25.068C20.2042 25.042 20.2712 24.998 20.3802 24.92C20.7204 24.6406 21.0365 24.3332 21.3252 24.001C21.5252 23.75 21.8522 23.438 21.8522 23.438C21.8522 23.438 21.6422 22.944 21.7772 22.51L22.4872 21.982C22.6382 21.661 22.6802 21.539 22.8472 21.21C23.0062 20.88 23.0472 20.248 23.2742 19.996C23.4742 19.78 23.7172 19.606 23.7082 19.468C23.7608 19.3207 23.7779 19.1631 23.7582 19.008C23.7342 18.783 23.8082 18.548 23.8342 18.323C23.8512 18.133 23.8342 17.942 23.8842 17.76C23.9682 17.465 24.0262 17.119 24.2102 16.91C24.4102 16.685 24.5452 16.486 24.5702 16.182C24.5952 15.922 24.6952 15.714 24.9552 15.592C25.0802 15.532 25.2052 15.324 25.2052 15.185C25.1972 14.795 25.3222 14.518 25.6402 14.31C25.7322 14.25 25.8002 14.145 25.8912 14.076C26.0412 13.963 26.0172 13.833 25.9332 13.686C25.7162 13.296 25.3892 13.157 24.9552 13.236C24.6282 13.296 24.1352 13.33 23.9592 13.33C23.7842 13.33 23.9092 13.2 23.9092 13.2C24.5282 13.183 24.6032 12.672 24.7452 12.256C24.8632 11.909 24.9292 11.545 24.9882 11.181C25.0472 10.834 25.0472 10.669 25.1132 10.131C25.1802 9.594 25.3392 11.172 25.0882 12.464C25.5902 11.701 25.4312 8.935 24.8712 8.121C24.8542 8.138 24.8372 8.147 24.8372 8.164C24.8122 8.268 24.7962 8.372 24.7712 8.476C24.5282 9.802 24.0262 10.99 23.0982 11.961C22.7552 12.316 22.7722 12.325 23.0062 12.784C23.0312 12.828 23.0312 12.888 23.0392 12.949C22.8392 12.854 22.6892 12.715 22.5382 12.585C22.4064 12.4577 22.2503 12.3583 22.0791 12.2928C21.908 12.2273 21.7254 12.1971 21.5422 12.204C21.1422 12.204 21.0322 12.498 20.9152 12.784C20.6982 13.304 20.1882 13.625 20.1712 14.319C20.1462 15.333 19.2432 15.844 18.6572 16.52C18.6492 16.53 18.6242 16.512 18.5902 16.512C18.5822 16.477 18.5572 16.434 18.5652 16.399C18.5652 15.775 18.7332 15.142 18.4572 14.544C18.4402 14.509 18.4482 14.457 18.4572 14.423C18.5652 13.547 18.6662 12.68 18.7832 11.813C18.7992 11.701 18.8582 11.597 18.9082 11.493C19.2012 10.869 18.9832 10.158 18.3902 9.846C18.317 9.81278 18.236 9.80066 18.1562 9.811C17.8292 9.854 17.5122 9.915 17.1942 9.958C17.0342 9.984 16.8682 9.984 16.7092 9.993C16.7002 9.967 16.6922 9.941 16.6842 9.923C16.9512 9.837 17.0852 9.673 17.0272 9.378L16.4242 6.378C16.4082 6.3 16.3912 5.91 16.4832 6.11C16.5752 6.318 16.8682 7.21 17.0352 7.774C17.1942 8.32 17.3192 8.884 17.4612 9.438C17.2272 7.887 16.8682 6.378 15.9812 5C15.7451 5.29584 15.5562 5.62641 15.4212 5.98C15.206 6.61099 15.0053 7.24682 14.8192 7.887C14.6772 8.381 14.3092 9.352 14.4682 9.377C14.6262 9.404 15.4042 6.491 15.4542 6.283C15.5042 6.075 15.5972 6.083 15.5042 6.473L15.5052 6.474Z" fill="white"/>
</g>
<defs>
<clipPath id="clip0_0_953">
<rect width="32" height="32" fill="white"/>
</clipPath>
</defs>
</svg>
