<svg width="32" height="32" viewBox="0 0 32 32" fill="none" xmlns="http://www.w3.org/2000/svg">
<g clip-path="url(#clip0_0_1646)">
<path d="M16 32C24.8366 32 32 24.8366 32 16C32 7.16344 24.8366 0 16 0C7.16344 0 0 7.16344 0 16C0 24.8366 7.16344 32 16 32Z" fill="#302C2C"/>
<path fill-rule="evenodd" clip-rule="evenodd" d="M15.496 27C15.226 26.972 14.956 26.947 14.686 26.915C13.2344 26.7419 11.8324 26.278 10.564 25.551C10.545 25.541 10.528 25.526 10.491 25.501C12.697 23.851 14.893 22.211 17.101 20.561L17.766 21.208C18.136 21.57 18.508 21.928 18.871 22.295C18.961 22.385 19.026 22.384 19.131 22.33C20.2307 21.7811 21.1703 20.9579 21.859 19.94L21.966 19.782C21.997 19.818 22.026 19.847 22.05 19.879C22.817 20.901 23.583 21.923 24.353 22.942C24.42 23.03 24.412 23.082 24.341 23.162C22.558 25.188 20.342 26.436 17.671 26.863C17.335 26.917 16.994 26.937 16.655 26.974C16.61 26.979 16.565 26.991 16.521 27H15.496V27ZM16.466 5C16.652 5.019 16.839 5.039 17.026 5.056C18.602 5.206 20.076 5.673 21.449 6.456C21.469 6.468 21.486 6.482 21.519 6.506L14.801 11.325C14.712 11.241 14.626 11.161 14.541 11.078C14.069 10.618 13.595 10.159 13.126 9.695C13.051 9.621 12.994 9.613 12.9 9.66C11.7809 10.2123 10.8259 11.048 10.13 12.084L10.03 12.234L7.56204 8.946C7.81104 8.682 8.04104 8.419 8.29004 8.176C9.91304 6.593 11.84 5.586 14.073 5.181C14.503 5.103 14.942 5.077 15.377 5.026C15.426 5.021 15.475 5.009 15.523 5H16.465H16.466ZM6.45804 10.534L11.453 17.082L10.445 18.116C10.194 18.373 9.94504 18.633 9.68904 18.886C9.61704 18.958 9.61404 19.013 9.65804 19.101C10.2096 20.2204 11.045 21.1755 12.081 21.871C12.116 21.893 12.151 21.916 12.184 21.941C12.19 21.945 12.193 21.955 12.211 21.989L8.95004 24.435C7.00004 22.756 5.73504 20.687 5.22704 18.178C4.68304 15.492 5.12404 12.954 6.45904 10.534H6.45804ZM20.633 14.904L21.551 13.951C21.807 13.685 22.059 13.416 22.321 13.157C22.403 13.076 22.402 13.015 22.354 12.919C21.799 11.7862 20.9536 10.8208 19.904 10.121C19.867 10.096 19.831 10.069 19.768 10.024L23.047 7.564C24.904 9.154 26.137 11.114 26.703 13.479C27.41 16.431 26.78 19.351 25.556 21.407L20.633 14.904Z" fill="white"/>
</g>
<defs>
<clipPath id="clip0_0_1646">
<rect width="32" height="32" fill="white"/>
</clipPath>
</defs>
</svg>
